<?xml version="1.0" encoding="UTF-8"?>
<svg width="39px" height="39px" viewBox="0 0 39 39" version="1.1" xmlns="http://www.w3.org/2000/svg" xmlns:xlink="http://www.w3.org/1999/xlink">
    <!-- Generator: Sketch 46.2 (44496) - http://www.bohemiancoding.com/sketch -->
    <title>Portfolio</title>
    <desc>Created with Sketch.</desc>
    <defs>
        <polygon id="path-1" points="0.829959855 3.2 4.20245 3.2 4.20245 0.11624 0.829959855 0.11624 0.829959855 3.2"></polygon>
    </defs>
    <g id="FF-Design-Library" stroke="none" stroke-width="1" fill="none" fill-rule="evenodd">
        <g id="Style-Library" transform="translate(-1151.000000, -4648.000000)">
            <g id="Portfolio" transform="translate(1151.000000, 4648.000000)">
                <circle id="Oval-4-Copy-3" fill="#F65A27" fill-rule="nonzero" opacity="0.25" cx="19.5" cy="19.5" r="19.5"></circle>
                <g id="Icons-/-Writing" transform="translate(10.000000, 11.000000)">
                    <g id="Page-1" stroke-width="1">
                        <g id="Group-5" transform="translate(9.625000, 16.000800)">
                            <mask id="mask-2" fill="white">
                                <use xlink:href="#path-1"></use>
                            </mask>
                            <g id="Clip-4"></g>
                        </g>
                    </g>
                    <path d="M2.625,3.6 L2.625,12.8 C2.625,13.2408 2.232125,13.6 1.75,13.6 C1.267875,13.6 0.875,13.2408 0.875,12.8 L0.875,0.8 L4.375,0.8 L4.375,2 C4.375,2.2208 4.571,2.4 4.8125,2.4 L15.75,2.4 L15.75,3.2 L3.0625,3.2 C2.821,3.2 2.625,3.3792 2.625,3.6 L2.625,3.6 Z M18.022375,8.5856 C18.1195,8.4968 18.249,8.4648 18.375,8.4768 L18.375,3.6 C18.375,3.3792 18.179,3.2 17.9375,3.2 L16.625,3.2 L16.625,2 C16.625,1.7792 16.429,1.6 16.1875,1.6 L5.25,1.6 L5.25,0.4 C5.25,0.1792 5.054,0 4.8125,0 L0.4375,0 C0.196,0 0,0.1792 0,0.4 L0,12.8 C0,13.6824 0.784875,14.4 1.75,14.4 L11.662875,14.4 L18.022375,8.5856 Z" id="Fill-1" fill="#F65A27"></path>
                    <path d="M10.471825,18.69144 C10.428075,18.83064 10.47095,18.98104 10.58295,19.08344 C10.666075,19.16024 10.778075,19.20104 10.891825,19.20104 C10.932075,19.20104 10.97145,19.19544 11.010825,19.18584 L13.82745,18.44984 L11.27595,16.11704 L10.471825,18.69144 Z" id="Fill-3" fill="#F65A27"></path>
                    <path d="M20.828675,11.7172 L18.721675,9.7916 C18.4828,9.5724 18.15905,9.5676 17.9683,9.7428 L16.581425,11.034 L19.388425,13.6004 L20.828675,12.2828 C20.910925,12.2076 20.956425,12.106 20.956425,12.0004 C20.956425,11.894 20.910925,11.7924 20.828675,11.7172" id="Fill-6" fill="#F65A27"></path>
                    <polygon id="Fill-8" fill="#F65A27" points="12.8998625 14.4 12.8998625 14.4 11.7676125 15.4352 14.5737375 18.0008 17.8611125 14.9952 18.7693625 14.1656 15.9623625 11.5992"></polygon>
                </g>
            </g>
        </g>
    </g>
</svg>