<?xml version="1.0" encoding="UTF-8"?>
<svg width="178px" height="178px" viewBox="0 0 178 178" version="1.1" xmlns="http://www.w3.org/2000/svg" xmlns:xlink="http://www.w3.org/1999/xlink">
    <!-- Generator: Sketch 46.2 (44496) - http://www.bohemiancoding.com/sketch -->
    <title>Home Bias Toolkit Icon</title>
    <desc>Created with Sketch.</desc>
    <defs></defs>
    <g id="Page-1" stroke="none" stroke-width="1" fill="none" fill-rule="evenodd">
        <g id="Home-Bias" transform="translate(-150.000000, -2623.000000)">
            <g id="Bias-Full-Hit" transform="translate(120.000000, 2593.000000)">
                <g id="Home-Bias-Toolkit-Icon" transform="translate(30.000000, 30.000000)">
                    <path d="M88.876354,177.752708 C39.7907517,177.752708 0,137.961956 0,88.876354 C0,39.7923676 39.7907517,0 88.876354,0 C137.961956,0 177.752708,39.7923676 177.752708,88.876354 C177.752708,137.961956 137.961956,177.752708 88.876354,177.752708 Z" id="Fill-7" fill="#FEE49D"></path>
                    <path d="M37.1664753,98.5719563 C37.1664753,100.355947 38.6143519,101.803824 40.3983427,101.803824 L137.354365,101.803824 C139.138356,101.803824 140.586233,100.355947 140.586233,98.5719563 L140.586233,72.7170169 L37.1664753,72.7170169 L37.1664753,98.5719563 Z" id="Fill-10" fill="#69618D"></path>
                    <path d="M137.354365,130.89063 C137.354365,132.674621 135.906489,134.122498 134.122498,134.122498 L43.6302102,134.122498 C41.8462193,134.122498 40.3983427,132.674621 40.3983427,130.89063 L40.3983427,101.803824 L137.354365,101.803824 L137.354365,130.89063 Z" id="Fill-12" fill="#423872"></path>
                    <path d="M96.9560226,100.18789 C96.9560226,101.079885 96.2337002,101.803824 95.3400889,101.803824 L82.4126192,101.803824 C81.5190079,101.803824 80.7966855,101.079885 80.7966855,100.18789 L80.7966855,93.7241552 C80.7966855,92.8321598 81.5190079,92.1082215 82.4126192,92.1082215 L95.3400889,92.1082215 C96.2337002,92.1082215 96.9560226,92.8321598 96.9560226,93.7241552 L96.9560226,100.18789 Z" id="Fill-14" fill="#FFFFFF"></path>
                    <path d="M82.4126192,101.803824 L95.3400889,101.803824 L95.3400889,108.267559 C95.3400889,111.837156 92.4459516,114.731293 88.876354,114.731293 C85.3067565,114.731293 82.4126192,111.837156 82.4126192,108.267559 L82.4126192,101.803824 Z" id="Fill-16" fill="#B3AFC5"></path>
                    <polygon id="Fill-18" fill="#0C333D" points="87.2604203 109.883492 90.4922877 109.883492 90.4922877 105.035691 87.2604203 105.035691"></polygon>
                    <polygon id="Fill-20" fill="#FFFFFF" points="66.2532821 72.7170169 79.1807518 72.7170169 79.1807518 67.8692158 66.2532821 67.8692158"></polygon>
                    <polygon id="Fill-21" fill="#FFFFFF" points="98.5719563 72.7170169 111.499426 72.7170169 111.499426 67.8692158 98.5719563 67.8692158"></polygon>
                    <path d="M105.035691,50.093945 L72.7170169,50.093945 C70.9330261,50.093945 69.4851495,51.5418216 69.4851495,53.3258124 L69.4851495,67.8692158 L75.9488844,67.8692158 L75.9488844,56.5576798 L101.803824,56.5576798 L101.803824,67.8692158 L108.267559,67.8692158 L108.267559,53.3258124 C108.267559,51.5418216 106.819682,50.093945 105.035691,50.093945" id="Fill-22" fill="#4A4A4A"></path>
                </g>
            </g>
        </g>
    </g>
</svg>