<?xml version="1.0" encoding="UTF-8" standalone="no"?>
<!-- Generated by IcoMoon.io -->

<svg
   xmlns:dc="http://purl.org/dc/elements/1.1/"
   xmlns:cc="http://creativecommons.org/ns#"
   xmlns:rdf="http://www.w3.org/1999/02/22-rdf-syntax-ns#"
   xmlns:svg="http://www.w3.org/2000/svg"
   xmlns="http://www.w3.org/2000/svg"
   xmlns:sodipodi="http://sodipodi.sourceforge.net/DTD/sodipodi-0.dtd"
   xmlns:inkscape="http://www.inkscape.org/namespaces/inkscape"
   version="1.1"
   width="24"
   height="24"
   viewBox="0 0 24 24"
   id="svg2"
   inkscape:version="0.48.4 r9939"
   sodipodi:docname="head.svg">
  <metadata
     id="metadata10">
    <rdf:RDF>
      <cc:Work
         rdf:about="">
        <dc:format>image/svg+xml</dc:format>
        <dc:type
           rdf:resource="http://purl.org/dc/dcmitype/StillImage" />
      </cc:Work>
    </rdf:RDF>
  </metadata>
  <defs
     id="defs8" />
  <sodipodi:namedview
     pagecolor="#ffffff"
     bordercolor="#666666"
     borderopacity="1"
     objecttolerance="10"
     gridtolerance="10"
     guidetolerance="10"
     inkscape:pageopacity="0"
     inkscape:pageshadow="2"
     inkscape:window-width="964"
     inkscape:window-height="728"
     id="namedview6"
     showgrid="false"
     inkscape:zoom="9.8333333"
     inkscape:cx="-0.10169492"
     inkscape:cy="12"
     inkscape:window-x="51"
     inkscape:window-y="24"
     inkscape:window-maximized="0"
     inkscape:current-layer="svg2" />
  <path
     d="m 11.99917,4.0498477 q 1.35622,0 2.50149,0.698225 1.145272,0.698225 1.813831,1.8943148 0.66856,1.1960897 0.66856,2.6124885 v 2.602081 q 0,1.0842 -0.401966,2.053042 -0.401966,0.96884 -1.122848,1.687015 1.89439,0.311383 3.367712,0.918534 1.473322,0.607153 2.306322,1.43288 0.833,0.825726 0.833831,1.74166 v 1.707832 q 0,1.077261 -0.730017,1.83967 Q 20.506068,24 19.474576,24 H 4.5254235 Q 3.493932,24 2.7639151,23.23759 2.0338981,22.475181 2.0338981,21.39792 v -1.714772 q 0,-0.915065 0.8338306,-1.741659 Q 3.7015591,17.114894 5.1707286,16.50861 6.6398981,15.902325 8.5351185,15.597014 7.8217117,14.871901 7.4189151,13.906529 7.0161185,12.941157 7.0169489,11.856957 V 9.254876 q 0,-1.4163988 0.6685594,-2.6124885 Q 8.3540676,5.4462977 9.4993387,4.7480727 10.64461,4.0498477 12.00083,4.0498477 z m 0,13.0104023 q -1.803865,0 -3.4806617,0.301842 -1.6767966,0.301842 -2.9233898,0.843942 -0.4999662,0.21684 -0.8919662,0.460568 -0.392,0.243729 -0.5971355,0.440619 -0.2051358,0.196891 -0.3081187,0.342607 -0.102983,0.145717 -0.1038131,0.234188 v 1.714771 q 0,0.359087 0.2433388,0.613223 0.2433391,0.254137 0.5871695,0.254137 H 19.473745 q 0.343831,0 0.58717,-0.254137 0.243339,-0.254136 0.243339,-0.613223 v -1.707832 q 0,-0.08847 -0.103811,-0.234188 -0.103811,-0.145716 -0.308119,-0.342607 -0.204305,-0.196891 -0.597136,-0.440619 -0.39283,-0.243729 -0.891966,-0.467507 -1.245762,-0.5421 -2.92339,-0.843942 -1.677627,-0.301842 -3.48066,-0.301842 z m 0,-11.2756818 q -1.375323,0 -2.3486786,1.0165461 Q 8.6771352,7.8176605 8.6771352,9.254009 v 2.60208 q 0,1.436349 0.9733562,2.452896 0.9733556,1.016545 2.3486786,1.016545 1.375321,0 2.348677,-1.016545 0.973356,-1.016547 0.973356,-2.452896 v -2.60208 q 0,-1.4363485 -0.973356,-2.4528947 Q 13.374491,5.7845682 11.99917,5.7845682 z"
     id="path4"
     inkscape:connector-curvature="0"
     style="fill:#444444" />
</svg>
