<?xml version="1.0" encoding="utf-8"?>
<!-- Generator: Adobe Illustrator 16.0.4, SVG Export Plug-In . SVG Version: 6.00 Build 0)  -->
<!DOCTYPE svg PUBLIC "-//W3C//DTD SVG 1.1//EN" "http://www.w3.org/Graphics/SVG/1.1/DTD/svg11.dtd">
<svg version="1.1" id="Layer_1" xmlns="http://www.w3.org/2000/svg" xmlns:xlink="http://www.w3.org/1999/xlink" x="0px" y="0px"
	 width="240px" height="240px" viewBox="0 0 240 240" enable-background="new 0 0 240 240" xml:space="preserve">
<rect x="0" y="0" fill-rule="evenodd" clip-rule="evenodd" fill="#BBB8CB" width="240" height="240"/>
<path fill-rule="evenodd" clip-rule="evenodd" fill="#534A7F" d="M215.38,179.814c-5.946-9.318-25.986-15.122-45.815-23.422
	c-19.827-8.281-24.521-11.166-24.521-11.166l-0.193-19.069c0,0,7.427-5.733,9.755-23.686c4.623,1.354,9.509-6.946,9.773-11.316
	c0.247-4.203-0.653-15.901-6.315-14.733c1.146-8.803,1.976-16.715,1.587-20.908c-1.465-15.334-16.512-31.491-39.657-31.491
	c-23.11,0-38.175,16.157-39.656,31.491c-0.389,4.193,0.44,12.105,1.604,20.908c-5.679-1.168-6.579,10.53-6.315,14.733
	c0.266,4.371,5.134,12.67,9.791,11.316c2.294,17.953,9.739,23.686,9.739,23.686l-0.195,19.069c0,0-4.709,2.885-24.502,11.166
	c-19.864,8.3-39.886,14.104-45.831,23.422C19.264,188.157,20.87,240,20.87,240h99.124h99.142
	C219.136,240,220.725,188.157,215.38,179.814z"/>
</svg>
