<?xml version="1.0" encoding="utf-8"?>
<!-- Generator: Adobe Illustrator 16.0.0, SVG Export Plug-In . SVG Version: 6.00 Build 0)  -->
<!DOCTYPE svg PUBLIC "-//W3C//DTD SVG 1.1//EN" "http://www.w3.org/Graphics/SVG/1.1/DTD/svg11.dtd">
<svg version="1.1" id="Layer_1" xmlns="http://www.w3.org/2000/svg" xmlns:xlink="http://www.w3.org/1999/xlink" x="0px" y="0px"
	 width="16px" height="9px" viewBox="0 0 16 9" enable-background="new 0 0 16 9" xml:space="preserve">
<title>F1/P3</title>
<desc>Created with Sketch.</desc>
<g id="Symbols">
	<g id="F1_x2F_P3">
		<circle id="Oval-9" fill="#FFBF00" cx="4.5" cy="4.5" r="4.5"/>
		<g>
			<g enable-background="new    ">
				<path fill="#404040" d="M3.843,4.074H4.37c0.25,0,0.437-0.062,0.557-0.188c0.121-0.126,0.181-0.292,0.181-0.5
					c0-0.2-0.06-0.356-0.179-0.468c-0.12-0.111-0.285-0.167-0.494-0.167c-0.189,0-0.348,0.052-0.475,0.155S3.768,3.146,3.768,3.312
					H2.78c0-0.26,0.07-0.493,0.21-0.699c0.141-0.206,0.336-0.367,0.588-0.484C3.83,2.014,4.107,1.955,4.411,1.955
					c0.526,0,0.939,0.126,1.237,0.378s0.448,0.599,0.448,1.04c0,0.229-0.069,0.438-0.208,0.629S5.566,4.341,5.34,4.443
					c0.28,0.101,0.489,0.251,0.627,0.451c0.138,0.2,0.207,0.438,0.207,0.711c0,0.442-0.161,0.797-0.484,1.062
					c-0.322,0.268-0.749,0.4-1.28,0.4c-0.497,0-0.903-0.131-1.218-0.393C2.876,6.413,2.719,6.066,2.719,5.637h0.988
					c0,0.187,0.07,0.339,0.21,0.457c0.14,0.119,0.312,0.178,0.518,0.178c0.235,0,0.419-0.062,0.552-0.186
					c0.134-0.124,0.2-0.289,0.2-0.494c0-0.497-0.273-0.745-0.82-0.745H3.843V4.074z"/>
			</g>
		</g>
	</g>
</g>
</svg>
