<svg width="18" height="18" viewBox="0 0 18 18" xmlns="http://www.w3.org/2000/svg"><title>F1/P1 Copy</title><g fill="none" fill-rule="evenodd"><circle fill="#FFBF00" cx="9" cy="9" r="9"/><path d="M12.499 14H5.677v-1.354l3.22-3.431c.442-.483.769-.905.98-1.265.212-.36.318-.702.318-1.025 0-.442-.111-.79-.335-1.043-.223-.253-.542-.38-.957-.38-.446 0-.798.155-1.056.462-.257.308-.386.712-.386 1.214H5.479c0-.606.144-1.16.434-1.661a3.06 3.06 0 0 1 1.227-1.18c.528-.284 1.128-.427 1.798-.427 1.025 0 1.821.246 2.389.738.567.493.85 1.188.85 2.085 0 .493-.127.994-.382 1.504s-.693 1.105-1.313 1.784L8.22 12.407h4.279V14z" fill="#FFF"/></g></svg>