<?xml version="1.0" encoding="utf-8"?>
<!-- Generator: Adobe Illustrator 16.0.0, SVG Export Plug-In . SVG Version: 6.00 Build 0)  -->
<!DOCTYPE svg PUBLIC "-//W3C//DTD SVG 1.1//EN" "http://www.w3.org/Graphics/SVG/1.1/DTD/svg11.dtd">
<svg version="1.1" id="Layer_1" xmlns="http://www.w3.org/2000/svg" xmlns:xlink="http://www.w3.org/1999/xlink" x="0px" y="0px"
	 width="16px" height="9px" viewBox="0 0 16 9" enable-background="new 0 0 16 9" xml:space="preserve">
<title>F1/P2</title>
<desc>Created with Sketch.</desc>
<g id="Symbols">
	<g id="F1_x2F_P2">
		<circle id="Oval-9-Copy" fill="#FFBF00" cx="4.5" cy="4.5" r="4.5"/>
		<g enable-background="new    ">
			<path fill="#404040" d="M6.25,7H2.838V6.323l1.61-1.716c0.221-0.241,0.385-0.452,0.49-0.633c0.106-0.18,0.159-0.351,0.159-0.512
				c0-0.222-0.056-0.396-0.167-0.521C4.818,2.814,4.659,2.752,4.452,2.752c-0.223,0-0.399,0.076-0.528,0.23
				C3.795,3.136,3.73,3.338,3.73,3.589H2.739c0-0.303,0.072-0.58,0.217-0.831c0.145-0.25,0.35-0.446,0.614-0.589
				s0.564-0.214,0.899-0.214c0.513,0,0.911,0.123,1.194,0.369C5.947,2.57,6.089,2.918,6.089,3.367c0,0.246-0.064,0.496-0.191,0.752
				C5.77,4.374,5.551,4.671,5.241,5.011L4.11,6.203h2.14V7z"/>
		</g>
	</g>
</g>
</svg>
