<svg width="18" height="18" viewBox="0 0 18 18" xmlns="http://www.w3.org/2000/svg"><title>F1/P1 Copy 2</title><g fill="none" fill-rule="evenodd"><circle fill="#FFBF00" cx="9" cy="9" r="9"/><path d="M7.687 8.148h1.052c.502 0 .873-.125 1.115-.376.241-.25.362-.583.362-.998 0-.4-.12-.713-.36-.936-.238-.223-.568-.335-.987-.335-.378 0-.695.104-.95.311a.995.995 0 0 0-.383.81H5.561c0-.52.14-.985.42-1.398.28-.412.672-.735 1.176-.967A3.924 3.924 0 0 1 8.82 3.91c1.053 0 1.878.252 2.475.756.597.503.895 1.197.895 2.081 0 .456-.139.875-.417 1.258a2.71 2.71 0 0 1-1.093.882c.56.2.978.501 1.254.902s.414.875.414 1.422c0 .884-.323 1.593-.968 2.126-.645.533-1.498.8-2.56.8-.993 0-1.806-.262-2.437-.786-.63-.525-.947-1.217-.947-2.079h1.976c0 .374.14.68.42.916.28.237.626.356 1.036.356.47 0 .838-.124 1.104-.373.267-.248.4-.577.4-.987 0-.994-.547-1.49-1.64-1.49H7.686V8.147z" fill="#FFF"/></g></svg>