<?xml version="1.0" encoding="UTF-8"?>
<svg width="43px" height="18px" viewBox="0 0 43 18" version="1.1" xmlns="http://www.w3.org/2000/svg" xmlns:xlink="http://www.w3.org/1999/xlink">
    <!-- Generator: Sketch 44.1 (41455) - http://www.bohemiancoding.com/sketch -->
    <title>F1/TripleCheck</title>
    <desc>Created with Sketch.</desc>
    <defs></defs>
    <g id="Symbols" stroke="none" stroke-width="1" fill="none" fill-rule="evenodd" stroke-linecap="round" stroke-linejoin="round">
        <g id="F1/TripleCheck" stroke="#FFBF00" fill="#FFBF00">
            <g id="Group-3" transform="translate(1.000000, 1.000000)">
                <path d="M15.8527275,0.103517468 L16.2145625,0.732608465 C13.860579,2.39918396 11.6813454,4.51127963 9.6727499,7.0647703 C7.66621026,9.61826097 6.21681431,12.1201868 5.32456205,14.5705478 L4.79414481,14.9211887 C4.33568339,15.2182021 3.94301016,15.5172782 3.61406924,15.8142916 C3.55856046,15.5255286 3.40025764,15.0573199 3.14327254,14.4117281 L2.86778452,13.7248845 C2.26541145,12.2336294 1.7576089,11.1920198 1.34232098,10.6000554 C0.929088943,10.0080911 0.480906933,9.68632655 -0.000169169405,9.63888691 C0.649489157,9.0427974 1.21691225,8.74372136 1.69798835,8.74372136 C2.36409373,8.74372136 3.09598728,9.64301209 3.89161314,11.439531 L4.32540399,12.4068873 C5.74601761,9.85339662 7.46267806,7.49997752 9.47332946,5.34869257 C11.4860367,3.19740762 13.6118175,1.44832839 15.8527275,0.103517468" id="Fill-1"></path>
                <path d="M30.0708509,0.103517468 L30.4326859,0.732608465 C28.0787024,2.39918396 25.8994688,4.51127963 23.8908732,7.0647703 C21.8843336,9.61826097 20.4349377,12.1201868 19.5426854,14.5705478 L19.0122682,14.9211887 C18.5538067,15.2182021 18.1611335,15.5172782 17.8321926,15.8142916 C17.7766838,15.5255286 17.618381,15.0573199 17.3613959,14.4117281 L17.0859079,13.7248845 C16.4835348,12.2336294 15.9757322,11.1920198 15.5604443,10.6000554 C15.1472123,10.0080911 14.6990303,9.68632655 14.2179542,9.63888691 C14.8676125,9.0427974 15.4350356,8.74372136 15.9161117,8.74372136 C16.5822171,8.74372136 17.3141106,9.64301209 18.1097365,11.439531 L18.5435273,12.4068873 C19.964141,9.85339662 21.6808014,7.49997752 23.6914528,5.34869257 C25.7041601,3.19740762 27.8299408,1.44832839 30.0708509,0.103517468" id="Fill-1"></path>
                <path d="M44.2889742,0.103517468 L44.6508092,0.732608465 C42.2968257,2.39918396 40.1175921,4.51127963 38.1089966,7.0647703 C36.102457,9.61826097 34.653061,12.1201868 33.7608088,14.5705478 L33.2303915,14.9211887 C32.7719301,15.2182021 32.3792569,15.5172782 32.0503159,15.8142916 C31.9948072,15.5255286 31.8365043,15.0573199 31.5795192,14.4117281 L31.3040312,13.7248845 C30.7016582,12.2336294 30.1938556,11.1920198 29.7785677,10.6000554 C29.3653356,10.0080911 28.9171536,9.68632655 28.4360775,9.63888691 C29.0857359,9.0427974 29.653159,8.74372136 30.1342351,8.74372136 C30.8003404,8.74372136 31.532234,9.64301209 32.3278599,11.439531 L32.7616507,12.4068873 C34.1822643,9.85339662 35.8989248,7.49997752 37.9095762,5.34869257 C39.9222834,3.19740762 42.0480642,1.44832839 44.2889742,0.103517468" id="Fill-1"></path>
            </g>
        </g>
    </g>
</svg>