<?xml version="1.0" encoding="UTF-8"?>
<svg width="16px" height="9px" viewBox="0 0 16 9" version="1.1" xmlns="http://www.w3.org/2000/svg" xmlns:xlink="http://www.w3.org/1999/xlink">
    <!-- Generator: Sketch 43.2 (39069) - http://www.bohemiancoding.com/sketch -->
    <title>F1/P3</title>
    <desc>Created with Sketch.</desc>
    <defs>
        <polygon id="path-1" points="0.361725 0 9.361725 0 9.361725 8.999925 0.361725 8.999925 0.361725 2.66453526e-15"></polygon>
    </defs>
    <g id="Symbols" stroke="none" stroke-width="1" fill="none" fill-rule="evenodd">
        <g id="F1/P3">
            <g id="Page-1">
                <path d="M2.6184,4.5 C2.6184,2.620125 3.614775,0.97275 5.1039,0.045375 C4.9059,0.018375 4.705275,0 4.50015,0 C2.015025,0 0.00015,2.014875 0.00015,4.5 C0.00015,6.985125 2.015025,9 4.50015,9 C4.705275,9 4.9059,8.981625 5.1039,8.954625 C3.614775,8.02725 2.6184,6.379875 2.6184,4.5" id="Fill-1" fill="#FEBE0F"></path>
                <path d="M5.9868,4.5 C5.9868,2.620125 6.983175,0.97275 8.4723,0.045375 C8.2743,0.018375 8.073675,0 7.86855,0 C5.383425,0 3.36855,2.014875 3.36855,4.5 C3.36855,6.985125 5.383425,9 7.86855,9 C8.073675,9 8.2743,8.981625 8.4723,8.954625 C6.983175,8.02725 5.9868,6.379875 5.9868,4.5" id="Fill-3" fill="#FEBE0F"></path>
                <g id="Group-7" transform="translate(6.375000, 0.000000)">
                    <mask id="mask-2" fill="white">
                        <use xlink:href="#path-1"></use>
                    </mask>
                    <g id="Clip-6"></g>
                    <path d="M5.5836,2.98005 L5.0976,5.280675 L4.634475,5.280675 L4.140975,2.98005 C4.0041,2.349675 4.41435,2.01555 4.8621,2.01555 C5.310225,2.01555 5.7201,2.349675 5.5836,2.98005 M4.8621,7.004175 C4.4751,7.004175 4.194225,6.7233 4.194225,6.3363 C4.194225,5.948925 4.4751,5.66805 4.8621,5.66805 C5.249475,5.66805 5.53035,5.948925 5.53035,6.3363 C5.53035,6.7233 5.249475,7.004175 4.8621,7.004175 M4.861725,-7.5e-05 C2.3766,-7.5e-05 0.361725,2.0148 0.361725,4.499925 C0.361725,6.985425 2.3766,8.999925 4.861725,8.999925 C7.34685,8.999925 9.361725,6.985425 9.361725,4.499925 C9.361725,2.0148 7.34685,-7.5e-05 4.861725,-7.5e-05" id="Fill-5" fill="#FEBE0F" mask="url(#mask-2)"></path>
                </g>
                <path d="M10.516125,2.98005 L11.00925,5.280675 L11.47275,5.280675 L11.95875,2.98005 C12.09525,2.349675 11.685375,2.01555 11.23725,2.01555 C10.7895,2.01555 10.37925,2.349675 10.516125,2.98005" id="Fill-8" fill="#FEFEFE"></path>
                <path d="M11.9055,6.3361875 C11.9055,5.9488125 11.624625,5.6679375 11.23725,5.6679375 C10.85025,5.6679375 10.569375,5.9488125 10.569375,6.3361875 C10.569375,6.7235625 10.85025,7.0044375 11.23725,7.0044375 C11.624625,7.0044375 11.9055,6.7235625 11.9055,6.3361875" id="Fill-10" fill="#FEFEFE"></path>
            </g>
        </g>
    </g>
</svg>