<?xml version="1.0" encoding="UTF-8"?>
<svg width="16px" height="9px" viewBox="0 0 16 9" version="1.1" xmlns="http://www.w3.org/2000/svg" xmlns:xlink="http://www.w3.org/1999/xlink">
    <!-- Generator: Sketch 43.2 (39069) - http://www.bohemiancoding.com/sketch -->
    <title>F1/P2</title>
    <desc>Created with Sketch.</desc>
    <defs>
        <polygon id="path-1" points="0.368325 0 9.36825 0 9.36825 8.999925 0.368325 8.999925 0.368325 2.66453526e-15"></polygon>
    </defs>
    <g id="Symbols" stroke="none" stroke-width="1" fill="none" fill-rule="evenodd">
        <g id="F1/P2">
            <g id="Group-Copy">
                <g id="Page-1">
                    <path d="M2.6184,4.5 C2.6184,2.620125 3.614775,0.97275 5.1039,0.045375 C4.9059,0.018375 4.705275,0 4.50015,0 C2.015025,0 0.00015,2.014875 0.00015,4.5 C0.00015,6.985125 2.015025,9 4.50015,9 C4.705275,9 4.9059,8.981625 5.1039,8.954625 C3.614775,8.02725 2.6184,6.379875 2.6184,4.5" id="Fill-1" fill="#FEBE0F"></path>
                    <g id="Group-5" transform="translate(3.000000, 0.000000)">
                        <mask id="mask-2" fill="white">
                            <use xlink:href="#path-1"></use>
                        </mask>
                        <g id="Clip-4"></g>
                        <path d="M5.5902,2.98005 L5.1042,5.280675 L4.641075,5.280675 L4.147575,2.98005 C4.0107,2.349675 4.42095,2.01555 4.8687,2.01555 C5.04195,2.01555 5.20845,2.066925 5.3412,2.164425 C5.48895,2.27355 5.5887,2.44455 5.6082,2.66955 C5.61645,2.76405 5.61495,2.8653 5.5902,2.98005 M5.5032,6.548925 C5.4747,6.641175 5.429325,6.7233 5.367825,6.791175 C5.248575,6.92355 5.074575,7.004175 4.8687,7.004175 C4.4817,7.004175 4.200825,6.7233 4.200825,6.3363 C4.200825,5.948925 4.4817,5.66805 4.8687,5.66805 C5.256075,5.66805 5.53695,5.948925 5.53695,6.3363 C5.53695,6.41205 5.52345,6.482175 5.5032,6.548925 M4.868325,-7.5e-05 C4.662825,-7.5e-05 4.462575,0.018675 4.264575,0.0453 C3.8877,0.095925 3.52545,0.191175 3.1842,0.329175 C1.5342,0.995925 0.368325,2.610675 0.368325,4.499925 C0.368325,6.389175 1.5342,8.003925 3.1842,8.67105 C3.52545,8.80905 3.8877,8.9043 4.264575,8.954925 C4.462575,8.98155 4.662825,8.999925 4.868325,8.999925 C7.35345,8.999925 9.368325,6.985425 9.368325,4.499925 C9.368325,2.0148 7.35345,-7.5e-05 4.868325,-7.5e-05" id="Fill-3" fill="#FEBE0F" mask="url(#mask-2)"></path>
                    </g>
                    <path d="M7.868775,5.6680125 C7.481775,5.6680125 7.2009,5.9488875 7.2009,6.3362625 C7.2009,6.7232625 7.481775,7.0041375 7.868775,7.0041375 C8.07465,7.0041375 8.24865,6.9235125 8.3679,6.7911375 C8.41515,6.7116375 8.4609,6.6313875 8.5029,6.5488875 C8.523525,6.4821375 8.537025,6.4120125 8.537025,6.3362625 C8.537025,5.9488875 8.25615,5.6680125 7.868775,5.6680125" id="Fill-10" fill="#FEFEFE"></path>
                    <path d="M7.1476875,2.98005 L7.6408125,5.280675 L8.1043125,5.280675 L8.5903125,2.98005 C8.6150625,2.8653 8.6165625,2.76405 8.6083125,2.66955 C8.5303125,2.4948 8.4399375,2.3268 8.3413125,2.164425 C8.2085625,2.066925 8.0420625,2.01555 7.8688125,2.01555 C7.4210625,2.01555 7.0108125,2.349675 7.1476875,2.98005" id="Fill-12" fill="#FEFEFE"></path>
                </g>
            </g>
        </g>
    </g>
</svg>