<svg width="213" height="44" xmlns="http://www.w3.org/2000/svg">
  <g fill="none" fill-rule="evenodd">
    <path d="M186.448 39.28v.066c1.21.403 1.378 1.482 1.378 2.054 0 1.573-1.144 2.6-2.82 2.6h-4.07v-8.93h3.9c1.846 0 2.756.974 2.756 2.39 0 .56-.247 1.392-1.144 1.82zm-1.976.755h-1.625v2.613h1.625c1.014 0 1.404-.585 1.404-1.326 0-.702-.455-1.287-1.404-1.287zm-.182-3.614h-1.443v2.32h1.443c.87 0 1.34-.4 1.34-1.12 0-.71-.39-1.19-1.34-1.19zM196.02 44v-1.365h-4.407v-2.678h3.55v-1.274h-3.55v-2.275h4.225v-1.352h-6.162V44h6.344zm5.697 0h-1.898v-7.553h-2.84v-1.39h7.56v1.39h-2.82L201.71 44zm11.067 0h-1.976l-.624-2.04h-3.263l-.63 2.04h-1.91l3.04-8.93h2.42l2.95 8.93zm-2.99-3.34l-.663-2.354-.52-1.937h-.06l-.54 2-.66 2.29h2.46z" fill="#FFBF00"/>
    <g fill="#FEFEFE">
      <path d="M2.323 20.71V6.34L0 6.205V2h12.42v4.206l-3.396.22v13.452c0 3.857 1.385 5.872 5.226 5.872 3.44 0 4.915-1.928 4.915-5.916V6.688l-2.993-.482V2H26v4.206l-2.278.438V20.49c0 5.085-2.815 9.51-10.186 9.51-7.952 0-11.213-4.38-11.213-9.29M27 24.916l2.75-.178V13.95l-2.75.355V10.13l8.074-1.82.48.312v3.507c.83-1.11 1.877-2 2.88-2.76C39.57 8.53 40.88 8 42.144 8c3.71 0 5.413 1.91 5.413 5.905v10.878l2.444.133V29H39.7v-4.084l2.008-.133V15.28c0-1.597-.786-2.53-2.575-2.53-1.31 0-2.444.623-3.58 1.422v10.61l2.183.134V29H27v-4.084zm32.485-11.793v10.5c.938.817 2.003 1.29 3.24 1.29 2.388 0 4.264-1.506 4.264-6.325 0-4.476-1.5-6.584-4.1-6.584-1.28 0-2.39.43-3.41 1.12zm-8.357 15.06v-3.96l2.643.087V5.292L51 5.507V1.463L58.973 0l.512.3v10.24c1.534-1.46 3.454-2.408 5.884-2.408 4.81 0 7.63 3.872 7.63 10.714C73 25.214 69.07 29 64.9 29c-2.815 0-4.307-1.076-5.67-2.71v2.41h-.47l-7.632-.517zm37.646-9.618c0-4.054-1.49-6.512-4.253-6.512-2.84 0-4.29 2.458-4.29 6.512 0 4.053 1.45 6.467 4.3 6.467 2.77 0 4.26-2.414 4.26-6.467m-14.773 0C74 11.708 79.217 8 84.52 8 89.784 8 95 11.924 95 18.565 95 25.465 89.783 29 84.52 29 79.218 29 74 25.464 74 18.565m25.273 5.94v-11.17L97 13.2V9h7.977v13.717c0 1.787.643 2.68 2.445 2.68 1.114 0 2.144-.446 3.13-1.072v-10.99l-2.102-.135V9h7.89v15.638l2.66-.09v4.067l-7.59 1.072-.56-.312.13-3.172c-.77 1.027-1.716 1.83-2.658 2.457-1.073.804-2.36 1.34-3.817 1.34-3.474 0-5.232-2.056-5.232-5.496m20.727.412l2.75-.178V13.95l-2.75.355V10.13l8.073-1.82.48.312v3.507c.83-1.11 1.877-2 2.882-2.76 1.133-.85 2.443-1.38 3.71-1.38 3.708 0 5.41 1.91 5.41 5.9v10.88l2.445.13V29h-10.3v-4.084l2.008-.133V15.28c0-1.597-.785-2.53-2.575-2.53-1.31 0-2.444.623-3.58 1.422v10.61l2.182.134V29H120v-4.084zm37.552-1.106V12.785c-.857-.558-1.845-.86-3.002-.86-2.445 0-4.502 1.846-4.502 6.736 0 4.3 2.143 6.23 4.63 6.23 1.287 0 2.102-.43 2.874-1.07M144 18.66c0-6.777 4.29-10.552 8.877-10.552 2.1 0 3.302.558 4.675 1.63v-4.46l-3.002.214V1.416L162.74 0l.558.3v23.167L166 23.38v3.947l-7.762 1.33-.514-.3.084-2.36c-1.286 1.545-2.872 3.003-5.574 3.003C146.96 29 144 24.496 144 18.66"/>
      <path d="M187.11 4.846c-.223-1.476-.805-1.7-2.415-1.7h-8.675v10.87h3.89c1.208 0 1.88-.537 1.924-1.387l.358-3.45h1.653V20.5h-1.564l-.4-3.31c-.13-1.073-.76-1.296-1.92-1.296h-3.93v10.913h8.77c3.04 0 3.4-.09 3.71-2.146l.76-4.2H191V29h-22v-1.968l2.952-.313V3.23L169 3.012V1h20.525v7.783h-1.655l-.76-3.937zm19.143 20.994V12.567c-1.162-.885-2.368-1.37-4.022-1.37-3.61 0-6.38 3.008-6.38 8.494 0 4.56 2.77 7.79 6.39 7.79 2.01 0 2.95-.57 4.03-1.63M192 19.69c0-7.035 5.05-10.575 9.516-10.575 1.967 0 3.44.442 4.737 1.24V3.14l-3.798.31V1.37l7.06-1.37.357.132v26.505l3.128-.044v1.903l-6.39 1.062-.357-.133.09-2.035c-1.475 1.548-3.128 2.61-5.81 2.61C195.44 30 192 25.664 192 19.69" opacity=".67"/>
    </g>
  </g>
</svg>
