<?xml version="1.0" encoding="utf-8"?>
<!-- Generator: Adobe Illustrator 16.0.0, SVG Export Plug-In . SVG Version: 6.00 Build 0)  -->
<!DOCTYPE svg PUBLIC "-//W3C//DTD SVG 1.1//EN" "http://www.w3.org/Graphics/SVG/1.1/DTD/svg11.dtd">
<svg version="1.1" id="Layer_1" xmlns="http://www.w3.org/2000/svg" xmlns:xlink="http://www.w3.org/1999/xlink" x="0px" y="0px"
	 width="200px" height="28px" viewBox="0 0 200 28" enable-background="new 0 0 200 28" xml:space="preserve">
<g>
	<path fill="#2F1A45" d="M2.169,22.757V12.527L0,12.404V8.558h7.611V21.12c0,1.637,0.614,2.455,2.332,2.455
		c1.064,0,2.047-0.408,2.987-0.981V12.527l-2.005-0.123V8.558h7.529V22.88l2.537-0.081v3.723l-7.243,0.982l-0.532-0.287l0.123-2.905
		c-0.736,0.941-1.637,1.679-2.536,2.252C9.78,27.3,8.553,27.79,7.161,27.79C3.847,27.79,2.169,25.908,2.169,22.757z"/>
	<path fill="#2F1A45" d="M22.647,23.412l2.577-0.164v-9.943l-2.577,0.327V9.785l7.57-1.678l0.449,0.286v3.233
		c0.778-1.023,1.76-1.842,2.701-2.537c1.063-0.778,2.292-1.269,3.479-1.269c3.479,0,5.074,1.76,5.074,5.442v10.024l2.291,0.124
		v3.765h-9.657v-3.765l1.883-0.124v-8.756c0-1.474-0.737-2.333-2.415-2.333c-1.227,0-2.291,0.573-3.355,1.31v9.779l2.046,0.124
		v3.765H22.647V23.412z"/>
	<path fill="#2F1A45" d="M45.683,26.972v-3.765l2.537,0.081V5.202l-2.66,0.205V1.56l7.652-1.391l0.491,0.286v9.739
		c1.474-1.392,3.314-2.292,5.647-2.292c4.624,0,7.324,3.684,7.324,10.189c0,6.057-3.765,9.658-7.774,9.658
		c-2.701,0-4.133-1.023-5.442-2.578v2.291h-0.45L45.683,26.972z M53.703,12.649v9.984c0.9,0.778,1.923,1.228,3.11,1.228
		c2.291,0,4.092-1.432,4.092-6.015c0-4.256-1.433-6.261-3.929-6.261C55.749,11.586,54.686,11.995,53.703,12.649z"/>
	<path fill="#2F1A45" d="M68.515,17.929c0-6.507,4.869-10.026,9.82-10.026c4.911,0,9.78,3.725,9.78,10.026
		c0,6.547-4.869,9.902-9.78,9.902C73.384,27.831,68.515,24.476,68.515,17.929z M82.305,17.929c0-3.847-1.392-6.179-3.97-6.179
		c-2.659,0-4.01,2.332-4.01,6.179s1.351,6.138,4.01,6.138C80.913,24.066,82.305,21.775,82.305,17.929z"/>
	<path fill="#2F1A45" d="M91.1,22.757V12.527l-2.168-0.123V8.558h7.611V21.12c0,1.637,0.613,2.455,2.332,2.455
		c1.064,0,2.046-0.408,2.987-0.981V12.527l-2.006-0.123V8.558h7.529V22.88l2.538-0.081v3.723l-7.243,0.982l-0.532-0.287l0.123-2.905
		c-0.736,0.941-1.637,1.679-2.537,2.252c-1.023,0.736-2.251,1.227-3.643,1.227C92.777,27.79,91.1,25.908,91.1,22.757z"/>
	<path fill="#2F1A45" d="M111.578,23.412l2.578-0.164v-9.943l-2.578,0.327V9.785l7.571-1.678l0.449,0.286v3.233
		c0.778-1.023,1.761-1.842,2.701-2.537c1.064-0.778,2.291-1.269,3.478-1.269c3.479,0,5.075,1.76,5.075,5.442v10.024l2.291,0.124
		v3.765h-9.657v-3.765l1.882-0.124v-8.756c0-1.474-0.736-2.333-2.414-2.333c-1.227,0-2.292,0.573-3.355,1.31v9.779l2.046,0.124
		v3.765h-10.066V23.412z"/>
	<path fill="#2F1A45" d="M134.328,17.969c0-6.465,4.091-10.066,8.471-10.066c2.005,0,3.15,0.532,4.459,1.556V5.202l-2.864,0.205
		V1.52l7.816-1.351l0.532,0.286v22.097l2.578-0.082v3.765l-7.407,1.27l-0.49-0.287l0.081-2.25c-1.228,1.473-2.742,2.864-5.319,2.864
		C137.15,27.831,134.328,23.535,134.328,17.969z M147.258,22.88V12.363c-0.817-0.532-1.76-0.818-2.864-0.818
		c-2.331,0-4.296,1.76-4.296,6.424c0,4.093,2.046,5.935,4.419,5.935C145.745,23.903,146.521,23.493,147.258,22.88z"/>
	<path fill="#2F1A45" d="M174.182,5.079c-0.204-1.35-0.736-1.555-2.21-1.555h-7.938v9.943h3.56c1.105,0,1.72-0.491,1.76-1.269
		l0.328-3.15h1.514v10.353h-1.433l-0.368-3.028c-0.122-0.982-0.695-1.187-1.759-1.187h-3.602v9.985h8.021
		c2.782,0,3.11-0.082,3.397-1.965l0.694-3.847h1.597v7.816h-20.133v-1.801l2.7-0.286V3.606l-2.7-0.205V1.56h18.782v7.121h-1.514
		L174.182,5.079z"/>
	<path fill="#2F1A45" d="M180.767,18.337c0-6.506,4.625-9.779,8.716-9.779c1.802,0,3.151,0.409,4.338,1.146v-6.67l-3.478,0.286
		V1.396l6.465-1.269l0.328,0.123v24.511l2.864-0.04v1.759l-5.852,0.982l-0.328-0.123l0.082-1.882
		c-1.35,1.432-2.864,2.414-5.319,2.414C183.918,27.872,180.767,23.861,180.767,18.337z M193.82,24.025V11.75
		c-1.063-0.819-2.168-1.27-3.683-1.27c-3.314,0-5.852,2.783-5.852,7.856c0,4.215,2.537,7.203,5.852,7.203
		C191.979,25.54,192.839,25.008,193.82,24.025z"/>
</g>
</svg>
