<?xml version="1.0" encoding="utf-8"?>
<!-- Generator: Adobe Illustrator 16.0.0, SVG Export Plug-In . SVG Version: 6.00 Build 0)  -->
<!DOCTYPE svg PUBLIC "-//W3C//DTD SVG 1.1//EN" "http://www.w3.org/Graphics/SVG/1.1/DTD/svg11.dtd">
<svg version="1.1" id="Layer_1" xmlns="http://www.w3.org/2000/svg" xmlns:xlink="http://www.w3.org/1999/xlink" x="0px" y="0px"
	 width="200px" height="28px" viewBox="0 0 200 28" enable-background="new 0 0 200 28" xml:space="preserve">
<g>
	<path fill="#FFFFFF" d="M2.137,22.629v-10.08L0,12.428v-3.79h7.5v12.378c0,1.613,0.605,2.42,2.298,2.42
		c1.048,0,2.016-0.404,2.943-0.969v-9.918l-1.976-0.121v-3.79h7.419V22.75l2.5-0.081v3.669l-7.136,0.968l-0.524-0.282l0.121-2.863
		c-0.726,0.928-1.613,1.654-2.5,2.219c-1.008,0.725-2.217,1.209-3.588,1.209C3.79,27.588,2.137,25.732,2.137,22.629z"/>
	<path fill="#FFFFFF" d="M22.314,23.273l2.54-0.161v-9.798l-2.54,0.323v-3.79l7.459-1.653l0.443,0.282v3.185
		c0.767-1.008,1.734-1.813,2.661-2.499c1.049-0.767,2.258-1.25,3.427-1.25c3.427,0,5,1.733,5,5.362v9.878l2.258,0.121v3.709h-9.515
		v-3.709l1.854-0.121v-8.628c0-1.451-0.726-2.299-2.379-2.299c-1.209,0-2.258,0.564-3.306,1.291v9.636l2.016,0.121v3.709h-9.918
		V23.273z"/>
	<path fill="#FFFFFF" d="M45.011,26.781v-3.709l2.5,0.08V5.332L44.89,5.533v-3.79l7.54-1.371l0.484,0.282v9.596
		c1.452-1.37,3.266-2.258,5.564-2.258c4.556,0,7.217,3.629,7.217,10.04c0,5.968-3.709,9.515-7.661,9.515
		c-2.661,0-4.072-1.008-5.362-2.539v2.258h-0.444L45.011,26.781z M52.913,12.669v9.839c0.887,0.766,1.895,1.209,3.064,1.209
		c2.258,0,4.032-1.41,4.032-5.927c0-4.193-1.411-6.169-3.871-6.169C54.929,11.621,53.881,12.024,52.913,12.669z"/>
	<path fill="#FFFFFF" d="M67.506,17.871c0-6.411,4.798-9.879,9.676-9.879c4.839,0,9.637,3.669,9.637,9.879
		c0,6.451-4.798,9.757-9.637,9.757C72.305,27.628,67.506,24.322,67.506,17.871z M81.094,17.871c0-3.79-1.371-6.089-3.912-6.089
		c-2.621,0-3.951,2.299-3.951,6.089c0,3.789,1.33,6.047,3.951,6.047C79.723,23.918,81.094,21.66,81.094,17.871z"/>
	<path fill="#FFFFFF" d="M89.76,22.629v-10.08l-2.137-0.121v-3.79h7.5v12.378c0,1.613,0.604,2.42,2.298,2.42
		c1.048,0,2.016-0.404,2.943-0.969v-9.918l-1.976-0.121v-3.79h7.418V22.75l2.5-0.081v3.669l-7.137,0.968l-0.524-0.282l0.121-2.863
		c-0.726,0.928-1.613,1.654-2.5,2.219c-1.008,0.725-2.218,1.209-3.589,1.209C91.413,27.588,89.76,25.732,89.76,22.629z"/>
	<path fill="#FFFFFF" d="M109.937,23.273l2.54-0.161v-9.798l-2.54,0.323v-3.79l7.46-1.653l0.443,0.282v3.185
		c0.766-1.008,1.733-1.813,2.66-2.499c1.049-0.767,2.258-1.25,3.428-1.25c3.428,0,4.999,1.733,4.999,5.362v9.878l2.258,0.121v3.709
		h-9.515v-3.709l1.854-0.121v-8.628c0-1.451-0.726-2.299-2.38-2.299c-1.208,0-2.258,0.564-3.305,1.291v9.636l2.016,0.121v3.709
		h-9.919V23.273z"/>
	<path fill="#FFFFFF" d="M132.352,17.911c0-6.371,4.031-9.919,8.347-9.919c1.975,0,3.104,0.524,4.394,1.532V5.332l-2.822,0.201
		v-3.83l7.7-1.331l0.525,0.282v21.772l2.54-0.081v3.71l-7.298,1.25l-0.483-0.282l0.08-2.218c-1.209,1.452-2.702,2.822-5.241,2.822
		C135.133,27.628,132.352,23.395,132.352,17.911z M145.092,22.75V12.388c-0.807-0.524-1.734-0.807-2.822-0.807
		c-2.298,0-4.233,1.733-4.233,6.33c0,4.032,2.017,5.847,4.354,5.847C143.601,23.758,144.366,23.354,145.092,22.75z"/>
	<path fill="#FFFFFF" d="M171.619,5.211c-0.201-1.331-0.726-1.532-2.178-1.532h-7.821v9.797h3.507c1.089,0,1.694-0.483,1.734-1.25
		l0.322-3.104h1.492v10.201h-1.411l-0.363-2.983c-0.12-0.968-0.686-1.169-1.732-1.169h-3.549v9.838h7.902
		c2.741,0,3.064-0.081,3.347-1.936l0.686-3.791h1.572v7.701H155.29v-1.773l2.661-0.282V3.759l-2.661-0.201V1.743h18.507v7.016
		h-1.492L171.619,5.211z"/>
	<path fill="#FFFFFF" d="M178.067,25.209l2.661-0.201V3.759l-2.661-0.201V1.743h10.12c5.926,0,11.813,3.266,11.813,12.579
		c0,8.951-5.805,12.66-11.571,12.66h-10.361V25.209z M184.397,3.719v21.289h3.588c4.313,0,7.983-2.5,7.983-10.686
		c0-8.145-3.427-10.604-8.104-10.604H184.397z"/>
</g>
</svg>
