<?xml version="1.0" encoding="utf-8"?>
<!-- Generator: Adobe Illustrator 16.0.0, SVG Export Plug-In . SVG Version: 6.00 Build 0)  -->
<!DOCTYPE svg PUBLIC "-//W3C//DTD SVG 1.1//EN" "http://www.w3.org/Graphics/SVG/1.1/DTD/svg11.dtd">
<svg version="1.1" id="Layer_1" xmlns="http://www.w3.org/2000/svg" xmlns:xlink="http://www.w3.org/1999/xlink" x="0px" y="0px"
	 width="200px" height="28px" viewBox="0 0 200 28" enable-background="new 0 0 200 28" xml:space="preserve">
<g>
	<g>
		<path fill="#231F20" d="M2.308,19.21V5.801L0.182,5.678V1.753h11.365v3.925L8.44,5.882v12.551c0,3.599,1.268,5.479,4.783,5.479
			c3.148,0,4.497-1.799,4.497-5.52V6.127l-2.739-0.45V1.753h8.995v3.925l-2.085,0.409v12.919c0,4.743-2.576,8.872-9.322,8.872
			C5.292,27.878,2.308,23.789,2.308,19.21z"/>
		<path fill="#231F20" d="M25.323,23.586l2.576-0.164v-9.935l-2.576,0.327V9.971l7.564-1.676l0.45,0.286v3.23
			c0.777-1.022,1.758-1.84,2.698-2.535c1.063-0.777,2.29-1.267,3.475-1.267c3.475,0,5.07,1.758,5.07,5.438v10.016l2.29,0.124v3.761
			H37.22v-3.761l1.881-0.124v-8.749c0-1.471-0.736-2.33-2.412-2.33c-1.227,0-2.29,0.572-3.353,1.308v9.771l2.044,0.124v3.761H25.323
			V23.586z"/>
		<path fill="#231F20" d="M47.97,27.142v-3.761l2.535,0.081V5.392l-2.658,0.205V1.753l7.646-1.39l0.491,0.286v9.73
			c1.472-1.39,3.312-2.29,5.642-2.29c4.62,0,7.318,3.68,7.318,10.18c0,6.052-3.761,9.649-7.768,9.649
			c-2.699,0-4.129-1.021-5.438-2.576v2.29h-0.45L47.97,27.142z M55.984,12.833v9.975c0.899,0.778,1.921,1.228,3.107,1.228
			c2.289,0,4.088-1.432,4.088-6.011c0-4.252-1.431-6.255-3.925-6.255C58.028,11.77,56.965,12.178,55.984,12.833z"/>
		<path fill="#231F20" d="M70.618,18.106c0-6.5,4.865-10.017,9.812-10.017c4.907,0,9.772,3.721,9.772,10.017
			c0,6.541-4.865,9.894-9.772,9.894C75.483,28,70.618,24.647,70.618,18.106z M84.396,18.106c0-3.843-1.39-6.173-3.966-6.173
			c-2.657,0-4.006,2.33-4.006,6.173c0,3.843,1.349,6.133,4.006,6.133C83.005,24.239,84.396,21.949,84.396,18.106z"/>
		<path fill="#231F20" d="M92.896,22.931V12.71l-2.167-0.123V8.744h7.604v12.552c0,1.635,0.614,2.453,2.331,2.453
			c1.062,0,2.044-0.409,2.984-0.982V12.71l-2.004-0.123V8.744h7.523v14.31l2.535-0.082v3.721l-7.236,0.98l-0.533-0.286l0.125-2.902
			c-0.736,0.941-1.637,1.677-2.535,2.249c-1.023,0.735-2.249,1.226-3.639,1.226C94.572,27.959,92.896,26.079,92.896,22.931z"/>
		<path fill="#231F20" d="M113.213,23.586l2.576-0.164v-9.935l-2.576,0.327V9.971l7.563-1.676l0.449,0.286v3.23
			c0.779-1.022,1.76-1.84,2.699-2.535c1.063-0.777,2.291-1.267,3.477-1.267c3.475,0,5.068,1.758,5.068,5.438v10.016l2.291,0.124
			v3.761h-9.65v-3.761l1.883-0.124v-8.749c0-1.471-0.736-2.33-2.414-2.33c-1.227,0-2.289,0.572-3.354,1.308v9.771l2.045,0.124v3.761
			h-10.057V23.586z"/>
		<path fill="#231F20" d="M135.328,18.147c0-6.46,4.09-10.058,8.463-10.058c2.004,0,3.148,0.532,4.457,1.554V5.392l-2.861,0.205
			V1.712l7.809-1.349l0.531,0.286v22.078l2.576-0.082v3.762l-7.4,1.267l-0.49-0.286l0.082-2.248C147.266,26.61,145.754,28,143.18,28
			C138.15,28,135.328,23.708,135.328,18.147z M148.248,23.054V12.546c-0.816-0.532-1.758-0.818-2.861-0.818
			c-2.332,0-4.293,1.758-4.293,6.419c0,4.089,2.043,5.929,4.416,5.929C146.734,24.076,147.514,23.667,148.248,23.054z"/>
	</g>
	<g>
		<path fill="#7f8184" d="M175.506,4.995c-0.207-1.362-0.744-1.568-2.229-1.568h-8.008v10.03h3.59
			c1.115,0,1.734-0.495,1.775-1.279l0.33-3.178h1.527v10.443h-1.443l-0.373-3.055c-0.123-0.991-0.701-1.197-1.773-1.197h-3.633
			v10.071h8.09c2.807,0,3.137-0.082,3.426-1.98l0.703-3.881h1.607v7.884h-20.307v-1.815l2.725-0.289V3.509l-2.725-0.207V1.445
			h18.945v7.182h-1.527L175.506,4.995z"/>
		<path fill="#7f8184" d="M180.416,18.369c0-6.563,4.666-9.866,8.793-9.866c1.816,0,3.178,0.413,4.375,1.156V2.931
			l-3.508,0.289V1.28L196.598,0l0.33,0.125v24.724l2.891-0.041v1.775l-5.904,0.991l-0.33-0.125l0.084-1.898
			c-1.363,1.445-2.891,2.436-5.367,2.436C183.596,27.986,180.416,23.941,180.416,18.369z M193.584,24.106V11.723
			c-1.072-0.826-2.188-1.28-3.715-1.28c-3.344,0-5.902,2.807-5.902,7.926c0,4.251,2.559,7.265,5.902,7.265
			C191.727,25.634,192.594,25.098,193.584,24.106z"/>
	</g>
</g>
</svg>
