<?xml version="1.0" encoding="UTF-8"?>
<svg width="49px" height="48px" viewBox="0 0 49 48" version="1.1" xmlns="http://www.w3.org/2000/svg" xmlns:xlink="http://www.w3.org/1999/xlink">
    <!-- Generator: Sketch 46 (44423) - http://www.bohemiancoding.com/sketch -->
    <title>Fill 1</title>
    <desc>Created with Sketch.</desc>
    <defs>
        <path d="M162.943786,255.404957 C162.017522,254.48585 159.946988,254.005812 156.814008,253.964614 C154.689002,253.937186 152.141774,254.129293 149.44469,254.499507 C148.245834,253.800049 147.006295,253.045508 146.025558,252.126516 C143.410183,249.657357 141.230703,246.241779 139.868543,242.483186 C139.950252,242.126515 140.031961,241.824813 140.100109,241.50934 C140.100109,241.50934 141.571215,233.073162 141.176231,230.220019 C141.121758,229.822149 141.094408,229.712439 140.985462,229.410622 L140.862956,229.067722 C140.467857,228.140353 139.677889,227.152735 138.438235,227.206213 L137.7163,227.182917 L137.702739,227.182917 C136.326904,227.182917 135.19631,227.892129 134.910271,228.944241 C134.011243,232.277536 134.937507,237.243167 136.612943,243.676682 L136.177047,244.732811 C134.978419,247.668351 133.479963,250.631318 132.1586,253.237614 L131.981621,253.58063 C130.59211,256.324063 129.325334,258.65597 128.181065,260.631205 L126.995998,261.262266 C126.914289,261.317121 124.884667,262.387021 124.407859,262.675181 C120.375851,265.103141 117.695064,267.860231 117.250963,270.055 C117.109311,270.740916 117.215521,271.63248 117.933467,272.057663 L119.077736,272.633869 C119.572208,272.880716 120.103374,273.004197 120.634654,273.004197 C123.508831,273.004197 126.846141,269.410283 131.436665,261.330892 C136.749238,259.588732 142.797193,258.134619 148.096091,257.339108 C152.128099,259.629816 157.086486,261.221067 160.219466,261.221067 C160.777868,261.221067 161.254675,261.166212 161.649774,261.056502 C162.249088,260.905594 162.753017,260.562579 163.066407,260.082541 C163.665721,259.163435 163.801902,257.901543 163.624923,256.598337 C163.584012,256.214238 163.270736,255.734086 162.943786,255.404957 M120.007989,270.809427 C120.53927,269.369199 122.609803,266.515942 125.674635,263.978272 C125.865404,263.827363 126.342097,263.374638 126.778107,262.963112 C123.576979,268.120964 121.424736,270.16471 120.007989,270.809427 M138.179433,228.669852 C139.105697,228.669852 139.636977,231.010021 139.677889,233.218562 C139.718686,235.413331 139.214642,236.949727 138.574531,238.10191 C138.043251,236.400949 137.79801,233.739798 137.79801,231.997754 C137.79801,231.997754 137.757212,228.669852 138.179433,228.669852 M132.758028,258.697053 C133.411815,257.544756 134.079277,256.324063 134.760414,255.020858 C136.422174,251.852127 137.484734,249.355655 138.261142,247.311794 C139.827632,250.178593 141.775545,252.606554 144.050408,254.554476 C144.336561,254.801323 144.636161,255.034514 144.963111,255.281476 C140.318,256.214238 136.299667,257.339108 132.758028,258.697053 M162.058319,258.436435 C161.772394,258.614771 160.955075,258.724596 160.437356,258.724596 C158.74836,258.724596 156.677826,257.942627 153.749062,256.68062 C154.879656,256.598337 155.901305,256.557139 156.827569,256.557139 C158.51668,256.557139 159.007048,256.557139 160.668923,256.982436 C162.317236,257.393963 162.330797,258.2581 162.058319,258.436435" id="path-1"></path>
        <filter x="-2.2%" y="-2.2%" width="108.6%" height="108.7%" filterUnits="objectBoundingBox" id="filter-2">
            <feOffset dx="1" dy="1" in="SourceAlpha" result="shadowOffsetOuter1"></feOffset>
            <feGaussianBlur stdDeviation="0.5" in="shadowOffsetOuter1" result="shadowBlurOuter1"></feGaussianBlur>
            <feColorMatrix values="0 0 0 0 0   0 0 0 0 0   0 0 0 0 0  0 0 0 0.1 0" type="matrix" in="shadowBlurOuter1"></feColorMatrix>
        </filter>
    </defs>
    <g id="FF-Design-Library" stroke="none" stroke-width="1" fill="none" fill-rule="evenodd" opacity="0.889999986">
        <g id="PD-Resources" transform="translate(-236.000000, -2015.000000)">
            <g id="PDF-" transform="translate(119.000000, 1788.000000)">
                <g id="Group-7">
                    <g id="Fill-1">
                        <use fill="black" fill-opacity="1" filter="url(#filter-2)" xlink:href="#path-1"></use>
                        <use fill="#FFFFFF" fill-rule="evenodd" xlink:href="#path-1"></use>
                    </g>
                </g>
            </g>
        </g>
    </g>
</svg>