<?xml version="1.0" encoding="UTF-8"?>
<svg xmlns="http://www.w3.org/2000/svg" xmlns:xlink="http://www.w3.org/1999/xlink" version="1.2" >
<font id="PFCentroSansCond-Bold">
<font-face  font-family="PF Centro Sans Condensed" units-per-em="1000" ascent="750" descent="-250" font-style="normal" font-weight="700" font-stretch="normal" cap-height="687" x-height="491" underline-position="-85" underline-thickness="70" />
<missing-glyph  horiz-adv-x="416" d="M0 687 L415 687 L415 0 L0 0 L0 687 Z M329 60 L207 288 L87 60 L329 60 Z M329 627 L86 627 L207 400 L329 627 Z M56 119 L175 344 L56 569 L56 119 Z M359 118 L359 571 L240 343 L359 118 Z " />
<glyph glyph-name="NULL" d="" />
<glyph glyph-name="nonmarkingreturn" unicode="&#xd;" horiz-adv-x="204" d="" />
<glyph glyph-name="space" unicode="&#x20;" horiz-adv-x="204" d="" />
<glyph glyph-name="ampersand" unicode="&#x26;" horiz-adv-x="657" d="M245 -12 Q198 -12 159 0.5 Q120 13 91.5 38 Q63 63 47 101 Q31 139 31 190 Q31 252 63.5 310 Q96 368 164 406 Q140 442 131 476.5 Q122 511 122 540 Q122 565 129.5 593.5 Q137 622 154.5 645 Q172 668 201 683.5 Q230 699 273 699 Q316 699 346 686 Q376 673 394 652.5 Q412 632 420 607 Q428 582 428 558 Q428 529 418.5 503 Q409 477 393 454.5 Q377 432 356 412.5 Q335 393 312 377 Q341 332 373 287.5 Q405 243 440 202 Q467 237 484.5 287.5 Q502 338 507 420 L619 420 Q614 324 587.5 252.5 Q561 181 514 120 Q543 90 579 61 Q615 32 643 13 L588 -74 Q570 -64 549 -50 Q528 -36 507 -20 Q486 -4 466 13 Q446 30 430 46 Q348 -12 245 -12 Z M263 90 Q286 90 309.5 98 Q333 106 358 125 Q316 173 283 218.5 Q250 264 224 309 Q197 288 184 263 Q171 238 171 204 Q171 152 195.5 121 Q220 90 263 90 Z M240 539 Q240 522 245.5 502 Q251 482 264 461 Q287 476 301.5 497.5 Q316 519 316 547 Q316 570 306.5 583.5 Q297 597 277 597 Q267 597 260 591.5 Q253 586 248.5 577 Q244 568 242 558 Q240 548 240 539 Z " />
<glyph glyph-name="quoteright" unicode="&#x2019;" horiz-adv-x="237" d="M46 664 Q46 695 66 715 Q86 735 118 735 Q159 735 176 709.5 Q193 684 193 650 Q193 623 184 594 Q175 565 158.5 538.5 Q142 512 120 489.5 Q98 467 73 452 L40 492 Q68 521 80.5 546.5 Q93 572 95 600 Q69 605 57.5 622 Q46 639 46 664 Z " />
<glyph glyph-name="parenleft" unicode="&#x28;" horiz-adv-x="287" d="M39 295 Q39 368 53.5 435 Q68 502 91.5 559.5 Q115 617 144 664.5 Q173 712 202 745 L261 705 Q247 681 230 642.5 Q213 604 198 552.5 Q183 501 173 437 Q163 373 163 298 Q163 214 173.5 145.5 Q184 77 199.5 23.5 Q215 -30 232 -68.5 Q249 -107 262 -131 L204 -172 Q175 -139 145.5 -92 Q116 -45 92.5 14.5 Q69 74 54 144.5 Q39 215 39 295 Z " />
<glyph glyph-name="parenright" unicode="&#x29;" horiz-adv-x="287" d="M246 295 Q246 215 231.5 144.5 Q217 74 193.5 14.5 Q170 -45 140.5 -92 Q111 -139 82 -172 L23 -131 Q36 -107 53 -68.5 Q70 -30 85.5 23.5 Q101 77 111.5 145.5 Q122 214 122 298 Q122 373 112 437 Q102 501 87.5 552.5 Q73 604 56 642.5 Q39 681 24 705 L84 745 Q113 712 142 664.5 Q171 617 194 559.5 Q217 502 231.5 435 Q246 368 246 295 Z " />
<glyph glyph-name="asterisk" unicode="&#x2a;" horiz-adv-x="380" d="M190 698 Q203 698 215.5 697 Q228 696 239 694 L219 580 L316 635 Q328 612 334.5 587 Q341 562 346 535 L235 519 L314 437 Q296 419 276.5 404.5 Q257 390 236 376 L190 481 L142 376 Q119 390 99.5 404.5 Q80 419 61 437 L142 520 L33 537 Q42 590 62 637 L159 581 L140 694 Q151 696 164.5 697 Q178 698 190 698 Z " />
<glyph glyph-name="plus" unicode="&#x2b;" horiz-adv-x="516" d="M302 269 L302 98 L216 98 L216 269 L73 269 L73 350 L216 350 L216 517 L302 517 L302 350 L443 350 L443 269 L302 269 Z " />
<glyph glyph-name="comma" unicode="&#x2c;" horiz-adv-x="214" d="M34 63 Q34 94 52.5 114 Q71 134 106 134 Q127 134 141 127 Q155 120 163.5 108 Q172 96 176 80.5 Q180 65 180 48 Q180 21 171 -10 Q162 -41 146 -69.5 Q130 -98 108 -122 Q86 -146 60 -161 L28 -124 Q56 -95 71 -65 Q86 -35 88 -6 Q62 -1 48 18.5 Q34 38 34 63 Z " />
<glyph glyph-name="hyphen" unicode="&#x2d;" horiz-adv-x="328" d="M47 218 L47 316 L281 316 L281 218 L47 218 Z " />
<glyph glyph-name="period" unicode="&#x2e;" horiz-adv-x="218" d="M179 62 Q179 33 161.5 13 Q144 -7 107 -7 Q71 -7 54 13 Q37 33 37 62 Q37 94 54 113.5 Q71 133 107 133 Q145 133 162 113.5 Q179 94 179 62 Z " />
<glyph glyph-name="slash" unicode="&#x2f;" horiz-adv-x="326" d="M103 -66 L5 -66 L226 727 L323 727 L103 -66 Z " />
<glyph glyph-name="zero" unicode="0" horiz-adv-x="516" d="M492 343 Q492 276 482 212.5 Q472 149 446 100 Q420 51 375.5 21.5 Q331 -8 261 -8 Q188 -8 142.5 20.5 Q97 49 71 97 Q45 145 35.5 208 Q26 271 26 340 Q26 405 36 468.5 Q46 532 72.5 582.5 Q99 633 144.5 664.5 Q190 696 262 696 Q335 696 380 664 Q425 632 450 581 Q475 530 483.5 467 Q492 404 492 343 Z M347 340 Q347 391 344.5 437 Q342 483 333.5 518 Q325 553 308 574 Q291 595 261 595 Q231 595 213.5 573.5 Q196 552 187.5 516 Q179 480 176.5 433.5 Q174 387 174 338 Q174 279 177 233 Q180 187 189.5 155.5 Q199 124 216.5 108 Q234 92 262 92 Q288 92 304.5 109 Q321 126 330.5 158 Q340 190 343.5 236 Q347 282 347 340 Z " />
<glyph glyph-name="one" unicode="1" horiz-adv-x="516" d="M196 560 L81 545 L81 640 L207 688 L335 688 L335 0 L196 0 L196 560 Z " />
<glyph glyph-name="two" unicode="2" horiz-adv-x="516" d="M37 0 L37 94 Q90 142 136 193.5 Q182 245 216.5 296 Q251 347 271 397 Q291 447 291 492 Q291 582 197 582 Q166 582 131 570.5 Q96 559 68 541 L29 631 Q80 666 131 681 Q182 696 235 696 Q331 696 383 646 Q435 596 435 507 Q435 453 412.5 396 Q390 339 355.5 286 Q321 233 281 188 Q241 143 207 112 Q208 110 208 106 Q271 106 333.5 106.5 Q396 107 459 107 L459 0 L37 0 Z " />
<glyph glyph-name="three" unicode="3" horiz-adv-x="516" d="M267 580 L47 580 L47 687 L423 687 L439 599 L268 424 L269 419 Q308 415 342 401.5 Q376 388 401.5 364.5 Q427 341 441.5 306 Q456 271 456 223 Q456 170 437 127 Q418 84 385 54 Q352 24 307.5 7.5 Q263 -9 212 -9 Q149 -9 105 0.5 Q61 10 19 34 L53 131 Q89 116 123 109 Q157 102 186 102 Q247 102 280.5 133.5 Q314 165 314 225 Q314 275 278.5 303.5 Q243 332 189 332 Q177 332 165 331 Q153 330 141 328 L109 400 L270 573 L267 580 Z " />
<glyph glyph-name="four" unicode="4" horiz-adv-x="516" d="M419 688 L419 268 L488 268 L488 163 L419 163 L419 0 L281 0 L281 163 L22 163 L22 266 L254 688 L419 688 Z M278 519 L137 268 L282 268 L282 519 L278 519 Z " />
<glyph glyph-name="five" unicode="5" horiz-adv-x="516" d="M218 340 Q195 340 171.5 332.5 Q148 325 131 316 L66 351 L89 687 L434 687 L434 580 L190 580 L181 432 Q194 436 215 440.5 Q236 445 266 445 Q308 445 344.5 431 Q381 417 408 389.5 Q435 362 450.5 320.5 Q466 279 466 224 Q466 167 448 123.5 Q430 80 398 50.5 Q366 21 322.5 6 Q279 -9 228 -9 Q182 -9 131.5 -1 Q81 7 33 36 L67 133 Q93 123 112.5 117 Q132 111 148.5 108 Q165 105 178.5 104 Q192 103 206 103 Q324 103 324 228 Q324 285 293.5 312.5 Q263 340 218 340 Z " />
<glyph glyph-name="six" unicode="6" horiz-adv-x="516" d="M292 695 Q337 695 373 688.5 Q409 682 435 671 L410 574 Q392 580 368 585 Q344 590 321 590 Q277 590 250.5 572 Q224 554 209.5 526.5 Q195 499 189 466.5 Q183 434 182 405 Q184 403 185 402.5 Q186 402 187 400 Q208 414 236.5 426 Q265 438 305 438 Q343 438 376 425 Q409 412 433.5 385 Q458 358 472 317.5 Q486 277 486 222 Q486 167 469.5 124 Q453 81 423.5 52 Q394 23 353.5 7.5 Q313 -8 266 -8 Q200 -8 156 18 Q112 44 85.5 87.5 Q59 131 48 189 Q37 247 37 310 Q37 391 51.5 461.5 Q66 532 97 584 Q128 636 176 665.5 Q224 695 292 695 Z M349 216 Q349 268 331 301.5 Q313 335 267 335 Q249 335 234.5 331 Q220 327 209.5 321.5 Q199 316 192.5 310.5 Q186 305 183 302 Q183 272 184.5 235.5 Q186 199 194 167 Q202 135 219 113.5 Q236 92 268 92 Q311 92 330 125.5 Q349 159 349 216 Z " />
<glyph glyph-name="seven" unicode="7" horiz-adv-x="516" d="M59 582 L59 688 L448 688 L448 596 L229 0 L87 0 L303 582 L59 582 Z " />
<glyph glyph-name="eight" unicode="8" horiz-adv-x="516" d="M259 595 Q236 595 221.5 586.5 Q207 578 198 565.5 Q189 553 185.5 538.5 Q182 524 182 512 Q182 489 191 472 Q200 455 214 442.5 Q228 430 246.5 420 Q265 410 284 402 Q340 448 340 509 Q340 524 335.5 539.5 Q331 555 321 567.5 Q311 580 295.5 587.5 Q280 595 259 595 Z M257 90 Q279 90 295 98.5 Q311 107 321.5 121 Q332 135 337 153 Q342 171 342 190 Q342 220 333.5 241.5 Q325 263 309.5 279.5 Q294 296 273 308 Q252 320 227 331 Q195 305 183.5 269 Q172 233 172 194 Q172 174 176.5 155.5 Q181 137 191 122.5 Q201 108 217.5 99 Q234 90 257 90 Z M260 695 Q296 695 333 686 Q370 677 400 656 Q430 635 449 601.5 Q468 568 468 520 Q468 484 451.5 442.5 Q435 401 387 360 Q488 300 488 192 Q488 149 471.5 112.5 Q455 76 425 49 Q395 22 352 7 Q309 -8 257 -8 Q202 -8 159.5 6.5 Q117 21 87.5 46.5 Q58 72 43 106.5 Q28 141 28 182 Q28 205 33 231.5 Q38 258 50 284 Q62 310 82 334 Q102 358 132 378 Q95 406 77 437.5 Q59 469 59 514 Q59 553 73 586 Q87 619 113 643 Q139 667 176 681 Q213 695 260 695 Z " />
<glyph glyph-name="nine" unicode="9" horiz-adv-x="516" d="M216 -8 Q171 -8 135 0 Q99 8 72 21 L101 119 Q127 111 152.5 106 Q178 101 200 101 Q237 101 262.5 117.5 Q288 134 303 160 Q318 186 325 219 Q332 252 333 285 L328 289 Q303 272 274 261.5 Q245 251 210 251 Q171 251 138.5 263.5 Q106 276 82 302.5 Q58 329 44.5 369 Q31 409 31 464 Q31 519 47 562.5 Q63 606 92.5 635 Q122 664 162 679.5 Q202 695 250 695 Q318 695 362 668 Q406 641 432 595 Q458 549 468 489.5 Q478 430 478 366 Q478 286 464 218 Q450 150 418.5 99.5 Q387 49 337 20.5 Q287 -8 216 -8 Z M167 471 Q167 445 171 423.5 Q175 402 184 386.5 Q193 371 208.5 362.5 Q224 354 247 354 Q266 354 280.5 358.5 Q295 363 305.5 368.5 Q316 374 322.5 379.5 Q329 385 331 387 L331 412 Q331 444 328 476.5 Q325 509 316 535.5 Q307 562 289.5 578.5 Q272 595 244 595 Q202 595 184.5 561.5 Q167 528 167 471 Z " />
<glyph glyph-name="colon" unicode="&#x3a;" horiz-adv-x="227" d="M186 62 Q186 33 168.5 13 Q151 -7 114 -7 Q78 -7 61 13 Q44 33 44 62 Q44 94 61 113.5 Q78 133 114 133 Q151 133 168.5 113.5 Q186 94 186 62 Z M186 364 Q186 334 168.5 314 Q151 294 114 294 Q78 294 61 314 Q44 334 44 364 Q44 395 61 414.5 Q78 434 114 434 Q151 434 168.5 414.5 Q186 395 186 364 Z " />
<glyph glyph-name="less" unicode="&#x3c;" horiz-adv-x="516" d="M451 54 L65 271 L65 339 L451 557 L451 462 L172 306 L451 148 L451 54 Z " />
<glyph glyph-name="equal" unicode="&#x3d;" horiz-adv-x="516" d="M75 346 L75 425 L441 425 L441 346 L75 346 Z M75 180 L75 259 L441 259 L441 180 L75 180 Z " />
<glyph glyph-name="greater" unicode="&#x3e;" horiz-adv-x="516" d="M65 148 L344 306 L65 462 L65 557 L452 339 L452 271 L65 54 L65 148 Z " />
<glyph glyph-name="question" unicode="&#x3f;" horiz-adv-x="443" d="M218 710 Q312 710 361 668.5 Q410 627 410 554 Q410 518 397 489 Q384 460 364 435.5 Q344 411 321.5 388.5 Q299 366 279 342.5 Q259 319 246 294 Q233 269 233 238 Q233 216 238 188 L128 184 Q123 202 121.5 224.5 Q120 247 120 257 Q120 310 138.5 346.5 Q157 383 187 416 Q200 431 213 445 Q226 459 236 473 Q246 487 252 502 Q258 517 258 534 Q258 571 234 585 Q210 599 177 599 Q151 599 121.5 592 Q92 585 64 575 L40 672 Q92 694 137 702 Q182 710 218 710 Z M192 127 Q228 127 245 108 Q262 89 262 59 Q262 30 244.5 11.5 Q227 -7 192 -7 Q157 -7 140.5 11.5 Q124 30 124 59 Q124 89 140.5 108 Q157 127 192 127 Z " />
<glyph glyph-name="at" unicode="&#x40;" horiz-adv-x="822" d="M445 318 Q429 316 414 313 Q399 310 387 304.5 Q375 299 368 290 Q361 281 361 266 Q361 244 368.5 230.5 Q376 217 396 217 Q420 217 445 242 L445 318 Z M427 714 Q508 714 572.5 689.5 Q637 665 681.5 619.5 Q726 574 750 509.5 Q774 445 774 366 Q774 311 760 267.5 Q746 224 720.5 193.5 Q695 163 659.5 147 Q624 131 581 131 Q566 131 548.5 133.5 Q531 136 515 142.5 Q499 149 485 159.5 Q471 170 463 186 L461 186 Q436 163 406 148.5 Q376 134 347 134 Q312 134 291 146 Q270 158 259 175.5 Q248 193 244 213 Q240 233 240 249 Q240 292 259 316.5 Q278 341 308 354 Q338 367 374 371.5 Q410 376 445 379 L445 397 Q445 429 434.5 443.5 Q424 458 391 458 Q369 458 345 454 Q321 450 291 439 L273 511 Q340 543 416 543 Q483 543 522 508 Q561 473 561 384 L561 262 Q561 242 569.5 230 Q578 218 596 218 Q609 218 624 225.5 Q639 233 651.5 249.5 Q664 266 672 293.5 Q680 321 680 361 Q680 420 663.5 469.5 Q647 519 615 554.5 Q583 590 535.5 609.5 Q488 629 427 629 Q363 629 310.5 605.5 Q258 582 220.5 540.5 Q183 499 162 443 Q141 387 141 322 Q141 255 160.5 198.5 Q180 142 215 100.5 Q250 59 299 36 Q348 13 407 13 Q430 13 463 16.5 Q496 20 541 37 L566 -38 Q531 -57 487.5 -64 Q444 -71 408 -71 Q322 -71 255 -41.5 Q188 -12 141.5 40 Q95 92 71 163.5 Q47 235 47 320 Q47 405 75.5 477.5 Q104 550 155 602.5 Q206 655 275.5 684.5 Q345 714 427 714 Z " />
<glyph glyph-name="A" unicode="A" horiz-adv-x="559" d="M373 687 L553 0 L404 0 L368 151 L186 151 L148 0 L4 0 L191 687 L373 687 Z M276 553 Q272 530 267 503.5 Q262 477 256 450 Q250 423 244.5 397.5 Q239 372 234 353 L210 256 L346 256 L301 446 Q294 475 290 501 Q286 527 281 553 L276 553 Z " />
<glyph glyph-name="B" unicode="B" horiz-adv-x="540" d="M270 686 Q378 686 434 641.5 Q490 597 490 516 Q490 502 486 482.5 Q482 463 471 443 Q460 423 441 404 Q422 385 392 371 L392 365 Q427 353 450 334 Q473 315 487 292.5 Q501 270 506.5 245 Q512 220 512 196 Q512 153 497 117 Q482 81 453.5 55 Q425 29 383.5 14.5 Q342 0 288 0 L50 0 L50 686 L270 686 Z M198 104 L235 104 Q303 104 330.5 129 Q358 154 358 205 Q358 226 352.5 244.5 Q347 263 335 277 Q323 291 304 299.5 Q285 308 258 308 L198 308 L198 104 Z M198 408 L231 408 Q245 408 264 409.5 Q283 411 300 419.5 Q317 428 328.5 445 Q340 462 340 494 Q340 524 330.5 542 Q321 560 305.5 569.5 Q290 579 270 581.5 Q250 584 228 584 L198 584 L198 408 Z " />
<glyph glyph-name="C" unicode="C" horiz-adv-x="487" d="M317 700 Q399 700 466 674 L439 571 Q412 579 388 582 Q364 585 341 585 Q258 585 221 523 Q184 461 184 345 Q184 288 189.5 244 Q195 200 211.5 169.5 Q228 139 256.5 123.5 Q285 108 332 108 Q352 108 388 113.5 Q424 119 455 129 L479 25 Q461 16 439 9.5 Q417 3 394 -1.5 Q371 -6 348 -8 Q325 -10 304 -10 Q226 -10 172.5 13.5 Q119 37 87 81 Q55 125 41 187.5 Q27 250 27 328 Q27 391 39.5 457 Q52 523 84 577 Q116 631 172.5 665.5 Q229 700 317 700 Z " />
<glyph glyph-name="D" unicode="D" horiz-adv-x="572" d="M51 0 L51 688 L259 688 Q341 688 396 660.5 Q451 633 484 586 Q517 539 531 477 Q545 415 545 346 Q545 277 530.5 214 Q516 151 482 103.5 Q448 56 392.5 28 Q337 0 256 0 L51 0 Z M199 585 L199 105 L250 105 Q274 105 299 114.5 Q324 124 344.5 149.5 Q365 175 378.5 221 Q392 267 392 341 Q392 416 379.5 463.5 Q367 511 347 538 Q327 565 301.5 575 Q276 585 250 585 L199 585 Z " />
<glyph glyph-name="E" unicode="E" horiz-adv-x="472" d="M51 0 L51 687 L442 687 L442 582 L199 582 L199 413 L409 413 L409 308 L199 308 L199 106 L456 106 L456 0 L51 0 Z " />
<glyph glyph-name="F" unicode="F" horiz-adv-x="461" d="M51 0 L51 687 L449 687 L449 582 L199 582 L199 398 L405 398 L405 293 L199 293 L200 0 L51 0 Z " />
<glyph glyph-name="G" unicode="G" horiz-adv-x="544" d="M327 700 Q372 700 416 692 Q460 684 497 670 L470 567 Q443 575 411 581 Q379 587 348 587 Q263 587 223.5 526 Q184 465 184 334 Q184 287 188.5 245 Q193 203 207 171.5 Q221 140 247 121 Q273 102 316 102 Q330 102 347.5 104 Q365 106 379 111 L379 363 L514 363 L514 28 Q463 8 409.5 -1 Q356 -10 309 -10 Q220 -10 165 18 Q110 46 79 94 Q48 142 37.5 206 Q27 270 27 342 Q27 403 40.5 467 Q54 531 88.5 582.5 Q123 634 180.5 667 Q238 700 327 700 Z " />
<glyph glyph-name="H" unicode="H" horiz-adv-x="601" d="M398 0 L398 300 L201 300 Q201 268 201 229 Q201 190 201.5 149.5 Q202 109 202 70 Q202 31 202 0 L52 0 L52 687 L202 687 Q202 659 202 622.5 Q202 586 201.5 547.5 Q201 509 201 472.5 Q201 436 201 408 L398 408 L398 687 L549 687 L549 0 L398 0 Z " />
<glyph glyph-name="I" unicode="I" horiz-adv-x="253" d="M52 0 L52 688 L201 688 L201 0 L52 0 Z " />
<glyph glyph-name="J" unicode="J" horiz-adv-x="275" d="M76 688 L223 688 L223 143 Q223 73 210.5 19.5 Q198 -34 168.5 -74 Q139 -114 91 -142.5 Q43 -171 -28 -190 L-64 -90 Q-18 -69 9.5 -47 Q37 -25 52 2 Q67 29 71.5 62.5 Q76 96 76 141 L76 688 Z " />
<glyph glyph-name="K" unicode="K" horiz-adv-x="544" d="M197 688 L197 442 L201 442 L378 688 L532 688 L336 421 L545 0 L388 0 L246 294 L197 229 L197 0 L52 0 L52 688 L197 688 Z " />
<glyph glyph-name="L" unicode="L" horiz-adv-x="436" d="M52 0 L52 687 L202 687 L201 110 L429 110 L429 0 L52 0 Z " />
<glyph glyph-name="M" unicode="M" horiz-adv-x="767" d="M228 686 L301 485 Q320 433 339.5 380 Q359 327 379 258 L385 258 Q403 324 424 378.5 Q445 433 465 486 L540 686 L714 686 L714 0 L570 0 L570 417 L566 417 Q559 394 553 375.5 Q547 357 540 339 L435 66 L326 66 L226 332 Q218 353 211.5 373.5 Q205 394 198 415 L193 415 L193 0 L52 0 L52 686 L228 686 Z " />
<glyph glyph-name="N" unicode="N" horiz-adv-x="620" d="M422 276 L422 686 L567 686 L567 0 L424 0 L241 337 Q231 355 221 376 Q211 397 200 421 Q198 421 197.5 420.5 Q197 420 195 420 L195 0 L52 0 L52 686 L197 686 L300 502 Q315 475 331.5 445.5 Q348 416 364 386 Q380 356 394 327.5 Q408 299 417 276 L422 276 Z " />
<glyph glyph-name="O" unicode="O" horiz-adv-x="614" d="M587 344 Q587 272 572 207.5 Q557 143 524 95 Q491 47 438 18.5 Q385 -10 309 -10 Q228 -10 174 16.5 Q120 43 87.5 89.5 Q55 136 41 200.5 Q27 265 27 342 Q27 411 41 476 Q55 541 88 590.5 Q121 640 175 670 Q229 700 309 700 Q390 700 443.5 670 Q497 640 529 590.5 Q561 541 574 477 Q587 413 587 344 Z M431 342 Q431 390 427 436 Q423 482 410 517 Q397 552 373 573.5 Q349 595 309 595 Q267 595 242.5 572.5 Q218 550 205 514 Q192 478 188 432.5 Q184 387 184 341 Q184 279 189.5 233.5 Q195 188 209 157.5 Q223 127 247 112 Q271 97 308 97 Q344 97 368 114.5 Q392 132 406 164 Q420 196 425.5 241 Q431 286 431 342 Z " />
<glyph glyph-name="P" unicode="P" horiz-adv-x="500" d="M485 478 Q485 440 473.5 402 Q462 364 436 333 Q410 302 369 283 Q328 264 270 264 L200 264 L200 0 L52 0 L52 688 L264 688 Q372 688 428.5 631 Q485 574 485 478 Z M200 588 L200 364 L255 364 Q286 364 310 388.5 Q334 413 334 475 Q334 537 310 562.5 Q286 588 251 588 L200 588 Z " />
<glyph glyph-name="Q" unicode="Q" horiz-adv-x="614" d="M587 344 Q587 240 555.5 158 Q524 76 461 34 L590 -5 L552 -116 Q544 -113 520 -104 Q496 -95 465 -83 Q434 -71 400 -58 Q366 -45 337.5 -34 Q309 -23 290 -15.5 Q271 -8 271 -8 Q204 -2 157.5 25.5 Q111 53 82 98 Q53 143 40 205 Q27 267 27 342 Q27 411 41 476 Q55 541 88 590.5 Q121 640 175 670 Q229 700 309 700 Q390 700 443.5 670 Q497 640 529 590.5 Q561 541 574 476.5 Q587 412 587 344 Z M430 342 Q430 390 426 435.5 Q422 481 409.5 516.5 Q397 552 372.5 573 Q348 594 308 594 Q267 594 242.5 571.5 Q218 549 205 513 Q192 477 188 432 Q184 387 184 341 Q184 279 189.5 233.5 Q195 188 209 157.5 Q223 127 247 112 Q271 97 308 97 Q344 97 368 114.5 Q392 132 405.5 164 Q419 196 424.5 241 Q430 286 430 342 Z " />
<glyph glyph-name="R" unicode="R" horiz-adv-x="537" d="M391 318 Q412 311 426 298 Q440 285 449.5 269 Q459 253 465.5 234.5 Q472 216 477 197 L526 0 L377 0 L330 194 Q324 220 316 236.5 Q308 253 298 262 Q288 271 274.5 274.5 Q261 278 244 278 L200 278 L200 0 L52 0 L52 688 L281 688 Q339 688 379.5 672.5 Q420 657 445.5 630.5 Q471 604 483 568.5 Q495 533 495 494 Q495 440 469 392 Q443 344 392 322 L391 318 Z M341 484 Q341 514 333 533 Q325 552 312 563.5 Q299 575 282.5 579 Q266 583 249 583 L200 583 L200 381 L250 381 Q292 381 316.5 405 Q341 429 341 484 Z " />
<glyph glyph-name="S" unicode="S" horiz-adv-x="498" d="M256 701 Q269 701 290 699.5 Q311 698 335 694 Q359 690 385 682 Q411 674 435 662 L402 558 Q376 570 341.5 578 Q307 586 271 586 Q227 586 200 569.5 Q173 553 173 513 Q173 482 195.5 463.5 Q218 445 252 430 Q286 415 326 399.5 Q366 384 400 359.5 Q434 335 456.5 297.5 Q479 260 479 201 Q479 158 464 119.5 Q449 81 418 52.5 Q387 24 340 7 Q293 -10 230 -10 Q183 -10 126.5 1 Q70 12 19 42 L55 148 Q87 134 111.5 125.5 Q136 117 156 112.5 Q176 108 191.5 107 Q207 106 221 106 Q278 106 304 127.5 Q330 149 330 189 Q330 223 308 244 Q286 265 252.5 281 Q219 297 180.5 311.5 Q142 326 108.5 348.5 Q75 371 53 406 Q31 441 31 496 Q31 539 45 576.5 Q59 614 86.5 641.5 Q114 669 156.5 685 Q199 701 256 701 Z " />
<glyph glyph-name="T" unicode="T" horiz-adv-x="478" d="M166 0 L166 579 L11 579 L11 688 L468 688 L468 579 L314 579 L313 0 L166 0 Z " />
<glyph glyph-name="U" unicode="U" horiz-adv-x="600" d="M547 260 Q547 197 533.5 147 Q520 97 490 62.5 Q460 28 413 9.5 Q366 -9 299 -9 Q228 -9 181 10 Q134 29 105 63.5 Q76 98 64 146 Q52 194 52 252 L52 688 L198 688 L198 233 Q198 203 203 178.5 Q208 154 220 136 Q232 118 251.5 108 Q271 98 300 98 Q355 98 378.5 131.5 Q402 165 402 235 L402 688 L548 688 L547 260 Z " />
<glyph glyph-name="V" unicode="V" horiz-adv-x="555" d="M160 687 L239 328 Q249 283 255 252.5 Q261 222 264.5 200 Q268 178 270.5 163 Q273 148 275 134 L279 134 Q284 178 293 223 Q302 268 316 327 L398 687 L548 687 L367 0 L180 0 L6 687 L160 687 Z " />
<glyph glyph-name="W" unicode="W" horiz-adv-x="835" d="M157 686 L207 413 Q215 368 224.5 307 Q234 246 240 174 L245 174 Q253 251 265 317 Q277 383 287 434 L335 686 L492 686 L546 429 Q559 369 572 302.5 Q585 236 590 174 L597 174 Q597 203 600.5 237 Q604 271 609 305 Q614 339 619.5 371 Q625 403 630 427 L676 686 L825 686 L681 0 L518 0 L471 195 Q454 266 439.5 335.5 Q425 405 416 463 L411 463 Q408 434 401.5 397.5 Q395 361 387.5 323.5 Q380 286 372 251 Q364 216 358 189 L317 0 L153 0 L8 686 L157 686 Z " />
<glyph glyph-name="X" unicode="X" horiz-adv-x="547" d="M170 687 L272 456 L276 456 L377 687 L528 687 L368 349 L545 0 L379 0 L271 243 L267 244 L159 0 L1 0 L173 352 L13 687 L170 687 Z " />
<glyph glyph-name="Y" unicode="Y" horiz-adv-x="518" d="M182 245 L-1 687 L153 687 L218 503 Q230 468 240 433.5 Q250 399 255 364 L261 364 Q267 401 277.5 437 Q288 473 299 502 L366 687 L519 687 L333 256 L333 0 L182 0 L182 245 Z " />
<glyph glyph-name="Z" unicode="Z" horiz-adv-x="476" d="M187 112 L454 112 L454 0 L21 0 L21 104 L280 571 L277 577 L40 577 L40 688 L445 688 L445 588 L186 117 L187 112 Z " />
<glyph glyph-name="bracketleft" unicode="&#x5b;" horiz-adv-x="261" d="M50 -160 L50 749 L238 749 L238 669 L172 669 L172 -84 L238 -84 L238 -160 L50 -160 Z " />
<glyph glyph-name="backslash" unicode="&#x5c;" horiz-adv-x="326" d="M5 727 L102 727 L323 -66 L225 -66 L5 727 Z " />
<glyph glyph-name="bracketright" unicode="&#x5d;" horiz-adv-x="261" d="M24 -160 L24 -84 L90 -84 L90 669 L24 669 L24 749 L211 749 L211 -160 L24 -160 Z " />
<glyph glyph-name="asciicircum" unicode="&#x5e;" horiz-adv-x="425" d="M307 355 L208 563 L110 355 L16 355 L177 679 L242 679 L401 355 L307 355 Z " />
<glyph glyph-name="underscore" unicode="&#x5f;" horiz-adv-x="435" d="M0 -145 L0 -74 L435 -74 L435 -145 L0 -145 Z " />
<glyph glyph-name="quoteleft" unicode="&#x2018;" horiz-adv-x="237" d="M191 523 Q191 492 171 472 Q151 452 119 452 Q78 452 61 477 Q44 502 44 537 Q44 564 53 593 Q62 622 78.5 648.5 Q95 675 117 697.5 Q139 720 165 735 L197 695 Q169 666 157 640 Q145 614 142 586 Q167 581 179 564.5 Q191 548 191 523 Z " />
<glyph glyph-name="a" unicode="a" horiz-adv-x="475" d="M240 501 Q280 501 311.5 491.5 Q343 482 365 460 Q387 438 399 403 Q411 368 411 317 L411 94 L456 94 L461 14 Q441 3 413.5 -3 Q386 -9 358 -9 Q331 -9 308.5 2.5 Q286 14 282 49 L278 50 Q257 28 236.5 16 Q216 4 198.5 -1.5 Q181 -7 167.5 -8 Q154 -9 145 -9 Q107 -9 82 4.5 Q57 18 43 39 Q29 60 23.5 84.5 Q18 109 18 131 Q18 155 24.5 178.5 Q31 202 45 221.5 Q59 241 81.5 256 Q104 271 137 278 Q165 284 195 286.5 Q225 289 273 293 L273 322 Q273 363 256 379.5 Q239 396 202 396 Q173 396 139.5 388 Q106 380 80 371 L54 460 Q98 480 147 490.5 Q196 501 240 501 Z M272 223 Q247 220 226 217 Q205 214 189.5 207 Q174 200 165 186.5 Q156 173 156 149 Q156 111 170 98.5 Q184 86 201 86 Q220 86 239 97 Q258 108 272 125 L272 223 Z " />
<glyph glyph-name="b" unicode="b" horiz-adv-x="498" d="M295 501 Q383 501 425 435 Q467 369 467 252 Q467 202 456.5 155 Q446 108 420.5 72 Q395 36 352.5 14 Q310 -8 247 -8 Q205 -8 150.5 1 Q96 10 41 42 L41 716 L178 716 L178 572 Q178 549 176.5 517 Q175 485 170 457 L177 454 Q206 479 235 490 Q264 501 295 501 Z M249 393 Q231 393 214.5 386 Q198 379 180 368 L180 106 Q199 96 213 93.5 Q227 91 240 91 Q284 91 304 133 Q324 175 324 243 Q324 320 305.5 356.5 Q287 393 249 393 Z " />
<glyph glyph-name="c" unicode="c" horiz-adv-x="390" d="M239 502 Q265 502 297.5 497.5 Q330 493 365 479 L344 381 Q324 388 307 390.5 Q290 393 273 393 Q243 393 222.5 381.5 Q202 370 189.5 349.5 Q177 329 172 302 Q167 275 167 244 Q167 215 170.5 189 Q174 163 184 143 Q194 123 211.5 111 Q229 99 258 99 Q284 99 305 104.5 Q326 110 355 121 L382 28 Q318 -9 232 -9 Q169 -9 128.5 11 Q88 31 65 65 Q42 99 33.5 144 Q25 189 25 239 Q25 283 34.5 329.5 Q44 376 68 414.5 Q92 453 133.5 477.5 Q175 502 239 502 Z " />
<glyph glyph-name="d" unicode="d" horiz-adv-x="492" d="M212 503 Q234 503 260.5 497.5 Q287 492 314 475 L314 715 L451 715 L451 0 L325 0 L320 44 Q319 44 318 45 L316 45 Q315 45 315 46 Q284 14 250 3.5 Q216 -7 189 -7 Q142 -7 111 11.5 Q80 30 61 62.5 Q42 95 34.5 139 Q27 183 27 234 Q27 296 38.5 345.5 Q50 395 73.5 430 Q97 465 131.5 484 Q166 503 212 503 Z M312 378 Q300 387 282.5 393 Q265 399 247 399 Q229 399 213.5 391.5 Q198 384 187.5 365 Q177 346 171 315 Q165 284 165 238 Q165 194 170.5 166 Q176 138 186 122 Q196 106 210 100.5 Q224 95 240 95 Q257 95 277.5 105.5 Q298 116 312 130 L312 378 Z " />
<glyph glyph-name="e" unicode="e" horiz-adv-x="462" d="M243 503 Q310 503 349 479 Q388 455 407.5 418.5 Q427 382 432 340 Q437 298 437 262 L437 217 L168 217 Q169 161 192 129.5 Q215 98 274 98 Q308 98 337.5 106 Q367 114 396 126 L427 39 Q384 13 338.5 2 Q293 -9 248 -9 Q183 -9 140 11.5 Q97 32 72 67 Q47 102 37 148 Q27 194 27 244 Q27 285 36.5 330.5 Q46 376 70.5 414.5 Q95 453 137 478 Q179 503 243 503 Z M242 404 Q221 404 207.5 395 Q194 386 186 371 Q178 356 174 337.5 Q170 319 169 300 L307 300 Q306 345 293.5 374.5 Q281 404 242 404 Z " />
<glyph glyph-name="f" unicode="f" horiz-adv-x="325" d="M68 398 L12 398 L12 476 L69 494 L69 557 Q69 592 77.5 622.5 Q86 653 106 676 Q126 699 158.5 712 Q191 725 239 725 Q261 725 289 721.5 Q317 718 346 708 L330 613 Q315 616 301.5 618 Q288 620 273 620 Q240 620 223.5 605 Q207 590 207 549 L207 491 L314 491 L314 398 L207 398 L207 0 L68 0 L68 398 Z " />
<glyph glyph-name="g" unicode="g" horiz-adv-x="487" d="M97 193 Q73 209 56.5 240.5 Q40 272 40 320 Q40 367 56 401.5 Q72 436 99 458.5 Q126 481 161.5 491.5 Q197 502 235 502 Q259 502 284 499.5 Q309 497 327 490 L477 490 L477 420 L416 420 L413 416 Q427 398 433 373 Q439 348 439 325 Q439 284 423.5 252 Q408 220 381.5 198.5 Q355 177 319 165.5 Q283 154 242 154 L203 154 Q179 154 164.5 146.5 Q150 139 150 121 Q150 96 184 96 L293 96 Q333 96 365.5 88 Q398 80 421.5 63 Q445 46 458 19 Q471 -8 471 -46 Q471 -78 457.5 -109 Q444 -140 414.5 -165 Q385 -190 338 -205 Q291 -220 224 -220 Q161 -220 121 -207 Q81 -194 59 -173 Q37 -152 29 -126.5 Q21 -101 21 -76 Q21 -40 36 -13 Q51 14 74 30 Q52 38 40 56 Q28 74 28 100 Q28 135 48 156.5 Q68 178 95 189 L97 193 Z M188 10 Q171 1 161 -18.5 Q151 -38 151 -55 Q151 -67 154 -79 Q157 -91 166 -100.5 Q175 -110 192 -116 Q209 -122 238 -122 Q283 -122 307 -102 Q331 -82 331 -51 Q331 -40 328 -29 Q325 -18 317.5 -9.5 Q310 -1 296.5 4.5 Q283 10 263 10 L188 10 Z M303 326 Q303 356 288 381 Q273 406 238 406 Q204 406 188 382.5 Q172 359 172 325 Q172 289 188 268.5 Q204 248 233 248 Q264 248 283.5 268 Q303 288 303 326 Z " />
<glyph glyph-name="h" unicode="h" horiz-adv-x="503" d="M183 715 L183 554 Q183 524 180 494 Q177 464 172 444 L177 441 Q220 474 258.5 488 Q297 502 328 502 Q368 502 393 489.5 Q418 477 432 456 Q446 435 451 407 Q456 379 456 347 L456 0 L317 0 L317 316 Q317 350 307.5 366.5 Q298 383 268 383 Q248 383 226.5 374 Q205 365 186 352 L186 0 L46 0 L46 715 L183 715 Z " />
<glyph glyph-name="i" unicode="i" horiz-adv-x="241" d="M50 0 L50 491 L190 491 L190 0 L50 0 Z M200 628 Q200 595 180 572.5 Q160 550 119 550 Q79 550 60 572.5 Q41 595 41 628 Q41 662 60.5 684 Q80 706 119 706 Q160 706 180 684 Q200 662 200 628 Z " />
<glyph glyph-name="j" unicode="j" horiz-adv-x="247" d="M54 491 L194 491 L194 50 Q194 -10 181.5 -55.5 Q169 -101 143 -134.5 Q117 -168 76.5 -191 Q36 -214 -20 -229 L-56 -139 Q-20 -120 1.5 -103 Q23 -86 35 -66 Q47 -46 50.5 -19.5 Q54 7 54 44 L54 491 Z M204 628 Q204 595 184 572.5 Q164 550 122 550 Q83 550 64 572.5 Q45 595 45 628 Q45 662 64 684 Q83 706 122 706 Q164 706 184 684 Q204 662 204 628 Z " />
<glyph glyph-name="k" unicode="k" horiz-adv-x="472" d="M182 713 L182 537 Q182 492 180.5 437 Q179 382 176 337 L181 335 L299 490 L454 490 L302 304 L341 256 L468 0 L313 0 L219 198 L182 153 L182 0 L42 0 L42 713 L182 713 Z " />
<glyph glyph-name="l" unicode="l" horiz-adv-x="233" d="M186 716 L186 0 L46 0 L46 716 L186 716 Z " />
<glyph glyph-name="m" unicode="m" horiz-adv-x="762" d="M171 491 L175 446 L179 444 Q209 468 249 485 Q289 502 327 502 Q364 502 390.5 488 Q417 474 431 442 Q466 468 503 485 Q540 502 580 502 Q622 502 648.5 489.5 Q675 477 690 456 Q705 435 710 407 Q715 379 715 348 L715 0 L575 0 L575 310 Q575 345 566.5 363 Q558 381 526 381 Q509 381 488 373 Q467 365 449 353 Q450 339 450 325 Q450 311 450 298 L450 0 L311 0 L311 318 Q311 381 262 381 Q242 381 223.5 373.5 Q205 366 186 353 L186 0 L46 0 L46 491 L171 491 Z " />
<glyph glyph-name="n" unicode="n" horiz-adv-x="502" d="M316 0 L316 316 Q316 351 306 367 Q296 383 268 383 Q248 383 226.5 374 Q205 365 186 352 L186 0 L46 0 L46 491 L170 491 L174 446 Q175 445 176 445 Q177 445 179 444 Q220 476 258 489 Q296 502 328 502 Q369 502 394 490 Q419 478 433 457 Q447 436 451.5 408 Q456 380 456 349 L456 0 L316 0 Z " />
<glyph glyph-name="o" unicode="o" horiz-adv-x="492" d="M465 245 Q465 194 453.5 148 Q442 102 416 67 Q390 32 348 11.5 Q306 -9 244 -9 Q183 -9 141.5 11 Q100 31 74.5 65 Q49 99 38 145 Q27 191 27 244 Q27 296 38.5 342.5 Q50 389 76.5 424.5 Q103 460 145 480.5 Q187 501 248 501 Q309 501 350.5 480.5 Q392 460 417.5 425 Q443 390 454 343.5 Q465 297 465 245 Z M322 244 Q322 275 319.5 303.5 Q317 332 309 353.5 Q301 375 286.5 388 Q272 401 248 401 Q222 401 206.5 388 Q191 375 182.5 353 Q174 331 171.5 303 Q169 275 169 244 Q169 209 172 180.5 Q175 152 183 132 Q191 112 206.5 101.5 Q222 91 247 91 Q271 91 285.5 103.5 Q300 116 308 137 Q316 158 319 186 Q322 214 322 244 Z " />
<glyph glyph-name="p" unicode="p" horiz-adv-x="494" d="M278 -11 Q256 -11 230.5 -5.5 Q205 0 178 16 L178 -210 L41 -210 L41 491 L168 491 L172 448 L177 445 Q209 477 240.5 488 Q272 499 300 499 Q346 499 377.5 480 Q409 461 429 427.5 Q449 394 458 347.5 Q467 301 467 247 Q467 122 418 55.5 Q369 -11 278 -11 Z M178 110 Q191 101 209 95 Q227 89 246 89 Q282 89 303.5 122.5 Q325 156 325 243 Q325 287 319.5 316 Q314 345 304.5 362 Q295 379 281.5 385.5 Q268 392 252 392 Q235 392 213.5 382 Q192 372 178 358 L178 110 Z " />
<glyph glyph-name="q" unicode="q" horiz-adv-x="493" d="M250 501 Q297 501 345.5 491 Q394 481 451 452 L451 -208 L314 -208 L314 -80 Q314 -60 314.5 -30 Q315 0 320 26 L314 29 Q282 7 255.5 -1 Q229 -9 199 -9 Q110 -9 68.5 52.5 Q27 114 27 232 Q27 282 37 330 Q47 378 72 416 Q97 454 140.5 477.5 Q184 501 250 501 Z M252 400 Q230 400 214 388.5 Q198 377 188 356.5 Q178 336 173 307.5 Q168 279 168 245 Q168 168 186.5 132.5 Q205 97 243 97 Q261 97 279 104 Q297 111 316 122 L316 385 Q297 394 281 397 Q265 400 252 400 Z " />
<glyph glyph-name="r" unicode="r" horiz-adv-x="354" d="M178 405 Q179 404 181.5 403.5 Q184 403 185 402 Q220 447 257 475.5 Q294 504 324 504 Q342 504 349 495 Q356 486 356 472 Q356 457 353 437.5 Q350 418 344.5 398 Q339 378 332 358.5 Q325 339 316 324 L189 329 L189 0 L49 0 L49 491 L185 491 Q185 484 184 472.5 Q183 461 182 448 Q181 435 180 423.5 Q179 412 178 405 Z " />
<glyph glyph-name="s" unicode="s" horiz-adv-x="393" d="M202 503 Q234 503 275 495.5 Q316 488 349 471 L323 381 Q305 390 273 396.5 Q241 403 217 403 Q193 403 176 393 Q159 383 159 360 Q159 344 175 333 Q191 322 215 312 Q239 302 266.5 290.5 Q294 279 318 260.5 Q342 242 358 215 Q374 188 374 148 Q374 77 325.5 34 Q277 -9 186 -9 Q145 -9 100.5 -0.5 Q56 8 16 31 L49 126 Q61 119 77 113.5 Q93 108 109.5 103.5 Q126 99 142.5 96.5 Q159 94 172 94 Q200 94 218.5 103.5 Q237 113 237 142 Q237 161 221.5 173 Q206 185 183 195 Q160 205 132.5 216 Q105 227 82 244 Q59 261 43.5 286.5 Q28 312 28 352 Q28 427 75 465 Q122 503 202 503 Z " />
<glyph glyph-name="t" unicode="t" horiz-adv-x="343" d="M208 624 L208 491 L315 491 L315 399 L208 399 L208 165 Q208 134 218.5 117.5 Q229 101 261 101 Q288 101 322 111 L340 18 Q311 4 278.5 -2 Q246 -8 219 -8 Q174 -8 144.5 4 Q115 16 98.5 36.5 Q82 57 75.5 83.5 Q69 110 69 139 L69 399 L14 399 L14 476 L80 498 L109 615 L208 624 Z " />
<glyph glyph-name="u" unicode="u" horiz-adv-x="497" d="M184 491 L184 173 Q184 137 196 121.5 Q208 106 235 106 Q253 106 272 114.5 Q291 123 310 137 L310 491 L450 491 L450 0 L322 0 L319 41 L315 43 Q275 11 241.5 0.5 Q208 -10 176 -10 Q136 -10 110.5 1.5 Q85 13 70.5 34 Q56 55 50.5 84 Q45 113 45 147 L45 491 L184 491 Z " />
<glyph glyph-name="v" unicode="v" horiz-adv-x="460" d="M150 490 L204 254 Q212 218 218 180.5 Q224 143 229 104 L234 104 Q237 136 243.5 177 Q250 218 262 269 L313 490 L455 490 L319 0 L139 0 L4 490 L150 490 Z " />
<glyph glyph-name="w" unicode="w" horiz-adv-x="693" d="M489 130 Q496 190 502.5 236.5 Q509 283 516 325 L544 491 L686 491 Q658 367 630.5 245.5 Q603 124 576 0 L412 0 L381 154 Q372 198 361 254 Q350 310 345 364 L341 364 Q333 301 324 251 Q315 201 307 157 L280 0 L116 0 Q89 124 61.5 245.5 Q34 367 6 491 L150 491 L174 329 Q181 286 190.5 235.5 Q200 185 205 128 L209 128 Q212 154 215 179 Q218 204 222 226 L267 491 L422 491 Q433 425 445 360.5 Q457 296 469 222 L484 130 L489 130 Z " />
<glyph glyph-name="x" unicode="x" horiz-adv-x="457" d="M166 490 L231 341 L235 341 L301 490 L440 490 L321 252 L451 0 L296 0 L225 159 L221 159 L152 0 L4 0 L143 252 L16 490 L166 490 Z " />
<glyph glyph-name="y" unicode="y" horiz-adv-x="471" d="M147 491 L203 242 Q210 211 215 178 Q220 145 225 105 L230 105 Q233 127 236 145 Q239 163 243 180.5 Q247 198 252 217 Q257 236 263 260 L323 491 L462 491 L303 -79 Q292 -117 277.5 -143.5 Q263 -170 242 -186.5 Q221 -203 194 -210 Q167 -217 133 -217 Q119 -217 92 -213.5 Q65 -210 36 -200 L57 -104 Q79 -109 91.5 -110.5 Q104 -112 118 -112 Q144 -112 158.5 -97 Q173 -82 183 -53 L203 6 L146 6 L12 491 L147 491 Z " />
<glyph glyph-name="z" unicode="z" horiz-adv-x="388" d="M184 104 L368 104 L368 0 L20 0 L20 84 L199 381 L197 388 L38 388 L38 492 L361 492 L361 408 L182 110 L184 104 Z " />
<glyph glyph-name="braceleft" unicode="&#x7b;" horiz-adv-x="282" d="M261 671 L257 671 Q228 671 218.5 652.5 Q209 634 209 607 L209 462 Q209 405 193.5 367 Q178 329 134 317 L134 312 Q161 302 176 284.5 Q191 267 198.5 243.5 Q206 220 207.5 191 Q209 162 209 131 L209 -27 Q209 -54 216 -68 Q223 -82 246 -82 L261 -82 L261 -161 L198 -161 Q163 -161 140.5 -150 Q118 -139 105 -119 Q92 -99 87.5 -71 Q83 -43 83 -8 L83 182 Q83 224 72 247 Q61 270 25 275 L25 349 Q57 354 70 376.5 Q83 399 83 442 L83 597 Q83 625 87.5 652 Q92 679 105 701 Q118 723 140.5 736.5 Q163 750 198 750 L261 750 L261 671 Z " />
<glyph glyph-name="bar" unicode="&#x7c;" horiz-adv-x="256" d="M78 -147 L78 731 L177 731 L177 -147 L78 -147 Z " />
<glyph glyph-name="braceright" unicode="&#x7d;" horiz-adv-x="282" d="M83 750 Q118 750 140.5 736.5 Q163 723 175.5 701 Q188 679 193 652 Q198 625 198 597 L198 442 Q198 399 211 376.5 Q224 354 256 349 L256 275 Q220 270 209 247 Q198 224 198 182 L198 -8 Q198 -43 193 -71 Q188 -99 175.5 -119 Q163 -139 140.5 -150 Q118 -161 83 -161 L20 -161 L20 -82 L35 -82 Q58 -82 65 -68 Q72 -54 72 -27 L72 131 Q72 162 73.5 191 Q75 220 82.5 243.5 Q90 267 105 284.5 Q120 302 147 312 L147 317 Q103 329 87.5 367 Q72 405 72 462 L72 607 Q72 634 62.5 652.5 Q53 671 24 671 L20 671 L20 750 L83 750 Z " />
<glyph glyph-name="asciitilde" unicode="&#x7e;" horiz-adv-x="506" d="M356 236 Q329 236 300.5 243 Q272 250 245 258 Q218 266 193 273 Q168 280 149 280 L94 233 L47 268 Q67 325 95.5 351.5 Q124 378 159 378 Q182 378 209.5 371 Q237 364 264.5 355 Q292 346 318.5 339 Q345 332 366 332 L419 381 L465 349 Q448 295 420.5 265.5 Q393 236 356 236 Z " />
<glyph glyph-name="sterling" unicode="&#xa3;" horiz-adv-x="516" d="M117 379 Q118 536 175 613.5 Q232 691 332 691 Q380 691 417.5 682.5 Q455 674 481 660 L451 568 Q425 577 403 581 Q381 585 358 585 Q329 585 309.5 574 Q290 563 277.5 538.5 Q265 514 259.5 474.5 Q254 435 253 379 L390 379 L390 304 L249 304 Q249 279 247.5 253 Q246 227 241.5 201.5 Q237 176 227 152 Q217 128 201 108 L466 108 L466 0 L45 0 L45 107 Q83 134 98.5 180 Q114 226 115 304 L57 304 L57 379 L117 379 Z " />
<glyph glyph-name="yen" unicode="&#xa5;" horiz-adv-x="516" d="M165 686 L210 542 Q221 506 232.5 466 Q244 426 254 385 L259 385 Q270 428 283 469.5 Q296 511 307 546 L353 686 L496 686 L354 340 L464 340 L464 281 L330 281 L328 276 L328 227 L464 227 L464 167 L329 167 L329 0 L183 0 L183 167 L51 167 L51 227 L183 227 L183 268 L177 281 L51 281 L51 340 L155 340 L19 686 L165 686 Z " />
<glyph glyph-name="section" unicode="&#xa7;" horiz-adv-x="453" d="M415 316 Q415 282 399.5 250 Q384 218 355 189 Q394 160 408 127.5 Q422 95 422 70 Q422 -7 366.5 -53 Q311 -99 210 -99 Q164 -99 122 -90 Q80 -81 48 -68 L74 22 Q108 11 140.5 5 Q173 -1 199 -1 Q287 -1 287 63 Q287 90 266 107.5 Q245 125 200 145 Q169 159 139.5 175 Q110 191 86.5 210.5 Q63 230 49 255 Q35 280 35 312 Q35 347 52 381 Q69 415 101 441 Q77 462 61.5 489.5 Q46 517 46 549 Q46 591 61 621 Q76 651 102 670.5 Q128 690 163.5 699.5 Q199 709 240 709 Q285 709 325.5 700 Q366 691 392 678 L367 588 Q327 601 299 606.5 Q271 612 247 612 Q218 612 196 600 Q174 588 174 559 Q174 532 203.5 512.5 Q233 493 274 473 Q301 461 326.5 446.5 Q352 432 371.5 414 Q391 396 403 372 Q415 348 415 316 Z M299 297 Q299 314 290 327 Q281 340 266 351 Q251 362 230 372.5 Q209 383 185 395 Q171 382 163 365 Q155 348 155 331 Q155 310 166.5 295.5 Q178 281 195 270.5 Q212 260 233 252 Q254 244 272 234 Q284 248 291.5 266 Q299 284 299 297 Z " />
<glyph glyph-name="quotesingle" unicode="&#x27;" horiz-adv-x="202" d="M65 446 L44 689 L158 689 L138 446 L65 446 Z " />
<glyph glyph-name="quotedblleft" unicode="&#x201c;" horiz-adv-x="402" d="M191 523 Q191 492 171 472 Q151 452 119 452 Q78 452 61 477 Q44 502 44 537 Q44 564 53 593 Q62 622 78.5 648.5 Q95 675 117 697.5 Q139 720 165 735 L197 695 Q169 666 157 640 Q145 614 142 586 Q167 581 179 564.5 Q191 548 191 523 Z M355 523 Q355 492 335.5 472 Q316 452 284 452 Q243 452 225.5 477 Q208 502 208 537 Q208 564 217 593 Q226 622 242.5 648.5 Q259 675 281 697.5 Q303 720 329 735 L362 695 Q333 666 321 640 Q309 614 306 586 Q332 581 343.5 564.5 Q355 548 355 523 Z " />
<glyph glyph-name="guillemotleft" unicode="&#xab;" horiz-adv-x="440" d="M40 215 L184 395 L245 357 L157 197 L243 37 L184 -1 L40 178 L40 215 Z M204 215 L348 395 L409 357 L321 197 L407 37 L347 -1 L204 178 L204 215 Z " />
<glyph glyph-name="endash" unicode="&#x2013;" horiz-adv-x="503" d="M36 214 L36 300 L468 300 L468 214 L36 214 Z " />
<glyph glyph-name="dagger" unicode="&#x2020;" horiz-adv-x="417" d="M267 402 L267 -69 L147 -69 L147 402 L29 402 L29 494 L147 494 L147 691 L267 691 L267 494 L389 494 L389 402 L267 402 Z " />
<glyph glyph-name="periodcentered" unicode="&#xb7;" horiz-adv-x="227" d="M186 270 Q186 241 168 221 Q150 201 115 201 Q80 201 62 221 Q44 241 44 270 Q44 302 62 321.5 Q80 341 115 341 Q151 341 168.5 321.5 Q186 302 186 270 Z " />
<glyph glyph-name="bullet" unicode="&#x2022;" horiz-adv-x="362" d="M299 268 Q299 244 289.5 222.5 Q280 201 264 185 Q248 169 226.5 159.5 Q205 150 181 150 Q157 150 135.5 159.5 Q114 169 98 185 Q82 201 72.5 222.5 Q63 244 63 268 Q63 292 72.5 313.5 Q82 335 98 351 Q114 367 135.5 376.5 Q157 386 181 386 Q205 386 226.5 376.5 Q248 367 264 351 Q280 335 289.5 313.5 Q299 292 299 268 Z " />
<glyph glyph-name="quotedblright" unicode="&#x201d;" horiz-adv-x="402" d="M210 664 Q210 695 230.5 715 Q251 735 283 735 Q324 735 341 709.5 Q358 684 358 650 Q358 623 349 594 Q340 565 323.5 538.5 Q307 512 285 489.5 Q263 467 237 452 L205 492 Q233 521 245 546.5 Q257 572 260 600 Q234 605 222 622 Q210 639 210 664 Z M46 664 Q46 695 66 715 Q86 735 118 735 Q159 735 176 709.5 Q193 684 193 650 Q193 623 184 594 Q175 565 158.5 538.5 Q142 512 120 489.5 Q98 467 73 452 L40 492 Q68 521 80.5 546.5 Q93 572 95 600 Q69 605 57.5 622 Q46 639 46 664 Z " />
<glyph glyph-name="guillemotright" unicode="&#xbb;" horiz-adv-x="440" d="M400 178 L256 -1 L194 37 L284 196 L198 357 L257 395 L400 215 L400 178 Z M236 178 L92 -1 L30 37 L120 196 L34 357 L93 395 L236 215 L236 178 Z " />
<glyph glyph-name="ellipsis" unicode="&#x2026;" horiz-adv-x="583" d="M179 62 Q179 33 161 13 Q143 -7 107 -7 Q72 -7 54.5 13 Q37 33 37 62 Q37 94 54.5 113.5 Q72 133 107 133 Q144 133 161.5 113.5 Q179 94 179 62 Z M362 62 Q362 33 344 13 Q326 -7 290 -7 Q255 -7 237 13 Q219 33 219 62 Q219 94 237 113.5 Q255 133 290 133 Q326 133 344 113.5 Q362 94 362 62 Z M546 63 Q546 33 527.5 13 Q509 -7 474 -7 Q439 -7 421 13 Q403 33 403 63 Q403 94 421 114 Q439 134 474 134 Q510 134 528 114 Q546 94 546 63 Z " />
<glyph glyph-name="perthousand" unicode="&#x2030;" horiz-adv-x="1145" d="M346 465 Q346 427 338.5 390 Q331 353 313 324.5 Q295 296 265 278.5 Q235 261 190 261 Q144 261 114 278 Q84 295 66 323 Q48 351 41 387.5 Q34 424 34 463 Q34 501 41 538.5 Q48 576 66 605.5 Q84 635 114.5 653.5 Q145 672 192 672 Q239 672 269 653 Q299 634 316 604.5 Q333 575 339.5 538 Q346 501 346 465 Z M244 465 Q244 487 243 510.5 Q242 534 237 553.5 Q232 573 221.5 585 Q211 597 192 597 Q172 597 161 584 Q150 571 144.5 551.5 Q139 532 137.5 508.5 Q136 485 136 464 Q136 438 137.5 414.5 Q139 391 145 373.5 Q151 356 162 346 Q173 336 192 336 Q208 336 218 347 Q228 358 234 376.5 Q240 395 242 418 Q244 441 244 465 Z M767 199 Q767 161 759.5 124 Q752 87 734 58.5 Q716 30 686 12.5 Q656 -5 611 -5 Q565 -5 535 12 Q505 29 487 57 Q469 85 462 121.5 Q455 158 455 197 Q455 235 462 272.5 Q469 310 487 339.5 Q505 369 535.5 387.5 Q566 406 613 406 Q660 406 690 387.5 Q720 369 737 339 Q754 309 760.5 272 Q767 235 767 199 Z M665 198 Q665 221 664 244.5 Q663 268 658 287.5 Q653 307 642.5 319 Q632 331 613 331 Q593 331 582 318 Q571 305 565.5 285.5 Q560 266 558.5 242.5 Q557 219 557 198 Q557 172 558.5 148.5 Q560 125 566 107.5 Q572 90 583 80 Q594 70 613 70 Q629 70 639 81 Q649 92 655 110 Q661 128 663 151 Q665 174 665 198 Z M1111 199 Q1111 161 1103.5 124 Q1096 87 1078 58.5 Q1060 30 1030 12.5 Q1000 -5 955 -5 Q909 -5 879 12 Q849 29 831 57 Q813 85 806 121.5 Q799 158 799 197 Q799 235 806 272.5 Q813 310 831 339.5 Q849 369 879.5 387.5 Q910 406 957 406 Q1004 406 1034 387.5 Q1064 369 1081 339 Q1098 309 1104.5 272 Q1111 235 1111 199 Z M1009 198 Q1009 221 1008 244.5 Q1007 268 1002 287.5 Q997 307 986.5 319 Q976 331 957 331 Q937 331 926 318 Q915 305 909.5 285.5 Q904 266 902.5 242.5 Q901 219 901 198 Q901 172 902.5 148.5 Q904 125 910 107.5 Q916 90 927 80 Q938 70 957 70 Q973 70 983 81 Q993 92 999 110 Q1005 128 1007 151 Q1009 174 1009 198 Z M316 -20 L229 -20 L495 709 L582 709 L316 -20 Z " />
<glyph glyph-name="grave" unicode="&#x60;" horiz-adv-x="475" d="M104 693 L192 757 L302 575 L244 538 L104 693 Z " />
<glyph glyph-name="dieresis" unicode="&#xa8;" horiz-adv-x="475" d="M208 626 Q208 599 191 580 Q174 561 140 561 Q107 561 91 580 Q75 599 75 626 Q75 654 91.5 673 Q108 692 140 692 Q174 692 191 673 Q208 654 208 626 Z M385 626 Q385 599 368 580 Q351 561 317 561 Q284 561 268 580 Q252 599 252 626 Q252 654 268.5 673 Q285 692 317 692 Q351 692 368 673 Q385 654 385 626 Z " />
<glyph glyph-name="emdash" unicode="&#x2014;" horiz-adv-x="761" d="M35 214 L35 299 L730 299 L730 214 L35 214 Z " />
<glyph glyph-name="oe" unicode="&#x153;" horiz-adv-x="767" d="M248 501 Q298 501 334.5 483.5 Q371 466 396 439 Q420 468 455.5 485.5 Q491 503 540 503 Q607 503 646 479 Q685 455 704.5 418.5 Q724 382 729 340 Q734 298 734 262 L734 223 L465 223 Q465 162 488 130 Q511 98 571 98 Q605 98 634.5 106 Q664 114 693 126 L724 39 Q681 13 635.5 2 Q590 -9 545 -9 Q492 -9 453.5 7 Q415 23 392 51 Q368 22 330.5 6.5 Q293 -9 244 -9 Q183 -9 141.5 11 Q100 31 74.5 65 Q49 99 38 145 Q27 191 27 244 Q27 296 38.5 342.5 Q50 389 76.5 424.5 Q103 460 145 480.5 Q187 501 248 501 Z M248 401 Q222 401 206.5 388 Q191 375 182.5 353 Q174 331 171.5 303 Q169 275 169 244 Q169 209 172 180.5 Q175 152 183 132 Q191 112 206.5 101.5 Q222 91 247 91 Q271 91 285.5 103.5 Q300 116 308 137 Q316 158 319 186 Q322 214 322 244 Q322 275 319.5 303.5 Q317 332 309 353.5 Q301 375 286.5 388 Q272 401 248 401 Z M539 404 Q518 404 504.5 394.5 Q491 385 482.5 370 Q474 355 470.5 335.5 Q467 316 466 296 L604 296 Q604 344 591 374 Q578 404 539 404 Z " />
<glyph glyph-name="trademark" unicode="&#x2122;" horiz-adv-x="700" d="M484 510 L546 687 L656 687 L656 343 L565 343 L565 553 L561 553 L512 404 L453 404 L402 550 L398 550 L398 343 L310 343 L310 687 L416 687 L479 510 L484 510 Z M111 343 L111 624 L28 624 L28 687 L289 687 L289 624 L205 624 L205 343 L111 343 Z " />
<glyph glyph-name="divide" unicode="&#xf7;" horiz-adv-x="516" d="M76 270 L76 350 L440 350 L440 270 L76 270 Z M322 477 Q322 451 306 433.5 Q290 416 258 416 Q226 416 210.5 433.5 Q195 451 195 477 Q195 504 210.5 521.5 Q226 539 258 539 Q290 539 306 521.5 Q322 504 322 477 Z M322 138 Q322 112 306 94.5 Q290 77 258 77 Q226 77 210.5 94.5 Q195 112 195 138 Q195 166 210.5 183.5 Q226 201 258 201 Q290 201 306 183.5 Q322 166 322 138 Z " />
<glyph glyph-name="brokenbar" unicode="&#xa6;" horiz-adv-x="256" d="M78 370 L78 731 L177 731 L177 370 L78 370 Z M177 260 L177 -147 L78 -147 L78 260 L177 260 Z " />
<glyph glyph-name="degree" unicode="&#xb0;" horiz-adv-x="337" d="M305 545 Q305 517 294.5 493 Q284 469 266 451 Q248 433 223.5 422.5 Q199 412 171 412 Q142 412 117.5 422 Q93 432 75 449.5 Q57 467 47 491.5 Q37 516 37 545 Q37 573 47.5 597.5 Q58 622 76 640 Q94 658 118.5 668.5 Q143 679 171 679 Q200 679 224.5 668.5 Q249 658 267 640 Q285 622 295 597.5 Q305 573 305 545 Z M237 545 Q237 574 217.5 593 Q198 612 171 612 Q142 612 123 593 Q104 574 104 545 Q104 516 123 497.5 Q142 479 171 479 Q198 479 217.5 497.5 Q237 516 237 545 Z " />
<glyph glyph-name="registered" unicode="&#xae;" horiz-adv-x="567" d="M301 616 Q349 616 370 591.5 Q391 567 391 534 Q391 511 379.5 490 Q368 469 345 460 L345 459 Q361 451 368.5 437.5 Q376 424 380 409 L402 327 L340 327 L317 406 Q310 429 302 437 Q294 445 274 445 L252 445 L252 327 L192 327 L192 616 L301 616 Z M252 487 L287 487 Q302 487 315 496.5 Q328 506 328 532 Q328 555 316 564 Q304 573 287 573 L252 573 L252 487 Z M285 723 Q338 723 383 703 Q428 683 460.5 648.5 Q493 614 511 567 Q529 520 529 466 Q529 413 511 366 Q493 319 461 284 Q429 249 384 229 Q339 209 285 209 Q232 209 186.5 228.5 Q141 248 108 282 Q75 316 56 363 Q37 410 37 466 Q37 520 55.5 567 Q74 614 107 648.5 Q140 683 185.5 703 Q231 723 285 723 Z M285 681 Q240 681 202.5 663.5 Q165 646 138 617 Q111 588 96 548.5 Q81 509 81 466 Q81 422 96 383 Q111 344 138 315 Q165 286 202.5 268.5 Q240 251 285 251 Q333 251 370.5 268 Q408 285 433.5 314.5 Q459 344 472 383 Q485 422 485 466 Q485 509 470.5 548.5 Q456 588 429.5 617 Q403 646 366 663.5 Q329 681 285 681 Z " />
<glyph glyph-name="copyright" unicode="&#xa9;" horiz-adv-x="793" d="M753 329 Q753 251 727 182.5 Q701 114 654.5 63 Q608 12 542 -17.5 Q476 -47 397 -47 Q317 -47 251.5 -17.5 Q186 12 139.5 63 Q93 114 67 182.5 Q41 251 41 329 Q41 408 67.5 476.5 Q94 545 141.5 596 Q189 647 254.5 676.5 Q320 706 397 706 Q478 706 543.5 676.5 Q609 647 655.5 596 Q702 545 727.5 476.5 Q753 408 753 329 Z M695 329 Q695 395 674 454 Q653 513 614 557.5 Q575 602 520 628 Q465 654 397 654 Q329 654 274 628 Q219 602 180 557.5 Q141 513 120 454 Q99 395 99 329 Q99 264 119.5 205.5 Q140 147 179 103 Q218 59 273 33 Q328 7 397 7 Q466 7 521.5 33 Q577 59 615.5 103 Q654 147 674.5 205.5 Q695 264 695 329 Z M301 323 Q301 240 331.5 200.5 Q362 161 433 161 Q450 161 480.5 163.5 Q511 166 534 173 L547 106 Q521 95 483 88.5 Q445 82 411 82 Q352 82 313 100.5 Q274 119 250.5 151.5 Q227 184 217.5 227 Q208 270 208 320 Q208 361 217.5 404 Q227 447 251 482.5 Q275 518 316.5 541 Q358 564 422 564 Q457 564 483.5 559 Q510 554 535 545 L523 475 Q499 483 476 485.5 Q453 488 432 488 Q370 488 335.5 446.5 Q301 405 301 323 Z " />
<glyph glyph-name="sfthyphen" unicode="&#xad;" horiz-adv-x="328" d="M47 218 L47 316 L281 316 L281 218 L47 218 Z " />
<glyph glyph-name="&amp;#x394;" unicode="&#x394;" horiz-adv-x="586" d="M573 0 L12 0 L12 69 Q20 92 35 140.5 Q50 189 69.5 250 Q89 311 110 378 Q131 445 150 506 Q169 567 184 615.5 Q199 664 207 687 L384 687 L573 69 L573 0 Z M288 557 Q278 512 269 474.5 Q260 437 248 391 L168 111 L409 111 L345 352 Q330 410 316.5 458 Q303 506 293 557 L288 557 Z " />
<glyph glyph-name="&amp;#x2206;" unicode="&#x2206;" horiz-adv-x="586" d="M573 0 L12 0 L12 69 Q20 92 35 140.5 Q50 189 69.5 250 Q89 311 110 378 Q131 445 150 506 Q169 567 184 615.5 Q199 664 207 687 L384 687 L573 69 L573 0 Z M288 557 Q278 512 269 474.5 Q260 437 248 391 L168 111 L409 111 L345 352 Q330 410 316.5 458 Q303 506 293 557 L288 557 Z " />
<glyph glyph-name="Omega" unicode="&#x3a9;" horiz-adv-x="652" d="M527 112 Q527 108 530 107 L624 107 L624 0 L362 0 L362 108 Q415 129 434 187.5 Q453 246 453 352 Q453 399 448.5 442.5 Q444 486 430.5 519.5 Q417 553 392 573 Q367 593 327 593 Q289 593 264 574 Q239 555 224.5 522 Q210 489 204 445.5 Q198 402 198 353 Q198 300 201.5 258.5 Q205 217 215 187 Q225 157 241.5 137.5 Q258 118 285 109 L285 0 L24 0 L24 107 L117 107 L120 113 Q96 132 81 158.5 Q66 185 57.5 216.5 Q49 248 45.5 283.5 Q42 319 42 355 Q42 427 58 490 Q74 553 108.5 600 Q143 647 197 674 Q251 701 326 701 Q403 701 457 674 Q511 647 545 600.5 Q579 554 594.5 492 Q610 430 610 359 Q610 325 605.5 290 Q601 255 591.5 222 Q582 189 566 160.5 Q550 132 527 112 Z " />
<glyph glyph-name="pi" unicode="&#x3c0;" horiz-adv-x="502" d="M320 0 L320 388 L186 388 L186 0 L46 0 L46 490 L455 490 L455 0 L320 0 Z " />
<glyph glyph-name="Euro" unicode="&#x20ac;" horiz-adv-x="516" d="M26 429 L72 429 Q78 481 94.5 528.5 Q111 576 141.5 612.5 Q172 649 219.5 671 Q267 693 336 693 Q378 693 412.5 686.5 Q447 680 474 669 L456 569 Q430 576 407.5 579.5 Q385 583 363 583 Q294 583 257 543.5 Q220 504 211 429 L403 429 L403 370 L207 370 Q206 364 206 357 Q206 350 206 344 Q206 335 206 330 Q206 325 207 314 L403 314 L403 255 L212 255 Q220 181 254 142 Q288 103 362 103 Q412 103 475 120 L492 16 Q458 4 416 -2.5 Q374 -9 337 -9 Q272 -9 224 8.5 Q176 26 143.5 60 Q111 94 93 143 Q75 192 69 255 L26 255 L26 314 L67 314 L67 338 Q67 347 67 353.5 Q67 360 68 370 L26 370 L26 429 Z " />
<glyph glyph-name="semicolon" unicode="&#x3b;" horiz-adv-x="230" d="M188 363 Q188 334 170.5 314 Q153 294 116 294 Q80 294 63 314 Q46 334 46 363 Q46 395 63 414 Q80 433 116 433 Q153 433 170.5 414 Q188 395 188 363 Z M44 63 Q44 94 64 114 Q84 134 117 134 Q137 134 151 127 Q165 120 174 108 Q183 96 187 80.5 Q191 65 191 48 Q191 21 182 -10 Q173 -41 157 -69.5 Q141 -98 118.5 -122 Q96 -146 70 -161 L39 -124 Q95 -65 98 -6 Q73 -1 58.5 18.5 Q44 38 44 63 Z " />
<glyph glyph-name="exclam" unicode="&#x21;" horiz-adv-x="249" d="M193 705 L193 441 L173 196 L79 196 L60 441 L58 705 L193 705 Z M196 60 Q196 31 178.5 12 Q161 -7 126 -7 Q91 -7 74.5 12 Q58 31 58 60 Q58 90 74.5 109 Q91 128 126 128 Q162 128 179 109 Q196 90 196 60 Z " />
<glyph glyph-name="acute" unicode="&#xb4;" horiz-adv-x="475" d="M231 538 L173 575 L284 757 L372 696 L231 538 Z " />
<glyph glyph-name="circumflex" unicode="&#x2c6;" horiz-adv-x="475" d="M362 535 L227 632 L94 533 L56 573 L187 724 L272 724 L400 574 L362 535 Z " />
<glyph glyph-name="tilde" unicode="&#x2dc;" horiz-adv-x="493" d="M325 567 Q304 567 282 572.5 Q260 578 240 584.5 Q220 591 202 596.5 Q184 602 170 602 L124 562 L78 588 Q94 637 118.5 664.5 Q143 692 172 692 Q191 692 211 687 Q231 682 251.5 675.5 Q272 669 291 664 Q310 659 327 659 L371 698 L416 663 Q402 618 378.5 592.5 Q355 567 325 567 Z " />
<glyph glyph-name="cedilla" unicode="&#xb8;" horiz-adv-x="390" d="M261 14 L205 -59 Q251 -62 280 -83 Q309 -104 309 -142 Q309 -164 299 -184 Q289 -204 268 -219.5 Q247 -235 214 -244.5 Q181 -254 135 -254 L134 -206 Q185 -201 204 -186 Q223 -171 223 -149 Q223 -138 217 -131.5 Q211 -125 201.5 -121.5 Q192 -118 179.5 -116.5 Q167 -115 154 -115 L145 -115 L129 -89 L223 38 L261 14 Z " />
<glyph glyph-name="&amp;#xb5;" unicode="&#xb5;" horiz-adv-x="502" d="M184 491 L184 170 Q184 132 196.5 119 Q209 106 235 106 Q255 106 275 115 Q295 124 315 139 L315 491 L455 491 L455 0 L328 0 L324 41 L320 43 Q293 23 259 11.5 Q225 0 184 0 Q184 -53 184.5 -104.5 Q185 -156 185 -209 L45 -209 L45 491 L184 491 Z " />
<glyph glyph-name="&amp;#x3bc;" unicode="&#x3bc;" horiz-adv-x="502" d="M184 491 L184 170 Q184 132 196.5 119 Q209 106 235 106 Q255 106 275 115 Q295 124 315 139 L315 491 L455 491 L455 0 L328 0 L324 41 L320 43 Q293 23 259 11.5 Q225 0 184 0 Q184 -53 184.5 -104.5 Q185 -156 185 -209 L45 -209 L45 491 L184 491 Z " />
<glyph glyph-name="germandbls" unicode="&#xdf;" horiz-adv-x="553" d="M390 146 Q390 183 368.5 210 Q347 237 320.5 263 Q294 289 272.5 319.5 Q251 350 251 395 Q251 426 262 448.5 Q273 471 286.5 489.5 Q300 508 311 526 Q322 544 322 567 Q322 574 320 584 Q318 594 312 603 Q306 612 295 618 Q284 624 266 624 Q249 624 236.5 616 Q224 608 216.5 594.5 Q209 581 205.5 563 Q202 545 202 525 L202 0 L63 0 L63 365 L10 365 L10 446 L63 446 L63 538 Q63 562 71 594.5 Q79 627 101 656 Q123 685 161.5 705 Q200 725 260 725 Q317 725 353 710 Q389 695 410 672.5 Q431 650 439 625 Q447 600 447 581 Q447 541 434 515 Q421 489 405 469.5 Q389 450 376 434 Q363 418 363 399 Q363 383 375.5 368.5 Q388 354 407.5 338 Q427 322 449 303 Q471 284 490.5 260 Q510 236 522.5 205.5 Q535 175 535 136 Q535 103 524 75 Q513 47 491.5 26.5 Q470 6 438 -5.5 Q406 -17 363 -17 Q330 -17 301.5 -12 Q273 -7 242 4 L262 102 Q276 97 293.5 94 Q311 91 328 91 Q353 91 371.5 102.5 Q390 114 390 146 Z " />
<glyph glyph-name="percent" unicode="&#x25;" horiz-adv-x="802" d="M346 465 Q346 427 338.5 390 Q331 353 313 324.5 Q295 296 265 278.5 Q235 261 190 261 Q144 261 114 278 Q84 295 66 323 Q48 351 41 387.5 Q34 424 34 463 Q34 501 41 538.5 Q48 576 66 605.5 Q84 635 114.5 653.5 Q145 672 192 672 Q239 672 269 653 Q299 634 316 604.5 Q333 575 339.5 538 Q346 501 346 465 Z M244 465 Q244 487 243 510.5 Q242 534 237 553.5 Q232 573 221.5 585 Q211 597 192 597 Q172 597 161 584 Q150 571 144.5 551.5 Q139 532 137.5 508.5 Q136 485 136 464 Q136 438 137.5 414.5 Q139 391 145 373.5 Q151 356 162 346 Q173 336 192 336 Q208 336 218 347 Q228 358 234 376.5 Q240 395 242 418 Q244 441 244 465 Z M767 199 Q767 161 759.5 124 Q752 87 734 58.5 Q716 30 686 12.5 Q656 -5 611 -5 Q565 -5 535 12 Q505 29 487 57 Q469 85 462 121.5 Q455 158 455 197 Q455 235 462 272.5 Q469 310 487 339.5 Q505 369 535.5 387.5 Q566 406 613 406 Q660 406 690 387.5 Q720 369 737 339 Q754 309 760.5 272 Q767 235 767 199 Z M665 198 Q665 221 664 244.5 Q663 268 658 287.5 Q653 307 642.5 319 Q632 331 613 331 Q593 331 582 318 Q571 305 565.5 285.5 Q560 266 558.5 242.5 Q557 219 557 198 Q557 172 558.5 148.5 Q560 125 566 107.5 Q572 90 583 80 Q594 70 613 70 Q629 70 639 81 Q649 92 655 110 Q661 128 663 151 Q665 174 665 198 Z M316 -20 L229 -20 L495 709 L582 709 L316 -20 Z " />
<glyph glyph-name="quotesinglbase" unicode="&#x201a;" horiz-adv-x="221" d="M37 63 Q37 94 57 113.5 Q77 133 109 133 Q150 133 167.5 108 Q185 83 185 48 Q185 21 175.5 -8 Q166 -37 150 -63.5 Q134 -90 111.5 -112 Q89 -134 64 -149 L31 -109 Q59 -81 71.5 -55 Q84 -29 87 -1 Q61 4 49 21 Q37 38 37 63 Z " />
<glyph glyph-name="quotedblbase" unicode="&#x201e;" horiz-adv-x="386" d="M202 63 Q202 94 222 113.5 Q242 133 274 133 Q315 133 332 108 Q349 83 349 48 Q349 21 340 -8 Q331 -37 314.5 -63.5 Q298 -90 276 -112 Q254 -134 228 -149 L196 -109 Q224 -81 236.5 -55 Q249 -29 251 -1 Q225 4 213.5 21 Q202 38 202 63 Z M37 63 Q37 94 57 113.5 Q77 133 109 133 Q150 133 167.5 108 Q185 83 185 48 Q185 21 175.5 -8 Q166 -37 150 -63.5 Q134 -90 111.5 -112 Q89 -134 64 -149 L31 -109 Q59 -81 71.5 -55 Q84 -29 87 -1 Q61 4 49 21 Q37 38 37 63 Z " />
<glyph glyph-name="daggerdbl" unicode="&#x2021;" horiz-adv-x="417" d="M147 202 L147 401 L29 401 L29 493 L147 493 L147 690 L267 690 L267 493 L388 493 L388 401 L267 401 L267 202 L388 202 L388 109 L267 109 L267 -68 L147 -68 L147 109 L29 109 L29 202 L147 202 Z " />
<glyph glyph-name="guilsinglleft" unicode="&#x2039;" horiz-adv-x="277" d="M40 215 L184 395 L245 357 L157 197 L243 37 L184 -1 L40 178 L40 215 Z " />
<glyph glyph-name="guilsinglright" unicode="&#x203a;" horiz-adv-x="277" d="M236 178 L92 -1 L30 37 L120 196 L34 357 L93 395 L236 215 L236 178 Z " />
<glyph glyph-name="logicalnot" unicode="&#xac;" horiz-adv-x="516" d="M443 98 L356 98 L356 269 L73 269 L73 350 L443 350 L443 98 Z " />
<glyph glyph-name="exclamdown" unicode="&#xa1;" horiz-adv-x="252" d="M60 -213 L62 51 L82 296 L176 296 L195 51 L195 -213 L60 -213 Z M198 432 Q198 403 181 383.5 Q164 364 128 364 Q93 364 76.5 383.5 Q60 403 60 432 Q60 461 76.5 480.5 Q93 500 128 500 Q163 500 180.5 480.5 Q198 461 198 432 Z " />
<glyph glyph-name="questiondown" unicode="&#xbf;" horiz-adv-x="433" d="M235 -218 Q141 -218 92 -176.5 Q43 -135 43 -62 Q43 -26 56 2.5 Q69 31 89 56 Q109 81 131.5 103 Q154 125 174 148 Q194 171 207 196 Q220 221 220 252 Q220 275 215 303 L326 307 Q330 289 331.5 266.5 Q333 244 333 234 Q333 180 315 143 Q297 106 267 74 Q239 44 217.5 18 Q196 -8 196 -42 Q196 -78 219.5 -92.5 Q243 -107 277 -107 Q301 -107 332 -100 Q363 -93 389 -83 L414 -180 Q361 -202 316.5 -210 Q272 -218 235 -218 Z M261 499 Q296 499 312.5 480 Q329 461 329 432 Q329 402 312.5 383 Q296 364 261 364 Q225 364 208 383 Q191 402 191 432 Q191 461 208.5 480 Q226 499 261 499 Z " />
<glyph glyph-name="OE" unicode="&#x152;" horiz-adv-x="720" d="M309 700 Q335 700 358 696.5 Q381 693 402 687 L694 687 L694 582 L467 582 L467 412 L656 412 L656 307 L467 307 L467 106 L703 106 L703 0 L388 0 Q370 -4 350 -6.5 Q330 -9 308 -9 Q228 -9 174 17 Q120 43 87.5 89.5 Q55 136 41 200.5 Q27 265 27 342 Q27 411 41 475.5 Q55 540 88 590 Q121 640 175 670 Q229 700 309 700 Z M308 594 Q266 594 241.5 571.5 Q217 549 204 513 Q191 477 187 431.5 Q183 386 183 341 Q183 279 188.5 233 Q194 187 208 156.5 Q222 126 246 111 Q270 96 307 96 Q308 96 310.5 96 Q313 96 318 97 L318 593 Q313 594 311 594 Q309 594 308 594 Z " />
<glyph glyph-name="plusminus" unicode="&#xb1;" horiz-adv-x="516" d="M438 83 L438 3 L79 3 L79 83 L438 83 Z M304 281 L304 131 L217 131 L217 281 L80 281 L80 362 L217 362 L217 512 L304 512 L304 362 L437 362 L437 281 L304 281 Z " />
<glyph glyph-name="multiply" unicode="&#xd7;" horiz-adv-x="516" d="M260 241 L139 119 L79 178 L200 301 L78 421 L135 480 L258 358 L376 477 L435 417 L318 298 L437 179 L379 121 L260 241 Z " />
<glyph glyph-name="ae" unicode="&#xe6;" horiz-adv-x="703" d="M492 503 Q557 503 594.5 479 Q632 455 650.5 418.5 Q669 382 674 340 Q679 298 679 262 L679 223 L412 223 Q412 158 434.5 128 Q457 98 516 98 Q553 98 582.5 106 Q612 114 639 125 L670 39 Q626 13 581 2 Q536 -9 491 -9 Q433 -9 394 7 Q355 23 329 52 Q304 32 280.5 19.5 Q257 7 235 0.5 Q213 -6 193.5 -8 Q174 -10 158 -10 Q114 -10 86.5 4 Q59 18 44 39 Q29 60 23.5 85 Q18 110 18 132 Q18 179 33.5 210.5 Q49 242 76.5 261 Q104 280 142 288.5 Q180 297 225 297 L275 297 L275 321 Q275 362 259.5 378.5 Q244 395 203 395 Q173 395 139 387.5 Q105 380 79 371 L53 462 Q97 482 146 491.5 Q195 501 235 501 Q277 501 309 487.5 Q341 474 360 443 Q382 469 416 486 Q450 503 492 503 Z M274 223 Q248 222 227 219.5 Q206 217 191 209.5 Q176 202 168 188 Q160 174 160 149 Q160 111 176 98.5 Q192 86 212 86 Q230 86 250.5 94.5 Q271 103 289 122 Q274 167 274 223 Z M485 404 Q464 404 450.5 394.5 Q437 385 429.5 370 Q422 355 418 335.5 Q414 316 413 296 L550 296 Q550 344 537 374 Q524 404 485 404 Z " />
<glyph glyph-name="quotedbl" unicode="&#x22;" horiz-adv-x="319" d="M54 446 L34 689 L147 689 L127 446 L54 446 Z M193 446 L173 689 L287 689 L266 446 L193 446 Z " />
<glyph glyph-name="caron" unicode="&#x2c7;" horiz-adv-x="475" d="M400 683 L272 533 L187 533 L56 684 L94 724 L227 626 L362 722 L400 683 Z " />
<glyph glyph-name="ring" unicode="&#x2da;" horiz-adv-x="475" d="M237 531 Q213 531 192.5 539.5 Q172 548 157 562.5 Q142 577 133.5 596.5 Q125 616 125 639 Q125 661 133.5 681 Q142 701 157 716 Q172 731 192.5 740 Q213 749 237 749 Q261 749 281 740.5 Q301 732 316 717 Q331 702 339 682 Q347 662 347 639 Q347 616 338.5 596.5 Q330 577 315 562.5 Q300 548 280 539.5 Q260 531 237 531 Z M237 689 Q215 689 200.5 674 Q186 659 186 638 Q186 618 200 603 Q214 588 237 588 Q259 588 272 603 Q285 618 285 638 Q285 659 272 674 Q259 689 237 689 Z " />
<glyph glyph-name="ff" unicode="&#xfb00;" horiz-adv-x="613" d="M266 722 Q293 722 324 719 Q355 716 393 703 Q413 723 445.5 733.5 Q478 744 521 744 Q547 744 576.5 739.5 Q606 735 633 727 L616 630 Q598 635 584 636.5 Q570 638 556 638 Q518 638 504 620 Q490 602 490 570 L490 491 L596 491 L596 398 L490 398 L490 0 L351 0 L351 398 L213 398 L213 0 L74 0 L74 398 L12 398 L12 475 L75 495 L75 523 Q75 565 83.5 601.5 Q92 638 113.5 665 Q135 692 172 707 Q209 722 266 722 Z M291 613 Q266 613 251 607.5 Q236 602 227.5 590.5 Q219 579 216 561.5 Q213 544 213 520 L213 491 L352 491 L352 562 Q352 587 356 603 Q319 613 291 613 Z " />
<glyph glyph-name="fl" unicode="&#xfb02;" horiz-adv-x="530" d="M299 398 L214 398 Q214 357 214 305 Q214 253 213.5 198.5 Q213 144 213 92 Q213 40 213 0 L75 0 L75 398 L12 398 L12 476 Q25 481 44 485.5 Q63 490 76 495 L76 534 Q76 581 86 618.5 Q96 656 118 682 Q140 708 176 722 Q212 736 264 736 Q320 736 387 722 L484 734 Q484 656 484 561 Q484 466 483.5 367.5 Q483 269 483 173.5 Q483 78 483 0 L343 0 L343 617 Q329 619 316 620 Q303 621 292 621 Q250 621 232 602.5 Q214 584 214 530 L214 491 L299 491 L299 398 Z " />
<glyph glyph-name="Dieresis" unicode="&#xf6cb;" horiz-adv-x="614" d="M286 822 Q286 795 269 776 Q252 757 219 757 Q186 757 170 776 Q154 795 154 822 Q154 851 170 869.5 Q186 888 219 888 Q252 888 269 869.5 Q286 851 286 822 Z M463 822 Q463 795 446 776 Q429 757 395 757 Q362 757 346 776 Q330 795 330 822 Q330 851 346.5 869.5 Q363 888 395 888 Q429 888 446 869.5 Q463 851 463 822 Z " />
<glyph glyph-name="paragraph" unicode="&#xb6;" horiz-adv-x="506" d="M201 300 Q123 300 76.5 350.5 Q30 401 30 498 Q30 540 43 578 Q56 616 81 644.5 Q106 673 141.5 689.5 Q177 706 222 706 L446 706 L446 -204 L352 -204 L352 599 L305 599 L305 -204 L210 -204 L211 300 L201 300 Z " />
<glyph glyph-name="AE" unicode="&#xc6;" horiz-adv-x="786" d="M757 687 L757 582 L543 582 L543 412 L722 412 L722 307 L543 307 L543 106 L769 106 L769 0 L395 0 L395 156 L225 156 L160 0 L3 0 L305 687 L757 687 Z M389 579 Q381 557 371 533 Q361 509 351 484 L263 261 L395 261 L395 579 L389 579 Z " />
<glyph glyph-name="currency" unicode="&#xa4;" horiz-adv-x="521" d="M43 477 L98 534 L159 470 Q205 504 262 504 Q319 504 366 469 L425 534 L482 480 L418 412 Q449 362 449 306 Q449 277 440.5 251 Q432 225 418 200 L482 134 L425 78 L365 142 Q340 124 314.5 116.5 Q289 109 262 109 Q234 109 209 116.5 Q184 124 159 142 L98 78 L42 135 L105 200 Q88 226 81 252.5 Q74 279 74 305 Q74 333 81.5 360 Q89 387 105 411 L43 477 Z M154 306 Q154 282 162.5 261 Q171 240 185.5 224 Q200 208 219.5 198.5 Q239 189 261 189 Q285 189 304.5 198.5 Q324 208 338 223.5 Q352 239 360 260.5 Q368 282 368 306 Q368 329 360 350 Q352 371 337.5 387 Q323 403 303.5 412.5 Q284 422 261 422 Q238 422 218.5 412.5 Q199 403 184.5 387 Q170 371 162 350 Q154 329 154 306 Z " />
<glyph glyph-name="macron" unicode="&#xaf;" horiz-adv-x="475" d="M80 672 L383 672 L383 583 L80 583 L80 672 Z " />
<glyph glyph-name="florin" unicode="&#x192;" horiz-adv-x="516" d="M397 680 Q426 680 451.5 674.5 Q477 669 497 662 L475 566 Q457 571 446 572.5 Q435 574 421 574 Q396 574 381 560.5 Q366 547 357.5 523.5 Q349 500 345.5 468 Q342 436 340 399 L424 399 L424 309 L331 309 L326 253 Q319 174 310 107 Q301 40 280 -9.5 Q259 -59 220.5 -87 Q182 -115 116 -115 Q85 -115 60.5 -110 Q36 -105 16 -97 L40 0 Q55 -4 67 -6 Q79 -8 92 -8 Q122 -8 138 6.5 Q154 21 163 57.5 Q172 94 178.5 155 Q185 216 196 309 L124 309 L124 399 L203 399 Q207 445 215 494.5 Q223 544 242.5 585 Q262 626 298.5 653 Q335 680 397 680 Z " />
<glyph glyph-name="fi" unicode="&#xfb01;" horiz-adv-x="523" d="M337 0 L337 398 L214 398 L214 0 L75 0 L75 398 L12 398 L12 475 L76 494 L76 546 Q76 588 85 623.5 Q94 659 115 685 Q136 711 172 725.5 Q208 740 262 740 Q291 740 336.5 734.5 Q382 729 429 715 L410 615 Q385 620 358 624 Q331 628 306 628 Q258 628 236 609 Q214 590 214 533 L214 491 L477 491 L477 0 L337 0 Z " />
<glyph glyph-name="Circumflex" unicode="&#xf6c0;" horiz-adv-x="614" d="M443 735 L307 819 L173 733 L136 774 L267 912 L352 912 L482 775 L443 735 Z " />
<glyph glyph-name="Acute" unicode="&#xf6c9;" horiz-adv-x="614" d="M298 737 L261 792 L428 923 L485 836 L298 737 Z " />
<glyph glyph-name="Caron" unicode="&#xf6ca;" horiz-adv-x="614" d="M482 872 L352 734 L267 734 L136 873 L173 913 L307 827 L443 911 L482 872 Z " />
<glyph glyph-name="Grave" unicode="&#xf6ce;" horiz-adv-x="614" d="M146 835 L205 923 L373 792 L333 736 L146 835 Z " />
<glyph glyph-name="fraction" unicode="&#x2044;" horiz-adv-x="96" d="M-33 -20 L-120 -20 L146 709 L233 709 L-33 -20 Z " />
<glyph glyph-name="gradient" unicode="&#x2207;" horiz-adv-x="586" d="M573 618 L383 0 L206 0 L12 618 L12 687 L573 687 L573 618 Z M293 129 Q303 176 314 220.5 Q325 265 339 318 L409 576 L168 576 L243 309 Q256 259 266 218 Q276 177 287 129 L293 129 Z " />
<glyph glyph-name="product" unicode="&#x220f;" horiz-adv-x="597" d="M397 -108 L397 581 L200 581 L201 -108 L52 -108 L52 688 L545 688 L545 -108 L397 -108 Z " />
<glyph glyph-name="summation" unicode="&#x2211;" horiz-adv-x="525" d="M494 687 L494 577 L217 577 L215 573 L346 312 L346 285 L205 5 L207 1 L508 1 L508 -107 L26 -107 L26 -12 L186 298 L30 598 L30 687 L494 687 Z " />
<glyph glyph-name="minus" unicode="&#x2212;" horiz-adv-x="516" d="M73 269 L73 350 L443 350 L443 269 L73 269 Z " />
<glyph glyph-name="radical" unicode="&#x221a;" horiz-adv-x="471" d="M164 389 L225 141 L228 141 L380 755 L477 755 L269 -43 L178 -43 L96 273 L58 256 L32 338 L164 389 Z " />
<glyph glyph-name="integral" unicode="&#x222b;" horiz-adv-x="286" d="M218 749 Q238 749 252.5 746.5 Q267 744 296 736 Q294 716 291 696.5 Q288 677 285 657 Q264 660 256.5 660.5 Q249 661 242 661 Q204 661 192.5 637.5 Q181 614 181 568 Q181 492 185 427 Q189 362 193.5 299 Q198 236 202 169.5 Q206 103 206 23 Q206 -15 199 -49 Q192 -83 175.5 -108 Q159 -133 132.5 -147.5 Q106 -162 68 -162 Q49 -162 30.5 -159.5 Q12 -157 -14 -149 Q-12 -129 -8.5 -109.5 Q-5 -90 -2 -71 Q21 -75 40 -75 Q77 -75 88.5 -55 Q100 -35 100 10 Q100 70 96 133.5 Q92 197 87.5 265.5 Q83 334 79.5 407 Q76 480 76 559 Q76 644 111 696.5 Q146 749 218 749 Z " />
<glyph glyph-name="approxequal" unicode="&#x2248;" horiz-adv-x="516" d="M71 352 Q89 406 114 428.5 Q139 451 171 451 Q193 451 217 445 Q241 439 265.5 431.5 Q290 424 313 417.5 Q336 411 356 410 L404 453 L444 421 Q414 322 348 322 Q324 322 298.5 328 Q273 334 248.5 341.5 Q224 349 202 355 Q180 361 162 362 L110 320 L71 352 Z M71 207 Q89 261 114 282 Q139 303 171 303 Q193 303 217 297 Q241 291 265.5 283.5 Q290 276 313 270 Q336 264 356 263 L406 306 L444 274 Q414 175 348 175 Q324 175 299 181 Q274 187 250 194 Q226 201 203.5 207 Q181 213 162 214 L113 172 L71 207 Z " />
<glyph glyph-name="notequal" unicode="&#x2260;" horiz-adv-x="516" d="M386 422 L440 422 L440 339 L328 339 L268 260 L440 260 L440 178 L211 178 L130 71 L82 101 L141 178 L72 178 L72 260 L196 260 L258 339 L72 339 L72 422 L315 422 L394 528 L442 498 L386 422 Z " />
<glyph glyph-name="lessequal" unicode="&#x2264;" horiz-adv-x="516" d="M454 149 L61 326 L61 399 L454 565 L454 463 L197 363 L454 252 L454 149 Z M60 26 L60 111 L454 111 L454 26 L60 26 Z " />
<glyph glyph-name="greaterequal" unicode="&#x2265;" horiz-adv-x="516" d="M61 26 L61 111 L455 111 L455 26 L61 26 Z M60 251 L319 363 L60 462 L60 565 L454 399 L454 325 L60 148 L60 251 Z " />
<glyph glyph-name="lozenge" unicode="&#x25ca;" horiz-adv-x="438" d="M252 663 L406 329 L251 -11 L184 -11 L28 328 L185 663 L252 663 Z M130 325 L219 127 L306 325 L216 525 L130 325 Z " />
<glyph glyph-name="Scaron" unicode="&#x160;" horiz-adv-x="498" d="M256 701 Q269 701 290 699.5 Q311 698 335 694 Q359 690 385 682 Q411 674 435 662 L402 558 Q376 570 341.5 578 Q307 586 271 586 Q227 586 200 569.5 Q173 553 173 513 Q173 482 195.5 463.5 Q218 445 252 430 Q286 415 326 399.5 Q366 384 400 359.5 Q434 335 456.5 297.5 Q479 260 479 201 Q479 158 464 119.5 Q449 81 418 52.5 Q387 24 340 7 Q293 -10 230 -10 Q183 -10 126.5 1 Q70 12 19 42 L55 148 Q87 134 111.5 125.5 Q136 117 156 112.5 Q176 108 191.5 107 Q207 106 221 106 Q278 106 304 127.5 Q330 149 330 189 Q330 223 308 244 Q286 265 252.5 281 Q219 297 180.5 311.5 Q142 326 108.5 348.5 Q75 371 53 406 Q31 441 31 496 Q31 539 45 576.5 Q59 614 86.5 641.5 Q114 669 156.5 685 Q199 701 256 701 Z M411 872 L281 734 L196 734 L65 873 L102 913 L236 827 L372 911 L411 872 Z " />
<glyph glyph-name="Zcaron" unicode="&#x17d;" horiz-adv-x="476" d="M187 112 L454 112 L454 0 L21 0 L21 104 L280 571 L277 577 L40 577 L40 688 L445 688 L445 588 L186 117 L187 112 Z M422 872 L292 734 L207 734 L76 873 L113 913 L247 827 L383 911 L422 872 Z " />
<glyph glyph-name="scaron" unicode="&#x161;" horiz-adv-x="393" d="M202 503 Q234 503 275 495.5 Q316 488 349 471 L323 381 Q305 390 273 396.5 Q241 403 217 403 Q193 403 176 393 Q159 383 159 360 Q159 344 175 333 Q191 322 215 312 Q239 302 266.5 290.5 Q294 279 318 260.5 Q342 242 358 215 Q374 188 374 148 Q374 77 325.5 34 Q277 -9 186 -9 Q145 -9 100.5 -0.5 Q56 8 16 31 L49 126 Q61 119 77 113.5 Q93 108 109.5 103.5 Q126 99 142.5 96.5 Q159 94 172 94 Q200 94 218.5 103.5 Q237 113 237 142 Q237 161 221.5 173 Q206 185 183 195 Q160 205 132.5 216 Q105 227 82 244 Q59 261 43.5 286.5 Q28 312 28 352 Q28 427 75 465 Q122 503 202 503 Z M365 685 L237 535 L152 535 L21 686 L59 726 L192 628 L327 724 L365 685 Z " />
<glyph glyph-name="zcaron" unicode="&#x17e;" horiz-adv-x="388" d="M184 104 L368 104 L368 0 L20 0 L20 84 L199 381 L197 388 L38 388 L38 492 L361 492 L361 408 L182 110 L184 104 Z M370 683 L242 533 L157 533 L26 684 L64 724 L197 626 L332 722 L370 683 Z " />
<glyph glyph-name="Ydieresis" unicode="&#x178;" horiz-adv-x="518" d="M182 245 L-1 687 L153 687 L218 503 Q230 468 240 433.5 Q250 399 255 364 L261 364 Q267 401 277.5 437 Q288 473 299 502 L366 687 L519 687 L333 256 L333 0 L182 0 L182 245 Z M236 827 Q236 800 219 781 Q202 762 169 762 Q136 762 120 781 Q104 800 104 827 Q104 856 120 874.5 Q136 893 169 893 Q202 893 219 874.5 Q236 856 236 827 Z M413 827 Q413 800 396 781 Q379 762 345 762 Q312 762 296 781 Q280 800 280 827 Q280 856 296.5 874.5 Q313 893 345 893 Q379 893 396 874.5 Q413 856 413 827 Z " />
<glyph glyph-name="cent" unicode="&#xa2;" horiz-adv-x="516" d="M261 79 Q209 85 172 105.5 Q135 126 112 158.5 Q89 191 78 233.5 Q67 276 67 327 Q67 371 78 414 Q89 457 112.5 492.5 Q136 528 172.5 553 Q209 578 261 586 L261 685 L359 685 L359 588 Q382 586 404 580.5 Q426 575 444 569 L421 474 Q406 478 382 481.5 Q358 485 332 485 Q309 485 287 478.5 Q265 472 248 454.5 Q231 437 220.5 407 Q210 377 210 330 Q210 260 235 222.5 Q260 185 325 185 Q353 185 382.5 192 Q412 199 435 207 L466 114 Q449 104 421 94.5 Q393 85 359 80 L359 -17 L261 -17 L261 79 Z " />
<glyph glyph-name="onequarter" unicode="&#xbc;" horiz-adv-x="696" d="M622 403 L622 170 L669 170 L669 100 L622 100 L622 0 L516 0 L516 100 L347 100 L347 159 L501 403 L622 403 Z M439 176 L441 170 L516 170 L516 292 L511 292 L439 176 Z M130 685 L220 685 L220 281 L115 281 L115 593 L36 583 L27 648 L130 685 Z M505 709 L239 -20 L152 -20 L418 709 L505 709 Z " />
<glyph glyph-name="onehalf" unicode="&#xbd;" horiz-adv-x="740" d="M560 79 L713 79 L713 1 L419 1 L419 69 Q455 95 486.5 123.5 Q518 152 541 180 Q564 208 577.5 233.5 Q591 259 591 280 Q591 305 575 315 Q559 325 535 325 Q515 325 489.5 317.5 Q464 310 444 298 L415 364 Q453 392 491 401.5 Q529 411 558 411 Q624 411 661.5 379.5 Q699 348 699 292 Q699 262 687 233 Q675 204 655 177.5 Q635 151 609.5 127.5 Q584 104 557 85 L560 79 Z M241 -20 L154 -20 L420 709 L507 709 L241 -20 Z M115 594 L37 585 L27 649 L131 686 L221 686 L221 282 L115 282 L115 594 Z " />
<glyph glyph-name="threequarters" unicode="&#xbe;" horiz-adv-x="742" d="M556 709 L290 -20 L203 -20 L469 709 L556 709 Z M297 685 L309 627 Q286 604 260.5 580 Q235 556 212 532 L213 530 Q258 522 287 494 Q316 466 316 415 Q316 384 303.5 358.5 Q291 333 270 315 Q249 297 221 287.5 Q193 278 161 278 Q137 278 100.5 282 Q64 286 27 305 L49 378 Q83 365 104 362.5 Q125 360 141 360 Q173 360 191 376 Q209 392 209 417 Q209 445 189.5 457.5 Q170 470 145 470 Q126 470 110 467 L93 515 L183 606 L182 610 L48 610 L48 685 L297 685 Z M667 403 L667 170 L714 170 L714 100 L667 100 L667 0 L561 0 L561 100 L392 100 L392 159 L546 403 L667 403 Z M484 176 L486 170 L561 170 L561 292 L556 292 L484 176 Z " />
<glyph glyph-name="Agrave" unicode="&#xc0;" horiz-adv-x="559" d="M373 687 L553 0 L404 0 L368 151 L186 151 L148 0 L4 0 L191 687 L373 687 Z M276 553 Q272 530 267 503.5 Q262 477 256 450 Q250 423 244.5 397.5 Q239 372 234 353 L210 256 L346 256 L301 446 Q294 475 290 501 Q286 527 281 553 L276 553 Z M101 827 L160 915 L328 784 L288 728 L101 827 Z " />
<glyph glyph-name="Aacute" unicode="&#xc1;" horiz-adv-x="559" d="M373 687 L553 0 L404 0 L368 151 L186 151 L148 0 L4 0 L191 687 L373 687 Z M276 553 Q272 530 267 503.5 Q262 477 256 450 Q250 423 244.5 397.5 Q239 372 234 353 L210 256 L346 256 L301 446 Q294 475 290 501 Q286 527 281 553 L276 553 Z M238 727 L201 782 L368 913 L425 826 L238 727 Z " />
<glyph glyph-name="Acircumflex" unicode="&#xc2;" horiz-adv-x="559" d="M373 687 L553 0 L404 0 L368 151 L186 151 L148 0 L4 0 L191 687 L373 687 Z M276 553 Q272 530 267 503.5 Q262 477 256 450 Q250 423 244.5 397.5 Q239 372 234 353 L210 256 L346 256 L301 446 Q294 475 290 501 Q286 527 281 553 L276 553 Z M416 716 L280 800 L146 714 L109 755 L240 893 L325 893 L455 756 L416 716 Z " />
<glyph glyph-name="Atilde" unicode="&#xc3;" horiz-adv-x="559" d="M373 687 L553 0 L404 0 L368 151 L186 151 L148 0 L4 0 L191 687 L373 687 Z M276 553 Q272 530 267 503.5 Q262 477 256 450 Q250 423 244.5 397.5 Q239 372 234 353 L210 256 L346 256 L301 446 Q294 475 290 501 Q286 527 281 553 L276 553 Z M356 739 Q335 739 313 744.5 Q291 750 271 756.5 Q251 763 233 768.5 Q215 774 201 774 L155 734 L109 760 Q125 809 149.5 836.5 Q174 864 203 864 Q222 864 242 859 Q262 854 282.5 847.5 Q303 841 322 836 Q341 831 358 831 L402 870 L447 835 Q433 790 409.5 764.5 Q386 739 356 739 Z " />
<glyph glyph-name="Adieresis" unicode="&#xc4;" horiz-adv-x="559" d="M373 687 L553 0 L404 0 L368 151 L186 151 L148 0 L4 0 L191 687 L373 687 Z M276 553 Q272 530 267 503.5 Q262 477 256 450 Q250 423 244.5 397.5 Q239 372 234 353 L210 256 L346 256 L301 446 Q294 475 290 501 Q286 527 281 553 L276 553 Z M258 803 Q258 776 241 757 Q224 738 191 738 Q158 738 142 757 Q126 776 126 803 Q126 832 142 850.5 Q158 869 191 869 Q224 869 241 850.5 Q258 832 258 803 Z M435 803 Q435 776 418 757 Q401 738 367 738 Q334 738 318 757 Q302 776 302 803 Q302 832 318.5 850.5 Q335 869 367 869 Q401 869 418 850.5 Q435 832 435 803 Z " />
<glyph glyph-name="Aring" unicode="&#xc5;" horiz-adv-x="559" d="M283 857 Q307 857 327 848.5 Q347 840 362 825 Q377 810 385 790 Q393 770 393 747 Q393 712 373 684 L553 0 L404 0 L368 151 L186 151 L148 0 L4 0 L190 685 Q171 713 171 747 Q171 769 179.5 789 Q188 809 203 824 Q218 839 238.5 848 Q259 857 283 857 Z M276 553 Q272 530 267 503.5 Q262 477 256 450 Q250 423 244.5 397.5 Q239 372 234 353 L210 256 L346 256 L301 446 Q294 475 290 501 Q286 527 281 553 L276 553 Z M283 797 Q261 797 246.5 782 Q232 767 232 746 Q232 726 246 711 Q260 696 283 696 Q305 696 318 711 Q331 726 331 746 Q331 767 318 782 Q305 797 283 797 Z " />
<glyph glyph-name="Ccedilla" unicode="&#xc7;" horiz-adv-x="487" d="M317 700 Q399 700 466 674 L439 571 Q412 579 388 582 Q364 585 341 585 Q258 585 221 523 Q184 461 184 345 Q184 288 189.5 244 Q195 200 211.5 169.5 Q228 139 256.5 123.5 Q285 108 332 108 Q352 108 388 113.5 Q424 119 455 129 L479 25 Q461 16 439 9.5 Q417 3 394 -1.5 Q371 -6 348 -8 Q325 -10 304 -10 L301 -10 L264 -59 Q310 -62 339 -83 Q368 -104 368 -142 Q368 -164 358 -184 Q348 -204 327 -219.5 Q306 -235 273 -244.5 Q240 -254 194 -254 L193 -206 Q244 -201 263 -186 Q282 -171 282 -149 Q282 -138 276 -131.5 Q270 -125 260.5 -121.5 Q251 -118 238.5 -116.5 Q226 -115 213 -115 L204 -115 L188 -89 L249 -6 Q187 2 144.5 28.5 Q102 55 76 98 Q50 141 38.5 199 Q27 257 27 328 Q27 391 39.5 457 Q52 523 84 577 Q116 631 172.5 665.5 Q229 700 317 700 Z " />
<glyph glyph-name="Egrave" unicode="&#xc8;" horiz-adv-x="472" d="M51 0 L51 687 L442 687 L442 582 L199 582 L199 413 L409 413 L409 308 L199 308 L199 106 L456 106 L456 0 L51 0 Z M106 827 L165 915 L333 784 L293 728 L106 827 Z " />
<glyph glyph-name="Eacute" unicode="&#xc9;" horiz-adv-x="472" d="M51 0 L51 687 L442 687 L442 582 L199 582 L199 413 L409 413 L409 308 L199 308 L199 106 L456 106 L456 0 L51 0 Z M187 728 L150 783 L317 914 L374 827 L187 728 Z " />
<glyph glyph-name="Ecircumflex" unicode="&#xca;" horiz-adv-x="472" d="M51 0 L51 687 L442 687 L442 582 L199 582 L199 413 L409 413 L409 308 L199 308 L199 106 L456 106 L456 0 L51 0 Z M374 729 L238 813 L104 727 L67 768 L198 906 L283 906 L413 769 L374 729 Z " />
<glyph glyph-name="Edieresis" unicode="&#xcb;" horiz-adv-x="472" d="M51 0 L51 687 L442 687 L442 582 L199 582 L199 413 L409 413 L409 308 L199 308 L199 106 L456 106 L456 0 L51 0 Z M221 804 Q221 777 204 758 Q187 739 154 739 Q121 739 105 758 Q89 777 89 804 Q89 833 105 851.5 Q121 870 154 870 Q187 870 204 851.5 Q221 833 221 804 Z M398 804 Q398 777 381 758 Q364 739 330 739 Q297 739 281 758 Q265 777 265 804 Q265 833 281.5 851.5 Q298 870 330 870 Q364 870 381 851.5 Q398 833 398 804 Z " />
<glyph glyph-name="Igrave" unicode="&#xcc;" horiz-adv-x="253" d="M52 0 L52 688 L201 688 L201 0 L52 0 Z M-46 828 L13 916 L181 785 L141 729 L-46 828 Z " />
<glyph glyph-name="Iacute" unicode="&#xcd;" horiz-adv-x="253" d="M52 0 L52 688 L201 688 L201 0 L52 0 Z M79 733 L42 788 L209 919 L266 832 L79 733 Z " />
<glyph glyph-name="Icircumflex" unicode="&#xce;" horiz-adv-x="253" d="M52 0 L52 688 L201 688 L201 0 L52 0 Z M264 725 L128 809 L-6 723 L-43 764 L88 902 L173 902 L303 765 L264 725 Z " />
<glyph glyph-name="Idieresis" unicode="&#xcf;" horiz-adv-x="253" d="M52 0 L52 688 L201 688 L201 0 L52 0 Z M105 828 Q105 801 88 782 Q71 763 38 763 Q5 763 -11 782 Q-27 801 -27 828 Q-27 857 -11 875.5 Q5 894 38 894 Q71 894 88 875.5 Q105 857 105 828 Z M282 828 Q282 801 265 782 Q248 763 214 763 Q181 763 165 782 Q149 801 149 828 Q149 857 165.5 875.5 Q182 894 214 894 Q248 894 265 875.5 Q282 857 282 828 Z " />
<glyph glyph-name="Eth" unicode="&#xd0;" horiz-adv-x="572" d="M51 0 L51 320 L6 320 L6 389 L51 389 L51 688 L259 688 Q341 688 396 660.5 Q451 633 484 586 Q517 539 531 477 Q545 415 545 346 Q545 277 530.5 214 Q516 151 482 103.5 Q448 56 392.5 28 Q337 0 256 0 L51 0 Z M199 585 L199 389 L301 389 L301 320 L199 320 L199 105 L250 105 Q274 105 299 114.5 Q324 124 344.5 149.5 Q365 175 378.5 221 Q392 267 392 341 Q392 416 379.5 463.5 Q367 511 347 538 Q327 565 301.5 575 Q276 585 250 585 L199 585 Z " />
<glyph glyph-name="Ntilde" unicode="&#xd1;" horiz-adv-x="620" d="M422 276 L422 686 L567 686 L567 0 L424 0 L241 337 Q231 355 221 376 Q211 397 200 421 Q198 421 197.5 420.5 Q197 420 195 420 L195 0 L52 0 L52 686 L197 686 L300 502 Q315 475 331.5 445.5 Q348 416 364 386 Q380 356 394 327.5 Q408 299 417 276 L422 276 Z M392 759 Q371 759 349 764.5 Q327 770 307 776.5 Q287 783 269 788.5 Q251 794 237 794 L191 754 L145 780 Q161 829 185.5 856.5 Q210 884 239 884 Q258 884 278 879 Q298 874 318.5 867.5 Q339 861 358 856 Q377 851 394 851 L438 890 L483 855 Q469 810 445.5 784.5 Q422 759 392 759 Z " />
<glyph glyph-name="Ograve" unicode="&#xd2;" horiz-adv-x="614" d="M587 344 Q587 272 572 207.5 Q557 143 524 95 Q491 47 438 18.5 Q385 -10 309 -10 Q228 -10 174 16.5 Q120 43 87.5 89.5 Q55 136 41 200.5 Q27 265 27 342 Q27 411 41 476 Q55 541 88 590.5 Q121 640 175 670 Q229 700 309 700 Q390 700 443.5 670 Q497 640 529 590.5 Q561 541 574 477 Q587 413 587 344 Z M431 342 Q431 390 427 436 Q423 482 410 517 Q397 552 373 573.5 Q349 595 309 595 Q267 595 242.5 572.5 Q218 550 205 514 Q192 478 188 432.5 Q184 387 184 341 Q184 279 189.5 233.5 Q195 188 209 157.5 Q223 127 247 112 Q271 97 308 97 Q344 97 368 114.5 Q392 132 406 164 Q420 196 425.5 241 Q431 286 431 342 Z M138 835 L197 923 L365 792 L325 736 L138 835 Z " />
<glyph glyph-name="Oacute" unicode="&#xd3;" horiz-adv-x="614" d="M587 344 Q587 272 572 207.5 Q557 143 524 95 Q491 47 438 18.5 Q385 -10 309 -10 Q228 -10 174 16.5 Q120 43 87.5 89.5 Q55 136 41 200.5 Q27 265 27 342 Q27 411 41 476 Q55 541 88 590.5 Q121 640 175 670 Q229 700 309 700 Q390 700 443.5 670 Q497 640 529 590.5 Q561 541 574 477 Q587 413 587 344 Z M431 342 Q431 390 427 436 Q423 482 410 517 Q397 552 373 573.5 Q349 595 309 595 Q267 595 242.5 572.5 Q218 550 205 514 Q192 478 188 432.5 Q184 387 184 341 Q184 279 189.5 233.5 Q195 188 209 157.5 Q223 127 247 112 Q271 97 308 97 Q344 97 368 114.5 Q392 132 406 164 Q420 196 425.5 241 Q431 286 431 342 Z M279 737 L242 792 L409 923 L466 836 L279 737 Z " />
<glyph glyph-name="Ocircumflex" unicode="&#xd4;" horiz-adv-x="614" d="M587 344 Q587 272 572 207.5 Q557 143 524 95 Q491 47 438 18.5 Q385 -10 309 -10 Q228 -10 174 16.5 Q120 43 87.5 89.5 Q55 136 41 200.5 Q27 265 27 342 Q27 411 41 476 Q55 541 88 590.5 Q121 640 175 670 Q229 700 309 700 Q390 700 443.5 670 Q497 640 529 590.5 Q561 541 574 477 Q587 413 587 344 Z M431 342 Q431 390 427 436 Q423 482 410 517 Q397 552 373 573.5 Q349 595 309 595 Q267 595 242.5 572.5 Q218 550 205 514 Q192 478 188 432.5 Q184 387 184 341 Q184 279 189.5 233.5 Q195 188 209 157.5 Q223 127 247 112 Q271 97 308 97 Q344 97 368 114.5 Q392 132 406 164 Q420 196 425.5 241 Q431 286 431 342 Z M442 723 L306 807 L172 721 L135 762 L266 900 L351 900 L481 763 L442 723 Z " />
<glyph glyph-name="Otilde" unicode="&#xd5;" horiz-adv-x="614" d="M587 344 Q587 272 572 207.5 Q557 143 524 95 Q491 47 438 18.5 Q385 -10 309 -10 Q228 -10 174 16.5 Q120 43 87.5 89.5 Q55 136 41 200.5 Q27 265 27 342 Q27 411 41 476 Q55 541 88 590.5 Q121 640 175 670 Q229 700 309 700 Q390 700 443.5 670 Q497 640 529 590.5 Q561 541 574 477 Q587 413 587 344 Z M431 342 Q431 390 427 436 Q423 482 410 517 Q397 552 373 573.5 Q349 595 309 595 Q267 595 242.5 572.5 Q218 550 205 514 Q192 478 188 432.5 Q184 387 184 341 Q184 279 189.5 233.5 Q195 188 209 157.5 Q223 127 247 112 Q271 97 308 97 Q344 97 368 114.5 Q392 132 406 164 Q420 196 425.5 241 Q431 286 431 342 Z M383 753 Q362 753 340 758.5 Q318 764 298 770.5 Q278 777 260 782.5 Q242 788 228 788 L182 748 L136 774 Q152 823 176.5 850.5 Q201 878 230 878 Q249 878 269 873 Q289 868 309.5 861.5 Q330 855 349 850 Q368 845 385 845 L429 884 L474 849 Q460 804 436.5 778.5 Q413 753 383 753 Z " />
<glyph glyph-name="Odieresis" unicode="&#xd6;" horiz-adv-x="614" d="M587 344 Q587 272 572 207.5 Q557 143 524 95 Q491 47 438 18.5 Q385 -10 309 -10 Q228 -10 174 16.5 Q120 43 87.5 89.5 Q55 136 41 200.5 Q27 265 27 342 Q27 411 41 476 Q55 541 88 590.5 Q121 640 175 670 Q229 700 309 700 Q390 700 443.5 670 Q497 640 529 590.5 Q561 541 574 477 Q587 413 587 344 Z M431 342 Q431 390 427 436 Q423 482 410 517 Q397 552 373 573.5 Q349 595 309 595 Q267 595 242.5 572.5 Q218 550 205 514 Q192 478 188 432.5 Q184 387 184 341 Q184 279 189.5 233.5 Q195 188 209 157.5 Q223 127 247 112 Q271 97 308 97 Q344 97 368 114.5 Q392 132 406 164 Q420 196 425.5 241 Q431 286 431 342 Z M284 809 Q284 782 267 763 Q250 744 217 744 Q184 744 168 763 Q152 782 152 809 Q152 838 168 856.5 Q184 875 217 875 Q250 875 267 856.5 Q284 838 284 809 Z M461 809 Q461 782 444 763 Q427 744 393 744 Q360 744 344 763 Q328 782 328 809 Q328 838 344.5 856.5 Q361 875 393 875 Q427 875 444 856.5 Q461 838 461 809 Z " />
<glyph glyph-name="Oslash" unicode="&#xd8;" horiz-adv-x="614" d="M587 344 Q587 272 572 207.5 Q557 143 524 95 Q491 47 438 18.5 Q385 -10 309 -10 Q248 -10 203 5 Q158 20 126 47 L80 -15 L46 9 L96 78 Q58 126 42.5 193 Q27 260 27 342 Q27 411 41 476 Q55 541 88 590.5 Q121 640 175 670 Q229 700 309 700 Q372 700 418.5 681 Q465 662 497 630 L545 695 Q554 688 562 682 Q570 676 579 670 L525 596 Q559 545 573 480 Q587 415 587 344 Z M184 341 Q184 263 193 211 L412 512 Q399 550 375 572.5 Q351 595 309 595 Q267 595 242.5 572.5 Q218 550 205 514 Q192 478 188 432.5 Q184 387 184 341 Z M431 342 Q431 372 429.5 401 Q428 430 424 457 L208 160 Q235 97 308 97 Q344 97 368 114.5 Q392 132 406 164 Q420 196 425.5 241 Q431 286 431 342 Z " />
<glyph glyph-name="Ugrave" unicode="&#xd9;" horiz-adv-x="600" d="M547 260 Q547 197 533.5 147 Q520 97 490 62.5 Q460 28 413 9.5 Q366 -9 299 -9 Q228 -9 181 10 Q134 29 105 63.5 Q76 98 64 146 Q52 194 52 252 L52 688 L198 688 L198 233 Q198 203 203 178.5 Q208 154 220 136 Q232 118 251.5 108 Q271 98 300 98 Q355 98 378.5 131.5 Q402 165 402 235 L402 688 L548 688 L547 260 Z M151 835 L210 923 L378 792 L338 736 L151 835 Z " />
<glyph glyph-name="Uacute" unicode="&#xda;" horiz-adv-x="599" d="M547 260 Q547 197 533.5 147 Q520 97 490 62.5 Q460 28 413 9.5 Q366 -9 299 -9 Q228 -9 181 10 Q134 29 105 63.5 Q76 98 64 146 Q52 194 52 252 L52 688 L198 688 L198 233 Q198 203 203 178.5 Q208 154 220 136 Q232 118 251.5 108 Q271 98 300 98 Q355 98 378.5 131.5 Q402 165 402 235 L402 688 L548 688 L547 260 Z M266 735 L229 790 L396 921 L453 834 L266 735 Z " />
<glyph glyph-name="Ucircumflex" unicode="&#xdb;" horiz-adv-x="599" d="M547 260 Q547 197 533.5 147 Q520 97 490 62.5 Q460 28 413 9.5 Q366 -9 299 -9 Q228 -9 181 10 Q134 29 105 63.5 Q76 98 64 146 Q52 194 52 252 L52 688 L198 688 L198 233 Q198 203 203 178.5 Q208 154 220 136 Q232 118 251.5 108 Q271 98 300 98 Q355 98 378.5 131.5 Q402 165 402 235 L402 688 L548 688 L547 260 Z M433 735 L297 819 L163 733 L126 774 L257 912 L342 912 L472 775 L433 735 Z " />
<glyph glyph-name="Udieresis" unicode="&#xdc;" horiz-adv-x="599" d="M547 260 Q547 197 533.5 147 Q520 97 490 62.5 Q460 28 413 9.5 Q366 -9 299 -9 Q228 -9 181 10 Q134 29 105 63.5 Q76 98 64 146 Q52 194 52 252 L52 688 L198 688 L198 233 Q198 203 203 178.5 Q208 154 220 136 Q232 118 251.5 108 Q271 98 300 98 Q355 98 378.5 131.5 Q402 165 402 235 L402 688 L548 688 L547 260 Z M276 825 Q276 798 259 779 Q242 760 209 760 Q176 760 160 779 Q144 798 144 825 Q144 854 160 872.5 Q176 891 209 891 Q242 891 259 872.5 Q276 854 276 825 Z M453 825 Q453 798 436 779 Q419 760 385 760 Q352 760 336 779 Q320 798 320 825 Q320 854 336.5 872.5 Q353 891 385 891 Q419 891 436 872.5 Q453 854 453 825 Z " />
<glyph glyph-name="Yacute" unicode="&#xdd;" horiz-adv-x="518" d="M182 245 L-1 687 L153 687 L218 503 Q230 468 240 433.5 Q250 399 255 364 L261 364 Q267 401 277.5 437 Q288 473 299 502 L366 687 L519 687 L333 256 L333 0 L182 0 L182 245 Z M232 727 L195 782 L362 913 L419 826 L232 727 Z " />
<glyph glyph-name="Thorn" unicode="&#xde;" horiz-adv-x="500" d="M485 341 Q485 303 473.5 265 Q462 227 436 196 Q410 165 369 146 Q328 127 270 127 L200 127 L200 0 L52 0 L52 688 L199 688 L199 551 L264 551 Q372 551 428.5 494 Q485 437 485 341 Z M200 451 L200 227 L255 227 Q286 227 310 251.5 Q334 276 334 338 Q334 400 310 425.5 Q286 451 251 451 L200 451 Z " />
<glyph glyph-name="agrave" unicode="&#xe0;" horiz-adv-x="475" d="M240 501 Q280 501 311.5 491.5 Q343 482 365 460 Q387 438 399 403 Q411 368 411 317 L411 94 L456 94 L461 14 Q441 3 413.5 -3 Q386 -9 358 -9 Q331 -9 308.5 2.5 Q286 14 282 49 L278 50 Q257 28 236.5 16 Q216 4 198.5 -1.5 Q181 -7 167.5 -8 Q154 -9 145 -9 Q107 -9 82 4.5 Q57 18 43 39 Q29 60 23.5 84.5 Q18 109 18 131 Q18 155 24.5 178.5 Q31 202 45 221.5 Q59 241 81.5 256 Q104 271 137 278 Q165 284 195 286.5 Q225 289 273 293 L273 322 Q273 363 256 379.5 Q239 396 202 396 Q173 396 139.5 388 Q106 380 80 371 L54 460 Q98 480 147 490.5 Q196 501 240 501 Z M272 223 Q247 220 226 217 Q205 214 189.5 207 Q174 200 165 186.5 Q156 173 156 149 Q156 111 170 98.5 Q184 86 201 86 Q220 86 239 97 Q258 108 272 125 L272 223 Z M96 693 L184 757 L294 575 L236 538 L96 693 Z " />
<glyph glyph-name="aacute" unicode="&#xe1;" horiz-adv-x="475" d="M240 501 Q280 501 311.5 491.5 Q343 482 365 460 Q387 438 399 403 Q411 368 411 317 L411 94 L456 94 L461 14 Q441 3 413.5 -3 Q386 -9 358 -9 Q331 -9 308.5 2.5 Q286 14 282 49 L278 50 Q257 28 236.5 16 Q216 4 198.5 -1.5 Q181 -7 167.5 -8 Q154 -9 145 -9 Q107 -9 82 4.5 Q57 18 43 39 Q29 60 23.5 84.5 Q18 109 18 131 Q18 155 24.5 178.5 Q31 202 45 221.5 Q59 241 81.5 256 Q104 271 137 278 Q165 284 195 286.5 Q225 289 273 293 L273 322 Q273 363 256 379.5 Q239 396 202 396 Q173 396 139.5 388 Q106 380 80 371 L54 460 Q98 480 147 490.5 Q196 501 240 501 Z M272 223 Q247 220 226 217 Q205 214 189.5 207 Q174 200 165 186.5 Q156 173 156 149 Q156 111 170 98.5 Q184 86 201 86 Q220 86 239 97 Q258 108 272 125 L272 223 Z M248 538 L190 575 L301 757 L389 696 L248 538 Z " />
<glyph glyph-name="acircumflex" unicode="&#xe2;" horiz-adv-x="475" d="M240 501 Q280 501 311.5 491.5 Q343 482 365 460 Q387 438 399 403 Q411 368 411 317 L411 94 L456 94 L461 14 Q441 3 413.5 -3 Q386 -9 358 -9 Q331 -9 308.5 2.5 Q286 14 282 49 L278 50 Q257 28 236.5 16 Q216 4 198.5 -1.5 Q181 -7 167.5 -8 Q154 -9 145 -9 Q107 -9 82 4.5 Q57 18 43 39 Q29 60 23.5 84.5 Q18 109 18 131 Q18 155 24.5 178.5 Q31 202 45 221.5 Q59 241 81.5 256 Q104 271 137 278 Q165 284 195 286.5 Q225 289 273 293 L273 322 Q273 363 256 379.5 Q239 396 202 396 Q173 396 139.5 388 Q106 380 80 371 L54 460 Q98 480 147 490.5 Q196 501 240 501 Z M272 223 Q247 220 226 217 Q205 214 189.5 207 Q174 200 165 186.5 Q156 173 156 149 Q156 111 170 98.5 Q184 86 201 86 Q220 86 239 97 Q258 108 272 125 L272 223 Z M363 531 L228 628 L95 529 L57 569 L188 720 L273 720 L401 570 L363 531 Z " />
<glyph glyph-name="atilde" unicode="&#xe3;" horiz-adv-x="475" d="M240 501 Q280 501 311.5 491.5 Q343 482 365 460 Q387 438 399 403 Q411 368 411 317 L411 94 L456 94 L461 14 Q441 3 413.5 -3 Q386 -9 358 -9 Q331 -9 308.5 2.5 Q286 14 282 49 L278 50 Q257 28 236.5 16 Q216 4 198.5 -1.5 Q181 -7 167.5 -8 Q154 -9 145 -9 Q107 -9 82 4.5 Q57 18 43 39 Q29 60 23.5 84.5 Q18 109 18 131 Q18 155 24.5 178.5 Q31 202 45 221.5 Q59 241 81.5 256 Q104 271 137 278 Q165 284 195 286.5 Q225 289 273 293 L273 322 Q273 363 256 379.5 Q239 396 202 396 Q173 396 139.5 388 Q106 380 80 371 L54 460 Q98 480 147 490.5 Q196 501 240 501 Z M272 223 Q247 220 226 217 Q205 214 189.5 207 Q174 200 165 186.5 Q156 173 156 149 Q156 111 170 98.5 Q184 86 201 86 Q220 86 239 97 Q258 108 272 125 L272 223 Z M307 573 Q286 573 264 578.5 Q242 584 222 590.5 Q202 597 184 602.5 Q166 608 152 608 L106 568 L60 594 Q76 643 100.5 670.5 Q125 698 154 698 Q173 698 193 693 Q213 688 233.5 681.5 Q254 675 273 670 Q292 665 309 665 L353 704 L398 669 Q384 624 360.5 598.5 Q337 573 307 573 Z " />
<glyph glyph-name="adieresis" unicode="&#xe4;" horiz-adv-x="475" d="M240 501 Q280 501 311.5 491.5 Q343 482 365 460 Q387 438 399 403 Q411 368 411 317 L411 94 L456 94 L461 14 Q441 3 413.5 -3 Q386 -9 358 -9 Q331 -9 308.5 2.5 Q286 14 282 49 L278 50 Q257 28 236.5 16 Q216 4 198.5 -1.5 Q181 -7 167.5 -8 Q154 -9 145 -9 Q107 -9 82 4.5 Q57 18 43 39 Q29 60 23.5 84.5 Q18 109 18 131 Q18 155 24.5 178.5 Q31 202 45 221.5 Q59 241 81.5 256 Q104 271 137 278 Q165 284 195 286.5 Q225 289 273 293 L273 322 Q273 363 256 379.5 Q239 396 202 396 Q173 396 139.5 388 Q106 380 80 371 L54 460 Q98 480 147 490.5 Q196 501 240 501 Z M272 223 Q247 220 226 217 Q205 214 189.5 207 Q174 200 165 186.5 Q156 173 156 149 Q156 111 170 98.5 Q184 86 201 86 Q220 86 239 97 Q258 108 272 125 L272 223 Z M206 626 Q206 599 189 580 Q172 561 138 561 Q105 561 89 580 Q73 599 73 626 Q73 654 89.5 673 Q106 692 138 692 Q172 692 189 673 Q206 654 206 626 Z M383 626 Q383 599 366 580 Q349 561 315 561 Q282 561 266 580 Q250 599 250 626 Q250 654 266.5 673 Q283 692 315 692 Q349 692 366 673 Q383 654 383 626 Z " />
<glyph glyph-name="aring" unicode="&#xe5;" horiz-adv-x="475" d="M240 501 Q280 501 311.5 491.5 Q343 482 365 460 Q387 438 399 403 Q411 368 411 317 L411 94 L456 94 L461 14 Q441 3 413.5 -3 Q386 -9 358 -9 Q331 -9 308.5 2.5 Q286 14 282 49 L278 50 Q257 28 236.5 16 Q216 4 198.5 -1.5 Q181 -7 167.5 -8 Q154 -9 145 -9 Q107 -9 82 4.5 Q57 18 43 39 Q29 60 23.5 84.5 Q18 109 18 131 Q18 155 24.5 178.5 Q31 202 45 221.5 Q59 241 81.5 256 Q104 271 137 278 Q165 284 195 286.5 Q225 289 273 293 L273 322 Q273 363 256 379.5 Q239 396 202 396 Q173 396 139.5 388 Q106 380 80 371 L54 460 Q98 480 147 490.5 Q196 501 240 501 Z M272 223 Q247 220 226 217 Q205 214 189.5 207 Q174 200 165 186.5 Q156 173 156 149 Q156 111 170 98.5 Q184 86 201 86 Q220 86 239 97 Q258 108 272 125 L272 223 Z M238 531 Q214 531 193.5 539.5 Q173 548 158 562.5 Q143 577 134.5 596.5 Q126 616 126 639 Q126 661 134.5 681 Q143 701 158 716 Q173 731 193.5 740 Q214 749 238 749 Q262 749 282 740.5 Q302 732 317 717 Q332 702 340 682 Q348 662 348 639 Q348 616 339.5 596.5 Q331 577 316 562.5 Q301 548 281 539.5 Q261 531 238 531 Z M238 689 Q216 689 201.5 674 Q187 659 187 638 Q187 618 201 603 Q215 588 238 588 Q260 588 273 603 Q286 618 286 638 Q286 659 273 674 Q260 689 238 689 Z " />
<glyph glyph-name="ccedilla" unicode="&#xe7;" horiz-adv-x="390" d="M239 502 Q265 502 297.5 497.5 Q330 493 365 479 L344 381 Q324 388 307 390.5 Q290 393 273 393 Q243 393 222.5 381.5 Q202 370 189.5 349.5 Q177 329 172 302 Q167 275 167 244 Q167 215 170.5 189 Q174 163 184 143 Q194 123 211.5 111 Q229 99 258 99 Q284 99 305 104.5 Q326 110 355 121 L382 28 Q350 9 314.5 0.5 Q279 -8 235 -9 L197 -59 Q243 -62 272 -83 Q301 -104 301 -142 Q301 -164 291 -184 Q281 -204 260 -219.5 Q239 -235 206 -244.5 Q173 -254 127 -254 L126 -206 Q177 -201 196 -186 Q215 -171 215 -149 Q215 -138 209 -131.5 Q203 -125 193.5 -121.5 Q184 -118 171.5 -116.5 Q159 -115 146 -115 L137 -115 L121 -89 L183 -5 Q135 2 104.5 24.5 Q74 47 56 80 Q38 113 31.5 153.5 Q25 194 25 239 Q25 283 34.5 329.5 Q44 376 68 414.5 Q92 453 133.5 477.5 Q175 502 239 502 Z " />
<glyph glyph-name="egrave" unicode="&#xe8;" horiz-adv-x="462" d="M243 503 Q310 503 349 479 Q388 455 407.5 418.5 Q427 382 432 340 Q437 298 437 262 L437 217 L168 217 Q169 161 192 129.5 Q215 98 274 98 Q308 98 337.5 106 Q367 114 396 126 L427 39 Q384 13 338.5 2 Q293 -9 248 -9 Q183 -9 140 11.5 Q97 32 72 67 Q47 102 37 148 Q27 194 27 244 Q27 285 36.5 330.5 Q46 376 70.5 414.5 Q95 453 137 478 Q179 503 243 503 Z M242 404 Q221 404 207.5 395 Q194 386 186 371 Q178 356 174 337.5 Q170 319 169 300 L307 300 Q306 345 293.5 374.5 Q281 404 242 404 Z M102 693 L190 757 L300 575 L242 538 L102 693 Z " />
<glyph glyph-name="eacute" unicode="&#xe9;" horiz-adv-x="462" d="M243 503 Q310 503 349 479 Q388 455 407.5 418.5 Q427 382 432 340 Q437 298 437 262 L437 217 L168 217 Q169 161 192 129.5 Q215 98 274 98 Q308 98 337.5 106 Q367 114 396 126 L427 39 Q384 13 338.5 2 Q293 -9 248 -9 Q183 -9 140 11.5 Q97 32 72 67 Q47 102 37 148 Q27 194 27 244 Q27 285 36.5 330.5 Q46 376 70.5 414.5 Q95 453 137 478 Q179 503 243 503 Z M242 404 Q221 404 207.5 395 Q194 386 186 371 Q178 356 174 337.5 Q170 319 169 300 L307 300 Q306 345 293.5 374.5 Q281 404 242 404 Z M241 538 L183 575 L294 757 L382 696 L241 538 Z " />
<glyph glyph-name="ecircumflex" unicode="&#xea;" horiz-adv-x="462" d="M243 503 Q310 503 349 479 Q388 455 407.5 418.5 Q427 382 432 340 Q437 298 437 262 L437 217 L168 217 Q169 161 192 129.5 Q215 98 274 98 Q308 98 337.5 106 Q367 114 396 126 L427 39 Q384 13 338.5 2 Q293 -9 248 -9 Q183 -9 140 11.5 Q97 32 72 67 Q47 102 37 148 Q27 194 27 244 Q27 285 36.5 330.5 Q46 376 70.5 414.5 Q95 453 137 478 Q179 503 243 503 Z M242 404 Q221 404 207.5 395 Q194 386 186 371 Q178 356 174 337.5 Q170 319 169 300 L307 300 Q306 345 293.5 374.5 Q281 404 242 404 Z M372 526 L237 623 L104 524 L66 564 L197 715 L282 715 L410 565 L372 526 Z " />
<glyph glyph-name="edieresis" unicode="&#xeb;" horiz-adv-x="462" d="M243 503 Q310 503 349 479 Q388 455 407.5 418.5 Q427 382 432 340 Q437 298 437 262 L437 217 L168 217 Q169 161 192 129.5 Q215 98 274 98 Q308 98 337.5 106 Q367 114 396 126 L427 39 Q384 13 338.5 2 Q293 -9 248 -9 Q183 -9 140 11.5 Q97 32 72 67 Q47 102 37 148 Q27 194 27 244 Q27 285 36.5 330.5 Q46 376 70.5 414.5 Q95 453 137 478 Q179 503 243 503 Z M242 404 Q221 404 207.5 395 Q194 386 186 371 Q178 356 174 337.5 Q170 319 169 300 L307 300 Q306 345 293.5 374.5 Q281 404 242 404 Z M219 626 Q219 599 202 580 Q185 561 151 561 Q118 561 102 580 Q86 599 86 626 Q86 654 102.5 673 Q119 692 151 692 Q185 692 202 673 Q219 654 219 626 Z M396 626 Q396 599 379 580 Q362 561 328 561 Q295 561 279 580 Q263 599 263 626 Q263 654 279.5 673 Q296 692 328 692 Q362 692 379 673 Q396 654 396 626 Z " />
<glyph glyph-name="igrave" unicode="&#xec;" horiz-adv-x="241" d="M-31 693 L57 757 L167 575 L109 538 L-31 693 Z M50 0 L50 491 L190 491 L190 0 L50 0 Z " />
<glyph glyph-name="iacute" unicode="&#xed;" horiz-adv-x="241" d="M129 538 L71 575 L182 757 L270 696 L129 538 Z M50 0 L50 491 L190 491 L190 0 L50 0 Z " />
<glyph glyph-name="icircumflex" unicode="&#xee;" horiz-adv-x="241" d="M50 0 L50 491 L190 491 L190 0 L50 0 Z M254 535 L119 632 L-14 533 L-52 573 L79 724 L164 724 L292 574 L254 535 Z " />
<glyph glyph-name="idieresis" unicode="&#xef;" horiz-adv-x="241" d="M98 628 Q98 601 81 582 Q64 563 30 563 Q-3 563 -19 582 Q-35 601 -35 628 Q-35 656 -18.5 675 Q-2 694 30 694 Q64 694 81 675 Q98 656 98 628 Z M275 628 Q275 601 258 582 Q241 563 207 563 Q174 563 158 582 Q142 601 142 628 Q142 656 158.5 675 Q175 694 207 694 Q241 694 258 675 Q275 656 275 628 Z M50 0 L50 491 L190 491 L190 0 L50 0 Z " />
<glyph glyph-name="eth" unicode="&#xf0;" horiz-adv-x="492" d="M226 460 Q238 460 262 457.5 Q286 455 309 444 L314 449 Q297 507 261 555 L190 502 L163 537 L231 589 Q210 612 184.5 632.5 Q159 653 131 673 L179 743 Q217 723 250 700.5 Q283 678 312 651 L381 705 L409 669 L344 619 Q403 554 434 472 Q465 390 465 290 Q465 241 455.5 188 Q446 135 420.5 91.5 Q395 48 351 20 Q307 -8 238 -8 Q176 -8 135.5 12.5 Q95 33 71 66 Q47 99 37.5 140 Q28 181 28 222 Q28 268 40 311 Q52 354 76.5 387 Q101 420 138.5 440 Q176 460 226 460 Z M247 364 Q224 364 209 352 Q194 340 185 320 Q176 300 172.5 275 Q169 250 169 225 Q169 202 171.5 177.5 Q174 153 181.5 133.5 Q189 114 204 101.5 Q219 89 243 89 Q268 89 283.5 104.5 Q299 120 307.5 144.5 Q316 169 319 198.5 Q322 228 322 256 Q322 276 321 293.5 Q320 311 317 329 Q300 349 281.5 356.5 Q263 364 247 364 Z " />
<glyph glyph-name="ntilde" unicode="&#xf1;" horiz-adv-x="502" d="M316 0 L316 316 Q316 351 306 367 Q296 383 268 383 Q248 383 226.5 374 Q205 365 186 352 L186 0 L46 0 L46 491 L170 491 L174 446 Q175 445 176 445 Q177 445 179 444 Q220 476 258 489 Q296 502 328 502 Q369 502 394 490 Q419 478 433 457 Q447 436 451.5 408 Q456 380 456 349 L456 0 L316 0 Z M316 575 Q295 575 273 580.5 Q251 586 231 592.5 Q211 599 193 604.5 Q175 610 161 610 L115 570 L69 596 Q85 645 109.5 672.5 Q134 700 163 700 Q182 700 202 695 Q222 690 242.5 683.5 Q263 677 282 672 Q301 667 318 667 L362 706 L407 671 Q393 626 369.5 600.5 Q346 575 316 575 Z " />
<glyph glyph-name="ograve" unicode="&#xf2;" horiz-adv-x="492" d="M465 245 Q465 194 453.5 148 Q442 102 416 67 Q390 32 348 11.5 Q306 -9 244 -9 Q183 -9 141.5 11 Q100 31 74.5 65 Q49 99 38 145 Q27 191 27 244 Q27 296 38.5 342.5 Q50 389 76.5 424.5 Q103 460 145 480.5 Q187 501 248 501 Q309 501 350.5 480.5 Q392 460 417.5 425 Q443 390 454 343.5 Q465 297 465 245 Z M322 244 Q322 275 319.5 303.5 Q317 332 309 353.5 Q301 375 286.5 388 Q272 401 248 401 Q222 401 206.5 388 Q191 375 182.5 353 Q174 331 171.5 303 Q169 275 169 244 Q169 209 172 180.5 Q175 152 183 132 Q191 112 206.5 101.5 Q222 91 247 91 Q271 91 285.5 103.5 Q300 116 308 137 Q316 158 319 186 Q322 214 322 244 Z M106 693 L194 757 L304 575 L246 538 L106 693 Z " />
<glyph glyph-name="oacute" unicode="&#xf3;" horiz-adv-x="492" d="M465 245 Q465 194 453.5 148 Q442 102 416 67 Q390 32 348 11.5 Q306 -9 244 -9 Q183 -9 141.5 11 Q100 31 74.5 65 Q49 99 38 145 Q27 191 27 244 Q27 296 38.5 342.5 Q50 389 76.5 424.5 Q103 460 145 480.5 Q187 501 248 501 Q309 501 350.5 480.5 Q392 460 417.5 425 Q443 390 454 343.5 Q465 297 465 245 Z M322 244 Q322 275 319.5 303.5 Q317 332 309 353.5 Q301 375 286.5 388 Q272 401 248 401 Q222 401 206.5 388 Q191 375 182.5 353 Q174 331 171.5 303 Q169 275 169 244 Q169 209 172 180.5 Q175 152 183 132 Q191 112 206.5 101.5 Q222 91 247 91 Q271 91 285.5 103.5 Q300 116 308 137 Q316 158 319 186 Q322 214 322 244 Z M251 538 L193 575 L304 757 L392 696 L251 538 Z " />
<glyph glyph-name="ocircumflex" unicode="&#xf4;" horiz-adv-x="492" d="M465 245 Q465 194 453.5 148 Q442 102 416 67 Q390 32 348 11.5 Q306 -9 244 -9 Q183 -9 141.5 11 Q100 31 74.5 65 Q49 99 38 145 Q27 191 27 244 Q27 296 38.5 342.5 Q50 389 76.5 424.5 Q103 460 145 480.5 Q187 501 248 501 Q309 501 350.5 480.5 Q392 460 417.5 425 Q443 390 454 343.5 Q465 297 465 245 Z M322 244 Q322 275 319.5 303.5 Q317 332 309 353.5 Q301 375 286.5 388 Q272 401 248 401 Q222 401 206.5 388 Q191 375 182.5 353 Q174 331 171.5 303 Q169 275 169 244 Q169 209 172 180.5 Q175 152 183 132 Q191 112 206.5 101.5 Q222 91 247 91 Q271 91 285.5 103.5 Q300 116 308 137 Q316 158 319 186 Q322 214 322 244 Z M379 529 L244 626 L111 527 L73 567 L204 718 L289 718 L417 568 L379 529 Z " />
<glyph glyph-name="otilde" unicode="&#xf5;" horiz-adv-x="492" d="M465 245 Q465 194 453.5 148 Q442 102 416 67 Q390 32 348 11.5 Q306 -9 244 -9 Q183 -9 141.5 11 Q100 31 74.5 65 Q49 99 38 145 Q27 191 27 244 Q27 296 38.5 342.5 Q50 389 76.5 424.5 Q103 460 145 480.5 Q187 501 248 501 Q309 501 350.5 480.5 Q392 460 417.5 425 Q443 390 454 343.5 Q465 297 465 245 Z M322 244 Q322 275 319.5 303.5 Q317 332 309 353.5 Q301 375 286.5 388 Q272 401 248 401 Q222 401 206.5 388 Q191 375 182.5 353 Q174 331 171.5 303 Q169 275 169 244 Q169 209 172 180.5 Q175 152 183 132 Q191 112 206.5 101.5 Q222 91 247 91 Q271 91 285.5 103.5 Q300 116 308 137 Q316 158 319 186 Q322 214 322 244 Z M324 567 Q303 567 281 572.5 Q259 578 239 584.5 Q219 591 201 596.5 Q183 602 169 602 L123 562 L77 588 Q93 637 117.5 664.5 Q142 692 171 692 Q190 692 210 687 Q230 682 250.5 675.5 Q271 669 290 664 Q309 659 326 659 L370 698 L415 663 Q401 618 377.5 592.5 Q354 567 324 567 Z " />
<glyph glyph-name="odieresis" unicode="&#xf6;" horiz-adv-x="492" d="M465 245 Q465 194 453.5 148 Q442 102 416 67 Q390 32 348 11.5 Q306 -9 244 -9 Q183 -9 141.5 11 Q100 31 74.5 65 Q49 99 38 145 Q27 191 27 244 Q27 296 38.5 342.5 Q50 389 76.5 424.5 Q103 460 145 480.5 Q187 501 248 501 Q309 501 350.5 480.5 Q392 460 417.5 425 Q443 390 454 343.5 Q465 297 465 245 Z M322 244 Q322 275 319.5 303.5 Q317 332 309 353.5 Q301 375 286.5 388 Q272 401 248 401 Q222 401 206.5 388 Q191 375 182.5 353 Q174 331 171.5 303 Q169 275 169 244 Q169 209 172 180.5 Q175 152 183 132 Q191 112 206.5 101.5 Q222 91 247 91 Q271 91 285.5 103.5 Q300 116 308 137 Q316 158 319 186 Q322 214 322 244 Z M220 626 Q220 599 203 580 Q186 561 152 561 Q119 561 103 580 Q87 599 87 626 Q87 654 103.5 673 Q120 692 152 692 Q186 692 203 673 Q220 654 220 626 Z M397 626 Q397 599 380 580 Q363 561 329 561 Q296 561 280 580 Q264 599 264 626 Q264 654 280.5 673 Q297 692 329 692 Q363 692 380 673 Q397 654 397 626 Z " />
<glyph glyph-name="oslash" unicode="&#xf8;" horiz-adv-x="492" d="M248 501 Q296 501 331.5 488 Q367 475 393 452 L432 502 L463 479 L419 423 Q444 388 454.5 342 Q465 296 465 245 Q465 194 453.5 148 Q442 102 416 67 Q390 32 348 11.5 Q306 -9 244 -9 Q201 -9 167.5 1 Q134 11 110 29 L74 -17 L45 6 L83 54 Q52 89 39.5 138 Q27 187 27 244 Q27 296 38.5 342.5 Q50 389 76.5 424.5 Q103 460 145 480.5 Q187 501 248 501 Z M248 401 Q222 401 206.5 388 Q191 375 182.5 353 Q174 331 171.5 303 Q169 275 169 244 Q169 223 170 204.5 Q171 186 173 170 L311 347 Q303 371 288.5 386 Q274 401 248 401 Z M247 91 Q271 91 285.5 103.5 Q300 116 308 137 Q316 158 319 186 Q322 214 322 244 Q322 258 321.5 271 Q321 284 320 296 L186 125 Q203 91 247 91 Z " />
<glyph glyph-name="ugrave" unicode="&#xf9;" horiz-adv-x="497" d="M184 491 L184 173 Q184 137 196 121.5 Q208 106 235 106 Q253 106 272 114.5 Q291 123 310 137 L310 491 L450 491 L450 0 L322 0 L319 41 L315 43 Q275 11 241.5 0.5 Q208 -10 176 -10 Q136 -10 110.5 1.5 Q85 13 70.5 34 Q56 55 50.5 84 Q45 113 45 147 L45 491 L184 491 Z M107 693 L195 757 L305 575 L247 538 L107 693 Z " />
<glyph glyph-name="uacute" unicode="&#xfa;" horiz-adv-x="497" d="M184 491 L184 173 Q184 137 196 121.5 Q208 106 235 106 Q253 106 272 114.5 Q291 123 310 137 L310 491 L450 491 L450 0 L322 0 L319 41 L315 43 Q275 11 241.5 0.5 Q208 -10 176 -10 Q136 -10 110.5 1.5 Q85 13 70.5 34 Q56 55 50.5 84 Q45 113 45 147 L45 491 L184 491 Z M248 538 L190 575 L301 757 L389 696 L248 538 Z " />
<glyph glyph-name="ucircumflex" unicode="&#xfb;" horiz-adv-x="497" d="M184 491 L184 173 Q184 137 196 121.5 Q208 106 235 106 Q253 106 272 114.5 Q291 123 310 137 L310 491 L450 491 L450 0 L322 0 L319 41 L315 43 Q275 11 241.5 0.5 Q208 -10 176 -10 Q136 -10 110.5 1.5 Q85 13 70.5 34 Q56 55 50.5 84 Q45 113 45 147 L45 491 L184 491 Z M385 535 L250 632 L117 533 L79 573 L210 724 L295 724 L423 574 L385 535 Z " />
<glyph glyph-name="udieresis" unicode="&#xfc;" horiz-adv-x="497" d="M184 491 L184 173 Q184 137 196 121.5 Q208 106 235 106 Q253 106 272 114.5 Q291 123 310 137 L310 491 L450 491 L450 0 L322 0 L319 41 L315 43 Q275 11 241.5 0.5 Q208 -10 176 -10 Q136 -10 110.5 1.5 Q85 13 70.5 34 Q56 55 50.5 84 Q45 113 45 147 L45 491 L184 491 Z M224 628 Q224 601 207 582 Q190 563 156 563 Q123 563 107 582 Q91 601 91 628 Q91 656 107.5 675 Q124 694 156 694 Q190 694 207 675 Q224 656 224 628 Z M401 628 Q401 601 384 582 Q367 563 333 563 Q300 563 284 582 Q268 601 268 628 Q268 656 284.5 675 Q301 694 333 694 Q367 694 384 675 Q401 656 401 628 Z " />
<glyph glyph-name="yacute" unicode="&#xfd;" horiz-adv-x="471" d="M147 491 L203 242 Q210 211 215 178 Q220 145 225 105 L230 105 Q233 127 236 145 Q239 163 243 180.5 Q247 198 252 217 Q257 236 263 260 L323 491 L462 491 L303 -79 Q292 -117 277.5 -143.5 Q263 -170 242 -186.5 Q221 -203 194 -210 Q167 -217 133 -217 Q119 -217 92 -213.5 Q65 -210 36 -200 L57 -104 Q79 -109 91.5 -110.5 Q104 -112 118 -112 Q144 -112 158.5 -97 Q173 -82 183 -53 L203 6 L146 6 L12 491 L147 491 Z M244 538 L186 575 L297 757 L385 696 L244 538 Z " />
<glyph glyph-name="thorn" unicode="&#xfe;" horiz-adv-x="495" d="M180 110 Q193 101 210 95 Q227 89 246 89 Q282 89 305 122.5 Q328 156 328 243 Q328 287 322 316 Q316 345 306 362 Q296 379 282 385.5 Q268 392 252 392 Q235 392 214.5 382 Q194 372 180 358 L180 110 Z M303 499 Q349 499 380.5 479.5 Q412 460 431.5 426 Q451 392 459.5 346 Q468 300 468 247 Q468 122 419.5 55.5 Q371 -11 280 -11 Q258 -11 231.5 -5.5 Q205 0 178 16 L178 -210 L41 -210 L41 716 L176 716 L176 551 Q176 522 175 494.5 Q174 467 170 447 L174 445 Q212 479 245 489 Q278 499 303 499 Z " />
<glyph glyph-name="ydieresis" unicode="&#xff;" horiz-adv-x="471" d="M147 491 L203 242 Q210 211 215 178 Q220 145 225 105 L230 105 Q233 127 236 145 Q239 163 243 180.5 Q247 198 252 217 Q257 236 263 260 L323 491 L462 491 L303 -79 Q292 -117 277.5 -143.5 Q263 -170 242 -186.5 Q221 -203 194 -210 Q167 -217 133 -217 Q119 -217 92 -213.5 Q65 -210 36 -200 L57 -104 Q79 -109 91.5 -110.5 Q104 -112 118 -112 Q144 -112 158.5 -97 Q173 -82 183 -53 L203 6 L146 6 L12 491 L147 491 Z M214 626 Q214 599 197 580 Q180 561 146 561 Q113 561 97 580 Q81 599 81 626 Q81 654 97.5 673 Q114 692 146 692 Q180 692 197 673 Q214 654 214 626 Z M391 626 Q391 599 374 580 Q357 561 323 561 Q290 561 274 580 Q258 599 258 626 Q258 654 274.5 673 Q291 692 323 692 Q357 692 374 673 Q391 654 391 626 Z " />
<glyph glyph-name="dotlessi" unicode="&#x131;" horiz-adv-x="241" d="M50 0 L50 491 L190 491 L190 0 L50 0 Z " />
<glyph glyph-name="Lslash" unicode="&#x141;" horiz-adv-x="436" d="M52 0 L52 213 L18 194 L-14 253 L52 290 L52 687 L202 687 L201 376 L299 432 L332 374 L201 299 L201 110 L429 110 L429 0 L52 0 Z " />
<glyph glyph-name="lslash" unicode="&#x142;" horiz-adv-x="260" d="M195 716 L195 395 L241 423 L275 365 L195 317 L195 0 L55 0 L55 233 L19 212 L-14 271 L55 312 L55 716 L195 716 Z " />
<glyph glyph-name="partialdiff" unicode="&#x2202;" horiz-adv-x="491" d="M218 446 Q234 446 263.5 441 Q293 436 318 419 L321 423 Q317 474 306 512 Q295 550 274 575 Q253 600 220 612 Q187 624 139 624 Q131 624 122.5 624 Q114 624 104 623 L104 709 Q132 715 153.5 716 Q175 717 190 717 Q260 717 311.5 688.5 Q363 660 396 610 Q429 560 445 492.5 Q461 425 461 348 Q461 259 444.5 192.5 Q428 126 398.5 81.5 Q369 37 327 14.5 Q285 -8 234 -8 Q190 -8 152.5 6.5 Q115 21 87.5 49.5 Q60 78 44.5 120.5 Q29 163 29 220 Q29 270 43.5 311.5 Q58 353 83 383 Q108 413 142.5 429.5 Q177 446 218 446 Z M242 357 Q221 357 206 346 Q191 335 181 316.5 Q171 298 166.5 273.5 Q162 249 162 222 Q162 148 183.5 116.5 Q205 85 236 85 Q260 85 277.5 104.5 Q295 124 306.5 155.5 Q318 187 323.5 226.5 Q329 266 329 307 Q309 333 286.5 345 Q264 357 242 357 Z " />
<glyph glyph-name="infinity" unicode="&#x221e;" horiz-adv-x="686" d="M190 431 Q233 431 272.5 405.5 Q312 380 344 346 Q375 382 413 406.5 Q451 431 503 431 Q537 431 565 419 Q593 407 613 386 Q633 365 644.5 335.5 Q656 306 656 271 Q656 236 644 206 Q632 176 611 153.5 Q590 131 560.5 118.5 Q531 106 496 106 Q456 106 419 127.5 Q382 149 344 191 Q312 156 275 131 Q238 106 186 106 Q153 106 125 118 Q97 130 76.5 152 Q56 174 44 204 Q32 234 32 269 Q32 302 43.5 331.5 Q55 361 76 383 Q97 405 126 418 Q155 431 190 431 Z M189 344 Q166 344 151.5 321 Q137 298 137 269 Q137 234 152.5 213.5 Q168 193 191 193 Q203 193 216 199 Q229 205 242 215.5 Q255 226 267.5 239 Q280 252 291 266 Q268 297 241 320.5 Q214 344 189 344 Z M498 344 Q488 344 475 337.5 Q462 331 448.5 320.5 Q435 310 421.5 296 Q408 282 397 268 Q424 232 449 212.5 Q474 193 496 193 Q519 193 534.5 216.5 Q550 240 550 271 Q550 304 534 324 Q518 344 498 344 Z " />
<glyph glyph-name="ordfeminine" unicode="&#xaa;" horiz-adv-x="351" d="M201 292 Q175 268 152.5 263 Q130 258 117 258 Q86 258 66.5 268 Q47 278 35.5 292.5 Q24 307 20 324 Q16 341 16 356 Q16 391 32.5 410.5 Q49 430 74.5 440 Q100 450 132 452.5 Q164 455 196 457 L196 471 Q196 498 187 509.5 Q178 521 152 521 Q133 521 108.5 516.5 Q84 512 59 503 L42 569 Q72 583 109 590.5 Q146 598 178 598 Q235 598 267 572.5 Q299 547 299 482 L299 340 L335 340 L339 278 Q322 269 297 264.5 Q272 260 256 260 Q238 260 224 267.5 Q210 275 205 291 L201 292 Z M155 327 Q164 327 175 332.5 Q186 338 197 347 L197 409 Q164 405 144 397 Q124 389 124 366 Q124 327 155 327 Z " />
<glyph glyph-name="twosuperior" unicode="&#xb2;" horiz-adv-x="346" d="M162 433 L315 433 L315 354 L21 354 L21 423 Q57 448 88.5 476.5 Q120 505 143.5 533 Q167 561 180 587 Q193 613 193 634 Q193 659 177 668.5 Q161 678 138 678 Q117 678 91.5 670.5 Q66 663 47 652 L17 718 Q56 746 93.5 755.5 Q131 765 160 765 Q226 765 263.5 733.5 Q301 702 301 646 Q301 616 289 587 Q277 558 257 531.5 Q237 505 211.5 481.5 Q186 458 160 439 L162 433 Z " />
<glyph glyph-name="threesuperior" unicode="&#xb3;" horiz-adv-x="346" d="M290 758 L302 700 Q279 677 253.5 653 Q228 629 205 605 L206 603 Q251 595 280 567 Q309 539 309 488 Q309 457 296.5 431.5 Q284 406 263 388 Q242 370 214 360.5 Q186 351 154 351 Q130 351 93.5 355 Q57 359 20 378 L42 451 Q76 438 97 435.5 Q118 433 134 433 Q166 433 184 449 Q202 465 202 490 Q202 518 182.5 530.5 Q163 543 138 543 Q119 543 103 540 L86 588 L176 679 L175 683 L41 683 L41 758 L290 758 Z " />
<glyph glyph-name="onesuperior" unicode="&#xb9;" horiz-adv-x="299" d="M111 667 L33 658 L23 723 L126 759 L217 759 L217 355 L111 355 L111 667 Z " />
<glyph glyph-name="ordmasculine" unicode="&#xba;" horiz-adv-x="361" d="M338 430 Q338 396 329.5 365.5 Q321 335 301.5 311.5 Q282 288 251.5 274.5 Q221 261 178 261 Q136 261 107 274 Q78 287 59 310 Q40 333 31.5 363.5 Q23 394 23 429 Q23 464 32 495 Q41 526 60.5 549 Q80 572 110 585.5 Q140 599 182 599 Q224 599 253.5 585.5 Q283 572 302 549 Q321 526 329.5 495 Q338 464 338 430 Z M231 429 Q231 445 229 461.5 Q227 478 222 492 Q217 506 207 515 Q197 524 182 524 Q166 524 156 515 Q146 506 140 492.5 Q134 479 132 462 Q130 445 130 429 Q130 411 132 394 Q134 377 139.5 364.5 Q145 352 155 344.5 Q165 337 182 337 Q197 337 207 345 Q217 353 222 366 Q227 379 229 395.5 Q231 412 231 429 Z " />
<glyph glyph-name="commaaccent" unicode="&#xf6c3;" horiz-adv-x="632" d="M296 -176 Q271 -173 259.5 -158 Q248 -143 248 -120 Q248 -94 267 -75 Q286 -56 319 -56 Q358 -56 375 -80.5 Q392 -105 392 -137 Q392 -161 383 -184 Q374 -207 359 -227.5 Q344 -248 324.5 -265 Q305 -282 284 -294 L250 -252 Q272 -233 283 -216 Q294 -199 296 -176 Z " />
<glyph glyph-name="Hungarumlaut" unicode="&#xf6cf;" horiz-adv-x="664" d="M374 778 L504 953 L574 891 L422 736 L374 778 Z M224 778 L355 953 L424 891 L272 736 L224 778 Z " />
<glyph glyph-name="Macron" unicode="&#xf6d0;" horiz-adv-x="664" d="M493 836 L493 748 L187 748 L187 836 L493 836 Z " />
<glyph glyph-name="cyrBreve" unicode="&#xf6d1;" horiz-adv-x="664" d="M333 727 Q303 727 278 739 Q253 751 232.5 769.5 Q212 788 196.5 811 Q181 834 169 857 L219 903 Q248 859 276 838.5 Q304 818 336 818 Q346 818 359.5 820.5 Q373 823 389.5 831.5 Q406 840 426 855.5 Q446 871 470 897 L506 856 Q493 834 476.5 811 Q460 788 438.5 769.5 Q417 751 391 739 Q365 727 333 727 Z " />
<glyph glyph-name="cyrbreve" unicode="&#xf6d4;" horiz-adv-x="499" d="M244 546 Q214 546 189 558 Q164 570 144 589 Q124 608 108 631 Q92 654 81 677 L130 722 Q159 679 187 657.5 Q215 636 247 636 Q257 636 270.5 638.5 Q284 641 301 649.5 Q318 658 338.5 674 Q359 690 383 717 L417 676 Q404 654 387.5 631 Q371 608 350 589 Q329 570 302.5 558 Q276 546 244 546 Z " />
<glyph glyph-name="ffi" unicode="&#xfb03;" horiz-adv-x="801" d="M267 722 Q310 722 341.5 716 Q373 710 396 702 Q418 725 453.5 737 Q489 749 543 749 Q569 749 594 746 Q619 743 640.5 739.5 Q662 736 679 731.5 Q696 727 706 724 Q701 699 696.5 674.5 Q692 650 687 625 Q670 629 637.5 633.5 Q605 638 576 638 Q537 638 514 619.5 Q491 601 491 551 L491 491 L754 491 L754 0 L614 0 L614 398 L491 398 L491 0 L352 0 L352 398 L213 398 L213 0 L74 0 L74 398 L10 398 L10 475 Q27 480 42.5 485 Q58 490 75 495 L75 520 Q75 563 83 600 Q91 637 112.5 664 Q134 691 171.5 706.5 Q209 722 267 722 Z M358 603 Q350 605 333 609 Q316 613 286 613 Q251 613 232 596 Q213 579 213 531 L213 491 L353 491 L353 562 Q353 573 354 583.5 Q355 594 358 603 Z " />
<glyph glyph-name="ffl" unicode="&#xfb04;" horiz-adv-x="808" d="M267 722 Q312 722 345.5 714.5 Q379 707 400 699 Q422 722 455.5 733.5 Q489 745 539 745 Q580 745 612 740.5 Q644 736 661 732 L762 745 L762 0 L621 0 L621 627 Q611 629 595 630.5 Q579 632 569 632 Q536 632 513.5 616 Q491 600 491 555 L491 491 L576 491 L576 398 L491 398 L491 0 L352 0 L352 398 L213 398 L213 0 L74 0 L74 398 L10 398 L10 475 L75 495 L75 519 Q75 562 83 599 Q91 636 112.5 663.5 Q134 691 171.5 706.5 Q209 722 267 722 Z M358 603 Q350 605 330.5 609 Q311 613 286 613 Q243 613 228 591 Q213 569 213 524 L213 491 L353 491 L353 543 Q353 561 353.5 576 Q354 591 358 603 Z " />
<glyph glyph-name="primemod" unicode="&#x2b9;" horiz-adv-x="197" d="M21 401 L153 695 L238 654 L75 375 L21 401 Z " />
<glyph glyph-name="breve" unicode="&#x2d8;" horiz-adv-x="514" d="M254 550 Q222 550 195.5 564 Q169 578 148 599 Q127 620 111.5 643.5 Q96 667 87 685 L140 730 Q149 715 161.5 699.5 Q174 684 189 672 Q204 660 222.5 652.5 Q241 645 263 645 Q295 645 325.5 666 Q356 687 391 725 L432 681 Q417 655 398 631.5 Q379 608 356.5 590 Q334 572 308.5 561 Q283 550 254 550 Z " />
<glyph glyph-name="dotaccent" unicode="&#x2d9;" horiz-adv-x="504" d="M345 651 Q345 617 324.5 594.5 Q304 572 259 572 Q215 572 196 594.5 Q177 617 177 651 Q177 688 196 710 Q215 732 259 732 Q304 732 324.5 710 Q345 688 345 651 Z " />
<glyph glyph-name="ogonek" unicode="&#x2db;" horiz-adv-x="514" d="M375 19 Q364 7 353.5 -9.5 Q343 -26 334.5 -45 Q326 -64 321 -83.5 Q316 -103 316 -120 Q316 -146 330 -157.5 Q344 -169 367 -169 Q384 -169 399.5 -165.5 Q415 -162 427 -157 L439 -206 Q413 -223 385.5 -230.5 Q358 -238 333 -238 Q287 -238 260 -214.5 Q233 -191 233 -148 Q233 -131 238.5 -109.5 Q244 -88 257.5 -63.5 Q271 -39 293.5 -12.5 Q316 14 350 41 L375 19 Z " />
<glyph glyph-name="hungarumlaut" unicode="&#x2dd;" horiz-adv-x="504" d="M241 579 L371 754 L441 693 L289 537 L241 579 Z M93 579 L224 754 L293 693 L141 537 L93 579 Z " />
<glyph glyph-name="tonos" unicode="&#x384;" horiz-adv-x="483" d="M231 538 L174 576 L284 757 L371 695 L231 538 Z " />
<glyph glyph-name="dieresistonos" unicode="&#x385;" horiz-adv-x="456" d="M433 624 Q433 597 415.5 578 Q398 559 365 559 Q333 559 316.5 578 Q300 597 300 624 Q300 653 316.5 671 Q333 689 365 689 Q398 689 415.5 671 Q433 653 433 624 Z M324 718 L203 532 L145 559 L231 763 L324 718 Z M146 624 Q146 597 128.5 578 Q111 559 78 559 Q46 559 29.5 578 Q13 597 13 624 Q13 653 29.5 671 Q46 689 78 689 Q111 689 128.5 671 Q146 653 146 624 Z " />
<glyph glyph-name="afii00208" unicode="&#x2015;" horiz-adv-x="761" d="M35 214 L35 299 L730 299 L730 214 L35 214 Z " />
<glyph glyph-name="Amacron" unicode="&#x100;" horiz-adv-x="559" d="M373 687 L553 0 L404 0 L368 151 L186 151 L148 0 L4 0 L191 687 L373 687 Z M276 553 Q272 530 267 503.5 Q262 477 256 450 Q250 423 244.5 397.5 Q239 372 234 353 L210 256 L346 256 L301 446 Q294 475 290 501 Q286 527 281 553 L276 553 Z M434 836 L434 748 L128 748 L128 836 L434 836 Z " />
<glyph glyph-name="amacron" unicode="&#x101;" horiz-adv-x="475" d="M240 501 Q280 501 311.5 491.5 Q343 482 365 460 Q387 438 399 403 Q411 368 411 317 L411 94 L456 94 L461 14 Q441 3 413.5 -3 Q386 -9 358 -9 Q331 -9 308.5 2.5 Q286 14 282 49 L278 50 Q257 28 236.5 16 Q216 4 198.5 -1.5 Q181 -7 167.5 -8 Q154 -9 145 -9 Q107 -9 82 4.5 Q57 18 43 39 Q29 60 23.5 84.5 Q18 109 18 131 Q18 155 24.5 178.5 Q31 202 45 221.5 Q59 241 81.5 256 Q104 271 137 278 Q165 284 195 286.5 Q225 289 273 293 L273 322 Q273 363 256 379.5 Q239 396 202 396 Q173 396 139.5 388 Q106 380 80 371 L54 460 Q98 480 147 490.5 Q196 501 240 501 Z M272 223 Q247 220 226 217 Q205 214 189.5 207 Q174 200 165 186.5 Q156 173 156 149 Q156 111 170 98.5 Q184 86 201 86 Q220 86 239 97 Q258 108 272 125 L272 223 Z M79 672 L382 672 L382 583 L79 583 L79 672 Z " />
<glyph glyph-name="Abreve" unicode="&#x102;" horiz-adv-x="559" d="M373 687 L553 0 L404 0 L368 151 L186 151 L148 0 L4 0 L191 687 L373 687 Z M276 553 Q272 530 267 503.5 Q262 477 256 450 Q250 423 244.5 397.5 Q239 372 234 353 L210 256 L346 256 L301 446 Q294 475 290 501 Q286 527 281 553 L276 553 Z M276 727 Q246 727 221 739 Q196 751 175.5 769.5 Q155 788 139.5 811 Q124 834 112 857 L162 903 Q191 859 219 838.5 Q247 818 279 818 Q289 818 302.5 820.5 Q316 823 332.5 831.5 Q349 840 369 855.5 Q389 871 413 897 L449 856 Q436 834 419.5 811 Q403 788 381.5 769.5 Q360 751 334 739 Q308 727 276 727 Z " />
<glyph glyph-name="abreve" unicode="&#x103;" horiz-adv-x="475" d="M240 501 Q280 501 311.5 491.5 Q343 482 365 460 Q387 438 399 403 Q411 368 411 317 L411 94 L456 94 L461 14 Q441 3 413.5 -3 Q386 -9 358 -9 Q331 -9 308.5 2.5 Q286 14 282 49 L278 50 Q257 28 236.5 16 Q216 4 198.5 -1.5 Q181 -7 167.5 -8 Q154 -9 145 -9 Q107 -9 82 4.5 Q57 18 43 39 Q29 60 23.5 84.5 Q18 109 18 131 Q18 155 24.5 178.5 Q31 202 45 221.5 Q59 241 81.5 256 Q104 271 137 278 Q165 284 195 286.5 Q225 289 273 293 L273 322 Q273 363 256 379.5 Q239 396 202 396 Q173 396 139.5 388 Q106 380 80 371 L54 460 Q98 480 147 490.5 Q196 501 240 501 Z M272 223 Q247 220 226 217 Q205 214 189.5 207 Q174 200 165 186.5 Q156 173 156 149 Q156 111 170 98.5 Q184 86 201 86 Q220 86 239 97 Q258 108 272 125 L272 223 Z M235 550 Q203 550 176.5 564 Q150 578 129 599 Q108 620 92.5 643.5 Q77 667 68 685 L121 730 Q130 715 142.5 699.5 Q155 684 170 672 Q185 660 203.5 652.5 Q222 645 244 645 Q276 645 306.5 666 Q337 687 372 725 L413 681 Q398 655 379 631.5 Q360 608 337.5 590 Q315 572 289.5 561 Q264 550 235 550 Z " />
<glyph glyph-name="Aogonek" unicode="&#x104;" horiz-adv-x="559" d="M373 687 L553 0 L447 0 Q431 -25 419.5 -56.5 Q408 -88 408 -114 Q408 -140 422 -151.5 Q436 -163 459 -163 Q476 -163 491.5 -159.5 Q507 -156 519 -151 L531 -200 Q505 -217 477.5 -224.5 Q450 -232 425 -232 Q379 -232 352 -208.5 Q325 -185 325 -142 Q325 -113 341 -74 Q357 -35 401 10 L368 151 L186 151 L148 0 L4 0 L191 687 L373 687 Z M276 553 Q272 530 267 503.5 Q262 477 256 450 Q250 423 244.5 397.5 Q239 372 234 353 L210 256 L346 256 L301 446 Q294 475 290 501 Q286 527 281 553 L276 553 Z " />
<glyph glyph-name="aogonek" unicode="&#x105;" horiz-adv-x="475" d="M240 501 Q280 501 311.5 491.5 Q343 482 365 460 Q387 438 399 403 Q411 368 411 317 L411 94 L456 94 L461 14 Q443 4 419 -1.5 Q395 -7 369 -9 Q357 -32 349 -57 Q341 -82 341 -104 Q341 -130 355 -141.5 Q369 -153 392 -153 Q409 -153 424.5 -149.5 Q440 -146 452 -141 L464 -190 Q438 -207 410.5 -214.5 Q383 -222 358 -222 Q312 -222 285 -198.5 Q258 -175 258 -132 Q258 -106 270.5 -72.5 Q283 -39 315 -1 Q302 5 293 17 Q284 29 282 49 L278 50 Q257 28 236.5 16 Q216 4 198.5 -1.5 Q181 -7 167.5 -8 Q154 -9 145 -9 Q107 -9 82 4.5 Q57 18 43 39 Q29 60 23.5 84.5 Q18 109 18 131 Q18 155 24.5 178.5 Q31 202 45 221.5 Q59 241 81.5 256 Q104 271 137 278 Q165 284 195 286.5 Q225 289 273 293 L273 322 Q273 363 256 379.5 Q239 396 202 396 Q173 396 139.5 388 Q106 380 80 371 L54 460 Q98 480 147 490.5 Q196 501 240 501 Z M272 223 Q247 220 226 217 Q205 214 189.5 207 Q174 200 165 186.5 Q156 173 156 149 Q156 111 170 98.5 Q184 86 201 86 Q220 86 239 97 Q258 108 272 125 L272 223 Z " />
<glyph glyph-name="Cacute" unicode="&#x106;" horiz-adv-x="487" d="M317 700 Q399 700 466 674 L439 571 Q412 579 388 582 Q364 585 341 585 Q258 585 221 523 Q184 461 184 345 Q184 288 189.5 244 Q195 200 211.5 169.5 Q228 139 256.5 123.5 Q285 108 332 108 Q352 108 388 113.5 Q424 119 455 129 L479 25 Q461 16 439 9.5 Q417 3 394 -1.5 Q371 -6 348 -8 Q325 -10 304 -10 Q226 -10 172.5 13.5 Q119 37 87 81 Q55 125 41 187.5 Q27 250 27 328 Q27 391 39.5 457 Q52 523 84 577 Q116 631 172.5 665.5 Q229 700 317 700 Z M260 735 L223 790 L390 921 L447 834 L260 735 Z " />
<glyph glyph-name="cacute" unicode="&#x107;" horiz-adv-x="390" d="M239 502 Q265 502 297.5 497.5 Q330 493 365 479 L344 381 Q324 388 307 390.5 Q290 393 273 393 Q243 393 222.5 381.5 Q202 370 189.5 349.5 Q177 329 172 302 Q167 275 167 244 Q167 215 170.5 189 Q174 163 184 143 Q194 123 211.5 111 Q229 99 258 99 Q284 99 305 104.5 Q326 110 355 121 L382 28 Q318 -9 232 -9 Q169 -9 128.5 11 Q88 31 65 65 Q42 99 33.5 144 Q25 189 25 239 Q25 283 34.5 329.5 Q44 376 68 414.5 Q92 453 133.5 477.5 Q175 502 239 502 Z M212 538 L154 575 L265 757 L353 696 L212 538 Z " />
<glyph glyph-name="Ccircumflex" unicode="&#x108;" horiz-adv-x="487" d="M317 700 Q399 700 466 674 L439 571 Q412 579 388 582 Q364 585 341 585 Q258 585 221 523 Q184 461 184 345 Q184 288 189.5 244 Q195 200 211.5 169.5 Q228 139 256.5 123.5 Q285 108 332 108 Q352 108 388 113.5 Q424 119 455 129 L479 25 Q461 16 439 9.5 Q417 3 394 -1.5 Q371 -6 348 -8 Q325 -10 304 -10 Q226 -10 172.5 13.5 Q119 37 87 81 Q55 125 41 187.5 Q27 250 27 328 Q27 391 39.5 457 Q52 523 84 577 Q116 631 172.5 665.5 Q229 700 317 700 Z M430 739 L294 823 L160 737 L123 778 L254 916 L339 916 L469 779 L430 739 Z " />
<glyph glyph-name="ccircumflex" unicode="&#x109;" horiz-adv-x="390" d="M239 502 Q265 502 297.5 497.5 Q330 493 365 479 L344 381 Q324 388 307 390.5 Q290 393 273 393 Q243 393 222.5 381.5 Q202 370 189.5 349.5 Q177 329 172 302 Q167 275 167 244 Q167 215 170.5 189 Q174 163 184 143 Q194 123 211.5 111 Q229 99 258 99 Q284 99 305 104.5 Q326 110 355 121 L382 28 Q318 -9 232 -9 Q169 -9 128.5 11 Q88 31 65 65 Q42 99 33.5 144 Q25 189 25 239 Q25 283 34.5 329.5 Q44 376 68 414.5 Q92 453 133.5 477.5 Q175 502 239 502 Z M363 535 L228 632 L95 533 L57 573 L188 724 L273 724 L401 574 L363 535 Z " />
<glyph glyph-name="Cdotaccent" unicode="&#x10a;" horiz-adv-x="487" d="M317 700 Q399 700 466 674 L439 571 Q412 579 388 582 Q364 585 341 585 Q258 585 221 523 Q184 461 184 345 Q184 288 189.5 244 Q195 200 211.5 169.5 Q228 139 256.5 123.5 Q285 108 332 108 Q352 108 388 113.5 Q424 119 455 129 L479 25 Q461 16 439 9.5 Q417 3 394 -1.5 Q371 -6 348 -8 Q325 -10 304 -10 Q226 -10 172.5 13.5 Q119 37 87 81 Q55 125 41 187.5 Q27 250 27 328 Q27 391 39.5 457 Q52 523 84 577 Q116 631 172.5 665.5 Q229 700 317 700 Z M366 830 Q366 796 345.5 773.5 Q325 751 280 751 Q236 751 217 773.5 Q198 796 198 830 Q198 867 217 889 Q236 911 280 911 Q325 911 345.5 889 Q366 867 366 830 Z " />
<glyph glyph-name="cdotaccent" unicode="&#x10b;" horiz-adv-x="390" d="M239 502 Q265 502 297.5 497.5 Q330 493 365 479 L344 381 Q324 388 307 390.5 Q290 393 273 393 Q243 393 222.5 381.5 Q202 370 189.5 349.5 Q177 329 172 302 Q167 275 167 244 Q167 215 170.5 189 Q174 163 184 143 Q194 123 211.5 111 Q229 99 258 99 Q284 99 305 104.5 Q326 110 355 121 L382 28 Q318 -9 232 -9 Q169 -9 128.5 11 Q88 31 65 65 Q42 99 33.5 144 Q25 189 25 239 Q25 283 34.5 329.5 Q44 376 68 414.5 Q92 453 133.5 477.5 Q175 502 239 502 Z M301 648 Q301 614 280.5 591.5 Q260 569 215 569 Q171 569 152 591.5 Q133 614 133 648 Q133 685 152 707 Q171 729 215 729 Q260 729 280.5 707 Q301 685 301 648 Z " />
<glyph glyph-name="Ccaron" unicode="&#x10c;" horiz-adv-x="487" d="M317 700 Q399 700 466 674 L439 571 Q412 579 388 582 Q364 585 341 585 Q258 585 221 523 Q184 461 184 345 Q184 288 189.5 244 Q195 200 211.5 169.5 Q228 139 256.5 123.5 Q285 108 332 108 Q352 108 388 113.5 Q424 119 455 129 L479 25 Q461 16 439 9.5 Q417 3 394 -1.5 Q371 -6 348 -8 Q325 -10 304 -10 Q226 -10 172.5 13.5 Q119 37 87 81 Q55 125 41 187.5 Q27 250 27 328 Q27 391 39.5 457 Q52 523 84 577 Q116 631 172.5 665.5 Q229 700 317 700 Z M451 872 L321 734 L236 734 L105 873 L142 913 L276 827 L412 911 L451 872 Z " />
<glyph glyph-name="ccaron" unicode="&#x10d;" horiz-adv-x="390" d="M239 502 Q265 502 297.5 497.5 Q330 493 365 479 L344 381 Q324 388 307 390.5 Q290 393 273 393 Q243 393 222.5 381.5 Q202 370 189.5 349.5 Q177 329 172 302 Q167 275 167 244 Q167 215 170.5 189 Q174 163 184 143 Q194 123 211.5 111 Q229 99 258 99 Q284 99 305 104.5 Q326 110 355 121 L382 28 Q318 -9 232 -9 Q169 -9 128.5 11 Q88 31 65 65 Q42 99 33.5 144 Q25 189 25 239 Q25 283 34.5 329.5 Q44 376 68 414.5 Q92 453 133.5 477.5 Q175 502 239 502 Z M391 695 L263 545 L178 545 L47 696 L85 736 L218 638 L353 734 L391 695 Z " />
<glyph glyph-name="Dcaron" unicode="&#x10e;" horiz-adv-x="572" d="M51 0 L51 688 L259 688 Q341 688 396 660.5 Q451 633 484 586 Q517 539 531 477 Q545 415 545 346 Q545 277 530.5 214 Q516 151 482 103.5 Q448 56 392.5 28 Q337 0 256 0 L51 0 Z M199 585 L199 105 L250 105 Q274 105 299 114.5 Q324 124 344.5 149.5 Q365 175 378.5 221 Q392 267 392 341 Q392 416 379.5 463.5 Q367 511 347 538 Q327 565 301.5 575 Q276 585 250 585 L199 585 Z M428 875 L298 737 L213 737 L82 876 L119 916 L253 830 L389 914 L428 875 Z " />
<glyph glyph-name="dcaron" unicode="&#x10f;" horiz-adv-x="651" d="M212 503 Q234 503 260.5 497.5 Q287 492 314 475 L314 715 L451 715 L451 0 L325 0 L320 44 Q319 44 318 45 L316 45 Q315 45 315 46 Q284 14 250 3.5 Q216 -7 189 -7 Q142 -7 111 11.5 Q80 30 61 62.5 Q42 95 34.5 139 Q27 183 27 234 Q27 296 38.5 345.5 Q50 395 73.5 430 Q97 465 131.5 484 Q166 503 212 503 Z M312 378 Q300 387 282.5 393 Q265 399 247 399 Q229 399 213.5 391.5 Q198 384 187.5 365 Q177 346 171 315 Q165 284 165 238 Q165 194 170.5 166 Q176 138 186 122 Q196 106 210 100.5 Q224 95 240 95 Q257 95 277.5 105.5 Q298 116 312 130 L312 378 Z M547 616 Q522 619 510.5 634 Q499 649 499 672 Q499 698 518 717 Q537 736 570 736 Q609 736 626 711.5 Q643 687 643 655 Q643 631 634 608 Q625 585 610 564.5 Q595 544 575.5 527 Q556 510 535 498 L501 540 Q523 559 534 576 Q545 593 547 616 Z " />
<glyph glyph-name="Dcroat" unicode="&#x110;" horiz-adv-x="572" d="M51 0 L51 320 L6 320 L6 389 L51 389 L51 688 L259 688 Q341 688 396 660.5 Q451 633 484 586 Q517 539 531 477 Q545 415 545 346 Q545 277 530.5 214 Q516 151 482 103.5 Q448 56 392.5 28 Q337 0 256 0 L51 0 Z M199 585 L199 389 L301 389 L301 320 L199 320 L199 105 L250 105 Q274 105 299 114.5 Q324 124 344.5 149.5 Q365 175 378.5 221 Q392 267 392 341 Q392 416 379.5 463.5 Q367 511 347 538 Q327 565 301.5 575 Q276 585 250 585 L199 585 Z " />
<glyph glyph-name="dcroat" unicode="&#x111;" horiz-adv-x="492" d="M211 490 Q233 490 260.5 484 Q288 478 314 462 L314 545 L213 545 L213 608 L314 608 L314 716 L451 716 L451 608 L494 608 L494 545 L451 545 L451 0 L325 0 L320 44 L315 46 Q306 37 294.5 28 Q283 19 268 11 Q253 3 233 -2 Q213 -7 187 -7 Q144 -7 113.5 10 Q83 27 64 58 Q45 89 36 132 Q27 175 27 226 Q27 357 76.5 423.5 Q126 490 211 490 Z M250 386 Q232 386 216.5 378.5 Q201 371 189.5 353 Q178 335 171.5 305 Q165 275 165 230 Q165 153 184.5 124 Q204 95 237 95 Q263 95 282.5 107.5 Q302 120 312 130 L312 365 Q301 373 284.5 379.5 Q268 386 250 386 Z " />
<glyph glyph-name="Emacron" unicode="&#x112;" horiz-adv-x="472" d="M51 0 L51 687 L442 687 L442 582 L199 582 L199 413 L409 413 L409 308 L199 308 L199 106 L456 106 L456 0 L51 0 Z M406 836 L406 748 L100 748 L100 836 L406 836 Z " />
<glyph glyph-name="emacron" unicode="&#x113;" horiz-adv-x="462" d="M243 503 Q310 503 349 479 Q388 455 407.5 418.5 Q427 382 432 340 Q437 298 437 262 L437 217 L168 217 Q169 161 192 129.5 Q215 98 274 98 Q308 98 337.5 106 Q367 114 396 126 L427 39 Q384 13 338.5 2 Q293 -9 248 -9 Q183 -9 140 11.5 Q97 32 72 67 Q47 102 37 148 Q27 194 27 244 Q27 285 36.5 330.5 Q46 376 70.5 414.5 Q95 453 137 478 Q179 503 243 503 Z M242 404 Q221 404 207.5 395 Q194 386 186 371 Q178 356 174 337.5 Q170 319 169 300 L307 300 Q306 345 293.5 374.5 Q281 404 242 404 Z M96 672 L399 672 L399 583 L96 583 L96 672 Z " />
<glyph glyph-name="Ebreve" unicode="&#x114;" horiz-adv-x="472" d="M51 0 L51 687 L442 687 L442 582 L199 582 L199 413 L409 413 L409 308 L199 308 L199 106 L456 106 L456 0 L51 0 Z M252 727 Q222 727 197 739 Q172 751 151.5 769.5 Q131 788 115.5 811 Q100 834 88 857 L138 903 Q167 859 195 838.5 Q223 818 255 818 Q265 818 278.5 820.5 Q292 823 308.5 831.5 Q325 840 345 855.5 Q365 871 389 897 L425 856 Q412 834 395.5 811 Q379 788 357.5 769.5 Q336 751 310 739 Q284 727 252 727 Z " />
<glyph glyph-name="ebreve" unicode="&#x115;" horiz-adv-x="462" d="M243 503 Q310 503 349 479 Q388 455 407.5 418.5 Q427 382 432 340 Q437 298 437 262 L437 217 L168 217 Q169 161 192 129.5 Q215 98 274 98 Q308 98 337.5 106 Q367 114 396 126 L427 39 Q384 13 338.5 2 Q293 -9 248 -9 Q183 -9 140 11.5 Q97 32 72 67 Q47 102 37 148 Q27 194 27 244 Q27 285 36.5 330.5 Q46 376 70.5 414.5 Q95 453 137 478 Q179 503 243 503 Z M242 404 Q221 404 207.5 395 Q194 386 186 371 Q178 356 174 337.5 Q170 319 169 300 L307 300 Q306 345 293.5 374.5 Q281 404 242 404 Z M237 550 Q205 550 178.5 564 Q152 578 131 599 Q110 620 94.5 643.5 Q79 667 70 685 L123 730 Q132 715 144.5 699.5 Q157 684 172 672 Q187 660 205.5 652.5 Q224 645 246 645 Q278 645 308.5 666 Q339 687 374 725 L415 681 Q400 655 381 631.5 Q362 608 339.5 590 Q317 572 291.5 561 Q266 550 237 550 Z " />
<glyph glyph-name="Edotaccent" unicode="&#x116;" horiz-adv-x="472" d="M51 0 L51 687 L442 687 L442 582 L199 582 L199 413 L409 413 L409 308 L199 308 L199 106 L456 106 L456 0 L51 0 Z M345 822 Q345 788 324.5 765.5 Q304 743 259 743 Q215 743 196 765.5 Q177 788 177 822 Q177 859 196 881 Q215 903 259 903 Q304 903 324.5 881 Q345 859 345 822 Z " />
<glyph glyph-name="edotaccent" unicode="&#x117;" horiz-adv-x="462" d="M243 503 Q310 503 349 479 Q388 455 407.5 418.5 Q427 382 432 340 Q437 298 437 262 L437 217 L168 217 Q169 161 192 129.5 Q215 98 274 98 Q308 98 337.5 106 Q367 114 396 126 L427 39 Q384 13 338.5 2 Q293 -9 248 -9 Q183 -9 140 11.5 Q97 32 72 67 Q47 102 37 148 Q27 194 27 244 Q27 285 36.5 330.5 Q46 376 70.5 414.5 Q95 453 137 478 Q179 503 243 503 Z M242 404 Q221 404 207.5 395 Q194 386 186 371 Q178 356 174 337.5 Q170 319 169 300 L307 300 Q306 345 293.5 374.5 Q281 404 242 404 Z M325 645 Q325 611 304.5 588.5 Q284 566 239 566 Q195 566 176 588.5 Q157 611 157 645 Q157 682 176 704 Q195 726 239 726 Q284 726 304.5 704 Q325 682 325 645 Z " />
<glyph glyph-name="Eogonek" unicode="&#x118;" horiz-adv-x="472" d="M422 0 Q407 -25 396 -55 Q385 -85 385 -111 Q385 -137 399 -148.5 Q413 -160 436 -160 Q453 -160 468.5 -156.5 Q484 -153 496 -148 L508 -197 Q482 -214 454.5 -221.5 Q427 -229 402 -229 Q356 -229 329 -205.5 Q302 -182 302 -139 Q302 -112 316 -76.5 Q330 -41 366 0 L51 0 L51 687 L442 687 L442 582 L199 582 L199 413 L409 413 L409 308 L199 308 L199 106 L456 106 L456 0 L422 0 Z " />
<glyph glyph-name="eogonek" unicode="&#x119;" horiz-adv-x="462" d="M243 503 Q310 503 349 479 Q388 455 407.5 418.5 Q427 382 432 340 Q437 298 437 262 L437 217 L168 217 Q169 161 192 129.5 Q215 98 274 98 Q308 98 337.5 106 Q367 114 396 126 L427 39 Q411 29 395.5 22 Q380 15 363 9 Q351 -13 343.5 -38 Q336 -63 336 -84 Q336 -110 350 -121.5 Q364 -133 387 -133 Q404 -133 419.5 -129.5 Q435 -126 447 -121 L459 -170 Q433 -187 405.5 -194.5 Q378 -202 353 -202 Q307 -202 280 -178.5 Q253 -155 253 -112 Q253 -91 261.5 -64 Q270 -37 290 -7 Q279 -8 269 -8.5 Q259 -9 248 -9 Q183 -9 140 11.5 Q97 32 72 67 Q47 102 37 148 Q27 194 27 244 Q27 285 36.5 330.5 Q46 376 70.5 414.5 Q95 453 137 478 Q179 503 243 503 Z M242 404 Q221 404 207.5 395 Q194 386 186 371 Q178 356 174 337.5 Q170 319 169 300 L307 300 Q306 345 293.5 374.5 Q281 404 242 404 Z " />
<glyph glyph-name="Ecaron" unicode="&#x11a;" horiz-adv-x="472" d="M51 0 L51 687 L442 687 L442 582 L199 582 L199 413 L409 413 L409 308 L199 308 L199 106 L456 106 L456 0 L51 0 Z M424 870 L294 732 L209 732 L78 871 L115 911 L249 825 L385 909 L424 870 Z " />
<glyph glyph-name="ecaron" unicode="&#x11b;" horiz-adv-x="462" d="M243 503 Q310 503 349 479 Q388 455 407.5 418.5 Q427 382 432 340 Q437 298 437 262 L437 217 L168 217 Q169 161 192 129.5 Q215 98 274 98 Q308 98 337.5 106 Q367 114 396 126 L427 39 Q384 13 338.5 2 Q293 -9 248 -9 Q183 -9 140 11.5 Q97 32 72 67 Q47 102 37 148 Q27 194 27 244 Q27 285 36.5 330.5 Q46 376 70.5 414.5 Q95 453 137 478 Q179 503 243 503 Z M242 404 Q221 404 207.5 395 Q194 386 186 371 Q178 356 174 337.5 Q170 319 169 300 L307 300 Q306 345 293.5 374.5 Q281 404 242 404 Z M409 691 L281 541 L196 541 L65 692 L103 732 L236 634 L371 730 L409 691 Z " />
<glyph glyph-name="Gcircumflex" unicode="&#x11c;" horiz-adv-x="544" d="M327 700 Q372 700 416 692 Q460 684 497 670 L470 567 Q443 575 411 581 Q379 587 348 587 Q263 587 223.5 526 Q184 465 184 334 Q184 287 188.5 245 Q193 203 207 171.5 Q221 140 247 121 Q273 102 316 102 Q330 102 347.5 104 Q365 106 379 111 L379 363 L514 363 L514 28 Q463 8 409.5 -1 Q356 -10 309 -10 Q220 -10 165 18 Q110 46 79 94 Q48 142 37.5 206 Q27 270 27 342 Q27 403 40.5 467 Q54 531 88.5 582.5 Q123 634 180.5 667 Q238 700 327 700 Z M438 739 L302 823 L168 737 L131 778 L262 916 L347 916 L477 779 L438 739 Z " />
<glyph glyph-name="gcircumflex" unicode="&#x11d;" horiz-adv-x="487" d="M97 193 Q73 209 56.5 240.5 Q40 272 40 320 Q40 367 56 401.5 Q72 436 99 458.5 Q126 481 161.5 491.5 Q197 502 235 502 Q259 502 284 499.5 Q309 497 327 490 L477 490 L477 420 L416 420 L413 416 Q427 398 433 373 Q439 348 439 325 Q439 284 423.5 252 Q408 220 381.5 198.5 Q355 177 319 165.5 Q283 154 242 154 L203 154 Q179 154 164.5 146.5 Q150 139 150 121 Q150 96 184 96 L293 96 Q333 96 365.5 88 Q398 80 421.5 63 Q445 46 458 19 Q471 -8 471 -46 Q471 -78 457.5 -109 Q444 -140 414.5 -165 Q385 -190 338 -205 Q291 -220 224 -220 Q161 -220 121 -207 Q81 -194 59 -173 Q37 -152 29 -126.5 Q21 -101 21 -76 Q21 -40 36 -13 Q51 14 74 30 Q52 38 40 56 Q28 74 28 100 Q28 135 48 156.5 Q68 178 95 189 L97 193 Z M188 10 Q171 1 161 -18.5 Q151 -38 151 -55 Q151 -67 154 -79 Q157 -91 166 -100.5 Q175 -110 192 -116 Q209 -122 238 -122 Q283 -122 307 -102 Q331 -82 331 -51 Q331 -40 328 -29 Q325 -18 317.5 -9.5 Q310 -1 296.5 4.5 Q283 10 263 10 L188 10 Z M303 326 Q303 356 288 381 Q273 406 238 406 Q204 406 188 382.5 Q172 359 172 325 Q172 289 188 268.5 Q204 248 233 248 Q264 248 283.5 268 Q303 288 303 326 Z M370 535 L235 632 L102 533 L64 573 L195 724 L280 724 L408 574 L370 535 Z " />
<glyph glyph-name="Gbreve" unicode="&#x11e;" horiz-adv-x="544" d="M327 700 Q372 700 416 692 Q460 684 497 670 L470 567 Q443 575 411 581 Q379 587 348 587 Q263 587 223.5 526 Q184 465 184 334 Q184 287 188.5 245 Q193 203 207 171.5 Q221 140 247 121 Q273 102 316 102 Q330 102 347.5 104 Q365 106 379 111 L379 363 L514 363 L514 28 Q463 8 409.5 -1 Q356 -10 309 -10 Q220 -10 165 18 Q110 46 79 94 Q48 142 37.5 206 Q27 270 27 342 Q27 403 40.5 467 Q54 531 88.5 582.5 Q123 634 180.5 667 Q238 700 327 700 Z M296 740 Q266 740 241 752 Q216 764 195.5 782.5 Q175 801 159.5 824 Q144 847 132 870 L182 916 Q211 872 239 851.5 Q267 831 299 831 Q309 831 322.5 833.5 Q336 836 352.5 844.5 Q369 853 389 868.5 Q409 884 433 910 L469 869 Q456 847 439.5 824 Q423 801 401.5 782.5 Q380 764 354 752 Q328 740 296 740 Z " />
<glyph glyph-name="gbreve" unicode="&#x11f;" horiz-adv-x="487" d="M97 193 Q73 209 56.5 240.5 Q40 272 40 320 Q40 367 56 401.5 Q72 436 99 458.5 Q126 481 161.5 491.5 Q197 502 235 502 Q259 502 284 499.5 Q309 497 327 490 L477 490 L477 420 L416 420 L413 416 Q427 398 433 373 Q439 348 439 325 Q439 284 423.5 252 Q408 220 381.5 198.5 Q355 177 319 165.5 Q283 154 242 154 L203 154 Q179 154 164.5 146.5 Q150 139 150 121 Q150 96 184 96 L293 96 Q333 96 365.5 88 Q398 80 421.5 63 Q445 46 458 19 Q471 -8 471 -46 Q471 -78 457.5 -109 Q444 -140 414.5 -165 Q385 -190 338 -205 Q291 -220 224 -220 Q161 -220 121 -207 Q81 -194 59 -173 Q37 -152 29 -126.5 Q21 -101 21 -76 Q21 -40 36 -13 Q51 14 74 30 Q52 38 40 56 Q28 74 28 100 Q28 135 48 156.5 Q68 178 95 189 L97 193 Z M188 10 Q171 1 161 -18.5 Q151 -38 151 -55 Q151 -67 154 -79 Q157 -91 166 -100.5 Q175 -110 192 -116 Q209 -122 238 -122 Q283 -122 307 -102 Q331 -82 331 -51 Q331 -40 328 -29 Q325 -18 317.5 -9.5 Q310 -1 296.5 4.5 Q283 10 263 10 L188 10 Z M303 326 Q303 356 288 381 Q273 406 238 406 Q204 406 188 382.5 Q172 359 172 325 Q172 289 188 268.5 Q204 248 233 248 Q264 248 283.5 268 Q303 288 303 326 Z M233 550 Q201 550 174.5 564 Q148 578 127 599 Q106 620 90.5 643.5 Q75 667 66 685 L119 730 Q128 715 140.5 699.5 Q153 684 168 672 Q183 660 201.5 652.5 Q220 645 242 645 Q274 645 304.5 666 Q335 687 370 725 L411 681 Q396 655 377 631.5 Q358 608 335.5 590 Q313 572 287.5 561 Q262 550 233 550 Z " />
<glyph glyph-name="Gdotaccent" unicode="&#x120;" horiz-adv-x="544" d="M327 700 Q372 700 416 692 Q460 684 497 670 L470 567 Q443 575 411 581 Q379 587 348 587 Q263 587 223.5 526 Q184 465 184 334 Q184 287 188.5 245 Q193 203 207 171.5 Q221 140 247 121 Q273 102 316 102 Q330 102 347.5 104 Q365 106 379 111 L379 363 L514 363 L514 28 Q463 8 409.5 -1 Q356 -10 309 -10 Q220 -10 165 18 Q110 46 79 94 Q48 142 37.5 206 Q27 270 27 342 Q27 403 40.5 467 Q54 531 88.5 582.5 Q123 634 180.5 667 Q238 700 327 700 Z M385 831 Q385 797 364.5 774.5 Q344 752 299 752 Q255 752 236 774.5 Q217 797 217 831 Q217 868 236 890 Q255 912 299 912 Q344 912 364.5 890 Q385 868 385 831 Z " />
<glyph glyph-name="gdotaccent" unicode="&#x121;" horiz-adv-x="487" d="M97 193 Q73 209 56.5 240.5 Q40 272 40 320 Q40 367 56 401.5 Q72 436 99 458.5 Q126 481 161.5 491.5 Q197 502 235 502 Q259 502 284 499.5 Q309 497 327 490 L477 490 L477 420 L416 420 L413 416 Q427 398 433 373 Q439 348 439 325 Q439 284 423.5 252 Q408 220 381.5 198.5 Q355 177 319 165.5 Q283 154 242 154 L203 154 Q179 154 164.5 146.5 Q150 139 150 121 Q150 96 184 96 L293 96 Q333 96 365.5 88 Q398 80 421.5 63 Q445 46 458 19 Q471 -8 471 -46 Q471 -78 457.5 -109 Q444 -140 414.5 -165 Q385 -190 338 -205 Q291 -220 224 -220 Q161 -220 121 -207 Q81 -194 59 -173 Q37 -152 29 -126.5 Q21 -101 21 -76 Q21 -40 36 -13 Q51 14 74 30 Q52 38 40 56 Q28 74 28 100 Q28 135 48 156.5 Q68 178 95 189 L97 193 Z M188 10 Q171 1 161 -18.5 Q151 -38 151 -55 Q151 -67 154 -79 Q157 -91 166 -100.5 Q175 -110 192 -116 Q209 -122 238 -122 Q283 -122 307 -102 Q331 -82 331 -51 Q331 -40 328 -29 Q325 -18 317.5 -9.5 Q310 -1 296.5 4.5 Q283 10 263 10 L188 10 Z M303 326 Q303 356 288 381 Q273 406 238 406 Q204 406 188 382.5 Q172 359 172 325 Q172 289 188 268.5 Q204 248 233 248 Q264 248 283.5 268 Q303 288 303 326 Z M321 650 Q321 616 300.5 593.5 Q280 571 235 571 Q191 571 172 593.5 Q153 616 153 650 Q153 687 172 709 Q191 731 235 731 Q280 731 300.5 709 Q321 687 321 650 Z " />
<glyph glyph-name="Gcommaaccent" unicode="&#x122;" horiz-adv-x="544" d="M327 700 Q372 700 416 692 Q460 684 497 670 L470 567 Q443 575 411 581 Q379 587 348 587 Q263 587 223.5 526 Q184 465 184 334 Q184 287 188.5 245 Q193 203 207 171.5 Q221 140 247 121 Q273 102 316 102 Q330 102 347.5 104 Q365 106 379 111 L379 363 L514 363 L514 28 Q463 8 409.5 -1 Q356 -10 309 -10 Q220 -10 165 18 Q110 46 79 94 Q48 142 37.5 206 Q27 270 27 342 Q27 403 40.5 467 Q54 531 88.5 582.5 Q123 634 180.5 667 Q238 700 327 700 Z M294 -176 Q269 -173 257.5 -158 Q246 -143 246 -120 Q246 -94 265 -75 Q284 -56 317 -56 Q356 -56 373 -80.5 Q390 -105 390 -137 Q390 -161 381 -184 Q372 -207 357 -227.5 Q342 -248 322.5 -265 Q303 -282 282 -294 L248 -252 Q270 -233 281 -216 Q292 -199 294 -176 Z " />
<glyph glyph-name="gcommaaccent" unicode="&#x123;" horiz-adv-x="487" d="M97 193 Q73 209 56.5 240.5 Q40 272 40 320 Q40 367 56 401.5 Q72 436 99 458.5 Q126 481 161.5 491.5 Q197 502 235 502 Q259 502 284 499.5 Q309 497 327 490 L477 490 L477 420 L416 420 L413 416 Q427 398 433 373 Q439 348 439 325 Q439 284 423.5 252 Q408 220 381.5 198.5 Q355 177 319 165.5 Q283 154 242 154 L203 154 Q179 154 164.5 146.5 Q150 139 150 121 Q150 96 184 96 L293 96 Q333 96 365.5 88 Q398 80 421.5 63 Q445 46 458 19 Q471 -8 471 -46 Q471 -78 457.5 -109 Q444 -140 414.5 -165 Q385 -190 338 -205 Q291 -220 224 -220 Q161 -220 121 -207 Q81 -194 59 -173 Q37 -152 29 -126.5 Q21 -101 21 -76 Q21 -40 36 -13 Q51 14 74 30 Q52 38 40 56 Q28 74 28 100 Q28 135 48 156.5 Q68 178 95 189 L97 193 Z M188 10 Q171 1 161 -18.5 Q151 -38 151 -55 Q151 -67 154 -79 Q157 -91 166 -100.5 Q175 -110 192 -116 Q209 -122 238 -122 Q283 -122 307 -102 Q331 -82 331 -51 Q331 -40 328 -29 Q325 -18 317.5 -9.5 Q310 -1 296.5 4.5 Q283 10 263 10 L188 10 Z M303 326 Q303 356 288 381 Q273 406 238 406 Q204 406 188 382.5 Q172 359 172 325 Q172 289 188 268.5 Q204 248 233 248 Q264 248 283.5 268 Q303 288 303 326 Z M268 674 Q293 671 304.5 656 Q316 641 316 618 Q316 592 297 573 Q278 554 245 554 Q206 554 189 578.5 Q172 603 172 635 Q172 659 181 682 Q190 705 205 725.5 Q220 746 239.5 763 Q259 780 280 792 L314 750 Q292 731 281 714 Q270 697 268 674 Z " />
<glyph glyph-name="Hcircumflex" unicode="&#x124;" horiz-adv-x="601" d="M398 0 L398 300 L201 300 Q201 268 201 229 Q201 190 201.5 149.5 Q202 109 202 70 Q202 31 202 0 L52 0 L52 687 L202 687 Q202 659 202 622.5 Q202 586 201.5 547.5 Q201 509 201 472.5 Q201 436 201 408 L398 408 L398 687 L549 687 L549 0 L398 0 Z M436 734 L300 818 L166 732 L129 773 L260 911 L345 911 L475 774 L436 734 Z " />
<glyph glyph-name="hcircumflex" unicode="&#x125;" horiz-adv-x="503" d="M183 715 L183 554 Q183 524 180 494 Q177 464 172 444 L177 441 Q220 474 258.5 488 Q297 502 328 502 Q368 502 393 489.5 Q418 477 432 456 Q446 435 451 407 Q456 379 456 347 L456 0 L317 0 L317 316 Q317 350 307.5 366.5 Q298 383 268 383 Q248 383 226.5 374 Q205 365 186 352 L186 0 L46 0 L46 715 L183 715 Z M249 741 L113 825 L-21 739 L-58 780 L73 918 L158 918 L288 781 L249 741 Z " />
<glyph glyph-name="Hbar" unicode="&#x126;" horiz-adv-x="601" d="M398 0 L398 300 L201 300 Q201 268 201 229 Q201 190 201.5 149.5 Q202 109 202 70 Q202 31 202 0 L52 0 L52 515 L13 515 L13 573 L52 573 L52 687 L202 687 Q202 663 201.5 634 Q201 605 201 573 L398 573 L398 687 L549 687 L549 573 L589 573 L589 515 L549 515 L549 0 L398 0 Z M398 408 L398 515 L201 515 L201 408 L398 408 Z " />
<glyph glyph-name="hbar" unicode="&#x127;" horiz-adv-x="503" d="M176 423 Q202 444 240.5 464.5 Q279 485 328 485 Q368 485 393 473 Q418 461 432 440 Q446 419 451 391 Q456 363 456 330 L456 0 L317 0 L317 304 Q317 335 306.5 350.5 Q296 366 269 366 Q245 366 224.5 357 Q204 348 186 335 L186 0 L46 0 L46 555 L6 555 L6 618 L46 618 L46 716 L183 716 L183 618 L318 618 L318 555 L183 555 Q182 517 179.5 482.5 Q177 448 172 425 L176 423 Z " />
<glyph glyph-name="Itilde" unicode="&#x128;" horiz-adv-x="253" d="M52 0 L52 688 L201 688 L201 0 L52 0 Z M205 752 Q184 752 162 757.5 Q140 763 120 769.5 Q100 776 82 781.5 Q64 787 50 787 L4 747 L-42 773 Q-26 822 -1.5 849.5 Q23 877 52 877 Q71 877 91 872 Q111 867 131.5 860.5 Q152 854 171 849 Q190 844 207 844 L251 883 L296 848 Q282 803 258.5 777.5 Q235 752 205 752 Z " />
<glyph glyph-name="itilde" unicode="&#x129;" horiz-adv-x="241" d="M199 574 Q178 574 156 579.5 Q134 585 114 591.5 Q94 598 76 603.5 Q58 609 44 609 L-2 569 L-48 595 Q-32 644 -7.5 671.5 Q17 699 46 699 Q65 699 85 694 Q105 689 125.5 682.5 Q146 676 165 671 Q184 666 201 666 L245 705 L290 670 Q276 625 252.5 599.5 Q229 574 199 574 Z M50 0 L50 491 L190 491 L190 0 L50 0 Z " />
<glyph glyph-name="Imacron" unicode="&#x12a;" horiz-adv-x="253" d="M52 0 L52 688 L201 688 L201 0 L52 0 Z M281 836 L281 748 L-25 748 L-25 836 L281 836 Z " />
<glyph glyph-name="imacron" unicode="&#x12b;" horiz-adv-x="241" d="M-29 672 L274 672 L274 583 L-29 583 L-29 672 Z M50 0 L50 491 L190 491 L190 0 L50 0 Z " />
<glyph glyph-name="Ibreve" unicode="&#x12c;" horiz-adv-x="253" d="M52 0 L52 688 L201 688 L201 0 L52 0 Z M128 728 Q98 728 73 740 Q48 752 27.5 770.5 Q7 789 -8.5 812 Q-24 835 -36 858 L14 904 Q43 860 71 839.5 Q99 819 131 819 Q141 819 154.5 821.5 Q168 824 184.5 832.5 Q201 841 221 856.5 Q241 872 265 898 L301 857 Q288 835 271.5 812 Q255 789 233.5 770.5 Q212 752 186 740 Q160 728 128 728 Z " />
<glyph glyph-name="ibreve" unicode="&#x12d;" horiz-adv-x="241" d="M119 553 Q87 553 60.5 567 Q34 581 13 602 Q-8 623 -23.5 646.5 Q-39 670 -48 688 L5 733 Q14 718 26.5 702.5 Q39 687 54 675 Q69 663 87.5 655.5 Q106 648 128 648 Q160 648 190.5 669 Q221 690 256 728 L297 684 Q282 658 263 634.5 Q244 611 221.5 593 Q199 575 173.5 564 Q148 553 119 553 Z M50 0 L50 491 L190 491 L190 0 L50 0 Z " />
<glyph glyph-name="Iogonek" unicode="&#x12e;" horiz-adv-x="253" d="M152 0 Q137 -24 126.5 -53.5 Q116 -83 116 -108 Q116 -134 130 -145.5 Q144 -157 167 -157 Q184 -157 199.5 -153.5 Q215 -150 227 -145 L239 -194 Q213 -211 185.5 -218.5 Q158 -226 133 -226 Q87 -226 60 -202.5 Q33 -179 33 -136 Q33 -110 46 -75 Q59 -40 94 0 L52 0 L52 688 L201 688 L201 0 L152 0 Z " />
<glyph glyph-name="iogonek" unicode="&#x12f;" horiz-adv-x="241" d="M137 0 Q123 -23 114 -50.5 Q105 -78 105 -101 Q105 -127 119 -138.5 Q133 -150 156 -150 Q173 -150 188.5 -146.5 Q204 -143 216 -138 L228 -187 Q202 -204 174.5 -211.5 Q147 -219 122 -219 Q76 -219 49 -195.5 Q22 -172 22 -129 Q22 -104 34 -71 Q46 -38 77 0 L50 0 L50 491 L190 491 L190 0 L137 0 Z M200 628 Q200 595 180 572.5 Q160 550 119 550 Q79 550 60 572.5 Q41 595 41 628 Q41 662 60.5 684 Q80 706 119 706 Q160 706 180 684 Q200 662 200 628 Z " />
<glyph glyph-name="Idotaccent" unicode="&#x130;" horiz-adv-x="253" d="M52 0 L52 688 L201 688 L201 0 L52 0 Z M212 835 Q212 801 191.5 778.5 Q171 756 126 756 Q82 756 63 778.5 Q44 801 44 835 Q44 872 63 894 Q82 916 126 916 Q171 916 191.5 894 Q212 872 212 835 Z " />
<glyph glyph-name="IJ" unicode="&#x132;" horiz-adv-x="525" d="M52 0 L52 688 L201 688 L201 0 L52 0 Z M326 688 L473 688 L473 143 Q473 73 460.5 19.5 Q448 -34 418.5 -74 Q389 -114 341 -142.5 Q293 -171 222 -190 L186 -90 Q232 -69 259.5 -47 Q287 -25 302 2 Q317 29 321.5 62.5 Q326 96 326 141 L326 688 Z " />
<glyph glyph-name="ij" unicode="&#x133;" horiz-adv-x="477" d="M50 0 L50 491 L190 491 L190 0 L50 0 Z M200 628 Q200 595 180 572.5 Q160 550 119 550 Q79 550 60 572.5 Q41 595 41 628 Q41 662 60.5 684 Q80 706 119 706 Q160 706 180 684 Q200 662 200 628 Z M284 491 L424 491 L424 50 Q424 -10 411.5 -55.5 Q399 -101 373 -134.5 Q347 -168 306.5 -191 Q266 -214 210 -229 L174 -139 Q210 -120 231.5 -103 Q253 -86 265 -66 Q277 -46 280.5 -19.5 Q284 7 284 44 L284 491 Z M434 628 Q434 595 414 572.5 Q394 550 352 550 Q313 550 294 572.5 Q275 595 275 628 Q275 662 294 684 Q313 706 352 706 Q394 706 414 684 Q434 662 434 628 Z " />
<glyph glyph-name="Jcircumflex" unicode="&#x134;" horiz-adv-x="275" d="M76 689 L223 689 L223 144 Q223 74 210.5 20.5 Q198 -33 168.5 -73 Q139 -113 91 -141.5 Q43 -170 -28 -189 L-64 -89 Q-18 -68 9.5 -46 Q37 -24 52 3 Q67 30 71.5 63.5 Q76 97 76 142 L76 689 Z M285 735 L149 819 L15 733 L-22 774 L109 912 L194 912 L324 775 L285 735 Z " />
<glyph glyph-name="jcircumflex" unicode="&#x135;" horiz-adv-x="247" d="M54 491 L194 491 L194 52 Q194 -8 181.5 -54 Q169 -100 143 -133.5 Q117 -167 77 -190.5 Q37 -214 -19 -229 L-57 -139 Q-21 -121 1 -104 Q23 -87 35 -66.5 Q47 -46 50.5 -19.5 Q54 7 54 45 L54 491 Z M259 535 L124 632 L-9 533 L-47 573 L84 724 L169 724 L297 574 L259 535 Z " />
<glyph glyph-name="Kcommaaccent" unicode="&#x136;" horiz-adv-x="544" d="M197 688 L197 442 L201 442 L378 688 L532 688 L336 421 L545 0 L388 0 L246 294 L197 229 L197 0 L52 0 L52 688 L197 688 Z M256 -165 Q231 -162 219.5 -147 Q208 -132 208 -109 Q208 -83 227 -64 Q246 -45 279 -45 Q318 -45 335 -69.5 Q352 -94 352 -126 Q352 -150 343 -173 Q334 -196 319 -216.5 Q304 -237 284.5 -254 Q265 -271 244 -283 L210 -241 Q232 -222 243 -205 Q254 -188 256 -165 Z " />
<glyph glyph-name="kcommaaccent" unicode="&#x137;" horiz-adv-x="472" d="M182 713 L182 537 Q182 492 180.5 437 Q179 382 176 337 L181 335 L299 490 L454 490 L302 304 L341 256 L468 0 L313 0 L219 198 L182 153 L182 0 L42 0 L42 713 L182 713 Z M222 -165 Q197 -162 185.5 -147 Q174 -132 174 -109 Q174 -83 193 -64 Q212 -45 245 -45 Q284 -45 301 -69.5 Q318 -94 318 -126 Q318 -150 309 -173 Q300 -196 285 -216.5 Q270 -237 250.5 -254 Q231 -271 210 -283 L176 -241 Q198 -222 209 -205 Q220 -188 222 -165 Z " />
<glyph glyph-name="kgreenlandic" unicode="&#x138;" horiz-adv-x="472" d="M182 491 L182 481 Q182 448 180.5 415 Q179 382 176 337 L181 335 L299 491 L454 491 L302 304 L341 256 L468 0 L313 0 L219 198 L182 153 L182 0 L42 0 L42 491 L182 491 Z " />
<glyph glyph-name="Lacute" unicode="&#x139;" horiz-adv-x="436" d="M52 0 L52 687 L202 687 L201 110 L429 110 L429 0 L52 0 Z M120 735 L83 790 L250 921 L307 834 L120 735 Z " />
<glyph glyph-name="lacute" unicode="&#x13a;" horiz-adv-x="233" d="M186 716 L186 0 L46 0 L46 716 L186 716 Z M91 752 L54 807 L221 938 L278 851 L91 752 Z " />
<glyph glyph-name="Lcommaaccent" unicode="&#x13b;" horiz-adv-x="436" d="M52 0 L52 687 L202 687 L201 110 L429 110 L429 0 L52 0 Z M225 -176 Q200 -173 188.5 -158 Q177 -143 177 -120 Q177 -94 196 -75 Q215 -56 248 -56 Q287 -56 304 -80.5 Q321 -105 321 -137 Q321 -161 312 -184 Q303 -207 288 -227.5 Q273 -248 253.5 -265 Q234 -282 213 -294 L179 -252 Q201 -233 212 -216 Q223 -199 225 -176 Z " />
<glyph glyph-name="lcommaaccent" unicode="&#x13c;" horiz-adv-x="233" d="M186 716 L186 0 L46 0 L46 716 L186 716 Z M93 -176 Q68 -173 56.5 -158 Q45 -143 45 -120 Q45 -94 64 -75 Q83 -56 116 -56 Q155 -56 172 -80.5 Q189 -105 189 -137 Q189 -161 180 -184 Q171 -207 156 -227.5 Q141 -248 121.5 -265 Q102 -282 81 -294 L47 -252 Q69 -233 80 -216 Q91 -199 93 -176 Z " />
<glyph glyph-name="Lcaron" unicode="&#x13d;" horiz-adv-x="454" d="M52 0 L52 687 L202 687 L201 110 L429 110 L429 0 L52 0 Z M351 583 Q326 586 314.5 601 Q303 616 303 639 Q303 665 322 684 Q341 703 374 703 Q413 703 430 678.5 Q447 654 447 622 Q447 598 438 575 Q429 552 414 531.5 Q399 511 379.5 494 Q360 477 339 465 L305 507 Q327 526 338 543 Q349 560 351 583 Z " />
<glyph glyph-name="lcaron" unicode="&#x13e;" horiz-adv-x="383" d="M186 716 L186 0 L46 0 L46 716 L186 716 Z M288 610 Q263 613 251.5 628 Q240 643 240 666 Q240 692 259 711 Q278 730 311 730 Q350 730 367 705.5 Q384 681 384 649 Q384 625 375 602 Q366 579 351 558.5 Q336 538 316.5 521 Q297 504 276 492 L242 534 Q264 553 275 570 Q286 587 288 610 Z " />
<glyph glyph-name="Ldot" unicode="&#x13f;" horiz-adv-x="473" d="M52 0 L52 687 L202 687 L201 110 L429 110 L429 0 L52 0 Z M447 358 Q447 324 426.5 301.5 Q406 279 361 279 Q317 279 298 301.5 Q279 324 279 358 Q279 395 298 417 Q317 439 361 439 Q406 439 426.5 417 Q447 395 447 358 Z " />
<glyph glyph-name="ldot" unicode="&#x140;" horiz-adv-x="408" d="M186 716 L186 0 L46 0 L46 716 L186 716 Z M400 343 Q400 309 379.5 286.5 Q359 264 314 264 Q270 264 251 286.5 Q232 309 232 343 Q232 380 251 402 Q270 424 314 424 Q359 424 379.5 402 Q400 380 400 343 Z " />
<glyph glyph-name="Nacute" unicode="&#x143;" horiz-adv-x="620" d="M422 276 L422 686 L567 686 L567 0 L424 0 L241 337 Q231 355 221 376 Q211 397 200 421 Q198 421 197.5 420.5 Q197 420 195 420 L195 0 L52 0 L52 686 L197 686 L300 502 Q315 475 331.5 445.5 Q348 416 364 386 Q380 356 394 327.5 Q408 299 417 276 L422 276 Z M286 736 L249 791 L416 922 L473 835 L286 736 Z " />
<glyph glyph-name="nacute" unicode="&#x144;" horiz-adv-x="502" d="M316 0 L316 316 Q316 351 306 367 Q296 383 268 383 Q248 383 226.5 374 Q205 365 186 352 L186 0 L46 0 L46 491 L170 491 L174 446 Q175 445 176 445 Q177 445 179 444 Q220 476 258 489 Q296 502 328 502 Q369 502 394 490 Q419 478 433 457 Q447 436 451.5 408 Q456 380 456 349 L456 0 L316 0 Z M237 539 L179 576 L290 758 L378 697 L237 539 Z " />
<glyph glyph-name="Ncommaaccent" unicode="&#x145;" horiz-adv-x="620" d="M422 276 L422 686 L567 686 L567 0 L424 0 L241 337 Q231 355 221 376 Q211 397 200 421 Q198 421 197.5 420.5 Q197 420 195 420 L195 0 L52 0 L52 686 L197 686 L300 502 Q315 475 331.5 445.5 Q348 416 364 386 Q380 356 394 327.5 Q408 299 417 276 L422 276 Z M283 -171 Q258 -168 246.5 -153 Q235 -138 235 -115 Q235 -89 254 -70 Q273 -51 306 -51 Q345 -51 362 -75.5 Q379 -100 379 -132 Q379 -156 370 -179 Q361 -202 346 -222.5 Q331 -243 311.5 -260 Q292 -277 271 -289 L237 -247 Q259 -228 270 -211 Q281 -194 283 -171 Z " />
<glyph glyph-name="ncommaaccent" unicode="&#x146;" horiz-adv-x="502" d="M316 0 L316 316 Q316 351 306 367 Q296 383 268 383 Q248 383 226.5 374 Q205 365 186 352 L186 0 L46 0 L46 491 L170 491 L174 446 Q175 445 176 445 Q177 445 179 444 Q220 476 258 489 Q296 502 328 502 Q369 502 394 490 Q419 478 433 457 Q447 436 451.5 408 Q456 380 456 349 L456 0 L316 0 Z M232 -168 Q207 -165 195.5 -150 Q184 -135 184 -112 Q184 -86 203 -67 Q222 -48 255 -48 Q294 -48 311 -72.5 Q328 -97 328 -129 Q328 -153 319 -176 Q310 -199 295 -219.5 Q280 -240 260.5 -257 Q241 -274 220 -286 L186 -244 Q208 -225 219 -208 Q230 -191 232 -168 Z " />
<glyph glyph-name="Ncaron" unicode="&#x147;" horiz-adv-x="620" d="M422 276 L422 686 L567 686 L567 0 L424 0 L241 337 Q231 355 221 376 Q211 397 200 421 Q198 421 197.5 420.5 Q197 420 195 420 L195 0 L52 0 L52 686 L197 686 L300 502 Q315 475 331.5 445.5 Q348 416 364 386 Q380 356 394 327.5 Q408 299 417 276 L422 276 Z M493 870 L363 732 L278 732 L147 871 L184 911 L318 825 L454 909 L493 870 Z " />
<glyph glyph-name="ncaron" unicode="&#x148;" horiz-adv-x="502" d="M316 0 L316 316 Q316 351 306 367 Q296 383 268 383 Q248 383 226.5 374 Q205 365 186 352 L186 0 L46 0 L46 491 L170 491 L174 446 Q175 445 176 445 Q177 445 179 444 Q220 476 258 489 Q296 502 328 502 Q369 502 394 490 Q419 478 433 457 Q447 436 451.5 408 Q456 380 456 349 L456 0 L316 0 Z M419 696 L291 546 L206 546 L75 697 L113 737 L246 639 L381 735 L419 696 Z " />
<glyph glyph-name="napostrophe" unicode="&#x149;" horiz-adv-x="602" d="M417 0 L417 316 Q417 351 407 367 Q397 383 369 383 Q349 383 327.5 374 Q306 365 287 352 L287 0 L147 0 L147 491 L271 491 L275 446 Q276 445 277 445 Q278 445 280 444 Q321 476 359 489 Q397 502 429 502 Q470 502 495 490 Q520 478 534 457 Q548 436 552.5 408 Q557 380 557 349 L557 0 L417 0 Z M63 605 Q38 608 26.5 623 Q15 638 15 661 Q15 687 34 706 Q53 725 86 725 Q125 725 142 700.5 Q159 676 159 644 Q159 620 150 597 Q141 574 126 553.5 Q111 533 91.5 516 Q72 499 51 487 L17 529 Q39 548 50 565 Q61 582 63 605 Z " />
<glyph glyph-name="Eng" unicode="&#x14a;" horiz-adv-x="620" d="M238 342 Q229 359 219.5 378.5 Q210 398 200 421 Q199 421 198.5 420.5 Q198 420 197 420 L195 420 L195 0 L52 0 L52 686 L197 686 L300 502 Q330 448 359 396 Q388 344 417 276 L422 276 L422 686 L567 686 L567 -24 Q567 -62 563 -97 Q559 -132 541.5 -159 Q524 -186 488 -202.5 Q452 -219 389 -219 Q383 -219 372.5 -218.5 Q362 -218 349 -216.5 Q336 -215 323 -212.5 Q310 -210 300 -207 L311 -96 Q321 -99 334.5 -100.5 Q348 -102 361 -102 Q390 -102 407 -92 Q424 -82 424 -50 L424 0 L238 342 Z " />
<glyph glyph-name="eng" unicode="&#x14b;" horiz-adv-x="502" d="M456 -21 Q456 -60 449 -92 Q442 -124 423.5 -147 Q405 -170 372.5 -182.5 Q340 -195 289 -195 Q282 -195 271 -194.5 Q260 -194 247.5 -192.5 Q235 -191 222.5 -189.5 Q210 -188 201 -185 L211 -78 Q222 -80 234 -81 Q246 -82 254 -82 Q286 -82 301 -69 Q316 -56 316 -21 L316 318 Q316 331 314.5 343 Q313 355 308 364 Q303 373 293.5 378 Q284 383 268 383 Q244 383 222 372.5 Q200 362 186 353 L186 0 L46 0 L46 491 L171 491 L174 446 L180 444 Q189 452 204 462 Q219 472 237.5 481 Q256 490 279 496 Q302 502 328 502 Q370 502 395 490 Q420 478 433.5 457 Q447 436 451.5 408.5 Q456 381 456 350 L456 -21 Z " />
<glyph glyph-name="Omacron" unicode="&#x14c;" horiz-adv-x="614" d="M587 344 Q587 272 572 207.5 Q557 143 524 95 Q491 47 438 18.5 Q385 -10 309 -10 Q228 -10 174 16.5 Q120 43 87.5 89.5 Q55 136 41 200.5 Q27 265 27 342 Q27 411 41 476 Q55 541 88 590.5 Q121 640 175 670 Q229 700 309 700 Q390 700 443.5 670 Q497 640 529 590.5 Q561 541 574 477 Q587 413 587 344 Z M431 342 Q431 390 427 436 Q423 482 410 517 Q397 552 373 573.5 Q349 595 309 595 Q267 595 242.5 572.5 Q218 550 205 514 Q192 478 188 432.5 Q184 387 184 341 Q184 279 189.5 233.5 Q195 188 209 157.5 Q223 127 247 112 Q271 97 308 97 Q344 97 368 114.5 Q392 132 406 164 Q420 196 425.5 241 Q431 286 431 342 Z M459 836 L459 748 L153 748 L153 836 L459 836 Z " />
<glyph glyph-name="omacron" unicode="&#x14d;" horiz-adv-x="492" d="M465 245 Q465 194 453.5 148 Q442 102 416 67 Q390 32 348 11.5 Q306 -9 244 -9 Q183 -9 141.5 11 Q100 31 74.5 65 Q49 99 38 145 Q27 191 27 244 Q27 296 38.5 342.5 Q50 389 76.5 424.5 Q103 460 145 480.5 Q187 501 248 501 Q309 501 350.5 480.5 Q392 460 417.5 425 Q443 390 454 343.5 Q465 297 465 245 Z M322 244 Q322 275 319.5 303.5 Q317 332 309 353.5 Q301 375 286.5 388 Q272 401 248 401 Q222 401 206.5 388 Q191 375 182.5 353 Q174 331 171.5 303 Q169 275 169 244 Q169 209 172 180.5 Q175 152 183 132 Q191 112 206.5 101.5 Q222 91 247 91 Q271 91 285.5 103.5 Q300 116 308 137 Q316 158 319 186 Q322 214 322 244 Z M94 672 L397 672 L397 583 L94 583 L94 672 Z " />
<glyph glyph-name="Obreve" unicode="&#x14e;" horiz-adv-x="614" d="M587 344 Q587 272 572 207.5 Q557 143 524 95 Q491 47 438 18.5 Q385 -10 309 -10 Q228 -10 174 16.5 Q120 43 87.5 89.5 Q55 136 41 200.5 Q27 265 27 342 Q27 411 41 476 Q55 541 88 590.5 Q121 640 175 670 Q229 700 309 700 Q390 700 443.5 670 Q497 640 529 590.5 Q561 541 574 477 Q587 413 587 344 Z M431 342 Q431 390 427 436 Q423 482 410 517 Q397 552 373 573.5 Q349 595 309 595 Q267 595 242.5 572.5 Q218 550 205 514 Q192 478 188 432.5 Q184 387 184 341 Q184 279 189.5 233.5 Q195 188 209 157.5 Q223 127 247 112 Q271 97 308 97 Q344 97 368 114.5 Q392 132 406 164 Q420 196 425.5 241 Q431 286 431 342 Z M303 742 Q273 742 248 754 Q223 766 202.5 784.5 Q182 803 166.5 826 Q151 849 139 872 L189 918 Q218 874 246 853.5 Q274 833 306 833 Q316 833 329.5 835.5 Q343 838 359.5 846.5 Q376 855 396 870.5 Q416 886 440 912 L476 871 Q463 849 446.5 826 Q430 803 408.5 784.5 Q387 766 361 754 Q335 742 303 742 Z " />
<glyph glyph-name="obreve" unicode="&#x14f;" horiz-adv-x="492" d="M465 245 Q465 194 453.5 148 Q442 102 416 67 Q390 32 348 11.5 Q306 -9 244 -9 Q183 -9 141.5 11 Q100 31 74.5 65 Q49 99 38 145 Q27 191 27 244 Q27 296 38.5 342.5 Q50 389 76.5 424.5 Q103 460 145 480.5 Q187 501 248 501 Q309 501 350.5 480.5 Q392 460 417.5 425 Q443 390 454 343.5 Q465 297 465 245 Z M322 244 Q322 275 319.5 303.5 Q317 332 309 353.5 Q301 375 286.5 388 Q272 401 248 401 Q222 401 206.5 388 Q191 375 182.5 353 Q174 331 171.5 303 Q169 275 169 244 Q169 209 172 180.5 Q175 152 183 132 Q191 112 206.5 101.5 Q222 91 247 91 Q271 91 285.5 103.5 Q300 116 308 137 Q316 158 319 186 Q322 214 322 244 Z M243 549 Q211 549 184.5 563 Q158 577 137 598 Q116 619 100.5 642.5 Q85 666 76 684 L129 729 Q138 714 150.5 698.5 Q163 683 178 671 Q193 659 211.5 651.5 Q230 644 252 644 Q284 644 314.5 665 Q345 686 380 724 L421 680 Q406 654 387 630.5 Q368 607 345.5 589 Q323 571 297.5 560 Q272 549 243 549 Z " />
<glyph glyph-name="Ohungarumlaut" unicode="&#x150;" horiz-adv-x="614" d="M587 344 Q587 272 572 207.5 Q557 143 524 95 Q491 47 438 18.5 Q385 -10 309 -10 Q228 -10 174 16.5 Q120 43 87.5 89.5 Q55 136 41 200.5 Q27 265 27 342 Q27 411 41 476 Q55 541 88 590.5 Q121 640 175 670 Q229 700 309 700 Q390 700 443.5 670 Q497 640 529 590.5 Q561 541 574 477 Q587 413 587 344 Z M431 342 Q431 390 427 436 Q423 482 410 517 Q397 552 373 573.5 Q349 595 309 595 Q267 595 242.5 572.5 Q218 550 205 514 Q192 478 188 432.5 Q184 387 184 341 Q184 279 189.5 233.5 Q195 188 209 157.5 Q223 127 247 112 Q271 97 308 97 Q344 97 368 114.5 Q392 132 406 164 Q420 196 425.5 241 Q431 286 431 342 Z M340 778 L470 953 L540 891 L388 736 L340 778 Z M190 778 L321 953 L390 891 L238 736 L190 778 Z " />
<glyph glyph-name="ohungarumlaut" unicode="&#x151;" horiz-adv-x="492" d="M465 245 Q465 194 453.5 148 Q442 102 416 67 Q390 32 348 11.5 Q306 -9 244 -9 Q183 -9 141.5 11 Q100 31 74.5 65 Q49 99 38 145 Q27 191 27 244 Q27 296 38.5 342.5 Q50 389 76.5 424.5 Q103 460 145 480.5 Q187 501 248 501 Q309 501 350.5 480.5 Q392 460 417.5 425 Q443 390 454 343.5 Q465 297 465 245 Z M322 244 Q322 275 319.5 303.5 Q317 332 309 353.5 Q301 375 286.5 388 Q272 401 248 401 Q222 401 206.5 388 Q191 375 182.5 353 Q174 331 171.5 303 Q169 275 169 244 Q169 209 172 180.5 Q175 152 183 132 Q191 112 206.5 101.5 Q222 91 247 91 Q271 91 285.5 103.5 Q300 116 308 137 Q316 158 319 186 Q322 214 322 244 Z M253 579 L383 754 L453 693 L301 537 L253 579 Z M105 579 L236 754 L305 693 L153 537 L105 579 Z " />
<glyph glyph-name="Racute" unicode="&#x154;" horiz-adv-x="537" d="M391 318 Q412 311 426 298 Q440 285 449.5 269 Q459 253 465.5 234.5 Q472 216 477 197 L526 0 L377 0 L330 194 Q324 220 316 236.5 Q308 253 298 262 Q288 271 274.5 274.5 Q261 278 244 278 L200 278 L200 0 L52 0 L52 688 L281 688 Q339 688 379.5 672.5 Q420 657 445.5 630.5 Q471 604 483 568.5 Q495 533 495 494 Q495 440 469 392 Q443 344 392 322 L391 318 Z M341 484 Q341 514 333 533 Q325 552 312 563.5 Q299 575 282.5 579 Q266 583 249 583 L200 583 L200 381 L250 381 Q292 381 316.5 405 Q341 429 341 484 Z M230 735 L193 790 L360 921 L417 834 L230 735 Z " />
<glyph glyph-name="racute" unicode="&#x155;" horiz-adv-x="354" d="M178 405 Q179 404 181.5 403.5 Q184 403 185 402 Q220 447 257 475.5 Q294 504 324 504 Q342 504 349 495 Q356 486 356 472 Q356 457 353 437.5 Q350 418 344.5 398 Q339 378 332 358.5 Q325 339 316 324 L189 329 L189 0 L49 0 L49 491 L185 491 Q185 484 184 472.5 Q183 461 182 448 Q181 435 180 423.5 Q179 412 178 405 Z M140 538 L82 575 L193 757 L281 696 L140 538 Z " />
<glyph glyph-name="Rcommaaccent" unicode="&#x156;" horiz-adv-x="537" d="M391 318 Q412 311 426 298 Q440 285 449.5 269 Q459 253 465.5 234.5 Q472 216 477 197 L526 0 L377 0 L330 194 Q324 220 316 236.5 Q308 253 298 262 Q288 271 274.5 274.5 Q261 278 244 278 L200 278 L200 0 L52 0 L52 688 L281 688 Q339 688 379.5 672.5 Q420 657 445.5 630.5 Q471 604 483 568.5 Q495 533 495 494 Q495 440 469 392 Q443 344 392 322 L391 318 Z M341 484 Q341 514 333 533 Q325 552 312 563.5 Q299 575 282.5 579 Q266 583 249 583 L200 583 L200 381 L250 381 Q292 381 316.5 405 Q341 429 341 484 Z M257 -169 Q232 -166 220.5 -151 Q209 -136 209 -113 Q209 -87 228 -68 Q247 -49 280 -49 Q319 -49 336 -73.5 Q353 -98 353 -130 Q353 -154 344 -177 Q335 -200 320 -220.5 Q305 -241 285.5 -258 Q266 -275 245 -287 L211 -245 Q233 -226 244 -209 Q255 -192 257 -169 Z " />
<glyph glyph-name="rcommaaccent" unicode="&#x157;" horiz-adv-x="354" d="M178 405 Q179 404 181.5 403.5 Q184 403 185 402 Q220 447 257 475.5 Q294 504 324 504 Q342 504 349 495 Q356 486 356 472 Q356 457 353 437.5 Q350 418 344.5 398 Q339 378 332 358.5 Q325 339 316 324 L189 329 L189 0 L49 0 L49 491 L185 491 Q185 484 184 472.5 Q183 461 182 448 Q181 435 180 423.5 Q179 412 178 405 Z M98 -170 Q73 -167 61.5 -152 Q50 -137 50 -114 Q50 -88 69 -69 Q88 -50 121 -50 Q160 -50 177 -74.5 Q194 -99 194 -131 Q194 -155 185 -178 Q176 -201 161 -221.5 Q146 -242 126.5 -259 Q107 -276 86 -288 L52 -246 Q74 -227 85 -210 Q96 -193 98 -170 Z " />
<glyph glyph-name="Rcaron" unicode="&#x158;" horiz-adv-x="537" d="M391 318 Q412 311 426 298 Q440 285 449.5 269 Q459 253 465.5 234.5 Q472 216 477 197 L526 0 L377 0 L330 194 Q324 220 316 236.5 Q308 253 298 262 Q288 271 274.5 274.5 Q261 278 244 278 L200 278 L200 0 L52 0 L52 688 L281 688 Q339 688 379.5 672.5 Q420 657 445.5 630.5 Q471 604 483 568.5 Q495 533 495 494 Q495 440 469 392 Q443 344 392 322 L391 318 Z M341 484 Q341 514 333 533 Q325 552 312 563.5 Q299 575 282.5 579 Q266 583 249 583 L200 583 L200 381 L250 381 Q292 381 316.5 405 Q341 429 341 484 Z M433 870 L303 732 L218 732 L87 871 L124 911 L258 825 L394 909 L433 870 Z " />
<glyph glyph-name="rcaron" unicode="&#x159;" horiz-adv-x="354" d="M178 405 Q179 404 181.5 403.5 Q184 403 185 402 Q220 447 257 475.5 Q294 504 324 504 Q342 504 349 495 Q356 486 356 472 Q356 457 353 437.5 Q350 418 344.5 398 Q339 378 332 358.5 Q325 339 316 324 L189 329 L189 0 L49 0 L49 491 L185 491 Q185 484 184 472.5 Q183 461 182 448 Q181 435 180 423.5 Q179 412 178 405 Z M337 698 L209 548 L124 548 L-7 699 L31 739 L164 641 L299 737 L337 698 Z " />
<glyph glyph-name="Sacute" unicode="&#x15a;" horiz-adv-x="498" d="M256 701 Q269 701 290 699.5 Q311 698 335 694 Q359 690 385 682 Q411 674 435 662 L402 558 Q376 570 341.5 578 Q307 586 271 586 Q227 586 200 569.5 Q173 553 173 513 Q173 482 195.5 463.5 Q218 445 252 430 Q286 415 326 399.5 Q366 384 400 359.5 Q434 335 456.5 297.5 Q479 260 479 201 Q479 158 464 119.5 Q449 81 418 52.5 Q387 24 340 7 Q293 -10 230 -10 Q183 -10 126.5 1 Q70 12 19 42 L55 148 Q87 134 111.5 125.5 Q136 117 156 112.5 Q176 108 191.5 107 Q207 106 221 106 Q278 106 304 127.5 Q330 149 330 189 Q330 223 308 244 Q286 265 252.5 281 Q219 297 180.5 311.5 Q142 326 108.5 348.5 Q75 371 53 406 Q31 441 31 496 Q31 539 45 576.5 Q59 614 86.5 641.5 Q114 669 156.5 685 Q199 701 256 701 Z M213 736 L176 791 L343 922 L400 835 L213 736 Z " />
<glyph glyph-name="sacute" unicode="&#x15b;" horiz-adv-x="393" d="M202 503 Q234 503 275 495.5 Q316 488 349 471 L323 381 Q305 390 273 396.5 Q241 403 217 403 Q193 403 176 393 Q159 383 159 360 Q159 344 175 333 Q191 322 215 312 Q239 302 266.5 290.5 Q294 279 318 260.5 Q342 242 358 215 Q374 188 374 148 Q374 77 325.5 34 Q277 -9 186 -9 Q145 -9 100.5 -0.5 Q56 8 16 31 L49 126 Q61 119 77 113.5 Q93 108 109.5 103.5 Q126 99 142.5 96.5 Q159 94 172 94 Q200 94 218.5 103.5 Q237 113 237 142 Q237 161 221.5 173 Q206 185 183 195 Q160 205 132.5 216 Q105 227 82 244 Q59 261 43.5 286.5 Q28 312 28 352 Q28 427 75 465 Q122 503 202 503 Z M181 538 L123 575 L234 757 L322 696 L181 538 Z " />
<glyph glyph-name="Scircumflex" unicode="&#x15c;" horiz-adv-x="499" d="M256 701 Q269 701 290 699.5 Q311 698 335 694 Q359 690 385 682 Q411 674 435 662 L402 558 Q376 570 341.5 578 Q307 586 271 586 Q227 586 200 569.5 Q173 553 173 513 Q173 482 195.5 463.5 Q218 445 252 430 Q286 415 326 399.5 Q366 384 400 359.5 Q434 335 456.5 297.5 Q479 260 479 201 Q479 158 464 119.5 Q449 81 418 52.5 Q387 24 340 7 Q293 -10 230 -10 Q183 -10 126.5 1 Q70 12 19 42 L55 148 Q87 134 111.5 125.5 Q136 117 156 112.5 Q176 108 191.5 107 Q207 106 221 106 Q278 106 304 127.5 Q330 149 330 189 Q330 223 308 244 Q286 265 252.5 281 Q219 297 180.5 311.5 Q142 326 108.5 348.5 Q75 371 53 406 Q31 441 31 496 Q31 539 45 576.5 Q59 614 86.5 641.5 Q114 669 156.5 685 Q199 701 256 701 Z M397 734 L261 818 L127 732 L90 773 L221 911 L306 911 L436 774 L397 734 Z " />
<glyph glyph-name="scircumflex" unicode="&#x15d;" horiz-adv-x="393" d="M202 503 Q234 503 275 495.5 Q316 488 349 471 L323 381 Q305 390 273 396.5 Q241 403 217 403 Q193 403 176 393 Q159 383 159 360 Q159 344 175 333 Q191 322 215 312 Q239 302 266.5 290.5 Q294 279 318 260.5 Q342 242 358 215 Q374 188 374 148 Q374 77 325.5 34 Q277 -9 186 -9 Q145 -9 100.5 -0.5 Q56 8 16 31 L49 126 Q61 119 77 113.5 Q93 108 109.5 103.5 Q126 99 142.5 96.5 Q159 94 172 94 Q200 94 218.5 103.5 Q237 113 237 142 Q237 161 221.5 173 Q206 185 183 195 Q160 205 132.5 216 Q105 227 82 244 Q59 261 43.5 286.5 Q28 312 28 352 Q28 427 75 465 Q122 503 202 503 Z M333 535 L198 632 L65 533 L27 573 L158 724 L243 724 L371 574 L333 535 Z " />
<glyph glyph-name="Scedilla" unicode="&#x15e;" horiz-adv-x="499" d="M256 701 Q269 701 290 699.5 Q311 698 335 694 Q359 690 385 682 Q411 674 435 662 L402 558 Q376 570 341.5 578 Q307 586 271 586 Q227 586 200 569.5 Q173 553 173 513 Q173 482 195.5 463.5 Q218 445 252 430 Q286 415 326 399.5 Q366 384 400 359.5 Q434 335 456.5 297.5 Q479 260 479 201 Q479 162 466.5 127 Q454 92 429 64 Q404 36 366 17.5 Q328 -1 277 -7 L237 -59 Q283 -62 312 -83 Q341 -104 341 -142 Q341 -164 331 -184 Q321 -204 300 -219.5 Q279 -235 246 -244.5 Q213 -254 167 -254 L166 -206 Q217 -201 236 -186 Q255 -171 255 -149 Q255 -138 249 -131.5 Q243 -125 233.5 -121.5 Q224 -118 211.5 -116.5 Q199 -115 186 -115 L177 -115 L161 -89 L219 -10 Q174 -8 120.5 2.5 Q67 13 19 42 L55 148 Q87 134 111.5 125.5 Q136 117 156 112.5 Q176 108 191.5 107 Q207 106 221 106 Q278 106 304 127.5 Q330 149 330 189 Q330 223 308 244 Q286 265 252.5 281 Q219 297 180.5 311.5 Q142 326 108.5 348.5 Q75 371 53 406 Q31 441 31 496 Q31 539 45 576.5 Q59 614 86.5 641.5 Q114 669 156.5 685 Q199 701 256 701 Z " />
<glyph glyph-name="scedilla" unicode="&#x15f;" horiz-adv-x="393" d="M202 503 Q234 503 275 495.5 Q316 488 349 471 L323 381 Q305 390 273 396.5 Q241 403 217 403 Q193 403 176 393 Q159 383 159 360 Q159 344 175 333 Q191 322 215 312 Q239 302 266.5 290.5 Q294 279 318 260.5 Q342 242 358 215 Q374 188 374 148 Q374 86 337 45.5 Q300 5 231 -5 L190 -59 Q236 -62 265 -83 Q294 -104 294 -142 Q294 -164 284 -184 Q274 -204 253 -219.5 Q232 -235 199 -244.5 Q166 -254 120 -254 L119 -206 Q170 -201 189 -186 Q208 -171 208 -149 Q208 -138 202 -131.5 Q196 -125 186.5 -121.5 Q177 -118 164.5 -116.5 Q152 -115 139 -115 L130 -115 L114 -89 L173 -9 Q135 -7 94 1.5 Q53 10 16 31 L49 126 Q61 119 77 113.5 Q93 108 109.5 103.5 Q126 99 142.5 96.5 Q159 94 172 94 Q200 94 218.5 103.5 Q237 113 237 142 Q237 161 221.5 173 Q206 185 183 195 Q160 205 132.5 216 Q105 227 82 244 Q59 261 43.5 286.5 Q28 312 28 352 Q28 427 75 465 Q122 503 202 503 Z " />
<glyph glyph-name="Tcommaaccent" unicode="&#x162;" horiz-adv-x="478" d="M268 0 L223 -59 Q269 -62 298 -83 Q327 -104 327 -142 Q327 -164 317 -184 Q307 -204 286 -219.5 Q265 -235 232 -244.5 Q199 -254 153 -254 L152 -206 Q203 -201 222 -186 Q241 -171 241 -149 Q241 -138 235 -131.5 Q229 -125 219.5 -121.5 Q210 -118 197.5 -116.5 Q185 -115 172 -115 L163 -115 L147 -89 L213 0 L166 0 L166 579 L11 579 L11 688 L468 688 L468 579 L314 579 L313 0 L268 0 Z " />
<glyph glyph-name="tcommaaccent" unicode="&#x163;" horiz-adv-x="343" d="M208 624 L208 491 L315 491 L315 399 L208 399 L208 165 Q208 134 218.5 117.5 Q229 101 261 101 Q288 101 322 111 L340 18 Q311 4 278.5 -2 Q246 -8 219 -8 Q215 -8 211.5 -7.5 Q208 -7 205 -7 L171 -52 Q217 -55 246 -76 Q275 -97 275 -135 Q275 -157 265 -177 Q255 -197 234 -212.5 Q213 -228 180 -237.5 Q147 -247 101 -247 L100 -199 Q151 -194 170 -179 Q189 -164 189 -142 Q189 -131 183 -124.5 Q177 -118 167.5 -114.5 Q158 -111 145.5 -109.5 Q133 -108 120 -108 L111 -108 L95 -82 L156 0 Q130 8 113 22 Q96 36 86.5 54 Q77 72 73 94 Q69 116 69 139 L69 399 L14 399 L14 476 L80 498 L109 615 L208 624 Z " />
<glyph glyph-name="Tcaron" unicode="&#x164;" horiz-adv-x="478" d="M166 0 L166 579 L11 579 L11 688 L468 688 L468 579 L314 579 L313 0 L166 0 Z M412 870 L282 732 L197 732 L66 871 L103 911 L237 825 L373 909 L412 870 Z " />
<glyph glyph-name="tcaron" unicode="&#x165;" horiz-adv-x="460" d="M208 624 L208 491 L315 491 L315 399 L208 399 L208 165 Q208 134 218.5 117.5 Q229 101 261 101 Q288 101 322 111 L340 18 Q311 4 278.5 -2 Q246 -8 219 -8 Q174 -8 144.5 4 Q115 16 98.5 36.5 Q82 57 75.5 83.5 Q69 110 69 139 L69 399 L14 399 L14 476 L80 498 L109 615 L208 624 Z M364 624 Q339 627 327.5 642 Q316 657 316 680 Q316 706 335 725 Q354 744 387 744 Q426 744 443 719.5 Q460 695 460 663 Q460 639 451 616 Q442 593 427 572.5 Q412 552 392.5 535 Q373 518 352 506 L318 548 Q340 567 351 584 Q362 601 364 624 Z " />
<glyph glyph-name="Tbar" unicode="&#x166;" horiz-adv-x="478" d="M166 0 L166 309 L55 309 L55 372 L166 372 L166 579 L11 579 L11 688 L468 688 L468 579 L314 579 L313 372 L429 372 L429 309 L313 309 L313 0 L166 0 Z " />
<glyph glyph-name="tbar" unicode="&#x167;" horiz-adv-x="343" d="M208 624 L208 491 L315 491 L315 399 L208 399 L208 326 L303 326 L303 262 L208 262 L208 165 Q208 134 218.5 117.5 Q229 101 261 101 Q288 101 322 111 L340 18 Q311 4 278.5 -2 Q246 -8 219 -8 Q174 -8 144.5 4 Q115 16 98.5 36.5 Q82 57 75.5 83.5 Q69 110 69 139 L69 262 L22 262 L22 326 L69 326 L69 399 L14 399 L14 476 L80 498 L109 615 L208 624 Z " />
<glyph glyph-name="Utilde" unicode="&#x168;" horiz-adv-x="600" d="M547 260 Q547 197 533.5 147 Q520 97 490 62.5 Q460 28 413 9.5 Q366 -9 299 -9 Q228 -9 181 10 Q134 29 105 63.5 Q76 98 64 146 Q52 194 52 252 L52 688 L198 688 L198 233 Q198 203 203 178.5 Q208 154 220 136 Q232 118 251.5 108 Q271 98 300 98 Q355 98 378.5 131.5 Q402 165 402 235 L402 688 L548 688 L547 260 Z M377 760 Q356 760 334 765.5 Q312 771 292 777.5 Q272 784 254 789.5 Q236 795 222 795 L176 755 L130 781 Q146 830 170.5 857.5 Q195 885 224 885 Q243 885 263 880 Q283 875 303.5 868.5 Q324 862 343 857 Q362 852 379 852 L423 891 L468 856 Q454 811 430.5 785.5 Q407 760 377 760 Z " />
<glyph glyph-name="utilde" unicode="&#x169;" horiz-adv-x="497" d="M184 491 L184 173 Q184 137 196 121.5 Q208 106 235 106 Q253 106 272 114.5 Q291 123 310 137 L310 491 L450 491 L450 0 L322 0 L319 41 L315 43 Q275 11 241.5 0.5 Q208 -10 176 -10 Q136 -10 110.5 1.5 Q85 13 70.5 34 Q56 55 50.5 84 Q45 113 45 147 L45 491 L184 491 Z M326 569 Q305 569 283 574.5 Q261 580 241 586.5 Q221 593 203 598.5 Q185 604 171 604 L125 564 L79 590 Q95 639 119.5 666.5 Q144 694 173 694 Q192 694 212 689 Q232 684 252.5 677.5 Q273 671 292 666 Q311 661 328 661 L372 700 L417 665 Q403 620 379.5 594.5 Q356 569 326 569 Z " />
<glyph glyph-name="Umacron" unicode="&#x16a;" horiz-adv-x="600" d="M547 260 Q547 197 533.5 147 Q520 97 490 62.5 Q460 28 413 9.5 Q366 -9 299 -9 Q228 -9 181 10 Q134 29 105 63.5 Q76 98 64 146 Q52 194 52 252 L52 688 L198 688 L198 233 Q198 203 203 178.5 Q208 154 220 136 Q232 118 251.5 108 Q271 98 300 98 Q355 98 378.5 131.5 Q402 165 402 235 L402 688 L548 688 L547 260 Z M452 836 L452 748 L146 748 L146 836 L452 836 Z " />
<glyph glyph-name="umacron" unicode="&#x16b;" horiz-adv-x="497" d="M184 491 L184 173 Q184 137 196 121.5 Q208 106 235 106 Q253 106 272 114.5 Q291 123 310 137 L310 491 L450 491 L450 0 L322 0 L319 41 L315 43 Q275 11 241.5 0.5 Q208 -10 176 -10 Q136 -10 110.5 1.5 Q85 13 70.5 34 Q56 55 50.5 84 Q45 113 45 147 L45 491 L184 491 Z M96 677 L399 677 L399 588 L96 588 L96 677 Z " />
<glyph glyph-name="Ubreve" unicode="&#x16c;" horiz-adv-x="600" d="M547 260 Q547 197 533.5 147 Q520 97 490 62.5 Q460 28 413 9.5 Q366 -9 299 -9 Q228 -9 181 10 Q134 29 105 63.5 Q76 98 64 146 Q52 194 52 252 L52 688 L198 688 L198 233 Q198 203 203 178.5 Q208 154 220 136 Q232 118 251.5 108 Q271 98 300 98 Q355 98 378.5 131.5 Q402 165 402 235 L402 688 L548 688 L547 260 Z M301 737 Q271 737 246 749 Q221 761 200.5 779.5 Q180 798 164.5 821 Q149 844 137 867 L187 913 Q216 869 244 848.5 Q272 828 304 828 Q314 828 327.5 830.5 Q341 833 357.5 841.5 Q374 850 394 865.5 Q414 881 438 907 L474 866 Q461 844 444.5 821 Q428 798 406.5 779.5 Q385 761 359 749 Q333 737 301 737 Z " />
<glyph glyph-name="ubreve" unicode="&#x16d;" horiz-adv-x="497" d="M184 491 L184 173 Q184 137 196 121.5 Q208 106 235 106 Q253 106 272 114.5 Q291 123 310 137 L310 491 L450 491 L450 0 L322 0 L319 41 L315 43 Q275 11 241.5 0.5 Q208 -10 176 -10 Q136 -10 110.5 1.5 Q85 13 70.5 34 Q56 55 50.5 84 Q45 113 45 147 L45 491 L184 491 Z M245 550 Q213 550 186.5 564 Q160 578 139 599 Q118 620 102.5 643.5 Q87 667 78 685 L131 730 Q140 715 152.5 699.5 Q165 684 180 672 Q195 660 213.5 652.5 Q232 645 254 645 Q286 645 316.5 666 Q347 687 382 725 L423 681 Q408 655 389 631.5 Q370 608 347.5 590 Q325 572 299.5 561 Q274 550 245 550 Z " />
<glyph glyph-name="Uring" unicode="&#x16e;" horiz-adv-x="600" d="M547 260 Q547 197 533.5 147 Q520 97 490 62.5 Q460 28 413 9.5 Q366 -9 299 -9 Q228 -9 181 10 Q134 29 105 63.5 Q76 98 64 146 Q52 194 52 252 L52 688 L198 688 L198 233 Q198 203 203 178.5 Q208 154 220 136 Q232 118 251.5 108 Q271 98 300 98 Q355 98 378.5 131.5 Q402 165 402 235 L402 688 L548 688 L547 260 Z M300 711 Q276 711 255.5 719.5 Q235 728 220 742.5 Q205 757 196.5 776.5 Q188 796 188 819 Q188 841 196.5 861 Q205 881 220 896 Q235 911 255.5 920 Q276 929 300 929 Q324 929 344 920.5 Q364 912 379 897 Q394 882 402 862 Q410 842 410 819 Q410 796 401.5 776.5 Q393 757 378 742.5 Q363 728 343 719.5 Q323 711 300 711 Z M300 869 Q278 869 263.5 854 Q249 839 249 818 Q249 798 263 783 Q277 768 300 768 Q322 768 335 783 Q348 798 348 818 Q348 839 335 854 Q322 869 300 869 Z " />
<glyph glyph-name="uring" unicode="&#x16f;" horiz-adv-x="497" d="M184 491 L184 173 Q184 137 196 121.5 Q208 106 235 106 Q253 106 272 114.5 Q291 123 310 137 L310 491 L450 491 L450 0 L322 0 L319 41 L315 43 Q275 11 241.5 0.5 Q208 -10 176 -10 Q136 -10 110.5 1.5 Q85 13 70.5 34 Q56 55 50.5 84 Q45 113 45 147 L45 491 L184 491 Z M250 542 Q226 542 205.5 550.5 Q185 559 170 573.5 Q155 588 146.5 607.5 Q138 627 138 650 Q138 672 146.5 692 Q155 712 170 727 Q185 742 205.5 751 Q226 760 250 760 Q274 760 294 751.5 Q314 743 329 728 Q344 713 352 693 Q360 673 360 650 Q360 627 351.5 607.5 Q343 588 328 573.5 Q313 559 293 550.5 Q273 542 250 542 Z M250 700 Q228 700 213.5 685 Q199 670 199 649 Q199 629 213 614 Q227 599 250 599 Q272 599 285 614 Q298 629 298 649 Q298 670 285 685 Q272 700 250 700 Z " />
<glyph glyph-name="Uhungarumlaut" unicode="&#x170;" horiz-adv-x="600" d="M547 260 Q547 197 533.5 147 Q520 97 490 62.5 Q460 28 413 9.5 Q366 -9 299 -9 Q228 -9 181 10 Q134 29 105 63.5 Q76 98 64 146 Q52 194 52 252 L52 688 L198 688 L198 233 Q198 203 203 178.5 Q208 154 220 136 Q232 118 251.5 108 Q271 98 300 98 Q355 98 378.5 131.5 Q402 165 402 235 L402 688 L548 688 L547 260 Z M327 778 L457 953 L527 891 L375 736 L327 778 Z M177 778 L308 953 L377 891 L225 736 L177 778 Z " />
<glyph glyph-name="uhungarumlaut" unicode="&#x171;" horiz-adv-x="497" d="M184 491 L184 173 Q184 137 196 121.5 Q208 106 235 106 Q253 106 272 114.5 Q291 123 310 137 L310 491 L450 491 L450 0 L322 0 L319 41 L315 43 Q275 11 241.5 0.5 Q208 -10 176 -10 Q136 -10 110.5 1.5 Q85 13 70.5 34 Q56 55 50.5 84 Q45 113 45 147 L45 491 L184 491 Z M266 579 L396 754 L466 693 L314 537 L266 579 Z M118 579 L249 754 L318 693 L166 537 L118 579 Z " />
<glyph glyph-name="Uogonek" unicode="&#x172;" horiz-adv-x="600" d="M547 260 Q547 199 534 150 Q521 101 493 66.5 Q465 32 421 12.5 Q377 -7 314 -9 Q298 -34 287.5 -63.5 Q277 -93 277 -119 Q277 -145 291 -156.5 Q305 -168 328 -168 Q345 -168 360.5 -164.5 Q376 -161 388 -156 L400 -205 Q374 -222 346.5 -229.5 Q319 -237 294 -237 Q248 -237 221 -213.5 Q194 -190 194 -147 Q194 -120 208 -84 Q222 -48 259 -7 Q200 -2 160.5 19 Q121 40 97 73.5 Q73 107 62.5 152.5 Q52 198 52 252 L52 688 L198 688 L198 233 Q198 203 203 178.5 Q208 154 220 136 Q232 118 251.5 108 Q271 98 300 98 Q355 98 378.5 131.5 Q402 165 402 235 L402 688 L548 688 L547 260 Z " />
<glyph glyph-name="uogonek" unicode="&#x173;" horiz-adv-x="497" d="M184 491 L184 173 Q184 137 196 121.5 Q208 106 235 106 Q253 106 272 114.5 Q291 123 310 137 L310 491 L450 491 L450 0 L369 0 Q355 -23 346.5 -50 Q338 -77 338 -100 Q338 -126 352 -137.5 Q366 -149 389 -149 Q406 -149 421.5 -145.5 Q437 -142 449 -137 L461 -186 Q435 -203 407.5 -210.5 Q380 -218 355 -218 Q309 -218 282 -194.5 Q255 -171 255 -128 Q255 -101 269 -65 Q283 -29 321 13 L319 41 L315 43 Q275 11 241.5 0.5 Q208 -10 176 -10 Q136 -10 110.5 1.5 Q85 13 70.5 34 Q56 55 50.5 84 Q45 113 45 147 L45 491 L184 491 Z " />
<glyph glyph-name="Wcircumflex" unicode="&#x174;" horiz-adv-x="835" d="M157 686 L207 413 Q215 368 224.5 307 Q234 246 240 174 L245 174 Q253 251 265 317 Q277 383 287 434 L335 686 L492 686 L546 429 Q559 369 572 302.5 Q585 236 590 174 L597 174 Q597 203 600.5 237 Q604 271 609 305 Q614 339 619.5 371 Q625 403 630 427 L676 686 L825 686 L681 0 L518 0 L471 195 Q454 266 439.5 335.5 Q425 405 416 463 L411 463 Q408 434 401.5 397.5 Q395 361 387.5 323.5 Q380 286 372 251 Q364 216 358 189 L317 0 L153 0 L8 686 L157 686 Z M548 744 L412 828 L278 742 L241 783 L372 921 L457 921 L587 784 L548 744 Z " />
<glyph glyph-name="wcircumflex" unicode="&#x175;" horiz-adv-x="693" d="M489 130 Q496 190 502.5 236.5 Q509 283 516 325 L544 491 L686 491 Q658 367 630.5 245.5 Q603 124 576 0 L412 0 L381 154 Q372 198 361 254 Q350 310 345 364 L341 364 Q333 301 324 251 Q315 201 307 157 L280 0 L116 0 Q89 124 61.5 245.5 Q34 367 6 491 L150 491 L174 329 Q181 286 190.5 235.5 Q200 185 205 128 L209 128 Q212 154 215 179 Q218 204 222 226 L267 491 L422 491 Q433 425 445 360.5 Q457 296 469 222 L484 130 L489 130 Z M477 535 L342 632 L209 533 L171 573 L302 724 L387 724 L515 574 L477 535 Z " />
<glyph glyph-name="Ycircumflex" unicode="&#x176;" horiz-adv-x="518" d="M182 245 L-1 687 L153 687 L218 503 Q230 468 240 433.5 Q250 399 255 364 L261 364 Q267 401 277.5 437 Q288 473 299 502 L366 687 L519 687 L333 256 L333 0 L182 0 L182 245 Z M393 734 L257 818 L123 732 L86 773 L217 911 L302 911 L432 774 L393 734 Z " />
<glyph glyph-name="ycircumflex" unicode="&#x177;" horiz-adv-x="471" d="M147 491 L203 242 Q210 211 215 178 Q220 145 225 105 L230 105 Q233 127 236 145 Q239 163 243 180.5 Q247 198 252 217 Q257 236 263 260 L323 491 L462 491 L303 -79 Q292 -117 277.5 -143.5 Q263 -170 242 -186.5 Q221 -203 194 -210 Q167 -217 133 -217 Q119 -217 92 -213.5 Q65 -210 36 -200 L57 -104 Q79 -109 91.5 -110.5 Q104 -112 118 -112 Q144 -112 158.5 -97 Q173 -82 183 -53 L203 6 L146 6 L12 491 L147 491 Z M372 535 L237 632 L104 533 L66 573 L197 724 L282 724 L410 574 L372 535 Z " />
<glyph glyph-name="Zacute" unicode="&#x179;" horiz-adv-x="476" d="M187 112 L454 112 L454 0 L21 0 L21 104 L280 571 L277 577 L40 577 L40 688 L445 688 L445 588 L186 117 L187 112 Z M227 733 L190 788 L357 919 L414 832 L227 733 Z " />
<glyph glyph-name="zacute" unicode="&#x17a;" horiz-adv-x="388" d="M184 104 L368 104 L368 0 L20 0 L20 84 L199 381 L197 388 L38 388 L38 492 L361 492 L361 408 L182 110 L184 104 Z M195 538 L137 575 L248 757 L336 696 L195 538 Z " />
<glyph glyph-name="Zdotaccent" unicode="&#x17b;" horiz-adv-x="476" d="M187 112 L454 112 L454 0 L21 0 L21 104 L280 571 L277 577 L40 577 L40 688 L445 688 L445 588 L186 117 L187 112 Z M344 827 Q344 793 323.5 770.5 Q303 748 258 748 Q214 748 195 770.5 Q176 793 176 827 Q176 864 195 886 Q214 908 258 908 Q303 908 323.5 886 Q344 864 344 827 Z " />
<glyph glyph-name="zdotaccent" unicode="&#x17c;" horiz-adv-x="388" d="M184 104 L368 104 L368 0 L20 0 L20 84 L199 381 L197 388 L38 388 L38 492 L361 492 L361 408 L182 110 L184 104 Z M288 643 Q288 609 267.5 586.5 Q247 564 202 564 Q158 564 139 586.5 Q120 609 120 643 Q120 680 139 702 Q158 724 202 724 Q247 724 267.5 702 Q288 680 288 643 Z " />
<glyph glyph-name="AEacute" unicode="&#x1fc;" horiz-adv-x="786" d="M757 687 L757 582 L543 582 L543 412 L722 412 L722 307 L543 307 L543 106 L769 106 L769 0 L395 0 L395 156 L225 156 L160 0 L3 0 L305 687 L757 687 Z M389 579 Q381 557 371 533 Q361 509 351 484 L263 261 L395 261 L395 579 L389 579 Z M462 733 L425 788 L592 919 L649 832 L462 733 Z " />
<glyph glyph-name="aeacute" unicode="&#x1fd;" horiz-adv-x="703" d="M492 503 Q557 503 594.5 479 Q632 455 650.5 418.5 Q669 382 674 340 Q679 298 679 262 L679 223 L412 223 Q412 158 434.5 128 Q457 98 516 98 Q553 98 582.5 106 Q612 114 639 125 L670 39 Q626 13 581 2 Q536 -9 491 -9 Q433 -9 394 7 Q355 23 329 52 Q304 32 280.5 19.5 Q257 7 235 0.5 Q213 -6 193.5 -8 Q174 -10 158 -10 Q114 -10 86.5 4 Q59 18 44 39 Q29 60 23.5 85 Q18 110 18 132 Q18 179 33.5 210.5 Q49 242 76.5 261 Q104 280 142 288.5 Q180 297 225 297 L275 297 L275 321 Q275 362 259.5 378.5 Q244 395 203 395 Q173 395 139 387.5 Q105 380 79 371 L53 462 Q97 482 146 491.5 Q195 501 235 501 Q277 501 309 487.5 Q341 474 360 443 Q382 469 416 486 Q450 503 492 503 Z M274 223 Q248 222 227 219.5 Q206 217 191 209.5 Q176 202 168 188 Q160 174 160 149 Q160 111 176 98.5 Q192 86 212 86 Q230 86 250.5 94.5 Q271 103 289 122 Q274 167 274 223 Z M485 404 Q464 404 450.5 394.5 Q437 385 429.5 370 Q422 355 418 335.5 Q414 316 413 296 L550 296 Q550 344 537 374 Q524 404 485 404 Z M376 538 L318 575 L429 757 L517 696 L376 538 Z " />
<glyph glyph-name="Oslashacute" unicode="&#x1fe;" horiz-adv-x="614" d="M295 734 L258 789 L425 920 L482 833 L295 734 Z M587 344 Q587 272 572 207.5 Q557 143 524 95 Q491 47 438 18.5 Q385 -10 309 -10 Q248 -10 203 5 Q158 20 126 47 L80 -15 L46 9 L96 78 Q58 126 42.5 193 Q27 260 27 342 Q27 411 41 476 Q55 541 88 590.5 Q121 640 175 670 Q229 700 309 700 Q372 700 418.5 681 Q465 662 497 630 L545 695 Q554 688 562 682 Q570 676 579 670 L525 596 Q559 545 573 480 Q587 415 587 344 Z M184 341 Q184 263 193 211 L412 512 Q399 550 375 572.5 Q351 595 309 595 Q267 595 242.5 572.5 Q218 550 205 514 Q192 478 188 432.5 Q184 387 184 341 Z M431 342 Q431 372 429.5 401 Q428 430 424 457 L208 160 Q235 97 308 97 Q344 97 368 114.5 Q392 132 406 164 Q420 196 425.5 241 Q431 286 431 342 Z " />
<glyph glyph-name="oslashacute" unicode="&#x1ff;" horiz-adv-x="492" d="M256 538 L198 575 L309 757 L397 696 L256 538 Z M248 501 Q296 501 331.5 488 Q367 475 393 452 L432 502 L463 479 L419 423 Q444 388 454.5 342 Q465 296 465 245 Q465 194 453.5 148 Q442 102 416 67 Q390 32 348 11.5 Q306 -9 244 -9 Q201 -9 167.5 1 Q134 11 110 29 L74 -17 L45 6 L83 54 Q52 89 39.5 138 Q27 187 27 244 Q27 296 38.5 342.5 Q50 389 76.5 424.5 Q103 460 145 480.5 Q187 501 248 501 Z M248 401 Q222 401 206.5 388 Q191 375 182.5 353 Q174 331 171.5 303 Q169 275 169 244 Q169 223 170 204.5 Q171 186 173 170 L311 347 Q303 371 288.5 386 Q274 401 248 401 Z M247 91 Q271 91 285.5 103.5 Q300 116 308 137 Q316 158 319 186 Q322 214 322 244 Q322 258 321.5 271 Q321 284 320 296 L186 125 Q203 91 247 91 Z " />
<glyph glyph-name="Scommaaccent" unicode="&#x218;" horiz-adv-x="498" d="M256 701 Q269 701 290 699.5 Q311 698 335 694 Q359 690 385 682 Q411 674 435 662 L402 558 Q376 570 341.5 578 Q307 586 271 586 Q227 586 200 569.5 Q173 553 173 513 Q173 482 195.5 463.5 Q218 445 252 430 Q286 415 326 399.5 Q366 384 400 359.5 Q434 335 456.5 297.5 Q479 260 479 201 Q479 158 464 119.5 Q449 81 418 52.5 Q387 24 340 7 Q293 -10 230 -10 Q183 -10 126.5 1 Q70 12 19 42 L55 148 Q87 134 111.5 125.5 Q136 117 156 112.5 Q176 108 191.5 107 Q207 106 221 106 Q278 106 304 127.5 Q330 149 330 189 Q330 223 308 244 Q286 265 252.5 281 Q219 297 180.5 311.5 Q142 326 108.5 348.5 Q75 371 53 406 Q31 441 31 496 Q31 539 45 576.5 Q59 614 86.5 641.5 Q114 669 156.5 685 Q199 701 256 701 Z M226 -176 Q201 -173 189.5 -158 Q178 -143 178 -120 Q178 -94 197 -75 Q216 -56 249 -56 Q288 -56 305 -80.5 Q322 -105 322 -137 Q322 -161 313 -184 Q304 -207 289 -227.5 Q274 -248 254.5 -265 Q235 -282 214 -294 L180 -252 Q202 -233 213 -216 Q224 -199 226 -176 Z " />
<glyph glyph-name="scommaaccent" unicode="&#x219;" horiz-adv-x="393" d="M202 503 Q234 503 275 495.5 Q316 488 349 471 L323 381 Q305 390 273 396.5 Q241 403 217 403 Q193 403 176 393 Q159 383 159 360 Q159 344 175 333 Q191 322 215 312 Q239 302 266.5 290.5 Q294 279 318 260.5 Q342 242 358 215 Q374 188 374 148 Q374 77 325.5 34 Q277 -9 186 -9 Q145 -9 100.5 -0.5 Q56 8 16 31 L49 126 Q61 119 77 113.5 Q93 108 109.5 103.5 Q126 99 142.5 96.5 Q159 94 172 94 Q200 94 218.5 103.5 Q237 113 237 142 Q237 161 221.5 173 Q206 185 183 195 Q160 205 132.5 216 Q105 227 82 244 Q59 261 43.5 286.5 Q28 312 28 352 Q28 427 75 465 Q122 503 202 503 Z M169 -176 Q144 -173 132.5 -158 Q121 -143 121 -120 Q121 -94 140 -75 Q159 -56 192 -56 Q231 -56 248 -80.5 Q265 -105 265 -137 Q265 -161 256 -184 Q247 -207 232 -227.5 Q217 -248 197.5 -265 Q178 -282 157 -294 L123 -252 Q145 -233 156 -216 Q167 -199 169 -176 Z " />
<glyph glyph-name="uni021A" unicode="&#x21a;" horiz-adv-x="478" d="M166 0 L166 579 L11 579 L11 688 L468 688 L468 579 L314 579 L313 0 L166 0 Z M220 -176 Q195 -173 183.5 -158 Q172 -143 172 -120 Q172 -94 191 -75 Q210 -56 243 -56 Q282 -56 299 -80.5 Q316 -105 316 -137 Q316 -161 307 -184 Q298 -207 283 -227.5 Q268 -248 248.5 -265 Q229 -282 208 -294 L174 -252 Q196 -233 207 -216 Q218 -199 220 -176 Z " />
<glyph glyph-name="uni021B" unicode="&#x21b;" horiz-adv-x="343" d="M208 624 L208 491 L315 491 L315 399 L208 399 L208 165 Q208 134 218.5 117.5 Q229 101 261 101 Q288 101 322 111 L340 18 Q311 4 278.5 -2 Q246 -8 219 -8 Q174 -8 144.5 4 Q115 16 98.5 36.5 Q82 57 75.5 83.5 Q69 110 69 139 L69 399 L14 399 L14 476 L80 498 L109 615 L208 624 Z M162 -176 Q137 -173 125.5 -158 Q114 -143 114 -120 Q114 -94 133 -75 Q152 -56 185 -56 Q224 -56 241 -80.5 Q258 -105 258 -137 Q258 -161 249 -184 Q240 -207 225 -227.5 Q210 -248 190.5 -265 Q171 -282 150 -294 L116 -252 Q138 -233 149 -216 Q160 -199 162 -176 Z " />
<glyph glyph-name="Wgrave" unicode="&#x1e80;" horiz-adv-x="835" d="M157 686 L207 413 Q215 368 224.5 307 Q234 246 240 174 L245 174 Q253 251 265 317 Q277 383 287 434 L335 686 L492 686 L546 429 Q559 369 572 302.5 Q585 236 590 174 L597 174 Q597 203 600.5 237 Q604 271 609 305 Q614 339 619.5 371 Q625 403 630 427 L676 686 L825 686 L681 0 L518 0 L471 195 Q454 266 439.5 335.5 Q425 405 416 463 L411 463 Q408 434 401.5 397.5 Q395 361 387.5 323.5 Q380 286 372 251 Q364 216 358 189 L317 0 L153 0 L8 686 L157 686 Z M256 833 L315 921 L483 790 L443 734 L256 833 Z " />
<glyph glyph-name="wgrave" unicode="&#x1e81;" horiz-adv-x="693" d="M489 130 Q496 190 502.5 236.5 Q509 283 516 325 L544 491 L686 491 Q658 367 630.5 245.5 Q603 124 576 0 L412 0 L381 154 Q372 198 361 254 Q350 310 345 364 L341 364 Q333 301 324 251 Q315 201 307 157 L280 0 L116 0 Q89 124 61.5 245.5 Q34 367 6 491 L150 491 L174 329 Q181 286 190.5 235.5 Q200 185 205 128 L209 128 Q212 154 215 179 Q218 204 222 226 L267 491 L422 491 Q433 425 445 360.5 Q457 296 469 222 L484 130 L489 130 Z M209 693 L297 757 L407 575 L349 538 L209 693 Z " />
<glyph glyph-name="Wacute" unicode="&#x1e82;" horiz-adv-x="835" d="M157 686 L207 413 Q215 368 224.5 307 Q234 246 240 174 L245 174 Q253 251 265 317 Q277 383 287 434 L335 686 L492 686 L546 429 Q559 369 572 302.5 Q585 236 590 174 L597 174 Q597 203 600.5 237 Q604 271 609 305 Q614 339 619.5 371 Q625 403 630 427 L676 686 L825 686 L681 0 L518 0 L471 195 Q454 266 439.5 335.5 Q425 405 416 463 L411 463 Q408 434 401.5 397.5 Q395 361 387.5 323.5 Q380 286 372 251 Q364 216 358 189 L317 0 L153 0 L8 686 L157 686 Z M387 735 L350 790 L517 921 L574 834 L387 735 Z " />
<glyph glyph-name="wacute" unicode="&#x1e83;" horiz-adv-x="693" d="M489 130 Q496 190 502.5 236.5 Q509 283 516 325 L544 491 L686 491 Q658 367 630.5 245.5 Q603 124 576 0 L412 0 L381 154 Q372 198 361 254 Q350 310 345 364 L341 364 Q333 301 324 251 Q315 201 307 157 L280 0 L116 0 Q89 124 61.5 245.5 Q34 367 6 491 L150 491 L174 329 Q181 286 190.5 235.5 Q200 185 205 128 L209 128 Q212 154 215 179 Q218 204 222 226 L267 491 L422 491 Q433 425 445 360.5 Q457 296 469 222 L484 130 L489 130 Z M357 538 L299 575 L410 757 L498 696 L357 538 Z " />
<glyph glyph-name="Wdieresis" unicode="&#x1e84;" horiz-adv-x="835" d="M157 686 L207 413 Q215 368 224.5 307 Q234 246 240 174 L245 174 Q253 251 265 317 Q277 383 287 434 L335 686 L492 686 L546 429 Q559 369 572 302.5 Q585 236 590 174 L597 174 Q597 203 600.5 237 Q604 271 609 305 Q614 339 619.5 371 Q625 403 630 427 L676 686 L825 686 L681 0 L518 0 L471 195 Q454 266 439.5 335.5 Q425 405 416 463 L411 463 Q408 434 401.5 397.5 Q395 361 387.5 323.5 Q380 286 372 251 Q364 216 358 189 L317 0 L153 0 L8 686 L157 686 Z M384 814 Q384 787 367 768 Q350 749 317 749 Q284 749 268 768 Q252 787 252 814 Q252 843 268 861.5 Q284 880 317 880 Q350 880 367 861.5 Q384 843 384 814 Z M561 814 Q561 787 544 768 Q527 749 493 749 Q460 749 444 768 Q428 787 428 814 Q428 843 444.5 861.5 Q461 880 493 880 Q527 880 544 861.5 Q561 843 561 814 Z " />
<glyph glyph-name="wdieresis" unicode="&#x1e85;" horiz-adv-x="693" d="M489 130 Q496 190 502.5 236.5 Q509 283 516 325 L544 491 L686 491 Q658 367 630.5 245.5 Q603 124 576 0 L412 0 L381 154 Q372 198 361 254 Q350 310 345 364 L341 364 Q333 301 324 251 Q315 201 307 157 L280 0 L116 0 Q89 124 61.5 245.5 Q34 367 6 491 L150 491 L174 329 Q181 286 190.5 235.5 Q200 185 205 128 L209 128 Q212 154 215 179 Q218 204 222 226 L267 491 L422 491 Q433 425 445 360.5 Q457 296 469 222 L484 130 L489 130 Z M318 624 Q318 597 301 578 Q284 559 250 559 Q217 559 201 578 Q185 597 185 624 Q185 652 201.5 671 Q218 690 250 690 Q284 690 301 671 Q318 652 318 624 Z M495 624 Q495 597 478 578 Q461 559 427 559 Q394 559 378 578 Q362 597 362 624 Q362 652 378.5 671 Q395 690 427 690 Q461 690 478 671 Q495 652 495 624 Z " />
<glyph glyph-name="Ygrave" unicode="&#x1ef2;" horiz-adv-x="518" d="M182 245 L-1 687 L153 687 L218 503 Q230 468 240 433.5 Q250 399 255 364 L261 364 Q267 401 277.5 437 Q288 473 299 502 L366 687 L519 687 L333 256 L333 0 L182 0 L182 245 Z M105 834 L164 922 L332 791 L292 735 L105 834 Z " />
<glyph glyph-name="ygrave" unicode="&#x1ef3;" horiz-adv-x="471" d="M147 491 L203 242 Q210 211 215 178 Q220 145 225 105 L230 105 Q233 127 236 145 Q239 163 243 180.5 Q247 198 252 217 Q257 236 263 260 L323 491 L462 491 L303 -79 Q292 -117 277.5 -143.5 Q263 -170 242 -186.5 Q221 -203 194 -210 Q167 -217 133 -217 Q119 -217 92 -213.5 Q65 -210 36 -200 L57 -104 Q79 -109 91.5 -110.5 Q104 -112 118 -112 Q144 -112 158.5 -97 Q173 -82 183 -53 L203 6 L146 6 L12 491 L147 491 Z M102 693 L190 757 L300 575 L242 538 L102 693 Z " />
<glyph glyph-name="zero.text" unicode="&#xe000;" horiz-adv-x="516" d="M492 343 Q492 276 482 212.5 Q472 149 446 100 Q420 51 375.5 21.5 Q331 -8 261 -8 Q188 -8 142.5 20.5 Q97 49 71 97 Q45 145 35.5 208 Q26 271 26 340 Q26 405 36 468.5 Q46 532 72.5 582.5 Q99 633 144.5 664.5 Q190 696 262 696 Q335 696 380 664 Q425 632 450 581 Q475 530 483.5 467 Q492 404 492 343 Z M347 340 Q347 391 344.5 437 Q342 483 333.5 518 Q325 553 308 574 Q291 595 261 595 Q231 595 213.5 573.5 Q196 552 187.5 516 Q179 480 176.5 433.5 Q174 387 174 338 Q174 279 177 233 Q180 187 189.5 155.5 Q199 124 216.5 108 Q234 92 262 92 Q288 92 304.5 109 Q321 126 330.5 158 Q340 190 343.5 236 Q347 282 347 340 Z " />
<glyph glyph-name="one.text" unicode="&#xe001;" horiz-adv-x="397" d="M150 560 L35 545 L35 640 L161 688 L289 688 L289 0 L150 0 L150 560 Z " />
<glyph glyph-name="two.text" unicode="&#xe002;" horiz-adv-x="483" d="M25 0 L25 94 Q78 142 124 193.5 Q170 245 204.5 296 Q239 347 259 397 Q279 447 279 492 Q279 582 185 582 Q154 582 119 570.5 Q84 559 56 541 L17 631 Q68 666 119 681 Q170 696 223 696 Q319 696 371 646 Q423 596 423 507 Q423 453 400.5 396 Q378 339 343.5 286 Q309 233 269 188 Q229 143 195 112 Q196 110 196 106 Q259 106 321.5 106.5 Q384 107 447 107 L447 0 L25 0 Z " />
<glyph glyph-name="three.text" unicode="&#xe003;" horiz-adv-x="492" d="M259 580 L39 580 L39 687 L415 687 L431 599 L260 424 L261 419 Q300 415 334 401.5 Q368 388 393.5 364.5 Q419 341 433.5 306 Q448 271 448 223 Q448 170 429 127 Q410 84 377 54 Q344 24 299.5 7.5 Q255 -9 204 -9 Q141 -9 97 0.5 Q53 10 11 34 L45 131 Q81 116 115 109 Q149 102 178 102 Q239 102 272.5 133.5 Q306 165 306 225 Q306 275 270.5 303.5 Q235 332 181 332 Q169 332 157 331 Q145 330 133 328 L101 400 L262 573 L259 580 Z " />
<glyph glyph-name="four.text" unicode="&#xe004;" horiz-adv-x="509" d="M416 688 L416 268 L485 268 L485 163 L416 163 L416 0 L278 0 L278 163 L19 163 L19 266 L251 688 L416 688 Z M275 519 L134 268 L279 268 L279 519 L275 519 Z " />
<glyph glyph-name="five.text" unicode="&#xe005;" horiz-adv-x="495" d="M211 340 Q188 340 164.5 332.5 Q141 325 124 316 L59 351 L82 687 L427 687 L427 580 L183 580 L174 432 Q187 436 208 440.5 Q229 445 259 445 Q301 445 337.5 431 Q374 417 401 389.5 Q428 362 443.5 320.5 Q459 279 459 224 Q459 167 441 123.5 Q423 80 391 50.5 Q359 21 315.5 6 Q272 -9 221 -9 Q175 -9 124.5 -1 Q74 7 26 36 L60 133 Q86 123 105.5 117 Q125 111 141.5 108 Q158 105 171.5 104 Q185 103 199 103 Q317 103 317 228 Q317 285 286.5 312.5 Q256 340 211 340 Z " />
<glyph glyph-name="six.text" unicode="&#xe006;" horiz-adv-x="505" d="M287 695 Q332 695 368 688.5 Q404 682 430 671 L405 574 Q387 580 363 585 Q339 590 316 590 Q272 590 245.5 572 Q219 554 204.5 526.5 Q190 499 184 466.5 Q178 434 177 405 Q179 403 180 402.5 Q181 402 182 400 Q203 414 231.5 426 Q260 438 300 438 Q338 438 371 425 Q404 412 428.5 385 Q453 358 467 317.5 Q481 277 481 222 Q481 167 464.5 124 Q448 81 418.5 52 Q389 23 348.5 7.5 Q308 -8 261 -8 Q195 -8 151 18 Q107 44 80.5 87.5 Q54 131 43 189 Q32 247 32 310 Q32 391 46.5 461.5 Q61 532 92 584 Q123 636 171 665.5 Q219 695 287 695 Z M344 216 Q344 268 326 301.5 Q308 335 262 335 Q244 335 229.5 331 Q215 327 204.5 321.5 Q194 316 187.5 310.5 Q181 305 178 302 Q178 272 179.5 235.5 Q181 199 189 167 Q197 135 214 113.5 Q231 92 263 92 Q306 92 325 125.5 Q344 159 344 216 Z " />
<glyph glyph-name="seven.text" unicode="&#xe007;" horiz-adv-x="425" d="M15 582 L15 688 L404 688 L404 596 L185 0 L43 0 L259 582 L15 582 Z " />
<glyph glyph-name="eight.text" unicode="&#xe008;" horiz-adv-x="510" d="M256 595 Q233 595 218.5 586.5 Q204 578 195 565.5 Q186 553 182.5 538.5 Q179 524 179 512 Q179 489 188 472 Q197 455 211 442.5 Q225 430 243.5 420 Q262 410 281 402 Q337 448 337 509 Q337 524 332.5 539.5 Q328 555 318 567.5 Q308 580 292.5 587.5 Q277 595 256 595 Z M254 90 Q276 90 292 98.5 Q308 107 318.5 121 Q329 135 334 153 Q339 171 339 190 Q339 220 330.5 241.5 Q322 263 306.5 279.5 Q291 296 270 308 Q249 320 224 331 Q192 305 180.5 269 Q169 233 169 194 Q169 174 173.5 155.5 Q178 137 188 122.5 Q198 108 214.5 99 Q231 90 254 90 Z M257 695 Q293 695 330 686 Q367 677 397 656 Q427 635 446 601.5 Q465 568 465 520 Q465 484 448.5 442.5 Q432 401 384 360 Q485 300 485 192 Q485 149 468.5 112.5 Q452 76 422 49 Q392 22 349 7 Q306 -8 254 -8 Q199 -8 156.5 6.5 Q114 21 84.5 46.5 Q55 72 40 106.5 Q25 141 25 182 Q25 205 30 231.5 Q35 258 47 284 Q59 310 79 334 Q99 358 129 378 Q92 406 74 437.5 Q56 469 56 514 Q56 553 70 586 Q84 619 110 643 Q136 667 173 681 Q210 695 257 695 Z " />
<glyph glyph-name="nine.text" unicode="&#xe009;" horiz-adv-x="510" d="M214 -8 Q169 -8 133 0 Q97 8 70 21 L99 119 Q125 111 150.5 106 Q176 101 198 101 Q235 101 260.5 117.5 Q286 134 301 160 Q316 186 323 219 Q330 252 331 285 L326 289 Q301 272 272 261.5 Q243 251 208 251 Q169 251 136.5 263.5 Q104 276 80 302.5 Q56 329 42.5 369 Q29 409 29 464 Q29 519 45 562.5 Q61 606 90.5 635 Q120 664 160 679.5 Q200 695 248 695 Q316 695 360 668 Q404 641 430 595 Q456 549 466 489.5 Q476 430 476 366 Q476 286 462 218 Q448 150 416.5 99.5 Q385 49 335 20.5 Q285 -8 214 -8 Z M165 471 Q165 445 169 423.5 Q173 402 182 386.5 Q191 371 206.5 362.5 Q222 354 245 354 Q264 354 278.5 358.5 Q293 363 303.5 368.5 Q314 374 320.5 379.5 Q327 385 329 387 L329 412 Q329 444 326 476.5 Q323 509 314 535.5 Q305 562 287.5 578.5 Q270 595 242 595 Q200 595 182.5 561.5 Q165 528 165 471 Z " />
<glyph glyph-name="numbersign.text" unicode="&#xe00a;" horiz-adv-x="491" d="M383 406 L354 276 L421 276 L418 204 L339 204 L294 0 L208 0 L253 204 L173 204 L128 0 L43 0 L89 204 L31 204 L33 276 L105 276 L134 406 L66 406 L70 475 L149 475 L190 658 L272 658 L231 475 L313 475 L354 658 L438 658 L397 475 L459 475 L457 406 L383 406 Z M188 276 L269 276 L298 406 L217 406 L188 276 Z " />
<glyph glyph-name="dollar.text" unicode="&#xe00b;" horiz-adv-x="490" d="M325 193 Q325 228 303.5 249.5 Q282 271 250 288 Q218 305 180 320.5 Q142 336 110 358 Q78 380 56.5 412.5 Q35 445 35 496 Q35 534 46.5 564.5 Q58 595 79 618 Q100 641 129 656 Q158 671 192 677 L192 780 L291 780 L291 679 Q329 675 363 665 Q397 655 426 641 L397 548 Q375 558 337 569.5 Q299 581 259 581 Q219 581 193.5 561.5 Q168 542 168 509 Q168 481 190 462.5 Q212 444 245 428 Q278 412 316.5 395 Q355 378 388 352.5 Q421 327 443 290 Q465 253 465 197 Q465 118 419 68 Q373 18 291 4 L291 -98 L192 -98 L192 0 Q144 5 99.5 18 Q55 31 23 51 L59 147 Q70 141 88 133.5 Q106 126 127 120 Q148 114 171 110 Q194 106 217 106 Q270 106 297.5 129 Q325 152 325 193 Z " />
<glyph glyph-name="euro.text" unicode="&#xe00c;" horiz-adv-x="509" d="M23 429 L69 429 Q75 481 91.5 528.5 Q108 576 138.5 612.5 Q169 649 216.5 671 Q264 693 333 693 Q375 693 409.5 686.5 Q444 680 471 669 L453 569 Q427 576 404.5 579.5 Q382 583 360 583 Q291 583 254 543.5 Q217 504 208 429 L400 429 L400 370 L204 370 Q203 364 203 357 Q203 350 203 344 Q203 335 203 330 Q203 325 204 314 L400 314 L400 255 L209 255 Q217 181 251 142 Q285 103 359 103 Q409 103 472 120 L489 16 Q455 4 413 -2.5 Q371 -9 334 -9 Q269 -9 221 8.5 Q173 26 140.5 60 Q108 94 90 143 Q72 192 66 255 L23 255 L23 314 L64 314 L64 338 Q64 347 64 353.5 Q64 360 65 370 L23 370 L23 429 Z " />
<glyph glyph-name="florin.text" unicode="&#xe00d;" horiz-adv-x="504" d="M392 680 Q421 680 446.5 674.5 Q472 669 492 662 L470 566 Q452 571 441 572.5 Q430 574 416 574 Q391 574 376 560.5 Q361 547 352.5 523.5 Q344 500 340.5 468 Q337 436 335 399 L419 399 L419 309 L326 309 L321 253 Q314 174 305 107 Q296 40 275 -9.5 Q254 -59 215.5 -87 Q177 -115 111 -115 Q80 -115 55.5 -110 Q31 -105 11 -97 L35 0 Q50 -4 62 -6 Q74 -8 87 -8 Q117 -8 133 6.5 Q149 21 158 57.5 Q167 94 173.5 155 Q180 216 191 309 L119 309 L119 399 L198 399 Q202 445 210 494.5 Q218 544 237.5 585 Q257 626 293.5 653 Q330 680 392 680 Z " />
<glyph glyph-name="sterling.text" unicode="&#xe00e;" horiz-adv-x="484" d="M100 379 Q101 536 158 613.5 Q215 691 315 691 Q363 691 400.5 682.5 Q438 674 464 660 L434 568 Q408 577 386 581 Q364 585 341 585 Q312 585 292.5 574 Q273 563 260.5 538.5 Q248 514 242.5 474.5 Q237 435 236 379 L373 379 L373 304 L232 304 Q232 279 230.5 253 Q229 227 224.5 201.5 Q220 176 210 152 Q200 128 184 108 L449 108 L449 0 L28 0 L28 107 Q66 134 81.5 180 Q97 226 98 304 L40 304 L40 379 L100 379 Z " />
<glyph glyph-name="cent.text" unicode="&#xe00f;" horiz-adv-x="462" d="M241 79 Q189 85 152 105.5 Q115 126 92 158.5 Q69 191 58 233.5 Q47 276 47 327 Q47 371 58 414 Q69 457 92.5 492.5 Q116 528 152.5 553 Q189 578 241 586 L241 685 L339 685 L339 588 Q362 586 384 580.5 Q406 575 424 569 L401 474 Q386 478 362 481.5 Q338 485 312 485 Q289 485 267 478.5 Q245 472 228 454.5 Q211 437 200.5 407 Q190 377 190 330 Q190 260 215 222.5 Q240 185 305 185 Q333 185 362.5 192 Q392 199 415 207 L446 114 Q429 104 401 94.5 Q373 85 339 80 L339 -17 L241 -17 L241 79 Z " />
<glyph glyph-name="yen.text" unicode="&#xe010;" horiz-adv-x="505" d="M159 686 L204 542 Q215 506 226.5 466 Q238 426 248 385 L253 385 Q264 428 277 469.5 Q290 511 301 546 L347 686 L490 686 L348 340 L458 340 L458 281 L324 281 L322 276 L322 227 L458 227 L458 167 L323 167 L323 0 L177 0 L177 167 L45 167 L45 227 L177 227 L177 268 L171 281 L45 281 L45 340 L149 340 L13 686 L159 686 Z " />
<glyph glyph-name="zero.taboldstyle" unicode="&#xe024;" horiz-adv-x="516" d="M491 246 Q491 201 478.5 156 Q466 111 438 74.5 Q410 38 366 15.5 Q322 -7 258 -7 Q192 -7 147.5 14.5 Q103 36 76 71 Q49 106 37 151.5 Q25 197 25 245 Q25 289 36.5 335 Q48 381 75 418.5 Q102 456 147 479.5 Q192 503 260 503 Q327 503 371.5 479 Q416 455 442.5 417.5 Q469 380 480 334.5 Q491 289 491 246 Z M351 245 Q351 270 347.5 297 Q344 324 334.5 346.5 Q325 369 307 384 Q289 399 259 399 Q230 399 212 384.5 Q194 370 183 347.5 Q172 325 168 297.5 Q164 270 164 245 Q164 212 169 184.5 Q174 157 185 136.5 Q196 116 214 104.5 Q232 93 259 93 Q284 93 301.5 106 Q319 119 330 140.5 Q341 162 346 189 Q351 216 351 245 Z " />
<glyph glyph-name="one.taboldstyle" unicode="&#xe025;" horiz-adv-x="516" d="M229 493 L340 493 L340 96 L454 96 L454 0 L82 0 L82 96 L203 96 L203 372 L77 350 L65 432 L229 493 Z " />
<glyph glyph-name="two.taboldstyle" unicode="&#xe026;" horiz-adv-x="516" d="M248 500 Q295 500 330.5 488.5 Q366 477 390 457 Q414 437 426 409.5 Q438 382 438 351 Q438 310 419 272.5 Q400 235 371 202.5 Q342 170 308 144 Q274 118 244 99 L246 96 L469 96 L469 0 L43 0 L43 84 Q78 104 122.5 133 Q167 162 207 195 Q247 228 274 263.5 Q301 299 301 332 Q301 359 281.5 376 Q262 393 227 393 Q206 393 185.5 387.5 Q165 382 146 374 Q127 366 111 357 Q95 348 84 341 L39 426 Q80 458 133.5 479 Q187 500 248 500 Z " />
</font>
</svg>
