<?xml version="1.0" encoding="UTF-8"?>
<svg xmlns="http://www.w3.org/2000/svg" xmlns:xlink="http://www.w3.org/1999/xlink" version="1.2" >
<font id="PFCentroSansPro-Light">
<font-face  font-family="PF Centro Sans Pro" units-per-em="1000" ascent="750" descent="-250" font-style="normal" font-weight="300" font-stretch="normal" cap-height="684" x-height="487" underline-position="-80" underline-thickness="40" />
<missing-glyph  horiz-adv-x="432" d="M0 684 L432 684 L432 0 L0 0 L0 684 Z M375 31 L216 314 L57 31 L375 31 Z M375 653 L57 653 L216 371 L375 653 Z M31 52 L196 342 L31 632 L31 52 Z M401 50 L401 637 L237 342 L401 50 Z " />
<glyph glyph-name="NULL" d="" />
<glyph glyph-name="carriagereturn" unicode="&#xd;" horiz-adv-x="840" d="M733 692 L787 692 L787 294 L198 294 L353 142 L315 104 L101 321 L315 538 L353 500 L198 347 L733 347 L733 692 Z " />
<glyph glyph-name="space" unicode="&#x20;" horiz-adv-x="264" d="" />
<glyph glyph-name="ampersand" unicode="&#x26;" horiz-adv-x="706" d="M279 675 Q313 675 338.5 664.5 Q364 654 381 637 Q398 620 406 597 Q414 574 414 549 Q414 498 376.5 457.5 Q339 417 270 379 Q314 316 363.5 251 Q413 186 470 129 Q494 151 514.5 177.5 Q535 204 551 237 Q567 270 577.5 310 Q588 350 592 401 L639 401 Q632 294 595 222 Q558 150 503 98 Q538 63 579 35 Q620 7 656 -8 Q651 -19 645 -28.5 Q639 -38 633 -48 Q617 -41 596 -28.5 Q575 -16 552 -1 Q529 14 506 32 Q483 50 464 68 Q413 30 355 10.5 Q297 -9 240 -9 Q196 -9 157.5 2.5 Q119 14 90.5 37 Q62 60 45.5 95.5 Q29 131 29 179 Q29 248 74 300 Q119 352 200 397 Q170 438 157 473.5 Q144 509 144 536 Q144 564 153 589.5 Q162 615 179 634 Q196 653 221.5 664 Q247 675 279 675 Z M81 181 Q81 143 93.5 115 Q106 87 127.5 68.5 Q149 50 177.5 41 Q206 32 238 32 Q285 32 332.5 47.5 Q380 63 432 99 Q406 126 383 153.5 Q360 181 338 207 Q308 245 279 283 Q250 321 225 358 Q194 341 167.5 322.5 Q141 304 122 282.5 Q103 261 92 236 Q81 211 81 181 Z M276 632 Q253 632 238 622.5 Q223 613 213.5 599.5 Q204 586 200 570 Q196 554 196 541 Q196 513 209 483 Q222 453 247 418 Q295 442 330 475 Q365 508 365 549 Q365 586 341.5 609 Q318 632 276 632 Z " />
<glyph glyph-name="quoteright" unicode="&#x2019;" horiz-adv-x="202" d="M64 668 Q64 685 76 698 Q88 711 106 711 Q127 711 139.5 696.5 Q152 682 152 658 Q152 641 146.5 622.5 Q141 604 130.5 586.5 Q120 569 105.5 553 Q91 537 74 527 L59 546 Q77 565 85.5 585.5 Q94 606 96 629 Q81 632 72.5 642.5 Q64 653 64 668 Z " />
<glyph glyph-name="parenleft" unicode="&#x28;" horiz-adv-x="271" d="M59 286 Q59 370 76 440.5 Q93 511 116 565 Q139 619 163.5 656.5 Q188 694 202 713 L225 697 Q214 681 195.5 646 Q177 611 159 559 Q141 507 127.5 438.5 Q114 370 114 287 Q114 193 127.5 119.5 Q141 46 159 -9 Q177 -64 196 -100 Q215 -136 226 -155 L202 -172 Q188 -154 164 -116 Q140 -78 117 -20.5 Q94 37 76.5 113.5 Q59 190 59 286 Z " />
<glyph glyph-name="parenright" unicode="&#x29;" horiz-adv-x="272" d="M207 286 Q207 190 189.5 113.5 Q172 37 149 -20.5 Q126 -78 101.5 -116 Q77 -154 64 -172 L40 -155 Q51 -136 70 -100 Q89 -64 107 -9 Q125 46 138.5 119.5 Q152 193 152 287 Q152 370 138.5 438.5 Q125 507 107 559 Q89 611 70 646 Q51 681 41 697 L65 713 Q79 694 103 656.5 Q127 619 150 565 Q173 511 190 440.5 Q207 370 207 286 Z " />
<glyph glyph-name="asterisk" unicode="&#x2a;" horiz-adv-x="359" d="M195 569 Q221 581 248 593.5 Q275 606 301 620 Q312 606 316 591.5 Q320 577 320 560 Q290 556 260.5 551.5 Q231 547 201 542 Q222 522 242.5 500.5 Q263 479 284 458 Q265 433 235 421 Q221 447 207.5 474 Q194 501 180 527 L128 422 Q97 432 77 458 Q97 480 118 501 Q139 522 159 543 Q130 548 101 552.5 Q72 557 43 562 Q45 597 62 622 L168 569 Q164 598 159.5 627.5 Q155 657 150 686 Q166 689 183 689 Q191 689 198.5 688.5 Q206 688 214 686 Q209 657 204.5 627.5 Q200 598 195 569 Z " />
<glyph glyph-name="plus" unicode="&#x2b;" horiz-adv-x="532" d="M291 276 L291 107 L246 107 L246 276 L81 276 L81 319 L246 319 L246 482 L291 482 L291 319 L455 319 L455 276 L291 276 Z " />
<glyph glyph-name="comma" unicode="&#x2c;" horiz-adv-x="169" d="M40 35 Q40 52 52 64.5 Q64 77 82 77 Q103 77 115.5 62.5 Q128 48 128 25 Q128 8 122.5 -11.5 Q117 -31 107 -49.5 Q97 -68 82.5 -85 Q68 -102 51 -112 L36 -94 Q53 -74 62 -50.5 Q71 -27 72 -4 Q58 -1 49 9.5 Q40 20 40 35 Z " />
<glyph glyph-name="hyphen" unicode="&#x2d;" horiz-adv-x="346" d="M52 233 L52 283 L294 283 L294 233 L52 233 Z " />
<glyph glyph-name="period" unicode="&#x2e;" horiz-adv-x="178" d="M129 36 Q129 19 116.5 6.5 Q104 -6 87 -6 Q70 -6 57.5 6.5 Q45 19 45 36 Q45 53 57.5 65.5 Q70 78 87 78 Q104 78 116.5 65.5 Q129 53 129 36 Z " />
<glyph glyph-name="slash" unicode="&#x2f;" horiz-adv-x="322" d="M53 -27 L11 -27 L269 699 L310 699 L53 -27 Z " />
<glyph glyph-name="zero" unicode="0" horiz-adv-x="532" d="M502 338 Q502 276 491 214.5 Q480 153 453 104 Q426 55 381.5 24 Q337 -7 270 -7 Q193 -7 146 23 Q99 53 73 101.5 Q47 150 38.5 211 Q30 272 30 335 Q30 372 33.5 413.5 Q37 455 47 495 Q57 535 74 571 Q91 607 118 634.5 Q145 662 182.5 678 Q220 694 271 694 Q323 694 360.5 677 Q398 660 423.5 632 Q449 604 464.5 567.5 Q480 531 488.5 491.5 Q497 452 499.5 412 Q502 372 502 338 Z M445 335 Q445 362 443.5 396 Q442 430 436.5 464.5 Q431 499 420 532 Q409 565 389.5 590.5 Q370 616 341 631.5 Q312 647 271 647 Q209 647 172.5 615 Q136 583 117 536 Q98 489 92.5 434 Q87 379 87 333 Q87 272 94 218.5 Q101 165 121 125 Q141 85 177 62 Q213 39 271 39 Q324 39 357.5 66 Q391 93 410.5 135.5 Q430 178 437.5 230.5 Q445 283 445 335 Z " />
<glyph glyph-name="one" unicode="1" horiz-adv-x="532" d="M101 609 L101 648 L256 683 L310 683 L310 0 L254 0 L254 624 L101 609 Z " />
<glyph glyph-name="two" unicode="2" horiz-adv-x="532" d="M34 0 L34 42 Q91 95 151.5 154.5 Q212 214 262 275 Q312 336 344 395 Q376 454 376 507 Q376 542 365 567.5 Q354 593 335 610 Q316 627 289.5 635 Q263 643 232 643 Q199 643 154.5 631.5 Q110 620 61 587 L39 624 Q92 662 145 677.5 Q198 693 241 693 Q282 693 317.5 682 Q353 671 379 648.5 Q405 626 420 592 Q435 558 435 511 Q435 456 408 399.5 Q381 343 339.5 288 Q298 233 247 180.5 Q196 128 148 81 L112 46 L113 44 L460 44 L460 0 L34 0 Z " />
<glyph glyph-name="three" unicode="3" horiz-adv-x="532" d="M439 683 L449 645 L224 410 L226 406 Q233 407 240.5 407 Q248 407 253 407 Q297 407 336 396 Q375 385 404.5 361 Q434 337 451 300 Q468 263 468 212 Q468 157 449 115.5 Q430 74 398 46.5 Q366 19 322.5 5.5 Q279 -8 231 -8 Q176 -8 128.5 0 Q81 8 39 27 L54 69 Q109 51 151 45 Q193 39 224 39 Q264 39 298.5 49.5 Q333 60 357.5 81.5 Q382 103 396 135.5 Q410 168 410 212 Q410 285 362 323 Q314 361 234 361 Q208 361 189 360 Q170 359 154 356 L141 392 L367 631 L365 636 L64 636 L64 683 L439 683 Z " />
<glyph glyph-name="four" unicode="4" horiz-adv-x="532" d="M407 683 L407 239 L506 239 L506 195 L407 195 L407 0 L353 0 L353 195 L25 195 L25 240 Q106 351 186.5 461 Q267 571 348 683 L407 683 Z M354 239 L354 611 L351 611 Q282 518 216 425.5 Q150 333 81 239 L354 239 Z " />
<glyph glyph-name="five" unicode="5" horiz-adv-x="532" d="M264 421 Q302 421 340 409.5 Q378 398 408 373.5 Q438 349 457 309.5 Q476 270 476 213 Q476 156 457 114.5 Q438 73 406.5 45.5 Q375 18 332.5 4.5 Q290 -9 244 -9 Q188 -9 139.5 -0.5 Q91 8 47 28 L62 70 Q114 53 154.5 46 Q195 39 225 39 Q314 39 365.5 81 Q417 123 417 213 Q417 253 404 283.5 Q391 314 368 334.5 Q345 355 314.5 365 Q284 375 249 375 Q217 375 185 367.5 Q153 360 125 346 L89 370 L107 683 L446 683 L446 636 L154 636 L141 397 Q160 405 191 413 Q222 421 264 421 Z " />
<glyph glyph-name="six" unicode="6" horiz-adv-x="532" d="M306 693 Q356 693 391.5 683 Q427 673 447 662 L433 620 Q395 636 362.5 641 Q330 646 306 646 Q266 646 236.5 631.5 Q207 617 185.5 593 Q164 569 149.5 539 Q135 509 126.5 478.5 Q118 448 114 419.5 Q110 391 109 371 L112 368 Q148 390 193 405 Q238 420 292 420 Q331 420 366.5 408.5 Q402 397 429 372.5 Q456 348 472.5 308.5 Q489 269 489 212 Q489 161 473 120.5 Q457 80 428.5 51.5 Q400 23 360.5 8 Q321 -7 273 -7 Q207 -7 164 18 Q121 43 96 86.5 Q71 130 61.5 188.5 Q52 247 52 313 Q52 396 68 466 Q84 536 115.5 586.5 Q147 637 194.5 665 Q242 693 306 693 Z M433 207 Q433 243 425.5 274 Q418 305 400 327 Q382 349 353 361.5 Q324 374 282 374 Q242 374 210.5 365.5 Q179 357 157 346.5 Q135 336 123 327 Q111 318 109 316 L109 290 Q109 248 115 203.5 Q121 159 139 122 Q157 85 189.5 61.5 Q222 38 275 38 Q313 38 342.5 50.5 Q372 63 392 85.5 Q412 108 422.5 139 Q433 170 433 207 Z " />
<glyph glyph-name="seven" unicode="7" horiz-adv-x="532" d="M182 0 L126 0 L404 636 L67 636 L67 683 L459 683 L459 639 L182 0 Z " />
<glyph glyph-name="eight" unicode="8" horiz-adv-x="532" d="M465 532 Q465 492 443 446 Q421 400 360 355 Q413 328 447 285 Q481 242 481 179 Q481 141 466.5 107.5 Q452 74 424 48.5 Q396 23 354.5 8 Q313 -7 260 -7 Q204 -7 163 6.5 Q122 20 95 43.5 Q68 67 54.5 98.5 Q41 130 41 165 Q41 223 71 282.5 Q101 342 172 384 Q123 413 99 445.5 Q75 478 75 526 Q75 560 89 590 Q103 620 128.5 643 Q154 666 190.5 679.5 Q227 693 271 693 Q305 693 339.5 684 Q374 675 402 656 Q430 637 447.5 606 Q465 575 465 532 Z M263 37 Q304 37 334.5 49 Q365 61 385.5 80.5 Q406 100 416 126 Q426 152 426 179 Q426 218 410 244.5 Q394 271 366 291 Q338 311 299 327.5 Q260 344 215 364 Q150 322 124 270.5 Q98 219 98 171 Q98 145 107 121 Q116 97 136 78.5 Q156 60 187.5 48.5 Q219 37 263 37 Z M268 647 Q238 647 213 637.5 Q188 628 170 612 Q152 596 142 573.5 Q132 551 132 526 Q132 496 147.5 473.5 Q163 451 188.5 433.5 Q214 416 245.5 402.5 Q277 389 310 376 Q367 417 389 454.5 Q411 492 411 531 Q411 548 403.5 568 Q396 588 379 605.5 Q362 623 335 635 Q308 647 268 647 Z " />
<glyph glyph-name="nine" unicode="9" horiz-adv-x="532" d="M220 -6 Q170 -6 130 3 Q90 12 69 23 L84 65 Q122 49 159 44 Q196 39 220 39 Q276 39 313.5 68 Q351 97 373.5 139.5 Q396 182 406 229.5 Q416 277 418 314 L414 317 Q379 294 334 279 Q289 264 235 264 Q196 264 160 275.5 Q124 287 97 311.5 Q70 336 54 376 Q38 416 38 473 Q38 524 53.5 564.5 Q69 605 97.5 633.5 Q126 662 166 677.5 Q206 693 254 693 Q320 693 363 667.5 Q406 642 430.5 598.5 Q455 555 465 496.5 Q475 438 475 372 Q475 289 459 219.5 Q443 150 411 100 Q379 50 331.5 22 Q284 -6 220 -6 Z M94 477 Q94 441 101.5 410.5 Q109 380 126.5 358 Q144 336 173 323.5 Q202 311 244 311 Q284 311 315.5 319.5 Q347 328 369 338 Q391 348 403 357 Q415 366 417 368 L417 395 Q417 418 415 445.5 Q413 473 407 500.5 Q401 528 390 554.5 Q379 581 361 601 Q343 621 316 633 Q289 645 252 645 Q214 645 184.5 632.5 Q155 620 135 597.5 Q115 575 104.5 544.5 Q94 514 94 477 Z " />
<glyph glyph-name="colon" unicode="&#x3a;" horiz-adv-x="176" d="M131 38 Q131 21 119.5 8 Q108 -5 90 -5 Q72 -5 59.5 8 Q47 21 47 38 Q47 55 59.5 67 Q72 79 89 79 Q106 79 118.5 67 Q131 55 131 38 Z M131 349 Q131 331 119 318.5 Q107 306 90 306 Q73 306 60 319 Q47 332 47 349 Q47 366 59.5 378 Q72 390 89 390 Q106 390 118.5 378 Q131 366 131 349 Z " />
<glyph glyph-name="less" unicode="&#x3c;" horiz-adv-x="532" d="M458 81 L79 276 L79 317 L458 511 L458 460 L129 297 L458 132 L458 81 Z " />
<glyph glyph-name="equal" unicode="&#x3d;" horiz-adv-x="532" d="M74 350 L74 394 L457 394 L457 350 L74 350 Z M74 208 L74 251 L457 251 L457 208 L74 208 Z " />
<glyph glyph-name="greater" unicode="&#x3e;" horiz-adv-x="532" d="M79 132 L408 297 L79 460 L79 511 L458 317 L458 276 L79 81 L79 132 Z " />
<glyph glyph-name="question" unicode="&#x3f;" horiz-adv-x="424" d="M397 568 Q397 534 380.5 505 Q364 476 339.5 449.5 Q315 423 286 398.5 Q257 374 232.5 349.5 Q208 325 191.5 299.5 Q175 274 175 246 Q175 229 177.5 211.5 Q180 194 184 172 L135 163 Q128 192 125.5 215 Q123 238 123 253 Q123 287 139 315.5 Q155 344 178.5 369.5 Q202 395 230 418.5 Q258 442 281.5 465.5 Q305 489 321 513.5 Q337 538 337 566 Q337 614 302 634 Q267 654 214 654 Q184 654 145.5 649 Q107 644 56 627 L42 672 Q88 688 133.5 695 Q179 702 215 702 Q306 702 351.5 666.5 Q397 631 397 568 Z M221 33 Q221 14 208.5 3 Q196 -8 179 -8 Q162 -8 149 3.5 Q136 15 136 33 Q136 50 148.5 62 Q161 74 178 74 Q196 74 208.5 62 Q221 50 221 33 Z " />
<glyph glyph-name="at" unicode="&#x40;" horiz-adv-x="864" d="M452 685 Q532 685 595.5 662.5 Q659 640 703.5 598 Q748 556 771.5 496.5 Q795 437 795 364 Q795 312 780 274 Q765 236 741.5 211 Q718 186 689 173.5 Q660 161 632 161 Q601 161 570.5 173 Q540 185 526 218 Q503 196 466.5 179 Q430 162 388 162 Q356 162 336 172.5 Q316 183 305 199 Q294 215 289.5 233.5 Q285 252 285 268 Q285 319 319 344.5 Q353 370 407 375 L517 383 L517 415 Q517 466 499.5 485.5 Q482 505 435 505 Q380 505 320 483 Q318 489 315 499 Q312 509 310 516 Q339 530 375 537.5 Q411 545 446 545 Q500 545 530 518.5 Q560 492 560 429 L560 267 Q560 234 579 216 Q598 198 635 198 Q656 198 677.5 207 Q699 216 716.5 236 Q734 256 745 287.5 Q756 319 756 363 Q756 432 734 485.5 Q712 539 672.5 575.5 Q633 612 577 631.5 Q521 651 452 651 Q383 651 321 627 Q259 603 212.5 560 Q166 517 139 459 Q112 401 112 334 Q112 265 136 207 Q160 149 202 107 Q244 65 301 41 Q358 17 424 17 Q452 17 480 21 Q508 25 543 36 L553 3 Q528 -6 494.5 -12.5 Q461 -19 427 -19 Q349 -19 284.5 7.5 Q220 34 173 80.5 Q126 127 100 191.5 Q74 256 74 332 Q74 409 104 473.5 Q134 538 186 585 Q238 632 306.5 658.5 Q375 685 452 685 Z M412 343 Q377 341 354 322 Q331 303 331 271 Q331 239 348.5 218.5 Q366 198 404 198 Q430 198 459.5 210 Q489 222 517 247 L517 352 L412 343 Z " />
<glyph glyph-name="A" unicode="A" horiz-adv-x="551" d="M474 0 L414 187 L133 187 Q118 139 104 93 Q90 47 75 0 L14 0 L237 683 L313 683 Q370 511 424.5 341 Q479 171 535 0 L474 0 Z M400 233 Q377 306 354.5 378 Q332 450 309 522 Q306 533 301.5 547.5 Q297 562 292.5 577 Q288 592 283.5 606.5 Q279 621 276 632 L273 632 L239 522 L149 233 L400 233 Z " />
<glyph glyph-name="B" unicode="B" horiz-adv-x="584" d="M413 353 Q446 341 467.5 321 Q489 301 501.5 277 Q514 253 519 228 Q524 203 524 182 Q524 140 509.5 106.5 Q495 73 469.5 49.5 Q444 26 410.5 13 Q377 0 339 0 L80 0 L80 682 L307 682 Q406 682 454.5 634 Q503 586 503 511 Q503 497 499.5 478 Q496 459 486 438 Q476 417 458.5 396.5 Q441 376 413 360 L413 353 Z M138 331 L138 46 L319 46 Q358 46 386 57.5 Q414 69 431.5 89 Q449 109 457 134.5 Q465 160 465 189 Q465 217 455 242.5 Q445 268 426 287.5 Q407 307 379.5 319 Q352 331 318 331 L138 331 Z M138 378 L301 378 Q367 378 405.5 412.5 Q444 447 444 505 Q444 533 435.5 557 Q427 581 409 598.5 Q391 616 363 626 Q335 636 296 636 L138 636 L138 378 Z " />
<glyph glyph-name="C" unicode="C" horiz-adv-x="569" d="M346 694 Q400 694 443.5 686 Q487 678 516 667 L502 622 Q463 635 424 640.5 Q385 646 351 646 Q291 646 248 624 Q205 602 176.5 561.5 Q148 521 134.5 464 Q121 407 121 336 Q121 277 130 224 Q139 171 164 130 Q189 89 234 65 Q279 41 351 41 Q364 41 384.5 42.5 Q405 44 427.5 46.5 Q450 49 473.5 53.5 Q497 58 517 64 L529 22 Q512 15 489 9.5 Q466 4 440.5 0.5 Q415 -3 389 -5 Q363 -7 341 -7 Q263 -7 209.5 17.5 Q156 42 123 87 Q90 132 75 195.5 Q60 259 60 337 Q60 392 72 454.5 Q84 517 116 570.5 Q148 624 203.5 659 Q259 694 346 694 Z " />
<glyph glyph-name="D" unicode="D" horiz-adv-x="623" d="M80 0 L80 684 L290 684 Q371 684 423.5 656.5 Q476 629 507 582 Q538 535 550.5 473.5 Q563 412 563 343 Q563 273 549.5 210.5 Q536 148 503.5 101.5 Q471 55 416.5 27.5 Q362 0 280 0 L80 0 Z M140 637 L140 48 L272 48 Q287 48 310 49.5 Q333 51 358.5 59.5 Q384 68 409.5 85.5 Q435 103 455.5 135 Q476 167 489 216 Q502 265 502 336 Q502 409 490 459.5 Q478 510 459 543.5 Q440 577 416 595.5 Q392 614 367 623.5 Q342 633 319 635 Q296 637 279 637 L140 637 Z " />
<glyph glyph-name="E" unicode="E" horiz-adv-x="531" d="M80 0 L80 683 L473 683 L473 637 L139 637 L139 385 L425 385 L425 339 L139 339 L139 47 L490 47 L490 0 L80 0 Z " />
<glyph glyph-name="F" unicode="F" horiz-adv-x="503" d="M80 0 L80 683 L471 683 L471 636 L139 636 L139 382 L421 382 L421 335 L139 335 L139 0 L80 0 Z " />
<glyph glyph-name="G" unicode="G" horiz-adv-x="609" d="M360 694 Q414 694 459 686 Q504 678 533 667 L521 623 Q479 635 439 640.5 Q399 646 364 646 Q302 646 256 624 Q210 602 180 561.5 Q150 521 135.5 463 Q121 405 121 334 Q121 277 130 224 Q139 171 164 130.5 Q189 90 233.5 66 Q278 42 349 42 Q363 42 380.5 43.5 Q398 45 416.5 47 Q435 49 452.5 52.5 Q470 56 483 61 L483 346 L539 346 L539 22 Q491 6 440.5 -0.5 Q390 -7 342 -7 Q265 -7 211 17.5 Q157 42 123.5 87.5 Q90 133 75 196.5 Q60 260 60 338 Q60 374 65.5 415 Q71 456 84.5 495.5 Q98 535 120 571 Q142 607 175.5 634.5 Q209 662 254.5 678 Q300 694 360 694 Z " />
<glyph glyph-name="H" unicode="H" horiz-adv-x="626" d="M485 0 L485 336 L140 336 Q140 321 140 294.5 Q140 268 140 236 Q140 204 140.5 168.5 Q141 133 141 101 Q141 69 141 42 Q141 15 141 0 L80 0 L80 683 L141 683 Q141 663 141 621.5 Q141 580 140.5 534.5 Q140 489 140 447.5 Q140 406 140 386 L485 386 L485 683 L546 683 L546 0 L485 0 Z " />
<glyph glyph-name="I" unicode="I" horiz-adv-x="238" d="M90 0 L90 684 L148 684 L148 0 L90 0 Z " />
<glyph glyph-name="J" unicode="J" horiz-adv-x="283" d="M125 684 L183 684 L183 118 Q183 57 169.5 11 Q156 -35 129.5 -70.5 Q103 -106 64 -132 Q25 -158 -25 -179 L-43 -136 Q2 -110 34 -85 Q66 -60 86.5 -31.5 Q107 -3 116 32.5 Q125 68 125 115 L125 684 Z " />
<glyph glyph-name="K" unicode="K" horiz-adv-x="550" d="M139 0 L80 0 L80 684 L139 684 L139 354 L459 684 L529 684 L261 410 L536 0 L469 0 L222 369 L139 285 L139 0 Z " />
<glyph glyph-name="L" unicode="L" horiz-adv-x="531" d="M91 0 L91 683 L151 683 L151 46 L516 46 L516 0 L91 0 Z " />
<glyph glyph-name="M" unicode="M" horiz-adv-x="794" d="M146 682 Q200 564 252 445 Q304 326 358 207 L394 124 L399 124 Q409 145 418 166 Q427 187 436 208 Q489 326 542.5 445 Q596 564 650 682 L713 682 L713 0 L656 0 Q656 143 655.5 285 Q655 427 655 570 L653 570 L607 466 Q583 413 558 358.5 Q533 304 509.5 251.5 Q486 199 464 150.5 Q442 102 424 62 L367 62 Q360 77 353 93 Q346 109 337 129.5 Q328 150 316 175.5 Q304 201 288 236 Q268 284 242 340.5 Q216 397 183 469 L139 571 L136 571 L136 0 L80 0 L80 682 L146 682 L146 682 Z " />
<glyph glyph-name="N" unicode="N" horiz-adv-x="658" d="M520 100 L520 683 L578 683 L577 0 L520 0 Q507 19 483.5 55.5 Q460 92 431 137 Q402 182 370.5 231.5 Q339 281 310 326 Q281 371 257 407.5 Q233 444 221 463 L141 592 Q140 592 139 591.5 Q138 591 137 591 L137 0 L80 0 L80 683 L140 683 Q152 665 175.5 629 Q199 593 228 548 Q257 503 289 453.5 Q321 404 349.5 359 Q378 314 401 278 Q424 242 436 224 L516 100 L520 100 Z " />
<glyph glyph-name="O" unicode="O" horiz-adv-x="676" d="M616 339 Q616 265 599 202 Q582 139 547.5 92.5 Q513 46 462 19.5 Q411 -7 344 -7 Q266 -7 212 17 Q158 41 124.5 85 Q91 129 75.5 192.5 Q60 256 60 336 Q60 406 74.5 471 Q89 536 122 585.5 Q155 635 209.5 664.5 Q264 694 344 694 Q425 694 477.5 664.5 Q530 635 561 585.5 Q592 536 604 472 Q616 408 616 339 Z M554 336 Q554 388 546.5 443.5 Q539 499 516.5 544.5 Q494 590 452.5 619 Q411 648 344 648 Q276 648 233 621 Q190 594 165 550 Q140 506 130.5 449.5 Q121 393 121 334 Q121 190 173 114.5 Q225 39 341 39 Q396 39 436 62.5 Q476 86 502 126 Q528 166 541 220 Q554 274 554 336 Z " />
<glyph glyph-name="P" unicode="P" horiz-adv-x="525" d="M496 490 Q496 460 487 424.5 Q478 389 456 359 Q434 329 396 309 Q358 289 300 289 L139 289 L140 0 L80 0 L80 684 L291 684 Q334 684 371.5 672 Q409 660 437 636 Q465 612 480.5 575.5 Q496 539 496 490 Z M139 637 L139 335 L293 335 Q319 335 344.5 342 Q370 349 390 366.5 Q410 384 422.5 413.5 Q435 443 435 487 Q435 525 423.5 553.5 Q412 582 392.5 600.5 Q373 619 346.5 628 Q320 637 290 637 L139 637 Z " />
<glyph glyph-name="Q" unicode="Q" horiz-adv-x="676" d="M616 338 Q616 280 605 228 Q594 176 573 134 Q552 92 520 61 Q488 30 446 13 Q457 10 480 4 Q503 -2 528.5 -8.5 Q554 -15 576.5 -20.5 Q599 -26 610 -29 L590 -84 Q574 -79 543.5 -69 Q513 -59 479 -48 Q445 -37 414.5 -27 Q384 -17 369 -11 Q364 -10 356.5 -10 Q349 -10 344 -9 Q266 -6 212 18 Q158 42 124.5 85.5 Q91 129 75.5 192 Q60 255 60 336 Q60 406 74.5 471 Q89 536 122 585.5 Q155 635 209.5 664.5 Q264 694 344 694 Q425 694 477.5 664 Q530 634 560.5 584.5 Q591 535 603.5 471 Q616 407 616 338 Z M554 336 Q554 388 546.5 443 Q539 498 516.5 543.5 Q494 589 452.5 618 Q411 647 344 647 Q276 647 233 620 Q190 593 165 549 Q140 505 130.5 448.5 Q121 392 121 334 Q121 189 172.5 113.5 Q224 38 340 38 Q395 38 435.5 61.5 Q476 85 502 125.5 Q528 166 541 220 Q554 274 554 336 Z " />
<glyph glyph-name="R" unicode="R" horiz-adv-x="563" d="M497 500 Q497 471 490 442.5 Q483 414 468 390 Q453 366 429.5 348 Q406 330 374 322 Q415 309 434.5 277.5 Q454 246 466 204 L525 0 L465 0 L409 196 Q398 229 384.5 250.5 Q371 272 353.5 284.5 Q336 297 315 302 Q294 307 269 307 L139 307 L139 0 L80 0 L80 684 L295 684 Q347 684 385.5 670 Q424 656 448.5 631.5 Q473 607 485 573 Q497 539 497 500 Z M292 354 Q321 354 347 361.5 Q373 369 393 386 Q413 403 424.5 430.5 Q436 458 436 497 Q436 569 394.5 602.5 Q353 636 289 636 L139 636 L139 354 L292 354 Z " />
<glyph glyph-name="S" unicode="S" horiz-adv-x="547" d="M277 695 Q315 695 363 688 Q411 681 456 659 L437 614 Q386 634 347 640 Q308 646 273 646 Q207 646 163.5 612 Q120 578 120 508 Q120 477 134.5 456 Q149 435 172 421 Q195 407 225 397.5 Q255 388 287 380 Q324 370 362.5 358 Q401 346 432 325 Q463 304 482.5 270.5 Q502 237 502 184 Q502 133 483.5 97 Q465 61 432.5 37.5 Q400 14 355.5 3.5 Q311 -7 260 -7 Q206 -7 149.5 4.5 Q93 16 46 43 L66 87 Q124 59 170.5 50 Q217 41 258 41 Q346 41 393.5 73 Q441 105 441 184 Q441 218 429 241 Q417 264 395.5 279.5 Q374 295 344.5 305.5 Q315 316 280 325 Q236 337 196 350 Q156 363 125.5 383 Q95 403 77 432.5 Q59 462 59 507 Q59 552 75 587 Q91 622 120 646 Q149 670 189 682.5 Q229 695 277 695 Z " />
<glyph glyph-name="T" unicode="T" horiz-adv-x="536" d="M239 0 L239 636 L19 636 L19 684 L516 684 L516 636 L298 636 L297 0 L239 0 Z " />
<glyph glyph-name="U" unicode="U" horiz-adv-x="654" d="M579 243 Q579 187 563.5 141 Q548 95 516.5 62 Q485 29 437.5 11 Q390 -7 326 -7 Q194 -7 135 59.5 Q76 126 76 243 L76 684 L133 684 L134 244 Q134 142 183 90.5 Q232 39 327 39 Q421 39 470.5 90 Q520 141 520 244 L520 684 L579 684 L579 243 Z " />
<glyph glyph-name="V" unicode="V" horiz-adv-x="528" d="M267 61 L307 197 L453 684 L514 684 L300 0 L228 0 L14 684 L77 684 L224 195 L263 61 L267 61 Z " />
<glyph glyph-name="W" unicode="W" horiz-adv-x="807" d="M390 594 Q380 546 369 500.5 Q358 455 348 407 Q333 344 309.5 242.5 Q286 141 254 0 L180 0 L14 682 L74 682 Q81 651 92 603.5 Q103 556 116 499 Q129 442 143.5 381 Q158 320 172 262 L216 69 L220 69 Q231 116 241.5 162.5 Q252 209 263 257 Q289 368 313 470.5 Q337 573 362 682 L424 682 Q434 644 449.5 586.5 Q465 529 481.5 468 Q498 407 513 350.5 Q528 294 538 259 Q540 253 547.5 226 Q555 199 563 167.5 Q571 136 578.5 107.5 Q586 79 589 69 L594 69 L637 260 L734 682 L792 682 Q749 503 707.5 332.5 Q666 162 626 0 L555 0 Q527 106 499.5 206.5 Q472 307 443 416 Q432 461 420.5 505 Q409 549 396 594 L390 594 Z " />
<glyph glyph-name="X" unicode="X" horiz-adv-x="528" d="M228 354 Q178 436 128 518 Q78 600 27 683 L93 683 Q136 610 178.5 538.5 Q221 467 265 395 L438 683 L503 683 Q452 599 400.5 517 Q349 435 298 352 L514 0 L448 0 L262 310 L77 0 L13 0 Q67 89 120.5 177 Q174 265 228 354 Z " />
<glyph glyph-name="Y" unicode="Y" horiz-adv-x="500" d="M216 304 L12 684 L75 684 L182 481 L245 356 L249 356 L314 480 L425 684 L487 684 L278 308 L278 0 L216 0 L216 304 Z " />
<glyph glyph-name="Z" unicode="Z" horiz-adv-x="502" d="M43 684 L466 684 L466 636 L90 49 L483 49 L483 0 L19 0 L19 48 L395 635 L43 635 L43 684 Z " />
<glyph glyph-name="bracketleft" unicode="&#x5b;" horiz-adv-x="244" d="M58 -160 L58 696 L208 696 L208 654 L112 654 L112 -117 L208 -117 L208 -160 L58 -160 Z " />
<glyph glyph-name="backslash" unicode="&#x5c;" horiz-adv-x="322" d="M11 699 L52 699 L310 -27 L268 -27 L11 699 Z " />
<glyph glyph-name="bracketright" unicode="&#x5d;" horiz-adv-x="244" d="M37 -160 L37 -117 L133 -117 L133 654 L37 654 L37 696 L186 696 L186 -160 L37 -160 Z " />
<glyph glyph-name="asciicircum" unicode="&#x5e;" horiz-adv-x="430" d="M355 391 L214 636 L74 391 L25 391 Q37 412 61 452 Q85 492 110.5 536.5 Q136 581 159.5 621 Q183 661 195 682 L236 682 L402 391 L355 391 Z " />
<glyph glyph-name="underscore" unicode="&#x5f;" horiz-adv-x="500" d="M0 -124 L0 -88 L500 -88 L500 -124 L0 -124 Z " />
<glyph glyph-name="quoteleft" unicode="&#x2018;" horiz-adv-x="202" d="M147 568 Q147 551 134.5 538.5 Q122 526 105 526 Q84 526 71 540.5 Q58 555 58 579 Q58 595 64 614 Q70 633 80.5 650.5 Q91 668 105.5 683.5 Q120 699 137 710 L151 691 Q116 653 115 608 Q129 605 138 594.5 Q147 584 147 568 Z " />
<glyph glyph-name="a" unicode="a" horiz-adv-x="506" d="M252 493 Q326 493 366.5 457 Q407 421 407 334 L407 44 L473 44 Q475 36 475 27.5 Q475 19 476 11 Q459 3 439 -1 Q419 -5 403 -5 Q375 -5 362.5 8.5 Q350 22 352 55 Q352 55 350 56 Q321 33 295.5 20.5 Q270 8 248.5 2 Q227 -4 210 -5 Q193 -6 181 -6 Q140 -6 112.5 6.5 Q85 19 69 38.5 Q53 58 46.5 82 Q40 106 40 128 Q40 195 84.5 230.5 Q129 266 199 271 L352 279 L352 319 Q352 387 329 416.5 Q306 446 240 446 Q203 446 164 438 Q125 430 88 417 L74 456 Q116 474 163 483.5 Q210 493 252 493 Z M213 231 Q156 229 128 203 Q100 177 100 134 Q100 85 124.5 61 Q149 37 202 37 Q237 37 274.5 55 Q312 73 352 106 L352 239 L213 231 Z " />
<glyph glyph-name="b" unicode="b" horiz-adv-x="497" d="M116 451 Q164 476 201 486 Q238 496 270 496 Q322 496 356 476.5 Q390 457 410.5 423 Q431 389 439.5 342 Q448 295 448 240 Q448 189 438 144 Q428 99 404.5 66 Q381 33 343 13.5 Q305 -6 248 -6 Q197 -6 149 4.5 Q101 15 59 34 L59 710 L115 710 L115 551 Q115 546 114.5 532 Q114 518 114 502.5 Q114 487 113.5 472.5 Q113 458 113 453 L116 451 Z M262 449 Q224 449 184.5 434 Q145 419 115 402 L115 65 Q150 50 183 44.5 Q216 39 244 39 Q278 39 305.5 49.5 Q333 60 352 83.5 Q371 107 381 145 Q391 183 391 238 Q391 300 381.5 340.5 Q372 381 355 405 Q338 429 314.5 439 Q291 449 262 449 Z " />
<glyph glyph-name="c" unicode="c" horiz-adv-x="445" d="M107 240 Q107 198 114 161.5 Q121 125 138.5 98 Q156 71 185 55 Q214 39 258 39 Q298 39 331 47.5 Q364 56 403 72 L418 33 Q388 16 345.5 4.5 Q303 -7 255 -7 Q198 -7 158.5 11.5 Q119 30 94.5 62 Q70 94 59.5 138.5 Q49 183 49 236 Q49 261 52.5 290 Q56 319 64.5 348 Q73 377 88.5 404 Q104 431 127.5 451.5 Q151 472 184 484 Q217 496 262 496 Q296 496 331 490.5 Q366 485 399 471 L384 429 Q348 442 318.5 445.5 Q289 449 266 449 Q186 449 146.5 391.5 Q107 334 107 240 Z " />
<glyph glyph-name="d" unicode="d" horiz-adv-x="498" d="M383 50 Q382 50 382 50.5 Q382 51 381 51 Q349 25 308 9.5 Q267 -6 226 -6 Q176 -6 142 13 Q108 32 87.5 64 Q67 96 58 139.5 Q49 183 49 233 Q49 288 59.5 336 Q70 384 92.5 419.5 Q115 455 151.5 475 Q188 495 240 495 Q269 495 307.5 487 Q346 479 382 457 L382 709 L438 709 L438 0 L383 0 L383 50 Z M382 409 Q360 423 322 435.5 Q284 448 247 448 Q218 448 192.5 437.5 Q167 427 148 401.5 Q129 376 118 334.5 Q107 293 107 232 Q107 177 116.5 140 Q126 103 143.5 80.5 Q161 58 186 48.5 Q211 39 241 39 Q257 39 277 44 Q297 49 316.5 57 Q336 65 353 76 Q370 87 382 98 L382 409 Z " />
<glyph glyph-name="e" unicode="e" horiz-adv-x="486" d="M254 453 Q215 453 188 438 Q161 423 144.5 398 Q128 373 119.5 340.5 Q111 308 108 273 L386 273 Q386 312 379.5 345 Q373 378 358 402 Q343 426 317.5 439.5 Q292 453 254 453 Z M253 495 Q300 495 332.5 481.5 Q365 468 386 446.5 Q407 425 418 398 Q429 371 434 345.5 Q439 320 439.5 297.5 Q440 275 440 262 L440 233 L107 233 Q107 194 113.5 159 Q120 124 137 97 Q154 70 183 54 Q212 38 257 38 Q301 38 335.5 47 Q370 56 412 75 L427 37 Q385 14 344 3.5 Q303 -7 255 -7 Q193 -7 153 13 Q113 33 90 66.5 Q67 100 58 145 Q49 190 49 241 Q49 261 51.5 288 Q54 315 62 343 Q70 371 84 398.5 Q98 426 120.5 447.5 Q143 469 175.5 482 Q208 495 253 495 Z " />
<glyph glyph-name="f" unicode="f" horiz-adv-x="337" d="M106 444 L37 444 L37 476 L106 490 L106 576 Q106 648 144 683.5 Q182 719 253 719 Q272 719 295 716.5 Q318 714 341 709 L334 667 Q317 670 298 672 Q279 674 264 674 Q212 674 186.5 652.5 Q161 631 161 578 L161 488 L306 488 L306 444 L161 444 L160 0 L106 0 L106 444 Z " />
<glyph glyph-name="g" unicode="g" horiz-adv-x="522" d="M134 195 Q106 209 85 241.5 Q64 274 64 326 Q64 372 80.5 404.5 Q97 437 123 457 Q149 477 181.5 486.5 Q214 496 247 496 Q270 496 292.5 494 Q315 492 336 485 L486 485 L486 445 L402 445 L400 442 Q423 422 433.5 392.5 Q444 363 444 329 Q444 290 429.5 259.5 Q415 229 389 207.5 Q363 186 327 175 Q291 164 247 164 L190 164 Q152 164 127 156.5 Q102 149 102 122 Q102 103 117.5 93 Q133 83 161 83 L295 83 Q385 83 428 45.5 Q471 8 471 -59 Q471 -96 454.5 -125.5 Q438 -155 408 -175 Q378 -195 336.5 -206 Q295 -217 245 -217 Q186 -217 147 -205 Q108 -193 85.5 -173.5 Q63 -154 54 -128.5 Q45 -103 45 -75 Q45 -33 65 0 Q85 33 109 47 Q48 56 48 114 Q48 136 56 150 Q64 164 76.5 173 Q89 182 104 186 Q119 190 133 192 L134 195 Z M167 40 Q153 34 140.5 23 Q128 12 119 -2.5 Q110 -17 105 -33 Q100 -49 100 -64 Q100 -85 106.5 -105 Q113 -125 130 -140.5 Q147 -156 177 -165 Q207 -174 254 -174 Q326 -174 370.5 -143.5 Q415 -113 415 -60 Q415 -43 410.5 -25.5 Q406 -8 392 6.5 Q378 21 353 30.5 Q328 40 286 40 L167 40 Z M388 329 Q388 350 381.5 372 Q375 394 359 412 Q343 430 317.5 441.5 Q292 453 253 453 Q188 453 154 419.5 Q120 386 120 328 Q120 273 153.5 239.5 Q187 206 241 206 Q307 206 347.5 236.5 Q388 267 388 329 Z " />
<glyph glyph-name="h" unicode="h" horiz-adv-x="490" d="M118 440 Q166 466 214 481 Q262 496 296 496 Q345 496 372 481.5 Q399 467 412 445 Q425 423 428 396.5 Q431 370 431 345 L431 0 L375 0 L375 328 Q375 355 372.5 377.5 Q370 400 360 415.5 Q350 431 331.5 439.5 Q313 448 281 448 Q261 448 239.5 443.5 Q218 439 196 431.5 Q174 424 153.5 414.5 Q133 405 115 395 L115 0 L59 0 L59 710 L114 710 L114 561 Q114 553 114 536.5 Q114 520 113.5 502 Q113 484 112.5 467 Q112 450 112 443 L118 440 Z " />
<glyph glyph-name="i" unicode="i" horiz-adv-x="225" d="M84 0 L84 487 L140 487 L140 0 L84 0 Z M153 612 Q153 596 141 584 Q129 572 112 572 Q95 572 83.5 584 Q72 596 72 612 Q72 629 83.5 641.5 Q95 654 112 654 Q129 654 141 641.5 Q153 629 153 612 Z " />
<glyph glyph-name="j" unicode="j" horiz-adv-x="234" d="M91 487 L147 487 L147 -2 Q146 -44 138.5 -76 Q131 -108 113 -133 Q95 -158 66 -178 Q37 -198 -8 -216 L-25 -177 Q11 -157 33.5 -139 Q56 -121 69 -101 Q82 -81 87 -57.5 Q92 -34 92 -3 L91 487 Z M80 612 Q80 629 91.5 641.5 Q103 654 120 654 Q137 654 149 641.5 Q161 629 161 612 Q161 596 149 584 Q137 572 120 572 Q103 572 91.5 584 Q80 596 80 612 Z " />
<glyph glyph-name="k" unicode="k" horiz-adv-x="429" d="M112 265 Q113 265 117 263 L176 323 L341 486 L406 486 L215 296 Q223 286 230.5 276.5 Q238 267 246 256 Q259 236 282.5 201 Q306 166 332 128 Q358 90 381.5 54.5 Q405 19 419 0 L356 0 Q311 66 267.5 131 Q224 196 179 262 Q163 245 146.5 229.5 Q130 214 114 197 L114 0 L58 0 L58 708 L114 708 L114 387 L112 265 L112 265 Z " />
<glyph glyph-name="l" unicode="l" horiz-adv-x="205" d="M130 0 L74 0 L74 710 L130 710 L130 0 Z " />
<glyph glyph-name="m" unicode="m" horiz-adv-x="788" d="M672 0 L672 327 Q672 355 669 377 Q666 399 656 415 Q646 431 627 439.5 Q608 448 576 448 Q558 448 536.5 443.5 Q515 439 494 431.5 Q473 424 453 415 Q433 406 417 396 Q419 382 420 367 Q421 352 421 340 L421 0 L365 0 L365 336 Q365 389 346.5 418 Q328 447 275 447 Q236 447 193 431 Q150 415 115 394 L115 0 L59 0 L59 487 L113 487 Q113 484 113 477.5 Q113 471 113.5 464 Q114 457 114 450.5 Q114 444 114 441 Q115 441 116 440 Q117 439 118 439 Q163 466 207.5 480.5 Q252 495 289 495 Q336 495 364 479 Q392 463 407 434 Q455 463 502.5 479 Q550 495 588 495 Q637 495 665 481 Q693 467 707 445.5 Q721 424 724.5 398 Q728 372 728 348 L728 0 L672 0 Z " />
<glyph glyph-name="n" unicode="n" horiz-adv-x="490" d="M375 0 L375 327 Q375 355 371.5 377 Q368 399 358 415 Q348 431 329.5 439.5 Q311 448 281 448 Q262 448 240 443.5 Q218 439 196.5 431.5 Q175 424 154 414.5 Q133 405 115 395 L115 0 L59 0 L59 487 L114 487 Q114 484 114 478 Q114 472 114.5 465 Q115 458 115 451.5 Q115 445 115 442 Q115 441 116 441 Q117 441 117 440.5 Q117 440 118 440 Q162 467 211 481.5 Q260 496 295 496 Q343 496 370 483 Q397 470 410.5 449 Q424 428 427.5 402 Q431 376 431 351 L431 0 L375 0 Z " />
<glyph glyph-name="o" unicode="o" horiz-adv-x="505" d="M457 241 Q457 196 447.5 151.5 Q438 107 414.5 71.5 Q391 36 351 14.5 Q311 -7 250 -7 Q191 -7 152.5 13.5 Q114 34 91 68 Q68 102 58.5 146.5 Q49 191 49 239 Q49 287 60 333 Q71 379 95.5 415 Q120 451 160 473 Q200 495 257 495 Q316 495 354.5 473 Q393 451 416 415 Q439 379 448 333.5 Q457 288 457 241 Z M399 239 Q399 274 393.5 311.5 Q388 349 373 379.5 Q358 410 330 430 Q302 450 257 450 Q212 450 183 431 Q154 412 137 382 Q120 352 113.5 314 Q107 276 107 238 Q107 199 112.5 163 Q118 127 134.5 99.5 Q151 72 180 55 Q209 38 257 38 Q301 38 329 56 Q357 74 372.5 103 Q388 132 393.5 168 Q399 204 399 239 Z " />
<glyph glyph-name="p" unicode="p" horiz-adv-x="497" d="M117 436 Q149 462 189 477.5 Q229 493 270 493 Q320 493 354 474 Q388 455 408.5 422.5 Q429 390 438 346 Q447 302 447 252 Q447 198 437 150.5 Q427 103 404 68 Q381 33 344.5 13 Q308 -7 256 -7 Q227 -7 188.5 0 Q150 7 114 30 L114 -210 L59 -210 L59 487 L111 487 Q111 484 111.5 477 Q112 470 112 462.5 Q112 455 112.5 448.5 Q113 442 113 439 L117 436 Z M114 77 Q136 62 174 49.5 Q212 37 249 37 Q278 37 304 48 Q330 59 349 84.5 Q368 110 379 151.5 Q390 193 390 254 Q390 309 380.5 345.5 Q371 382 353 404.5 Q335 427 310 436.5 Q285 446 255 446 Q238 446 218.5 441 Q199 436 179.5 427.5 Q160 419 143 408.5 Q126 398 114 387 L114 77 Z " />
<glyph glyph-name="q" unicode="q" horiz-adv-x="498" d="M378 35 Q331 10 296 0.5 Q261 -9 230 -9 Q178 -9 143.5 9 Q109 27 88 59.5 Q67 92 58.5 137 Q50 182 50 235 Q50 288 60 335 Q70 382 93.5 417.5 Q117 453 155.5 473.5 Q194 494 252 494 Q305 494 351.5 483 Q398 472 438 454 L438 -210 L383 -210 L383 -81 Q383 -52 383 -24.5 Q383 3 384 31 L378 35 Z M235 37 Q274 37 313 51.5 Q352 66 382 83 L382 424 Q348 438 316.5 443.5 Q285 449 256 449 Q188 449 147.5 401.5 Q107 354 106 246 Q106 185 115 145 Q124 105 141 81 Q158 57 182 47 Q206 37 235 37 Z " />
<glyph glyph-name="r" unicode="r" horiz-adv-x="314" d="M128 421 Q144 434 165 448 Q186 462 208 473 Q230 484 251 491 Q272 498 288 498 Q296 498 302 494 Q308 490 308 479 Q308 470 302.5 452.5 Q297 435 289 424 Q277 423 255 418.5 Q233 414 208 409 Q183 404 161 399 Q139 394 127 393 L127 0 L70 0 L70 487 L126 487 Q126 484 125.5 474.5 Q125 465 124.5 455 Q124 445 123.5 435.5 Q123 426 123 423 L128 421 Z " />
<glyph glyph-name="s" unicode="s" horiz-adv-x="428" d="M61 70 Q104 49 141 43 Q178 37 205 37 Q232 37 255 42 Q278 47 295 58 Q312 69 322 86.5 Q332 104 332 128 Q332 150 322 165 Q312 180 296 191.5 Q280 203 259 211 Q238 219 216 227 Q185 237 156.5 248 Q128 259 105.5 274.5 Q83 290 69.5 311.5 Q56 333 56 365 Q56 399 69.5 424 Q83 449 105.5 464.5 Q128 480 158 487.5 Q188 495 221 495 Q247 495 286 488.5 Q325 482 357 465 Q354 457 349 444 Q344 431 340 424 Q304 438 274.5 443.5 Q245 449 220 449 Q175 449 142.5 429.5 Q110 410 110 364 Q110 345 121 331 Q132 317 149 306.5 Q166 296 185.5 288.5 Q205 281 222 276 Q252 266 281.5 255.5 Q311 245 334.5 229 Q358 213 372 189 Q386 165 386 129 Q386 93 372 67.5 Q358 42 333 25.5 Q308 9 275 1 Q242 -7 205 -7 Q162 -7 118 2 Q74 11 42 30 L61 70 Z " />
<glyph glyph-name="t" unicode="t" horiz-adv-x="333" d="M152 596 L152 487 L296 487 L296 444 L151 444 L151 123 Q151 87 165 64.5 Q179 42 224 42 Q258 42 317 59 L326 21 Q301 10 271.5 3 Q242 -4 213 -4 Q159 -4 127.5 21 Q96 46 96 106 L96 444 L26 444 L26 475 L98 492 L116 590 L152 596 Z " />
<glyph glyph-name="u" unicode="u" horiz-adv-x="481" d="M195 -10 Q145 -10 117.5 4 Q90 18 77 40 Q64 62 61.5 88.5 Q59 115 59 140 L59 487 L115 487 L115 157 Q115 129 117.5 106.5 Q120 84 129.5 68.5 Q139 53 157.5 44.5 Q176 36 208 36 Q239 36 283 53.5 Q327 71 367 106 L366 487 Q377 487 394 487.5 Q411 488 422 488 L422 0 L367 0 L367 59 L364 61 Q337 38 312 24 Q287 10 264.5 2.5 Q242 -5 224.5 -7.5 Q207 -10 195 -10 Z " />
<glyph glyph-name="v" unicode="v" horiz-adv-x="423" d="M175 0 Q135 119 95 239.5 Q55 360 12 486 L69 486 Q92 413 117 339.5 Q142 266 165 189 Q176 154 187 117.5 Q198 81 209 47 L214 47 Q220 66 232.5 108 Q245 150 260 196 Q273 236 286 276.5 Q299 317 311.5 354.5 Q324 392 335 426 Q346 460 354 486 L412 486 Q368 360 326.5 239 Q285 118 243 0 L175 0 L175 0 Z " />
<glyph glyph-name="w" unicode="w" horiz-adv-x="686" d="M503 55 L538 195 L617 487 L674 487 L534 0 L470 0 L382 275 L339 422 L335 422 L297 281 L215 0 L150 0 L12 487 L68 487 L145 206 L183 55 L187 55 L230 214 L309 487 L365 487 L458 192 L498 55 L503 55 Z " />
<glyph glyph-name="x" unicode="x" horiz-adv-x="406" d="M202 220 Q168 164 135 109.5 Q102 55 67 0 L7 0 Q48 64 87.5 128 Q127 192 169 256 Q133 314 96.5 371.5 Q60 429 23 487 L86 487 L202 294 Q232 342 260.5 390.5 Q289 439 319 487 L381 487 Q344 429 307 372 Q270 315 234 258 Q276 193 316.5 129 Q357 65 399 0 L335 0 L202 220 Z " />
<glyph glyph-name="y" unicode="y" horiz-adv-x="434" d="M217 37 Q220 45 231.5 84 Q243 123 259 173 Q271 210 284.5 252 Q298 294 311 336 Q324 378 336.5 417 Q349 456 359 487 L416 487 Q407 461 392 414.5 Q377 368 358.5 311 Q340 254 320 192 Q300 130 281 73.5 Q262 17 247 -29.5 Q232 -76 223 -102 Q206 -155 178.5 -186 Q151 -217 100 -217 Q86 -216 61.5 -214.5 Q37 -213 -1 -202 L8 -160 Q37 -166 54 -168.5 Q71 -171 88 -171 Q102 -171 113.5 -169 Q125 -167 135.5 -159.5 Q146 -152 154.5 -137.5 Q163 -123 171 -99 L204 2 L175 2 Q168 25 155.5 63.5 Q143 102 128 148.5 Q113 195 96 245 Q79 295 64 341.5 Q49 388 36 426 Q23 464 16 487 L71 487 Q75 474 83 449 Q91 424 100.5 393.5 Q110 363 121 329.5 Q132 296 141.5 265.5 Q151 235 159 210 Q167 185 171 171 L213 37 L217 37 L217 37 Z " />
<glyph glyph-name="z" unicode="z" horiz-adv-x="402" d="M88 43 L385 44 L385 0 L14 0 L14 39 L305 439 L302 443 L41 443 L41 487 L375 487 L375 445 L86 48 L88 43 Z " />
<glyph glyph-name="braceleft" unicode="&#x7b;" horiz-adv-x="247" d="M177 -165 Q151 -165 135.5 -155 Q120 -145 111.5 -129.5 Q103 -114 100.5 -96 Q98 -78 98 -62 L98 169 Q98 185 96 202.5 Q94 220 87 235.5 Q80 251 66.5 263 Q53 275 30 280 L30 314 Q51 318 64 328.5 Q77 339 84.5 354.5 Q92 370 95 388.5 Q98 407 98 426 L98 572 Q98 591 100 613 Q102 635 110 654.5 Q118 674 133.5 687 Q149 700 175 700 L222 700 L222 657 L199 657 Q173 657 162 640 Q151 623 151 593 L151 423 Q151 403 148.5 383.5 Q146 364 140 347 Q134 330 123 317 Q112 304 94 298 Q114 287 125.5 273.5 Q137 260 142.5 242.5 Q148 225 149.5 203.5 Q151 182 151 155 L151 -60 Q151 -86 158.5 -104.5 Q166 -123 195 -123 L222 -123 L222 -165 L177 -165 Z " />
<glyph glyph-name="bar" unicode="&#x7c;" horiz-adv-x="222" d="M87 -137 L87 698 L131 698 L131 -137 L87 -137 Z " />
<glyph glyph-name="braceright" unicode="&#x7d;" horiz-adv-x="247" d="M28 -165 L28 -123 L55 -123 Q84 -123 91 -104.5 Q98 -86 98 -60 L98 155 Q98 182 99.5 203.5 Q101 225 106.5 242.5 Q112 260 123.5 273.5 Q135 287 156 298 Q138 304 126.5 317 Q115 330 109 347 Q103 364 100.5 383.5 Q98 403 98 423 L98 593 Q98 623 87 640 Q76 657 50 657 L28 657 L28 700 L74 700 Q100 700 115.5 687 Q131 674 139 654.5 Q147 635 149 613 Q151 591 151 572 L151 426 Q151 407 154 388.5 Q157 370 164.5 354.5 Q172 339 185 328.5 Q198 318 219 314 L219 280 Q196 275 182.5 263 Q169 251 162 235.5 Q155 220 153 202.5 Q151 185 151 169 L151 -62 Q151 -78 148.5 -96 Q146 -114 137.5 -129.5 Q129 -145 113.5 -155 Q98 -165 72 -165 L28 -165 Z " />
<glyph glyph-name="asciitilde" unicode="&#x7e;" horiz-adv-x="532" d="M382 248 Q354 248 323.5 254.5 Q293 261 263 269 Q233 277 205 283.5 Q177 290 156 290 L96 246 L71 265 Q88 300 110 318.5 Q132 337 162 337 Q185 337 216 330.5 Q247 324 279 316 Q311 308 340.5 301.5 Q370 295 389 295 L446 338 L470 320 Q455 285 433.5 266.5 Q412 248 382 248 Z " />
<glyph glyph-name="sterling" unicode="&#xa3;" horiz-adv-x="532" d="M52 0 L52 44 Q75 54 90 75 Q105 96 114 122.5 Q123 149 126.5 178 Q130 207 132 233 L137 329 L68 329 L68 369 L139 369 L144 481 Q146 524 155.5 562 Q165 600 186.5 629 Q208 658 242.5 675 Q277 692 329 692 Q371 692 414 684 Q457 676 486 662 L468 618 Q428 635 395 639.5 Q362 644 333 644 Q293 644 267.5 632 Q242 620 227 598.5 Q212 577 205.5 547 Q199 517 198 482 L193 369 L388 369 L388 329 L191 329 L187 233 Q186 207 182.5 179 Q179 151 172 125.5 Q165 100 154 78.5 Q143 57 128 44 L479 44 L479 0 L52 0 Z " />
<glyph glyph-name="yen" unicode="&#xa5;" horiz-adv-x="532" d="M235 243 L235 294 L68 294 L68 328 L218 328 L43 683 L104 683 L203 475 L263 347 L266 347 L332 483 L430 683 L488 683 L307 328 L461 328 L461 294 L292 294 L292 243 L461 243 L461 209 L292 209 L292 0 L235 0 L235 209 L68 209 L68 243 L235 243 Z " />
<glyph glyph-name="section" unicode="&#xa7;" horiz-adv-x="456" d="M398 299 Q398 267 382 234 Q366 201 329 169 Q354 153 369.5 135.5 Q385 118 393 101.5 Q401 85 403.5 71 Q406 57 406 48 Q406 8 390 -21 Q374 -50 348 -68.5 Q322 -87 287 -96 Q252 -105 215 -105 Q167 -105 132.5 -97.5 Q98 -90 69 -81 L81 -41 Q125 -55 156 -59.5 Q187 -64 216 -64 Q276 -64 314.5 -36.5 Q353 -9 353 42 Q353 84 322.5 110 Q292 136 247 156 Q215 171 181.5 185 Q148 199 121 217 Q94 235 76.5 259.5 Q59 284 59 320 Q59 356 77.5 390.5 Q96 425 137 454 Q102 478 87 503 Q72 528 72 560 Q72 596 85 623.5 Q98 651 121.5 669 Q145 687 177 696.5 Q209 706 247 706 Q295 706 327 699 Q359 692 386 683 L372 642 Q334 654 305.5 658.5 Q277 663 246 663 Q223 663 201 657.5 Q179 652 161.5 640 Q144 628 133.5 609 Q123 590 123 563 Q123 540 137 523 Q151 506 172.5 491.5 Q194 477 221 464.5 Q248 452 274 440 Q336 410 367 378 Q398 346 398 299 Z M349 292 Q349 317 335.5 336.5 Q322 356 298.5 372 Q275 388 243 403 Q211 418 174 436 Q146 413 128 385 Q110 357 110 331 Q110 301 127 281 Q144 261 170 246 Q196 231 228.5 218 Q261 205 292 189 Q321 216 335 243.5 Q349 271 349 292 Z " />
<glyph glyph-name="quotesingle" unicode="&#x27;" horiz-adv-x="166" d="M68 493 L56 684 L111 684 L99 493 L68 493 Z " />
<glyph glyph-name="quotedblleft" unicode="&#x201c;" horiz-adv-x="303" d="M146 568 Q146 551 134 538.5 Q122 526 104 526 Q83 526 70 540.5 Q57 555 57 579 Q57 613 79 650.5 Q101 688 136 710 Q139 706 143.5 701 Q148 696 151 691 Q133 672 124.5 651.5 Q116 631 114 608 Q128 605 137 594.5 Q146 584 146 568 Z M255 568 Q255 551 243 538.5 Q231 526 213 526 Q192 526 179 540.5 Q166 555 166 579 Q166 595 172 614 Q178 633 188.5 650.5 Q199 668 213.5 683.5 Q228 699 245 710 L260 691 Q224 654 223 608 Q237 605 246 594.5 Q255 584 255 568 Z " />
<glyph glyph-name="guillemotleft" unicode="&#xab;" horiz-adv-x="403" d="M64 202 L205 353 L229 333 L122 184 L230 35 L206 16 L64 166 L64 202 Z M190 202 L331 353 L356 333 L248 184 L357 35 L332 16 L190 166 L190 202 Z " />
<glyph glyph-name="endash" unicode="&#x2013;" horiz-adv-x="500" d="M28 231 L28 277 L474 277 L474 231 L28 231 Z " />
<glyph glyph-name="dagger" unicode="&#x2020;" horiz-adv-x="461" d="M253 435 L253 -57 L202 -57 L202 435 L39 435 L39 481 L202 481 L202 683 L253 683 L253 481 L416 481 L416 435 L253 435 Z " />
<glyph glyph-name="periodcentered" unicode="&#xb7;" horiz-adv-x="180" d="M137 283 Q137 265 123.5 251.5 Q110 238 93 238 Q76 238 62 251.5 Q48 265 48 283 Q48 301 61.5 313.5 Q75 326 93 326 Q110 326 123.5 313.5 Q137 301 137 283 Z " />
<glyph glyph-name="bullet" unicode="&#x2022;" horiz-adv-x="290" d="M232 271 Q232 234 206.5 208 Q181 182 144 182 Q108 182 82.5 208 Q57 234 57 271 Q57 309 82.5 334.5 Q108 360 144 360 Q181 360 206.5 334.5 Q232 309 232 271 Z " />
<glyph glyph-name="quotedblright" unicode="&#x201d;" horiz-adv-x="303" d="M173 668 Q173 685 184.5 698 Q196 711 215 711 Q236 711 248.5 696.5 Q261 682 261 658 Q261 641 255.5 622.5 Q250 604 239.5 586.5 Q229 569 214.5 553 Q200 537 182 527 L167 546 Q203 583 204 629 Q173 636 173 668 Z M64 668 Q64 685 75.5 698 Q87 711 106 711 Q127 711 139.5 696.5 Q152 682 152 658 Q152 641 146.5 622.5 Q141 604 130.5 586.5 Q120 569 105.5 553 Q91 537 74 527 L58 546 Q77 565 85.5 585.5 Q94 606 96 629 Q81 632 72.5 642.5 Q64 653 64 668 Z " />
<glyph glyph-name="guillemotright" unicode="&#xbb;" horiz-adv-x="403" d="M348 166 L206 16 L182 35 L290 184 L182 333 L207 353 L348 202 L348 166 Z M222 166 L80 16 L55 35 L163 184 L56 333 L81 353 L222 202 L222 166 Z " />
<glyph glyph-name="ellipsis" unicode="&#x2026;" horiz-adv-x="570" d="M518 37 Q518 20 505.5 7 Q493 -6 476 -6 Q459 -6 446.5 7 Q434 20 434 37 Q434 54 446.5 66 Q459 78 476 78 Q493 78 505.5 66 Q518 54 518 37 Z M318 37 Q318 20 306 7 Q294 -6 277 -6 Q260 -6 247.5 7 Q235 20 235 37 Q235 54 247 66 Q259 78 277 78 Q294 78 306 66 Q318 54 318 37 Z M128 37 Q128 20 115.5 7 Q103 -6 87 -6 Q70 -6 57 7 Q44 20 44 37 Q44 54 57 66 Q70 78 87 78 Q104 78 116 66 Q128 54 128 37 Z " />
<glyph glyph-name="perthousand" unicode="&#x2030;" horiz-adv-x="1187" d="M341 462 Q341 427 334 391.5 Q327 356 309 327.5 Q291 299 261.5 281 Q232 263 187 263 Q136 263 105 280.5 Q74 298 57 326 Q40 354 34.5 389.5 Q29 425 29 461 Q29 494 35 530.5 Q41 567 58 597.5 Q75 628 106.5 648 Q138 668 189 668 Q241 668 271 647 Q301 626 316.5 595 Q332 564 336.5 528 Q341 492 341 462 Z M293 461 Q293 483 290.5 512 Q288 541 277.5 567 Q267 593 246.5 611 Q226 629 189 629 Q151 629 129 612 Q107 595 96 569.5 Q85 544 81.5 514.5 Q78 485 78 460 Q78 427 82 398 Q86 369 98 347 Q110 325 131.5 312.5 Q153 300 189 300 Q221 300 241 314.5 Q261 329 272.5 352.5 Q284 376 288.5 404.5 Q293 433 293 461 Z M285 -23 L243 -23 L530 699 L570 699 L285 -23 Z M789 196 Q789 161 782 125.5 Q775 90 757 61 Q739 32 709.5 14 Q680 -4 635 -4 Q584 -4 553 13.5 Q522 31 505 59 Q488 87 482.5 123 Q477 159 477 195 Q477 228 483 264.5 Q489 301 506 331.5 Q523 362 554.5 382 Q586 402 637 402 Q689 402 719 381 Q749 360 764.5 329 Q780 298 784.5 262 Q789 226 789 196 Z M741 195 Q741 217 738.5 246.5 Q736 276 725.5 301.5 Q715 327 694.5 345 Q674 363 637 363 Q599 363 577 346 Q555 329 544 303.5 Q533 278 529.5 248.5 Q526 219 526 194 Q526 161 530 132 Q534 103 546 81 Q558 59 579.5 46.5 Q601 34 637 34 Q669 34 689 48.5 Q709 63 720.5 86.5 Q732 110 736.5 138.5 Q741 167 741 195 Z M1157 196 Q1157 161 1150 125.5 Q1143 90 1125 61 Q1107 32 1077.5 14 Q1048 -4 1003 -4 Q952 -4 921 13.5 Q890 31 873 59 Q856 87 850.5 123 Q845 159 845 195 Q845 228 851 264.5 Q857 301 874 331.5 Q891 362 922.5 382 Q954 402 1005 402 Q1057 402 1087 381 Q1117 360 1132.5 329 Q1148 298 1152.5 262 Q1157 226 1157 196 Z M1109 195 Q1109 217 1106.5 246.5 Q1104 276 1093.5 301.5 Q1083 327 1062.5 345 Q1042 363 1005 363 Q967 363 945 346 Q923 329 912 303.5 Q901 278 897.5 248.5 Q894 219 894 194 Q894 161 898 132 Q902 103 914 81 Q926 59 947.5 46.5 Q969 34 1005 34 Q1037 34 1057 48.5 Q1077 63 1088.5 86.5 Q1100 110 1104.5 138.5 Q1109 167 1109 195 Z " />
<glyph glyph-name="grave" unicode="&#x60;" horiz-adv-x="478" d="M133 679 L178 720 L291 567 L263 543 L133 679 Z " />
<glyph glyph-name="dieresis" unicode="&#xa8;" horiz-adv-x="468" d="M345 605 Q345 590 334 580 Q323 570 307 570 Q292 570 282 580 Q272 590 272 605 Q272 620 282.5 630.5 Q293 641 307 641 Q323 641 334 631 Q345 621 345 605 Z M182 605 Q182 590 171.5 580 Q161 570 144 570 Q129 570 118.5 580 Q108 590 108 605 Q108 620 119 630.5 Q130 641 144 641 Q161 641 171.5 631 Q182 621 182 605 Z " />
<glyph glyph-name="emdash" unicode="&#x2014;" horiz-adv-x="1000" d="M30 231 L30 277 L966 277 L966 231 L30 231 Z " />
<glyph glyph-name="oe" unicode="&#x153;" horiz-adv-x="820" d="M769 37 Q727 15 686.5 4.5 Q646 -6 598 -6 Q522 -6 480.5 24.5 Q439 55 419 106 Q399 58 357.5 25.5 Q316 -7 243 -7 Q184 -7 145.5 13.5 Q107 34 84 68 Q61 102 51.5 146.5 Q42 191 42 239 Q42 287 53 333 Q64 379 88.5 415 Q113 451 152.5 473 Q192 495 249 495 Q322 495 362 460.5 Q402 426 421 374 Q430 398 444.5 419.5 Q459 441 480.5 458 Q502 475 531 485 Q560 495 598 495 Q645 495 676.5 481.5 Q708 468 728.5 446.5 Q749 425 760 398.5 Q771 372 776 346 Q781 320 782 298 Q783 276 783 263 L783 235 L451 235 Q451 196 457.5 160.5 Q464 125 480.5 98 Q497 71 526 55 Q555 39 600 39 Q643 39 678 47.5 Q713 56 754 75 L769 37 Z M391 239 Q391 274 386 311.5 Q381 349 365.5 379.5 Q350 410 322 430 Q294 450 249 450 Q204 450 175.5 431 Q147 412 130 382 Q113 352 106.5 314 Q100 276 100 238 Q100 199 105.5 163 Q111 127 127 99.5 Q143 72 172.5 55 Q202 38 249 38 Q294 38 321.5 56 Q349 74 364.5 103 Q380 132 385.5 168 Q391 204 391 239 Z M729 272 Q729 312 722.5 345 Q716 378 700.5 401.5 Q685 425 659.5 438 Q634 451 597 451 Q558 451 531.5 436 Q505 421 488 396.5 Q471 372 463 339.5 Q455 307 452 272 L729 272 Z " />
<glyph glyph-name="trademark" unicode="&#x2122;" horiz-adv-x="679" d="M534 601 Q544 621 553.5 641.5 Q563 662 574 682 L614 682 L614 372 L577 372 L577 613 L576 613 Q564 589 552.5 565.5 Q541 542 528 518 L482 423 L449 423 Q437 447 426 470.5 Q415 494 404 517 Q393 540 381.5 563 Q370 586 359 610 L358 610 L358 372 L320 372 L320 682 L361 682 L409 584 Q423 554 437.5 524 Q452 494 467 464 L534 601 Z M139 373 L139 650 L38 650 L38 682 L283 682 L283 650 L179 650 L179 373 L139 373 Z " />
<glyph glyph-name="divide" unicode="&#xf7;" horiz-adv-x="532" d="M309 444 Q309 427 297 414.5 Q285 402 268 402 Q251 402 238.5 414.5 Q226 427 226 444 Q226 461 238.5 473 Q251 485 268 485 Q285 485 297 473 Q309 461 309 444 Z M79 276 L79 319 L454 319 L454 276 L79 276 Z M309 150 Q309 133 297 120.5 Q285 108 268 108 Q251 108 238.5 120.5 Q226 133 226 150 Q226 167 238.5 178.5 Q251 190 268 190 Q285 190 297 178.5 Q309 167 309 150 Z " />
<glyph glyph-name="brokenbar" unicode="&#xa6;" horiz-adv-x="222" d="M87 348 L87 698 L131 698 L131 348 L87 348 Z M131 249 L131 -137 L87 -137 L87 249 L131 249 Z " />
<glyph glyph-name="degree" unicode="&#xb0;" horiz-adv-x="339" d="M296 542 Q296 516 286.5 493 Q277 470 260 453.5 Q243 437 220.5 427.5 Q198 418 172 418 Q112 418 78.5 453.5 Q45 489 45 542 Q45 567 55 590 Q65 613 82 630.5 Q99 648 122.5 658.5 Q146 669 172 669 Q198 669 220.5 658.5 Q243 648 260 630.5 Q277 613 286.5 590 Q296 567 296 542 Z M259 541 Q259 559 251.5 575.5 Q244 592 232 604.5 Q220 617 204 624.5 Q188 632 170 632 Q152 632 136 624.5 Q120 617 108 604.5 Q96 592 89 575.5 Q82 559 82 541 Q82 523 89 507.5 Q96 492 108 480 Q120 468 136 461 Q152 454 170 454 Q188 454 204 461 Q220 468 232 480 Q244 492 251.5 507.5 Q259 523 259 541 Z " />
<glyph glyph-name="registered" unicode="&#xae;" horiz-adv-x="573" d="M282 708 Q331 708 374 689.5 Q417 671 449 639 Q481 607 500 564.5 Q519 522 519 473 Q519 424 500 381 Q481 338 449 306.5 Q417 275 374 257 Q331 239 282 239 Q233 239 190 257 Q147 275 114.5 306.5 Q82 338 63.5 380.5 Q45 423 45 473 Q45 522 63.5 564.5 Q82 607 114.5 639 Q147 671 190 689.5 Q233 708 282 708 Z M282 681 Q239 681 201.5 664.5 Q164 648 135.5 619.5 Q107 591 90.5 553.5 Q74 516 74 473 Q74 430 90 392.5 Q106 355 134 327 Q162 299 200 283 Q238 267 282 267 Q326 267 364 282.5 Q402 298 430 326 Q458 354 474 391.5 Q490 429 490 473 Q490 516 474 553.5 Q458 591 429.5 619.5 Q401 648 363 664.5 Q325 681 282 681 Z M335 467 Q349 461 357 448.5 Q365 436 370 419 L396 330 L361 330 L336 412 Q327 441 316 450 Q305 459 281 459 L235 459 L235 330 L201 330 L201 621 L296 621 Q342 621 363 598.5 Q384 576 384 543 Q384 519 372.5 498 Q361 477 335 469 L335 467 Z M235 485 L291 485 Q317 485 333 498 Q349 511 349 540 Q349 569 332.5 581.5 Q316 594 290 594 L235 594 L235 485 Z " />
<glyph glyph-name="copyright" unicode="&#xa9;" horiz-adv-x="828" d="M781 334 Q781 259 752 193.5 Q723 128 673 79.5 Q623 31 557 2.5 Q491 -26 416 -26 Q341 -26 275 2.5 Q209 31 160 79.5 Q111 128 82.5 193.5 Q54 259 54 334 Q54 408 82.5 473 Q111 538 160 587 Q209 636 275 664 Q341 692 416 692 Q491 692 557 664 Q623 636 673 587 Q723 538 752 473 Q781 408 781 334 Z M745 334 Q745 401 719.5 460.5 Q694 520 649.5 564 Q605 608 545 633.5 Q485 659 416 659 Q348 659 288.5 633.5 Q229 608 184 564 Q139 520 113 460.5 Q87 401 87 334 Q87 266 113 207 Q139 148 184 104 Q229 60 288.5 34.5 Q348 9 416 9 Q485 9 545 34.5 Q605 60 649.5 104 Q694 148 719.5 207 Q745 266 745 334 Z M262 325 Q262 282 269 243.5 Q276 205 295 176.5 Q314 148 347 131 Q380 114 431 114 Q441 114 455.5 115 Q470 116 486 118 Q502 120 518 123 Q534 126 548 131 L557 97 Q545 92 529 88 Q513 84 495 81 Q477 78 458.5 76.5 Q440 75 423 75 Q367 75 327.5 93 Q288 111 263 143.5 Q238 176 227 222.5 Q216 269 216 326 Q216 364 225 409 Q234 454 257.5 493 Q281 532 322 558 Q363 584 427 584 Q468 584 498.5 578.5 Q529 573 549 565 L539 528 Q509 539 481.5 542.5 Q454 546 430 546 Q388 546 356.5 530.5 Q325 515 304 486 Q283 457 272.5 416 Q262 375 262 325 Z " />
<glyph glyph-name="dieresistonos" unicode="&#x385;" horiz-adv-x="479" d="M356 606 Q356 590 344.5 580 Q333 570 318 570 Q303 570 293 580 Q283 590 283 606 Q283 621 294 631.5 Q305 642 319 642 Q334 642 345 632 Q356 622 356 606 Z M171 606 Q171 590 160.5 580 Q150 570 135 570 Q119 570 108.5 580 Q98 590 98 606 Q98 621 108.5 631.5 Q119 642 133 642 Q150 642 160.5 632 Q171 622 171 606 Z M207 543 L176 557 L260 727 L311 699 L207 543 Z " />
<glyph glyph-name="tonos" unicode="&#x384;" horiz-adv-x="480" d="M198 540 L169 562 L275 720 L322 683 L198 540 Z " />
<glyph glyph-name="sfthyphen" unicode="&#xad;" horiz-adv-x="346" d="M52 233 L52 283 L294 283 L294 233 L52 233 Z " />
<glyph glyph-name="Gamma" unicode="&#x393;" horiz-adv-x="489" d="M80 0 L80 683 L471 683 L471 635 L139 635 L139 0 L80 0 Z " />
<glyph glyph-name="&amp;#x394;" unicode="&#x394;" horiz-adv-x="599" d="M568 0 L29 0 L29 36 Q39 66 57 117.5 Q75 169 97.5 231 Q120 293 144.5 360.5 Q169 428 192 490 Q215 552 233.5 603 Q252 654 263 684 L335 684 L568 41 L568 0 Z M296 633 L245 487 L87 45 L508 45 L351 489 L301 632 L296 633 Z " />
<glyph glyph-name="&amp;#x2206;" unicode="&#x2206;" horiz-adv-x="599" d="M568 0 L29 0 L29 36 Q39 66 57 117.5 Q75 169 97.5 231 Q120 293 144.5 360.5 Q169 428 192 490 Q215 552 233.5 603 Q252 654 263 684 L335 684 L568 41 L568 0 Z M296 633 L245 487 L87 45 L508 45 L351 489 L301 632 L296 633 Z " />
<glyph glyph-name="Theta" unicode="&#x398;" horiz-adv-x="656" d="M179 382 L475 382 L475 332 L179 332 L179 382 Z M606 339 Q606 265 589 202 Q572 139 537.5 92.5 Q503 46 452 19.5 Q401 -7 334 -7 Q256 -7 202 17 Q148 41 114.5 85 Q81 129 65.5 192.5 Q50 256 50 336 Q50 406 64.5 471 Q79 536 112 585.5 Q145 635 199.5 664.5 Q254 694 334 694 Q415 694 467.5 664.5 Q520 635 551 585.5 Q582 536 594 472 Q606 408 606 339 Z M544 336 Q544 388 536.5 443.5 Q529 499 506.5 544.5 Q484 590 442.5 619 Q401 648 334 648 Q266 648 223 621 Q180 594 155 550 Q130 506 120.5 449.5 Q111 393 111 334 Q111 190 163 114.5 Q215 39 331 39 Q386 39 426 62.5 Q466 86 492 126 Q518 166 531 220 Q544 274 544 336 Z " />
<glyph glyph-name="Lambda" unicode="&#x39b;" horiz-adv-x="551" d="M310 524 L277 633 L274 633 Q274 632 270 618.5 Q266 605 260.5 587.5 Q255 570 249 551.5 Q243 533 240 523 Q238 517 228.5 487.5 Q219 458 205 414 Q191 370 174 315.5 Q157 261 139 205 Q121 149 104.5 95.5 Q88 42 75 0 L15 0 Q24 30 42.5 85.5 Q61 141 83 209 Q105 277 129 350.5 Q153 424 174.5 490 Q196 556 213 608 Q230 660 238 684 L314 684 L535 0 L474 0 L310 524 Z " />
<glyph glyph-name="Xi" unicode="&#x39e;" horiz-adv-x="541" d="M46 629 L46 683 L494 683 L494 629 L46 629 Z M511 54 L511 0 L29 0 L29 54 L511 54 Z M94 331 L94 385 L453 385 L453 331 L94 331 Z " />
<glyph glyph-name="Pi" unicode="&#x3a0;" horiz-adv-x="626" d="M485 0 L485 633 L140 633 L141 0 L80 0 L80 684 L546 684 L546 0 L485 0 Z " />
<glyph glyph-name="Sigma" unicode="&#x3a3;" horiz-adv-x="521" d="M484 683 L484 635 L111 635 L129 600 L286 372 L286 353 L105 51 Q114 50 124 50 Q134 50 144 48 L497 48 L497 0 L34 0 L34 46 Q82 125 129 204 Q176 283 223 362 L37 637 L37 683 L484 683 Z " />
<glyph glyph-name="Alpha" unicode="&#x391;" horiz-adv-x="551" d="M474 0 L414 187 L133 187 Q118 139 104 93 Q90 47 75 0 L14 0 L237 683 L313 683 Q370 511 424.5 341 Q479 171 535 0 L474 0 Z M400 233 Q377 306 354.5 378 Q332 450 309 522 Q306 533 301.5 547.5 Q297 562 292.5 577 Q288 592 283.5 606.5 Q279 621 276 632 L273 632 L239 522 L149 233 L400 233 Z " />
<glyph glyph-name="Beta" unicode="&#x392;" horiz-adv-x="584" d="M413 353 Q446 341 467.5 321 Q489 301 501.5 277 Q514 253 519 228 Q524 203 524 182 Q524 140 509.5 106.5 Q495 73 469.5 49.5 Q444 26 410.5 13 Q377 0 339 0 L80 0 L80 682 L307 682 Q406 682 454.5 634 Q503 586 503 511 Q503 497 499.5 478 Q496 459 486 438 Q476 417 458.5 396.5 Q441 376 413 360 L413 353 Z M138 331 L138 46 L319 46 Q358 46 386 57.5 Q414 69 431.5 89 Q449 109 457 134.5 Q465 160 465 189 Q465 217 455 242.5 Q445 268 426 287.5 Q407 307 379.5 319 Q352 331 318 331 L138 331 Z M138 378 L301 378 Q367 378 405.5 412.5 Q444 447 444 505 Q444 533 435.5 557 Q427 581 409 598.5 Q391 616 363 626 Q335 636 296 636 L138 636 L138 378 Z " />
<glyph glyph-name="Epsilon" unicode="&#x395;" horiz-adv-x="531" d="M80 0 L80 683 L473 683 L473 637 L139 637 L139 385 L425 385 L425 339 L139 339 L139 47 L490 47 L490 0 L80 0 Z " />
<glyph glyph-name="Zeta" unicode="&#x396;" horiz-adv-x="502" d="M43 684 L466 684 L466 636 L90 49 L483 49 L483 0 L19 0 L19 48 L395 635 L43 635 L43 684 Z " />
<glyph glyph-name="Eta" unicode="&#x397;" horiz-adv-x="626" d="M485 0 L485 336 L140 336 Q140 321 140 294.5 Q140 268 140 236 Q140 204 140.5 168.5 Q141 133 141 101 Q141 69 141 42 Q141 15 141 0 L80 0 L80 683 L141 683 Q141 663 141 621.5 Q141 580 140.5 534.5 Q140 489 140 447.5 Q140 406 140 386 L485 386 L485 683 L546 683 L546 0 L485 0 Z " />
<glyph glyph-name="Iota" unicode="&#x399;" horiz-adv-x="238" d="M90 0 L90 684 L148 684 L148 0 L90 0 Z " />
<glyph glyph-name="Kappa" unicode="&#x39a;" horiz-adv-x="550" d="M139 0 L80 0 L80 684 L139 684 L139 354 L459 684 L529 684 L261 410 L536 0 L469 0 L222 369 L139 285 L139 0 Z " />
<glyph glyph-name="Mu" unicode="&#x39c;" horiz-adv-x="794" d="M146 682 Q200 564 252 445 Q304 326 358 207 L394 124 L399 124 Q409 145 418 166 Q427 187 436 208 Q489 326 542.5 445 Q596 564 650 682 L713 682 L713 0 L656 0 Q656 143 655.5 285 Q655 427 655 570 L653 570 L607 466 Q583 413 558 358.5 Q533 304 509.5 251.5 Q486 199 464 150.5 Q442 102 424 62 L367 62 Q360 77 353 93 Q346 109 337 129.5 Q328 150 316 175.5 Q304 201 288 236 Q268 284 242 340.5 Q216 397 183 469 L139 571 L136 571 L136 0 L80 0 L80 682 L146 682 L146 682 Z " />
<glyph glyph-name="Phi" unicode="&#x3a6;" horiz-adv-x="783" d="M739 350 Q739 295 718 248 Q697 201 656.5 165.5 Q616 130 557.5 108.5 Q499 87 425 84 L425 0 L368 0 L368 84 Q283 88 221.5 108 Q160 128 120.5 162 Q81 196 62.5 243 Q44 290 44 347 Q44 396 63 442.5 Q82 489 121.5 526.5 Q161 564 222 588 Q283 612 368 616 L368 683 L425 683 L425 616 Q511 613 571 589.5 Q631 566 668.5 529 Q706 492 722.5 445.5 Q739 399 739 350 Z M102 345 Q102 241 170.5 188 Q239 135 368 129 L368 570 Q296 566 245.5 546.5 Q195 527 163 496.5 Q131 466 116.5 427 Q102 388 102 345 Z M681 347 Q681 385 669 423 Q657 461 627.5 492.5 Q598 524 548.5 545.5 Q499 567 425 570 L425 129 Q486 131 533.5 149 Q581 167 614 196 Q647 225 664 264 Q681 303 681 347 Z " />
<glyph glyph-name="Psi" unicode="&#x3a8;" horiz-adv-x="736" d="M663 683 Q663 618 663.5 554 Q664 490 664 425 Q664 371 646 327 Q628 283 593.5 252 Q559 221 509 203.5 Q459 186 396 184 L396 0 L338 0 L338 183 Q207 191 139.5 251.5 Q72 312 72 432 L72 683 L130 683 L130 427 Q130 335 185 285 Q240 235 338 230 L338 683 L396 683 L396 230 Q500 236 553 285.5 Q606 335 606 432 L606 683 L663 683 L663 683 Z " />
<glyph glyph-name="Omega" unicode="&#x3a9;" horiz-adv-x="677" d="M340 694 Q421 694 474 665 Q527 636 559 588.5 Q591 541 604 479.5 Q617 418 617 354 Q617 307 611 261.5 Q605 216 591.5 175.5 Q578 135 555 101 Q532 67 499 45 Q500 45 501 44 L635 44 L635 0 L403 0 L403 47 Q447 60 476 88.5 Q505 117 522.5 157.5 Q540 198 547 247.5 Q554 297 554 352 Q554 403 545.5 455.5 Q537 508 513.5 550.5 Q490 593 448.5 620 Q407 647 340 647 Q278 647 236.5 623 Q195 599 169 558.5 Q143 518 132 465 Q121 412 121 354 Q121 296 127 245.5 Q133 195 149 155 Q165 115 193 87.5 Q221 60 265 48 L265 0 L40 0 L40 44 L166 44 L167 45 Q132 66 110.5 100 Q89 134 78 175 Q67 216 63.5 261.5 Q60 307 60 351 Q60 417 75 479 Q90 541 123 589 Q156 637 209.5 665.5 Q263 694 340 694 Z " />
<glyph glyph-name="Nu" unicode="&#x39d;" horiz-adv-x="658" d="M520 100 L520 683 L578 683 L577 0 L520 0 Q507 19 483.5 55.5 Q460 92 431 137 Q402 182 370.5 231.5 Q339 281 310 326 Q281 371 257 407.5 Q233 444 221 463 L141 592 Q140 592 139 591.5 Q138 591 137 591 L137 0 L80 0 L80 683 L140 683 Q152 665 175.5 629 Q199 593 228 548 Q257 503 289 453.5 Q321 404 349.5 359 Q378 314 401 278 Q424 242 436 224 L516 100 L520 100 Z " />
<glyph glyph-name="Omicron" unicode="&#x39f;" horiz-adv-x="676" d="M616 339 Q616 265 599 202 Q582 139 547.5 92.5 Q513 46 462 19.5 Q411 -7 344 -7 Q266 -7 212 17 Q158 41 124.5 85 Q91 129 75.5 192.5 Q60 256 60 336 Q60 406 74.5 471 Q89 536 122 585.5 Q155 635 209.5 664.5 Q264 694 344 694 Q425 694 477.5 664.5 Q530 635 561 585.5 Q592 536 604 472 Q616 408 616 339 Z M554 336 Q554 388 546.5 443.5 Q539 499 516.5 544.5 Q494 590 452.5 619 Q411 648 344 648 Q276 648 233 621 Q190 594 165 550 Q140 506 130.5 449.5 Q121 393 121 334 Q121 190 173 114.5 Q225 39 341 39 Q396 39 436 62.5 Q476 86 502 126 Q528 166 541 220 Q554 274 554 336 Z " />
<glyph glyph-name="Rho" unicode="&#x3a1;" horiz-adv-x="525" d="M496 490 Q496 460 487 424.5 Q478 389 456 359 Q434 329 396 309 Q358 289 300 289 L139 289 L140 0 L80 0 L80 684 L291 684 Q334 684 371.5 672 Q409 660 437 636 Q465 612 480.5 575.5 Q496 539 496 490 Z M139 637 L139 335 L293 335 Q319 335 344.5 342 Q370 349 390 366.5 Q410 384 422.5 413.5 Q435 443 435 487 Q435 525 423.5 553.5 Q412 582 392.5 600.5 Q373 619 346.5 628 Q320 637 290 637 L139 637 Z " />
<glyph glyph-name="Tau" unicode="&#x3a4;" horiz-adv-x="536" d="M239 0 L239 636 L19 636 L19 684 L516 684 L516 636 L298 636 L297 0 L239 0 Z " />
<glyph glyph-name="Upsilon" unicode="&#x3a5;" horiz-adv-x="500" d="M216 304 L12 684 L75 684 L182 481 L245 356 L249 356 L314 480 L425 684 L487 684 L278 308 L278 0 L216 0 L216 304 Z " />
<glyph glyph-name="Chi" unicode="&#x3a7;" horiz-adv-x="528" d="M228 354 Q178 436 128 518 Q78 600 27 683 L93 683 Q136 610 178.5 538.5 Q221 467 265 395 L438 683 L503 683 Q452 599 400.5 517 Q349 435 298 352 L514 0 L448 0 L262 310 L77 0 L13 0 Q67 89 120.5 177 Q174 265 228 354 Z " />
<glyph glyph-name="Alphatonos" unicode="&#x386;" horiz-adv-x="551" d="M474 0 L414 187 L133 187 Q118 139 104 93 Q90 47 75 0 L14 0 L237 683 L313 683 Q370 511 424.5 341 Q479 171 535 0 L474 0 Z M400 233 Q377 306 354.5 378 Q332 450 309 522 Q306 533 301.5 547.5 Q297 562 292.5 577 Q288 592 283.5 606.5 Q279 621 276 632 L273 632 L239 522 L149 233 L400 233 Z M16 538 L-13 560 L93 718 L140 681 L16 538 Z " />
<glyph glyph-name="Epsilontonos" unicode="&#x388;" horiz-adv-x="531" d="M80 0 L80 683 L473 683 L473 637 L139 637 L139 385 L425 385 L425 339 L139 339 L139 47 L490 47 L490 0 L80 0 Z M-102 538 L-131 560 L-25 718 L22 681 L-102 538 Z " />
<glyph glyph-name="Etatonos" unicode="&#x389;" horiz-adv-x="626" d="M485 0 L485 336 L140 336 Q140 321 140 294.5 Q140 268 140 236 Q140 204 140.5 168.5 Q141 133 141 101 Q141 69 141 42 Q141 15 141 0 L80 0 L80 683 L141 683 Q141 663 141 621.5 Q141 580 140.5 534.5 Q140 489 140 447.5 Q140 406 140 386 L485 386 L485 683 L546 683 L546 0 L485 0 Z M-95 538 L-124 560 L-18 718 L29 681 L-95 538 Z " />
<glyph glyph-name="Iotatonos" unicode="&#x38a;" horiz-adv-x="238" d="M90 0 L90 684 L148 684 L148 0 L90 0 Z M-94 538 L-123 560 L-17 718 L30 681 L-94 538 Z " />
<glyph glyph-name="Omicrontonos" unicode="&#x38c;" horiz-adv-x="676" d="M616 339 Q616 265 599 202 Q582 139 547.5 92.5 Q513 46 462 19.5 Q411 -7 344 -7 Q266 -7 212 17 Q158 41 124.5 85 Q91 129 75.5 192.5 Q60 256 60 336 Q60 406 74.5 471 Q89 536 122 585.5 Q155 635 209.5 664.5 Q264 694 344 694 Q425 694 477.5 664.5 Q530 635 561 585.5 Q592 536 604 472 Q616 408 616 339 Z M554 336 Q554 388 546.5 443.5 Q539 499 516.5 544.5 Q494 590 452.5 619 Q411 648 344 648 Q276 648 233 621 Q190 594 165 550 Q140 506 130.5 449.5 Q121 393 121 334 Q121 190 173 114.5 Q225 39 341 39 Q396 39 436 62.5 Q476 86 502 126 Q528 166 541 220 Q554 274 554 336 Z M-53 538 L-82 560 L24 718 L71 681 L-53 538 Z " />
<glyph glyph-name="Upsilontonos" unicode="&#x38e;" horiz-adv-x="500" d="M216 304 L12 684 L75 684 L182 481 L245 356 L249 356 L314 480 L425 684 L487 684 L278 308 L278 0 L216 0 L216 304 Z M-137 538 L-166 560 L-60 718 L-13 681 L-137 538 Z " />
<glyph glyph-name="epsilontonos" unicode="&#x3ad;" horiz-adv-x="425" d="M224 496 Q243 496 264 494.5 Q285 493 305.5 490 Q326 487 344.5 482.5 Q363 478 377 473 L364 432 Q321 446 288.5 449.5 Q256 453 230 453 Q197 453 173.5 445.5 Q150 438 135.5 426 Q121 414 114 398 Q107 382 107 364 Q107 339 117 323.5 Q127 308 143 300 Q159 292 179.5 289 Q200 286 220 286 L289 286 L289 244 L219 244 Q199 244 178 239 Q157 234 139 222.5 Q121 211 109.5 191 Q98 171 98 141 Q98 113 109 93 Q120 73 139.5 60.5 Q159 48 184.5 42 Q210 36 240 36 Q279 36 315 45.5 Q351 55 389 72 L404 36 Q375 19 330 6 Q285 -7 237 -7 Q200 -7 165 0 Q130 7 102.5 23 Q75 39 58 66 Q41 93 41 134 Q41 182 67 215.5 Q93 249 135 261 L136 264 Q100 273 75 297 Q50 321 50 360 Q50 393 63.5 418.5 Q77 444 101 461.5 Q125 479 156.5 487.5 Q188 496 224 496 Z M197 540 L168 562 L274 720 L321 683 L197 540 Z " />
<glyph glyph-name="etatonos" unicode="&#x3ae;" horiz-adv-x="490" d="M375 0 L375 327 Q375 355 372.5 377 Q370 399 361 415 Q352 431 333 439.5 Q314 448 281 448 Q262 448 240 443.5 Q218 439 196.5 431.5 Q175 424 154 414.5 Q133 405 115 395 L115 0 L59 0 L59 487 L115 487 L115 442 Q115 441 116 441 Q117 441 117 440.5 Q117 440 118 440 Q162 467 211 481.5 Q260 496 295 496 Q343 496 370 483 Q397 470 410.5 449 Q424 428 427.5 402 Q431 376 431 351 L431 0 L375 0 Z M201 540 L172 562 L278 720 L325 683 L201 540 Z " />
<glyph glyph-name="iotatonos" unicode="&#x3af;" horiz-adv-x="219" d="M76 487 L131 487 L131 45 L194 45 L197 11 Q162 -4 133 -4 Q104 -4 90 8.5 Q76 21 76 53 L76 487 Z M94 540 L65 562 L171 720 L218 683 L94 540 Z " />
<glyph glyph-name="Omegatonos" unicode="&#x38f;" horiz-adv-x="677" d="M340 694 Q421 694 474 665 Q527 636 559 588.5 Q591 541 604 479.5 Q617 418 617 354 Q617 307 611 261.5 Q605 216 591.5 175.5 Q578 135 555 101 Q532 67 499 45 Q500 45 501 44 L635 44 L635 0 L403 0 L403 47 Q447 60 476 88.5 Q505 117 522.5 157.5 Q540 198 547 247.5 Q554 297 554 352 Q554 403 545.5 455.5 Q537 508 513.5 550.5 Q490 593 448.5 620 Q407 647 340 647 Q278 647 236.5 623 Q195 599 169 558.5 Q143 518 132 465 Q121 412 121 354 Q121 296 127 245.5 Q133 195 149 155 Q165 115 193 87.5 Q221 60 265 48 L265 0 L40 0 L40 44 L166 44 L167 45 Q132 66 110.5 100 Q89 134 78 175 Q67 216 63.5 261.5 Q60 307 60 351 Q60 417 75 479 Q90 541 123 589 Q156 637 209.5 665.5 Q263 694 340 694 Z M-49 538 L-78 560 L28 718 L75 681 L-49 538 Z " />
<glyph glyph-name="alpha" unicode="&#x3b1;" horiz-adv-x="524" d="M378 52 Q377 52 376.5 52.5 Q376 53 375 53 Q328 16 286 5 Q244 -6 212 -6 Q165 -6 133 12 Q101 30 81 62 Q61 94 52 138.5 Q43 183 43 236 Q43 285 53.5 331.5 Q64 378 87 414 Q110 450 146.5 471.5 Q183 493 236 493 Q274 493 310.5 479.5 Q347 466 379 443 L392 487 L431 487 L431 44 L495 44 L498 10 Q481 2 463.5 -1 Q446 -4 432 -4 Q376 -4 378 52 Z M375 103 Q375 176 375.5 248.5 Q376 321 376 395 Q364 404 348.5 413 Q333 422 316 429.5 Q299 437 280.5 441.5 Q262 446 244 446 Q172 446 136.5 390.5 Q101 335 101 237 Q101 178 110.5 140 Q120 102 137.5 79.5 Q155 57 178.5 48 Q202 39 231 39 Q263 39 303 55.5 Q343 72 375 103 Z " />
<glyph glyph-name="beta" unicode="&#x3b2;" horiz-adv-x="480" d="M103 26 L103 -201 L48 -201 L48 510 Q48 608 93 661.5 Q138 715 226 715 Q313 715 359 672 Q405 629 405 552 Q405 501 379.5 460.5 Q354 420 316 404 Q351 395 374.5 376.5 Q398 358 412 333 Q426 308 431.5 277.5 Q437 247 437 213 Q437 157 422.5 115.5 Q408 74 382.5 47 Q357 20 321.5 6.5 Q286 -7 244 -7 Q208 -7 169.5 2.5 Q131 12 108 29 L103 26 Z M226 670 Q171 670 137.5 637 Q104 604 104 535 L104 78 Q122 66 142 58 Q162 50 180.5 45.5 Q199 41 215 39 Q231 37 240 37 Q309 37 344.5 85 Q380 133 380 217 Q380 294 345 336 Q310 378 230 378 L177 378 L177 422 L229 422 Q253 422 274.5 430.5 Q296 439 312.5 456 Q329 473 338.5 497.5 Q348 522 348 555 Q348 604 317 637 Q286 670 226 670 Z " />
<glyph glyph-name="psi" unicode="&#x3c8;" horiz-adv-x="645" d="M294 -6 Q237 -5 193.5 9.5 Q150 24 120 49 Q90 74 74.5 108 Q59 142 59 181 L60 486 L115 486 L115 181 Q115 122 158 82 Q201 42 294 39 L294 557 L350 557 L350 39 Q394 40 428 51.5 Q462 63 485 82 Q508 101 519.5 126.5 Q531 152 531 182 L531 486 L586 486 L586 181 Q586 142 570 108 Q554 74 523.5 49 Q493 24 449 9.5 Q405 -5 350 -6 L350 -210 L294 -210 L294 -6 Z " />
<glyph glyph-name="delta" unicode="&#x3b4;" horiz-adv-x="506" d="M272 718 Q303 718 337 713.5 Q371 709 406 696 Q402 685 398.5 674.5 Q395 664 392 653 Q360 664 329.5 667.5 Q299 671 275 671 Q233 671 205 651.5 Q177 632 177 591 Q177 556 202 532.5 Q227 509 276 480 Q307 462 339 441 Q371 420 397 391.5 Q423 363 439 324 Q455 285 455 230 Q455 190 445.5 148 Q436 106 413 71.5 Q390 37 349.5 15 Q309 -7 248 -7 Q191 -7 153 11.5 Q115 30 92 61 Q69 92 59.5 132.5 Q50 173 50 217 Q50 248 58 284 Q66 320 85 353.5 Q104 387 135 414.5 Q166 442 212 457 Q167 485 141 514 Q115 543 115 588 Q115 650 157.5 684 Q200 718 272 718 Z M399 224 Q399 269 387 301.5 Q375 334 355.5 357.5 Q336 381 310.5 398 Q285 415 258 430 Q220 421 191.5 400 Q163 379 144.5 350.5 Q126 322 116.5 287 Q107 252 107 215 Q107 184 112 152 Q117 120 133 94.5 Q149 69 177 53 Q205 37 252 37 Q297 37 326 55 Q355 73 371 101 Q387 129 393 162 Q399 195 399 224 Z " />
<glyph glyph-name="epsilon" unicode="&#x3b5;" horiz-adv-x="425" d="M224 496 Q243 496 264 494.5 Q285 493 305.5 490 Q326 487 344.5 482.5 Q363 478 377 473 L364 432 Q321 446 288.5 449.5 Q256 453 230 453 Q197 453 173.5 445.5 Q150 438 135.5 426 Q121 414 114 398 Q107 382 107 364 Q107 339 117 323.5 Q127 308 143 300 Q159 292 179.5 289 Q200 286 220 286 L289 286 L289 244 L219 244 Q199 244 178 239 Q157 234 139 222.5 Q121 211 109.5 191 Q98 171 98 141 Q98 113 109 93 Q120 73 139.5 60.5 Q159 48 184.5 42 Q210 36 240 36 Q279 36 315 45.5 Q351 55 389 72 L404 36 Q375 19 330 6 Q285 -7 237 -7 Q200 -7 165 0 Q130 7 102.5 23 Q75 39 58 66 Q41 93 41 134 Q41 182 67 215.5 Q93 249 135 261 L136 264 Q100 273 75 297 Q50 321 50 360 Q50 393 63.5 418.5 Q77 444 101 461.5 Q125 479 156.5 487.5 Q188 496 224 496 Z " />
<glyph glyph-name="phi" unicode="&#x3c6;" horiz-adv-x="633" d="M40 240 Q40 283 49 322 Q58 361 77 394 Q96 427 125.5 451 Q155 475 197 488 L212 451 Q180 439 158 418 Q136 397 122 369 Q108 341 102 308 Q96 275 96 240 Q96 196 104 159.5 Q112 123 133.5 96.5 Q155 70 192.5 54 Q230 38 289 36 L289 492 L356 492 Q419 492 464 473.5 Q509 455 537.5 422 Q566 389 579.5 344 Q593 299 593 247 Q593 196 580.5 150.5 Q568 105 538.5 70.5 Q509 36 461 15.5 Q413 -5 342 -8 L342 -209 L288 -209 L288 -8 Q211 -5 163 15.5 Q115 36 87.5 69.5 Q60 103 50 147 Q40 191 40 240 Z M538 246 Q538 289 529 325.5 Q520 362 498 389 Q476 416 438 431.5 Q400 447 342 447 L342 36 Q398 37 435.5 53.5 Q473 70 496 98.5 Q519 127 528.5 164.5 Q538 202 538 246 Z " />
<glyph glyph-name="gamma" unicode="&#x3b3;" horiz-adv-x="454" d="M207 16 L61 443 L10 431 L-1 465 Q19 480 37.5 488.5 Q56 497 70 497 Q92 497 101 485 Q110 473 117 454 Q129 418 142.5 373.5 Q156 329 172 278 L234 83 L237 83 Q240 96 246 114.5 Q252 133 259 151.5 Q266 170 272 187 Q278 204 281 214 L374 488 L430 488 L264 20 L264 -210 L207 -210 L207 16 Z " />
<glyph glyph-name="eta" unicode="&#x3b7;" horiz-adv-x="490" d="M375 0 L375 327 Q375 355 372.5 377 Q370 399 361 415 Q352 431 333 439.5 Q314 448 281 448 Q262 448 240 443.5 Q218 439 196.5 431.5 Q175 424 154 414.5 Q133 405 115 395 L115 0 L59 0 L59 487 L115 487 L115 442 Q115 441 116 441 Q117 441 117 440.5 Q117 440 118 440 Q162 467 211 481.5 Q260 496 295 496 Q343 496 370 483 Q397 470 410.5 449 Q424 428 427.5 402 Q431 376 431 351 L431 0 L375 0 Z " />
<glyph glyph-name="iota" unicode="&#x3b9;" horiz-adv-x="219" d="M76 487 L131 487 L131 45 L194 45 L197 11 Q162 -4 133 -4 Q104 -4 90 8.5 Q76 21 76 53 L76 487 Z " />
<glyph glyph-name="xi" unicode="&#x3be;" horiz-adv-x="418" d="M256 717 Q269 717 287.5 715.5 Q306 714 326.5 711 Q347 708 368 703 Q389 698 408 690 L396 648 Q354 662 320 667 Q286 672 258 672 Q184 672 149 635.5 Q114 599 114 542 Q114 479 157 447 Q200 415 269 415 L362 415 L362 372 L266 372 Q222 372 189.5 358 Q157 344 135 320 Q113 296 102.5 265 Q92 234 92 200 Q92 166 103.5 142 Q115 118 138.5 99.5 Q162 81 196 66 Q230 51 275 35 Q305 24 331 15 Q357 6 375.5 -4.5 Q394 -15 405 -28 Q416 -41 416 -58 Q416 -72 409 -89 Q402 -106 390.5 -123.5 Q379 -141 365 -158.5 Q351 -176 336 -192 Q331 -189 320 -180 Q309 -171 305 -168 Q334 -129 347 -107.5 Q360 -86 360 -75 Q360 -61 346 -50 Q332 -39 294 -25 Q244 -7 198 9.5 Q152 26 116.5 49.5 Q81 73 59 107 Q37 141 37 195 Q37 221 42.5 250 Q48 279 63 306 Q78 333 104 356.5 Q130 380 170 395 Q135 405 113.5 422.5 Q92 440 79 461 Q66 482 61.5 504.5 Q57 527 57 547 Q57 583 70 614 Q83 645 108.5 668 Q134 691 171 704 Q208 717 256 717 Z " />
<glyph glyph-name="kappa" unicode="&#x3ba;" horiz-adv-x="429" d="M112 265 Q113 265 117 263 L174 321 L341 486 L406 486 L215 296 Q223 286 230.5 276.5 Q238 267 246 256 Q259 236 282.5 201 Q306 166 332 128 Q358 90 381.5 54.5 Q405 19 419 0 L356 0 Q311 66 267.5 131 Q224 196 179 262 Q163 245 146.5 229.5 Q130 214 114 197 L114 0 L58 0 L58 486 L114 486 L114 393 L112 265 L112 265 Z " />
<glyph glyph-name="lambda" unicode="&#x3bb;" horiz-adv-x="461" d="M400 39 L444 39 L448 5 Q435 0 419.5 -3 Q404 -6 393 -6 Q376 -6 366 -0.5 Q356 5 351 21 L232 428 L228 428 L59 0 L5 0 L189 464 L222 464 L173 627 Q165 653 155 660.5 Q145 668 125 668 Q114 668 104.5 667 Q95 666 78 662 L70 700 Q95 710 111.5 712.5 Q128 715 140 715 Q160 715 174 710.5 Q188 706 198 695 Q208 684 215 666.5 Q222 649 230 622 L400 39 Z " />
<glyph glyph-name="nu" unicode="&#x3bd;" horiz-adv-x="423" d="M175 0 Q135 119 95 239.5 Q55 360 12 486 L69 486 Q92 413 117 339.5 Q142 266 165 189 Q176 154 187 117.5 Q198 81 209 47 L214 47 Q220 66 232.5 108 Q245 150 260 196 Q273 236 286 276.5 Q299 317 311.5 354.5 Q324 392 335 426 Q346 460 354 486 L412 486 Q368 360 326.5 239 Q285 118 243 0 L175 0 L175 0 Z " />
<glyph glyph-name="omicron" unicode="&#x3bf;" horiz-adv-x="505" d="M457 241 Q457 196 447.5 151.5 Q438 107 414.5 71.5 Q391 36 351 14.5 Q311 -7 250 -7 Q191 -7 152.5 13.5 Q114 34 91 68 Q68 102 58.5 146.5 Q49 191 49 239 Q49 287 60 333 Q71 379 95.5 415 Q120 451 160 473 Q200 495 257 495 Q316 495 354.5 473 Q393 451 416 415 Q439 379 448 333.5 Q457 288 457 241 Z M399 239 Q399 274 393.5 311.5 Q388 349 373 379.5 Q358 410 330 430 Q302 450 257 450 Q212 450 183 431 Q154 412 137 382 Q120 352 113.5 314 Q107 276 107 238 Q107 199 112.5 163 Q118 127 134.5 99.5 Q151 72 180 55 Q209 38 257 38 Q301 38 329 56 Q357 74 372.5 103 Q388 132 393.5 168 Q399 204 399 239 Z " />
<glyph glyph-name="pi" unicode="&#x3c0;" horiz-adv-x="491" d="M375 0 L375 442 L115 442 L115 0 L59 0 L59 486 L431 486 L431 0 L375 0 Z " />
<glyph glyph-name="omegatonos" unicode="&#x3ce;" horiz-adv-x="718" d="M388 333 L388 152 Q388 131 394 111 Q400 91 412.5 75.5 Q425 60 444 50 Q463 40 489 40 Q528 40 554 56 Q580 72 595 99 Q610 126 616.5 162 Q623 198 623 238 Q623 270 618 302.5 Q613 335 601 364 Q589 393 568.5 416 Q548 439 516 453 L531 492 Q572 480 600 454 Q628 428 645.5 393.5 Q663 359 670.5 319 Q678 279 678 239 Q678 191 668.5 146.5 Q659 102 637 68.5 Q615 35 579.5 14.5 Q544 -6 492 -6 Q447 -6 412 15 Q377 36 361 74 L359 74 Q340 36 304.5 15 Q269 -6 225 -6 Q170 -6 134 14.5 Q98 35 77 68.5 Q56 102 48 146.5 Q40 191 40 239 Q40 278 47.5 318.5 Q55 359 72.5 393.5 Q90 428 118 454 Q146 480 188 492 L201 453 Q169 439 149 416 Q129 393 117 364 Q105 335 100.5 302.5 Q96 270 96 238 Q96 203 101 168 Q106 133 120 104.5 Q134 76 160 58 Q186 40 228 40 Q256 40 276.5 50 Q297 60 310 75.5 Q323 91 329 111 Q335 131 335 152 L335 333 L388 333 Z M344 540 L315 562 L421 720 L468 683 L344 540 Z " />
<glyph glyph-name="rho" unicode="&#x3c1;" horiz-adv-x="495" d="M105 25 L105 -207 L48 -207 L48 210 Q48 230 48 249 Q48 268 49 287 Q50 330 63 367.5 Q76 405 101.5 433 Q127 461 165 477.5 Q203 494 253 494 Q305 494 342.5 476 Q380 458 404 425.5 Q428 393 439.5 347.5 Q451 302 451 248 Q451 126 399.5 59.5 Q348 -7 242 -7 Q213 -7 176.5 0.5 Q140 8 108 28 L105 25 Z M236 37 Q269 37 297.5 45.5 Q326 54 347.5 77.5 Q369 101 381 142.5 Q393 184 393 250 Q393 308 382 346.5 Q371 385 351.5 407.5 Q332 430 304.5 439 Q277 448 245 448 Q208 448 181.5 433 Q155 418 138 394 Q121 370 113 340 Q105 310 105 281 L105 79 Q113 73 127.5 65.5 Q142 58 160 51.5 Q178 45 198 41 Q218 37 236 37 Z " />
<glyph glyph-name="sigma" unicode="&#x3c3;" horiz-adv-x="511" d="M379 443 Q379 441 377 439 Q398 423 411 399.5 Q424 376 432 349 Q440 322 443 292.5 Q446 263 446 236 Q446 185 433 141 Q420 97 394.5 65 Q369 33 331 14.5 Q293 -4 244 -4 Q188 -4 149 13 Q110 30 85.5 61 Q61 92 50 136 Q39 180 39 235 Q39 284 50 329.5 Q61 375 85.5 410 Q110 445 149.5 466 Q189 487 246 487 L484 487 L484 443 L379 443 Z M246 442 Q202 442 173 424 Q144 406 127 377 Q110 348 103 310.5 Q96 273 96 233 Q96 137 131 87.5 Q166 38 246 38 Q282 38 309 53.5 Q336 69 353.5 95.5 Q371 122 379.5 158 Q388 194 388 235 Q388 270 383 307 Q378 344 363 374 Q348 404 320 423 Q292 442 246 442 Z " />
<glyph glyph-name="tau" unicode="&#x3c4;" horiz-adv-x="375" d="M344 487 L344 444 L181 444 L181 123 Q181 87 195.5 64.5 Q210 42 255 42 Q294 42 348 58 L357 21 Q332 10 302 3 Q272 -4 244 -4 Q190 -4 158 21 Q126 46 126 106 L126 444 L10 444 L10 487 L344 487 Z " />
<glyph glyph-name="theta" unicode="&#x3b8;" horiz-adv-x="501" d="M249 -6 Q182 -6 141 22 Q100 50 78 98.5 Q56 147 49 211.5 Q42 276 42 350 Q42 416 49.5 481 Q57 546 79.5 598 Q102 650 144 682.5 Q186 715 254 715 Q322 715 362.5 682 Q403 649 424 597 Q445 545 451.5 480.5 Q458 416 458 352 Q458 285 449.5 220.5 Q441 156 417.5 106 Q394 56 353.5 25 Q313 -6 249 -6 Z M99 352 Q99 276 104 217.5 Q109 159 125.5 119 Q142 79 172 58.5 Q202 38 252 38 Q300 38 329.5 65.5 Q359 93 374.5 137.5 Q390 182 395.5 238 Q401 294 401 352 L99 352 Z M254 669 Q206 669 176.5 645 Q147 621 130.5 582.5 Q114 544 107.5 495 Q101 446 100 396 L400 396 Q399 446 393.5 495 Q388 544 372 582.5 Q356 621 328 645 Q300 669 254 669 Z " />
<glyph glyph-name="omega" unicode="&#x3c9;" horiz-adv-x="718" d="M388 333 L388 152 Q388 131 394 111 Q400 91 412.5 75.5 Q425 60 444 50 Q463 40 489 40 Q528 40 554 56 Q580 72 595 99 Q610 126 616.5 162 Q623 198 623 238 Q623 270 618 302.5 Q613 335 601 364 Q589 393 568.5 416 Q548 439 516 453 L531 492 Q572 480 600 454 Q628 428 645.5 393.5 Q663 359 670.5 319 Q678 279 678 239 Q678 191 668.5 146.5 Q659 102 637 68.5 Q615 35 579.5 14.5 Q544 -6 492 -6 Q447 -6 412 15 Q377 36 361 74 L359 74 Q340 36 304.5 15 Q269 -6 225 -6 Q170 -6 134 14.5 Q98 35 77 68.5 Q56 102 48 146.5 Q40 191 40 239 Q40 278 47.5 318.5 Q55 359 72.5 393.5 Q90 428 118 454 Q146 480 188 492 L201 453 Q169 439 149 416 Q129 393 117 364 Q105 335 100.5 302.5 Q96 270 96 238 Q96 203 101 168 Q106 133 120 104.5 Q134 76 160 58 Q186 40 228 40 Q256 40 276.5 50 Q297 60 310 75.5 Q323 91 329 111 Q335 131 335 152 L335 333 L388 333 Z " />
<glyph glyph-name="sigma1" unicode="&#x3c2;" horiz-adv-x="427" d="M252 496 Q298 496 333.5 488.5 Q369 481 397 470 Q396 467 394 461.5 Q392 456 390 449 Q388 442 386 436 Q384 430 383 427 Q350 440 321.5 445.5 Q293 451 260 451 Q218 451 187 435.5 Q156 420 136 392.5 Q116 365 106 328 Q96 291 96 249 Q96 212 103 184.5 Q110 157 129 134 Q148 111 180 91 Q212 71 263 49 Q297 34 319 23 Q341 12 354 1.5 Q367 -9 372 -19.5 Q377 -30 377 -42 Q377 -65 358 -95 Q339 -125 299 -169 L267 -144 Q273 -135 282 -123 Q291 -111 299.5 -98 Q308 -85 313.5 -73 Q319 -61 319 -53 Q319 -38 299.5 -26 Q280 -14 231 6 Q169 32 131.5 57.5 Q94 83 73.5 111.5 Q53 140 46 173.5 Q39 207 39 249 Q39 304 53.5 349.5 Q68 395 95 427.5 Q122 460 161.5 478 Q201 496 252 496 Z " />
<glyph glyph-name="chi" unicode="&#x3c7;" horiz-adv-x="406" d="M202 220 Q168 164 135 109.5 Q102 55 67 0 L7 0 Q48 64 87.5 128 Q127 192 169 256 Q133 314 96.5 371.5 Q60 429 23 487 L86 487 L202 294 Q232 342 260.5 390.5 Q289 439 319 487 L381 487 Q344 429 307 372 Q270 315 234 258 Q276 193 316.5 129 Q357 65 399 0 L335 0 L202 220 Z " />
<glyph glyph-name="upsilon" unicode="&#x3c5;" horiz-adv-x="491" d="M431 487 L431 184 Q431 145 419 110.5 Q407 76 383.5 50.5 Q360 25 324.5 10 Q289 -5 242 -5 Q195 -5 160.5 8 Q126 21 103.5 44.5 Q81 68 70.5 101 Q60 134 60 173 L60 487 L116 487 L116 174 Q116 146 122.5 122 Q129 98 143.5 80 Q158 62 182 51.5 Q206 41 241 41 Q277 41 302 52.5 Q327 64 343 84 Q359 104 366.5 129.5 Q374 155 374 184 L374 487 L431 487 Z " />
<glyph glyph-name="zeta" unicode="&#x3b6;" horiz-adv-x="381" d="M411 702 L411 660 Q340 601 281.5 539 Q223 477 181.5 417.5 Q140 358 117.5 304 Q95 250 95 206 Q95 174 106 152 Q117 130 142.5 112 Q168 94 210.5 77.5 Q253 61 315 39 Q362 21 378.5 5.5 Q395 -10 395 -34 Q395 -46 387.5 -61.5 Q380 -77 368 -95 Q356 -113 340.5 -132.5 Q325 -152 308 -171 L276 -146 Q306 -108 322.5 -83 Q339 -58 339 -42 Q339 -28 322 -18.5 Q305 -9 283 -1 Q225 18 179.5 34.5 Q134 51 103 73 Q72 95 56 125.5 Q40 156 40 204 Q40 239 57.5 289.5 Q75 340 111.5 399.5 Q148 459 205 525 Q262 591 342 656 L342 657 L62 657 L62 702 L411 702 Z " />
<glyph glyph-name="iotadieresis" unicode="&#x3ca;" horiz-adv-x="219" d="M76 487 L131 487 L131 45 L194 45 L197 11 Q162 -4 133 -4 Q104 -4 90 8.5 Q76 21 76 53 L76 487 Z M224 605 Q224 590 213 580 Q202 570 186 570 Q171 570 161 580 Q151 590 151 605 Q151 620 161.5 630.5 Q172 641 186 641 Q202 641 213 631 Q224 621 224 605 Z M61 605 Q61 590 50.5 580 Q40 570 23 570 Q8 570 -2.5 580 Q-13 590 -13 605 Q-13 620 -2 630.5 Q9 641 23 641 Q40 641 50.5 631 Q61 621 61 605 Z " />
<glyph glyph-name="upsilondieresis" unicode="&#x3cb;" horiz-adv-x="491" d="M431 487 L431 184 Q431 145 419 110.5 Q407 76 383.5 50.5 Q360 25 324.5 10 Q289 -5 242 -5 Q195 -5 160.5 8 Q126 21 103.5 44.5 Q81 68 70.5 101 Q60 134 60 173 L60 487 L116 487 L116 174 Q116 146 122.5 122 Q129 98 143.5 80 Q158 62 182 51.5 Q206 41 241 41 Q277 41 302 52.5 Q327 64 343 84 Q359 104 366.5 129.5 Q374 155 374 184 L374 487 L431 487 Z M361 605 Q361 590 350 580 Q339 570 323 570 Q308 570 298 580 Q288 590 288 605 Q288 620 298.5 630.5 Q309 641 323 641 Q339 641 350 631 Q361 621 361 605 Z M198 605 Q198 590 187.5 580 Q177 570 160 570 Q145 570 134.5 580 Q124 590 124 605 Q124 620 135 630.5 Q146 641 160 641 Q177 641 187.5 631 Q198 621 198 605 Z " />
<glyph glyph-name="iotadieresistonos" unicode="&#x390;" horiz-adv-x="219" d="M76 487 L131 487 L131 45 L194 45 L197 11 Q162 -4 133 -4 Q104 -4 90 8.5 Q76 21 76 53 L76 487 Z M240 606 Q240 590 228.5 580 Q217 570 202 570 Q187 570 177 580 Q167 590 167 606 Q167 621 178 631.5 Q189 642 203 642 Q218 642 229 632 Q240 622 240 606 Z M55 606 Q55 590 44.5 580 Q34 570 19 570 Q3 570 -7.5 580 Q-18 590 -18 606 Q-18 621 -7.5 631.5 Q3 642 17 642 Q34 642 44.5 632 Q55 622 55 606 Z M91 543 L60 557 L144 727 L195 699 L91 543 Z " />
<glyph glyph-name="upsilondieresistonos" unicode="&#x3b0;" horiz-adv-x="491" d="M431 487 L431 184 Q431 145 419 110.5 Q407 76 383.5 50.5 Q360 25 324.5 10 Q289 -5 242 -5 Q195 -5 160.5 8 Q126 21 103.5 44.5 Q81 68 70.5 101 Q60 134 60 173 L60 487 L116 487 L116 174 Q116 146 122.5 122 Q129 98 143.5 80 Q158 62 182 51.5 Q206 41 241 41 Q277 41 302 52.5 Q327 64 343 84 Q359 104 366.5 129.5 Q374 155 374 184 L374 487 L431 487 Z M378 606 Q378 590 366.5 580 Q355 570 340 570 Q325 570 315 580 Q305 590 305 606 Q305 621 316 631.5 Q327 642 341 642 Q356 642 367 632 Q378 622 378 606 Z M193 606 Q193 590 182.5 580 Q172 570 157 570 Q141 570 130.5 580 Q120 590 120 606 Q120 621 130.5 631.5 Q141 642 155 642 Q172 642 182.5 632 Q193 622 193 606 Z M229 543 L198 557 L282 727 L333 699 L229 543 Z " />
<glyph glyph-name="Euro" unicode="&#x20ac;" horiz-adv-x="532" d="M73 406 Q79 463 96.5 515 Q114 567 146 606.5 Q178 646 225.5 669.5 Q273 693 338 693 Q388 693 428 685.5 Q468 678 499 666 L487 622 Q445 637 404.5 641.5 Q364 646 340 646 Q289 646 251.5 627.5 Q214 609 188.5 577 Q163 545 149 501 Q135 457 130 406 L436 406 L436 372 L128 372 Q127 364 127 356.5 Q127 349 127 341 L127 317 L436 317 L436 283 L128 283 Q131 233 142 188.5 Q153 144 177 111 Q201 78 241 58.5 Q281 39 341 39 Q378 39 420 46 Q462 53 499 63 L509 19 Q497 15 477.5 10.5 Q458 6 434 2 Q410 -2 384 -4.5 Q358 -7 333 -7 Q256 -7 206.5 18.5 Q157 44 128 85 Q99 126 86.5 178 Q74 230 71 283 L27 283 L27 317 L70 317 L70 339 Q70 347 70 355 Q70 363 71 372 L27 372 L27 406 L73 406 Z " />
<glyph glyph-name="semicolon" unicode="&#x3b;" horiz-adv-x="176" d="M131 349 Q131 331 119 318.5 Q107 306 90 306 Q73 306 60 319 Q47 332 47 349 Q47 366 59.5 378 Q72 390 89 390 Q106 390 118.5 378 Q131 366 131 349 Z M45 35 Q45 52 57 64.5 Q69 77 88 77 Q108 77 121 62.5 Q134 48 134 25 Q134 8 128.5 -11 Q123 -30 112.5 -49 Q102 -68 87.5 -84.5 Q73 -101 56 -112 L41 -93 Q58 -73 67 -50 Q76 -27 77 -4 Q63 -1 54 9.5 Q45 20 45 35 Z " />
<glyph glyph-name="exclam" unicode="&#x21;" horiz-adv-x="207" d="M134 693 L133 386 L126 165 L89 165 L81 386 L78 693 L134 693 Z M107 75 Q124 75 137 63 Q150 51 150 34 Q150 15 137 2.5 Q124 -10 107 -10 Q89 -10 76 2.5 Q63 15 63 34 Q63 51 76 63 Q89 75 107 75 Z " />
<glyph glyph-name="acute" unicode="&#xb4;" horiz-adv-x="480" d="M194 543 L168 565 L280 719 L325 679 L194 543 Z " />
<glyph glyph-name="circumflex" unicode="&#x2c6;" horiz-adv-x="487" d="M382 540 L237 638 L92 539 L75 560 L215 694 L258 694 L400 562 L382 540 Z " />
<glyph glyph-name="tilde" unicode="&#x2dc;" horiz-adv-x="487" d="M316 577 Q297 577 277 583 Q257 589 237.5 596.5 Q218 604 200.5 610 Q183 616 170 616 L117 576 L95 591 Q106 621 126.5 639.5 Q147 658 173 658 Q190 658 209.5 652 Q229 646 248.5 639.5 Q268 633 286 627 Q304 621 318 621 L370 661 L391 645 Q380 616 361 596.5 Q342 577 316 577 Z " />
<glyph glyph-name="cedilla" unicode="&#xb8;" horiz-adv-x="485" d="M306 10 Q291 -8 275 -28 Q259 -48 244 -68 Q294 -69 326.5 -86 Q359 -103 359 -142 Q359 -182 317.5 -211.5 Q276 -241 187 -241 Q187 -234 186.5 -227.5 Q186 -221 186 -213 Q251 -208 281 -190 Q311 -172 311 -146 Q311 -123 289 -113 Q267 -103 236 -102 Q228 -101 221 -101 Q214 -101 206 -101 L195 -85 Q218 -57 239 -29 Q260 -1 283 25 L306 10 L306 10 Z " />
<glyph glyph-name="&amp;#xb5;" unicode="&#xb5;" horiz-adv-x="485" d="M115 10 L115 -210 L59 -210 L59 488 L114 488 L114 151 Q114 123 118.5 102 Q123 81 134.5 66.5 Q146 52 166.5 44.5 Q187 37 219 37 Q248 37 289.5 54 Q331 71 369 106 L369 488 L425 488 L425 0 L370 0 L370 60 Q369 60 369 60.5 Q369 61 367 61 Q340 37 316 23.5 Q292 10 271 2.5 Q250 -5 232.5 -7 Q215 -9 200 -9 Q145 -9 120 12 L115 10 Z " />
<glyph glyph-name="&amp;#x3bc;" unicode="&#x3bc;" horiz-adv-x="485" d="M115 10 L115 -210 L59 -210 L59 488 L114 488 L114 151 Q114 123 118.5 102 Q123 81 134.5 66.5 Q146 52 166.5 44.5 Q187 37 219 37 Q248 37 289.5 54 Q331 71 369 106 L369 488 L425 488 L425 0 L370 0 L370 60 Q369 60 369 60.5 Q369 61 367 61 Q340 37 316 23.5 Q292 10 271 2.5 Q250 -5 232.5 -7 Q215 -9 200 -9 Q145 -9 120 12 L115 10 Z " />
<glyph glyph-name="germandbls" unicode="&#xdf;" horiz-adv-x="562" d="M276 717 Q323 717 354 704.5 Q385 692 403.5 674 Q422 656 429.5 634.5 Q437 613 437 595 Q437 559 420 532.5 Q403 506 382 484.5 Q361 463 344 443 Q327 423 327 400 Q327 374 353 344.5 Q379 315 416 286 Q437 269 457 252 Q477 235 492.5 215 Q508 195 518 170 Q528 145 528 112 Q527 90 518.5 67.5 Q510 45 491.5 27 Q473 9 443.5 -2 Q414 -13 372 -13 Q337 -13 299 -6.5 Q261 0 235 10 L249 54 Q300 36 328 32.5 Q356 29 372 29 Q420 29 445.5 53 Q471 77 471 110 Q471 133 463 152 Q455 171 442.5 187.5 Q430 204 414.5 217.5 Q399 231 385 244 Q366 261 345.5 279.5 Q325 298 308.5 317 Q292 336 281 356.5 Q270 377 270 398 Q270 426 287 449.5 Q304 473 325 495 Q346 517 363 539 Q380 561 380 586 Q380 592 378 606.5 Q376 621 366 635 Q356 649 334 660 Q312 671 272 671 Q242 671 220.5 661 Q199 651 184.5 633.5 Q170 616 163 593.5 Q156 571 156 546 L156 0 L101 0 L101 389 L28 389 L28 430 L101 430 L101 545 Q101 567 108 597 Q115 627 134 653.5 Q153 680 187.5 698.5 Q222 717 276 717 Z " />
<glyph glyph-name="percent" unicode="&#x25;" horiz-adv-x="800" d="M341 462 Q341 427 334 391.5 Q327 356 309 327.5 Q291 299 261.5 281 Q232 263 187 263 Q136 263 105 280.5 Q74 298 57 326 Q40 354 34.5 389.5 Q29 425 29 461 Q29 494 35 530.5 Q41 567 58 597.5 Q75 628 106.5 648 Q138 668 189 668 Q241 668 271 647 Q301 626 316.5 595 Q332 564 336.5 528 Q341 492 341 462 Z M293 461 Q293 483 290.5 512 Q288 541 277.5 567 Q267 593 246.5 611 Q226 629 189 629 Q151 629 129 612 Q107 595 96 569.5 Q85 544 81.5 514.5 Q78 485 78 460 Q78 427 82 398 Q86 369 98 347 Q110 325 131.5 312.5 Q153 300 189 300 Q221 300 241 314.5 Q261 329 272.5 352.5 Q284 376 288.5 404.5 Q293 433 293 461 Z M277 -23 L235 -23 L522 699 L562 699 L277 -23 Z M770 196 Q770 161 763 125.5 Q756 90 738 61 Q720 32 690.5 14 Q661 -4 616 -4 Q565 -4 534 13.5 Q503 31 486 59 Q469 87 463.5 123 Q458 159 458 195 Q458 228 464 264.5 Q470 301 487 331.5 Q504 362 535.5 382 Q567 402 618 402 Q670 402 700 381 Q730 360 745.5 329 Q761 298 765.5 262 Q770 226 770 196 Z M722 195 Q722 217 719.5 246.5 Q717 276 706.5 301.5 Q696 327 675.5 345 Q655 363 618 363 Q580 363 558 346 Q536 329 525 303.5 Q514 278 510.5 248.5 Q507 219 507 194 Q507 161 511 132 Q515 103 527 81 Q539 59 560.5 46.5 Q582 34 618 34 Q650 34 670 48.5 Q690 63 701.5 86.5 Q713 110 717.5 138.5 Q722 167 722 195 Z " />
<glyph glyph-name="quotesinglbase" unicode="&#x201a;" horiz-adv-x="169" d="M40 35 Q40 52 52 64.5 Q64 77 82 77 Q103 77 115.5 62.5 Q128 48 128 25 Q128 8 122.5 -11.5 Q117 -31 107 -49.5 Q97 -68 82.5 -85 Q68 -102 51 -112 L36 -94 Q53 -74 62 -50.5 Q71 -27 72 -4 Q58 -1 49 9.5 Q40 20 40 35 Z " />
<glyph glyph-name="quotedblbase" unicode="&#x201e;" horiz-adv-x="279" d="M40 35 Q40 52 52 64.5 Q64 77 82 77 Q103 77 115.5 62.5 Q128 48 128 25 Q128 8 122.5 -11.5 Q117 -31 107 -49.5 Q97 -68 82.5 -85 Q68 -102 51 -112 L36 -94 Q53 -74 62 -50.5 Q71 -27 72 -4 Q58 -1 49 9.5 Q40 20 40 35 Z M151 35 Q151 52 163 64.5 Q175 77 193 77 Q214 77 226.5 62.5 Q239 48 239 25 Q239 8 233.5 -11.5 Q228 -31 218 -49.5 Q208 -68 193.5 -85 Q179 -102 162 -112 L147 -94 Q164 -74 173 -50.5 Q182 -27 183 -4 Q169 -1 160 9.5 Q151 20 151 35 Z " />
<glyph glyph-name="daggerdbl" unicode="&#x2021;" horiz-adv-x="461" d="M202 182 L202 435 L39 435 L39 481 L202 481 L202 683 L253 683 L253 481 L416 481 L416 435 L253 435 L253 182 L415 182 L415 136 L253 136 L253 -57 L202 -57 L202 136 L39 136 L39 182 L202 182 Z " />
<glyph glyph-name="guilsinglleft" unicode="&#x2039;" horiz-adv-x="306" d="M65 202 L206 353 L231 333 L123 184 L231 35 L207 16 L65 166 L65 202 Z " />
<glyph glyph-name="guilsinglright" unicode="&#x203a;" horiz-adv-x="306" d="M228 166 L86 16 L62 35 L170 184 L63 333 L87 353 L228 202 L228 166 Z " />
<glyph glyph-name="logicalnot" unicode="&#xac;" horiz-adv-x="532" d="M455 107 L410 107 L410 276 L81 276 L81 319 L455 319 L455 107 Z " />
<glyph glyph-name="exclamdown" unicode="&#xa1;" horiz-adv-x="207" d="M125 319 Q126 296 127 259 Q128 222 129 182 Q130 142 131 104.5 Q132 67 132 45 Q132 42 132 22.5 Q132 3 132.5 -24 Q133 -51 133 -82 Q133 -113 133.5 -140 Q134 -167 134 -186.5 Q134 -206 134 -209 L78 -209 L81 76 L89 319 L125 319 Z M149 451 Q149 434 136.5 421.5 Q124 409 106 409 Q89 409 76 421.5 Q63 434 63 451 Q63 469 76 482 Q89 495 107 495 Q124 495 136.5 482 Q149 469 149 451 Z " />
<glyph glyph-name="questiondown" unicode="&#xbf;" horiz-adv-x="424" d="M179 39 Q141 10 119 -17 Q97 -44 97 -81 Q97 -129 131.5 -149 Q166 -169 219 -169 Q250 -169 288 -164 Q326 -159 379 -142 L391 -185 Q345 -202 299.5 -209.5 Q254 -217 218 -217 Q128 -217 83 -182.5 Q38 -148 36 -87 Q36 -39 63 -3 Q90 33 126 62 Q161 89 186 112 Q211 135 227 156 Q243 177 250.5 197 Q258 217 258 239 Q258 256 256 273.5 Q254 291 250 312 L297 320 Q303 291 305.5 269 Q308 247 308 232 Q308 181 275.5 137 Q243 93 179 39 Z M212 452 Q212 470 224.5 482.5 Q237 495 254 495 Q272 495 285 482.5 Q298 470 298 452 Q298 435 285 422.5 Q272 410 255 410 Q238 410 225 422.5 Q212 435 212 452 Z " />
<glyph glyph-name="OE" unicode="&#x152;" horiz-adv-x="781" d="M334 694 Q358 694 382.5 691 Q407 688 426 682 L733 682 L733 637 L421 637 L421 383 L686 383 L686 338 L421 338 L421 45 L750 45 L750 0 L399 0 Q383 -3 367 -4.5 Q351 -6 334 -7 Q256 -7 202 17 Q148 41 114.5 85 Q81 129 65.5 192.5 Q50 256 50 336 Q50 406 64.5 471 Q79 536 112 585.5 Q145 635 199.5 664.5 Q254 694 334 694 Z M331 38 Q339 38 346.5 38.5 Q354 39 362 40 L362 645 Q355 645 348 646 Q341 647 333 647 Q266 647 223 620 Q180 593 155 549 Q130 505 120.5 448.5 Q111 392 111 334 Q111 190 163 114 Q215 38 331 38 Z " />
<glyph glyph-name="plusminus" unicode="&#xb1;" horiz-adv-x="532" d="M291 274 L291 109 L246 109 L246 274 L81 274 L81 319 L246 319 L246 479 L291 479 L291 319 L455 319 L455 274 L291 274 Z M457 50 L457 9 L78 9 L78 50 L457 50 Z " />
<glyph glyph-name="multiply" unicode="&#xd7;" horiz-adv-x="532" d="M268 255 L141 127 L109 159 L235 287 L108 414 L140 445 L266 318 L388 444 L420 411 L299 286 L426 160 L393 128 L268 255 Z " />
<glyph glyph-name="ae" unicode="&#xe6;" horiz-adv-x="777" d="M556 495 Q602 495 634 481.5 Q666 468 686.5 446.5 Q707 425 718 398 Q729 371 734 345.5 Q739 320 739.5 297.5 Q740 275 740 262 L740 233 L409 233 Q409 194 415.5 159 Q422 124 438.5 97.5 Q455 71 484 55 Q513 39 558 39 Q601 39 636 47.5 Q671 56 712 75 L727 37 Q685 14 644.5 3.5 Q604 -7 557 -7 Q492 -7 452.5 13.5 Q413 34 390 69 Q352 40 319 25 Q286 10 258.5 2.5 Q231 -5 210 -6 Q189 -7 175 -7 Q133 -7 106.5 6 Q80 19 64 39.5 Q48 60 42 84 Q36 108 36 129 Q36 195 81.5 233.5 Q127 272 203 272 L352 272 L352 320 Q352 390 326 419 Q300 448 235 448 Q197 448 158 439.5 Q119 431 83 418 L69 457 Q111 475 157.5 484.5 Q204 494 247 494 Q303 494 340 472 Q377 450 391 398 Q412 438 451 466.5 Q490 495 556 495 Z M198 36 Q214 36 236 40 Q258 44 281.5 52 Q305 60 329 72.5 Q353 85 374 102 Q362 130 357 163 Q352 196 352 233 L212 233 Q154 233 124.5 206.5 Q95 180 95 136 Q95 36 198 36 Z M556 451 Q517 451 490 436 Q463 421 446.5 396 Q430 371 421.5 338.5 Q413 306 410 272 L686 272 Q686 311 679.5 344 Q673 377 658 401 Q643 425 618 438 Q593 451 556 451 Z " />
<glyph glyph-name="quotedbl" unicode="&#x22;" horiz-adv-x="230" d="M148 493 L137 684 L191 684 L180 493 L148 493 Z M55 493 L42 684 L97 684 L85 493 L55 493 Z " />
<glyph glyph-name="primemod" unicode="&#x2b9;" horiz-adv-x="225" d="M72 405 L44 421 L177 682 L226 654 L72 405 Z " />
<glyph glyph-name="caron" unicode="&#x2c7;" horiz-adv-x="487" d="M404 684 L263 551 L220 551 L79 686 L97 707 L242 607 L386 706 L404 684 Z " />
<glyph glyph-name="breve" unicode="&#x2d8;" horiz-adv-x="510" d="M247 557 Q223 557 201 566 Q179 575 160 589 Q141 603 125 621.5 Q109 640 96 660 L132 685 Q158 649 188.5 627 Q219 605 250 605 Q272 605 305.5 618 Q339 631 388 679 L409 661 Q367 603 326 580 Q285 557 247 557 Z " />
<glyph glyph-name="dotaccent" unicode="&#x2d9;" horiz-adv-x="487" d="M288 614 Q288 597 275 584 Q262 571 245 571 Q228 571 215.5 584 Q203 597 203 614 Q203 631 215.5 644 Q228 657 245 657 Q262 657 275 644 Q288 631 288 614 Z " />
<glyph glyph-name="ring" unicode="&#x2da;" horiz-adv-x="487" d="M245 548 Q201 548 174 576 Q147 604 147 643 Q147 662 154.5 679.5 Q162 697 175 710 Q188 723 206 730.5 Q224 738 245 738 Q266 738 283 730.5 Q300 723 313 710 Q326 697 333 679.5 Q340 662 340 643 Q340 603 313 575.5 Q286 548 245 548 Z M245 704 Q216 704 199.5 686 Q183 668 183 640 Q183 614 199.5 597 Q216 580 245 580 Q272 580 288.5 597 Q305 614 305 640 Q305 667 288.5 685.5 Q272 704 245 704 Z " />
<glyph glyph-name="ogonek" unicode="&#x2db;" horiz-adv-x="512" d="M388 14 Q352 -20 336 -55.5 Q320 -91 320 -115 Q320 -144 337.5 -155 Q355 -166 381 -166 Q401 -166 419 -162.5 Q437 -159 451 -155 L457 -179 Q434 -191 408.5 -197 Q383 -203 359 -203 Q314 -203 291.5 -184 Q269 -165 269 -134 Q269 -119 273.5 -101 Q278 -83 289.5 -62 Q301 -41 321.5 -18.5 Q342 4 375 27 L388 14 Z " />
<glyph glyph-name="hungarumlaut" unicode="&#x2dd;" horiz-adv-x="487" d="M160 543 L134 563 L243 720 L288 682 L160 543 Z M271 543 L245 563 L354 720 L399 682 L271 543 Z " />
<glyph glyph-name="fj" unicode="&#xe1f8;" horiz-adv-x="528" d="M152 486 L444 486 L444 -7 Q443 -44 436.5 -74 Q430 -104 412.5 -129 Q395 -154 365.5 -175 Q336 -196 288 -215 Q284 -205 280.5 -195.5 Q277 -186 272 -177 Q308 -157 331 -139 Q354 -121 366.5 -101 Q379 -81 384 -57.5 Q389 -34 389 -3 L389 443 L152 443 Q152 331 151.5 221 Q151 111 151 0 L97 0 L97 443 L28 443 L28 474 Q45 479 62.5 482 Q80 485 97 489 L97 572 Q97 615 111 644 Q125 673 149.5 691 Q174 709 206.5 716.5 Q239 724 276 724 Q308 723 345 719.5 Q382 716 412 708 Q410 697 408 686 Q406 675 404 664 Q374 669 342 672 Q310 675 284 675 Q249 675 224 670 Q199 665 183 651.5 Q167 638 159.5 615 Q152 592 152 555 L152 486 Z " />
<glyph glyph-name="ffj" unicode="&#xe1f9;" horiz-adv-x="805" d="M688 678 Q656 683 625 686 Q594 689 568 689 Q533 689 508.5 683.5 Q484 678 468.5 664.5 Q453 651 445.5 627.5 Q438 604 438 568 L438 487 L725 487 L725 21 Q725 -28 718.5 -63.5 Q712 -99 694.5 -126.5 Q677 -154 646.5 -175.5 Q616 -197 568 -216 L553 -178 Q589 -158 611.5 -140 Q634 -122 647 -102.5 Q660 -83 664.5 -59.5 Q669 -36 669 -4 L669 443 L438 443 L438 0 L383 0 L383 443 L154 443 Q154 430 154 396 Q154 362 154 317 Q154 272 153.5 222 Q153 172 153 127 Q153 82 153 47.5 Q153 13 153 0 L98 0 L98 443 L31 443 L31 475 Q36 476 45.5 478 Q55 480 65 482 Q75 484 84.5 486 Q94 488 99 489 L99 552 Q99 636 150 675 Q201 714 286 714 Q318 714 351.5 709.5 Q385 705 423 694 Q446 717 480.5 727 Q515 737 557 737 Q592 737 628.5 732.5 Q665 728 696 721 L688 678 Z M384 582 Q384 603 387.5 620.5 Q391 638 397 652 Q368 660 341.5 663.5 Q315 667 297 667 Q255 667 227.5 659.5 Q200 652 183.5 635.5 Q167 619 160.5 593.5 Q154 568 154 532 L154 487 L384 487 L384 582 Z " />
<glyph glyph-name="ff" unicode="&#xfb00;" horiz-adv-x="614" d="M286 714 Q318 714 350 710.5 Q382 707 417 696 Q454 736 530 736 Q550 736 573 733.5 Q596 731 618 726 L610 684 Q593 686 574.5 688 Q556 690 541 690 Q490 690 464 669 Q438 648 438 594 L438 487 L583 487 L583 443 L438 443 L438 0 L383 0 L383 443 L154 443 Q154 423 154 388 Q154 353 154 310.5 Q154 268 153.5 221.5 Q153 175 153 132.5 Q153 90 153 55 Q153 20 153 0 L98 0 L98 443 L31 443 L31 475 Q36 476 45.5 478 Q55 480 65 482 Q75 484 84.5 486 Q94 488 99 489 L99 556 Q100 638 150.5 676 Q201 714 286 714 Z M383 593 Q383 629 392 653 Q365 661 339.5 664 Q314 667 297 667 Q255 667 227.5 659.5 Q200 652 183.5 635.5 Q167 619 160.5 593.5 Q154 568 154 532 L154 487 L383 487 L383 593 Z " />
<glyph glyph-name="fl" unicode="&#xfb02;" horiz-adv-x="520" d="M305 443 L154 443 Q154 423 154 388 Q154 353 154 310.5 Q154 268 153.5 221.5 Q153 175 153 132.5 Q153 90 153 55 Q153 20 153 0 L99 0 L99 443 L30 443 L30 475 Q35 476 44.5 478 Q54 480 65 482 Q76 484 85.5 486 Q95 488 100 489 L100 558 Q100 606 113 637 Q126 668 149.5 686.5 Q173 705 206.5 712.5 Q240 720 281 720 Q312 718 345.5 715.5 Q379 713 407 708 Q415 709 427 711.5 Q439 714 446 715 Q446 682 446 625 Q446 568 446 500 Q446 432 445.5 357.5 Q445 283 445 215 Q445 147 445 90 Q445 33 445 0 L391 0 L391 662 Q364 666 335 669 Q306 672 282 672 Q248 672 223.5 666.5 Q199 661 183.5 647.5 Q168 634 161 610.5 Q154 587 154 551 L154 487 L305 487 L305 443 Z " />
<glyph glyph-name="ffi" unicode="&#xfb03;" horiz-adv-x="797" d="M668 0 L668 443 L438 443 L438 0 L383 0 L383 443 L154 443 Q154 423 154 388 Q154 353 154 310.5 Q154 268 153.5 221.5 Q153 175 153 132.5 Q153 90 153 55 Q153 20 153 0 L98 0 L98 443 L31 443 L31 475 Q36 476 45.5 478 Q55 480 65 482 Q75 484 84.5 486 Q94 488 99 489 L99 556 Q99 599 113 629 Q127 659 152.5 678 Q178 697 212.5 706 Q247 715 288 715 Q320 715 353.5 710 Q387 705 423 694 Q446 717 482 726.5 Q518 736 562 736 Q594 736 631 732 Q668 728 699 721 L691 676 Q661 682 629.5 685.5 Q598 689 572 689 Q537 689 511.5 684 Q486 679 469.5 665.5 Q453 652 445.5 628.5 Q438 605 438 568 L438 488 L724 488 L724 0 L668 0 Z M384 585 Q384 624 398 652 Q369 660 342 663.5 Q315 667 297 667 Q255 667 227.5 659.5 Q200 652 183.5 635.5 Q167 619 160.5 593.5 Q154 568 154 532 L154 488 L384 488 L384 585 Z " />
<glyph glyph-name="ffl" unicode="&#xfb04;" horiz-adv-x="806" d="M567 688 Q533 688 508.5 682.5 Q484 677 468 663.5 Q452 650 444.5 626.5 Q437 603 437 567 L437 486 L590 486 L590 443 L437 443 L437 0 L382 0 L382 443 L152 443 Q152 332 151.5 221.5 Q151 111 151 0 L97 0 L97 443 L30 443 L30 474 Q47 479 64 482 Q81 485 98 488 L98 543 Q98 626 145.5 670 Q193 714 285 714 Q318 714 351 709.5 Q384 705 422 693 Q445 716 482.5 725.5 Q520 735 581 735 Q610 734 640.5 731 Q671 728 697 724 L731 732 L731 0 L676 0 L676 678 Q649 683 619.5 685.5 Q590 688 567 688 Z M297 667 Q255 667 227 659 Q199 651 182.5 634.5 Q166 618 159 592.5 Q152 567 152 531 L152 486 L383 486 L383 561 Q383 587 386 610.5 Q389 634 397 651 Q368 659 341.5 663 Q315 667 297 667 Z " />
<glyph glyph-name="ft" unicode="&#xfb05;" horiz-adv-x="647" d="M97 444 L29 444 L29 476 L98 490 L98 578 Q98 650 135.5 685 Q173 720 244 720 Q264 720 290.5 718 Q317 716 340 710 L332 668 Q315 671 292.5 673 Q270 675 256 675 Q204 675 178 654 Q152 633 152 579 L152 488 L386 488 L405 594 L440 599 L440 487 L585 487 L585 444 L440 444 L440 123 Q440 105 443 90 Q446 75 454 64.5 Q462 54 476 48 Q490 42 512 42 Q548 42 605 59 L615 21 Q589 10 560 3 Q531 -4 502 -4 Q448 -4 416.5 21 Q385 46 385 106 L385 444 L152 444 L152 0 L97 0 L97 444 Z " />
<glyph glyph-name="Dieresis" unicode="&#xf6cb;" horiz-adv-x="647" d="M443 760 Q443 744 432 734 Q421 724 404 724 Q390 724 380 734 Q370 744 370 760 Q370 774 380 784.5 Q390 795 404 795 Q421 795 432 785 Q443 775 443 760 Z M280 760 Q280 744 269 734 Q258 724 242 724 Q227 724 216.5 734 Q206 744 206 760 Q206 774 217 784.5 Q228 795 242 795 Q258 795 269 785 Q280 775 280 760 Z " />
<glyph glyph-name="paragraph" unicode="&#xb6;" horiz-adv-x="491" d="M220 352 Q184 352 153 365 Q122 378 99.5 400.5 Q77 423 64 454 Q51 485 51 520 Q51 555 64 586.5 Q77 618 99.5 642 Q122 666 153 680 Q184 694 220 694 L401 694 L401 -181 L357 -181 L357 650 L283 650 L284 -181 L238 -181 L238 352 L220 352 Z " />
<glyph glyph-name="AE" unicode="&#xc6;" horiz-adv-x="906" d="M475 201 L201 201 L74 0 L10 0 L442 683 L847 683 L847 638 L534 638 L534 384 L801 384 L801 339 L534 339 L534 46 L864 46 L864 0 L475 0 L475 201 Z M228 249 L475 249 L475 633 L471 633 L228 249 Z " />
<glyph glyph-name="currency" unicode="&#xa4;" horiz-adv-x="528" d="M119 306 Q119 276 130.5 249.5 Q142 223 161.5 203.5 Q181 184 207 173 Q233 162 263 162 Q292 162 318 173 Q344 184 363.5 203.5 Q383 223 394.5 249.5 Q406 276 406 306 Q406 335 395 361 Q384 387 364.5 406.5 Q345 426 319 437.5 Q293 449 263 449 Q233 449 207 437.5 Q181 426 161.5 406.5 Q142 387 130.5 361 Q119 335 119 306 Z M55 486 L83 515 L147 452 Q172 472 202 482.5 Q232 493 264 493 Q296 493 325 482 Q354 471 380 452 L444 515 L473 485 L408 423 Q431 394 440 366 Q449 338 449 307 Q449 275 438.5 245.5 Q428 216 408 190 Q411 187 420.5 178 Q430 169 441 159.5 Q452 150 461.5 141.5 Q471 133 474 130 L444 98 L379 161 Q351 138 322 129.5 Q293 121 264 121 Q234 121 205.5 129.5 Q177 138 148 161 L83 97 L54 128 L118 190 Q94 219 85.5 249 Q77 279 77 305 Q77 335 86 365.5 Q95 396 118 422 L55 486 Z " />
<glyph glyph-name="macron" unicode="&#xaf;" horiz-adv-x="487" d="M85 643 L395 643 L395 596 L85 596 L85 643 Z " />
<glyph glyph-name="anoteleia" unicode="&#x387;" horiz-adv-x="176" d="M131 349 Q131 331 119 318.5 Q107 306 90 306 Q73 306 60 319 Q47 332 47 349 Q47 366 59.5 378 Q72 390 89 390 Q106 390 118.5 378 Q131 366 131 349 Z " />
<glyph glyph-name="florin" unicode="&#x192;" horiz-adv-x="532" d="M157 403 L256 403 L267 496 Q272 537 281.5 573 Q291 609 309 636 Q327 663 354.5 678.5 Q382 694 423 694 Q443 694 463.5 690.5 Q484 687 504 681 L492 642 Q476 645 462 647 Q448 649 428 649 Q401 649 382.5 638 Q364 627 352 608 Q340 589 333 563 Q326 537 322 506 L309 403 L412 403 L412 362 L304 362 L279 165 Q272 110 264 58.5 Q256 7 239 -33.5 Q222 -74 192 -98.5 Q162 -123 111 -123 Q70 -123 32 -107 L47 -68 Q64 -73 77 -75 Q90 -77 103 -77 Q136 -77 157 -61.5 Q178 -46 191.5 -12 Q205 22 214 75.5 Q223 129 232 204 L250 362 L157 362 L157 403 Z " />
<glyph glyph-name="Iotadieresis" unicode="&#x3aa;" horiz-adv-x="238" d="M90 0 L90 684 L148 684 L148 0 L90 0 Z M238 760 Q238 744 227 734 Q216 724 199 724 Q185 724 175 734 Q165 744 165 760 Q165 774 175 784.5 Q185 795 199 795 Q216 795 227 785 Q238 775 238 760 Z M75 760 Q75 744 64 734 Q53 724 37 724 Q22 724 11.5 734 Q1 744 1 760 Q1 774 12 784.5 Q23 795 37 795 Q53 795 64 785 Q75 775 75 760 Z " />
<glyph glyph-name="Upsilondieresis" unicode="&#x3ab;" horiz-adv-x="500" d="M216 304 L12 684 L75 684 L182 481 L245 356 L249 356 L314 480 L425 684 L487 684 L278 308 L278 0 L216 0 L216 304 Z M365 760 Q365 744 354 734 Q343 724 326 724 Q312 724 302 734 Q292 744 292 760 Q292 774 302 784.5 Q312 795 326 795 Q343 795 354 785 Q365 775 365 760 Z M202 760 Q202 744 191 734 Q180 724 164 724 Q149 724 138.5 734 Q128 744 128 760 Q128 774 139 784.5 Q150 795 164 795 Q180 795 191 785 Q202 775 202 760 Z " />
<glyph glyph-name="alphatonos" unicode="&#x3ac;" horiz-adv-x="524" d="M378 52 Q377 52 376.5 52.5 Q376 53 375 53 Q328 16 286 5 Q244 -6 212 -6 Q165 -6 133 12 Q101 30 81 62 Q61 94 52 138.5 Q43 183 43 236 Q43 285 53.5 331.5 Q64 378 87 414 Q110 450 146.5 471.5 Q183 493 236 493 Q274 493 310.5 479.5 Q347 466 379 443 L392 487 L431 487 L431 44 L495 44 L498 10 Q481 2 463.5 -1 Q446 -4 432 -4 Q376 -4 378 52 Z M375 103 Q375 176 375.5 248.5 Q376 321 376 395 Q364 404 348.5 413 Q333 422 316 429.5 Q299 437 280.5 441.5 Q262 446 244 446 Q172 446 136.5 390.5 Q101 335 101 237 Q101 178 110.5 140 Q120 102 137.5 79.5 Q155 57 178.5 48 Q202 39 231 39 Q263 39 303 55.5 Q343 72 375 103 Z M228 540 L199 562 L305 720 L352 683 L228 540 Z " />
<glyph glyph-name="omicrontonos" unicode="&#x3cc;" horiz-adv-x="505" d="M457 241 Q457 196 447.5 151.5 Q438 107 414.5 71.5 Q391 36 351 14.5 Q311 -7 250 -7 Q191 -7 152.5 13.5 Q114 34 91 68 Q68 102 58.5 146.5 Q49 191 49 239 Q49 287 60 333 Q71 379 95.5 415 Q120 451 160 473 Q200 495 257 495 Q316 495 354.5 473 Q393 451 416 415 Q439 379 448 333.5 Q457 288 457 241 Z M399 239 Q399 274 393.5 311.5 Q388 349 373 379.5 Q358 410 330 430 Q302 450 257 450 Q212 450 183 431 Q154 412 137 382 Q120 352 113.5 314 Q107 276 107 238 Q107 199 112.5 163 Q118 127 134.5 99.5 Q151 72 180 55 Q209 38 257 38 Q301 38 329 56 Q357 74 372.5 103 Q388 132 393.5 168 Q399 204 399 239 Z M240 540 L211 562 L317 720 L364 683 L240 540 Z " />
<glyph glyph-name="upsilontonos" unicode="&#x3cd;" horiz-adv-x="491" d="M431 487 L431 184 Q431 145 419 110.5 Q407 76 383.5 50.5 Q360 25 324.5 10 Q289 -5 242 -5 Q195 -5 160.5 8 Q126 21 103.5 44.5 Q81 68 70.5 101 Q60 134 60 173 L60 487 L116 487 L116 174 Q116 146 122.5 122 Q129 98 143.5 80 Q158 62 182 51.5 Q206 41 241 41 Q277 41 302 52.5 Q327 64 343 84 Q359 104 366.5 129.5 Q374 155 374 184 L374 487 L431 487 Z M239 540 L210 562 L316 720 L363 683 L239 540 Z " />
<glyph glyph-name="fi" unicode="&#xfb01;" horiz-adv-x="513" d="M384 0 L384 443 L152 443 L152 0 L98 0 L98 443 L29 443 L29 475 Q34 476 43.5 478 Q53 480 64 482 Q75 484 84.5 486 Q94 488 99 489 L99 563 Q99 610 112 641 Q125 672 148.5 690.5 Q172 709 204 716.5 Q236 724 275 724 Q308 724 345 719.5 Q382 715 413 709 Q411 700 408.5 686.5 Q406 673 404 665 Q373 670 341 673 Q309 676 282 676 Q247 676 222.5 670.5 Q198 665 182.5 651.5 Q167 638 159.5 614.5 Q152 591 152 555 L152 487 L440 487 L440 0 L384 0 Z " />
<glyph glyph-name="Circumflex" unicode="&#xf6c0;" horiz-adv-x="645" d="M468 724 L323 819 L179 723 L161 744 L302 875 L345 875 L487 746 L468 724 Z " />
<glyph glyph-name="commaaccent" unicode="&#xf6c3;" horiz-adv-x="632" d="M286 -98 Q286 -81 297.5 -69.5 Q309 -58 327 -58 Q347 -58 359.5 -71.5 Q372 -85 372 -108 Q370 -139 354 -165.5 Q338 -192 306 -212 L291 -195 Q306 -179 311.5 -165.5 Q317 -152 317 -136 Q286 -129 286 -98 Z " />
<glyph glyph-name="Acute" unicode="&#xf6c9;" horiz-adv-x="645" d="M334 722 L306 744 L419 897 L464 857 L334 722 Z " />
<glyph glyph-name="Caron" unicode="&#xf6ca;" horiz-adv-x="645" d="M487 853 L345 724 L303 724 L161 854 L179 875 L324 778 L469 874 L487 853 Z " />
<glyph glyph-name="DieresisAcute" unicode="&#xf6cc;" horiz-adv-x="645" d="M477 781 Q477 766 465.5 756 Q454 746 439 746 Q424 746 414.5 756 Q405 766 405 781 Q405 797 415.5 807 Q426 817 440 817 Q456 817 466.5 807 Q477 797 477 781 Z M293 781 Q293 766 282 756 Q271 746 256 746 Q241 746 230.5 756 Q220 766 220 781 Q220 797 230.5 807 Q241 817 255 817 Q271 817 282 807 Q293 797 293 781 Z M319 723 L292 741 L396 900 L443 865 L319 723 Z " />
<glyph glyph-name="DieresisGrave" unicode="&#xf6cd;" horiz-adv-x="645" d="M430 781 Q430 766 418.5 756 Q407 746 392 746 Q377 746 367 756 Q357 766 357 781 Q357 797 368 807 Q379 817 393 817 Q408 817 419 807 Q430 797 430 781 Z M245 781 Q245 766 234.5 756 Q224 746 208 746 Q193 746 182.5 756 Q172 766 172 781 Q172 797 182.5 807 Q193 817 207 817 Q224 817 234.5 807 Q245 797 245 781 Z M208 867 L256 902 L360 743 L332 725 L208 867 Z " />
<glyph glyph-name="Grave" unicode="&#xf6ce;" horiz-adv-x="645" d="M189 857 L233 898 L346 745 L318 722 L189 857 Z " />
<glyph glyph-name="Hungarumlaut" unicode="&#xf6cf;" horiz-adv-x="645" d="M390 723 L361 744 L471 900 L518 863 L390 723 Z M281 723 L252 744 L361 900 L408 863 L281 723 Z " />
<glyph glyph-name="Macron" unicode="&#xf6d0;" horiz-adv-x="645" d="M173 795 L481 795 L481 748 L173 748 L173 795 Z " />
<glyph glyph-name="cyrBreve" unicode="&#xf6d1;" horiz-adv-x="645" d="M320 725 Q296 725 274 733.5 Q252 742 233.5 756 Q215 770 198.5 788.5 Q182 807 169 827 L206 852 Q231 816 261.5 793.5 Q292 771 324 771 Q346 771 379.5 785 Q413 799 462 846 L483 829 Q441 770 399.5 747.5 Q358 725 320 725 Z " />
<glyph glyph-name="cyrbreve" unicode="&#xf6d4;" horiz-adv-x="480" d="M235 540 Q211 540 189.5 548.5 Q168 557 149 571.5 Q130 586 113.5 604.5 Q97 623 84 644 L120 668 Q145 632 176 609 Q207 586 238 586 Q249 586 263 588.5 Q277 591 294.5 599 Q312 607 332.5 622 Q353 637 378 662 L398 645 Q356 586 314.5 563 Q273 540 235 540 Z " />
<glyph glyph-name="afii10023" unicode="&#x401;" horiz-adv-x="531" d="M394 760 Q394 744 383 734 Q372 724 355 724 Q341 724 331 734 Q321 744 321 760 Q321 774 331 784.5 Q341 795 355 795 Q372 795 383 785 Q394 775 394 760 Z M231 760 Q231 744 220 734 Q209 724 193 724 Q178 724 167.5 734 Q157 744 157 760 Q157 774 168 784.5 Q179 795 193 795 Q209 795 220 785 Q231 775 231 760 Z M80 0 L80 683 L473 683 L473 637 L139 637 L139 385 L425 385 L425 339 L139 339 L139 47 L490 47 L490 0 L80 0 Z " />
<glyph glyph-name="afii10051" unicode="&#x402;" horiz-adv-x="730" d="M687 219 Q687 162 671 114 Q655 66 629 27 Q603 -12 570.5 -42.5 Q538 -73 505 -94 L481 -61 Q512 -39 538.5 -10.5 Q565 18 585 52 Q605 86 616.5 125 Q628 164 628 208 Q628 289 587 332 Q546 375 471 375 Q432 375 384.5 364 Q337 353 297 336 L297 0 L239 0 L239 636 L20 636 L20 683 L566 683 L566 636 L297 636 L297 381 Q342 400 393 411 Q444 422 486 422 Q538 422 576 405.5 Q614 389 638.5 361 Q663 333 675 296 Q687 259 687 219 Z " />
<glyph glyph-name="afii10052" unicode="&#x403;" horiz-adv-x="489" d="M253 723 L225 745 L338 898 L383 858 L253 723 Z M80 0 L80 683 L471 683 L471 635 L139 635 L139 0 L80 0 Z " />
<glyph glyph-name="afii10053" unicode="&#x404;" horiz-adv-x="569" d="M516 63 Q519 52 522.5 42 Q526 32 528 21 Q511 15 488 9.5 Q465 4 439.5 0.5 Q414 -3 388.5 -5 Q363 -7 341 -7 Q263 -7 209.5 17.5 Q156 42 122.5 86.5 Q89 131 74.5 194.5 Q60 258 60 336 Q60 373 65 413.5 Q70 454 82.5 494 Q95 534 116 570 Q137 606 168.5 633.5 Q200 661 243 677.5 Q286 694 344 694 Q399 694 442.5 686 Q486 678 515 667 L501 622 Q462 635 422.5 640 Q383 645 350 645 Q295 645 254 626.5 Q213 608 185 573.5 Q157 539 141.5 490 Q126 441 122 380 Q190 381 257 382.5 Q324 384 393 386 L393 334 Q324 335 256.5 336 Q189 337 120 337 L120 330 Q120 274 129.5 222 Q139 170 164.5 129.5 Q190 89 234.5 64.5 Q279 40 350 40 Q363 40 383.5 41.5 Q404 43 426.5 45.5 Q449 48 472.5 52.5 Q496 57 516 63 Z " />
<glyph glyph-name="afii10054" unicode="&#x405;" horiz-adv-x="547" d="M277 695 Q315 695 363 688 Q411 681 456 659 L437 614 Q386 634 347 640 Q308 646 273 646 Q207 646 163.5 612 Q120 578 120 508 Q120 477 134.5 456 Q149 435 172 421 Q195 407 225 397.5 Q255 388 287 380 Q324 370 362.5 358 Q401 346 432 325 Q463 304 482.5 270.5 Q502 237 502 184 Q502 133 483.5 97 Q465 61 432.5 37.5 Q400 14 355.5 3.5 Q311 -7 260 -7 Q206 -7 149.5 4.5 Q93 16 46 43 L66 87 Q124 59 170.5 50 Q217 41 258 41 Q346 41 393.5 73 Q441 105 441 184 Q441 218 429 241 Q417 264 395.5 279.5 Q374 295 344.5 305.5 Q315 316 280 325 Q236 337 196 350 Q156 363 125.5 383 Q95 403 77 432.5 Q59 462 59 507 Q59 552 75 587 Q91 622 120 646 Q149 670 189 682.5 Q229 695 277 695 Z " />
<glyph glyph-name="afii10055" unicode="&#x406;" horiz-adv-x="238" d="M90 0 L90 684 L148 684 L148 0 L90 0 Z " />
<glyph glyph-name="afii10056" unicode="&#x407;" horiz-adv-x="238" d="M239 760 Q239 744 228 734 Q217 724 200 724 Q186 724 176 734 Q166 744 166 760 Q166 774 176 784.5 Q186 795 200 795 Q217 795 228 785 Q239 775 239 760 Z M76 760 Q76 744 65 734 Q54 724 38 724 Q23 724 12.5 734 Q2 744 2 760 Q2 774 13 784.5 Q24 795 38 795 Q54 795 65 785 Q76 775 76 760 Z M90 0 L90 684 L148 684 L148 0 L90 0 Z " />
<glyph glyph-name="afii10057" unicode="&#x408;" horiz-adv-x="283" d="M125 684 L183 684 L183 118 Q183 57 169.5 11 Q156 -35 129.5 -70.5 Q103 -106 64 -132 Q25 -158 -25 -179 L-43 -136 Q2 -110 34 -85 Q66 -60 86.5 -31.5 Q107 -3 116 32.5 Q125 68 125 115 L125 684 Z " />
<glyph glyph-name="afii10058" unicode="&#x409;" horiz-adv-x="938" d="M231 526 Q225 402 219 307.5 Q213 213 193.5 145.5 Q174 78 134.5 36.5 Q95 -5 22 -22 L10 21 Q68 42 99 77 Q130 112 146 170.5 Q162 229 167.5 314.5 Q173 400 179 521 L187 684 L505 684 L506 394 L689 394 Q745 394 784.5 377 Q824 360 849.5 332 Q875 304 886.5 269 Q898 234 898 198 Q898 148 882.5 111 Q867 74 840 49 Q813 24 777 12 Q741 0 699 0 L446 0 L446 637 L236 637 L231 526 Z M506 349 L506 45 L694 45 Q724 45 750.5 54.5 Q777 64 796.5 83 Q816 102 827 130.5 Q838 159 838 197 Q838 239 824 268 Q810 297 788 315 Q766 333 738.5 341 Q711 349 684 349 L506 349 Z " />
<glyph glyph-name="afii10059" unicode="&#x40a;" horiz-adv-x="927" d="M495 394 L678 394 Q735 394 774.5 377 Q814 360 839 332 Q864 304 875.5 269 Q887 234 887 198 Q887 148 871.5 111 Q856 74 829.5 49.5 Q803 25 767 12.5 Q731 0 689 0 L435 0 L435 347 L140 347 L140 0 L80 0 L80 683 L140 683 L140 393 L435 393 L435 684 L495 684 L495 394 Z M495 347 L495 45 L683 45 Q714 45 740 54.5 Q766 64 785.5 82.5 Q805 101 816 129.5 Q827 158 827 196 Q827 239 813.5 268 Q800 297 778 314.5 Q756 332 729 339.5 Q702 347 674 347 L495 347 Z " />
<glyph glyph-name="afii10060" unicode="&#x40b;" horiz-adv-x="741" d="M672 0 L613 0 L613 259 Q613 380 473 380 Q452 380 427.5 376 Q403 372 378 366 Q353 360 329 351.5 Q305 343 287 334 L287 0 L229 0 L229 636 L20 636 L20 683 L556 683 L556 636 L288 636 L288 382 Q345 406 397 417 Q449 428 487 428 Q535 428 569.5 416.5 Q604 405 627 384.5 Q650 364 661 336 Q672 308 672 276 L672 0 Z " />
<glyph glyph-name="afii10061" unicode="&#x40c;" horiz-adv-x="562" d="M80 0 L80 684 L139 684 L139 389 L273 389 Q291 389 310 393 Q329 397 346 409 Q363 421 378 442 Q393 463 403 497 L459 682 L514 682 L462 498 Q447 447 423 412.5 Q399 378 361 366 Q412 354 437 320 Q462 286 476 237 L542 0 L484 0 L419 226 Q408 260 393.5 282 Q379 304 361 317 Q343 330 323 334.5 Q303 339 282 339 L139 339 L139 0 L80 0 Z M263 725 L235 747 L348 900 L393 860 L263 725 Z " />
<glyph glyph-name="afii10062" unicode="&#x40e;" horiz-adv-x="535" d="M82 683 Q91 661 106.5 622 Q122 583 139 540 Q156 497 172 458 Q188 419 197 397 Q203 381 213 355 Q223 329 233.5 301 Q244 273 254 246.5 Q264 220 270 204 L274 204 Q276 209 283.5 229 Q291 249 300.5 275.5 Q310 302 320 329 Q330 356 337 374 Q345 394 356 423 Q367 452 379 484 Q391 516 403.5 549 Q416 582 426 610 Q436 638 443.5 657.5 Q451 677 453 683 L513 683 L285 90 Q266 42 238 17.5 Q210 -7 169 -7 Q155 -7 131.5 -5.5 Q108 -4 66 7 L79 55 Q102 50 120.5 46.5 Q139 43 156 43 Q185 43 203 57.5 Q221 72 235 110 L255 166 L233 166 Q222 193 205.5 234.5 Q189 276 169 324 Q149 372 128 424.5 Q107 477 87.5 525 Q68 573 51 614.5 Q34 656 23 683 L82 683 Z M274 717 Q250 717 228 725.5 Q206 734 187.5 748 Q169 762 152.5 780.5 Q136 799 123 819 L160 844 Q185 808 215.5 785.5 Q246 763 278 763 Q300 763 333.5 777 Q367 791 416 838 L437 821 Q395 762 353.5 739.5 Q312 717 274 717 Z " />
<glyph glyph-name="afii10145" unicode="&#x40f;" horiz-adv-x="626" d="M545 682 L545 0 L340 0 L340 -166 L289 -166 L289 0 L80 0 L80 682 L139 682 L139 45 L485 45 L485 682 L545 682 Z " />
<glyph glyph-name="afii10017" unicode="&#x410;" horiz-adv-x="551" d="M474 0 L414 187 L133 187 Q118 139 104 93 Q90 47 75 0 L14 0 L237 683 L313 683 Q370 511 424.5 341 Q479 171 535 0 L474 0 Z M400 233 Q377 306 354.5 378 Q332 450 309 522 Q306 533 301.5 547.5 Q297 562 292.5 577 Q288 592 283.5 606.5 Q279 621 276 632 L273 632 L239 522 L149 233 L400 233 Z " />
<glyph glyph-name="afii10018" unicode="&#x411;" horiz-adv-x="559" d="M450 638 L127 638 L127 394 L311 394 Q368 394 408 377.5 Q448 361 472.5 334.5 Q497 308 508 273.5 Q519 239 519 203 Q519 153 504 115 Q489 77 462 51.5 Q435 26 399 13 Q363 0 321 0 L67 0 L67 683 L450 683 L450 638 Z M127 349 L127 45 L317 45 Q378 45 419 84.5 Q460 124 460 200 Q460 242 447 271 Q434 300 412 317 Q390 334 362.5 341.5 Q335 349 306 349 L127 349 Z " />
<glyph glyph-name="afii10019" unicode="&#x412;" horiz-adv-x="584" d="M413 353 Q446 341 467.5 321 Q489 301 501.5 277 Q514 253 519 228 Q524 203 524 182 Q524 140 509.5 106.5 Q495 73 469.5 49.5 Q444 26 410.5 13 Q377 0 339 0 L80 0 L80 682 L307 682 Q406 682 454.5 634 Q503 586 503 511 Q503 497 499.5 478 Q496 459 486 438 Q476 417 458.5 396.5 Q441 376 413 360 L413 353 Z M138 331 L138 46 L319 46 Q358 46 386 57.5 Q414 69 431.5 89 Q449 109 457 134.5 Q465 160 465 189 Q465 217 455 242.5 Q445 268 426 287.5 Q407 307 379.5 319 Q352 331 318 331 L138 331 Z M138 378 L301 378 Q367 378 405.5 412.5 Q444 447 444 505 Q444 533 435.5 557 Q427 581 409 598.5 Q391 616 363 626 Q335 636 296 636 L138 636 L138 378 Z " />
<glyph glyph-name="afii10020" unicode="&#x413;" horiz-adv-x="489" d="M80 0 L80 683 L471 683 L471 635 L139 635 L139 0 L80 0 Z " />
<glyph glyph-name="afii10021" unicode="&#x414;" horiz-adv-x="662" d="M60 0 L60 -161 L12 -161 L12 45 L64 45 Q103 76 126.5 127.5 Q150 179 163.5 245.5 Q177 312 183.5 392.5 Q190 473 196 562 L204 683 L561 683 L561 45 L622 45 L622 -161 L574 -161 L574 0 L60 0 Z M249 554 Q242 457 235 377 Q228 297 216 233.5 Q204 170 184 123 Q164 76 132 45 L502 45 L502 638 L255 638 L249 554 Z " />
<glyph glyph-name="afii10022" unicode="&#x415;" horiz-adv-x="531" d="M80 0 L80 683 L473 683 L473 637 L139 637 L139 385 L425 385 L425 339 L139 339 L139 47 L490 47 L490 0 L80 0 Z " />
<glyph glyph-name="afii10024" unicode="&#x416;" horiz-adv-x="888" d="M414 0 L414 340 L290 340 Q269 340 249 335 Q229 330 211 317.5 Q193 305 178 282.5 Q163 260 153 226 L88 0 L30 0 L96 237 Q110 286 135.5 320 Q161 354 212 366 Q174 378 150 412.5 Q126 447 111 498 L59 682 L113 682 L169 497 Q179 463 193.5 442 Q208 421 225 409 Q242 397 261 393 Q280 389 298 389 L414 389 L414 684 L473 684 L473 389 L589 389 Q607 389 625.5 393 Q644 397 661.5 409 Q679 421 693.5 442 Q708 463 718 497 L774 682 L828 682 L775 498 Q761 447 737 412.5 Q713 378 675 366 Q726 354 751 320 Q776 286 790 237 L856 0 L800 0 L734 226 Q723 260 708.5 282.5 Q694 305 676 317.5 Q658 330 638.5 335 Q619 340 598 340 L473 340 L473 0 L414 0 Z " />
<glyph glyph-name="afii10025" unicode="&#x417;" horiz-adv-x="547" d="M362 378 Q422 364 459.5 320.5 Q497 277 497 207 Q497 155 477 115.5 Q457 76 422 49 Q387 22 340 8.5 Q293 -5 240 -5 Q183 -5 127.5 4 Q72 13 27 32 L42 74 Q98 56 145 49.5 Q192 43 221 43 Q324 43 380.5 85.5 Q437 128 437 207 Q437 276 386 314.5 Q335 353 248 353 L166 353 L166 398 L246 398 Q328 398 372.5 436 Q417 474 417 532 Q417 590 371.5 618.5 Q326 647 250 647 Q223 647 173.5 639.5 Q124 632 69 606 L52 647 Q94 670 148 682 Q202 694 257 694 Q307 694 348 684 Q389 674 418 654 Q447 634 463 604 Q479 574 479 534 Q479 509 470.5 485.5 Q462 462 447 442 Q432 422 410.5 407 Q389 392 363 383 L362 378 Z " />
<glyph glyph-name="afii10026" unicode="&#x418;" horiz-adv-x="641" d="M561 682 L561 0 L503 0 L503 589 L500 589 L139 0 L80 0 L80 682 L138 682 L138 97 L141 97 L503 684 L561 682 Z " />
<glyph glyph-name="afii10027" unicode="&#x419;" horiz-adv-x="641" d="M561 682 L561 0 L503 0 L503 589 L500 589 L139 0 L80 0 L80 682 L138 682 L138 97 L141 97 L503 684 L561 682 Z M309 740 Q285 740 263 749 Q241 758 222 772 Q203 786 187 804.5 Q171 823 158 843 L194 868 Q220 832 250.5 810 Q281 788 312 788 Q334 788 367.5 801 Q401 814 450 862 L471 844 Q429 786 388 763 Q347 740 309 740 Z " />
<glyph glyph-name="afii10028" unicode="&#x41a;" horiz-adv-x="562" d="M80 0 L80 684 L139 684 L139 389 L273 389 Q291 389 310 393 Q329 397 346 409 Q363 421 378 442 Q393 463 403 497 L459 682 L514 682 L462 498 Q447 447 423 412.5 Q399 378 361 366 Q412 354 437 320 Q462 286 476 237 L542 0 L484 0 L419 226 Q408 260 393.5 282 Q379 304 361 317 Q343 330 323 334.5 Q303 339 282 339 L139 339 L139 0 L80 0 Z " />
<glyph glyph-name="afii10029" unicode="&#x41b;" horiz-adv-x="616" d="M475 0 L475 637 L236 637 L231 526 Q225 402 219 307.5 Q213 213 193.5 145.5 Q174 78 134.5 36.5 Q95 -5 22 -22 L10 21 Q68 43 99.5 78.5 Q131 114 146.5 172 Q162 230 167 315 Q172 400 178 521 L186 684 L536 684 L536 0 L475 0 Z " />
<glyph glyph-name="afii10030" unicode="&#x41c;" horiz-adv-x="794" d="M146 682 Q200 564 252 445 Q304 326 358 207 L394 124 L399 124 Q409 145 418 166 Q427 187 436 208 Q489 326 542.5 445 Q596 564 650 682 L713 682 L713 0 L656 0 Q656 143 655.5 285 Q655 427 655 570 L653 570 L607 466 Q583 413 558 358.5 Q533 304 509.5 251.5 Q486 199 464 150.5 Q442 102 424 62 L367 62 Q360 77 353 93 Q346 109 337 129.5 Q328 150 316 175.5 Q304 201 288 236 Q268 284 242 340.5 Q216 397 183 469 L139 571 L136 571 L136 0 L80 0 L80 682 L146 682 L146 682 Z " />
<glyph glyph-name="afii10031" unicode="&#x41d;" horiz-adv-x="626" d="M485 0 L485 336 L140 336 Q140 321 140 294.5 Q140 268 140 236 Q140 204 140.5 168.5 Q141 133 141 101 Q141 69 141 42 Q141 15 141 0 L80 0 L80 683 L141 683 Q141 663 141 621.5 Q141 580 140.5 534.5 Q140 489 140 447.5 Q140 406 140 386 L485 386 L485 683 L546 683 L546 0 L485 0 Z " />
<glyph glyph-name="afii10032" unicode="&#x41e;" horiz-adv-x="676" d="M616 339 Q616 265 599 202 Q582 139 547.5 92.5 Q513 46 462 19.5 Q411 -7 344 -7 Q266 -7 212 17 Q158 41 124.5 85 Q91 129 75.5 192.5 Q60 256 60 336 Q60 406 74.5 471 Q89 536 122 585.5 Q155 635 209.5 664.5 Q264 694 344 694 Q425 694 477.5 664.5 Q530 635 561 585.5 Q592 536 604 472 Q616 408 616 339 Z M554 336 Q554 388 546.5 443.5 Q539 499 516.5 544.5 Q494 590 452.5 619 Q411 648 344 648 Q276 648 233 621 Q190 594 165 550 Q140 506 130.5 449.5 Q121 393 121 334 Q121 190 173 114.5 Q225 39 341 39 Q396 39 436 62.5 Q476 86 502 126 Q528 166 541 220 Q554 274 554 336 Z " />
<glyph glyph-name="afii10033" unicode="&#x41f;" horiz-adv-x="626" d="M485 0 L485 633 L140 633 L141 0 L80 0 L80 684 L546 684 L546 0 L485 0 Z " />
<glyph glyph-name="afii10034" unicode="&#x420;" horiz-adv-x="525" d="M496 490 Q496 460 487 424.5 Q478 389 456 359 Q434 329 396 309 Q358 289 300 289 L139 289 L140 0 L80 0 L80 684 L291 684 Q334 684 371.5 672 Q409 660 437 636 Q465 612 480.5 575.5 Q496 539 496 490 Z M139 637 L139 335 L293 335 Q319 335 344.5 342 Q370 349 390 366.5 Q410 384 422.5 413.5 Q435 443 435 487 Q435 525 423.5 553.5 Q412 582 392.5 600.5 Q373 619 346.5 628 Q320 637 290 637 L139 637 Z " />
<glyph glyph-name="afii10035" unicode="&#x421;" horiz-adv-x="569" d="M346 694 Q400 694 443.5 686 Q487 678 516 667 L502 622 Q463 635 424 640.5 Q385 646 351 646 Q291 646 248 624 Q205 602 176.5 561.5 Q148 521 134.5 464 Q121 407 121 336 Q121 277 130 224 Q139 171 164 130 Q189 89 234 65 Q279 41 351 41 Q364 41 384.5 42.5 Q405 44 427.5 46.5 Q450 49 473.5 53.5 Q497 58 517 64 L529 22 Q512 15 489 9.5 Q466 4 440.5 0.5 Q415 -3 389 -5 Q363 -7 341 -7 Q263 -7 209.5 17.5 Q156 42 123 87 Q90 132 75 195.5 Q60 259 60 337 Q60 392 72 454.5 Q84 517 116 570.5 Q148 624 203.5 659 Q259 694 346 694 Z " />
<glyph glyph-name="afii10036" unicode="&#x422;" horiz-adv-x="536" d="M239 0 L239 636 L19 636 L19 684 L516 684 L516 636 L298 636 L297 0 L239 0 Z " />
<glyph glyph-name="afii10037" unicode="&#x423;" horiz-adv-x="535" d="M82 683 Q91 661 106.5 622 Q122 583 139 540 Q156 497 172 458 Q188 419 197 397 Q203 381 213 355 Q223 329 233.5 301 Q244 273 254 246.5 Q264 220 270 204 L274 204 Q276 209 283.5 229 Q291 249 300.5 275.5 Q310 302 320 329 Q330 356 337 374 Q345 394 356 423 Q367 452 379 484 Q391 516 403.5 549 Q416 582 426 610 Q436 638 443.5 657.5 Q451 677 453 683 L513 683 L285 90 Q266 42 238 17.5 Q210 -7 169 -7 Q155 -7 131.5 -5.5 Q108 -4 66 7 L79 55 Q102 50 120.5 46.5 Q139 43 156 43 Q185 43 203 57.5 Q221 72 235 110 L255 166 L233 166 Q222 193 205.5 234.5 Q189 276 169 324 Q149 372 128 424.5 Q107 477 87.5 525 Q68 573 51 614.5 Q34 656 23 683 L82 683 Z " />
<glyph glyph-name="afii10038" unicode="&#x424;" horiz-adv-x="783" d="M739 350 Q739 295 718 248 Q697 201 656.5 165.5 Q616 130 557.5 108.5 Q499 87 425 84 L425 0 L368 0 L368 84 Q283 88 221.5 108 Q160 128 120.5 162 Q81 196 62.5 243 Q44 290 44 347 Q44 396 63 442.5 Q82 489 121.5 526.5 Q161 564 222 588 Q283 612 368 616 L368 683 L425 683 L425 616 Q511 613 571 589.5 Q631 566 668.5 529 Q706 492 722.5 445.5 Q739 399 739 350 Z M102 345 Q102 241 170.5 188 Q239 135 368 129 L368 570 Q296 566 245.5 546.5 Q195 527 163 496.5 Q131 466 116.5 427 Q102 388 102 345 Z M681 347 Q681 385 669 423 Q657 461 627.5 492.5 Q598 524 548.5 545.5 Q499 567 425 570 L425 129 Q486 131 533.5 149 Q581 167 614 196 Q647 225 664 264 Q681 303 681 347 Z " />
<glyph glyph-name="afii10039" unicode="&#x425;" horiz-adv-x="528" d="M228 354 Q178 436 128 518 Q78 600 27 683 L93 683 Q136 610 178.5 538.5 Q221 467 265 395 L438 683 L503 683 Q452 599 400.5 517 Q349 435 298 352 L514 0 L448 0 L262 310 L77 0 L13 0 Q67 89 120.5 177 Q174 265 228 354 Z " />
<glyph glyph-name="afii10040" unicode="&#x426;" horiz-adv-x="648" d="M546 45 L613 45 L613 -161 L564 -161 L564 0 L80 0 L80 682 L139 682 L139 45 L485 45 L485 682 L545 682 L546 45 Z " />
<glyph glyph-name="afii10041" unicode="&#x427;" horiz-adv-x="587" d="M507 0 L448 0 L448 311 Q421 301 392 294 Q363 287 336 283 Q309 279 285 277 Q261 275 245 275 Q149 275 101.5 317.5 Q54 360 54 427 L54 682 L114 682 L114 445 Q114 382 148 352.5 Q182 323 254 323 Q275 323 299.5 325 Q324 327 349.5 331.5 Q375 336 400.5 343 Q426 350 448 360 L448 682 L507 682 L507 0 Z " />
<glyph glyph-name="afii10042" unicode="&#x428;" horiz-adv-x="878" d="M411 683 L470 683 L470 45 L738 45 L738 683 L797 683 L798 0 L80 0 L80 683 L138 683 L138 45 L411 45 L411 683 Z " />
<glyph glyph-name="afii10043" unicode="&#x429;" horiz-adv-x="900" d="M80 683 L138 683 L138 45 L411 45 L411 683 L470 683 L470 45 L738 45 L738 683 L798 683 L798 45 L865 45 L865 -161 L816 -161 L816 0 L80 0 L80 683 Z " />
<glyph glyph-name="afii10044" unicode="&#x42a;" horiz-adv-x="738" d="M303 394 L489 394 Q545 394 584.5 377 Q624 360 649.5 332 Q675 304 686.5 269 Q698 234 698 198 Q698 148 682.5 111 Q667 74 640 49 Q613 24 577 12 Q541 0 499 0 L243 0 L244 636 L13 636 L13 683 L303 683 L303 394 Z M303 349 L303 45 L494 45 Q524 45 550.5 54.5 Q577 64 596 83 Q615 102 626 130.5 Q637 159 637 197 Q637 239 623.5 268 Q610 297 588.5 315 Q567 333 539.5 341 Q512 349 485 349 L303 349 Z " />
<glyph glyph-name="afii10045" unicode="&#x42b;" horiz-adv-x="761" d="M139 349 L139 45 L329 45 Q359 45 385.5 54.5 Q412 64 431.5 83 Q451 102 462.5 130.5 Q474 159 474 197 Q474 239 460 268 Q446 297 424 315 Q402 333 374.5 341 Q347 349 320 349 L139 349 Z M139 394 L324 394 Q380 394 420 376.5 Q460 359 485.5 331.5 Q511 304 522.5 268.5 Q534 233 534 197 Q534 147 518.5 110.5 Q503 74 476 49 Q449 24 412.5 12 Q376 0 335 0 L80 0 L80 684 L139 684 L139 394 Z M623 0 L623 684 L681 684 L681 0 L623 0 Z " />
<glyph glyph-name="afii10046" unicode="&#x42c;" horiz-adv-x="574" d="M139 349 L139 45 L329 45 Q359 45 385.5 54.5 Q412 64 431.5 83 Q451 102 462.5 130.5 Q474 159 474 197 Q474 239 460 268 Q446 297 424 315 Q402 333 374.5 341 Q347 349 320 349 L139 349 Z M139 394 L324 394 Q380 394 420 376.5 Q460 359 485.5 331.5 Q511 304 522.5 268.5 Q534 233 534 197 Q534 147 518.5 110.5 Q503 74 476 49 Q449 24 412.5 12 Q376 0 335 0 L80 0 L80 684 L139 684 L139 394 Z " />
<glyph glyph-name="afii10047" unicode="&#x42d;" horiz-adv-x="560" d="M211 -7 Q159 -7 110 0.5 Q61 8 28 21 L40 65 Q87 51 131 46 Q175 41 203 41 Q273 41 319 66 Q365 91 391.5 133 Q418 175 428.5 230.5 Q439 286 439 346 Q421 346 382 345 Q343 344 300.5 343 Q258 342 219 341.5 Q180 341 162 341 L162 393 L439 388 Q437 445 425 492.5 Q413 540 386.5 574 Q360 608 319 627 Q278 646 220 646 Q189 646 147 640 Q105 634 65 622 L53 666 Q82 677 127.5 685.5 Q173 694 219 694 Q306 694 361 664.5 Q416 635 446.5 587.5 Q477 540 488.5 480.5 Q500 421 500 362 Q500 284 484 217 Q468 150 433.5 100 Q399 50 344 21.5 Q289 -7 211 -7 Z " />
<glyph glyph-name="afii10048" unicode="&#x42e;" horiz-adv-x="882" d="M80 0 L80 683 L138 683 L138 382 L287 382 Q291 445 306.5 501.5 Q322 558 354 600.5 Q386 643 436 668 Q486 693 560 693 Q641 693 692 663.5 Q743 634 772 584.5 Q801 535 811.5 471 Q822 407 822 338 Q822 264 806.5 201 Q791 138 758.5 92 Q726 46 676.5 20 Q627 -6 560 -7 Q485 -7 432.5 17 Q380 41 347.5 85.5 Q315 130 300.5 193.5 Q286 257 286 337 L138 337 L138 0 L80 0 Z M761 335 Q761 387 755 442.5 Q749 498 728 543.5 Q707 589 667 618 Q627 647 560 647 Q492 647 450.5 620 Q409 593 385.5 549 Q362 505 354 448.5 Q346 392 346 333 Q346 261 357 206 Q368 151 393 113.5 Q418 76 458 57 Q498 38 556 38 Q611 38 650 61.5 Q689 85 713.5 125 Q738 165 749.5 219 Q761 273 761 335 Z " />
<glyph glyph-name="afii10049" unicode="&#x42f;" horiz-adv-x="571" d="M74 495 Q74 534 86 568.5 Q98 603 122.5 628.5 Q147 654 185 669 Q223 684 275 684 L491 684 L491 0 L432 0 L432 307 L311 307 Q285 307 261.5 302 Q238 297 218 284.5 Q198 272 182 250.5 Q166 229 156 196 L99 0 L40 0 L98 204 Q111 246 133 277.5 Q155 309 196 322 Q164 330 141 347 Q118 364 103 387 Q88 410 81 437.5 Q74 465 74 495 Z M432 354 L432 636 L281 636 Q218 636 176 600.5 Q134 565 134 493 Q134 453 145.5 426.5 Q157 400 177 384 Q197 368 223.5 361 Q250 354 279 354 L432 354 Z " />
<glyph glyph-name="afii10065" unicode="&#x430;" horiz-adv-x="506" d="M252 493 Q326 493 366.5 457 Q407 421 407 334 L407 44 L473 44 Q475 36 475 27.5 Q475 19 476 11 Q459 3 439 -1 Q419 -5 403 -5 Q375 -5 362.5 8.5 Q350 22 352 55 Q352 55 350 56 Q321 33 295.5 20.5 Q270 8 248.5 2 Q227 -4 210 -5 Q193 -6 181 -6 Q140 -6 112.5 6.5 Q85 19 69 38.5 Q53 58 46.5 82 Q40 106 40 128 Q40 195 84.5 230.5 Q129 266 199 271 L352 279 L352 319 Q352 387 329 416.5 Q306 446 240 446 Q203 446 164 438 Q125 430 88 417 L74 456 Q116 474 163 483.5 Q210 493 252 493 Z M213 231 Q156 229 128 203 Q100 177 100 134 Q100 85 124.5 61 Q149 37 202 37 Q237 37 274.5 55 Q312 73 352 106 L352 239 L213 231 Z " />
<glyph glyph-name="afii10066" unicode="&#x431;" horiz-adv-x="487" d="M233 667 Q249 674 271 682.5 Q293 691 316 700.5 Q339 710 360 719 Q381 728 396 736 Q401 727 406 717 Q411 707 416 698 Q368 673 325.5 655.5 Q283 638 251 625 Q170 592 135 533 Q100 474 92 384 Q92 384 94 383 Q117 428 159.5 455 Q202 482 258 482 Q312 482 348.5 461 Q385 440 406.5 406 Q428 372 437 328.5 Q446 285 446 240 Q446 196 436.5 152 Q427 108 403.5 72.5 Q380 37 339.5 15 Q299 -7 237 -7 Q177 -7 139 14.5 Q101 36 79 70.5 Q57 105 48.5 147.5 Q40 190 40 232 Q41 322 43.5 373.5 Q46 425 51 454 Q66 528 110 581.5 Q154 635 233 667 Z M250 439 Q206 439 177 419 Q148 399 130.5 368.5 Q113 338 105.5 301 Q98 264 98 231 Q98 198 103 163 Q108 128 123 100 Q138 72 166.5 54 Q195 36 243 36 Q288 36 316.5 54 Q345 72 361 101 Q377 130 382.5 165.5 Q388 201 388 236 Q388 267 383 303 Q378 339 363 369 Q348 399 321 419 Q294 439 250 439 Z " />
<glyph glyph-name="afii10067" unicode="&#x432;" horiz-adv-x="471" d="M261 487 Q339 487 378 452.5 Q417 418 417 364 Q417 338 403.5 307.5 Q390 277 348 257 Q373 249 389.5 235 Q406 221 415.5 204 Q425 187 429 169 Q433 151 433 135 Q433 105 421.5 80 Q410 55 389.5 37.5 Q369 20 342.5 10 Q316 0 286 0 L59 0 L59 487 L261 487 Z M114 232 L114 45 L267 45 Q297 45 318 53 Q339 61 352.5 74.5 Q366 88 372 105.5 Q378 123 378 141 Q378 177 349.5 204.5 Q321 232 267 232 L114 232 Z M114 442 L114 274 L258 274 Q304 274 332.5 297 Q361 320 361 358 Q361 395 335 418.5 Q309 442 249 442 L114 442 Z " />
<glyph glyph-name="afii10068" unicode="&#x433;" horiz-adv-x="383" d="M59 0 L59 487 L376 487 L376 442 L113 442 L113 0 L59 0 Z " />
<glyph glyph-name="afii10069" unicode="&#x434;" horiz-adv-x="533" d="M452 44 L495 44 L495 -133 L450 -133 L450 0 L61 0 L61 -133 L15 -133 L15 44 L55 44 Q83 64 99.5 99 Q116 134 125 179.5 Q134 225 138 279 Q142 333 145 392 L150 487 L452 487 L452 44 Z M200 442 L197 384 Q194 326 190.5 275.5 Q187 225 179.5 182 Q172 139 158.5 104 Q145 69 123 44 L396 44 L396 442 L200 442 Z " />
<glyph glyph-name="afii10070" unicode="&#x435;" horiz-adv-x="486" d="M254 453 Q215 453 188 438 Q161 423 144.5 398 Q128 373 119.5 340.5 Q111 308 108 273 L386 273 Q386 312 379.5 345 Q373 378 358 402 Q343 426 317.5 439.5 Q292 453 254 453 Z M253 495 Q300 495 332.5 481.5 Q365 468 386 446.5 Q407 425 418 398 Q429 371 434 345.5 Q439 320 439.5 297.5 Q440 275 440 262 L440 233 L107 233 Q107 194 113.5 159 Q120 124 137 97 Q154 70 183 54 Q212 38 257 38 Q301 38 335.5 47 Q370 56 412 75 L427 37 Q385 14 344 3.5 Q303 -7 255 -7 Q193 -7 153 13 Q113 33 90 66.5 Q67 100 58 145 Q49 190 49 241 Q49 261 51.5 288 Q54 315 62 343 Q70 371 84 398.5 Q98 426 120.5 447.5 Q143 469 175.5 482 Q208 495 253 495 Z " />
<glyph glyph-name="afii10072" unicode="&#x436;" horiz-adv-x="710" d="M327 0 L327 238 L252 238 Q232 238 214 236 Q196 234 180.5 226 Q165 218 152.5 202.5 Q140 187 131 160 Q118 119 105 79.5 Q92 40 79 0 L25 0 L79 168 Q90 202 107 225.5 Q124 249 159 260 Q133 270 117.5 294 Q102 318 90 352 Q79 387 68 420.5 Q57 454 46 488 L98 488 L144 353 Q153 327 165 312 Q177 297 191.5 290 Q206 283 222 281.5 Q238 280 255 280 L327 280 L327 488 L382 488 L382 280 L453 280 Q470 280 486 281.5 Q502 283 516.5 290 Q531 297 543 312 Q555 327 564 353 L610 488 L663 488 L618 352 Q607 318 591 294 Q575 270 549 260 Q584 249 601.5 225.5 Q619 202 630 168 L684 0 L629 0 L577 159 Q568 186 555.5 202 Q543 218 527.5 226 Q512 234 494 236 Q476 238 456 238 L382 238 L382 0 L327 0 Z " />
<glyph glyph-name="afii10073" unicode="&#x437;" horiz-adv-x="434" d="M190 -7 Q146 -7 101 1 Q56 9 24 23 Q25 26 26.5 31 Q28 36 30.5 42 Q33 48 35 53.5 Q37 59 38 61 Q73 49 110 42 Q147 35 182 35 Q251 35 292 61.5 Q333 88 333 147 Q333 173 321.5 191.5 Q310 210 291.5 221.5 Q273 233 249 238.5 Q225 244 201 244 L130 244 L130 284 L191 284 Q217 284 240 289 Q263 294 280 305 Q297 316 307 333 Q317 350 317 373 Q317 411 287.5 431.5 Q258 452 201 452 Q172 452 138 446.5 Q104 441 55 421 Q53 426 48.5 440 Q44 454 42 459 Q77 476 121.5 486 Q166 496 208 496 Q284 496 328.5 465.5 Q373 435 373 378 Q373 336 347.5 307.5 Q322 279 285 268 L285 266 Q328 256 358.5 225.5 Q389 195 389 145 Q389 107 374 79 Q359 51 332.5 31.5 Q306 12 269.5 2.5 Q233 -7 190 -7 Z " />
<glyph glyph-name="afii10074" unicode="&#x438;" horiz-adv-x="496" d="M382 0 L382 408 L379 408 Q368 391 348.5 361 Q329 331 306 295 Q280 256 251.5 212.5 Q223 169 196.5 128.5 Q170 88 147.5 54.5 Q125 21 111 0 L59 0 L59 487 L113 487 L113 83 L117 83 Q133 107 148.5 132 Q164 157 180 180 Q192 199 211.5 228 Q231 257 252.5 290 Q274 323 296.5 356 Q319 389 337 417 Q355 445 367.5 464 Q380 483 383 487 L437 487 L437 0 L382 0 Z " />
<glyph glyph-name="afii10076" unicode="&#x43a;" horiz-adv-x="458" d="M59 0 L59 489 L113 489 L113 280 L221 280 Q235 280 248.5 283 Q262 286 274.5 294 Q287 302 297.5 316 Q308 330 316 353 Q320 365 326 383 Q332 401 338.5 420.5 Q345 440 351.5 458.5 Q358 477 362 488 L414 488 Q410 477 404 458.5 Q398 440 392 420.5 Q386 401 380 382.5 Q374 364 370 353 Q359 319 343 295 Q327 271 301 260 Q336 250 353.5 226.5 Q371 203 382 169 L436 0 L382 0 Q377 13 370 34.5 Q363 56 355.5 80 Q348 104 340.5 126 Q333 148 329 161 L329 160 Q312 208 285 223 Q258 238 226 238 L113 238 L113 0 L59 0 Z " />
<glyph glyph-name="afii10077" unicode="&#x43b;" horiz-adv-x="483" d="M368 0 L368 442 L181 442 L176 368 Q171 291 165.5 226 Q160 161 145 111.5 Q130 62 101 29 Q72 -4 18 -17 L4 23 Q45 39 67.5 66 Q90 93 101.5 134.5 Q113 176 117 234.5 Q121 293 126 372 L133 487 L424 487 L424 0 L368 0 Z " />
<glyph glyph-name="afii10078" unicode="&#x43c;" horiz-adv-x="623" d="M510 0 L510 389 L508 389 Q499 370 490.5 351.5 Q482 333 473 315 Q466 301 447 263.5 Q428 226 406.5 182.5 Q385 139 365 100 Q345 61 337 44 L295 44 L149 323 L114 393 L111 393 L111 0 L59 0 L59 487 L119 487 Q132 464 150 429 Q168 394 188 353.5 Q208 313 230 270.5 Q252 228 272 190 L316 104 L317 104 L381 236 Q391 257 410.5 295 Q430 333 449.5 373 Q469 413 485 445.5 Q501 478 506 487 L564 487 L564 0 L510 0 Z " />
<glyph glyph-name="afii10079" unicode="&#x43d;" horiz-adv-x="490" d="M375 0 L375 236 L114 236 L114 0 L59 0 L59 487 L115 487 L115 282 L375 282 L375 487 L431 487 L431 0 L375 0 Z " />
<glyph glyph-name="afii10080" unicode="&#x43e;" horiz-adv-x="505" d="M457 241 Q457 196 447.5 151.5 Q438 107 414.5 71.5 Q391 36 351 14.5 Q311 -7 250 -7 Q191 -7 152.5 13.5 Q114 34 91 68 Q68 102 58.5 146.5 Q49 191 49 239 Q49 287 60 333 Q71 379 95.5 415 Q120 451 160 473 Q200 495 257 495 Q316 495 354.5 473 Q393 451 416 415 Q439 379 448 333.5 Q457 288 457 241 Z M399 239 Q399 274 393.5 311.5 Q388 349 373 379.5 Q358 410 330 430 Q302 450 257 450 Q212 450 183 431 Q154 412 137 382 Q120 352 113.5 314 Q107 276 107 238 Q107 199 112.5 163 Q118 127 134.5 99.5 Q151 72 180 55 Q209 38 257 38 Q301 38 329 56 Q357 74 372.5 103 Q388 132 393.5 168 Q399 204 399 239 Z " />
<glyph glyph-name="afii10081" unicode="&#x43f;" horiz-adv-x="491" d="M375 0 L375 442 L115 442 L115 0 L59 0 L59 486 L431 486 L431 0 L375 0 Z " />
<glyph glyph-name="afii10082" unicode="&#x440;" horiz-adv-x="497" d="M117 436 Q149 462 189 477.5 Q229 493 270 493 Q320 493 354 474 Q388 455 408.5 422.5 Q429 390 438 346 Q447 302 447 252 Q447 198 437 150.5 Q427 103 404 68 Q381 33 344.5 13 Q308 -7 256 -7 Q227 -7 188.5 0 Q150 7 114 30 L114 -210 L59 -210 L59 487 L111 487 Q111 484 111.5 477 Q112 470 112 462.5 Q112 455 112.5 448.5 Q113 442 113 439 L117 436 Z M114 77 Q136 62 174 49.5 Q212 37 249 37 Q278 37 304 48 Q330 59 349 84.5 Q368 110 379 151.5 Q390 193 390 254 Q390 309 380.5 345.5 Q371 382 353 404.5 Q335 427 310 436.5 Q285 446 255 446 Q238 446 218.5 441 Q199 436 179.5 427.5 Q160 419 143 408.5 Q126 398 114 387 L114 77 Z " />
<glyph glyph-name="afii10083" unicode="&#x441;" horiz-adv-x="445" d="M107 240 Q107 198 114 161.5 Q121 125 138.5 98 Q156 71 185 55 Q214 39 258 39 Q298 39 331 47.5 Q364 56 403 72 L418 33 Q388 16 345.5 4.5 Q303 -7 255 -7 Q198 -7 158.5 11.5 Q119 30 94.5 62 Q70 94 59.5 138.5 Q49 183 49 236 Q49 261 52.5 290 Q56 319 64.5 348 Q73 377 88.5 404 Q104 431 127.5 451.5 Q151 472 184 484 Q217 496 262 496 Q296 496 331 490.5 Q366 485 399 471 L384 429 Q348 442 318.5 445.5 Q289 449 266 449 Q186 449 146.5 391.5 Q107 334 107 240 Z " />
<glyph glyph-name="afii10084" unicode="&#x442;" horiz-adv-x="426" d="M186 442 L14 442 L14 487 L411 487 L411 442 L241 442 L241 0 L186 0 L186 442 Z " />
<glyph glyph-name="afii10085" unicode="&#x443;" horiz-adv-x="434" d="M259 173 Q271 210 284.5 252 Q298 294 311 336 Q324 378 336.5 417 Q349 456 359 487 L416 487 Q407 461 392 414.5 Q377 368 358.5 311 Q340 254 320 192 Q300 130 281 73.5 Q262 17 247 -29.5 Q232 -76 223 -102 Q206 -155 178.5 -186 Q151 -217 100 -217 Q86 -216 61.5 -214.5 Q37 -213 -1 -202 L8 -160 Q37 -166 54 -168.5 Q71 -171 88 -171 Q102 -171 113.5 -169 Q125 -167 135.5 -159.5 Q146 -152 154.5 -137.5 Q163 -123 171 -99 L204 2 L175 2 Q168 25 155.5 63.5 Q143 102 128 148.5 Q113 195 96 245 Q79 295 64 341.5 Q49 388 36 426 Q23 464 16 487 L71 487 Q75 474 83 449 Q91 424 100.5 393.5 Q110 363 121 329.5 Q132 296 141.5 265.5 Q151 235 159 210 Q167 185 171 171 L213 38 L217 38 L259 173 Z " />
<glyph glyph-name="afii10086" unicode="&#x444;" horiz-adv-x="641" d="M294 -7 Q221 -4 172 16 Q123 36 94 68.5 Q65 101 52.5 144.5 Q40 188 40 238 Q40 291 54.5 336.5 Q69 382 99.5 416 Q130 450 178 470 Q226 490 294 493 L293 708 L347 708 L347 493 Q415 492 463 473.5 Q511 455 542 423 Q573 391 587 346.5 Q601 302 601 249 Q601 197 587.5 152 Q574 107 544 72.5 Q514 38 465.5 17 Q417 -4 347 -7 L347 -207 L293 -207 L294 -7 Z M347 36 Q405 39 443.5 56 Q482 73 504.5 101 Q527 129 536.5 166 Q546 203 546 244 Q546 286 537.5 322.5 Q529 359 506.5 386.5 Q484 414 445.5 430.5 Q407 447 347 449 L347 36 Z M294 449 Q237 446 198.5 429 Q160 412 136.5 384.5 Q113 357 103.5 320 Q94 283 94 241 Q94 197 103.5 160 Q113 123 136 96 Q159 69 197.5 53.5 Q236 38 294 36 L294 449 Z " />
<glyph glyph-name="afii10087" unicode="&#x445;" horiz-adv-x="406" d="M202 220 Q168 164 135 109.5 Q102 55 67 0 L7 0 Q48 64 87.5 128 Q127 192 169 256 Q133 314 96.5 371.5 Q60 429 23 487 L86 487 L202 294 Q232 342 260.5 390.5 Q289 439 319 487 L381 487 Q344 429 307 372 Q270 315 234 258 Q276 193 316.5 129 Q357 65 399 0 L335 0 L202 220 Z " />
<glyph glyph-name="afii10088" unicode="&#x446;" horiz-adv-x="517" d="M375 487 L430 487 L430 45 L485 45 L485 -133 L439 -133 L439 0 L59 0 L59 487 L114 487 L114 45 L375 45 L375 487 Z " />
<glyph glyph-name="afii10089" unicode="&#x447;" horiz-adv-x="463" d="M348 0 L348 237 Q305 209 259 199 Q213 189 178 189 Q129 189 101.5 203 Q74 217 60.5 238.5 Q47 260 44 286.5 Q41 313 41 339 L41 487 L96 487 L96 355 Q96 326 99 304 Q102 282 112 266.5 Q122 251 140.5 243 Q159 235 189 235 Q224 235 268 245.5 Q312 256 348 283 L348 488 L404 488 L404 0 L348 0 Z " />
<glyph glyph-name="afii10090" unicode="&#x448;" horiz-adv-x="688" d="M574 487 L630 487 L630 0 L60 0 L60 487 L114 487 L114 45 L316 45 L316 487 L372 487 L372 45 L574 45 L574 487 Z " />
<glyph glyph-name="afii10091" unicode="&#x449;" horiz-adv-x="709" d="M574 487 L630 487 L630 45 L684 45 L684 -133 L638 -133 L638 0 L60 0 L60 487 L114 487 L114 45 L316 45 L316 487 L372 487 L372 45 L574 45 L574 487 Z " />
<glyph glyph-name="afii10092" unicode="&#x44a;" horiz-adv-x="599" d="M245 297 L409 297 Q453 297 483.5 283.5 Q514 270 533 248.5 Q552 227 560.5 200.5 Q569 174 569 149 Q569 114 557 86 Q545 58 524 39 Q503 20 475 10 Q447 0 415 0 L190 0 L190 442 L13 442 L13 487 L245 487 L245 297 Z M245 254 L245 44 L408 44 Q455 44 484.5 71 Q514 98 514 148 Q514 176 504.5 196.5 Q495 217 479 229.5 Q463 242 442.5 248 Q422 254 400 254 L245 254 Z " />
<glyph glyph-name="afii10093" unicode="&#x44b;" horiz-adv-x="614" d="M500 0 L500 487 L556 487 L556 0 L500 0 Z M114 254 L114 45 L278 45 Q324 45 353.5 71.5 Q383 98 383 148 Q383 176 373.5 196.5 Q364 217 348 229.5 Q332 242 311.5 248 Q291 254 269 254 L114 254 Z M114 487 L114 297 L278 297 Q323 297 353.5 283.5 Q384 270 402.5 248.5 Q421 227 429.5 200.5 Q438 174 438 149 Q438 114 426 86 Q414 58 393 39 Q372 20 344 10 Q316 0 284 0 L59 0 L59 487 L114 487 Z " />
<glyph glyph-name="afii10094" unicode="&#x44c;" horiz-adv-x="468" d="M114 254 L114 45 L278 45 Q324 45 353.5 71.5 Q383 98 383 148 Q383 176 373.5 196.5 Q364 217 348 229.5 Q332 242 311.5 248 Q291 254 269 254 L114 254 Z M114 487 L114 297 L278 297 Q323 297 353.5 283.5 Q384 270 402.5 248.5 Q421 227 429.5 200.5 Q438 174 438 149 Q438 114 426 86 Q414 58 393 39 Q372 20 344 10 Q316 0 284 0 L59 0 L59 487 L114 487 Z " />
<glyph glyph-name="afii10095" unicode="&#x44d;" horiz-adv-x="441" d="M184 496 Q249 496 290 473.5 Q331 451 354 415.5 Q377 380 385 337.5 Q393 295 393 255 Q393 204 381.5 157 Q370 110 344.5 73.5 Q319 37 278.5 15 Q238 -7 180 -7 Q133 -7 93 4 Q53 15 22 32 L37 69 Q76 52 107 44.5 Q138 37 178 37 Q218 37 248 53.5 Q278 70 297 98 Q316 126 325.5 162.5 Q335 199 335 240 L129 238 L129 281 L335 277 Q332 358 294.5 405 Q257 452 182 452 Q159 452 129.5 449 Q100 446 57 431 L43 468 Q72 481 108.5 488.5 Q145 496 184 496 Z " />
<glyph glyph-name="afii10096" unicode="&#x44e;" horiz-adv-x="654" d="M59 0 L59 487 L113 487 L113 277 L209 277 Q213 319 226 358.5 Q239 398 263 428.5 Q287 459 323.5 477 Q360 495 411 495 Q468 495 505.5 472.5 Q543 450 565 414 Q587 378 596 332.5 Q605 287 605 241 Q605 196 596 152 Q587 108 564 72.5 Q541 37 502 15 Q463 -7 403 -7 Q346 -7 309 14 Q272 35 249.5 69.5 Q227 104 217.5 147.5 Q208 191 208 237 L113 237 L113 0 L59 0 Z M548 239 Q548 273 543 310 Q538 347 523 378 Q508 409 481 429.5 Q454 450 411 450 Q367 450 339 431 Q311 412 294.5 381.5 Q278 351 271.5 313 Q265 275 265 238 Q265 200 270 164 Q275 128 290 100 Q305 72 334 54.5 Q363 37 411 37 Q454 37 480.5 56 Q507 75 522 104.5 Q537 134 542.5 169.5 Q548 205 548 239 Z " />
<glyph glyph-name="afii10097" unicode="&#x44f;" horiz-adv-x="477" d="M362 211 L249 211 Q209 211 180 196.5 Q151 182 136 138 L89 0 L32 0 L82 147 Q91 174 105.5 195.5 Q120 217 150 228 L150 229 Q102 243 81.5 275.5 Q61 308 61 348 Q61 375 70 399.5 Q79 424 98.5 443.5 Q118 463 149 474.5 Q180 486 223 486 L417 486 L417 0 L362 0 L362 211 Z M230 442 Q180 442 148.5 420.5 Q117 399 117 349 Q117 322 126.5 304 Q136 286 152 275 Q168 264 188.5 259.5 Q209 255 231 255 L362 255 L362 442 L230 442 Z " />
<glyph glyph-name="afii10071" unicode="&#x451;" horiz-adv-x="486" d="M254 453 Q215 453 188 438 Q161 423 144.5 398 Q128 373 119.5 340.5 Q111 308 108 273 L386 273 Q386 312 379.5 345 Q373 378 358 402 Q343 426 317.5 439.5 Q292 453 254 453 Z M253 495 Q300 495 332.5 481.5 Q365 468 386 446.5 Q407 425 418 398 Q429 371 434 345.5 Q439 320 439.5 297.5 Q440 275 440 262 L440 233 L107 233 Q107 194 113.5 159 Q120 124 137 97 Q154 70 183 54 Q212 38 257 38 Q301 38 335.5 47 Q370 56 412 75 L427 37 Q385 14 344 3.5 Q303 -7 255 -7 Q193 -7 153 13 Q113 33 90 66.5 Q67 100 58 145 Q49 190 49 241 Q49 261 51.5 288 Q54 315 62 343 Q70 371 84 398.5 Q98 426 120.5 447.5 Q143 469 175.5 482 Q208 495 253 495 Z M367 612 Q367 597 356 587 Q345 577 329 577 Q314 577 304 587 Q294 597 294 612 Q294 627 304.5 637.5 Q315 648 329 648 Q345 648 356 638 Q367 628 367 612 Z M204 612 Q204 597 193.5 587 Q183 577 166 577 Q151 577 140.5 587 Q130 597 130 612 Q130 627 141 637.5 Q152 648 166 648 Q183 648 193.5 638 Q204 628 204 612 Z " />
<glyph glyph-name="afii10100" unicode="&#x453;" horiz-adv-x="383" d="M59 0 L59 487 L376 487 L376 442 L113 442 L113 0 L59 0 Z M182 562 L156 584 L268 738 L313 698 L182 562 Z " />
<glyph glyph-name="afii10101" unicode="&#x454;" horiz-adv-x="450" d="M107 231 Q108 190 115.5 155 Q123 120 140.5 94 Q158 68 186.5 53 Q215 38 257 38 Q298 38 331 46.5 Q364 55 403 71 L418 33 Q388 16 345.5 5 Q303 -6 255 -6 Q198 -6 158.5 12 Q119 30 94.5 62.5 Q70 95 59.5 139 Q49 183 49 235 Q49 273 57 318.5 Q65 364 88.5 403.5 Q112 443 153.5 469.5 Q195 496 261 496 Q296 496 331 490.5 Q366 485 399 471 L384 429 Q347 442 318 445.5 Q289 449 266 449 Q191 449 152 399.5 Q113 350 108 267 L311 272 L311 228 L107 231 Z " />
<glyph glyph-name="afii10102" unicode="&#x455;" horiz-adv-x="428" d="M61 70 Q104 49 141 43 Q178 37 205 37 Q232 37 255 42 Q278 47 295 58 Q312 69 322 86.5 Q332 104 332 128 Q332 150 322 165 Q312 180 296 191.5 Q280 203 259 211 Q238 219 216 227 Q185 237 156.5 248 Q128 259 105.5 274.5 Q83 290 69.5 311.5 Q56 333 56 365 Q56 399 69.5 424 Q83 449 105.5 464.5 Q128 480 158 487.5 Q188 495 221 495 Q247 495 286 488.5 Q325 482 357 465 Q354 457 349 444 Q344 431 340 424 Q304 438 274.5 443.5 Q245 449 220 449 Q175 449 142.5 429.5 Q110 410 110 364 Q110 345 121 331 Q132 317 149 306.5 Q166 296 185.5 288.5 Q205 281 222 276 Q252 266 281.5 255.5 Q311 245 334.5 229 Q358 213 372 189 Q386 165 386 129 Q386 93 372 67.5 Q358 42 333 25.5 Q308 9 275 1 Q242 -7 205 -7 Q162 -7 118 2 Q74 11 42 30 L61 70 Z " />
<glyph glyph-name="afii10103" unicode="&#x456;" horiz-adv-x="225" d="M84 0 L84 487 L140 487 L140 0 L84 0 Z M153 612 Q153 596 141 584 Q129 572 112 572 Q95 572 83.5 584 Q72 596 72 612 Q72 629 83.5 641.5 Q95 654 112 654 Q129 654 141 641.5 Q153 629 153 612 Z " />
<glyph glyph-name="afii10104" unicode="&#x457;" horiz-adv-x="225" d="M84 0 L84 487 L140 487 L140 0 L84 0 Z M233 605 Q233 590 222 580 Q211 570 195 570 Q180 570 170 580 Q160 590 160 605 Q160 620 170.5 630.5 Q181 641 195 641 Q211 641 222 631 Q233 621 233 605 Z M70 605 Q70 590 59.5 580 Q49 570 32 570 Q17 570 6.5 580 Q-4 590 -4 605 Q-4 620 7 630.5 Q18 641 32 641 Q49 641 59.5 631 Q70 621 70 605 Z " />
<glyph glyph-name="afii10105" unicode="&#x458;" horiz-adv-x="234" d="M91 487 L147 487 L147 -2 Q146 -44 138.5 -76 Q131 -108 113 -133 Q95 -158 66 -178 Q37 -198 -8 -216 L-25 -177 Q11 -157 33.5 -139 Q56 -121 69 -101 Q82 -81 87 -57.5 Q92 -34 92 -3 L91 487 Z M80 612 Q80 629 91.5 641.5 Q103 654 120 654 Q137 654 149 641.5 Q161 629 161 612 Q161 596 149 584 Q137 572 120 572 Q103 572 91.5 584 Q80 596 80 612 Z " />
<glyph glyph-name="afii10106" unicode="&#x459;" horiz-adv-x="747" d="M392 298 L556 298 Q601 298 632 284.5 Q663 271 681.5 249 Q700 227 708.5 200.5 Q717 174 717 149 Q717 114 705 86 Q693 58 672 39 Q651 20 623 10 Q595 0 563 0 L337 0 L337 442 L181 442 L177 368 Q173 286 167.5 220.5 Q162 155 147 106.5 Q132 58 102 27 Q72 -4 18 -17 L4 23 Q44 38 66.5 63 Q89 88 101 129 Q113 170 117.5 229.5 Q122 289 127 372 L133 487 L392 487 L392 298 Z M392 254 L392 45 L556 45 Q603 45 632.5 71.5 Q662 98 662 148 Q662 176 652.5 196.5 Q643 217 627 229.5 Q611 242 590.5 248 Q570 254 548 254 L392 254 Z " />
<glyph glyph-name="afii10107" unicode="&#x45a;" horiz-adv-x="741" d="M387 292 L546 292 Q591 292 622 279.5 Q653 267 673 247 Q693 227 702 200.5 Q711 174 711 146 Q711 111 699 84 Q687 57 666.5 38 Q646 19 618 9.5 Q590 0 558 0 L333 0 L333 248 L114 248 L114 0 L60 0 L60 487 L114 487 L114 292 L333 292 L332 487 L387 487 L387 292 Z M387 248 L387 45 L551 45 Q598 45 627.5 70 Q657 95 657 146 Q657 174 647.5 193.5 Q638 213 622 225 Q606 237 585.5 242.5 Q565 248 543 248 L387 248 Z " />
<glyph glyph-name="afii10108" unicode="&#x45b;" horiz-adv-x="501" d="M385 0 L385 311 Q385 338 382.5 360.5 Q380 383 370.5 399 Q361 415 342 423.5 Q323 432 291 432 Q272 432 250.5 427 Q229 422 207 414.5 Q185 407 164.5 397.5 Q144 388 126 378 L126 0 L69 0 L69 554 L2 554 L2 589 L69 589 L69 710 L125 710 L125 589 L320 589 L320 554 L125 554 L125 421 Q175 447 223.5 463 Q272 479 307 479 Q356 479 383 464.5 Q410 450 423 428 Q436 406 438.5 379.5 Q441 353 441 328 L441 0 L385 0 Z " />
<glyph glyph-name="afii10109" unicode="&#x45c;" horiz-adv-x="458" d="M59 0 L59 489 L113 489 L113 280 L221 280 Q235 280 248.5 283 Q262 286 274.5 294 Q287 302 297.5 316 Q308 330 316 353 Q320 365 326 383 Q332 401 338.5 420.5 Q345 440 351.5 458.5 Q358 477 362 488 L414 488 Q410 477 404 458.5 Q398 440 392 420.5 Q386 401 380 382.5 Q374 364 370 353 Q359 319 343 295 Q327 271 301 260 Q336 250 353.5 226.5 Q371 203 382 169 L436 0 L382 0 Q377 13 370 34.5 Q363 56 355.5 80 Q348 104 340.5 126 Q333 148 329 161 L329 160 Q312 208 285 223 Q258 238 226 238 L113 238 L113 0 L59 0 Z M208 543 L182 565 L294 719 L339 679 L208 543 Z " />
<glyph glyph-name="afii10110" unicode="&#x45e;" horiz-adv-x="434" d="M217 37 Q220 45 231.5 84 Q243 123 259 173 Q271 210 284.5 252 Q298 294 311 336 Q324 378 336.5 417 Q349 456 359 487 L416 487 Q407 461 392 414.5 Q377 368 358.5 311 Q340 254 320 192 Q300 130 281 73.5 Q262 17 247 -29.5 Q232 -76 223 -102 Q206 -155 178.5 -186 Q151 -217 100 -217 Q86 -216 61.5 -214.5 Q37 -213 -1 -202 L8 -160 Q37 -166 54 -168.5 Q71 -171 88 -171 Q102 -171 113.5 -169 Q125 -167 135.5 -159.5 Q146 -152 154.5 -137.5 Q163 -123 171 -99 L204 2 L175 2 Q168 25 155.5 63.5 Q143 102 128 148.5 Q113 195 96 245 Q79 295 64 341.5 Q49 388 36 426 Q23 464 16 487 L71 487 Q75 474 83 449 Q91 424 100.5 393.5 Q110 363 121 329.5 Q132 296 141.5 265.5 Q151 235 159 210 Q167 185 171 171 L213 37 L217 37 Z M212 552 Q188 552 166 561 Q144 570 125 584 Q106 598 90 616.5 Q74 635 61 655 L97 680 Q123 644 153.5 622 Q184 600 215 600 Q237 600 270.5 613 Q304 626 353 674 L374 656 Q332 598 291 575 Q250 552 212 552 Z " />
<glyph glyph-name="afii10193" unicode="&#x45f;" horiz-adv-x="490" d="M221 0 L59 0 L59 487 L115 487 L115 45 L376 45 L376 487 L431 487 L431 0 L269 0 L269 -140 L221 -140 L221 0 Z " />
<glyph glyph-name="afii10050" unicode="&#x490;" horiz-adv-x="489" d="M80 0 L80 683 L427 683 L427 810 L475 810 L475 638 L139 638 L139 0 L80 0 Z " />
<glyph glyph-name="afii10098" unicode="&#x491;" horiz-adv-x="384" d="M328 588 L370 588 L370 442 L113 442 L113 0 L59 0 L59 487 L328 487 L328 588 Z " />
<glyph glyph-name="schwacyrillic" unicode="&#x4d9;" horiz-adv-x="466" d="M229 38 Q268 38 294.5 53 Q321 68 338 92.5 Q355 117 363 149.5 Q371 182 374 217 L98 217 Q98 178 104.5 145 Q111 112 126 88 Q141 64 166 51 Q191 38 229 38 Z M228 -7 Q182 -7 150 6.5 Q118 20 97.5 42 Q77 64 66 90.5 Q55 117 50 143 Q45 169 44 191 Q43 213 43 226 L43 255 L375 255 Q375 294 368.5 329.5 Q362 365 345.5 391.5 Q329 418 300 434 Q271 450 226 450 Q182 450 148 441.5 Q114 433 72 415 L57 452 Q99 475 139.5 485 Q180 495 228 495 Q290 495 330 475.5 Q370 456 393 422 Q416 388 424.5 343.5 Q433 299 433 248 Q433 228 430.5 201 Q428 174 420 146 Q412 118 398 90.5 Q384 63 361 41.5 Q338 20 305.5 6.5 Q273 -7 228 -7 Z " />
<glyph glyph-name="Wgrave" unicode="&#x1e80;" horiz-adv-x="807" d="M390 594 Q380 546 369 500.5 Q358 455 348 407 Q333 344 309.5 242.5 Q286 141 254 0 L180 0 L14 682 L74 682 Q81 651 92 603.5 Q103 556 116 499 Q129 442 143.5 381 Q158 320 172 262 L216 69 L220 69 Q231 116 241.5 162.5 Q252 209 263 257 Q289 368 313 470.5 Q337 573 362 682 L424 682 Q434 644 449.5 586.5 Q465 529 481.5 468 Q498 407 513 350.5 Q528 294 538 259 Q540 253 547.5 226 Q555 199 563 167.5 Q571 136 578.5 107.5 Q586 79 589 69 L594 69 L637 260 L734 682 L792 682 Q749 503 707.5 332.5 Q666 162 626 0 L555 0 Q527 106 499.5 206.5 Q472 307 443 416 Q432 461 420.5 505 Q409 549 396 594 L390 594 Z M281 857 L325 898 L438 745 L410 722 L281 857 Z " />
<glyph glyph-name="wgrave" unicode="&#x1e81;" horiz-adv-x="686" d="M503 55 L538 195 L617 487 L674 487 L534 0 L470 0 L382 275 L339 422 L335 422 L297 281 L215 0 L150 0 L12 487 L68 487 L145 206 L183 55 L187 55 L230 214 L309 487 L365 487 L458 192 L498 55 L503 55 Z M217 679 L262 720 L375 567 L347 543 L217 679 Z " />
<glyph glyph-name="Wacute" unicode="&#x1e82;" horiz-adv-x="807" d="M390 594 Q380 546 369 500.5 Q358 455 348 407 Q333 344 309.5 242.5 Q286 141 254 0 L180 0 L14 682 L74 682 Q81 651 92 603.5 Q103 556 116 499 Q129 442 143.5 381 Q158 320 172 262 L216 69 L220 69 Q231 116 241.5 162.5 Q252 209 263 257 Q289 368 313 470.5 Q337 573 362 682 L424 682 Q434 644 449.5 586.5 Q465 529 481.5 468 Q498 407 513 350.5 Q528 294 538 259 Q540 253 547.5 226 Q555 199 563 167.5 Q571 136 578.5 107.5 Q586 79 589 69 L594 69 L637 260 L734 682 L792 682 Q749 503 707.5 332.5 Q666 162 626 0 L555 0 Q527 106 499.5 206.5 Q472 307 443 416 Q432 461 420.5 505 Q409 549 396 594 L390 594 Z M404 723 L376 745 L489 898 L534 858 L404 723 Z " />
<glyph glyph-name="wacute" unicode="&#x1e83;" horiz-adv-x="686" d="M503 55 L538 195 L617 487 L674 487 L534 0 L470 0 L382 275 L339 422 L335 422 L297 281 L215 0 L150 0 L12 487 L68 487 L145 206 L183 55 L187 55 L230 214 L309 487 L365 487 L458 192 L498 55 L503 55 Z M341 543 L315 565 L427 719 L472 679 L341 543 Z " />
<glyph glyph-name="Wdieresis" unicode="&#x1e84;" horiz-adv-x="807" d="M390 594 Q380 546 369 500.5 Q358 455 348 407 Q333 344 309.5 242.5 Q286 141 254 0 L180 0 L14 682 L74 682 Q81 651 92 603.5 Q103 556 116 499 Q129 442 143.5 381 Q158 320 172 262 L216 69 L220 69 Q231 116 241.5 162.5 Q252 209 263 257 Q289 368 313 470.5 Q337 573 362 682 L424 682 Q434 644 449.5 586.5 Q465 529 481.5 468 Q498 407 513 350.5 Q528 294 538 259 Q540 253 547.5 226 Q555 199 563 167.5 Q571 136 578.5 107.5 Q586 79 589 69 L594 69 L637 260 L734 682 L792 682 Q749 503 707.5 332.5 Q666 162 626 0 L555 0 Q527 106 499.5 206.5 Q472 307 443 416 Q432 461 420.5 505 Q409 549 396 594 L390 594 Z M348 771 Q348 755 337 745 Q326 735 310 735 Q295 735 284.5 745 Q274 755 274 771 Q274 785 285 795.5 Q296 806 310 806 Q326 806 337 796 Q348 786 348 771 Z M511 771 Q511 755 500 745 Q489 735 472 735 Q458 735 448 745 Q438 755 438 771 Q438 785 448 795.5 Q458 806 472 806 Q489 806 500 796 Q511 786 511 771 Z " />
<glyph glyph-name="wdieresis" unicode="&#x1e85;" horiz-adv-x="686" d="M503 55 L538 195 L617 487 L674 487 L534 0 L470 0 L382 275 L339 422 L335 422 L297 281 L215 0 L150 0 L12 487 L68 487 L145 206 L183 55 L187 55 L230 214 L309 487 L365 487 L458 192 L498 55 L503 55 Z M454 588 Q454 573 443 563 Q432 553 416 553 Q401 553 391 563 Q381 573 381 588 Q381 603 391.5 613.5 Q402 624 416 624 Q432 624 443 614 Q454 604 454 588 Z M291 588 Q291 573 280.5 563 Q270 553 253 553 Q238 553 227.5 563 Q217 573 217 588 Q217 603 228 613.5 Q239 624 253 624 Q270 624 280.5 614 Q291 604 291 588 Z " />
<glyph glyph-name="Ygrave" unicode="&#x1ef2;" horiz-adv-x="500" d="M216 304 L12 684 L75 684 L182 481 L245 356 L249 356 L314 480 L425 684 L487 684 L278 308 L278 0 L216 0 L216 304 Z M139 854 L183 895 L296 742 L268 719 L139 854 Z " />
<glyph glyph-name="ygrave" unicode="&#x1ef3;" horiz-adv-x="434" d="M217 37 Q220 45 231.5 84 Q243 123 259 173 Q271 210 284.5 252 Q298 294 311 336 Q324 378 336.5 417 Q349 456 359 487 L416 487 Q407 461 392 414.5 Q377 368 358.5 311 Q340 254 320 192 Q300 130 281 73.5 Q262 17 247 -29.5 Q232 -76 223 -102 Q206 -155 178.5 -186 Q151 -217 100 -217 Q86 -216 61.5 -214.5 Q37 -213 -1 -202 L8 -160 Q37 -166 54 -168.5 Q71 -171 88 -171 Q102 -171 113.5 -169 Q125 -167 135.5 -159.5 Q146 -152 154.5 -137.5 Q163 -123 171 -99 L204 2 L175 2 Q168 25 155.5 63.5 Q143 102 128 148.5 Q113 195 96 245 Q79 295 64 341.5 Q49 388 36 426 Q23 464 16 487 L71 487 Q75 474 83 449 Q91 424 100.5 393.5 Q110 363 121 329.5 Q132 296 141.5 265.5 Q151 235 159 210 Q167 185 171 171 L213 37 L217 37 Z M103 679 L148 720 L261 567 L233 543 L103 679 Z " />
<glyph glyph-name="afii00208" unicode="&#x2015;" horiz-adv-x="1000" d="M30 231 L30 277 L966 277 L966 231 L30 231 Z " />
<glyph glyph-name="&amp;#x2044;" unicode="&#x2044;" horiz-adv-x="107" d="M-66 -23 L-108 -23 L179 699 L219 699 L-66 -23 Z " />
<glyph glyph-name="&amp;#x2215;" unicode="&#x2215;" horiz-adv-x="107" d="M-66 -23 L-108 -23 L179 699 L219 699 L-66 -23 Z " />
<glyph glyph-name="dong" unicode="&#x20ab;" horiz-adv-x="532" d="M362 124 Q334 102 298.5 88.5 Q263 75 227 75 Q183 75 153 90.5 Q123 106 104.5 133 Q86 160 78 196.5 Q70 233 70 276 Q70 324 79 364.5 Q88 405 108.5 435 Q129 465 161 481.5 Q193 498 239 498 Q264 498 298 490 Q332 482 362 465 L362 551 L227 551 L227 585 L362 585 L362 683 L412 683 L412 585 L469 585 L469 551 L412 551 L412 80 L364 80 L364 124 L362 124 Z M244 455 Q219 455 197 446.5 Q175 438 158.5 417 Q142 396 132 361 Q122 326 122 274 Q122 228 130.5 197.5 Q139 167 154 149 Q169 131 190.5 123.5 Q212 116 238 116 Q253 116 270.5 120.5 Q288 125 305 132 Q322 139 337.5 148 Q353 157 362 167 L362 421 Q343 434 309.5 444.5 Q276 455 244 455 Z M62 0 L62 37 L462 37 L462 0 L62 0 Z " />
<glyph glyph-name="centigrade" unicode="&#x2103;" horiz-adv-x="843" d="M620 694 Q674 694 717.5 686 Q761 678 790 667 L776 622 Q737 635 698 640.5 Q659 646 625 646 Q565 646 522 624 Q479 602 450.5 561.5 Q422 521 408.5 464 Q395 407 395 336 Q395 277 404 224 Q413 171 438 130 Q463 89 508 65 Q553 41 625 41 Q638 41 658.5 42.5 Q679 44 701.5 46.5 Q724 49 747.5 53.5 Q771 58 791 64 L803 22 Q786 15 763 9.5 Q740 4 714.5 0.5 Q689 -3 663 -5 Q637 -7 615 -7 Q537 -7 483.5 17.5 Q430 42 397 87 Q364 132 349 195.5 Q334 259 334 337 Q334 392 346 454.5 Q358 517 390 570.5 Q422 624 477.5 659 Q533 694 620 694 Z M291 595 Q291 569 281.5 546 Q272 523 255 506.5 Q238 490 215.5 480.5 Q193 471 167 471 Q107 471 73.5 506.5 Q40 542 40 595 Q40 620 50 643 Q60 666 77 683.5 Q94 701 117.5 711.5 Q141 722 167 722 Q193 722 215.5 711.5 Q238 701 255 683.5 Q272 666 281.5 643 Q291 620 291 595 Z M254 594 Q254 612 246.5 628.5 Q239 645 227 657.5 Q215 670 199 677.5 Q183 685 165 685 Q147 685 131 677.5 Q115 670 103 657.5 Q91 645 84 628.5 Q77 612 77 594 Q77 576 84 560.5 Q91 545 103 533 Q115 521 131 514 Q147 507 165 507 Q183 507 199 514 Q215 521 227 533 Q239 545 246.5 560.5 Q254 576 254 594 Z " />
<glyph glyph-name="fahrenheit" unicode="&#x2109;" horiz-adv-x="802" d="M291 597 Q291 571 281.5 548 Q272 525 255 508.5 Q238 492 215.5 482.5 Q193 473 167 473 Q107 473 73.5 508.5 Q40 544 40 597 Q40 622 50 645 Q60 668 77 685.5 Q94 703 117.5 713.5 Q141 724 167 724 Q193 724 215.5 713.5 Q238 703 255 685.5 Q272 668 281.5 645 Q291 622 291 597 Z M254 596 Q254 614 246.5 630.5 Q239 647 227 659.5 Q215 672 199 679.5 Q183 687 165 687 Q147 687 131 679.5 Q115 672 103 659.5 Q91 647 84 630.5 Q77 614 77 596 Q77 578 84 562.5 Q91 547 103 535 Q115 523 131 516 Q147 509 165 509 Q183 509 199 516 Q215 523 227 535 Q239 547 246.5 562.5 Q254 578 254 596 Z M379 0 L379 683 L770 683 L770 636 L438 636 L438 382 L720 382 L720 335 L438 335 L438 0 L379 0 Z " />
<glyph glyph-name="afii61352" unicode="&#x2116;" horiz-adv-x="993" d="M514 100 L514 683 L572 683 L572 0 L514 0 Q502 19 478.5 55.5 Q455 92 426 137 Q397 182 365.5 231.5 Q334 281 305.5 326 Q277 371 254 407.5 Q231 444 219 463 L141 592 Q140 592 139 591.5 Q138 591 137 591 L137 0 L80 0 L80 683 L140 683 Q152 665 175 629 Q198 593 227 548 Q256 503 287.5 453.5 Q319 404 347.5 359 Q376 314 399 278 Q422 242 434 224 L510 100 L514 100 Z M797 681 Q838 681 865 666.5 Q892 652 907.5 628 Q923 604 929.5 574 Q936 544 936 514 Q936 484 929.5 454.5 Q923 425 907 402 Q891 379 863.5 364.5 Q836 350 794 350 Q753 350 726 363.5 Q699 377 682.5 399.5 Q666 422 659 451.5 Q652 481 652 513 Q652 544 659.5 574 Q667 604 684 628 Q701 652 728.5 666.5 Q756 681 797 681 Z M890 513 Q890 535 886.5 558.5 Q883 582 873 601.5 Q863 621 845 634 Q827 647 797 647 Q767 647 747.5 635 Q728 623 716.5 603.5 Q705 584 701 560 Q697 536 697 512 Q697 488 700.5 465 Q704 442 714.5 424.5 Q725 407 745 396.5 Q765 386 797 386 Q826 386 844.5 397.5 Q863 409 873 427 Q883 445 886.5 467.5 Q890 490 890 513 Z M654 257 L654 300 L934 300 L934 257 L654 257 Z " />
<glyph glyph-name="published" unicode="&#x2117;" horiz-adv-x="828" d="M625 434 Q625 411 618.5 385 Q612 359 595.5 336 Q579 313 550.5 298 Q522 283 478 283 L346 283 L346 68 L303 68 L303 579 L472 579 Q504 579 532 570 Q560 561 580.5 543 Q601 525 613 498 Q625 471 625 434 Z M346 541 L346 321 L474 321 Q493 321 512.5 325.5 Q532 330 547.5 342.5 Q563 355 572.5 376.5 Q582 398 582 432 Q582 490 550 515.5 Q518 541 472 541 L346 541 Z M781 334 Q781 259 752 193.5 Q723 128 673 79.5 Q623 31 557 2.5 Q491 -26 416 -26 Q341 -26 275 2.5 Q209 31 160 79.5 Q111 128 82.5 193.5 Q54 259 54 334 Q54 408 82.5 473 Q111 538 160 587 Q209 636 275 664 Q341 692 416 692 Q491 692 557 664 Q623 636 673 587 Q723 538 752 473 Q781 408 781 334 Z M745 334 Q745 401 719.5 460.5 Q694 520 649.5 564 Q605 608 545 633.5 Q485 659 416 659 Q348 659 288.5 633.5 Q229 608 184 564 Q139 520 113 460.5 Q87 401 87 334 Q87 266 113 207 Q139 148 184 104 Q229 60 288.5 34.5 Q348 9 416 9 Q485 9 545 34.5 Q605 60 649.5 104 Q694 148 719.5 207 Q745 266 745 334 Z " />
<glyph glyph-name="Ohm" unicode="&#x2126;" horiz-adv-x="677" d="M340 694 Q421 694 474 665 Q527 636 559 588.5 Q591 541 604 479.5 Q617 418 617 354 Q617 307 611 261.5 Q605 216 591.5 175.5 Q578 135 555 101 Q532 67 499 45 Q500 45 501 44 L635 44 L635 0 L403 0 L403 47 Q447 60 476 88.5 Q505 117 522.5 157.5 Q540 198 547 247.5 Q554 297 554 352 Q554 403 545.5 455.5 Q537 508 513.5 550.5 Q490 593 448.5 620 Q407 647 340 647 Q278 647 236.5 623 Q195 599 169 558.5 Q143 518 132 465 Q121 412 121 354 Q121 296 127 245.5 Q133 195 149 155 Q165 115 193 87.5 Q221 60 265 48 L265 0 L40 0 L40 44 L166 44 L167 45 Q132 66 110.5 100 Q89 134 78 175 Q67 216 63.5 261.5 Q60 307 60 351 Q60 417 75 479 Q90 541 123 589 Q156 637 209.5 665.5 Q263 694 340 694 Z " />
<glyph glyph-name="angstrom" unicode="&#x212b;" horiz-adv-x="551" d="M474 0 L414 187 L133 187 Q118 139 104 93 Q90 47 75 0 L14 0 L237 683 L313 683 Q370 511 424.5 341 Q479 171 535 0 L474 0 Z M400 233 Q377 306 354.5 378 Q332 450 309 522 Q306 533 301.5 547.5 Q297 562 292.5 577 Q288 592 283.5 606.5 Q279 621 276 632 L273 632 L239 522 L149 233 L400 233 Z M276 721 Q232 721 205 749 Q178 777 178 816 Q178 835 185.5 852.5 Q193 870 206 883 Q219 896 237 903.5 Q255 911 276 911 Q297 911 314 903.5 Q331 896 344 883 Q357 870 364 852.5 Q371 835 371 816 Q371 776 344 748.5 Q317 721 276 721 Z M276 877 Q247 877 230.5 859 Q214 841 214 813 Q214 787 230.5 770 Q247 753 276 753 Q303 753 319.5 770 Q336 787 336 813 Q336 840 319.5 858.5 Q303 877 276 877 Z " />
<glyph glyph-name="gradient" unicode="&#x2207;" horiz-adv-x="599" d="M568 683 L568 642 Q509 481 451 321 Q393 161 335 0 L262 0 Q236 70 207.5 148.5 Q179 227 148.5 310.5 Q118 394 87.5 479.5 Q57 565 28 648 L28 683 L568 683 Z M245 196 Q258 158 270 121 Q282 84 296 47 L299 47 Q313 85 325.5 122.5 Q338 160 351 198 Q391 309 429.5 418 Q468 527 507 638 L86 638 L245 196 Z " />
<glyph glyph-name="product" unicode="&#x220f;" horiz-adv-x="626" d="M485 -91 L485 633 L140 633 L141 -91 L80 -91 L80 684 L546 684 L546 -91 L485 -91 Z " />
<glyph glyph-name="summation" unicode="&#x2211;" horiz-adv-x="524" d="M286 321 L286 302 L102 -46 L502 -46 L502 -91 L33 -91 L33 -48 L223 311 L36 640 L36 684 L488 684 L488 638 L105 638 L286 321 Z " />
<glyph glyph-name="minus" unicode="&#x2212;" horiz-adv-x="532" d="M81 276 L81 319 L455 319 L455 276 L81 276 Z " />
<glyph glyph-name="radical" unicode="&#x221a;" horiz-adv-x="529" d="M125 387 Q137 349 147.5 315 Q158 281 168.5 247 Q179 213 190 178 Q201 143 213 103 Q218 84 224.5 65.5 Q231 47 236 27 L240 27 L264 106 Q283 170 308.5 258.5 Q334 347 361 441 Q388 535 413.5 624 Q439 713 458 777 L503 777 Q486 723 466.5 657 Q447 591 426 519 Q405 447 383 372.5 Q361 298 340 226.5 Q319 155 299.5 89 Q280 23 264 -30 L209 -30 Q194 18 180 61.5 Q166 105 152.5 147.5 Q139 190 125.5 234 Q112 278 96 327 Q68 315 44 301 Q36 321 30 338 L125 387 L125 387 Z " />
<glyph glyph-name="logicaland" unicode="&#x2227;" horiz-adv-x="532" d="M50 0 Q98 123 145 244.5 Q192 366 240 488 L283 488 L482 0 L429 0 Q387 103 345.5 205.5 Q304 308 262 412 Q254 392 241.5 358.5 Q229 325 214 285.5 Q199 246 182.5 203.5 Q166 161 151 122 Q136 83 123 51 Q110 19 103 0 L50 0 L50 0 Z " />
<glyph glyph-name="logicalor" unicode="&#x2228;" horiz-adv-x="532" d="M239 0 Q191 122 144 244 Q97 366 49 488 L102 488 L261 76 Q302 179 343.5 282 Q385 385 428 488 L481 488 L282 0 L239 0 L239 0 Z " />
<glyph glyph-name="intersection" unicode="&#x2229;" horiz-adv-x="532" d="M400 0 L400 300 Q400 328 393 354.5 Q386 381 369.5 402 Q353 423 326.5 435.5 Q300 448 262 448 Q225 448 200 437 Q175 426 159.5 407 Q144 388 137.5 362.5 Q131 337 131 309 L131 0 L80 0 L80 311 Q80 351 91 384.5 Q102 418 125 442 Q148 466 182 479.5 Q216 493 263 493 Q310 493 345.5 477.5 Q381 462 404.5 436 Q428 410 440 374.5 Q452 339 452 300 L452 0 L400 0 Z " />
<glyph glyph-name="union" unicode="&#x222a;" horiz-adv-x="532" d="M452 488 L452 190 Q452 151 440 116 Q428 81 404.5 54.5 Q381 28 345.5 13 Q310 -2 262 -2 Q215 -2 181 11.5 Q147 25 124.5 49 Q102 73 91 106.5 Q80 140 80 179 L80 488 L130 488 L130 181 Q130 152 136.5 127 Q143 102 158.5 83 Q174 64 199 53 Q224 42 261 42 Q299 42 325.5 54.5 Q352 67 368.5 88 Q385 109 392.5 135.5 Q400 162 400 191 L400 488 L452 488 Z " />
<glyph glyph-name="integral" unicode="&#x222b;" horiz-adv-x="322" d="M148 -5 Q148 76 143 148.5 Q138 221 131.5 292 Q125 363 120 435 Q115 507 115 587 Q115 661 148.5 705.5 Q182 750 246 750 Q265 750 278 748 Q291 746 314 741 L307 704 Q290 706 279.5 707.5 Q269 709 255 709 Q227 709 208.5 700 Q190 691 179.5 674.5 Q169 658 165 635.5 Q161 613 161 587 Q161 504 166.5 434.5 Q172 365 178 296.5 Q184 228 189.5 155.5 Q195 83 195 -5 Q195 -80 163.5 -121.5 Q132 -163 71 -163 Q52 -163 37 -160.5 Q22 -158 0 -152 L7 -116 Q24 -119 36 -120.5 Q48 -122 63 -122 Q89 -122 105.5 -114.5 Q122 -107 131.5 -92 Q141 -77 144.5 -55 Q148 -33 148 -5 Z " />
<glyph glyph-name="approxequal" unicode="&#x2248;" horiz-adv-x="532" d="M374 334 Q347 334 316.5 340.5 Q286 347 256 354.5 Q226 362 199 368.5 Q172 375 151 375 L93 331 L69 348 Q101 418 157 418 Q179 418 210 411.5 Q241 405 272.5 397.5 Q304 390 333 383.5 Q362 377 381 377 L437 419 L459 404 Q430 334 374 334 Z M374 212 Q347 212 316.5 218 Q286 224 256 231.5 Q226 239 199 245.5 Q172 252 151 252 L93 209 L69 228 Q101 296 157 296 Q179 296 210 289.5 Q241 283 272.5 275.5 Q304 268 333 261.5 Q362 255 381 255 L437 297 L459 281 Q430 212 374 212 Z " />
<glyph glyph-name="notequal" unicode="&#x2260;" horiz-adv-x="532" d="M384 394 L457 394 L457 350 L345 350 L248 251 L457 251 L457 208 L209 208 L110 104 L78 126 L157 208 L74 208 L74 251 L195 251 L292 350 L74 350 L74 394 L331 394 L416 483 L448 460 L384 394 Z " />
<glyph glyph-name="lessequal" unicode="&#x2264;" horiz-adv-x="532" d="M457 176 L70 328 L70 368 L457 516 L457 465 L126 349 Q128 348 152.5 339 Q177 330 213.5 316.5 Q250 303 291.5 288 Q333 273 369.5 260 Q406 247 430.5 238 Q455 229 457 228 L457 176 Z M68 74 L68 117 L457 117 L457 74 L68 74 Z " />
<glyph glyph-name="greaterequal" unicode="&#x2265;" horiz-adv-x="532" d="M72 75 L72 118 L461 118 L461 75 L72 75 Z M71 228 L405 349 Q403 349 378 358 Q353 367 316.5 379.5 Q280 392 238 407 Q196 422 159.5 434.5 Q123 447 98 455.5 Q73 464 71 465 L71 516 L460 369 L460 328 L71 177 L71 228 Z " />
<glyph glyph-name="lozenge" unicode="&#x25ca;" horiz-adv-x="521" d="M50 348 L240 682 L282 682 L471 348 L282 0 L240 0 L50 348 Z M262 55 L417 348 L262 627 L101 348 L262 55 Z " />
<glyph glyph-name="zero.text" unicode="&#xe000;" horiz-adv-x="532" d="M502 338 Q502 276 491 214.5 Q480 153 453 104 Q426 55 381.5 24 Q337 -7 270 -7 Q193 -7 146 23 Q99 53 73 101.5 Q47 150 38.5 211 Q30 272 30 335 Q30 372 33.5 413.5 Q37 455 47 495 Q57 535 74 571 Q91 607 118 634.5 Q145 662 182.5 678 Q220 694 271 694 Q323 694 360.5 677 Q398 660 423.5 632 Q449 604 464.5 567.5 Q480 531 488.5 491.5 Q497 452 499.5 412 Q502 372 502 338 Z M445 335 Q445 362 443.5 396 Q442 430 436.5 464.5 Q431 499 420 532 Q409 565 389.5 590.5 Q370 616 341 631.5 Q312 647 271 647 Q209 647 172.5 615 Q136 583 117 536 Q98 489 92.5 434 Q87 379 87 333 Q87 272 94 218.5 Q101 165 121 125 Q141 85 177 62 Q213 39 271 39 Q324 39 357.5 66 Q391 93 410.5 135.5 Q430 178 437.5 230.5 Q445 283 445 335 Z " />
<glyph glyph-name="one.text" unicode="&#xe001;" horiz-adv-x="443" d="M71 609 L71 648 L226 683 L280 683 L280 0 L224 0 L224 624 L71 609 Z " />
<glyph glyph-name="two.text" unicode="&#xe002;" horiz-adv-x="532" d="M34 0 L34 42 Q91 95 151.5 154.5 Q212 214 262 275 Q312 336 344 395 Q376 454 376 507 Q376 542 365 567.5 Q354 593 335 610 Q316 627 289.5 635 Q263 643 232 643 Q199 643 154.5 631.5 Q110 620 61 587 L39 624 Q92 662 145 677.5 Q198 693 241 693 Q282 693 317.5 682 Q353 671 379 648.5 Q405 626 420 592 Q435 558 435 511 Q435 456 408 399.5 Q381 343 339.5 288 Q298 233 247 180.5 Q196 128 148 81 L112 46 L113 44 L460 44 L460 0 L34 0 Z " />
<glyph glyph-name="three.text" unicode="&#xe003;" horiz-adv-x="518" d="M423 683 L433 645 L208 410 L210 406 Q217 407 224.5 407 Q232 407 237 407 Q281 407 320 396 Q359 385 388.5 361 Q418 337 435 300 Q452 263 452 212 Q452 157 433 115.5 Q414 74 382 46.5 Q350 19 306.5 5.5 Q263 -8 215 -8 Q160 -8 112.5 0 Q65 8 23 27 L38 69 Q93 51 135 45 Q177 39 208 39 Q248 39 282.5 49.5 Q317 60 341.5 81.5 Q366 103 380 135.5 Q394 168 394 212 Q394 285 346 323 Q298 361 218 361 Q192 361 173 360 Q154 359 138 356 L125 392 L351 631 L349 636 L48 636 L48 683 L423 683 Z " />
<glyph glyph-name="four.text" unicode="&#xe004;" horiz-adv-x="532" d="M407 683 L407 239 L506 239 L506 195 L407 195 L407 0 L353 0 L353 195 L25 195 L25 240 Q106 351 186.5 461 Q267 571 348 683 L407 683 Z M354 239 L354 611 L351 611 Q282 518 216 425.5 Q150 333 81 239 L354 239 Z " />
<glyph glyph-name="five.text" unicode="&#xe005;" horiz-adv-x="523" d="M258 421 Q296 421 334 409.5 Q372 398 402 373.5 Q432 349 451 309.5 Q470 270 470 213 Q470 156 451 114.5 Q432 73 400.5 45.5 Q369 18 326.5 4.5 Q284 -9 238 -9 Q182 -9 133.5 -0.5 Q85 8 41 28 L56 70 Q108 53 148.5 46 Q189 39 219 39 Q308 39 359.5 81 Q411 123 411 213 Q411 253 398 283.5 Q385 314 362 334.5 Q339 355 308.5 365 Q278 375 243 375 Q211 375 179 367.5 Q147 360 119 346 L83 370 L101 683 L440 683 L440 636 L148 636 L135 397 Q154 405 185 413 Q216 421 258 421 Z " />
<glyph glyph-name="six.text" unicode="&#xe006;" horiz-adv-x="532" d="M305 693 Q355 693 390.5 683 Q426 673 446 662 L432 620 Q394 636 361.5 641 Q329 646 305 646 Q265 646 235.5 631.5 Q206 617 184.5 593 Q163 569 148.5 539 Q134 509 125.5 478.5 Q117 448 113 419.5 Q109 391 108 371 L111 368 Q147 390 192 405 Q237 420 291 420 Q330 420 365.5 408.5 Q401 397 428 372.5 Q455 348 471.5 308.5 Q488 269 488 212 Q488 161 472 120.5 Q456 80 427.5 51.5 Q399 23 359.5 8 Q320 -7 272 -7 Q206 -7 163 18 Q120 43 95 86.5 Q70 130 60.5 188.5 Q51 247 51 313 Q51 396 67 466 Q83 536 114.5 586.5 Q146 637 193.5 665 Q241 693 305 693 Z M432 207 Q432 243 424.5 274 Q417 305 399 327 Q381 349 352 361.5 Q323 374 281 374 Q241 374 209.5 365.5 Q178 357 156 346.5 Q134 336 122 327 Q110 318 108 316 L108 290 Q108 248 114 203.5 Q120 159 138 122 Q156 85 188.5 61.5 Q221 38 274 38 Q312 38 341.5 50.5 Q371 63 391 85.5 Q411 108 421.5 139 Q432 170 432 207 Z " />
<glyph glyph-name="seven.text" unicode="&#xe007;" horiz-adv-x="488" d="M153 0 L97 0 L375 636 L38 636 L38 683 L430 683 L430 639 L153 0 Z " />
<glyph glyph-name="eight.text" unicode="&#xe008;" horiz-adv-x="532" d="M463 532 Q463 492 441 446 Q419 400 358 355 Q411 328 445 285 Q479 242 479 179 Q479 141 464.5 107.5 Q450 74 422 48.5 Q394 23 352.5 8 Q311 -7 258 -7 Q202 -7 161 6.5 Q120 20 93 43.5 Q66 67 52.5 98.5 Q39 130 39 165 Q39 223 69 282.5 Q99 342 170 384 Q121 413 97 445.5 Q73 478 73 526 Q73 560 87 590 Q101 620 126.5 643 Q152 666 188.5 679.5 Q225 693 269 693 Q303 693 337.5 684 Q372 675 400 656 Q428 637 445.5 606 Q463 575 463 532 Z M261 37 Q302 37 332.5 49 Q363 61 383.5 80.5 Q404 100 414 126 Q424 152 424 179 Q424 218 408 244.5 Q392 271 364 291 Q336 311 297 327.5 Q258 344 213 364 Q148 322 122 270.5 Q96 219 96 171 Q96 145 105 121 Q114 97 134 78.5 Q154 60 185.5 48.5 Q217 37 261 37 Z M266 647 Q236 647 211 637.5 Q186 628 168 612 Q150 596 140 573.5 Q130 551 130 526 Q130 496 145.5 473.5 Q161 451 186.5 433.5 Q212 416 243.5 402.5 Q275 389 308 376 Q365 417 387 454.5 Q409 492 409 531 Q409 548 401.5 568 Q394 588 377 605.5 Q360 623 333 635 Q306 647 266 647 Z " />
<glyph glyph-name="nine.text" unicode="&#xe009;" horiz-adv-x="532" d="M220 -6 Q170 -6 130 3 Q90 12 69 23 L84 65 Q122 49 159 44 Q196 39 220 39 Q276 39 313.5 68 Q351 97 373.5 139.5 Q396 182 406 229.5 Q416 277 418 314 L414 317 Q379 294 334 279 Q289 264 235 264 Q196 264 160 275.5 Q124 287 97 311.5 Q70 336 54 376 Q38 416 38 473 Q38 524 53.5 564.5 Q69 605 97.5 633.5 Q126 662 166 677.5 Q206 693 254 693 Q320 693 363 667.5 Q406 642 430.5 598.5 Q455 555 465 496.5 Q475 438 475 372 Q475 289 459 219.5 Q443 150 411 100 Q379 50 331.5 22 Q284 -6 220 -6 Z M94 477 Q94 441 101.5 410.5 Q109 380 126.5 358 Q144 336 173 323.5 Q202 311 244 311 Q284 311 315.5 319.5 Q347 328 369 338 Q391 348 403 357 Q415 366 417 368 L417 395 Q417 418 415 445.5 Q413 473 407 500.5 Q401 528 390 554.5 Q379 581 361 601 Q343 621 316 633 Q289 645 252 645 Q214 645 184.5 632.5 Q155 620 135 597.5 Q115 575 104.5 544.5 Q94 514 94 477 Z " />
<glyph glyph-name="numbersign.text" unicode="&#xe00a;" horiz-adv-x="517" d="M405 418 L366 237 L445 237 L438 200 L359 200 L316 0 L275 0 L318 200 L159 200 L115 0 L75 0 L119 200 L45 200 L52 237 L126 237 L166 418 L88 418 L95 453 L173 453 L211 626 L250 626 L213 453 L373 453 L410 626 L450 626 L413 453 L488 453 L480 418 L405 418 Z M167 237 L326 237 L365 418 L205 418 L167 237 Z " />
<glyph glyph-name="dollar.text" unicode="&#xe00b;" horiz-adv-x="519" d="M414 182 Q414 227 387.5 253 Q361 279 321.5 296 Q282 313 236 326 Q190 339 150.5 359 Q111 379 84.5 411 Q58 443 58 497 Q58 538 73 568.5 Q88 599 112 620 Q136 641 166.5 652.5 Q197 664 228 667 L228 766 L272 766 L272 668 Q321 666 358 655.5 Q395 645 420 630 L405 589 Q370 606 335.5 614.5 Q301 623 254 623 Q228 623 202 617 Q176 611 155.5 596 Q135 581 122 557 Q109 533 109 497 Q109 454 135.5 429.5 Q162 405 201.5 388.5 Q241 372 287 359 Q333 346 372.5 325.5 Q412 305 438.5 271.5 Q465 238 465 182 Q465 137 448.5 104.5 Q432 72 405 50.5 Q378 29 343 17.5 Q308 6 272 3 L272 -94 L228 -94 L228 2 Q170 4 125.5 19 Q81 34 51 51 L71 94 Q116 70 157 59.5 Q198 49 246 49 Q282 49 312.5 56 Q343 63 365.5 78.5 Q388 94 401 119.5 Q414 145 414 182 Z " />
<glyph glyph-name="euro.text" unicode="&#xe00c;" horiz-adv-x="532" d="M73 406 Q79 463 96.5 515 Q114 567 146 606.5 Q178 646 225.5 669.5 Q273 693 338 693 Q388 693 428 685.5 Q468 678 499 666 L487 622 Q445 637 404.5 641.5 Q364 646 340 646 Q289 646 251.5 627.5 Q214 609 188.5 577 Q163 545 149 501 Q135 457 130 406 L436 406 L436 372 L128 372 Q127 364 127 356.5 Q127 349 127 341 L127 317 L436 317 L436 283 L128 283 Q131 233 142 188.5 Q153 144 177 111 Q201 78 241 58.5 Q281 39 341 39 Q378 39 420 46 Q462 53 499 63 L509 19 Q497 15 477.5 10.5 Q458 6 434 2 Q410 -2 384 -4.5 Q358 -7 333 -7 Q256 -7 206.5 18.5 Q157 44 128 85 Q99 126 86.5 178 Q74 230 71 283 L27 283 L27 317 L70 317 L70 339 Q70 347 70 355 Q70 363 71 372 L27 372 L27 406 L73 406 Z " />
<glyph glyph-name="florin.text" unicode="&#xe00d;" horiz-adv-x="473" d="M109 403 L208 403 L219 496 Q224 537 233.5 573 Q243 609 261 636 Q279 663 306.5 678.5 Q334 694 375 694 Q395 694 415.5 690.5 Q436 687 456 681 L444 642 Q428 645 414 647 Q400 649 380 649 Q353 649 334.5 638 Q316 627 304 608 Q292 589 285 563 Q278 537 274 506 L261 403 L364 403 L364 362 L256 362 L231 165 Q224 110 216 58.5 Q208 7 191 -33.5 Q174 -74 144 -98.5 Q114 -123 63 -123 Q22 -123 -16 -107 L-1 -68 Q16 -73 29 -75 Q42 -77 55 -77 Q88 -77 109 -61.5 Q130 -46 143.5 -12 Q157 22 166 75.5 Q175 129 184 204 L202 362 L109 362 L109 403 Z " />
<glyph glyph-name="sterling.text" unicode="&#xe00e;" horiz-adv-x="532" d="M52 0 L52 44 Q75 54 90 75 Q105 96 114 122.5 Q123 149 126.5 178 Q130 207 132 233 L137 329 L68 329 L68 369 L139 369 L144 481 Q146 524 155.5 562 Q165 600 186.5 629 Q208 658 242.5 675 Q277 692 329 692 Q371 692 414 684 Q457 676 486 662 L468 618 Q428 635 395 639.5 Q362 644 333 644 Q293 644 267.5 632 Q242 620 227 598.5 Q212 577 205.5 547 Q199 517 198 482 L193 369 L388 369 L388 329 L191 329 L187 233 Q186 207 182.5 179 Q179 151 172 125.5 Q165 100 154 78.5 Q143 57 128 44 L479 44 L479 0 L52 0 Z " />
<glyph glyph-name="yen.text" unicode="&#xe010;" horiz-adv-x="532" d="M235 243 L235 294 L68 294 L68 328 L218 328 L43 683 L104 683 L203 475 L263 347 L266 347 L332 483 L430 683 L488 683 L307 328 L461 328 L461 294 L292 294 L292 243 L461 243 L461 209 L292 209 L292 0 L235 0 L235 209 L68 209 L68 243 L235 243 Z " />
<glyph glyph-name="slashedzero" unicode="&#xe23f;" horiz-adv-x="532" d="M501 328 Q501 269 490 209.5 Q479 150 452.5 102 Q426 54 381 23.5 Q336 -7 268 -7 Q192 -7 145 22 Q98 51 72.5 98 Q47 145 38.5 204.5 Q30 264 30 325 Q30 380 39 441 Q48 502 73.5 553.5 Q99 605 146 639 Q193 673 270 673 Q322 673 359.5 656.5 Q397 640 422.5 613 Q448 586 463.5 550 Q479 514 487.5 476 Q496 438 498.5 399.5 Q501 361 501 328 Z M87 323 Q87 282 90.5 245 Q94 208 102.5 175.5 Q111 143 126.5 117.5 Q142 92 166 75 L357 601 Q340 612 318.5 619 Q297 626 270 626 Q208 626 171.5 595.5 Q135 565 116.5 519 Q98 473 92.5 420.5 Q87 368 87 323 Z M444 325 Q444 351 442.5 384 Q441 417 435 451.5 Q429 486 416 518 Q403 550 381 573 Q373 551 358 510 Q343 469 324.5 418.5 Q306 368 286.5 313 Q267 258 248.5 207.5 Q230 157 215 115.5 Q200 74 192 52 Q226 38 270 38 Q323 38 357 64 Q391 90 410.5 131 Q430 172 437 223.5 Q444 275 444 325 Z " />
<glyph glyph-name="Scaron" unicode="&#x160;" horiz-adv-x="547" d="M277 695 Q315 695 363 688 Q411 681 456 659 L437 614 Q386 634 347 640 Q308 646 273 646 Q207 646 163.5 612 Q120 578 120 508 Q120 477 134.5 456 Q149 435 172 421 Q195 407 225 397.5 Q255 388 287 380 Q324 370 362.5 358 Q401 346 432 325 Q463 304 482.5 270.5 Q502 237 502 184 Q502 133 483.5 97 Q465 61 432.5 37.5 Q400 14 355.5 3.5 Q311 -7 260 -7 Q206 -7 149.5 4.5 Q93 16 46 43 L66 87 Q124 59 170.5 50 Q217 41 258 41 Q346 41 393.5 73 Q441 105 441 184 Q441 218 429 241 Q417 264 395.5 279.5 Q374 295 344.5 305.5 Q315 316 280 325 Q236 337 196 350 Q156 363 125.5 383 Q95 403 77 432.5 Q59 462 59 507 Q59 552 75 587 Q91 622 120 646 Q149 670 189 682.5 Q229 695 277 695 Z M431 853 L289 724 L247 724 L105 854 L123 875 L268 778 L413 874 L431 853 Z " />
<glyph glyph-name="Zcaron" unicode="&#x17d;" horiz-adv-x="502" d="M43 684 L466 684 L466 636 L90 49 L483 49 L483 0 L19 0 L19 48 L395 635 L43 635 L43 684 Z M430 853 L288 724 L246 724 L104 854 L122 875 L267 778 L412 874 L430 853 Z " />
<glyph glyph-name="scaron" unicode="&#x161;" horiz-adv-x="428" d="M61 70 Q104 49 141 43 Q178 37 205 37 Q232 37 255 42 Q278 47 295 58 Q312 69 322 86.5 Q332 104 332 128 Q332 150 322 165 Q312 180 296 191.5 Q280 203 259 211 Q238 219 216 227 Q185 237 156.5 248 Q128 259 105.5 274.5 Q83 290 69.5 311.5 Q56 333 56 365 Q56 399 69.5 424 Q83 449 105.5 464.5 Q128 480 158 487.5 Q188 495 221 495 Q247 495 286 488.5 Q325 482 357 465 Q354 457 349 444 Q344 431 340 424 Q304 438 274.5 443.5 Q245 449 220 449 Q175 449 142.5 429.5 Q110 410 110 364 Q110 345 121 331 Q132 317 149 306.5 Q166 296 185.5 288.5 Q205 281 222 276 Q252 266 281.5 255.5 Q311 245 334.5 229 Q358 213 372 189 Q386 165 386 129 Q386 93 372 67.5 Q358 42 333 25.5 Q308 9 275 1 Q242 -7 205 -7 Q162 -7 118 2 Q74 11 42 30 L61 70 Z M373 684 L232 551 L189 551 L48 686 L66 707 L211 607 L355 706 L373 684 Z " />
<glyph glyph-name="zcaron" unicode="&#x17e;" horiz-adv-x="402" d="M88 43 L385 44 L385 0 L14 0 L14 39 L305 439 L302 443 L41 443 L41 487 L375 487 L375 445 L86 48 L88 43 Z M375 684 L234 551 L191 551 L50 686 L68 707 L213 607 L357 706 L375 684 Z " />
<glyph glyph-name="Ydieresis" unicode="&#x178;" horiz-adv-x="500" d="M216 304 L12 684 L75 684 L182 481 L245 356 L249 356 L314 480 L425 684 L487 684 L278 308 L278 0 L216 0 L216 304 Z M366 760 Q366 744 355 734 Q344 724 327 724 Q313 724 303 734 Q293 744 293 760 Q293 774 303 784.5 Q313 795 327 795 Q344 795 355 785 Q366 775 366 760 Z M203 760 Q203 744 192 734 Q181 724 165 724 Q150 724 139.5 734 Q129 744 129 760 Q129 774 140 784.5 Q151 795 165 795 Q181 795 192 785 Q203 775 203 760 Z " />
<glyph glyph-name="cent" unicode="&#xa2;" horiz-adv-x="532" d="M297 448 Q225 448 182.5 395 Q140 342 140 239 Q140 196 147.5 159.5 Q155 123 172.5 96 Q190 69 219 53.5 Q248 38 290 38 Q334 38 367 47 Q400 56 435 71 L451 33 Q426 19 389 8.5 Q352 -2 308 -5 L308 -97 L265 -97 L265 -5 Q214 -2 179 17 Q144 36 122.5 67.5 Q101 99 91 141.5 Q81 184 81 235 Q81 277 89.5 320.5 Q98 364 119 400.5 Q140 437 175.5 462 Q211 487 265 493 L265 586 L308 586 L308 494 Q377 492 431 470 L417 428 Q382 440 353 444 Q324 448 297 448 Z " />
<glyph glyph-name="onequarter" unicode="&#xbc;" horiz-adv-x="800" d="M657 112 L657 0 L609 0 L609 112 L400 112 L400 146 Q408 156 424.5 175.5 Q441 195 461.5 220 Q482 245 505 272 Q528 299 548.5 323.5 Q569 348 585.5 367.5 Q602 387 610 397 L657 397 L657 150 L719 150 L719 112 L657 112 Z M258 -23 L216 -23 L503 699 L543 699 L258 -23 Z M191 614 L88 600 L81 633 L196 663 L239 663 L239 266 L191 266 L191 614 Z M607 336 L454 150 L610 150 L610 336 L607 336 Z " />
<glyph glyph-name="onehalf" unicode="&#xbd;" horiz-adv-x="800" d="M713 294 Q713 259 692 223 Q671 187 640.5 153.5 Q610 120 576 90.5 Q542 61 515 39 L728 39 L728 0 L444 0 L444 34 Q480 64 518.5 97 Q557 130 589 164 Q621 198 641.5 230.5 Q662 263 662 291 Q662 328 637.5 344 Q613 360 576 360 Q556 360 527.5 353 Q499 346 465 326 L446 359 Q482 383 517 392 Q552 401 581 401 Q609 401 633 394.5 Q657 388 675 375 Q693 362 703 342 Q713 322 713 294 Z M232 -23 L190 -23 L477 699 L517 699 L232 -23 Z M182 614 L79 600 L72 633 L187 663 L230 663 L230 266 L182 266 L182 614 Z " />
<glyph glyph-name="threequarters" unicode="&#xbe;" horiz-adv-x="800" d="M693 112 L693 0 L645 0 L645 112 L436 112 L436 146 Q444 156 460.5 175.5 Q477 195 497.5 220 Q518 245 541 272 Q564 299 584.5 323.5 Q605 348 621.5 367.5 Q638 387 646 397 L693 397 L693 150 L755 150 L755 112 L693 112 Z M315 662 Q317 654 319 647.5 Q321 641 323 633 Q291 604 259 574 Q227 544 185 505 L194 505 Q223 505 248.5 498 Q274 491 292.5 477 Q311 463 322 441.5 Q333 420 333 391 Q333 359 320.5 335 Q308 311 287 294.5 Q266 278 238 269.5 Q210 261 180 261 Q141 261 108 266 Q75 271 45 284 Q49 293 52 302 Q55 311 58 320 Q100 307 128.5 304 Q157 301 175 301 Q223 301 254 323.5 Q285 346 285 392 Q285 430 252.5 449 Q220 468 169 468 Q145 468 123 465 L111 493 Q146 525 180 557 Q214 589 248 620 Q247 621 247 622 Q200 622 154.5 622.5 Q109 623 63 623 L63 662 L315 662 Z M296 -23 L254 -23 L541 699 L581 699 L296 -23 Z M643 336 L490 150 L646 150 L646 336 L643 336 Z " />
<glyph glyph-name="Agrave" unicode="&#xc0;" horiz-adv-x="551" d="M474 0 L414 187 L133 187 Q118 139 104 93 Q90 47 75 0 L14 0 L237 683 L313 683 Q370 511 424.5 341 Q479 171 535 0 L474 0 Z M400 233 Q377 306 354.5 378 Q332 450 309 522 Q306 533 301.5 547.5 Q297 562 292.5 577 Q288 592 283.5 606.5 Q279 621 276 632 L273 632 L239 522 L149 233 L400 233 Z M148 857 L192 898 L305 745 L277 722 L148 857 Z " />
<glyph glyph-name="Aacute" unicode="&#xc1;" horiz-adv-x="551" d="M474 0 L414 187 L133 187 Q118 139 104 93 Q90 47 75 0 L14 0 L237 683 L313 683 Q370 511 424.5 341 Q479 171 535 0 L474 0 Z M400 233 Q377 306 354.5 378 Q332 450 309 522 Q306 533 301.5 547.5 Q297 562 292.5 577 Q288 592 283.5 606.5 Q279 621 276 632 L273 632 L239 522 L149 233 L400 233 Z M278 722 L250 744 L363 897 L408 857 L278 722 Z " />
<glyph glyph-name="Acircumflex" unicode="&#xc2;" horiz-adv-x="551" d="M474 0 L414 187 L133 187 Q118 139 104 93 Q90 47 75 0 L14 0 L237 683 L313 683 Q370 511 424.5 341 Q479 171 535 0 L474 0 Z M400 233 Q377 306 354.5 378 Q332 450 309 522 Q306 533 301.5 547.5 Q297 562 292.5 577 Q288 592 283.5 606.5 Q279 621 276 632 L273 632 L239 522 L149 233 L400 233 Z M419 718 L274 813 L130 717 L112 738 L253 869 L296 869 L438 740 L419 718 Z " />
<glyph glyph-name="Atilde" unicode="&#xc3;" horiz-adv-x="551" d="M474 0 L414 187 L133 187 Q118 139 104 93 Q90 47 75 0 L14 0 L237 683 L313 683 Q370 511 424.5 341 Q479 171 535 0 L474 0 Z M400 233 Q377 306 354.5 378 Q332 450 309 522 Q306 533 301.5 547.5 Q297 562 292.5 577 Q288 592 283.5 606.5 Q279 621 276 632 L273 632 L239 522 L149 233 L400 233 Z M347 753 Q328 753 308 759 Q288 765 268.5 772.5 Q249 780 231.5 786 Q214 792 201 792 L148 752 L126 767 Q137 797 157.5 815.5 Q178 834 204 834 Q221 834 240.5 828 Q260 822 279.5 815.5 Q299 809 317 803 Q335 797 349 797 L401 837 L422 821 Q411 792 392 772.5 Q373 753 347 753 Z " />
<glyph glyph-name="Adieresis" unicode="&#xc4;" horiz-adv-x="551" d="M474 0 L414 187 L133 187 Q118 139 104 93 Q90 47 75 0 L14 0 L237 683 L313 683 Q370 511 424.5 341 Q479 171 535 0 L474 0 Z M400 233 Q377 306 354.5 378 Q332 450 309 522 Q306 533 301.5 547.5 Q297 562 292.5 577 Q288 592 283.5 606.5 Q279 621 276 632 L273 632 L239 522 L149 233 L400 233 Z M230 764 Q230 748 219 738 Q208 728 192 728 Q177 728 166.5 738 Q156 748 156 764 Q156 778 167 788.5 Q178 799 192 799 Q208 799 219 789 Q230 779 230 764 Z M393 764 Q393 748 382 738 Q371 728 354 728 Q340 728 330 738 Q320 748 320 764 Q320 778 330 788.5 Q340 799 354 799 Q371 799 382 789 Q393 779 393 764 Z " />
<glyph glyph-name="Aring" unicode="&#xc5;" horiz-adv-x="551" d="M474 0 L414 187 L133 187 Q118 139 104 93 Q90 47 75 0 L14 0 L237 683 L313 683 Q370 511 424.5 341 Q479 171 535 0 L474 0 Z M400 233 Q377 306 354.5 378 Q332 450 309 522 Q306 533 301.5 547.5 Q297 562 292.5 577 Q288 592 283.5 606.5 Q279 621 276 632 L273 632 L239 522 L149 233 L400 233 Z M275 705 Q231 705 204 733 Q177 761 177 800 Q177 819 184.5 836.5 Q192 854 205 867 Q218 880 236 887.5 Q254 895 275 895 Q296 895 313 887.5 Q330 880 343 867 Q356 854 363 836.5 Q370 819 370 800 Q370 760 343 732.5 Q316 705 275 705 Z M275 861 Q246 861 229.5 843 Q213 825 213 797 Q213 771 229.5 754 Q246 737 275 737 Q302 737 318.5 754 Q335 771 335 797 Q335 824 318.5 842.5 Q302 861 275 861 Z " />
<glyph glyph-name="Ccedilla" unicode="&#xc7;" horiz-adv-x="569" d="M346 694 Q400 694 443.5 686 Q487 678 516 667 L502 622 Q463 635 424 640.5 Q385 646 351 646 Q291 646 248 624 Q205 602 176.5 561.5 Q148 521 134.5 464 Q121 407 121 336 Q121 277 130 224 Q139 171 164 130 Q189 89 234 65 Q279 41 351 41 Q364 41 384.5 42.5 Q405 44 427.5 46.5 Q450 49 473.5 53.5 Q497 58 517 64 L529 22 Q512 16 490.5 10.5 Q469 5 445.5 1.5 Q422 -2 397.5 -4.5 Q373 -7 351 -7 Q337 -24 323.5 -41.5 Q310 -59 296 -77 Q346 -78 378.5 -95 Q411 -112 411 -151 Q411 -191 369.5 -220.5 Q328 -250 239 -250 Q239 -243 238.5 -236.5 Q238 -230 238 -222 Q303 -217 333 -199 Q363 -181 363 -155 Q363 -132 341 -122 Q319 -112 288 -111 Q280 -110 273 -110 Q266 -110 258 -110 L247 -94 Q265 -71 281.5 -49 Q298 -27 316 -6 Q245 -2 196.5 23.5 Q148 49 117.5 93.5 Q87 138 73.5 200 Q60 262 60 337 Q60 392 72 454.5 Q84 517 116 570.5 Q148 624 203.5 659 Q259 694 346 694 Z " />
<glyph glyph-name="Egrave" unicode="&#xc8;" horiz-adv-x="531" d="M80 0 L80 683 L473 683 L473 637 L139 637 L139 385 L425 385 L425 339 L139 339 L139 47 L490 47 L490 0 L80 0 Z M176 857 L220 898 L333 745 L305 722 L176 857 Z " />
<glyph glyph-name="Eacute" unicode="&#xc9;" horiz-adv-x="531" d="M80 0 L80 683 L473 683 L473 637 L139 637 L139 385 L425 385 L425 339 L139 339 L139 47 L490 47 L490 0 L80 0 Z M273 722 L245 744 L358 897 L403 857 L273 722 Z " />
<glyph glyph-name="Ecircumflex" unicode="&#xca;" horiz-adv-x="531" d="M80 0 L80 683 L473 683 L473 637 L139 637 L139 385 L425 385 L425 339 L139 339 L139 47 L490 47 L490 0 L80 0 Z M420 724 L275 819 L131 723 L113 744 L254 875 L297 875 L439 746 L420 724 Z " />
<glyph glyph-name="Edieresis" unicode="&#xcb;" horiz-adv-x="531" d="M80 0 L80 683 L473 683 L473 637 L139 637 L139 385 L425 385 L425 339 L139 339 L139 47 L490 47 L490 0 L80 0 Z M401 767 Q401 751 390 741 Q379 731 362 731 Q348 731 338 741 Q328 751 328 767 Q328 781 338 791.5 Q348 802 362 802 Q379 802 390 792 Q401 782 401 767 Z M238 767 Q238 751 227 741 Q216 731 200 731 Q185 731 174.5 741 Q164 751 164 767 Q164 781 175 791.5 Q186 802 200 802 Q216 802 227 792 Q238 782 238 767 Z " />
<glyph glyph-name="Igrave" unicode="&#xcc;" horiz-adv-x="238" d="M90 0 L90 684 L148 684 L148 0 L90 0 Z M-7 857 L37 898 L150 745 L122 722 L-7 857 Z " />
<glyph glyph-name="Iacute" unicode="&#xcd;" horiz-adv-x="238" d="M90 0 L90 684 L148 684 L148 0 L90 0 Z M118 722 L90 744 L203 897 L248 857 L118 722 Z " />
<glyph glyph-name="Icircumflex" unicode="&#xce;" horiz-adv-x="238" d="M90 0 L90 684 L148 684 L148 0 L90 0 Z M264 719 L119 814 L-25 718 L-43 739 L98 870 L141 870 L283 741 L264 719 Z " />
<glyph glyph-name="Idieresis" unicode="&#xcf;" horiz-adv-x="238" d="M90 0 L90 684 L148 684 L148 0 L90 0 Z M240 768 Q240 752 229 742 Q218 732 201 732 Q187 732 177 742 Q167 752 167 768 Q167 782 177 792.5 Q187 803 201 803 Q218 803 229 793 Q240 783 240 768 Z M77 768 Q77 752 66 742 Q55 732 39 732 Q24 732 13.5 742 Q3 752 3 768 Q3 782 14 792.5 Q25 803 39 803 Q55 803 66 793 Q77 783 77 768 Z " />
<glyph glyph-name="Eth" unicode="&#xd0;" horiz-adv-x="623" d="M80 0 L80 337 L16 337 L16 381 L80 381 L80 684 L290 684 Q371 684 423.5 656.5 Q476 629 507 582 Q538 535 550.5 473.5 Q563 412 563 343 Q563 273 549.5 210.5 Q536 148 503.5 101.5 Q471 55 416.5 27.5 Q362 0 280 0 L80 0 Z M140 637 L140 381 L321 381 L321 337 L140 337 L140 48 L272 48 Q287 48 310 49.5 Q333 51 358.5 59.5 Q384 68 409.5 85.5 Q435 103 455.5 135 Q476 167 489 216 Q502 265 502 336 Q502 409 490 459.5 Q478 510 459 543.5 Q440 577 416 595.5 Q392 614 367 623.5 Q342 633 319 635 Q296 637 279 637 L140 637 Z " />
<glyph glyph-name="Ntilde" unicode="&#xd1;" horiz-adv-x="658" d="M520 100 L520 683 L578 683 L577 0 L520 0 Q507 19 483.5 55.5 Q460 92 431 137 Q402 182 370.5 231.5 Q339 281 310 326 Q281 371 257 407.5 Q233 444 221 463 L141 592 Q140 592 139 591.5 Q138 591 137 591 L137 0 L80 0 L80 683 L140 683 Q152 665 175.5 629 Q199 593 228 548 Q257 503 289 453.5 Q321 404 349.5 359 Q378 314 401 278 Q424 242 436 224 L516 100 L520 100 Z M404 752 Q385 752 365 758 Q345 764 325.5 771.5 Q306 779 288.5 785 Q271 791 258 791 L205 751 L183 766 Q194 796 214.5 814.5 Q235 833 261 833 Q278 833 297.5 827 Q317 821 336.5 814.5 Q356 808 374 802 Q392 796 406 796 L458 836 L479 820 Q468 791 449 771.5 Q430 752 404 752 Z " />
<glyph glyph-name="Ograve" unicode="&#xd2;" horiz-adv-x="676" d="M616 339 Q616 265 599 202 Q582 139 547.5 92.5 Q513 46 462 19.5 Q411 -7 344 -7 Q266 -7 212 17 Q158 41 124.5 85 Q91 129 75.5 192.5 Q60 256 60 336 Q60 406 74.5 471 Q89 536 122 585.5 Q155 635 209.5 664.5 Q264 694 344 694 Q425 694 477.5 664.5 Q530 635 561 585.5 Q592 536 604 472 Q616 408 616 339 Z M554 336 Q554 388 546.5 443.5 Q539 499 516.5 544.5 Q494 590 452.5 619 Q411 648 344 648 Q276 648 233 621 Q190 594 165 550 Q140 506 130.5 449.5 Q121 393 121 334 Q121 190 173 114.5 Q225 39 341 39 Q396 39 436 62.5 Q476 86 502 126 Q528 166 541 220 Q554 274 554 336 Z M218 857 L262 898 L375 745 L347 722 L218 857 Z " />
<glyph glyph-name="Oacute" unicode="&#xd3;" horiz-adv-x="676" d="M616 339 Q616 265 599 202 Q582 139 547.5 92.5 Q513 46 462 19.5 Q411 -7 344 -7 Q266 -7 212 17 Q158 41 124.5 85 Q91 129 75.5 192.5 Q60 256 60 336 Q60 406 74.5 471 Q89 536 122 585.5 Q155 635 209.5 664.5 Q264 694 344 694 Q425 694 477.5 664.5 Q530 635 561 585.5 Q592 536 604 472 Q616 408 616 339 Z M554 336 Q554 388 546.5 443.5 Q539 499 516.5 544.5 Q494 590 452.5 619 Q411 648 344 648 Q276 648 233 621 Q190 594 165 550 Q140 506 130.5 449.5 Q121 393 121 334 Q121 190 173 114.5 Q225 39 341 39 Q396 39 436 62.5 Q476 86 502 126 Q528 166 541 220 Q554 274 554 336 Z M336 722 L308 744 L421 897 L466 857 L336 722 Z " />
<glyph glyph-name="Ocircumflex" unicode="&#xd4;" horiz-adv-x="676" d="M616 339 Q616 265 599 202 Q582 139 547.5 92.5 Q513 46 462 19.5 Q411 -7 344 -7 Q266 -7 212 17 Q158 41 124.5 85 Q91 129 75.5 192.5 Q60 256 60 336 Q60 406 74.5 471 Q89 536 122 585.5 Q155 635 209.5 664.5 Q264 694 344 694 Q425 694 477.5 664.5 Q530 635 561 585.5 Q592 536 604 472 Q616 408 616 339 Z M554 336 Q554 388 546.5 443.5 Q539 499 516.5 544.5 Q494 590 452.5 619 Q411 648 344 648 Q276 648 233 621 Q190 594 165 550 Q140 506 130.5 449.5 Q121 393 121 334 Q121 190 173 114.5 Q225 39 341 39 Q396 39 436 62.5 Q476 86 502 126 Q528 166 541 220 Q554 274 554 336 Z M490 724 L345 819 L201 723 L183 744 L324 875 L367 875 L509 746 L490 724 Z " />
<glyph glyph-name="Otilde" unicode="&#xd5;" horiz-adv-x="676" d="M616 339 Q616 265 599 202 Q582 139 547.5 92.5 Q513 46 462 19.5 Q411 -7 344 -7 Q266 -7 212 17 Q158 41 124.5 85 Q91 129 75.5 192.5 Q60 256 60 336 Q60 406 74.5 471 Q89 536 122 585.5 Q155 635 209.5 664.5 Q264 694 344 694 Q425 694 477.5 664.5 Q530 635 561 585.5 Q592 536 604 472 Q616 408 616 339 Z M554 336 Q554 388 546.5 443.5 Q539 499 516.5 544.5 Q494 590 452.5 619 Q411 648 344 648 Q276 648 233 621 Q190 594 165 550 Q140 506 130.5 449.5 Q121 393 121 334 Q121 190 173 114.5 Q225 39 341 39 Q396 39 436 62.5 Q476 86 502 126 Q528 166 541 220 Q554 274 554 336 Z M417 765 Q398 765 378 771 Q358 777 338.5 784.5 Q319 792 301.5 798 Q284 804 271 804 L218 764 L196 779 Q207 809 227.5 827.5 Q248 846 274 846 Q291 846 310.5 840 Q330 834 349.5 827.5 Q369 821 387 815 Q405 809 419 809 L471 849 L492 833 Q481 804 462 784.5 Q443 765 417 765 Z " />
<glyph glyph-name="Odieresis" unicode="&#xd6;" horiz-adv-x="676" d="M616 339 Q616 265 599 202 Q582 139 547.5 92.5 Q513 46 462 19.5 Q411 -7 344 -7 Q266 -7 212 17 Q158 41 124.5 85 Q91 129 75.5 192.5 Q60 256 60 336 Q60 406 74.5 471 Q89 536 122 585.5 Q155 635 209.5 664.5 Q264 694 344 694 Q425 694 477.5 664.5 Q530 635 561 585.5 Q592 536 604 472 Q616 408 616 339 Z M554 336 Q554 388 546.5 443.5 Q539 499 516.5 544.5 Q494 590 452.5 619 Q411 648 344 648 Q276 648 233 621 Q190 594 165 550 Q140 506 130.5 449.5 Q121 393 121 334 Q121 190 173 114.5 Q225 39 341 39 Q396 39 436 62.5 Q476 86 502 126 Q528 166 541 220 Q554 274 554 336 Z M462 778 Q462 762 451 752 Q440 742 423 742 Q409 742 399 752 Q389 762 389 778 Q389 792 399 802.5 Q409 813 423 813 Q440 813 451 803 Q462 793 462 778 Z M299 778 Q299 762 288 752 Q277 742 261 742 Q246 742 235.5 752 Q225 762 225 778 Q225 792 236 802.5 Q247 813 261 813 Q277 813 288 803 Q299 793 299 778 Z " />
<glyph glyph-name="Oslash" unicode="&#xd8;" horiz-adv-x="656" d="M606 339 Q606 265 589 202 Q572 139 537.5 92.5 Q503 46 452 19.5 Q401 -7 334 -7 Q268 -7 219 10 Q170 27 136 60 L88 -5 L49 -5 L115 83 Q80 128 65 191.5 Q50 255 50 336 Q50 406 64.5 471 Q79 536 112 585.5 Q145 635 199.5 664.5 Q254 694 334 694 Q397 694 441.5 676 Q486 658 517 626 L568 695 L610 695 L540 601 Q577 550 591.5 482 Q606 414 606 339 Z M544 336 Q544 390 535 447.5 Q526 505 500 552 L171 104 Q223 39 331 39 Q386 39 426 62.5 Q466 86 492 126 Q518 166 531 220 Q544 274 544 336 Z M111 334 Q111 269 121 218.5 Q131 168 153 133 L483 581 Q459 611 422.5 629.5 Q386 648 334 648 Q266 648 223 621 Q180 594 155 550 Q130 506 120.5 449.5 Q111 393 111 334 Z " />
<glyph glyph-name="Ugrave" unicode="&#xd9;" horiz-adv-x="654" d="M579 243 Q579 187 563.5 141 Q548 95 516.5 62 Q485 29 437.5 11 Q390 -7 326 -7 Q194 -7 135 59.5 Q76 126 76 243 L76 684 L133 684 L134 244 Q134 142 183 90.5 Q232 39 327 39 Q421 39 470.5 90 Q520 141 520 244 L520 684 L579 684 L579 243 Z M213 857 L257 898 L370 745 L342 722 L213 857 Z " />
<glyph glyph-name="Uacute" unicode="&#xda;" horiz-adv-x="654" d="M579 243 Q579 187 563.5 141 Q548 95 516.5 62 Q485 29 437.5 11 Q390 -7 326 -7 Q194 -7 135 59.5 Q76 126 76 243 L76 684 L133 684 L134 244 Q134 142 183 90.5 Q232 39 327 39 Q421 39 470.5 90 Q520 141 520 244 L520 684 L579 684 L579 243 Z M312 722 L284 744 L397 897 L442 857 L312 722 Z " />
<glyph glyph-name="Ucircumflex" unicode="&#xdb;" horiz-adv-x="654" d="M579 243 Q579 187 563.5 141 Q548 95 516.5 62 Q485 29 437.5 11 Q390 -7 326 -7 Q194 -7 135 59.5 Q76 126 76 243 L76 684 L133 684 L134 244 Q134 142 183 90.5 Q232 39 327 39 Q421 39 470.5 90 Q520 141 520 244 L520 684 L579 684 L579 243 Z M475 724 L325 817 L175 723 L156 743 L303 872 L347 872 L495 745 L475 724 Z " />
<glyph glyph-name="Udieresis" unicode="&#xdc;" horiz-adv-x="654" d="M579 243 Q579 187 563.5 141 Q548 95 516.5 62 Q485 29 437.5 11 Q390 -7 326 -7 Q194 -7 135 59.5 Q76 126 76 243 L76 684 L133 684 L134 244 Q134 142 183 90.5 Q232 39 327 39 Q421 39 470.5 90 Q520 141 520 244 L520 684 L579 684 L579 243 Z M446 769 Q446 753 435 743 Q424 733 407 733 Q393 733 383 743 Q373 753 373 769 Q373 783 383 793.5 Q393 804 407 804 Q424 804 435 794 Q446 784 446 769 Z M283 769 Q283 753 272 743 Q261 733 245 733 Q230 733 219.5 743 Q209 753 209 769 Q209 783 220 793.5 Q231 804 245 804 Q261 804 272 794 Q283 784 283 769 Z " />
<glyph glyph-name="Yacute" unicode="&#xdd;" horiz-adv-x="500" d="M216 304 L12 684 L75 684 L182 481 L245 356 L249 356 L314 480 L425 684 L487 684 L278 308 L278 0 L216 0 L216 304 Z M240 712 L212 734 L325 887 L370 847 L240 712 Z " />
<glyph glyph-name="Thorn" unicode="&#xde;" horiz-adv-x="525" d="M496 356 Q496 326 487 290.5 Q478 255 456 225 Q434 195 396 175 Q358 155 300 155 L139 155 L139 0 L80 0 L80 684 L139 684 L139 550 L291 550 Q334 550 371.5 538 Q409 526 437 502 Q465 478 480.5 441.5 Q496 405 496 356 Z M139 503 L139 201 L293 201 Q319 201 344.5 208 Q370 215 390 232.5 Q410 250 422.5 279.5 Q435 309 435 353 Q435 391 423.5 419.5 Q412 448 392.5 466.5 Q373 485 346.5 494 Q320 503 290 503 L139 503 Z " />
<glyph glyph-name="agrave" unicode="&#xe0;" horiz-adv-x="506" d="M252 493 Q326 493 366.5 457 Q407 421 407 334 L407 44 L473 44 Q475 36 475 27.5 Q475 19 476 11 Q459 3 439 -1 Q419 -5 403 -5 Q375 -5 362.5 8.5 Q350 22 352 55 Q352 55 350 56 Q321 33 295.5 20.5 Q270 8 248.5 2 Q227 -4 210 -5 Q193 -6 181 -6 Q140 -6 112.5 6.5 Q85 19 69 38.5 Q53 58 46.5 82 Q40 106 40 128 Q40 195 84.5 230.5 Q129 266 199 271 L352 279 L352 319 Q352 387 329 416.5 Q306 446 240 446 Q203 446 164 438 Q125 430 88 417 L74 456 Q116 474 163 483.5 Q210 493 252 493 Z M213 231 Q156 229 128 203 Q100 177 100 134 Q100 85 124.5 61 Q149 37 202 37 Q237 37 274.5 55 Q312 73 352 106 L352 239 L213 231 Z M131 679 L176 720 L289 567 L261 543 L131 679 Z " />
<glyph glyph-name="aacute" unicode="&#xe1;" horiz-adv-x="506" d="M252 493 Q326 493 366.5 457 Q407 421 407 334 L407 44 L473 44 Q475 36 475 27.5 Q475 19 476 11 Q459 3 439 -1 Q419 -5 403 -5 Q375 -5 362.5 8.5 Q350 22 352 55 Q352 55 350 56 Q321 33 295.5 20.5 Q270 8 248.5 2 Q227 -4 210 -5 Q193 -6 181 -6 Q140 -6 112.5 6.5 Q85 19 69 38.5 Q53 58 46.5 82 Q40 106 40 128 Q40 195 84.5 230.5 Q129 266 199 271 L352 279 L352 319 Q352 387 329 416.5 Q306 446 240 446 Q203 446 164 438 Q125 430 88 417 L74 456 Q116 474 163 483.5 Q210 493 252 493 Z M213 231 Q156 229 128 203 Q100 177 100 134 Q100 85 124.5 61 Q149 37 202 37 Q237 37 274.5 55 Q312 73 352 106 L352 239 L213 231 Z M227 543 L201 565 L313 719 L358 679 L227 543 Z " />
<glyph glyph-name="acircumflex" unicode="&#xe2;" horiz-adv-x="506" d="M252 493 Q326 493 366.5 457 Q407 421 407 334 L407 44 L473 44 Q475 36 475 27.5 Q475 19 476 11 Q459 3 439 -1 Q419 -5 403 -5 Q375 -5 362.5 8.5 Q350 22 352 55 Q352 55 350 56 Q321 33 295.5 20.5 Q270 8 248.5 2 Q227 -4 210 -5 Q193 -6 181 -6 Q140 -6 112.5 6.5 Q85 19 69 38.5 Q53 58 46.5 82 Q40 106 40 128 Q40 195 84.5 230.5 Q129 266 199 271 L352 279 L352 319 Q352 387 329 416.5 Q306 446 240 446 Q203 446 164 438 Q125 430 88 417 L74 456 Q116 474 163 483.5 Q210 493 252 493 Z M213 231 Q156 229 128 203 Q100 177 100 134 Q100 85 124.5 61 Q149 37 202 37 Q237 37 274.5 55 Q312 73 352 106 L352 239 L213 231 Z M391 540 L246 638 L101 539 L84 560 L224 694 L267 694 L409 562 L391 540 Z " />
<glyph glyph-name="atilde" unicode="&#xe3;" horiz-adv-x="506" d="M252 493 Q326 493 366.5 457 Q407 421 407 334 L407 44 L473 44 Q475 36 475 27.5 Q475 19 476 11 Q459 3 439 -1 Q419 -5 403 -5 Q375 -5 362.5 8.5 Q350 22 352 55 Q352 55 350 56 Q321 33 295.5 20.5 Q270 8 248.5 2 Q227 -4 210 -5 Q193 -6 181 -6 Q140 -6 112.5 6.5 Q85 19 69 38.5 Q53 58 46.5 82 Q40 106 40 128 Q40 195 84.5 230.5 Q129 266 199 271 L352 279 L352 319 Q352 387 329 416.5 Q306 446 240 446 Q203 446 164 438 Q125 430 88 417 L74 456 Q116 474 163 483.5 Q210 493 252 493 Z M213 231 Q156 229 128 203 Q100 177 100 134 Q100 85 124.5 61 Q149 37 202 37 Q237 37 274.5 55 Q312 73 352 106 L352 239 L213 231 Z M317 577 Q298 577 278 583 Q258 589 238.5 596.5 Q219 604 201.5 610 Q184 616 171 616 L118 576 L96 591 Q107 621 127.5 639.5 Q148 658 174 658 Q191 658 210.5 652 Q230 646 249.5 639.5 Q269 633 287 627 Q305 621 319 621 L371 661 L392 645 Q381 616 362 596.5 Q343 577 317 577 Z " />
<glyph glyph-name="adieresis" unicode="&#xe4;" horiz-adv-x="506" d="M252 493 Q326 493 366.5 457 Q407 421 407 334 L407 44 L473 44 Q475 36 475 27.5 Q475 19 476 11 Q459 3 439 -1 Q419 -5 403 -5 Q375 -5 362.5 8.5 Q350 22 352 55 Q352 55 350 56 Q321 33 295.5 20.5 Q270 8 248.5 2 Q227 -4 210 -5 Q193 -6 181 -6 Q140 -6 112.5 6.5 Q85 19 69 38.5 Q53 58 46.5 82 Q40 106 40 128 Q40 195 84.5 230.5 Q129 266 199 271 L352 279 L352 319 Q352 387 329 416.5 Q306 446 240 446 Q203 446 164 438 Q125 430 88 417 L74 456 Q116 474 163 483.5 Q210 493 252 493 Z M213 231 Q156 229 128 203 Q100 177 100 134 Q100 85 124.5 61 Q149 37 202 37 Q237 37 274.5 55 Q312 73 352 106 L352 239 L213 231 Z M205 605 Q205 590 194.5 580 Q184 570 167 570 Q152 570 141.5 580 Q131 590 131 605 Q131 620 142 630.5 Q153 641 167 641 Q184 641 194.5 631 Q205 621 205 605 Z M368 605 Q368 590 357 580 Q346 570 330 570 Q315 570 305 580 Q295 590 295 605 Q295 620 305.5 630.5 Q316 641 330 641 Q346 641 357 631 Q368 621 368 605 Z " />
</font>
</svg>
