<?xml version="1.0" encoding="utf-8"?>
<!-- Generator: Adobe Illustrator 16.0.0, SVG Export Plug-In . SVG Version: 6.00 Build 0)  -->
<!DOCTYPE svg PUBLIC "-//W3C//DTD SVG 1.1//EN" "http://www.w3.org/Graphics/SVG/1.1/DTD/svg11.dtd">
<svg version="1.1" id="Layer_1" xmlns="http://www.w3.org/2000/svg" xmlns:xlink="http://www.w3.org/1999/xlink" x="0px" y="0px"
	 width="144px" height="144px" viewBox="0 0 144 144" enable-background="new 0 0 144 144" xml:space="preserve">
<g>
	<g>
		<rect y="0.001" fill="none" width="144" height="143.999"/>
	</g>
	<g>
		<path fill="#2F1A45" d="M31.043,99.336V49.859l-10.488-0.594V30.663h36.811V91.42c0,7.916,2.969,11.874,11.281,11.874
			c5.145,0,9.895-1.979,14.447-4.75V49.859l-9.697-0.594V30.663h36.414V99.93l12.27-0.396v18.01l-35.029,4.749l-2.572-1.385
			l0.594-14.052c-3.562,4.552-7.916,8.114-12.27,10.885c-4.949,3.562-10.885,5.938-17.615,5.938
			C39.158,123.679,31.043,114.575,31.043,99.336z"/>
	</g>
</g>
</svg>
