<?xml version="1.0" encoding="utf-8"?>
<!-- Generator: Adobe Illustrator 16.0.0, SVG Export Plug-In . SVG Version: 6.00 Build 0)  -->
<!DOCTYPE svg PUBLIC "-//W3C//DTD SVG 1.1//EN" "http://www.w3.org/Graphics/SVG/1.1/DTD/svg11.dtd">
<svg version="1.1" id="Layer_1" xmlns="http://www.w3.org/2000/svg" xmlns:xlink="http://www.w3.org/1999/xlink" x="0px" y="0px"
	 width="180px" height="180px" viewBox="0 0 180 180" enable-background="new 0 0 180 180" xml:space="preserve">
<g>
	<g>
		<rect x="0.545" y="0" fill="none" width="179" height="179"/>
	</g>
	<g>
		<path fill="#2F1A45" d="M39.137,123.482V61.979L26.098,61.24V38.115h45.759v75.527c0,9.84,3.69,14.761,14.023,14.761
			c6.396,0,12.301-2.46,17.959-5.904V61.979L91.784,61.24V38.115h45.268v86.105l15.253-0.492v22.388l-43.545,5.904l-3.198-1.722
			l0.738-17.468c-4.429,5.659-9.841,10.087-15.254,13.531c-6.15,4.429-13.53,7.381-21.896,7.381
			C49.224,153.743,39.137,142.426,39.137,123.482z"/>
	</g>
</g>
</svg>
