<?xml version="1.0" encoding="utf-8"?>
<!-- Generator: Adobe Illustrator 16.0.0, SVG Export Plug-In . SVG Version: 6.00 Build 0)  -->
<!DOCTYPE svg PUBLIC "-//W3C//DTD SVG 1.1//EN" "http://www.w3.org/Graphics/SVG/1.1/DTD/svg11.dtd">
<svg version="1.1" id="Layer_1" xmlns="http://www.w3.org/2000/svg" xmlns:xlink="http://www.w3.org/1999/xlink" x="0px" y="0px"
	 width="96px" height="96px" viewBox="0 0 96 96" enable-background="new 0 0 96 96" xml:space="preserve">
<g>
	<g>
		<rect x="0.545" y="-0.304" fill="none" width="95" height="95"/>
	</g>
	<g>
		<path fill="#2F1A45" d="M21.027,65.229V32.587l-6.92-0.392V19.922h24.286v40.085c0,5.223,1.958,7.834,7.442,7.834
			c3.395,0,6.528-1.306,9.532-3.134v-32.12l-6.398-0.392V19.922h24.024v45.699l8.096-0.261v11.882l-23.111,3.134l-1.698-0.914
			l0.392-9.271c-2.351,3.003-5.223,5.354-8.095,7.181c-3.265,2.351-7.182,3.918-11.621,3.918
			C26.38,81.29,21.027,75.283,21.027,65.229z"/>
	</g>
</g>
</svg>
