<?xml version="1.0" standalone="no"?> <!DOCTYPE svg PUBLIC "-//W3C//DTD SVG 1.0//EN" "http://www.w3.org/TR/2001/REC-SVG-20010904/DTD/svg10.dtd" > <svg xmlns="http://www.w3.org/2000/svg" width="100%" height="100%">
<defs >
<font id="CaponiSlab-Medium" horiz-adv-x="484" ><font-face
    font-family=""
    units-per-em="1000"
    panose-1="0 0 0 0 0 0 0 0 0 0"
    ascent="794"
    descent="-206"
    alphabetic="0" />
<missing-glyph horiz-adv-x="114" />
<glyph unicode=" " glyph-name="space" horiz-adv-x="160" />
<glyph unicode="!" glyph-name="exclam" horiz-adv-x="223" d="M48 558Q43 596 62 617T111 639Q141 639 160 618T175 558L131 195H93L48 558ZM112 -15Q83 -15 65 3T47 50Q47 79 65 97T112 115Q140 115 158 97T176 50Q176 22 158 4T112 -15Z" />
<glyph unicode="&quot;" glyph-name="quotedbl" horiz-adv-x="334" d="M37 563Q32 584 34 599T44 625T64 640T91 645Q105 645 117 641T136 626T145 601T142 563L107 402H72L37 563ZM191 563Q186 584 188 599T199 625T219 640T245 645Q274 645 290 626T297 563L262
402H226L191 563Z" />
<glyph unicode="#" glyph-name="numbersign" horiz-adv-x="441" d="M69 452H152L187 626H241L206 452H291L326 626H380L345 452H424L408 369H328L308 271H388L372 189H292L254 0H199L237 189H153L115 0H60L98 189H17L33 271H115L135 369H53L69 452ZM169 271H254L274
369H189L169 271Z" />
<glyph unicode="$" glyph-name="dollar" horiz-adv-x="489" d="M211 -10Q120 -4 75 35T29 128Q29 166 48 184T93 202Q116 202 131 189T147 153Q147 141 143 133T132 118T122 107T117 98Q117 53 211 47V273Q171 286 140 302T88 339T57 389T46 458Q46 498 59 529T96
582T151 617T217 634V691H266V635Q299 633 328 624T380 599T416 562T430 513Q430 482 414 464T373 445Q350 445 334 459T318 493Q318 504 321 511T329 523T336 532T340 540Q340 555 320 565T266 578V373Q305 359 338 344T396 308T434 256T448 182Q448 134 432 100T390
42T330 6T260 -10V-107H211V-10ZM357 148Q357 192 332 215T260 256V48Q302 53 329 76T357 148ZM129 490Q129 470 134 455T149 429T176 408T217 390V577Q177 571 153 549T129 490Z" />
<glyph unicode="%" glyph-name="percent" horiz-adv-x="696" d="M567 648L606 618L112 -46L75 -16L567 648ZM173 345Q205 345 220 377T235 466Q235 524 220 556T173 588Q142 588 127 556T112 466Q112 409 127 377T173 345ZM173 297Q144 297 117 309T69 343T36
397T23 466Q23 503 35 534T69 589T117 624T173 637Q204 637 231 624T278 588T310 534T322 466Q322 429 311 398T279 345T231 310T173 297ZM524 37Q556 37 570 69T585 158Q585 216 571 248T524 280Q493 280 478 248T462 158Q462 101 477 69T524 37ZM524 -11Q495
-11 468 1T420 35T387 89T374 158Q374 195 386 226T420 281T468 316T524 329Q555 329 582 316T629 280T660 226T672 158Q672 121 661 90T629 37T582 2T524 -11Z" />
<glyph unicode="&amp;" glyph-name="ampersand" horiz-adv-x="687" d="M220 -16Q175 -16 140 -3T79 33T41 87T28 153Q28 222 69 272T182 352Q147 383 130 413T112 491Q112 518 122 544T153 590T205 623T277 636Q307 636 332 628T376 603T406 561T417 504Q417 459
386 425T312 368Q352 332 386 295T455 214Q474 247 490 280T521 345L476 353V414H650V353L590 345Q563 300 539 258T486 173Q502 151 518 131T550 96T579 71T607 62Q639 62 657 69T679 78L694 37Q675 18 646 2T566 -15Q541 -15 520 -6T481 17T448 49T420 84Q383
42 335 13T220 -16ZM391 122Q345 182 303 231T213 324Q169 301 148 268T126 187Q126 163 134 141T160 100T203 71T261 59Q299 58 331 74T391 122ZM281 396Q313 419 328 445T344 504Q344 536 327 555T277 575Q245 575 226 556T207 509Q207 492 211 479T223 454T243
430T272 404L281 396Z" />
<glyph unicode="&apos;" glyph-name="quotesingle" horiz-adv-x="179" d="M37 563Q32 584 34 599T44 625T64 640T91 645Q105 645 117 641T136 626T145 601T142 563L107 402H72L37 563Z" />
<glyph unicode="(" glyph-name="parenleft" horiz-adv-x="335" d="M270 -181Q232 -139 195 -92T129 10T82 129T64 271Q64 348 82 412T129 532T195 634T270 724L313 688Q281 646 254 602T205 507T172 398T160 271Q160 202 172 144T205 36T253 -59T313 -146L270 -181V-181Z" />
<glyph unicode=")" glyph-name="parenright" horiz-adv-x="335" d="M65 -181L22 -146Q53 -104 81 -60T130 35T163 144T175 271Q175 340 163 398T130 506T81 601T22 688L65 724Q103 681 140 634T206 532T253 413T271 271Q271 194 253 130T206 11T140 -91T65 -181Z" />
<glyph unicode="*" glyph-name="asterisk" horiz-adv-x="335" d="M61 377L115 466L28 519L43 552L133 526L148 626H186L201 526L292 552L307 519L220 466L275 376L248 353L167 429L87 353L61 377Z" />
<glyph unicode="+" glyph-name="plus" horiz-adv-x="433" d="M35 340H184V497H250V340H398V277H250V122H184V277H35V340Z" />
<glyph unicode="," glyph-name="comma" horiz-adv-x="250" d="M51 -136Q100 -109 121 -81T142 -22Q142 5 126 5Q120 5 113 -2T89 -10Q63 -10 51 6T38 48Q38 75 59 95T113 116Q158 116 184 86T210 1Q210 -32 200 -59T170 -108T126 -146T73 -173L51 -136Z" />
<glyph unicode="-" glyph-name="hyphen" horiz-adv-x="306" d="M56 286H250V202H56V286Z" />
<glyph unicode="." glyph-name="period" horiz-adv-x="205" d="M103 -15Q74 -15 56 3T38 50Q38 79 56 97T103 115Q131 115 149 97T167 50Q167 22 149 4T103 -15Z" />
<glyph unicode="/" glyph-name="slash" horiz-adv-x="362" d="M281 714H348L52 -172H-16L281 714Z" />
<glyph unicode="0" glyph-name="zero" horiz-adv-x="563" d="M281 45Q346 45 380 109T415 308Q415 442 381 507T281 573Q217 573 182 508T147 308Q147 173 182 109T281 45ZM281 -18Q233 -18 188 5T107 70T50 172T28 308Q28 383 49 443T106 546T187 612T281 636Q329
636 375 613T456 547T513 444T535 308Q535 233 514 173T457 70T375 5T281 -18Z" />
<glyph unicode="1" glyph-name="one" horiz-adv-x="344" d="M21 521L186 636H236V68L323 60V0H31V60L125 70V508L21 456V521Z" />
<glyph unicode="2" glyph-name="two" horiz-adv-x="465" d="M17 73Q76 126 130 171T225 261T290 350T314 448Q314 512 286 545T210 578Q168 578 147 561T126 523Q126 511 131 504T143 489T154 473T160 450Q160 432 143 418T101 403Q69 403 50 422T31 480Q31 514
46 542T87 592T147 624T222 636Q276 636 315 621T381 579T420 520T433 452Q433 401 405 353T332 260T230 173T116 90H310Q347 90 359 97T377 120L395 173H437L418 0H22L17 73Z" />
<glyph unicode="3" glyph-name="three" horiz-adv-x="473" d="M212 -16Q119 -16 68 25T17 129Q17 164 36 180T80 197Q105 197 120 183T136 147Q136 133 132 125T121 111T111 102T106 94Q106 77 129 61T194 44Q262 44 293 75T325 180Q325 242 289 269T187 297H136V354H186Q239
354 271 385T303 486Q303 531 278 554T209 578Q180 578 161 569T141 551Q141 546 145 543T153 534T162 522T166 501Q166 480 151 466T112 451Q86 451 69 468T51 515Q51 546 67 569T108 607T165 629T225 636Q271 636 306 625T366 593T403 547T416 489Q416 460 405
435T374 389T330 355T278 334V331Q364 320 404 279T444 174Q444 131 426 96T377 36T303 -2T212 -16Z" />
<glyph unicode="4" glyph-name="four" horiz-adv-x="515" d="M207 60L284 68V181H19V214L173 481Q185 500 189 514T194 539Q194 547 190 554T175 562Q165 562 159 555T149 539Q132 542 124 555T115 586Q115 611 136 628T187 645Q229 645 248 623T268 572Q268 543
257 517T226 457L106 240H284V440L393 455V240H493V181H393V67L466 60V0H207V60Z" />
<glyph unicode="5" glyph-name="five" horiz-adv-x="461" d="M198 -15Q159 -15 127 -7T71 19T34 61T20 118Q20 152 39 167T83 183Q103 183 120 171T138 136Q138 123 134 114T124 99T114 89T109 80Q109 62 132 53T182 43Q242 43 278 83T315 207Q315 246 306 270T280
309T242 328T196 333Q170 333 145 324T102 301L71 317V626H338L354 671H394L382 531H131V376Q151 387 176 394T229 401Q274 401 311 390T376 354T418 294T433 209Q433 153 413 111T359 41T283 -1T198 -15Z" />
<glyph unicode="6" glyph-name="six" horiz-adv-x="503" d="M261 -18Q207 -18 164 2T91 57T45 140T29 244Q29 339 57 411T137 533T263 607T429 632V569Q357 564 306 548T222 500T170 424T146 319Q173 340 207 355T286 370Q324 370 359 360T420 327T463 270T479
186Q479 146 465 109T423 44T354 -1T261 -18ZM255 306Q220 306 193 296T143 269V253Q143 148 171 96T262 44Q292 44 312 55T345 86T363 130T369 182Q369 240 341 273T255 306Z" />
<glyph unicode="7" glyph-name="seven" horiz-adv-x="447" d="M216 -11Q170 -11 148 13T126 72Q126 104 138 131T163 183L347 533H199Q170 533 153 531T125 524T108 510T94 484L71 427H25L55 626H445V583L229 168Q218 147 213 133T207 102Q207 93 212 87T231 81Q244
81 252 86T266 99Q299 92 299 51Q299 23 274 6T216 -11Z" />
<glyph unicode="8" glyph-name="eight" horiz-adv-x="501" d="M250 -18Q202 -18 161 -5T90 33T43 92T26 166Q26 197 37 224T66 271T107 305T155 325Q107 344 79 382T51 472Q51 505 65 535T106 587T168 623T250 637Q295 637 331 624T393 587T433 535T447 472Q447
445 439 422T417 379T385 345T348 325Q373 319 396 305T437 271T465 224T476 166Q476 126 459 92T412 34T341 -4T250 -18ZM250 44Q279 44 300 54T334 81T353 120T359 169Q359 224 334 258T250 293Q191 293 167 259T142 169Q142 143 148 121T167 81T200 54T250 44ZM250
351Q293 351 316 381T339 467Q339 518 316 547T250 576Q208 576 184 547T159 467Q159 411 183 381T250 351Z" />
<glyph unicode="9" glyph-name="nine" horiz-adv-x="504" d="M64 54Q133 60 185 76T273 121T331 196T358 304Q330 283 295 268T216 253Q178 253 144 263T83 294T40 350T24 433Q24 473 38 509T80 574T148 619T242 636Q296 636 339 616T412 560T459 475T475 369Q475
270 443 199T356 81T225 13T64 -9V54ZM249 316Q284 316 311 326T361 353V358Q361 575 242 575Q212 575 192 564T159 533T141 489T135 436Q135 379 163 348T249 316Z" />
<glyph unicode=":" glyph-name="colon" horiz-adv-x="217" d="M109 -15Q80 -15 62 3T44 50Q44 79 62 97T109 115Q137 115 155 97T173 50Q173 22 155 4T109 -15ZM109 291Q80 291 62 309T44 356Q44 384 62 402T109 420Q137 420 155 402T173 356Q173 327 155 309T109 291Z" />
<glyph unicode=";" glyph-name="semicolon" horiz-adv-x="259" d="M123 291Q94 291 76 309T58 356Q58 384 76 402T123 420Q151 420 169 402T187 356Q187 327 169 309T123 291ZM54 -136Q103 -109 124 -81T145 -22Q145 5 129 5Q123 5 116 -2T92 -10Q66 -10 54 6T41
48Q41 75 62 95T116 116Q161 116 187 86T213 1Q213 -32 203 -59T173 -108T129 -146T76 -173L54 -136Z" />
<glyph unicode="&lt;" glyph-name="less" horiz-adv-x="401" d="M33 276V330L365 484V413L122 303L365 192V122L33 276Z" />
<glyph unicode="=" glyph-name="equal" horiz-adv-x="433" d="M35 399H398V337H35V399ZM35 259H398V197H35V259Z" />
<glyph unicode="&gt;" glyph-name="greater" horiz-adv-x="401" d="M37 192L280 302L37 413V484L369 330V276L37 122V192Z" />
<glyph unicode="?" glyph-name="question" horiz-adv-x="384" d="M160 -15Q131 -15 113 3T95 50Q95 79 113 97T160 115Q188 115 206 97T224 50Q224 22 206 4T160 -15ZM126 195Q117 232 123 261T144 315T178 361T215 403T245 447T258 498Q258 536 237 556T174 577Q140
577 122 563T104 525Q104 515 110 507T130 495Q133 490 136 483T139 465Q139 449 127 436T91 423Q62 423 42 443T22 501Q22 531 34 556T69 600T121 628T187 639Q223 639 255 629T310 600T346 552T360 487Q360 447 346 419T310 368T264 326T220 288T188 247T181
195H126Z" />
<glyph unicode="@" glyph-name="at" horiz-adv-x="855" d="M591 53Q620 53 651 67T707 111T749 185T765 290Q765 347 746 394T692 474T608 526T497 545Q410 545 339 513T216 427T138 302T110 152Q110 85 133 30T197 -66T295 -128T420 -151Q508 -151 568 -126T672
-65L704 -105Q679 -125 649 -144T582 -177T500 -199T401 -208Q320 -208 252 -183T133 -113T55 -5T27 136Q27 229 63 313T162 461T311 562T497 600Q573 600 635 576T740 511T808 413T832 292Q832 218 808 163T746 71T662 16T569 -3Q473 -3 465 73H463Q451 58 436
45T403 21T368 4T331 -3Q311 -3 293 4T262 26T240 64T231 121Q231 172 250 222T303 313T379 379T472 405Q505 405 524 394T554 366L564 392H655L562 106Q560 97 559 88T560 71T570 58T591 53ZM378 66Q407 66 430 85T469 124L528 313Q520 327 508 338T473 349Q442
349 417 327T373 273T344 204T334 136Q334 96 347 81T378 66Z" />
<glyph unicode="A" glyph-name="A" horiz-adv-x="613" d="M10 60L70 76L264 635H347L550 64L603 60V0H357V60L430 65L381 205H184L141 78L226 60V0H10V60ZM202 261H362L281 492H280L202 261Z" />
<glyph unicode="B" glyph-name="B" horiz-adv-x="537" d="M26 60L90 66V559L26 564V626H277Q377 626 430 586T484 478Q484 424 455 384T359 327V325Q434 311 471 270T508 171Q508 95 453 48T293 0H26V60ZM201 296V62H273Q309 62 332 69T368 91T387 127T393 178Q393
243 361 269T272 296H201ZM201 563V346H267Q324 346 347 374T371 462Q371 520 343 541T264 563H201Z" />
<glyph unicode="C" glyph-name="C" horiz-adv-x="592" d="M318 -19Q253 -19 200 4T109 69T49 171T28 306Q28 381 52 441T118 545T212 612T322 636Q373 636 415 617T488 562L504 622H548V422H495Q475 498 434 535T324 572Q286 572 254 556T199 507T162 425T148
310Q148 178 196 114T337 50Q401 50 442 84T510 175L561 152Q528 69 466 25T318 -19Z" />
<glyph unicode="D" glyph-name="D" horiz-adv-x="611" d="M26 60L90 65V559L26 564V626H283Q340 626 394 610T490 557T557 461T583 314Q583 230 558 171T492 73T397 18T288 0H26V60ZM201 562V64H279Q317 64 350 76T409 118T448 195T463 314Q463 385 450 432T411
509T352 550T277 562H201Z" />
<glyph unicode="E" glyph-name="E" horiz-adv-x="571" d="M434 530Q429 553 418 558T380 564H201V342H275Q312 342 317 370L327 441H370V194H328L316 263Q313 280 304 285T275 290H201V64H384Q407 64 420 65T442 70T454 83T461 107L485 205H534V0H26V60L90 67V559L26
564V626H502V440H457L434 530Z" />
<glyph unicode="F" glyph-name="F" horiz-adv-x="523" d="M434 507Q430 525 426 536T412 553T389 562T351 564H201V348H271Q281 348 287 348T298 353T305 365T310 387L320 450H363V196H320L309 264Q306 284 300 290T270 296H201V66L278 60V0H26V60L90 66V558L26
564V626H499V425H454L434 507Z" />
<glyph unicode="G" glyph-name="G" horiz-adv-x="638" d="M328 -18Q260 -18 205 5T110 70T50 172T28 305Q28 380 53 441T119 545T214 612T325 636Q376 636 419 619T491 568L505 620H550V435H496Q477 506 439 538T334 570Q295 570 261 554T202 506T163 425T148
310Q148 177 193 111T337 45Q379 45 408 61T452 100Q463 116 464 136T466 180V207L394 213V272H629V213L572 208V100Q556 80 534 60T481 22T413 -7T328 -18Z" />
<glyph unicode="H" glyph-name="H" horiz-adv-x="643" d="M374 60L445 66V296H201V66L270 60V0H26V60L90 66V560L26 564V626H270V564L201 559V354H445V557L374 564V626H617V564L556 559V64L617 60V0H374V60Z" />
<glyph unicode="I" glyph-name="I" horiz-adv-x="309" d="M26 60L99 68V556L26 564V626H283V564L210 557V69L283 60V0H26V60Z" />
<glyph unicode="J" glyph-name="J" horiz-adv-x="406" d="M141 -59Q109 -59 86 -51T48 -30T26 1T19 38Q19 70 37 89T83 109Q106 109 122 97T138 61Q138 49 134 42T126 29T117 21T113 13Q113 -2 137 -2Q176 -2 191 27T206 105L205 557L133 564V626H382V564L316
557V163Q316 106 303 64T266 -5T210 -45T141 -59Z" />
<glyph unicode="K" glyph-name="K" horiz-adv-x="611" d="M26 60L90 66V559L26 564V626H272V564L201 559V66L270 60V0H26V60ZM356 60L415 65L225 318V343L415 548L355 564V626H566V564L492 550L320 363L541 64L589 60V0H356V60Z" />
<glyph unicode="L" glyph-name="L" horiz-adv-x="536" d="M26 60L90 66V560L26 564V626H280V564L201 559V64H354Q374 64 387 66T410 78T425 104T437 152L458 225H504V0H26V60Z" />
<glyph unicode="M" glyph-name="M" horiz-adv-x="727" d="M324 0L159 514V73L227 60V0H26V60L90 75V557L26 564V626H230L363 203L502 626H701V564L640 560V64L701 60V0H458V60L533 67V523L360 0H324Z" />
<glyph unicode="N" glyph-name="N" horiz-adv-x="627" d="M26 60L89 69V559L26 564V626H216L479 223V552L408 564V626H603V564L550 552V0H492L159 511V75L256 60V0H26V60Z" />
<glyph unicode="O" glyph-name="O" horiz-adv-x="641" d="M320 45Q405 45 449 110T493 308Q493 440 449 506T320 572Q236 572 192 506T148 308Q148 176 192 111T320 45ZM320 -18Q264 -18 211 4T118 69T53 172T28 308Q28 383 52 443T117 546T211 612T320 636Q376
636 429 613T523 547T588 444T613 308Q613 233 589 173T523 70T429 5T320 -18Z" />
<glyph unicode="P" glyph-name="P" horiz-adv-x="515" d="M26 60L90 65V560L26 564V626H272Q384 626 442 577T501 445Q501 399 485 364T440 306T369 270T277 258Q256 258 236 260T201 265V66L277 60V0H26V60ZM201 565V318Q212 317 226 317T257 316Q327 316 355
342T384 438Q384 504 356 534T263 565H201Z" />
<glyph unicode="Q" glyph-name="Q" horiz-adv-x="641" d="M464 -188Q383 -188 334 -145T255 -10Q208 1 167 28T95 95T46 189T28 308Q28 383 52 443T117 546T211 612T320 636Q376 636 429 613T523 547T588 444T613 308Q613 242 594 188T543 94T469 26T379 -11Q396
-74 426 -99T497 -125Q520 -125 536 -122T572 -111L586 -161Q565 -171 533 -179T464 -188ZM320 43Q398 43 445 108T493 308Q493 440 446 506T320 572Q243 572 196 506T148 308Q148 174 195 109T320 43Z" />
<glyph unicode="R" glyph-name="R" horiz-adv-x="591" d="M26 60L90 66V560L26 564V626H270Q317 626 358 616T430 586T479 536T497 467Q497 435 485 409T452 362T406 328T352 307V303Q411 295 438 263T477 179Q491 113 503 83T546 53Q566 53 583 63L602 24Q583
10 558 1T500 -8Q462 -8 438 5T399 42T376 98T361 168Q355 201 349 224T332 260T305 280T261 286H201V67L272 60V0H26V60ZM201 565V339H277Q337 339 358 365T380 451Q380 487 370 509T344 543T306 560T264 565H201Z" />
<glyph unicode="S" glyph-name="S" horiz-adv-x="495" d="M261 -12Q215 -12 172 5T99 59L84 8H35V206H91Q101 157 118 127T156 79T201 56T249 50Q274 50 296 56T335 74T362 105T372 151Q372 175 361 192T331 223T283 248T221 271Q183 283 151 298T94 334T56 386T42
458Q42 502 58 535T100 590T161 624T231 636Q272 636 309 621T367 579L381 619H429V453H376Q363 511 326 542T236 574Q190 574 162 552T133 490Q133 465 143 449T171 420T216 397T276 376Q315 362 350 348T411 311T452 258T468 182Q468 132 450 96T401 35T334 0T261
-12Z" />
<glyph unicode="T" glyph-name="T" horiz-adv-x="561" d="M151 60L225 68V567H153Q123 567 112 554T92 500L70 413H27V626H534V413H489L467 498Q462 521 457 535T443 556T422 565T391 567H337V67L410 60V0H151V60Z" />
<glyph unicode="U" glyph-name="U" horiz-adv-x="612" d="M314 -13Q253 -13 209 3T137 48T94 115T80 198V560L24 564V626H269V564L190 559V213Q190 139 220 98T327 56Q399 56 429 96T460 213V552L387 564V626H587V564L530 552V202Q530 157 518 118T481 50T414 4T314 -13Z" />
<glyph unicode="V" glyph-name="V" horiz-adv-x="596" d="M65 561L16 565V626H252V565L181 560L320 128H321L453 547L380 565V626H580V565L524 549L340 -9H253L65 561Z" />
<glyph unicode="W" glyph-name="W" horiz-adv-x="824" d="M418 291L318 -9H237L63 560L16 564V626H235V564L178 560L301 138H302L376 369L310 561L273 564V626H583V564L542 560L488 390L574 134H575L689 547L621 564V626H807V564L759 550L597 -9H519L418 291ZM442
455L477 559H408L442 455Z" />
<glyph unicode="X" glyph-name="X" horiz-adv-x="601" d="M340 60L398 65L274 263L163 74L228 60V0H21V60L90 77L241 316L90 559L38 564V626H276V564L216 560L324 387L420 549L365 564V626H558V564L491 546L357 335L526 65L581 60V0H340V60Z" />
<glyph unicode="Y" glyph-name="Y" horiz-adv-x="558" d="M155 60L229 68V287L59 561L17 564V626H246V564L187 560L312 351L421 547L362 564V626H541V564L489 545L340 280V67L414 60V0H155V60Z" />
<glyph unicode="Z" glyph-name="Z" horiz-adv-x="546" d="M63 626H505V589L177 64H316Q351 64 372 66T406 75T423 92T433 120L460 227H507V0H35V36L365 564H220Q195 564 181 562T157 554T144 538T135 509L110 416H63V626Z" />
<glyph unicode="[" glyph-name="bracketleft" horiz-adv-x="334" d="M85 714H312V660L175 654V-111L312 -118V-172H85V714Z" />
<glyph unicode="\" glyph-name="backslash" horiz-adv-x="362" d="M14 714H81L378 -172H310L14 714Z" />
<glyph unicode="]" glyph-name="bracketright" horiz-adv-x="330" d="M243 -172H16V-118L153 -111V654L16 660V714H243V-172Z" />
<glyph unicode="^" glyph-name="asciicircum" horiz-adv-x="374" d="M186 535L67 397H22L143 626H231L352 397H307L186 535Z" />
<glyph unicode="_" glyph-name="underscore" horiz-adv-x="364" d="M-3 -155H368V-216H-3V-155Z" />
<glyph unicode="`" glyph-name="grave" horiz-adv-x="456" d="M174 591Q161 603 156 614T151 636Q151 659 166 672T199 686Q217 686 229 677T250 642L298 507H263L174 591Z" />
<glyph unicode="a" glyph-name="a" horiz-adv-x="462" d="M150 -10Q125 -10 102 -3T61 18T33 54T22 107Q22 140 35 165T72 209T128 236T197 245Q221 245 239 242T273 233V344Q273 377 256 392T200 408Q189 408 177 406T156 399Q142 393 142 383Q142 380 145 377T153
369T160 357T164 337Q164 315 148 303T111 291Q87 291 70 307T53 349Q53 378 68 399T108 434T162 454T220 461Q288 461 330 434T372 341V91Q372 71 380 64T402 57Q416 57 424 59T444 70L462 45Q457 39 450 30T430 12T401 -2T361 -8Q329 -8 308 8T277 54Q255 29
225 10T150 -10ZM197 56Q223 56 242 66T273 85V192Q258 196 245 198T208 200Q173 200 149 183T124 124Q124 92 144 74T197 56Z" />
<glyph unicode="b" glyph-name="b" horiz-adv-x="526" d="M17 4V64L84 62V572L15 566V627L173 660L182 656V407Q211 432 245 446T321 460Q406 460 453 397T501 214Q501 160 485 118T443 47T381 3T309 -12Q264 -12 236 2T182 42V36H180V-7H170L17 4ZM281 396Q231
396 182 365V93Q223 55 277 55Q331 55 363 94T396 221Q396 303 368 349T281 396Z" />
<glyph unicode="c" glyph-name="c" horiz-adv-x="432" d="M234 -17Q186 -17 147 -1T81 44T39 115T24 208Q24 266 43 312T94 392T168 442T255 460Q286 460 313 452T359 430T390 397T401 355Q401 331 384 318T343 305Q303 305 299 341Q297 353 296 363T290 382T276
396T251 401Q194 401 162 354T130 224Q130 138 162 96T251 53Q300 53 328 81T370 149L412 134Q405 102 391 75T354 27T302 -5T234 -17Z" />
<glyph unicode="d" glyph-name="d" horiz-adv-x="524" d="M218 -17Q174 -17 139 0T78 49T40 124T26 219Q26 278 44 323T93 398T161 444T237 460Q271 460 296 452T344 429V572L264 566V629L433 660L443 656V77L511 78V19L355 -7L346 -3L348 46Q324 19 294 1T218
-17ZM262 53Q291 53 309 61T344 86V373Q326 386 306 392T261 399Q206 399 169 355T131 219Q131 181 141 150T168 98T210 65T262 53Z" />
<glyph unicode="e" glyph-name="e" horiz-adv-x="448" d="M241 -17Q190 -17 150 1T82 50T39 125T24 219Q24 272 42 316T90 392T160 442T243 460Q279 460 312 449T370 412T409 345T422 246L418 239H129V223Q129 142 165 97T260 51Q305 51 337 72T386 143L429 124Q384
-17 241 -17ZM238 402Q196 402 171 372T135 290H321Q320 349 300 375T238 402Z" />
<glyph unicode="f" glyph-name="f" horiz-adv-x="320" d="M19 434Q36 437 51 441T81 453Q82 504 97 543T138 611T197 653T268 668Q293 668 315 662T353 644T380 615T390 576Q390 544 373 527T329 509Q311 509 295 520T278 555Q278 564 280 570T286 580T292 587T295
594Q295 611 264 611Q228 611 204 576T179 475V446H300V384H179L180 64L254 60V0H16V60L81 64V384H19V434Z" />
<glyph unicode="g" glyph-name="g" horiz-adv-x="504" d="M228 138Q178 138 139 156Q124 150 115 139T106 110Q106 87 125 78T183 68Q226 68 257 70T306 72Q342 72 372 67T424 49T458 11T470 -50Q470 -92 451 -124T398 -179T318 -213T217 -225Q114 -225 56 -194T-2
-114Q-2 -82 25 -57T97 -21Q64 -9 47 15T30 69Q30 102 50 129T109 173Q79 194 62 225T44 298Q44 334 59 364T99 415T157 448T228 460Q279 460 320 439T382 367H384Q389 415 412 437T461 459Q483 459 497 446T512 409Q512 386 500 376T479 362Q466 380 448 380Q434
380 423 365T411 320Q411 315 411 308T412 291Q412 258 398 230T358 181T299 150T228 138ZM162 -31Q154 -31 148 -31T135 -29Q110 -40 98 -57T86 -97Q86 -115 96 -128T124 -149T166 -160T219 -164Q254 -164 284 -159T338 -143T374 -117T387 -80Q387 -54 369 -40T299
-26Q258 -26 223 -28T162 -31ZM229 190Q274 190 294 217T314 298Q314 350 294 377T229 404Q184 404 164 377T144 298Q144 245 164 218T229 190Z" />
<glyph unicode="h" glyph-name="h" horiz-adv-x="519" d="M16 60L82 64V572L14 566V627L171 660L180 656V372Q194 388 209 402T241 429Q261 443 283 452T327 462Q385 462 416 431T448 332V63L504 60V0H291V60L349 63V320Q349 349 333 365T282 381Q255 381 230
370T180 340V64L235 60V0H16V60Z" />
<glyph unicode="i" glyph-name="i" horiz-adv-x="263" d="M16 60L85 64V364L13 355V417L175 454L183 450V64L248 60V0H16V60ZM133 529Q107 529 90 546T73 588Q73 613 90 630T133 647Q159 647 176 630T194 588Q194 563 177 546T133 529Z" />
<glyph unicode="j" glyph-name="j" horiz-adv-x="262" d="M0 -220Q-29 -220 -47 -204T-65 -165Q-65 -142 -54 -128T-22 -114Q-5 -114 13 -124T46 -146Q66 -135 77 -108T88 -38V364L16 355V417L177 454L186 450V15Q186 -30 173 -72T135 -147T76 -200T0 -220ZM138
529Q112 529 95 546T78 588Q78 613 95 630T138 647Q164 647 181 630T198 588Q198 563 181 546T138 529Z" />
<glyph unicode="k" glyph-name="k" horiz-adv-x="500" d="M16 60L82 66V570L16 559V621L171 660L180 656V64L230 60V0H16V60ZM292 60L332 63L185 233V247L323 377L262 386V446H467V386L393 378L274 265L449 63L492 60V0H292V60Z" />
<glyph unicode="l" glyph-name="l" horiz-adv-x="266" d="M16 60L87 65V572L11 563V625L176 660L185 656V64L251 60V0H16V60Z" />
<glyph unicode="m" glyph-name="m" horiz-adv-x="771" d="M16 60L85 65V367L17 360V422L175 454L183 450V378Q196 394 211 407T243 432Q262 446 282 454T325 462Q367 462 395 443T435 381Q449 396 464 409T496 434Q516 447 538 454T583 462Q637 462 668 431T699
332V63L756 60V0H551V60L600 63V320Q600 349 585 365T538 381Q487 381 441 348V63L495 60V0H294V60L343 62V320Q343 349 327 365T280 381Q254 381 231 372T183 346V64L238 60V0H16V60Z" />
<glyph unicode="n" glyph-name="n" horiz-adv-x="523" d="M16 60L85 65V364L17 353V415L175 454L183 450V372Q197 389 213 403T246 430Q266 444 287 453T330 462Q389 462 420 431T451 332V63L508 60V0H299V60L352 63V320Q352 349 336 365T285 381Q259 381 234
370T183 340V64L242 60V0H16V60Z" />
<glyph unicode="o" glyph-name="o" horiz-adv-x="495" d="M248 46Q279 46 301 59T337 96T358 152T365 221Q365 258 358 290T337 346T301 383T248 397Q217 397 195 384T158 346T137 290T130 221Q130 184 137 152T158 97T194 60T248 46ZM248 -17Q205 -17 165 -1T93
47T43 122T24 221Q24 276 43 320T93 395T164 443T248 460Q291 460 331 443T402 395T453 319T472 221Q472 166 453 122T403 47T331 0T248 -17Z" />
<glyph unicode="p" glyph-name="p" horiz-adv-x="528" d="M20 -153L85 -148V364L15 351V413L173 454L182 450V394Q209 422 245 441T327 461Q366 461 398 445T453 398T489 326T502 230Q502 170 485 125T439 49T374 3T301 -12Q263 -12 235 -4T183 20V-148L256 -153V-210H20V-153ZM280
393Q250 393 226 383T183 356V79Q200 67 223 59T273 50Q328 50 362 92T397 225Q397 301 367 347T280 393Z" />
<glyph unicode="q" glyph-name="q" horiz-adv-x="523" d="M271 -153L344 -148V42Q318 19 289 4T219 -12Q175 -12 139 5T78 52T40 124T26 218Q26 279 42 324T84 400T146 445T221 460Q264 460 292 447T347 409V450L355 456L498 442V382L443 384V-148L508 -153V-210H271V-153ZM255
54Q279 54 299 60T344 83V364Q306 395 251 395Q227 395 205 386T167 356T140 303T130 224Q130 145 164 100T255 54Z" />
<glyph unicode="r" glyph-name="r" horiz-adv-x="391" d="M16 60L85 65V363L13 349V412L175 454L183 450V370Q198 386 215 402T249 432T284 453T318 461Q348 461 365 443T382 394Q382 365 365 346T318 326Q305 326 295 329T280 338Q280 359 275 368T259 377Q248
377 226 364T183 333V64L261 60V0H16V60Z" />
<glyph unicode="s" glyph-name="s" horiz-adv-x="374" d="M173 -15Q138 -15 111 -7T63 14T33 45T22 81Q22 104 35 120T72 136Q86 136 95 133T112 124Q109 84 125 62T180 40Q194 40 208 43T234 54T253 73T260 99Q260 132 238 147T171 181Q106 202 74 232T41 322Q41
351 53 375T86 418T137 446T200 457Q263 457 299 432T335 371Q335 349 321 338T287 327Q275 327 267 329T253 337Q251 372 238 388T193 404Q164 404 144 390T124 347Q124 321 143 306T208 273Q280 247 315 215T349 128Q349 63 303 24T173 -15Z" />
<glyph unicode="t" glyph-name="t" horiz-adv-x="326" d="M185 -13Q126 -13 101 12T75 89V386L15 384V436Q62 445 87 469T129 545L174 542V446H297V384H174V117Q174 86 185 72T235 57Q254 57 269 60T308 70L316 31Q290 10 255 -1T185 -13Z" />
<glyph unicode="u" glyph-name="u" horiz-adv-x="513" d="M194 -15Q137 -15 105 15T72 109V381L14 384V444H170V125Q170 93 184 76T235 59Q259 59 284 69T334 97V380L279 384V444H433V73L500 75V17L346 -8L337 -4L339 67Q325 50 310 37T279 14Q260 0 239 -7T194 -15Z" />
<glyph unicode="v" glyph-name="v" horiz-adv-x="463" d="M50 383L9 386V446H220V386L162 382L258 123H260L351 371L296 386V446H454V386L411 372L270 -10H207L50 383Z" />
<glyph unicode="w" glyph-name="w" horiz-adv-x="681" d="M348 287H346L230 -10H175L48 383L10 386V446H207V386L156 382L231 137H233L321 361L313 381L265 386V446H459V386L413 382L499 138H501L573 376L523 386V446H671V386L633 379L511 -10H457L348 287Z" />
<glyph unicode="x" glyph-name="x" horiz-adv-x="463" d="M244 57L293 61L208 179L128 69L176 57V0H13V60L64 70L176 224L56 383L17 386V446H223V390L176 385L254 274L330 378L284 390V446H434V386L394 377L286 231L414 62L451 60V0H244V57Z" />
<glyph unicode="y" glyph-name="y" horiz-adv-x="478" d="M109 -220Q69 -220 50 -199T31 -154Q31 -128 46 -115T81 -102Q98 -102 109 -111Q109 -134 119 -141T138 -149Q154 -149 170 -125T210 -38L216 -20L49 383L9 386V446H218V386L162 382L264 113H266L363 374L312
386V446H469V386L425 373L267 -43Q249 -91 233 -124T198 -179T159 -210T109 -220Z" />
<glyph unicode="z" glyph-name="z" horiz-adv-x="432" d="M44 446H390V409L155 51H233Q261 51 280 53T312 64T331 87T340 126L343 146H389V0H31V36L271 395H213Q180 395 158 393T123 385T103 367T93 334L90 312H44V446Z" />
<glyph unicode="{" glyph-name="braceleft" horiz-adv-x="341" d="M259 -172Q172 -172 133 -133T104 -8L121 150Q124 175 120 191T104 217T69 232T14 240V303Q47 306 69 311T103 325T120 351T121 393L104 550Q93 637 132 675T259 714H319V659L275 657Q250 655
235 651T210 637T198 606T197 553L203 409Q204 376 199 353T182 315T152 290T106 274V269Q133 263 151 254T182 228T199 189T203 133L197 -10Q195 -43 198 -63T210 -94T234 -109T275 -114L319 -117V-172H259V-172Z" />
<glyph unicode="|" glyph-name="bar" horiz-adv-x="224" d="M80 714H144V-172H80V714Z" />
<glyph unicode="}" glyph-name="braceright" horiz-adv-x="341" d="M82 -172H22V-117L66 -114Q91 -113 106 -109T131 -94T142 -63T144 -10L139 133Q138 166 143 189T159 228T189 253T235 269V274Q208 280 190 289T160 314T143 353T139 409L144 553Q145 586 143
606T131 636T107 651T66 657L22 659V714H82Q169 714 208 676T237 550L220 393Q217 367 221 351T237 326T272 311T327 303V240Q294 237 272 232T238 217T221 191T220 150L237 -8Q248 -94 209 -133T82 -172Z" />
<glyph unicode="~" glyph-name="asciitilde" horiz-adv-x="351" d="M28 172Q38 229 63 265T128 301Q156 301 186 294T240 286Q256 287 265 297T282 327H323Q313 270 288 235T225 199Q196 199 165 206T111 213Q82 213 68 172H28V172Z" />
<glyph unicode="&#xa0;" glyph-name="uni00A0" horiz-adv-x="160" />
<glyph unicode="&#xa1;" glyph-name="exclamdown" horiz-adv-x="223" d="M175 -114Q180 -152 161 -173T111 -194Q81 -194 62 -173T47 -114L92 249H130L175 -114ZM111 460Q139 460 157 442T176 395Q176 366 158 348T111 330Q82 330 64 348T46 395Q46 423 64 441T111 460Z" />
<glyph unicode="&#xa2;" glyph-name="cent" horiz-adv-x="432" d="M212 -16Q168 -12 133 5T74 52T37 121T24 208Q24 259 39 301T79 375T139 427T212 456V535H261V460Q291 459 316 451T361 429T390 396T401 355Q401 331 385 318T347 304Q309 304 305 341Q304 352
303 362T297 381T285 395T261 402V51Q306 55 332 83T370 149L412 134Q398 76 361 35T261 -15V-107H212V-16ZM127 224Q127 82 212 56V396Q172 381 150 337T127 224Z" />
<glyph unicode="&#xa3;" glyph-name="sterling" horiz-adv-x="509" d="M57 315H125Q114 347 107 377T99 435Q99 480 113 517T154 580T219 621T304 636Q340 636 371 627T425 599T461 555T475 495Q475 457 456 437T406 417Q383 417 367 431T350 463Q350 476 355
484T366 499T378 513T383 531Q383 547 363 562T313 578Q272 578 245 547T218 458Q218 420 223 385T237 315H388V268H246Q251 245 253 222T256 174Q256 139 250 109Q280 99 311 92T376 84Q416 84 432 102T457 162L497 155Q494 117 487 86T464 32T426 -4T368 -17Q323
-17 288 1T223 40Q185 -18 112 -18Q67 -18 43 4T18 61Q18 102 44 123T112 145Q129 145 147 142T183 132Q178 164 167 198T142 268H57V315ZM115 30Q137 30 154 40T180 71Q163 82 146 89T112 96Q93 96 84 87T75 62Q75 48 85 39T115 30Z" />
<glyph unicode="&#xa5;" glyph-name="yen" horiz-adv-x="509" d="M61 347H186L59 561L17 564V626H242V564L180 560L286 373L376 547L319 564V626H491V564L443 546L336 347H458V299H316V237H458V189H316V67L390 60V0H131V60L206 68V189H61V237H206V299H61V347Z" />
<glyph unicode="&#xa6;" glyph-name="brokenbar" horiz-adv-x="224" d="M80 238H144V-172H80V238ZM80 714H144V320H80V714Z" />
<glyph unicode="&#xa7;" glyph-name="section" horiz-adv-x="462" d="M216 -150Q173 -150 140 -141T85 -115T51 -78T39 -34Q39 -4 55 13T96 30Q113 30 123 23T139 5Q119 -43 143 -67T218 -92Q255 -92 283 -74T311 -14Q311 6 303 21T278 48T237 71T181 96Q144 112
115 127T65 161T34 203T23 260Q23 284 30 303T50 337T77 363T109 382Q89 402 79 426T69 486Q69 522 82 550T119 597T173 627T240 638Q274 638 303 631T355 610T389 577T401 535Q401 507 386 493T347 479Q330 479 318 487T301 506Q315 541 297 560T236 580Q201 580
177 562T153 509Q153 492 157 480T173 457T204 435T256 409Q298 391 332 374T390 337T426 292T439 230Q439 188 412 159T352 114Q375 94 388 69T401 9Q401 -32 387 -62T347 -111T289 -140T216 -150ZM230 312Q202 324 180 335T139 358Q125 348 114 331T103 290Q103
273 108 261T127 238T163 216T220 188Q249 175 273 163T318 138Q332 148 342 164T352 201Q352 222 344 236T321 263T283 286T230 312Z" />
<glyph unicode="&#xa8;" glyph-name="dieresis" horiz-adv-x="456" d="M143 529Q118 529 102 545T85 586Q85 610 101 626T143 643Q168 643 184 627T201 586Q201 562 185 546T143 529ZM315 529Q291 529 274 545T257 586Q257 610 274 626T315 643Q340 643 356 627T373
586Q373 562 357 546T315 529Z" />
<glyph unicode="&#xa9;" glyph-name="copyright" horiz-adv-x="697" d="M348 -18Q287 -18 230 5T129 70T57 172T30 308Q30 383 57 443T128 546T230 612T348 636Q409 636 466 613T569 547T641 444T668 308Q668 233 641 173T569 70T467 5T348 -18ZM348 24Q400 24
449 43T536 99T597 188T620 308Q620 374 597 427T537 517T450 574T348 594Q295 594 247 574T160 517T100 427T77 308Q77 241 99 189T160 100T246 44T348 24ZM348 121Q268 121 222 171T176 309Q176 352 190 387T229 447T284 485T348 498Q378 498 403 487T443 455L453
487H488V368H443Q423 446 358 446Q317 446 292 413T266 310Q266 241 290 208T362 175Q394 175 416 193T452 241L495 221Q475 174 438 148T348 121Z" />
<glyph unicode="&#xaa;" glyph-name="ordfeminine" horiz-adv-x="407" d="M132 227Q110 227 90 233T55 252T31 284T22 330Q22 359 33 381T65 418T113 440T173 448Q194 448 210 446T240 438V531Q240 587 177 587Q155 587 137 579Q125 573 125 566Q125 563 128 561T135
555T142 545T146 527Q146 509 132 499T98 488Q75 488 62 502T49 539Q49 563 62 581T97 611T145 629T196 635Q257 635 294 612T331 530V318Q331 301 338 295T357 289Q368 289 375 291T392 300L407 276Q404 270 397 262T380 247T354 234T318 229Q290 229 271 243T243
284Q224 262 197 245T132 227ZM176 287Q198 287 214 296T240 312V400Q227 404 216 405T185 407Q157 407 137 393T116 345Q116 317 132 302T176 287Z" />
<glyph unicode="&#xab;" glyph-name="guillemotleft" horiz-adv-x="405" d="M212 367L119 227L212 87L187 63L31 203V251L187 391L212 367ZM374 367L281 227L374 87L349 63L193 203V251L349 391L374 367Z" />
<glyph unicode="&#xae;" glyph-name="registered" horiz-adv-x="477" d="M238 209Q197 209 159 224T91 267T43 336T25 426Q25 475 43 515T91 584T159 628T238 644Q279 644 317 629T385 585T433 516T451 426Q451 376 433 336T386 268T318 224T238 209ZM238 241Q272
241 304 253T360 290T400 348T415 426Q415 469 400 503T361 561T304 598T238 611Q204 611 173 598T117 561T78 503T63 426Q63 382 77 348T116 290T172 254T238 241ZM138 354L159 356V503L138 504V540H243Q280 540 304 525T329 481Q329 459 314 446T278 427V425Q298
421 307 412T323 384Q328 364 331 355T343 346Q350 346 353 349L362 328Q355 323 345 319T321 314Q289 314 278 330T262 374Q259 399 255 406T233 414H218V356L239 354V319H138V354ZM218 506V443H239Q270 443 270 474Q270 494 260 500T236 506H218Z" />
<glyph unicode="&#xaf;" glyph-name="macron" horiz-adv-x="456" d="M109 606H347V546H109V606Z" />
<glyph unicode="&#xb0;" glyph-name="degree" horiz-adv-x="346" d="M173 406Q210 406 233 432T256 497Q256 535 233 562T173 590Q135 590 113 563T91 497Q91 459 113 433T173 406ZM173 360Q143 360 118 370T75 399T46 442T35 497Q35 526 45 551T74 595T118 625T173
636Q202 636 227 625T271 596T301 552T312 497Q312 467 301 442T272 399T228 371T173 360Z" />
<glyph unicode="&#xb4;" glyph-name="acute" horiz-adv-x="456" d="M212 642Q221 666 232 676T262 686Q279 686 295 673T311 636Q311 614 287 591L198 507H164L212 642Z" />
<glyph unicode="&#xb6;" glyph-name="paragraph" horiz-adv-x="509" d="M420 557V-172H354V563H276V-172H210V276H206Q117 276 66 323T15 453Q15 491 27 523T65 578T126 613T211 626H483V564L420 557Z" />
<glyph unicode="&#xb7;" glyph-name="periodcentered" horiz-adv-x="205" d="M103 191Q74 191 56 209T38 256Q38 285 56 303T103 321Q131 321 149 303T167 256Q167 228 149 210T103 191Z" />
<glyph unicode="&#xb8;" glyph-name="cedilla" horiz-adv-x="456" d="M205 -223Q174 -223 155 -219T118 -207L128 -168Q136 -171 149 -174T183 -178Q206 -178 219 -168T233 -141Q233 -119 215 -110T162 -107V0H211V-64Q253 -59 283 -79T314 -138Q314 -178 284
-200T205 -223Z" />
<glyph unicode="&#xba;" glyph-name="ordmasculine" horiz-adv-x="439" d="M220 281Q270 281 293 322T317 428Q317 460 312 487T294 535T264 566T220 577Q169 577 146 535T122 428Q122 364 145 323T220 281ZM220 222Q182 222 147 236T85 277T41 342T24 428Q24
476 40 514T84 579T147 620T220 635Q258 635 293 621T355 579T398 514T415 428Q415 380 399 342T355 277T293 236T220 222Z" />
<glyph unicode="&#xbb;" glyph-name="guillemotright" horiz-adv-x="405" d="M215 391L371 251V203L215 63L190 87L283 226L190 366L215 391ZM53 391L209 251V203L53 63L29 87L122 226L29 366L53 391Z" />
<glyph unicode="&#xbc;" glyph-name="onequarter" horiz-adv-x="650" d="M21 571L119 632H164V342L217 338V293H26V338L83 343V546L21 521V571ZM549 647L586 616L69 -45L33 -14L549 647ZM477 44L517 47V97H366V122L436 233Q447 250 450 259T454 273Q454 284 444
284Q432 284 425 272Q416 274 411 281T406 300Q406 317 420 329T457 342Q483 342 495 328T508 296Q508 278 500 260T474 216L425 138H517V234L592 248V138H640V97H592V47L632 44V0H477V44Z" />
<glyph unicode="&#xbd;" glyph-name="onehalf" horiz-adv-x="629" d="M543 647L580 616L63 -45L27 -14L543 647ZM21 571L119 632H164V342L217 338V293H26V338L83 343V546L21 521V571ZM371 48Q404 75 433 99T484 145T518 190T531 239Q531 269 518 284T481 299Q463
299 453 292T442 273Q442 268 445 264T451 257T458 248T461 235Q461 221 450 211T420 201Q398 201 387 215T375 253Q375 292 409 315T492 338Q525 338 549 330T588 308T610 276T617 239Q617 212 602 188T562 142T505 99T440 59H531Q554 59 563 63T579 86L584 101H619L608
0H374L371 48Z" />
<glyph unicode="&#xbe;" glyph-name="threequarters" horiz-adv-x="665" d="M134 285Q76 285 47 308T18 364Q18 387 31 399T61 412Q80 412 89 403T99 380Q99 364 91 358T82 346Q82 324 123 324Q189 324 189 389Q189 447 118 447H90V482H117Q146 482 162 498T179
546Q179 593 129 593Q115 593 107 589T99 577Q99 572 105 567T112 548Q112 535 103 526T76 517Q56 517 46 529T36 558Q36 577 46 591T71 614T106 627T144 632Q200 632 229 609T259 550Q259 521 239 500T186 471V468Q231 462 253 441T275 386Q275 341 236 313T134
285ZM562 644L599 613L82 -48L46 -17L562 644ZM492 41L532 44V94H381V119L451 230Q462 247 465 256T469 270Q469 281 459 281Q447 281 440 269Q431 271 426 278T421 297Q421 314 435 326T472 339Q498 339 510 325T523 293Q523 275 515 257T489 213L440 135H532V231L607
245V135H655V94H607V44L647 41V-3H492V41Z" />
<glyph unicode="&#xbf;" glyph-name="questiondown" horiz-adv-x="385" d="M225 478Q253 478 271 460T290 413Q290 385 272 367T225 349Q196 349 178 367T160 413Q160 442 178 460T225 478ZM259 268Q268 231 262 202T241 148T206 102T169 60T139 16T126 -35Q126
-73 148 -93T211 -114Q245 -114 262 -100T280 -62Q280 -52 274 -43T255 -32Q252 -27 249 -20T246 -1Q246 14 258 27T293 40Q322 40 342 20T363 -38Q363 -68 351 -93T316 -136T264 -165T198 -175Q162 -175 130 -165T75 -136T39 -88T25 -23Q25 16 39 45T75 96T121
137T165 175T196 216T204 268H259Z" />
<glyph unicode="&#xc0;" glyph-name="Agrave" horiz-adv-x="613" d="M10 60L70 76L264 635H347L550 64L603 60V0H357V60L430 65L381 205H184L141 78L226 60V0H10V60ZM202 261H362L281 492H280L202 261ZM329 678L250 732Q233 743 226 755T218 783Q218 806 233 819T266
833Q286 833 297 823T319 786L363 678H329Z" />
<glyph unicode="&#xc1;" glyph-name="Aacute" horiz-adv-x="613" d="M10 60L70 76L264 635H347L550 64L603 60V0H357V60L430 65L381 205H184L141 78L226 60V0H10V60ZM202 261H362L281 492H280L202 261ZM276 678L320 786Q331 812 342 822T373 833Q390 833 405 820T421
783Q421 767 414 755T389 732L310 678H276Z" />
<glyph unicode="&#xc2;" glyph-name="Acircumflex" horiz-adv-x="613" d="M10 60L70 76L264 635H347L550 64L603 60V0H357V60L430 65L381 205H184L141 78L226 60V0H10V60ZM202 261H362L281 492H280L202 261ZM182 678L274 809H352L444 678H406L312 737L220 678H182Z" />
<glyph unicode="&#xc3;" glyph-name="Atilde" horiz-adv-x="613" d="M10 60L70 76L264 635H347L550 64L603 60V0H357V60L430 65L381 205H184L141 78L226 60V0H10V60ZM202 261H362L281 492H280L202 261ZM377 700Q363 700 347 704T314 712T283 721T257 725Q228 725
215 686H172Q177 709 185 730T206 768T234 794T270 804Q284 804 300 800T333 791T363 782T389 778Q419 779 430 817H474Q464 769 440 735T377 700Z" />
<glyph unicode="&#xc4;" glyph-name="Adieresis" horiz-adv-x="613" d="M10 60L70 76L264 635H347L550 64L603 60V0H357V60L430 65L381 205H184L141 78L226 60V0H10V60ZM202 261H362L281 492H280L202 261ZM217 684Q192 684 176 700T159 741Q159 765 175 781T217
798Q241 798 258 782T275 741Q275 717 258 701T217 684ZM409 684Q385 684 368 700T351 741Q351 765 368 781T409 798Q434 798 450 782T467 741Q467 717 451 701T409 684Z" />
<glyph unicode="&#xc5;" glyph-name="Aring" horiz-adv-x="613" d="M10 60L70 76L264 635H347L550 64L603 60V0H357V60L430 65L381 205H184L141 78L226 60V0H10V60ZM202 261H362L281 492H280L202 261ZM313 713Q334 713 348 728T362 765Q362 786 348 801T313 817Q291
817 278 802T264 765Q264 743 277 728T313 713ZM313 679Q276 679 252 703T227 765Q227 801 251 826T313 851Q349 851 374 826T399 765Q399 728 374 704T313 679Z" />
<glyph unicode="&#xc6;" glyph-name="AE" horiz-adv-x="841" d="M12 60L76 78L321 558L240 564V626H772V440H727L704 530Q699 553 688 558T650 564H497V334H547Q585 334 588 363L599 434H642V186H600L588 256Q585 273 575 278T547 283H497V64H654Q677 64 690 65T712
70T724 83T731 107L756 205H804V0H322V60L386 67V283H251L148 77L231 60V0H12V60ZM276 334H386V548H384L276 334Z" />
<glyph unicode="&#xc7;" glyph-name="Ccedilla" horiz-adv-x="592" d="M294 -223Q263 -223 244 -219T207 -207L217 -168Q225 -171 238 -174T272 -178Q295 -178 308 -168T322 -141Q322 -119 304 -110T251 -107V-12Q224 -6 200 4Q147 27 109 69T49 171T28 306Q28
381 52 441T118 545T212 612T322 636Q373 636 415 617T488 562L504 622H548V422H495Q475 498 434 535T324 572Q286 572 254 556T199 507T162 425T148 310Q148 178 196 114T337 50Q401 50 442 84T510 175L561 152Q528 69 466 25T318 -19Q309 -19 300 -18V-64Q342
-59 372 -79T403 -138Q403 -178 373 -200T294 -223Z" />
<glyph unicode="&#xc8;" glyph-name="Egrave" horiz-adv-x="571" d="M434 530Q429 553 418 558T380 564H201V342H275Q312 342 317 370L327 441H370V194H328L316 263Q313 280 304 285T275 290H201V64H384Q407 64 420 65T442 70T454 83T461 107L485 205H534V0H26V60L90
67V559L26 564V626H502V440H457L434 530ZM303 678L224 732Q207 743 200 755T192 783Q192 806 207 819T240 833Q260 833 271 823T293 786L337 678H303Z" />
<glyph unicode="&#xc9;" glyph-name="Eacute" horiz-adv-x="571" d="M434 530Q429 553 418 558T380 564H201V342H275Q312 342 317 370L327 441H370V194H328L316 263Q313 280 304 285T275 290H201V64H384Q407 64 420 65T442 70T454 83T461 107L485 205H534V0H26V60L90
67V559L26 564V626H502V440H457L434 530ZM250 678L294 786Q305 812 316 822T347 833Q364 833 379 820T395 783Q395 767 388 755T363 732L284 678H250Z" />
<glyph unicode="&#xca;" glyph-name="Ecircumflex" horiz-adv-x="571" d="M434 530Q429 553 418 558T380 564H201V342H275Q312 342 317 370L327 441H370V194H328L316 263Q313 280 304 285T275 290H201V64H384Q407 64 420 65T442 70T454 83T461 107L485 205H534V0H26V60L90
67V559L26 564V626H502V440H457L434 530ZM156 678L248 809H326L418 678H380L286 737L194 678H156Z" />
<glyph unicode="&#xcb;" glyph-name="Edieresis" horiz-adv-x="571" d="M434 530Q429 553 418 558T380 564H201V342H275Q312 342 317 370L327 441H370V194H328L316 263Q313 280 304 285T275 290H201V64H384Q407 64 420 65T442 70T454 83T461 107L485 205H534V0H26V60L90
67V559L26 564V626H502V440H457L434 530ZM191 684Q166 684 150 700T133 741Q133 765 149 781T191 798Q215 798 232 782T249 741Q249 717 232 701T191 684ZM383 684Q359 684 342 700T325 741Q325 765 342 781T383 798Q408 798 424 782T441 741Q441 717 425 701T383
684Z" />
<glyph unicode="&#xcc;" glyph-name="Igrave" horiz-adv-x="309" d="M26 60L99 68V556L26 564V626H283V564L210 557V69L283 60V0H26V60ZM415 678L336 732Q319 743 312 755T304 783Q304 806 319 819T352 833Q372 833 383 823T405 786L449 678H415Z" />
<glyph unicode="&#xcd;" glyph-name="Iacute" horiz-adv-x="309" d="M26 60L99 68V556L26 564V626H283V564L210 557V69L283 60V0H26V60ZM362 678L406 786Q417 812 428 822T459 833Q476 833 491 820T507 783Q507 767 500 755T475 732L396 678H362Z" />
<glyph unicode="&#xce;" glyph-name="Icircumflex" horiz-adv-x="309" d="M26 60L99 68V556L26 564V626H283V564L210 557V69L283 60V0H26V60ZM270 678L362 809H440L532 678H494L400 737L308 678H270Z" />
<glyph unicode="&#xcf;" glyph-name="Idieresis" horiz-adv-x="309" d="M26 60L99 68V556L26 564V626H283V564L210 557V69L283 60V0H26V60ZM305 684Q280 684 264 700T247 741Q247 765 263 781T305 798Q329 798 346 782T363 741Q363 717 346 701T305 684ZM497 684Q473
684 456 700T439 741Q439 765 456 781T497 798Q522 798 538 782T555 741Q555 717 539 701T497 684Z" />
<glyph unicode="&#xd0;" glyph-name="Eth" horiz-adv-x="611" d="M17 348H90V559L26 564V626H283Q340 626 394 610T490 557T557 461T583 314Q583 230 558 171T492 73T397 18T288 0H26V60L90 65V290H17V348ZM201 562V348H341V290H201V64H279Q317 64 350 76T409
118T448 195T463 314Q463 385 450 432T411 509T352 550T277 562H201Z" />
<glyph unicode="&#xd1;" glyph-name="Ntilde" horiz-adv-x="627" d="M26 60L89 69V559L26 564V626H216L479 223V552L408 564V626H603V564L550 552V0H492L159 511V75L256 60V0H26V60ZM404 700Q390 700 374 704T341 712T310 721T284 725Q255 725 242 686H199Q204
709 212 730T233 768T261 794T297 804Q311 804 327 800T360 791T390 782T416 778Q446 779 457 817H501Q491 769 467 735T404 700Z" />
<glyph unicode="&#xd2;" glyph-name="Ograve" horiz-adv-x="641" d="M320 45Q405 45 449 110T493 308Q493 440 449 506T320 572Q236 572 192 506T148 308Q148 176 192 111T320 45ZM320 -18Q264 -18 211 4T118 69T53 172T28 308Q28 383 52 443T117 546T211 612T320
636Q376 636 429 613T523 547T588 444T613 308Q613 233 589 173T523 70T429 5T320 -18ZM347 678L268 732Q251 743 244 755T236 783Q236 806 251 819T284 833Q304 833 315 823T337 786L381 678H347Z" />
<glyph unicode="&#xd3;" glyph-name="Oacute" horiz-adv-x="641" d="M320 45Q405 45 449 110T493 308Q493 440 449 506T320 572Q236 572 192 506T148 308Q148 176 192 111T320 45ZM320 -18Q264 -18 211 4T118 69T53 172T28 308Q28 383 52 443T117 546T211 612T320
636Q376 636 429 613T523 547T588 444T613 308Q613 233 589 173T523 70T429 5T320 -18ZM295 678L339 786Q350 812 361 822T392 833Q409 833 424 820T440 783Q440 767 433 755T408 732L329 678H295Z" />
<glyph unicode="&#xd4;" glyph-name="Ocircumflex" horiz-adv-x="641" d="M320 45Q405 45 449 110T493 308Q493 440 449 506T320 572Q236 572 192 506T148 308Q148 176 192 111T320 45ZM320 -18Q264 -18 211 4T118 69T53 172T28 308Q28 383 52 443T117 546T211
612T320 636Q376 636 429 613T523 547T588 444T613 308Q613 233 589 173T523 70T429 5T320 -18ZM202 678L294 809H372L464 678H426L332 737L240 678H202Z" />
<glyph unicode="&#xd5;" glyph-name="Otilde" horiz-adv-x="641" d="M320 45Q405 45 449 110T493 308Q493 440 449 506T320 572Q236 572 192 506T148 308Q148 176 192 111T320 45ZM320 -18Q264 -18 211 4T118 69T53 172T28 308Q28 383 52 443T117 546T211 612T320
636Q376 636 429 613T523 547T588 444T613 308Q613 233 589 173T523 70T429 5T320 -18ZM396 700Q382 700 366 704T333 712T302 721T276 725Q247 725 234 686H191Q196 709 204 730T225 768T253 794T289 804Q303 804 319 800T352 791T382 782T408 778Q438 779 449
817H493Q483 769 459 735T396 700Z" />
<glyph unicode="&#xd6;" glyph-name="Odieresis" horiz-adv-x="641" d="M320 45Q405 45 449 110T493 308Q493 440 449 506T320 572Q236 572 192 506T148 308Q148 176 192 111T320 45ZM320 -18Q264 -18 211 4T118 69T53 172T28 308Q28 383 52 443T117 546T211 612T320
636Q376 636 429 613T523 547T588 444T613 308Q613 233 589 173T523 70T429 5T320 -18ZM237 684Q212 684 196 700T179 741Q179 765 195 781T237 798Q261 798 278 782T295 741Q295 717 278 701T237 684ZM429 684Q405 684 388 700T371 741Q371 765 388 781T429 798Q454
798 470 782T487 741Q487 717 471 701T429 684Z" />
<glyph unicode="&#xd7;" glyph-name="multiply" horiz-adv-x="412" d="M38 175L162 299L37 425L82 469L206 344L330 469L374 424L250 300L375 175L330 131L206 255L83 131L38 175Z" />
<glyph unicode="&#xd8;" glyph-name="Oslash" horiz-adv-x="641" d="M38 5L102 87Q68 129 48 184T28 308Q28 383 52 443T117 546T211 612T320 636Q365 636 407 621T487 578L546 653L590 618L529 540Q567 497 590 439T613 308Q613 233 589 173T523 70T429 5T320
-18Q271 -18 225 -1T141 48L81 -29L38 5ZM320 45Q405 45 449 110T494 308Q494 406 471 467L189 108Q211 75 243 60T320 45ZM147 308Q147 264 151 229T164 165L442 520Q400 572 320 572Q236 572 192 506T147 308Z" />
<glyph unicode="&#xd9;" glyph-name="Ugrave" horiz-adv-x="612" d="M314 -13Q253 -13 209 3T137 48T94 115T80 198V560L24 564V626H269V564L190 559V213Q190 139 220 98T327 56Q399 56 429 96T460 213V552L387 564V626H587V564L530 552V202Q530 157 518 118T481
50T414 4T314 -13ZM355 678L276 732Q259 743 252 755T244 783Q244 806 259 819T292 833Q312 833 323 823T345 786L389 678H355Z" />
<glyph unicode="&#xda;" glyph-name="Uacute" horiz-adv-x="612" d="M314 -13Q253 -13 209 3T137 48T94 115T80 198V560L24 564V626H269V564L190 559V213Q190 139 220 98T327 56Q399 56 429 96T460 213V552L387 564V626H587V564L530 552V202Q530 157 518 118T481
50T414 4T314 -13ZM302 678L346 786Q357 812 368 822T399 833Q416 833 431 820T447 783Q447 767 440 755T415 732L336 678H302Z" />
<glyph unicode="&#xdb;" glyph-name="Ucircumflex" horiz-adv-x="612" d="M314 -13Q253 -13 209 3T137 48T94 115T80 198V560L24 564V626H269V564L190 559V213Q190 139 220 98T327 56Q399 56 429 96T460 213V552L387 564V626H587V564L530 552V202Q530 157 518
118T481 50T414 4T314 -13ZM209 678L301 809H379L471 678H433L339 737L247 678H209Z" />
<glyph unicode="&#xdc;" glyph-name="Udieresis" horiz-adv-x="612" d="M314 -13Q253 -13 209 3T137 48T94 115T80 198V560L24 564V626H269V564L190 559V213Q190 139 220 98T327 56Q399 56 429 96T460 213V552L387 564V626H587V564L530 552V202Q530 157 518 118T481
50T414 4T314 -13ZM244 684Q219 684 203 700T186 741Q186 765 202 781T244 798Q268 798 285 782T302 741Q302 717 285 701T244 684ZM436 684Q412 684 395 700T378 741Q378 765 395 781T436 798Q461 798 477 782T494 741Q494 717 478 701T436 684Z" />
<glyph unicode="&#xdd;" glyph-name="Yacute" horiz-adv-x="558" d="M155 60L229 68V287L59 561L17 564V626H246V564L187 560L312 351L421 547L362 564V626H541V564L489 545L340 280V67L414 60V0H155V60ZM276 678L320 786Q331 812 342 822T373 833Q390 833 405
820T421 783Q421 767 414 755T389 732L310 678H276Z" />
<glyph unicode="&#xde;" glyph-name="Thorn" horiz-adv-x="515" d="M26 60L90 66V559L26 564V626H270V570L201 563V486H281Q388 486 444 441T501 323Q501 242 443 196T281 150Q258 150 237 152T201 156V63L277 54V0H26V60ZM201 428V208Q212 207 226 207T257 206Q327
206 355 230T384 316Q384 376 356 402T263 428H201Z" />
<glyph unicode="&#xdf;" glyph-name="germandbls" horiz-adv-x="524" d="M332 -17Q277 -17 248 5T219 57Q219 81 231 94T265 108Q278 108 285 106T299 98Q293 45 336 45Q350 45 361 52T379 78T391 125T395 197Q395 286 360 325T268 365H243V427H269Q309 427 335
448T362 516Q362 559 343 582T282 605Q233 605 206 571T179 464L180 67V0H16V60L81 63V464Q81 511 96 549T138 613T202 654T282 668Q325 668 357 657T412 626T445 580T457 523Q457 478 428 448T357 406V403Q425 381 463 325T502 187Q502 140 490 102T455 38T401
-3T332 -17Z" />
<glyph unicode="&#xe0;" glyph-name="agrave" horiz-adv-x="462" d="M150 -10Q125 -10 102 -3T61 18T33 54T22 107Q22 140 35 165T72 209T128 236T197 245Q221 245 239 242T273 233V344Q273 377 256 392T200 408Q189 408 177 406T156 399Q142 393 142 383Q142
380 145 377T153 369T160 357T164 337Q164 315 148 303T111 291Q87 291 70 307T53 349Q53 378 68 399T108 434T162 454T220 461Q288 461 330 434T372 341V91Q372 71 380 64T402 57Q416 57 424 59T444 70L462 45Q457 39 450 30T430 12T401 -2T361 -8Q329 -8 308
8T277 54Q255 29 225 10T150 -10ZM197 56Q223 56 242 66T273 85V192Q258 196 245 198T208 200Q173 200 149 183T124 124Q124 92 144 74T197 56ZM394 591Q381 603 376 614T371 636Q371 659 386 672T419 686Q437 686 449 677T470 642L518 507H483L394 591Z" />
<glyph unicode="&#xe1;" glyph-name="aacute" horiz-adv-x="462" d="M150 -10Q125 -10 102 -3T61 18T33 54T22 107Q22 140 35 165T72 209T128 236T197 245Q221 245 239 242T273 233V344Q273 377 256 392T200 408Q189 408 177 406T156 399Q142 393 142 383Q142
380 145 377T153 369T160 357T164 337Q164 315 148 303T111 291Q87 291 70 307T53 349Q53 378 68 399T108 434T162 454T220 461Q288 461 330 434T372 341V91Q372 71 380 64T402 57Q416 57 424 59T444 70L462 45Q457 39 450 30T430 12T401 -2T361 -8Q329 -8 308
8T277 54Q255 29 225 10T150 -10ZM197 56Q223 56 242 66T273 85V192Q258 196 245 198T208 200Q173 200 149 183T124 124Q124 92 144 74T197 56ZM231 642Q240 666 251 676T281 686Q298 686 314 673T330 636Q330 614 306 591L217 507H183L231 642Z" />
<glyph unicode="&#xe2;" glyph-name="acircumflex" horiz-adv-x="462" d="M150 -10Q125 -10 102 -3T61 18T33 54T22 107Q22 140 35 165T72 209T128 236T197 245Q221 245 239 242T273 233V344Q273 377 256 392T200 408Q189 408 177 406T156 399Q142 393 142 383Q142
380 145 377T153 369T160 357T164 337Q164 315 148 303T111 291Q87 291 70 307T53 349Q53 378 68 399T108 434T162 454T220 461Q288 461 330 434T372 341V91Q372 71 380 64T402 57Q416 57 424 59T444 70L462 45Q457 39 450 30T430 12T401 -2T361 -8Q329 -8 308
8T277 54Q255 29 225 10T150 -10ZM197 56Q223 56 242 66T273 85V192Q258 196 245 198T208 200Q173 200 149 183T124 124Q124 92 144 74T197 56ZM345 507L432 658H506L591 507H555L467 584L381 507H345Z" />
<glyph unicode="&#xe3;" glyph-name="atilde" horiz-adv-x="462" d="M150 -10Q125 -10 102 -3T61 18T33 54T22 107Q22 140 35 165T72 209T128 236T197 245Q221 245 239 242T273 233V344Q273 377 256 392T200 408Q189 408 177 406T156 399Q142 393 142 383Q142
380 145 377T153 369T160 357T164 337Q164 315 148 303T111 291Q87 291 70 307T53 349Q53 378 68 399T108 434T162 454T220 461Q288 461 330 434T372 341V91Q372 71 380 64T402 57Q416 57 424 59T444 70L462 45Q457 39 450 30T430 12T401 -2T361 -8Q329 -8 308
8T277 54Q255 29 225 10T150 -10ZM197 56Q223 56 242 66T273 85V192Q258 196 245 198T208 200Q173 200 149 183T124 124Q124 92 144 74T197 56ZM527 532Q512 532 498 536T469 545T441 554T417 558Q387 557 374 518H332Q337 540 345 561T365 599T393 625T429 635Q443
635 457 631T486 622T513 613T537 609Q568 610 579 649H622Q612 602 589 568T527 532Z" />
<glyph unicode="&#xe4;" glyph-name="adieresis" horiz-adv-x="462" d="M150 -10Q125 -10 102 -3T61 18T33 54T22 107Q22 140 35 165T72 209T128 236T197 245Q221 245 239 242T273 233V344Q273 377 256 392T200 408Q189 408 177 406T156 399Q142 393 142 383Q142
380 145 377T153 369T160 357T164 337Q164 315 148 303T111 291Q87 291 70 307T53 349Q53 378 68 399T108 434T162 454T220 461Q288 461 330 434T372 341V91Q372 71 380 64T402 57Q416 57 424 59T444 70L462 45Q457 39 450 30T430 12T401 -2T361 -8Q329 -8 308
8T277 54Q255 29 225 10T150 -10ZM197 56Q223 56 242 66T273 85V192Q258 196 245 198T208 200Q173 200 149 183T124 124Q124 92 144 74T197 56ZM388 529Q363 529 347 545T330 586Q330 610 346 626T388 643Q413 643 429 627T446 586Q446 562 430 546T388 529ZM560
529Q536 529 519 545T502 586Q502 610 519 626T560 643Q585 643 601 627T618 586Q618 562 602 546T560 529Z" />
<glyph unicode="&#xe5;" glyph-name="aring" horiz-adv-x="462" d="M150 -10Q125 -10 102 -3T61 18T33 54T22 107Q22 140 35 165T72 209T128 236T197 245Q221 245 239 242T273 233V344Q273 377 256 392T200 408Q189 408 177 406T156 399Q142 393 142 383Q142 380
145 377T153 369T160 357T164 337Q164 315 148 303T111 291Q87 291 70 307T53 349Q53 378 68 399T108 434T162 454T220 461Q288 461 330 434T372 341V91Q372 71 380 64T402 57Q416 57 424 59T444 70L462 45Q457 39 450 30T430 12T401 -2T361 -8Q329 -8 308 8T277
54Q255 29 225 10T150 -10ZM197 56Q223 56 242 66T273 85V192Q258 196 245 198T208 200Q173 200 149 183T124 124Q124 92 144 74T197 56ZM474 539Q495 539 509 554T523 591Q523 613 509 628T474 644Q452 644 439 629T425 591Q425 569 438 554T474 539ZM474 506Q437
506 413 530T388 591Q388 628 412 653T474 678Q510 678 535 653T560 591Q560 555 535 531T474 506Z" />
<glyph unicode="&#xe6;" glyph-name="ae" horiz-adv-x="695" d="M164 -10Q104 -10 63 23T22 121Q22 187 71 223T210 260H276V344Q276 377 258 392T201 408Q190 408 178 406T157 399Q143 393 143 383Q143 380 146 377T154 369T161 357T165 337Q165 315 149 303T112
291Q88 291 71 307T54 349Q54 378 69 399T108 434T160 454T215 461Q266 461 301 445T351 390Q377 423 413 441T494 460Q529 460 562 449T621 411T661 337T672 221L668 214H382Q384 137 416 94T507 51Q551 51 583 72T633 143L675 124Q630 -17 488 -17Q428 -17 384
6T314 72Q285 32 249 11T164 -10ZM198 56Q233 56 256 71T297 107Q277 153 276 212H218Q176 212 150 194T124 133Q124 101 144 79T198 56ZM487 402Q441 402 416 364T384 264H571Q572 304 567 331T551 373T524 395T487 402Z" />
<glyph unicode="&#xe7;" glyph-name="ccedilla" horiz-adv-x="432" d="M205 -223Q174 -223 155 -219T118 -207L128 -168Q136 -171 149 -174T183 -178Q206 -178 219 -168T233 -141Q233 -119 215 -110T162 -107V-6Q154 -4 147 -1Q108 15 81 44T39 115T24 208Q24
266 43 312T94 392T168 442T255 460Q286 460 313 452T359 430T390 397T401 355Q401 331 384 318T343 305Q303 305 299 341Q297 353 296 363T290 382T276 396T251 401Q194 401 162 354T130 224Q130 138 162 96T251 53Q300 53 328 81T370 149L412 134Q405 102 391
75T354 27T302 -5T234 -17Q222 -17 211 -16V-64Q253 -59 283 -79T314 -138Q314 -178 284 -200T205 -223Z" />
<glyph unicode="&#xe8;" glyph-name="egrave" horiz-adv-x="448" d="M241 -17Q190 -17 150 1T82 50T39 125T24 219Q24 272 42 316T90 392T160 442T243 460Q279 460 312 449T370 412T409 345T422 246L418 239H129V223Q129 142 165 97T260 51Q305 51 337 72T386
143L429 124Q384 -17 241 -17ZM238 402Q196 402 171 372T135 290H321Q320 349 300 375T238 402ZM419 591Q406 603 401 614T396 636Q396 659 411 672T444 686Q462 686 474 677T495 642L543 507H508L419 591Z" />
<glyph unicode="&#xe9;" glyph-name="eacute" horiz-adv-x="448" d="M241 -17Q190 -17 150 1T82 50T39 125T24 219Q24 272 42 316T90 392T160 442T243 460Q279 460 312 449T370 412T409 345T422 246L418 239H129V223Q129 142 165 97T260 51Q305 51 337 72T386
143L429 124Q384 -17 241 -17ZM238 402Q196 402 171 372T135 290H321Q320 349 300 375T238 402ZM256 642Q265 666 276 676T306 686Q323 686 339 673T355 636Q355 614 331 591L242 507H208L256 642Z" />
<glyph unicode="&#xea;" glyph-name="ecircumflex" horiz-adv-x="448" d="M241 -17Q190 -17 150 1T82 50T39 125T24 219Q24 272 42 316T90 392T160 442T243 460Q279 460 312 449T370 412T409 345T422 246L418 239H129V223Q129 142 165 97T260 51Q305 51 337 72T386
143L429 124Q384 -17 241 -17ZM238 402Q196 402 171 372T135 290H321Q320 349 300 375T238 402ZM369 507L456 658H530L615 507H579L491 584L405 507H369Z" />
<glyph unicode="&#xeb;" glyph-name="edieresis" horiz-adv-x="448" d="M241 -17Q190 -17 150 1T82 50T39 125T24 219Q24 272 42 316T90 392T160 442T243 460Q279 460 312 449T370 412T409 345T422 246L418 239H129V223Q129 142 165 97T260 51Q305 51 337 72T386
143L429 124Q384 -17 241 -17ZM238 402Q196 402 171 372T135 290H321Q320 349 300 375T238 402ZM156 529Q131 529 115 545T98 586Q98 610 114 626T156 643Q181 643 197 627T214 586Q214 562 198 546T156 529ZM328 529Q304 529 287 545T270 586Q270 610 287 626T328
643Q353 643 369 627T386 586Q386 562 370 546T328 529Z" />
<glyph unicode="&#xec;" glyph-name="igrave" horiz-adv-x="263" d="M16 60L85 64V364L13 355V417L175 454L183 450V64L248 60V0H16V60ZM37 591Q24 603 19 614T14 636Q14 659 29 672T62 686Q80 686 92 677T113 642L161 507H126L37 591Z" />
<glyph unicode="&#xed;" glyph-name="iacute" horiz-adv-x="263" d="M16 60L85 64V364L13 355V417L175 454L183 450V64L248 60V0H16V60ZM388 642Q397 666 408 676T438 686Q455 686 471 673T487 636Q487 614 463 591L374 507H340L388 642Z" />
<glyph unicode="&#xee;" glyph-name="icircumflex" horiz-adv-x="263" d="M16 60L85 64V364L13 355V417L175 454L183 450V64L248 60V0H16V60ZM-11 507L76 658H150L235 507H199L111 584L25 507H-11Z" />
<glyph unicode="&#xef;" glyph-name="idieresis" horiz-adv-x="263" d="M16 60L85 64V364L13 355V417L175 454L183 450V64L248 60V0H16V60ZM288 529Q263 529 247 545T230 586Q230 610 246 626T288 643Q313 643 329 627T346 586Q346 562 330 546T288 529ZM460 529Q436
529 419 545T402 586Q402 610 419 626T460 643Q485 643 501 627T518 586Q518 562 502 546T460 529Z" />
<glyph unicode="&#xf0;" glyph-name="eth" horiz-adv-x="495" d="M88 507L193 568Q175 583 155 598T111 630L140 670Q171 654 200 638T256 604L360 665L382 629L294 578Q333 549 364 516T419 442T454 355T467 252Q467 192 450 143T404 58T334 3T246 -17Q204 -17
164 -1T93 47T43 122T24 220Q24 274 42 318T88 393T153 442T228 460Q275 460 315 434Q299 462 278 487T227 539L110 471L88 507ZM361 240Q361 307 346 360Q328 378 305 388T247 399Q215 399 193 386T157 348T137 292T130 224Q130 187 136 155T157 98T193 60T248
46Q280 46 302 60T337 101T355 162T361 240Z" />
<glyph unicode="&#xf1;" glyph-name="ntilde" horiz-adv-x="523" d="M16 60L85 65V364L17 353V415L175 454L183 450V372Q197 389 213 403T246 430Q266 444 287 453T330 462Q389 462 420 431T451 332V63L508 60V0H299V60L352 63V320Q352 349 336 365T285 381Q259
381 234 370T183 340V64L242 60V0H16V60ZM322 532Q307 532 293 536T264 545T236 554T212 558Q182 557 169 518H127Q132 540 140 561T160 599T188 625T224 635Q238 635 252 631T281 622T308 613T332 609Q363 610 374 649H417Q407 602 384 568T322 532Z" />
<glyph unicode="&#xf2;" glyph-name="ograve" horiz-adv-x="495" d="M248 46Q279 46 301 59T337 96T358 152T365 221Q365 258 358 290T337 346T301 383T248 397Q217 397 195 384T158 346T137 290T130 221Q130 184 137 152T158 97T194 60T248 46ZM248 -17Q205 -17
165 -1T93 47T43 122T24 221Q24 276 43 320T93 395T164 443T248 460Q291 460 331 443T402 395T453 319T472 221Q472 166 453 122T403 47T331 0T248 -17ZM424 591Q411 603 406 614T401 636Q401 659 416 672T449 686Q467 686 479 677T500 642L548 507H513L424 591Z"
/>
<glyph unicode="&#xf3;" glyph-name="oacute" horiz-adv-x="495" d="M248 46Q279 46 301 59T337 96T358 152T365 221Q365 258 358 290T337 346T301 383T248 397Q217 397 195 384T158 346T137 290T130 221Q130 184 137 152T158 97T194 60T248 46ZM248 -17Q205 -17
165 -1T93 47T43 122T24 221Q24 276 43 320T93 395T164 443T248 460Q291 460 331 443T402 395T453 319T472 221Q472 166 453 122T403 47T331 0T248 -17ZM264 642Q273 666 284 676T314 686Q331 686 347 673T363 636Q363 614 339 591L250 507H216L264 642Z" />
<glyph unicode="&#xf4;" glyph-name="ocircumflex" horiz-adv-x="495" d="M248 46Q279 46 301 59T337 96T358 152T365 221Q365 258 358 290T337 346T301 383T248 397Q217 397 195 384T158 346T137 290T130 221Q130 184 137 152T158 97T194 60T248 46ZM248 -17Q205
-17 165 -1T93 47T43 122T24 221Q24 276 43 320T93 395T164 443T248 460Q291 460 331 443T402 395T453 319T472 221Q472 166 453 122T403 47T331 0T248 -17ZM377 507L464 658H538L623 507H587L499 584L413 507H377Z" />
<glyph unicode="&#xf5;" glyph-name="otilde" horiz-adv-x="495" d="M248 46Q279 46 301 59T337 96T358 152T365 221Q365 258 358 290T337 346T301 383T248 397Q217 397 195 384T158 346T137 290T130 221Q130 184 137 152T158 97T194 60T248 46ZM248 -17Q205 -17
165 -1T93 47T43 122T24 221Q24 276 43 320T93 395T164 443T248 460Q291 460 331 443T402 395T453 319T472 221Q472 166 453 122T403 47T331 0T248 -17ZM304 532Q289 532 275 536T246 545T218 554T194 558Q164 557 151 518H109Q114 540 122 561T142 599T170 625T206
635Q220 635 234 631T263 622T290 613T314 609Q345 610 356 649H399Q389 602 366 568T304 532Z" />
<glyph unicode="&#xf6;" glyph-name="odieresis" horiz-adv-x="495" d="M248 46Q279 46 301 59T337 96T358 152T365 221Q365 258 358 290T337 346T301 383T248 397Q217 397 195 384T158 346T137 290T130 221Q130 184 137 152T158 97T194 60T248 46ZM248 -17Q205
-17 165 -1T93 47T43 122T24 221Q24 276 43 320T93 395T164 443T248 460Q291 460 331 443T402 395T453 319T472 221Q472 166 453 122T403 47T331 0T248 -17ZM164 529Q139 529 123 545T106 586Q106 610 122 626T164 643Q189 643 205 627T222 586Q222 562 206 546T164
529ZM336 529Q312 529 295 545T278 586Q278 610 295 626T336 643Q361 643 377 627T394 586Q394 562 378 546T336 529Z" />
<glyph unicode="&#xf7;" glyph-name="divide" horiz-adv-x="433" d="M35 340H398V277H35V340ZM217 87Q188 87 170 105T152 152Q152 181 170 199T217 217Q246 217 263 199T281 152Q281 124 264 106T217 87ZM217 401Q188 401 170 419T152 466Q152 494 170 512T217
530Q246 530 263 512T281 466Q281 437 264 419T217 401Z" />
<glyph unicode="&#xf8;" glyph-name="oslash" horiz-adv-x="495" d="M27 -6L80 60Q54 90 39 130T24 221Q24 276 43 320T93 395T164 443T248 460Q281 460 313 450T373 419L422 479L460 446L411 386Q439 355 455 314T472 221Q472 166 453 122T403 47T331 0T248 -17Q175
-17 117 26L65 -38L27 -6ZM248 41Q279 41 301 54T338 92T360 149T367 221Q367 277 356 318L160 78Q190 41 248 41ZM128 221Q128 167 137 130L331 367Q301 402 248 402Q216 402 194 388T157 350T135 293T128 221Z" />
<glyph unicode="&#xf9;" glyph-name="ugrave" horiz-adv-x="513" d="M194 -15Q137 -15 105 15T72 109V381L14 384V444H170V125Q170 93 184 76T235 59Q259 59 284 69T334 97V380L279 384V444H433V73L500 75V17L346 -8L337 -4L339 67Q325 50 310 37T279 14Q260 0
239 -7T194 -15ZM424 591Q411 603 406 614T401 636Q401 659 416 672T449 686Q467 686 479 677T500 642L548 507H513L424 591Z" />
<glyph unicode="&#xfa;" glyph-name="uacute" horiz-adv-x="513" d="M194 -15Q137 -15 105 15T72 109V381L14 384V444H170V125Q170 93 184 76T235 59Q259 59 284 69T334 97V380L279 384V444H433V73L500 75V17L346 -8L337 -4L339 67Q325 50 310 37T279 14Q260 0
239 -7T194 -15ZM262 642Q271 666 282 676T312 686Q329 686 345 673T361 636Q361 614 337 591L248 507H214L262 642Z" />
<glyph unicode="&#xfb;" glyph-name="ucircumflex" horiz-adv-x="513" d="M194 -15Q137 -15 105 15T72 109V381L14 384V444H170V125Q170 93 184 76T235 59Q259 59 284 69T334 97V380L279 384V444H433V73L500 75V17L346 -8L337 -4L339 67Q325 50 310 37T279 14Q260
0 239 -7T194 -15ZM375 507L462 658H536L621 507H585L497 584L411 507H375Z" />
<glyph unicode="&#xfc;" glyph-name="udieresis" horiz-adv-x="513" d="M194 -15Q137 -15 105 15T72 109V381L14 384V444H170V125Q170 93 184 76T235 59Q259 59 284 69T334 97V380L279 384V444H433V73L500 75V17L346 -8L337 -4L339 67Q325 50 310 37T279 14Q260
0 239 -7T194 -15ZM162 529Q137 529 121 545T104 586Q104 610 120 626T162 643Q187 643 203 627T220 586Q220 562 204 546T162 529ZM334 529Q310 529 293 545T276 586Q276 610 293 626T334 643Q359 643 375 627T392 586Q392 562 376 546T334 529Z" />
<glyph unicode="&#xfd;" glyph-name="yacute" horiz-adv-x="478" d="M109 -220Q69 -220 50 -199T31 -154Q31 -128 46 -115T81 -102Q98 -102 109 -111Q109 -134 119 -141T138 -149Q154 -149 170 -125T210 -38L216 -20L49 383L9 386V446H218V386L162 382L264 113H266L363
374L312 386V446H469V386L425 373L267 -43Q249 -91 233 -124T198 -179T159 -210T109 -220ZM280 642Q289 666 300 676T330 686Q347 686 363 673T379 636Q379 614 355 591L266 507H232L280 642Z" />
<glyph unicode="&#xfe;" glyph-name="thorn" horiz-adv-x="521" d="M15 -153L79 -148V572L11 566V627L169 660L178 656V395Q204 423 239 442T322 461Q361 461 393 445T448 398T483 326T496 230Q496 170 479 125T433 49T368 3T296 -12Q255 -12 228 -3T178 23V-148L251
-153V-210H15V-153ZM275 393Q245 393 221 383T178 356V78Q195 66 217 58T267 50Q322 50 357 92T392 225Q392 301 362 347T275 393Z" />
<glyph unicode="&#xff;" glyph-name="ydieresis" horiz-adv-x="478" d="M109 -220Q69 -220 50 -199T31 -154Q31 -128 46 -115T81 -102Q98 -102 109 -111Q109 -134 119 -141T138 -149Q154 -149 170 -125T210 -38L216 -20L49 383L9 386V446H218V386L162 382L264
113H266L363 374L312 386V446H469V386L425 373L267 -43Q249 -91 233 -124T198 -179T159 -210T109 -220ZM174 529Q149 529 133 545T116 586Q116 610 132 626T174 643Q199 643 215 627T232 586Q232 562 216 546T174 529ZM346 529Q322 529 305 545T288 586Q288 610
305 626T346 643Q371 643 387 627T404 586Q404 562 388 546T346 529Z" />
<glyph unicode="&#x100;" glyph-name="Amacron" horiz-adv-x="613" d="M10 60L70 76L264 635H347L550 64L603 60V0H357V60L430 65L381 205H184L141 78L226 60V0H10V60ZM202 261H362L281 492H280L202 261ZM184 765H442V704H184V765Z" />
<glyph unicode="&#x101;" glyph-name="amacron" horiz-adv-x="462" d="M150 -10Q125 -10 102 -3T61 18T33 54T22 107Q22 140 35 165T72 209T128 236T197 245Q221 245 239 242T273 233V344Q273 377 256 392T200 408Q189 408 177 406T156 399Q142 393 142 383Q142
380 145 377T153 369T160 357T164 337Q164 315 148 303T111 291Q87 291 70 307T53 349Q53 378 68 399T108 434T162 454T220 461Q288 461 330 434T372 341V91Q372 71 380 64T402 57Q416 57 424 59T444 70L462 45Q457 39 450 30T430 12T401 -2T361 -8Q329 -8 308
8T277 54Q255 29 225 10T150 -10ZM197 56Q223 56 242 66T273 85V192Q258 196 245 198T208 200Q173 200 149 183T124 124Q124 92 144 74T197 56ZM355 606H593V546H355V606Z" />
<glyph unicode="&#x102;" glyph-name="Abreve" horiz-adv-x="613" d="M10 60L70 76L264 635H347L550 64L603 60V0H357V60L430 65L381 205H184L141 78L226 60V0H10V60ZM202 261H362L281 492H280L202 261ZM313 676Q283 676 260 687T222 718T198 761T188 809H231Q238
783 256 767T313 750Q351 750 369 766T395 809H438Q436 786 428 763T405 720T366 688T313 676Z" />
<glyph unicode="&#x103;" glyph-name="abreve" horiz-adv-x="462" d="M150 -10Q125 -10 102 -3T61 18T33 54T22 107Q22 140 35 165T72 209T128 236T197 245Q221 245 239 242T273 233V344Q273 377 256 392T200 408Q189 408 177 406T156 399Q142 393 142 383Q142
380 145 377T153 369T160 357T164 337Q164 315 148 303T111 291Q87 291 70 307T53 349Q53 378 68 399T108 434T162 454T220 461Q288 461 330 434T372 341V91Q372 71 380 64T402 57Q416 57 424 59T444 70L462 45Q457 39 450 30T430 12T401 -2T361 -8Q329 -8 308
8T277 54Q255 29 225 10T150 -10ZM197 56Q223 56 242 66T273 85V192Q258 196 245 198T208 200Q173 200 149 183T124 124Q124 92 144 74T197 56ZM474 514Q445 514 423 527T385 561T362 611T351 669H393Q400 631 418 611T474 590Q512 590 530 610T555 669H597Q595
639 587 611T563 562T526 527T474 514Z" />
<glyph unicode="&#x104;" glyph-name="Aogonek" horiz-adv-x="613" d="M10 60L70 76L264 635H347L550 64L603 60V0H470Q435 -38 420 -68T405 -123Q405 -141 414 -151T443 -162Q456 -162 467 -156T487 -140L510 -164Q505 -172 497 -182T476 -200T447 -214T410 -220Q368
-220 341 -198T313 -139Q313 -100 347 -61T442 30L381 205H184L141 78L226 60V0H10V60ZM202 261H362L281 492H280L202 261Z" />
<glyph unicode="&#x105;" glyph-name="aogonek" horiz-adv-x="462" d="M359 -8Q327 -7 307 9T277 55Q255 29 225 10T150 -10Q125 -10 102 -3T61 18T33 54T22 107Q22 140 35 165T72 209T128 236T197 245Q221 245 239 242T273 233V344Q273 377 256 392T200 408Q189
408 177 406T156 399Q142 393 142 383Q142 380 145 377T153 369T160 357T164 337Q164 315 148 303T111 291Q87 291 70 307T53 349Q53 378 68 399T108 434T162 454T220 461Q288 461 330 434T372 341V91Q372 71 380 64T402 57Q416 57 424 59T444 70L462 45Q411 -4
381 -45T350 -123Q350 -141 359 -151T388 -162Q401 -162 412 -156T431 -140L455 -164Q450 -172 442 -182T421 -200T392 -214T355 -220Q313 -220 286 -198T258 -139Q258 -123 266 -106T289 -72T321 -39T359 -8ZM197 56Q223 56 242 66T273 85V192Q258 196 245 198T208
200Q173 200 149 183T124 124Q124 92 144 74T197 56Z" />
<glyph unicode="&#x106;" glyph-name="Cacute" horiz-adv-x="592" d="M318 -19Q253 -19 200 4T109 69T49 171T28 306Q28 381 52 441T118 545T212 612T322 636Q373 636 415 617T488 562L504 622H548V422H495Q475 498 434 535T324 572Q286 572 254 556T199 507T162
425T148 310Q148 178 196 114T337 50Q401 50 442 84T510 175L561 152Q528 69 466 25T318 -19ZM296 678L340 786Q351 812 362 822T393 833Q410 833 425 820T441 783Q441 767 434 755T409 732L330 678H296Z" />
<glyph unicode="&#x107;" glyph-name="cacute" horiz-adv-x="432" d="M234 -17Q186 -17 147 -1T81 44T39 115T24 208Q24 266 43 312T94 392T168 442T255 460Q286 460 313 452T359 430T390 397T401 355Q401 331 384 318T343 305Q303 305 299 341Q297 353 296 363T290
382T276 396T251 401Q194 401 162 354T130 224Q130 138 162 96T251 53Q300 53 328 81T370 149L412 134Q405 102 391 75T354 27T302 -5T234 -17ZM252 642Q261 666 272 676T302 686Q319 686 335 673T351 636Q351 614 327 591L238 507H204L252 642Z" />
<glyph unicode="&#x108;" glyph-name="Ccircumflex" horiz-adv-x="592" d="M318 -19Q253 -19 200 4T109 69T49 171T28 306Q28 381 52 441T118 545T212 612T322 636Q373 636 415 617T488 562L504 622H548V422H495Q475 498 434 535T324 572Q286 572 254 556T199
507T162 425T148 310Q148 178 196 114T337 50Q401 50 442 84T510 175L561 152Q528 69 466 25T318 -19ZM203 678L295 809H373L465 678H427L333 737L241 678H203Z" />
<glyph unicode="&#x109;" glyph-name="ccircumflex" horiz-adv-x="432" d="M234 -17Q186 -17 147 -1T81 44T39 115T24 208Q24 266 43 312T94 392T168 442T255 460Q286 460 313 452T359 430T390 397T401 355Q401 331 384 318T343 305Q303 305 299 341Q297 353 296
363T290 382T276 396T251 401Q194 401 162 354T130 224Q130 138 162 96T251 53Q300 53 328 81T370 149L412 134Q405 102 391 75T354 27T302 -5T234 -17ZM367 507L454 658H528L613 507H577L489 584L403 507H367Z" />
<glyph unicode="&#x10a;" glyph-name="Cdotaccent" horiz-adv-x="592" d="M318 -19Q253 -19 200 4T109 69T49 171T28 306Q28 381 52 441T118 545T212 612T322 636Q373 636 415 617T488 562L504 622H548V422H495Q475 498 434 535T324 572Q286 572 254 556T199 507T162
425T148 310Q148 178 196 114T337 50Q401 50 442 84T510 175L561 152Q528 69 466 25T318 -19ZM331 684Q306 684 289 701T271 743Q271 768 288 785T331 802Q357 802 374 785T392 743Q392 718 375 701T331 684Z" />
<glyph unicode="&#x10b;" glyph-name="cdotaccent" horiz-adv-x="432" d="M234 -17Q186 -17 147 -1T81 44T39 115T24 208Q24 266 43 312T94 392T168 442T255 460Q286 460 313 452T359 430T390 397T401 355Q401 331 384 318T343 305Q303 305 299 341Q297 353 296
363T290 382T276 396T251 401Q194 401 162 354T130 224Q130 138 162 96T251 53Q300 53 328 81T370 149L412 134Q405 102 391 75T354 27T302 -5T234 -17ZM237 529Q212 529 195 546T177 588Q177 613 194 630T237 647Q263 647 280 630T298 588Q298 563 281 546T237
529Z" />
<glyph unicode="&#x10c;" glyph-name="Ccaron" horiz-adv-x="592" d="M318 -19Q253 -19 200 4T109 69T49 171T28 306Q28 381 52 441T118 545T212 612T322 636Q373 636 415 617T488 562L504 622H548V422H495Q475 498 434 535T324 572Q286 572 254 556T199 507T162
425T148 310Q148 178 196 114T337 50Q401 50 442 84T510 175L561 152Q528 69 466 25T318 -19ZM241 809L334 750L427 809H465L373 678H295L203 809H241Z" />
<glyph unicode="&#x10d;" glyph-name="ccaron" horiz-adv-x="432" d="M234 -17Q186 -17 147 -1T81 44T39 115T24 208Q24 266 43 312T94 392T168 442T255 460Q286 460 313 452T359 430T390 397T401 355Q401 331 384 318T343 305Q303 305 299 341Q297 353 296 363T290
382T276 396T251 401Q194 401 162 354T130 224Q130 138 162 96T251 53Q300 53 328 81T370 149L412 134Q405 102 391 75T354 27T302 -5T234 -17ZM151 666L238 588L325 666H361L275 515H201L115 666H151Z" />
<glyph unicode="&#x10e;" glyph-name="Dcaron" horiz-adv-x="611" d="M26 60L90 65V559L26 564V626H283Q340 626 394 610T490 557T557 461T583 314Q583 230 558 171T492 73T397 18T288 0H26V60ZM201 562V64H279Q317 64 350 76T409 118T448 195T463 314Q463 385
450 432T411 509T352 550T277 562H201ZM209 809L302 750L395 809H433L341 678H263L171 809H209Z" />
<glyph unicode="&#x10f;" glyph-name="dcaron" horiz-adv-x="524" d="M218 -17Q174 -17 139 0T78 49T40 124T26 219Q26 278 44 323T93 398T161 444T237 460Q271 460 296 452T344 429V572L264 566V629L433 660L443 656V77L511 78V19L355 -7L346 -3L348 46Q324 19
294 1T218 -17ZM262 53Q291 53 309 61T344 86V373Q326 386 306 392T261 399Q206 399 169 355T131 219Q131 181 141 150T168 98T210 65T262 53ZM478 474Q491 495 498 515T506 555Q506 575 499 589T481 617Q484 638 496 648T526 659Q549 659 563 641T577 593Q577
551 555 516T503 454L478 474V474Z" />
<glyph unicode="&#x110;" glyph-name="Dcroat" horiz-adv-x="611" d="M17 348H90V559L26 564V626H283Q340 626 394 610T490 557T557 461T583 314Q583 230 558 171T492 73T397 18T288 0H26V60L90 65V290H17V348ZM201 562V348H341V290H201V64H279Q317 64 350 76T409
118T448 195T463 314Q463 385 450 432T411 509T352 550T277 562H201Z" />
<glyph unicode="&#x111;" glyph-name="dcroat" horiz-adv-x="524" d="M177 558H344V644L433 660L443 656V558H514V513H443V77L511 78V19L355 -7L346 -3L348 46Q324 19 294 1T218 -17Q174 -17 139 0T78 49T40 124T26 219Q26 278 44 323T93 398T161 444T237 460Q271
460 296 452T344 429V513H177V558ZM262 53Q291 53 309 61T344 86V373Q326 386 306 392T261 399Q206 399 169 355T131 219Q131 181 141 150T168 98T210 65T262 53Z" />
<glyph unicode="&#x112;" glyph-name="Emacron" horiz-adv-x="571" d="M434 530Q429 553 418 558T380 564H201V342H275Q312 342 317 370L327 441H370V194H328L316 263Q313 280 304 285T275 290H201V64H384Q407 64 420 65T442 70T454 83T461 107L485 205H534V0H26V60L90
67V559L26 564V626H502V440H457L434 530ZM158 765H416V704H158V765Z" />
<glyph unicode="&#x113;" glyph-name="emacron" horiz-adv-x="448" d="M241 -17Q190 -17 150 1T82 50T39 125T24 219Q24 272 42 316T90 392T160 442T243 460Q279 460 312 449T370 412T409 345T422 246L418 239H129V223Q129 142 165 97T260 51Q305 51 337 72T386
143L429 124Q384 -17 241 -17ZM238 402Q196 402 171 372T135 290H321Q320 349 300 375T238 402ZM124 606H362V546H124V606Z" />
<glyph unicode="&#x114;" glyph-name="Ebreve" horiz-adv-x="571" d="M434 530Q429 553 418 558T380 564H201V342H275Q312 342 317 370L327 441H370V194H328L316 263Q313 280 304 285T275 290H201V64H384Q407 64 420 65T442 70T454 83T461 107L485 205H534V0H26V60L90
67V559L26 564V626H502V440H457L434 530ZM287 676Q257 676 234 687T196 718T172 761T162 809H205Q212 783 230 767T287 750Q325 750 343 766T369 809H412Q410 786 402 763T379 720T340 688T287 676Z" />
<glyph unicode="&#x115;" glyph-name="ebreve" horiz-adv-x="448" d="M241 -17Q190 -17 150 1T82 50T39 125T24 219Q24 272 42 316T90 392T160 442T243 460Q279 460 312 449T370 412T409 345T422 246L418 239H129V223Q129 142 165 97T260 51Q305 51 337 72T386
143L429 124Q384 -17 241 -17ZM238 402Q196 402 171 372T135 290H321Q320 349 300 375T238 402ZM243 514Q214 514 192 527T154 561T131 611T120 669H162Q169 631 187 611T243 590Q281 590 299 610T324 669H366Q364 639 356 611T332 562T295 527T243 514Z" />
<glyph unicode="&#x116;" glyph-name="Edotaccent" horiz-adv-x="571" d="M434 530Q429 553 418 558T380 564H201V342H275Q312 342 317 370L327 441H370V194H328L316 263Q313 280 304 285T275 290H201V64H384Q407 64 420 65T442 70T454 83T461 107L485 205H534V0H26V60L90
67V559L26 564V626H502V440H457L434 530ZM287 684Q262 684 245 701T227 743Q227 768 244 785T287 802Q313 802 330 785T348 743Q348 718 331 701T287 684Z" />
<glyph unicode="&#x117;" glyph-name="edotaccent" horiz-adv-x="448" d="M241 -17Q190 -17 150 1T82 50T39 125T24 219Q24 272 42 316T90 392T160 442T243 460Q279 460 312 449T370 412T409 345T422 246L418 239H129V223Q129 142 165 97T260 51Q305 51 337 72T386
143L429 124Q384 -17 241 -17ZM238 402Q196 402 171 372T135 290H321Q320 349 300 375T238 402ZM239 529Q214 529 197 546T179 588Q179 613 196 630T239 647Q265 647 282 630T300 588Q300 563 283 546T239 529Z" />
<glyph unicode="&#x118;" glyph-name="Eogonek" horiz-adv-x="571" d="M434 530Q429 553 418 558T380 564H201V342H275Q312 342 317 370L327 441H370V194H328L316 263Q313 280 304 285T275 290H201V64H384Q407 64 420 65T442 70T454 83T461 107L485 205H534V0H457Q422
-38 407 -68T391 -123Q391 -141 400 -151T429 -162Q442 -162 453 -156T472 -140L496 -164Q491 -172 483 -182T462 -200T433 -214T396 -220Q354 -220 327 -198T299 -139Q299 -121 308 -103T332 -66T366 -31T404 0H26V60L90 67V559L26 564V626H502V440H457L434 530Z"
/>
<glyph unicode="&#x119;" glyph-name="eogonek" horiz-adv-x="448" d="M429 124Q420 98 409 78T382 40Q364 20 345 0T311 -40T287 -81T277 -123Q277 -141 286 -151T315 -162Q329 -162 340 -156T359 -140L383 -164Q378 -172 369 -182T348 -200T320 -214T283 -220Q241
-220 214 -198T186 -139Q186 -123 194 -107T215 -74T245 -43T280 -14Q259 -17 241 -17Q190 -17 150 1T82 50T39 125T24 219Q24 272 42 316T90 392T160 442T243 460Q279 460 312 449T370 412T409 345T422 246L418 239H129V223Q129 142 165 97T260 51Q305 51 337
72T386 143L429 124ZM238 402Q196 402 171 372T135 290H321Q320 349 300 375T238 402Z" />
<glyph unicode="&#x11a;" glyph-name="Ecaron" horiz-adv-x="571" d="M434 530Q429 553 418 558T380 564H201V342H275Q312 342 317 370L327 441H370V194H328L316 263Q313 280 304 285T275 290H201V64H384Q407 64 420 65T442 70T454 83T461 107L485 205H534V0H26V60L90
67V559L26 564V626H502V440H457L434 530ZM194 809L287 750L380 809H418L326 678H248L156 809H194Z" />
<glyph unicode="&#x11b;" glyph-name="ecaron" horiz-adv-x="448" d="M241 -17Q190 -17 150 1T82 50T39 125T24 219Q24 272 42 316T90 392T160 442T243 460Q279 460 312 449T370 412T409 345T422 246L418 239H129V223Q129 142 165 97T260 51Q305 51 337 72T386
143L429 124Q384 -17 241 -17ZM238 402Q196 402 171 372T135 290H321Q320 349 300 375T238 402ZM156 666L243 588L330 666H366L280 515H206L120 666H156Z" />
<glyph unicode="&#x11c;" glyph-name="Gcircumflex" horiz-adv-x="638" d="M328 -18Q260 -18 205 5T110 70T50 172T28 305Q28 380 53 441T119 545T214 612T325 636Q376 636 419 619T491 568L505 620H550V435H496Q477 506 439 538T334 570Q295 570 261 554T202
506T163 425T148 310Q148 177 193 111T337 45Q379 45 408 61T452 100Q463 116 464 136T466 180V207L394 213V272H629V213L572 208V100Q556 80 534 60T481 22T413 -7T328 -18ZM209 678L301 809H379L471 678H433L339 737L247 678H209Z" />
<glyph unicode="&#x11d;" glyph-name="gcircumflex" horiz-adv-x="504" d="M228 138Q178 138 139 156Q124 150 115 139T106 110Q106 87 125 78T183 68Q226 68 257 70T306 72Q342 72 372 67T424 49T458 11T470 -50Q470 -92 451 -124T398 -179T318 -213T217 -225Q114
-225 56 -194T-2 -114Q-2 -82 25 -57T97 -21Q64 -9 47 15T30 69Q30 102 50 129T109 173Q79 194 62 225T44 298Q44 334 59 364T99 415T157 448T228 460Q279 460 320 439T382 367H384Q389 415 412 437T461 459Q483 459 497 446T512 409Q512 386 500 376T479 362Q466
380 448 380Q434 380 423 365T411 320Q411 315 411 308T412 291Q412 258 398 230T358 181T299 150T228 138ZM162 -31Q154 -31 148 -31T135 -29Q110 -40 98 -57T86 -97Q86 -115 96 -128T124 -149T166 -160T219 -164Q254 -164 284 -159T338 -143T374 -117T387 -80Q387
-54 369 -40T299 -26Q258 -26 223 -28T162 -31ZM229 190Q274 190 294 217T314 298Q314 350 294 377T229 404Q184 404 164 377T144 298Q144 245 164 218T229 190ZM365 507L452 658H526L611 507H575L487 584L401 507H365Z" />
<glyph unicode="&#x11e;" glyph-name="Gbreve" horiz-adv-x="638" d="M328 -18Q260 -18 205 5T110 70T50 172T28 305Q28 380 53 441T119 545T214 612T325 636Q376 636 419 619T491 568L505 620H550V435H496Q477 506 439 538T334 570Q295 570 261 554T202 506T163
425T148 310Q148 177 193 111T337 45Q379 45 408 61T452 100Q463 116 464 136T466 180V207L394 213V272H629V213L572 208V100Q556 80 534 60T481 22T413 -7T328 -18ZM340 676Q310 676 287 687T249 718T225 761T215 809H258Q265 783 283 767T340 750Q378 750 396
766T422 809H465Q463 786 455 763T432 720T393 688T340 676Z" />
<glyph unicode="&#x11f;" glyph-name="gbreve" horiz-adv-x="504" d="M228 138Q178 138 139 156Q124 150 115 139T106 110Q106 87 125 78T183 68Q226 68 257 70T306 72Q342 72 372 67T424 49T458 11T470 -50Q470 -92 451 -124T398 -179T318 -213T217 -225Q114
-225 56 -194T-2 -114Q-2 -82 25 -57T97 -21Q64 -9 47 15T30 69Q30 102 50 129T109 173Q79 194 62 225T44 298Q44 334 59 364T99 415T157 448T228 460Q279 460 320 439T382 367H384Q389 415 412 437T461 459Q483 459 497 446T512 409Q512 386 500 376T479 362Q466
380 448 380Q434 380 423 365T411 320Q411 315 411 308T412 291Q412 258 398 230T358 181T299 150T228 138ZM162 -31Q154 -31 148 -31T135 -29Q110 -40 98 -57T86 -97Q86 -115 96 -128T124 -149T166 -160T219 -164Q254 -164 284 -159T338 -143T374 -117T387 -80Q387
-54 369 -40T299 -26Q258 -26 223 -28T162 -31ZM229 190Q274 190 294 217T314 298Q314 350 294 377T229 404Q184 404 164 377T144 298Q144 245 164 218T229 190ZM238 514Q209 514 187 527T149 561T126 611T115 669H157Q164 631 182 611T238 590Q276 590 294 610T319
669H361Q359 639 351 611T327 562T290 527T238 514Z" />
<glyph unicode="&#x120;" glyph-name="Gdotaccent" horiz-adv-x="638" d="M328 -18Q260 -18 205 5T110 70T50 172T28 305Q28 380 53 441T119 545T214 612T325 636Q376 636 419 619T491 568L505 620H550V435H496Q477 506 439 538T334 570Q295 570 261 554T202 506T163
425T148 310Q148 177 193 111T337 45Q379 45 408 61T452 100Q463 116 464 136T466 180V207L394 213V272H629V213L572 208V100Q556 80 534 60T481 22T413 -7T328 -18ZM340 684Q315 684 298 701T280 743Q280 768 297 785T340 802Q366 802 383 785T401 743Q401 718
384 701T340 684Z" />
<glyph unicode="&#x121;" glyph-name="gdotaccent" horiz-adv-x="504" d="M228 138Q178 138 139 156Q124 150 115 139T106 110Q106 87 125 78T183 68Q226 68 257 70T306 72Q342 72 372 67T424 49T458 11T470 -50Q470 -92 451 -124T398 -179T318 -213T217 -225Q114
-225 56 -194T-2 -114Q-2 -82 25 -57T97 -21Q64 -9 47 15T30 69Q30 102 50 129T109 173Q79 194 62 225T44 298Q44 334 59 364T99 415T157 448T228 460Q279 460 320 439T382 367H384Q389 415 412 437T461 459Q483 459 497 446T512 409Q512 386 500 376T479 362Q466
380 448 380Q434 380 423 365T411 320Q411 315 411 308T412 291Q412 258 398 230T358 181T299 150T228 138ZM162 -31Q154 -31 148 -31T135 -29Q110 -40 98 -57T86 -97Q86 -115 96 -128T124 -149T166 -160T219 -164Q254 -164 284 -159T338 -143T374 -117T387 -80Q387
-54 369 -40T299 -26Q258 -26 223 -28T162 -31ZM229 190Q274 190 294 217T314 298Q314 350 294 377T229 404Q184 404 164 377T144 298Q144 245 164 218T229 190ZM237 529Q212 529 195 546T177 588Q177 613 194 630T237 647Q263 647 280 630T298 588Q298 563 281
546T237 529Z" />
<glyph unicode="&#x122;" glyph-name="Gcommaaccent" horiz-adv-x="638" d="M275 -221Q313 -209 332 -191T351 -152Q351 -134 340 -134Q335 -134 329 -140T309 -146Q289 -146 278 -133T267 -100Q267 -79 285 -65T330 -51Q367 -51 389 -72T412 -131Q412 -158 402
-178T374 -214T334 -239T286 -256L275 -221ZM328 -18Q260 -18 205 5T110 70T50 172T28 305Q28 380 53 441T119 545T214 612T325 636Q376 636 419 619T491 568L505 620H550V435H496Q477 506 439 538T334 570Q295 570 261 554T202 506T163 425T148 310Q148 177 193
111T337 45Q379 45 408 61T452 100Q463 116 464 136T466 180V207L394 213V272H629V213L572 208V100Q556 80 534 60T481 22T413 -7T328 -18Z" />
<glyph unicode="&#x123;" glyph-name="gcommaaccent" horiz-adv-x="508" d="M228 138Q178 138 139 156Q124 150 115 139T106 110Q106 87 125 78T183 68Q226 68 257 70T306 72Q342 72 372 67T424 49T458 11T470 -50Q470 -92 451 -124T398 -179T318 -213T217 -225Q114
-225 56 -194T-2 -114Q-2 -82 25 -57T97 -21Q64 -9 47 15T30 69Q30 102 50 129T109 173Q79 194 62 225T44 298Q44 334 59 364T99 415T157 448T228 460Q279 460 320 439T382 367H384Q389 415 412 437T461 459Q483 459 497 446T512 409Q512 386 500 376T479 362Q466
380 448 380Q434 380 423 365T411 320Q411 315 411 308T412 291Q412 258 398 230T358 181T299 150T228 138ZM162 -31Q154 -31 148 -31T135 -29Q110 -40 98 -57T86 -97Q86 -115 96 -128T124 -149T166 -160T219 -164Q254 -164 284 -159T338 -143T374 -117T387 -80Q387
-54 369 -40T299 -26Q258 -26 223 -28T162 -31ZM229 190Q274 190 294 217T314 298Q314 350 294 377T229 404Q184 404 164 377T144 298Q144 245 164 218T229 190ZM301 671Q263 659 244 641T225 602Q225 584 235 584Q241 584 246 589T266 595Q287 595 297 583T308
550Q308 529 290 515T245 501Q208 501 186 522T163 581Q163 608 173 628T201 664T241 689T289 706L301 671Z" />
<glyph unicode="&#x124;" glyph-name="Hcircumflex" horiz-adv-x="643" d="M374 60L445 66V296H201V66L270 60V0H26V60L90 66V560L26 564V626H270V564L201 559V354H445V557L374 564V626H617V564L556 559V64L617 60V0H374V60ZM203 678L295 809H373L465 678H427L333
737L241 678H203Z" />
<glyph unicode="&#x125;" glyph-name="hcircumflex" horiz-adv-x="519" d="M16 60L82 64V572L14 566V627L171 660L180 656V372Q194 388 209 402T241 429Q261 443 283 452T327 462Q385 462 416 431T448 332V63L504 60V0H291V60L349 63V320Q349 349 333 365T282
381Q255 381 230 370T180 340V64L235 60V0H16V60ZM132 759L224 890H302L394 759H356L262 818L170 759H132Z" />
<glyph unicode="&#x126;" glyph-name="Hbar" horiz-adv-x="643" d="M9 480H90V560L26 564V626H270V564L201 559V480H445V557L374 564V626H617V564L556 559V480H634V434H556V64L617 60V0H374V60L445 66V289H201V66L270 60V0H26V60L90 66V434H9V480ZM201 347H445V434H201V347Z"
/>
<glyph unicode="&#x127;" glyph-name="hbar" horiz-adv-x="519" d="M8 558H82V643L171 660L180 656V558H340V513H180V372Q194 388 209 402T241 429Q261 443 283 452T327 462Q385 462 416 431T448 332V63L504 60V0H291V60L349 63V320Q349 349 333 365T282 381Q255
381 230 370T180 340V64L235 60V0H16V60L82 64V513H8V558Z" />
<glyph unicode="&#x128;" glyph-name="Itilde" horiz-adv-x="309" d="M26 60L99 68V556L26 564V626H283V564L210 557V69L283 60V0H26V60ZM464 700Q450 700 434 704T401 712T370 721T344 725Q315 725 302 686H259Q264 709 272 730T293 768T321 794T357 804Q371
804 387 800T420 791T450 782T476 778Q506 779 517 817H561Q551 769 527 735T464 700Z" />
<glyph unicode="&#x129;" glyph-name="itilde" horiz-adv-x="263" d="M16 60L85 64V364L13 355V417L175 454L183 450V64L248 60V0H16V60ZM429 532Q414 532 400 536T371 545T343 554T319 558Q289 557 276 518H234Q239 540 247 561T267 599T295 625T331 635Q345
635 359 631T388 622T415 613T439 609Q470 610 481 649H524Q514 602 491 568T429 532Z" />
<glyph unicode="&#x12a;" glyph-name="Imacron" horiz-adv-x="309" d="M26 60L99 68V556L26 564V626H283V564L210 557V69L283 60V0H26V60ZM272 765H530V704H272V765Z" />
<glyph unicode="&#x12b;" glyph-name="imacron" horiz-adv-x="263" d="M16 60L85 64V364L13 355V417L175 454L183 450V64L248 60V0H16V60ZM15 613H231V552H15V613Z" />
<glyph unicode="&#x12c;" glyph-name="Ibreve" horiz-adv-x="309" d="M26 60L99 68V556L26 564V626H283V564L210 557V69L283 60V0H26V60ZM401 676Q371 676 348 687T310 718T286 761T276 809H319Q326 783 344 767T401 750Q439 750 457 766T483 809H526Q524 786
516 763T493 720T454 688T401 676Z" />
<glyph unicode="&#x12d;" glyph-name="ibreve" horiz-adv-x="263" d="M16 60L85 64V364L13 355V417L175 454L183 450V64L248 60V0H16V60ZM375 514Q346 514 324 527T286 561T263 611T252 669H294Q301 631 319 611T375 590Q413 590 431 610T456 669H498Q496 639
488 611T464 562T427 527T375 514Z" />
<glyph unicode="&#x12e;" glyph-name="Iogonek" horiz-adv-x="309" d="M26 60L99 68V556L26 564V626H283V564L210 557V69L283 60V0H200Q171 -36 158 -67T144 -123Q144 -141 153 -151T183 -162Q196 -162 207 -156T226 -140L249 -164Q244 -172 236 -182T215 -200T187
-214T150 -220Q108 -220 80 -198T52 -139Q52 -104 81 -69T150 0H26V60Z" />
<glyph unicode="&#x12f;" glyph-name="iogonek" horiz-adv-x="263" d="M16 60L85 64V364L13 355V417L175 454L183 450V64L248 60V0H175Q149 -34 136 -63Q121 -97 121 -123Q121 -141 130 -151T159 -162Q172 -162 183 -156T203 -140L226 -164Q221 -172 213 -182T192
-200T163 -214T127 -220Q84 -220 57 -198T29 -139Q29 -120 39 -101T64 -62T99 -24Q112 -12 126 0H16V60ZM133 529Q107 529 90 546T73 588Q73 613 90 630T133 647Q159 647 176 630T194 588Q194 563 177 546T133 529Z" />
<glyph unicode="&#x130;" glyph-name="Idotaccent" horiz-adv-x="309" d="M26 60L99 68V556L26 564V626H283V564L210 557V69L283 60V0H26V60ZM401 684Q376 684 359 701T341 743Q341 768 358 785T401 802Q427 802 444 785T462 743Q462 718 445 701T401 684Z" />
<glyph unicode="&#x131;" glyph-name="dotlessi" horiz-adv-x="263" d="M16 60L85 64V364L13 355V417L175 454L183 450V64L248 60V0H16V60Z" />
<glyph unicode="&#x132;" glyph-name="IJ" horiz-adv-x="700" d="M435 -16Q403 -16 380 -8T342 13T320 43T313 81Q313 113 331 132T377 151Q399 151 415 139T432 104Q432 92 428 84T420 71T411 63T407 55Q407 40 431 40Q470 40 485 70T500 148L499 557L427 564V626H676V564L610
557V205Q610 148 597 107T560 38T504 -3T435 -16ZM26 60L99 68V556L26 564V626H283V564L210 557V69L280 60V0H26V60Z" />
<glyph unicode="&#x133;" glyph-name="ij" horiz-adv-x="516" d="M254 -220Q226 -220 208 -204T189 -165Q189 -142 200 -128T232 -114Q249 -114 267 -124T301 -146Q321 -135 332 -108T343 -38V364L270 355V417L432 454L441 450V15Q441 -30 428 -72T389 -147T330
-200T254 -220ZM16 60L85 64V364L13 355V417L175 454L183 450V64L248 60V0H16V60ZM133 529Q107 529 90 546T73 588Q73 613 90 630T133 647Q159 647 176 630T194 588Q194 563 177 546T133 529ZM392 530Q367 530 350 547T332 589Q332 614 349 630T392 647Q418 647
435 631T453 589Q453 564 436 547T392 530Z" />
<glyph unicode="&#x134;" glyph-name="Jcircumflex" horiz-adv-x="406" d="M141 -59Q109 -59 86 -51T48 -30T26 1T19 38Q19 70 37 89T83 109Q106 109 122 97T138 61Q138 49 134 42T126 29T117 21T113 13Q113 -2 137 -2Q176 -2 191 27T206 105L205 557L133 564V626H382V564L316
557V163Q316 106 303 64T266 -5T210 -45T141 -59ZM131 678L223 809H301L393 678H355L261 737L169 678H131Z" />
<glyph unicode="&#x135;" glyph-name="jcircumflex" horiz-adv-x="262" d="M0 -220Q-29 -220 -47 -204T-65 -165Q-65 -142 -54 -128T-22 -114Q-5 -114 13 -124T46 -146Q66 -135 77 -108T88 -38V364L16 355V417L177 454L186 450V15Q186 -30 173 -72T135 -147T76
-200T0 -220ZM-17 507L70 658H144L229 507H193L105 584L19 507H-17Z" />
<glyph unicode="&#x136;" glyph-name="Kcommaaccent" horiz-adv-x="611" d="M254 -221Q292 -209 311 -191T330 -152Q330 -134 319 -134Q314 -134 308 -140T288 -146Q268 -146 257 -133T246 -100Q246 -79 264 -65T309 -51Q346 -51 368 -72T391 -131Q391 -158 381
-178T353 -214T313 -239T265 -256L254 -221ZM26 60L90 66V559L26 564V626H272V564L201 559V66L270 60V0H26V60ZM356 60L415 65L225 318V343L415 548L355 564V626H566V564L492 550L320 363L541 64L589 60V0H356V60Z" />
<glyph unicode="&#x137;" glyph-name="kcommaaccent" horiz-adv-x="500" d="M189 -221Q227 -209 246 -191T265 -152Q265 -134 254 -134Q249 -134 243 -140T223 -146Q203 -146 192 -133T181 -100Q181 -79 199 -65T244 -51Q281 -51 303 -72T326 -131Q326 -158 316
-178T288 -214T248 -239T200 -256L189 -221ZM16 60L82 66V570L16 559V621L171 660L180 656V64L230 60V0H16V60ZM292 60L332 63L185 233V247L323 377L262 386V446H467V386L393 378L274 265L449 63L492 60V0H292V60Z" />
<glyph unicode="&#x139;" glyph-name="Lacute" horiz-adv-x="536" d="M26 60L90 66V560L26 564V626H280V564L201 559V64H354Q374 64 387 66T410 78T425 104T437 152L458 225H504V0H26V60ZM354 678L398 786Q409 812 420 822T451 833Q468 833 483 820T499 783Q499
767 492 755T467 732L388 678H354Z" />
<glyph unicode="&#x13a;" glyph-name="lacute" horiz-adv-x="266" d="M16 60L87 65V572L11 563V625L176 660L185 656V64L251 60V0H16V60ZM338 759L382 867Q393 893 404 903T435 914Q452 914 467 901T483 864Q483 848 476 836T451 813L372 759H338Z" />
<glyph unicode="&#x13b;" glyph-name="Lcommaaccent" horiz-adv-x="536" d="M216 -221Q254 -209 273 -191T292 -152Q292 -134 281 -134Q276 -134 270 -140T250 -146Q230 -146 219 -133T208 -100Q208 -79 226 -65T271 -51Q308 -51 330 -72T353 -131Q353 -158 343
-178T315 -214T275 -239T227 -256L216 -221ZM26 60L90 66V560L26 564V626H280V564L201 559V64H354Q374 64 387 66T410 78T425 104T437 152L458 225H504V0H26V60Z" />
<glyph unicode="&#x13c;" glyph-name="lcommaaccent" horiz-adv-x="266" d="M313 -221Q351 -209 370 -191T389 -152Q389 -134 378 -134Q373 -134 367 -140T347 -146Q327 -146 316 -133T305 -100Q305 -79 323 -65T368 -51Q405 -51 427 -72T450 -131Q450 -158 440
-178T412 -214T372 -239T324 -256L313 -221ZM16 60L87 65V572L11 563V625L176 660L185 656V64L251 60V0H16V60Z" />
<glyph unicode="&#x13d;" glyph-name="Lcaron" horiz-adv-x="536" d="M26 60L90 66V560L26 564V626H280V564L201 559V64H354Q374 64 387 66T410 78T425 104T437 152L458 225H504V0H26V60ZM316 469Q329 490 336 510T344 550Q344 570 337 584T319 612Q322 633 334
643T364 654Q387 654 401 636T415 588Q415 546 393 511T341 449L316 469V469Z" />
<glyph unicode="&#x13e;" glyph-name="lcaron" horiz-adv-x="266" d="M16 60L87 65V572L11 563V625L176 660L185 656V64L251 60V0H16V60ZM222 474Q235 495 242 515T250 555Q250 575 243 589T225 617Q228 638 240 648T270 659Q293 659 307 641T321 593Q321 551
299 516T247 454L222 474V474Z" />
<glyph unicode="&#x13f;" glyph-name="Ldot" horiz-adv-x="536" d="M26 60L90 66V560L26 564V626H280V564L201 559V64H356Q376 64 389 67T411 78T426 102T439 143L458 197H504V0H26V60ZM451 276Q422 276 405 294T387 339Q387 367 404 384T451 402Q478 402 495
385T513 339Q513 312 496 294T451 276Z" />
<glyph unicode="&#x140;" glyph-name="ldot" horiz-adv-x="327" d="M16 60L87 65V572L11 563V625L176 660L185 656V64L251 60V0H16V60ZM301 258Q273 258 256 276T238 321Q238 349 255 366T301 384Q328 384 345 367T363 321Q363 294 346 276T301 258Z" />
<glyph unicode="&#x141;" glyph-name="Lslash" horiz-adv-x="536" d="M26 60L90 66V215L22 184V241L90 272V560L26 564V626H280V564L201 559V323L399 415V358L201 266V64H354Q374 64 387 66T410 78T425 104T437 152L458 225H504V0H26V60Z" />
<glyph unicode="&#x142;" glyph-name="lslash" horiz-adv-x="266" d="M16 60L87 65V276L16 231V292L87 337V572L11 563V625L176 660L185 656V399L257 445V385L185 339V64L251 60V0H16V60Z" />
<glyph unicode="&#x143;" glyph-name="Nacute" horiz-adv-x="627" d="M26 60L89 69V559L26 564V626H216L479 223V552L408 564V626H603V564L550 552V0H492L159 511V75L256 60V0H26V60ZM302 678L346 786Q357 812 368 822T399 833Q416 833 431 820T447 783Q447 767
440 755T415 732L336 678H302Z" />
<glyph unicode="&#x144;" glyph-name="nacute" horiz-adv-x="523" d="M16 60L85 65V364L17 353V415L175 454L183 450V372Q197 389 213 403T246 430Q266 444 287 453T330 462Q389 462 420 431T451 332V63L508 60V0H299V60L352 63V320Q352 349 336 365T285 381Q259
381 234 370T183 340V64L242 60V0H16V60ZM283 642Q292 666 303 676T333 686Q350 686 366 673T382 636Q382 614 358 591L269 507H235L283 642Z" />
<glyph unicode="&#x145;" glyph-name="Ncommaaccent" horiz-adv-x="627" d="M281 -221Q319 -209 338 -191T357 -152Q357 -134 346 -134Q341 -134 335 -140T315 -146Q295 -146 284 -133T273 -100Q273 -79 291 -65T336 -51Q373 -51 395 -72T418 -131Q418 -158 408
-178T380 -214T340 -239T292 -256L281 -221ZM26 60L89 69V559L26 564V626H216L479 223V552L408 564V626H603V564L550 552V0H492L159 511V75L256 60V0H26V60Z" />
<glyph unicode="&#x146;" glyph-name="ncommaaccent" horiz-adv-x="523" d="M204 -221Q242 -209 261 -191T280 -152Q280 -134 269 -134Q264 -134 258 -140T238 -146Q218 -146 207 -133T196 -100Q196 -79 214 -65T259 -51Q296 -51 318 -72T341 -131Q341 -158 331
-178T303 -214T263 -239T215 -256L204 -221ZM16 60L85 65V364L17 353V415L175 454L183 450V372Q197 389 213 403T246 430Q266 444 287 453T330 462Q389 462 420 431T451 332V63L508 60V0H299V60L352 63V320Q352 349 336 365T285 381Q259 381 234 370T183 340V64L242
60V0H16V60Z" />
<glyph unicode="&#x147;" glyph-name="Ncaron" horiz-adv-x="627" d="M26 60L89 69V559L26 564V626H216L479 223V552L408 564V626H603V564L550 552V0H492L159 511V75L256 60V0H26V60ZM247 809L340 750L433 809H471L379 678H301L209 809H247Z" />
<glyph unicode="&#x148;" glyph-name="ncaron" horiz-adv-x="523" d="M16 60L85 65V364L17 353V415L175 454L183 450V372Q197 389 213 403T246 430Q266 444 287 453T330 462Q389 462 420 431T451 332V63L508 60V0H299V60L352 63V320Q352 349 336 365T285 381Q259
381 234 370T183 340V64L242 60V0H16V60ZM181 666L268 588L355 666H391L305 515H231L145 666H181Z" />
<glyph unicode="&#x149;" glyph-name="napostrophe" horiz-adv-x="612" d="M105 60L174 65V364L106 353V415L264 454L272 450V372Q286 389 302 403T335 430Q355 444 376 453T419 462Q478 462 509 431T540 332V63L597 60V0H388V60L441 63V320Q441 349 425 365T374
381Q348 381 323 370T272 340V64L331 60V0H105V60ZM219 423Q262 439 286 464T311 519Q311 533 307 537T298 542Q291 542 285 535T261 527Q238 527 226 542T213 582Q213 607 234 625T285 643Q330 643 353 617T376 545Q376 511 365 486T334 441T288 408T234 387L219
423Z" />
<glyph unicode="&#x14a;" glyph-name="Eng" horiz-adv-x="627" d="M26 60L89 69V559L26 564V626H218L479 222V552L408 564V626H603V564L550 552V-8Q550 -64 537 -105T500 -174T444 -215T372 -229Q315 -229 287 -200T259 -131Q259 -99 277 -79T323 -59Q346 -59
362 -71T378 -107Q378 -119 374 -127T365 -140T356 -148T352 -156Q352 -164 358 -168T375 -172Q421 -172 450 -136T479 -18V18L159 511V75L256 60V0H26V60Z" />
<glyph unicode="&#x14b;" glyph-name="eng" horiz-adv-x="515" d="M16 60L85 65V364L17 353V415L175 454L183 450V372Q197 389 213 403T246 430Q266 444 287 453T330 462Q389 462 420 431T451 332V15Q451 -30 437 -72T399 -147T340 -200T264 -220Q236 -220 218
-204T199 -165Q199 -142 211 -128T243 -114Q263 -114 283 -126T318 -150Q337 -139 344 -110T352 -38V320Q352 349 336 365T285 381Q259 381 234 370T183 340V64L242 60V0H16V60Z" />
<glyph unicode="&#x14c;" glyph-name="Omacron" horiz-adv-x="641" d="M320 45Q405 45 449 110T493 308Q493 440 449 506T320 572Q236 572 192 506T148 308Q148 176 192 111T320 45ZM320 -18Q264 -18 211 4T118 69T53 172T28 308Q28 383 52 443T117 546T211 612T320
636Q376 636 429 613T523 547T588 444T613 308Q613 233 589 173T523 70T429 5T320 -18ZM204 765H462V704H204V765Z" />
<glyph unicode="&#x14d;" glyph-name="omacron" horiz-adv-x="495" d="M248 46Q279 46 301 59T337 96T358 152T365 221Q365 258 358 290T337 346T301 383T248 397Q217 397 195 384T158 346T137 290T130 221Q130 184 137 152T158 97T194 60T248 46ZM248 -17Q205
-17 165 -1T93 47T43 122T24 221Q24 276 43 320T93 395T164 443T248 460Q291 460 331 443T402 395T453 319T472 221Q472 166 453 122T403 47T331 0T248 -17ZM131 606H369V546H131V606Z" />
<glyph unicode="&#x14e;" glyph-name="Obreve" horiz-adv-x="641" d="M320 45Q405 45 449 110T493 308Q493 440 449 506T320 572Q236 572 192 506T148 308Q148 176 192 111T320 45ZM320 -18Q264 -18 211 4T118 69T53 172T28 308Q28 383 52 443T117 546T211 612T320
636Q376 636 429 613T523 547T588 444T613 308Q613 233 589 173T523 70T429 5T320 -18ZM333 676Q303 676 280 687T242 718T218 761T208 809H251Q258 783 276 767T333 750Q371 750 389 766T415 809H458Q456 786 448 763T425 720T386 688T333 676Z" />
<glyph unicode="&#x14f;" glyph-name="obreve" horiz-adv-x="495" d="M248 46Q279 46 301 59T337 96T358 152T365 221Q365 258 358 290T337 346T301 383T248 397Q217 397 195 384T158 346T137 290T130 221Q130 184 137 152T158 97T194 60T248 46ZM248 -17Q205
-17 165 -1T93 47T43 122T24 221Q24 276 43 320T93 395T164 443T248 460Q291 460 331 443T402 395T453 319T472 221Q472 166 453 122T403 47T331 0T248 -17ZM250 514Q221 514 199 527T161 561T138 611T127 669H169Q176 631 194 611T250 590Q288 590 306 610T331
669H373Q371 639 363 611T339 562T302 527T250 514Z" />
<glyph unicode="&#x150;" glyph-name="Ohungarumlaut" horiz-adv-x="641" d="M320 45Q405 45 449 110T493 308Q493 440 449 506T320 572Q236 572 192 506T148 308Q148 176 192 111T320 45ZM320 -18Q264 -18 211 4T118 69T53 172T28 308Q28 383 52 443T117 546T211
612T320 636Q376 636 429 613T523 547T588 444T613 308Q613 233 589 173T523 70T429 5T320 -18ZM391 678L413 789Q418 812 430 821T460 831Q476 831 491 820T506 785Q506 762 485 741L426 678H391ZM246 678L268 789Q273 812 285 821T314 831Q331 831 345 820T360
785Q360 765 339 741L281 678H246Z" />
<glyph unicode="&#x151;" glyph-name="ohungarumlaut" horiz-adv-x="495" d="M248 46Q279 46 301 59T337 96T358 152T365 221Q365 258 358 290T337 346T301 383T248 397Q217 397 195 384T158 346T137 290T130 221Q130 184 137 152T158 97T194 60T248 46ZM248 -17Q205
-17 165 -1T93 47T43 122T24 221Q24 276 43 320T93 395T164 443T248 460Q291 460 331 443T402 395T453 319T472 221Q472 166 453 122T403 47T331 0T248 -17ZM191 645Q196 668 208 677T237 686Q253 686 268 674T283 640Q283 630 277 619T262 596L196 507H162L191
645ZM335 645Q340 668 352 677T381 686Q397 686 411 674T426 640Q426 630 420 619T406 596L339 507H305L335 645Z" />
<glyph unicode="&#x152;" glyph-name="OE" horiz-adv-x="843" d="M328 0Q271 0 217 16T121 69T54 165T28 312Q28 396 53 455T119 553T213 608T322 626H775V440H729L706 530Q701 553 690 558T653 564H496V342H558Q594 342 599 370L609 441H653V194H610L599 263Q596
280 586 285T557 290H496V64H657Q679 64 693 65T715 70T727 83T734 107L758 205H807V0H328ZM148 312Q148 241 161 194T200 117T259 76T335 64H385V564H332Q294 564 261 552T202 510T163 432T148 312Z" />
<glyph unicode="&#x153;" glyph-name="oe" horiz-adv-x="789" d="M248 -17Q205 -17 165 -1T93 47T43 122T24 221Q24 276 43 320T93 395T164 443T248 460Q301 460 346 433T418 356Q445 404 488 432T585 460Q621 460 653 449T711 412T750 345T763 246L759 239H471V223Q471
142 506 97T601 51Q646 51 678 72T728 143L770 124Q725 -17 583 -17Q522 -17 480 8T415 79Q387 32 343 8T248 -17ZM248 46Q279 46 301 59T337 96T358 152T365 221Q365 258 358 290T337 346T301 383T248 397Q217 397 195 384T158 346T137 290T130 221Q130 184 137
152T158 97T194 60T248 46ZM579 402Q537 402 512 372T477 290H662Q662 349 642 375T579 402Z" />
<glyph unicode="&#x154;" glyph-name="Racute" horiz-adv-x="591" d="M26 60L90 66V560L26 564V626H270Q317 626 358 616T430 586T479 536T497 467Q497 435 485 409T452 362T406 328T352 307V303Q411 295 438 263T477 179Q491 113 503 83T546 53Q566 53 583 63L602
24Q583 10 558 1T500 -8Q462 -8 438 5T399 42T376 98T361 168Q355 201 349 224T332 260T305 280T261 286H201V67L272 60V0H26V60ZM201 565V339H277Q337 339 358 365T380 451Q380 487 370 509T344 543T306 560T264 565H201ZM237 678L281 786Q292 812 303 822T334
833Q351 833 366 820T382 783Q382 767 375 755T350 732L271 678H237Z" />
<glyph unicode="&#x155;" glyph-name="racute" horiz-adv-x="391" d="M16 60L85 65V363L13 349V412L175 454L183 450V370Q198 386 215 402T249 432T284 453T318 461Q348 461 365 443T382 394Q382 365 365 346T318 326Q305 326 295 329T280 338Q280 359 275 368T259
377Q248 377 226 364T183 333V64L261 60V0H16V60ZM234 642Q243 666 254 676T284 686Q301 686 317 673T333 636Q333 614 309 591L220 507H186L234 642Z" />
<glyph unicode="&#x156;" glyph-name="Rcommaaccent" horiz-adv-x="591" d="M256 -221Q294 -209 313 -191T332 -152Q332 -134 321 -134Q316 -134 310 -140T290 -146Q270 -146 259 -133T248 -100Q248 -79 266 -65T311 -51Q348 -51 370 -72T393 -131Q393 -158 383
-178T355 -214T315 -239T267 -256L256 -221ZM26 60L90 66V560L26 564V626H270Q317 626 358 616T430 586T479 536T497 467Q497 435 485 409T452 362T406 328T352 307V303Q411 295 438 263T477 179Q491 113 503 83T546 53Q566 53 583 63L602 24Q583 10 558 1T500
-8Q462 -8 438 5T399 42T376 98T361 168Q355 201 349 224T332 260T305 280T261 286H201V67L272 60V0H26V60ZM201 565V339H277Q337 339 358 365T380 451Q380 487 370 509T344 543T306 560T264 565H201Z" />
<glyph unicode="&#x157;" glyph-name="rcommaaccent" horiz-adv-x="391" d="M309 -221Q347 -209 366 -191T385 -152Q385 -134 374 -134Q369 -134 363 -140T343 -146Q323 -146 312 -133T301 -100Q301 -79 319 -65T364 -51Q401 -51 423 -72T446 -131Q446 -158 436
-178T408 -214T368 -239T320 -256L309 -221ZM16 60L85 65V363L13 349V412L175 454L183 450V370Q198 386 215 402T249 432T284 453T318 461Q348 461 365 443T382 394Q382 365 365 346T318 326Q305 326 295 329T280 338Q280 359 275 368T259 377Q248 377 226 364T183
333V64L261 60V0H16V60Z" />
<glyph unicode="&#x158;" glyph-name="Rcaron" horiz-adv-x="591" d="M26 60L90 66V560L26 564V626H270Q317 626 358 616T430 586T479 536T497 467Q497 435 485 409T452 362T406 328T352 307V303Q411 295 438 263T477 179Q491 113 503 83T546 53Q566 53 583 63L602
24Q583 10 558 1T500 -8Q462 -8 438 5T399 42T376 98T361 168Q355 201 349 224T332 260T305 280T261 286H201V67L272 60V0H26V60ZM201 565V339H277Q337 339 358 365T380 451Q380 487 370 509T344 543T306 560T264 565H201ZM174 809L267 750L360 809H398L306 678H228L136
809H174Z" />
<glyph unicode="&#x159;" glyph-name="rcaron" horiz-adv-x="391" d="M16 60L85 65V363L13 349V412L175 454L183 450V370Q198 386 215 402T249 432T284 453T318 461Q348 461 365 443T382 394Q382 365 365 346T318 326Q305 326 295 329T280 338Q280 359 275 368T259
377Q248 377 226 364T183 333V64L261 60V0H16V60ZM389 666L476 588L563 666H599L513 515H439L353 666H389Z" />
<glyph unicode="&#x15a;" glyph-name="Sacute" horiz-adv-x="495" d="M261 -12Q215 -12 172 5T99 59L84 8H35V206H91Q101 157 118 127T156 79T201 56T249 50Q274 50 296 56T335 74T362 105T372 151Q372 175 361 192T331 223T283 248T221 271Q183 283 151 298T94
334T56 386T42 458Q42 502 58 535T100 590T161 624T231 636Q272 636 309 621T367 579L381 619H429V453H376Q363 511 326 542T236 574Q190 574 162 552T133 490Q133 465 143 449T171 420T216 397T276 376Q315 362 350 348T411 311T452 258T468 182Q468 132 450 96T401
35T334 0T261 -12ZM210 678L254 786Q265 812 276 822T307 833Q324 833 339 820T355 783Q355 767 348 755T323 732L244 678H210Z" />
<glyph unicode="&#x15b;" glyph-name="sacute" horiz-adv-x="374" d="M173 -15Q138 -15 111 -7T63 14T33 45T22 81Q22 104 35 120T72 136Q86 136 95 133T112 124Q109 84 125 62T180 40Q194 40 208 43T234 54T253 73T260 99Q260 132 238 147T171 181Q106 202 74
232T41 322Q41 351 53 375T86 418T137 446T200 457Q263 457 299 432T335 371Q335 349 321 338T287 327Q275 327 267 329T253 337Q251 372 238 388T193 404Q164 404 144 390T124 347Q124 321 143 306T208 273Q280 247 315 215T349 128Q349 63 303 24T173 -15ZM460
642Q469 666 480 676T510 686Q527 686 543 673T559 636Q559 614 535 591L446 507H412L460 642Z" />
<glyph unicode="&#x15c;" glyph-name="Scircumflex" horiz-adv-x="495" d="M261 -12Q215 -12 172 5T99 59L84 8H35V206H91Q101 157 118 127T156 79T201 56T249 50Q274 50 296 56T335 74T362 105T372 151Q372 175 361 192T331 223T283 248T221 271Q183 283 151
298T94 334T56 386T42 458Q42 502 58 535T100 590T161 624T231 636Q272 636 309 621T367 579L381 619H429V453H376Q363 511 326 542T236 574Q190 574 162 552T133 490Q133 465 143 449T171 420T216 397T276 376Q315 362 350 348T411 311T452 258T468 182Q468 132
450 96T401 35T334 0T261 -12ZM116 678L208 809H286L378 678H340L246 737L154 678H116Z" />
<glyph unicode="&#x15d;" glyph-name="scircumflex" horiz-adv-x="374" d="M173 -15Q138 -15 111 -7T63 14T33 45T22 81Q22 104 35 120T72 136Q86 136 95 133T112 124Q109 84 125 62T180 40Q194 40 208 43T234 54T253 73T260 99Q260 132 238 147T171 181Q106 202
74 232T41 322Q41 351 53 375T86 418T137 446T200 457Q263 457 299 432T335 371Q335 349 321 338T287 327Q275 327 267 329T253 337Q251 372 238 388T193 404Q164 404 144 390T124 347Q124 321 143 306T208 273Q280 247 315 215T349 128Q349 63 303 24T173 -15ZM317
507L404 658H478L563 507H527L439 584L353 507H317Z" />
<glyph unicode="&#x15e;" glyph-name="Scedilla" horiz-adv-x="495" d="M261 -12Q246 -12 232 -10V-55Q274 -50 304 -69T335 -127Q335 -165 305 -187T225 -209Q195 -209 176 -205T139 -193L149 -155Q157 -158 170 -161T204 -165Q227 -165 240 -156T254 -127Q254
-108 236 -100T183 -98V1Q177 3 171 5Q128 23 99 59L84 8H35V206H91Q101 157 118 127T156 79T201 56T249 50Q274 50 296 56T335 74T362 105T372 151Q372 175 361 192T331 223T283 248T221 271Q183 283 151 298T94 334T56 386T42 458Q42 502 58 535T100 590T161
624T231 636Q272 636 309 621T367 579L381 619H429V453H376Q363 511 326 542T236 574Q190 574 162 552T133 490Q133 465 143 449T171 420T216 397T276 376Q315 362 350 348T411 311T452 258T468 182Q468 132 450 96T401 35T334 0T261 -12Z" />
<glyph unicode="&#x15f;" glyph-name="scedilla" horiz-adv-x="374" d="M173 -223Q142 -223 123 -219T86 -207L96 -168Q104 -171 117 -174T151 -178Q174 -178 187 -168T201 -141Q201 -119 183 -110T130 -107V-11Q120 -9 110 -7Q83 1 63 14T33 45T22 81Q22 104
35 120T72 136Q86 136 95 133T112 124Q109 84 125 62T180 40Q194 40 208 43T234 54T253 73T260 99Q260 132 238 147T171 181Q106 202 74 232T41 322Q41 351 53 375T86 418T137 446T200 457Q263 457 299 432T335 371Q335 349 321 338T287 327Q275 327 267 329T253
337Q251 372 238 388T193 404Q164 404 144 390T124 347Q124 321 143 306T208 273Q280 247 315 215T349 128Q349 63 303 24Q258 -13 179 -15V-64Q221 -59 251 -79T282 -138Q282 -178 252 -200T173 -223Z" />
<glyph unicode="&#x160;" glyph-name="Scaron" horiz-adv-x="495" d="M261 -12Q215 -12 172 5T99 59L84 8H35V206H91Q101 157 118 127T156 79T201 56T249 50Q274 50 296 56T335 74T362 105T372 151Q372 175 361 192T331 223T283 248T221 271Q183 283 151 298T94
334T56 386T42 458Q42 502 58 535T100 590T161 624T231 636Q272 636 309 621T367 579L381 619H429V453H376Q363 511 326 542T236 574Q190 574 162 552T133 490Q133 465 143 449T171 420T216 397T276 376Q315 362 350 348T411 311T452 258T468 182Q468 132 450 96T401
35T334 0T261 -12ZM154 809L247 750L340 809H378L286 678H208L116 809H154Z" />
<glyph unicode="&#x161;" glyph-name="scaron" horiz-adv-x="374" d="M173 -15Q138 -15 111 -7T63 14T33 45T22 81Q22 104 35 120T72 136Q86 136 95 133T112 124Q109 84 125 62T180 40Q194 40 208 43T234 54T253 73T260 99Q260 132 238 147T171 181Q106 202 74
232T41 322Q41 351 53 375T86 418T137 446T200 457Q263 457 299 432T335 371Q335 349 321 338T287 327Q275 327 267 329T253 337Q251 372 238 388T193 404Q164 404 144 390T124 347Q124 321 143 306T208 273Q280 247 315 215T349 128Q349 63 303 24T173 -15ZM359
666L446 588L533 666H569L483 515H409L323 666H359Z" />
<glyph unicode="&#x162;" glyph-name="Tcommaaccent" horiz-adv-x="561" d="M224 -221Q262 -209 281 -191T300 -152Q300 -134 289 -134Q284 -134 278 -140T258 -146Q238 -146 227 -133T216 -100Q216 -79 234 -65T279 -51Q316 -51 338 -72T361 -131Q361 -158 351
-178T323 -214T283 -239T235 -256L224 -221ZM151 60L225 68V567H153Q123 567 112 554T92 500L70 413H27V626H534V413H489L467 498Q462 521 457 535T443 556T422 565T391 567H337V67L410 60V0H151V60Z" />
<glyph unicode="&#x163;" glyph-name="tcommaaccent" horiz-adv-x="323" d="M358 -221Q396 -209 415 -191T434 -152Q434 -134 423 -134Q418 -134 412 -140T392 -146Q372 -146 361 -133T350 -100Q350 -79 368 -65T413 -51Q450 -51 472 -72T495 -131Q495 -158 485
-178T457 -214T417 -239T369 -256L358 -221ZM185 -13Q126 -13 101 12T75 89V386L15 384V436Q62 445 87 469T129 545L174 542V446H297V384H174V117Q174 86 185 72T235 57Q254 57 269 60T308 70L316 31Q290 10 255 -1T185 -13Z" />
<glyph unicode="&#x164;" glyph-name="Tcaron" horiz-adv-x="561" d="M151 60L225 68V567H153Q123 567 112 554T92 500L70 413H27V626H534V413H489L467 498Q462 521 457 535T443 556T422 565T391 567H337V67L410 60V0H151V60ZM194 809L287 750L380 809H418L326
678H248L156 809H194Z" />
<glyph unicode="&#x165;" glyph-name="tcaron" horiz-adv-x="326" d="M185 -13Q126 -13 101 12T75 89V386L15 384V436Q62 445 87 469T129 545L174 542V446H297V384H174V117Q174 86 185 72T235 57Q254 57 269 60T308 70L316 31Q290 10 255 -1T185 -13ZM217 501Q230
522 237 542T245 582Q245 602 238 616T220 644Q223 665 235 675T265 686Q288 686 302 668T316 620Q316 578 294 543T242 481L217 501V501Z" />
<glyph unicode="&#x166;" glyph-name="Tbar" horiz-adv-x="561" d="M96 349H465V300H96V349ZM151 60L225 68V567H153Q123 567 112 554T92 500L70 413H27V626H534V413H489L467 498Q462 521 457 535T443 556T422 565T391 567H337V67L410 60V0H151V60Z" />
<glyph unicode="&#x167;" glyph-name="tbar" horiz-adv-x="326" d="M15 293H297V247H15V293ZM185 -13Q126 -13 101 12T75 89V386L15 384V436Q62 445 87 469T129 545L174 542V446H297V384H174V117Q174 86 185 72T235 57Q254 57 269 60T308 70L316 31Q290 10 255
-1T185 -13Z" />
<glyph unicode="&#x168;" glyph-name="Utilde" horiz-adv-x="612" d="M314 -13Q253 -13 209 3T137 48T94 115T80 198V560L24 564V626H269V564L190 559V213Q190 139 220 98T327 56Q399 56 429 96T460 213V552L387 564V626H587V564L530 552V202Q530 157 518 118T481
50T414 4T314 -13ZM403 700Q389 700 373 704T340 712T309 721T283 725Q254 725 241 686H198Q203 709 211 730T232 768T260 794T296 804Q310 804 326 800T359 791T389 782T415 778Q445 779 456 817H500Q490 769 466 735T403 700Z" />
<glyph unicode="&#x169;" glyph-name="utilde" horiz-adv-x="513" d="M194 -15Q137 -15 105 15T72 109V381L14 384V444H170V125Q170 93 184 76T235 59Q259 59 284 69T334 97V380L279 384V444H433V73L500 75V17L346 -8L337 -4L339 67Q325 50 310 37T279 14Q260
0 239 -7T194 -15ZM303 532Q288 532 274 536T245 545T217 554T193 558Q163 557 150 518H108Q113 540 121 561T141 599T169 625T205 635Q219 635 233 631T262 622T289 613T313 609Q344 610 355 649H398Q388 602 365 568T303 532Z" />
<glyph unicode="&#x16a;" glyph-name="Umacron" horiz-adv-x="612" d="M314 -13Q253 -13 209 3T137 48T94 115T80 198V560L24 564V626H269V564L190 559V213Q190 139 220 98T327 56Q399 56 429 96T460 213V552L387 564V626H587V564L530 552V202Q530 157 518 118T481
50T414 4T314 -13ZM211 765H469V704H211V765Z" />
<glyph unicode="&#x16b;" glyph-name="umacron" horiz-adv-x="513" d="M194 -15Q137 -15 105 15T72 109V381L14 384V444H170V125Q170 93 184 76T235 59Q259 59 284 69T334 97V380L279 384V444H433V73L500 75V17L346 -8L337 -4L339 67Q325 50 310 37T279 14Q260
0 239 -7T194 -15ZM130 606H368V546H130V606Z" />
<glyph unicode="&#x16c;" glyph-name="Ubreve" horiz-adv-x="612" d="M314 -13Q253 -13 209 3T137 48T94 115T80 198V560L24 564V626H269V564L190 559V213Q190 139 220 98T327 56Q399 56 429 96T460 213V552L387 564V626H587V564L530 552V202Q530 157 518 118T481
50T414 4T314 -13ZM340 676Q310 676 287 687T249 718T225 761T215 809H258Q265 783 283 767T340 750Q378 750 396 766T422 809H465Q463 786 455 763T432 720T393 688T340 676Z" />
<glyph unicode="&#x16d;" glyph-name="ubreve" horiz-adv-x="513" d="M194 -15Q137 -15 105 15T72 109V381L14 384V444H170V125Q170 93 184 76T235 59Q259 59 284 69T334 97V380L279 384V444H433V73L500 75V17L346 -8L337 -4L339 67Q325 50 310 37T279 14Q260
0 239 -7T194 -15ZM249 514Q220 514 198 527T160 561T137 611T126 669H168Q175 631 193 611T249 590Q287 590 305 610T330 669H372Q370 639 362 611T338 562T301 527T249 514Z" />
<glyph unicode="&#x16e;" glyph-name="Uring" horiz-adv-x="612" d="M314 -13Q253 -13 209 3T137 48T94 115T80 198V560L24 564V626H269V564L190 559V213Q190 139 220 98T327 56Q399 56 429 96T460 213V552L387 564V626H587V564L530 552V202Q530 157 518 118T481
50T414 4T314 -13ZM340 927Q361 927 375 942T389 979Q389 1000 375 1015T340 1031Q318 1031 305 1016T291 979Q291 957 304 942T340 927ZM340 893Q303 893 279 917T254 979Q254 1015 278 1040T340 1065Q376 1065 401 1040T426 979Q426 942 401 918T340 893Z" />
<glyph unicode="&#x16f;" glyph-name="uring" horiz-adv-x="513" d="M194 -15Q137 -15 105 15T72 109V381L14 384V444H170V125Q170 93 184 76T235 59Q259 59 284 69T334 97V380L279 384V444H433V73L500 75V17L346 -8L337 -4L339 67Q325 50 310 37T279 14Q260 0
239 -7T194 -15ZM249 539Q270 539 284 554T298 591Q298 613 284 628T249 644Q227 644 214 629T200 591Q200 569 213 554T249 539ZM249 506Q212 506 188 530T163 591Q163 628 187 653T249 678Q285 678 310 653T335 591Q335 555 310 531T249 506Z" />
<glyph unicode="&#x170;" glyph-name="Uhungarumlaut" horiz-adv-x="612" d="M314 -13Q253 -13 209 3T137 48T94 115T80 198V560L24 564V626H269V564L190 559V213Q190 139 220 98T327 56Q399 56 429 96T460 213V552L387 564V626H587V564L530 552V202Q530 157 518
118T481 50T414 4T314 -13ZM398 678L420 789Q425 812 437 821T467 831Q483 831 498 820T513 785Q513 762 492 741L433 678H398ZM253 678L275 789Q280 812 292 821T321 831Q338 831 352 820T367 785Q367 765 346 741L288 678H253Z" />
<glyph unicode="&#x171;" glyph-name="uhungarumlaut" horiz-adv-x="513" d="M194 -15Q137 -15 105 15T72 109V381L14 384V444H170V125Q170 93 184 76T235 59Q259 59 284 69T334 97V380L279 384V444H433V73L500 75V17L346 -8L337 -4L339 67Q325 50 310 37T279
14Q260 0 239 -7T194 -15ZM191 645Q196 668 208 677T237 686Q253 686 268 674T283 640Q283 630 277 619T262 596L196 507H162L191 645ZM335 645Q340 668 352 677T381 686Q397 686 411 674T426 640Q426 630 420 619T406 596L339 507H305L335 645Z" />
<glyph unicode="&#x172;" glyph-name="Uogonek" horiz-adv-x="612" d="M443 -164Q438 -172 430 -182T409 -200T381 -214T344 -220Q302 -220 274 -198T246 -139Q246 -123 254 -107T277 -75T309 -43T349 -11Q336 -13 329 -13H314Q253 -13 209 3T137 48T94 115T80
198V560L24 564V626H269V564L190 558V213Q190 139 220 98T327 56Q399 56 429 96T460 213V552L387 564V626H587V564L530 552V202Q530 148 514 105T464 33Q441 14 419 -4T379 -41T350 -80T339 -123Q339 -141 348 -151T377 -162Q389 -162 400 -156T420 -140L443 -164Z"
/>
<glyph unicode="&#x173;" glyph-name="uogonek" horiz-adv-x="513" d="M194 -15Q137 -15 105 15T72 109V381L14 384V444H170V125Q170 93 184 76T235 59Q259 59 284 69T334 97V380L279 384V444H433V73L500 75V17L388 -1Q353 -39 337 -69T321 -123Q321 -141 330
-151T359 -162Q372 -162 383 -156T403 -140L426 -164Q421 -172 413 -182T392 -200T364 -214T327 -220Q284 -220 257 -198T229 -139Q229 -121 238 -103T263 -68T297 -34T336 -3L339 67Q325 50 310 37T279 14Q260 0 239 -7T194 -15Z" />
<glyph unicode="&#x174;" glyph-name="Wcircumflex" horiz-adv-x="824" d="M418 291L318 -9H237L63 560L16 564V626H235V564L178 560L301 138H302L376 369L310 561L273 564V626H583V564L542 560L488 390L574 134H575L689 547L621 564V626H807V564L759 550L597
-9H519L418 291ZM442 455L477 559H408L442 455ZM328 678L420 809H498L590 678H552L458 737L366 678H328Z" />
<glyph unicode="&#x175;" glyph-name="wcircumflex" horiz-adv-x="681" d="M348 287H346L230 -10H175L48 383L10 386V446H207V386L156 382L231 137H233L321 361L313 381L265 386V446H459V386L413 382L499 138H501L573 376L523 386V446H671V386L633 379L511 -10H457L348
287ZM249 507L336 658H410L495 507H459L371 584L285 507H249Z" />
<glyph unicode="&#x176;" glyph-name="Ycircumflex" horiz-adv-x="558" d="M155 60L229 68V287L59 561L17 564V626H246V564L187 560L312 351L421 547L362 564V626H541V564L489 545L340 280V67L414 60V0H155V60ZM182 678L274 809H352L444 678H406L312 737L220 678H182Z" />
<glyph unicode="&#x177;" glyph-name="ycircumflex" horiz-adv-x="478" d="M109 -220Q69 -220 50 -199T31 -154Q31 -128 46 -115T81 -102Q98 -102 109 -111Q109 -134 119 -141T138 -149Q154 -149 170 -125T210 -38L216 -20L49 383L9 386V446H218V386L162 382L264
113H266L363 374L312 386V446H469V386L425 373L267 -43Q249 -91 233 -124T198 -179T159 -210T109 -220ZM391 507L478 658H552L637 507H601L513 584L427 507H391Z" />
<glyph unicode="&#x178;" glyph-name="Ydieresis" horiz-adv-x="558" d="M155 60L229 68V287L59 561L17 564V626H246V564L187 560L312 351L421 547L362 564V626H541V564L489 545L340 280V67L414 60V0H155V60ZM217 684Q192 684 176 700T159 741Q159 765 175 781T217
798Q241 798 258 782T275 741Q275 717 258 701T217 684ZM409 684Q385 684 368 700T351 741Q351 765 368 781T409 798Q434 798 450 782T467 741Q467 717 451 701T409 684Z" />
<glyph unicode="&#x179;" glyph-name="Zacute" horiz-adv-x="546" d="M63 626H505V589L177 64H316Q351 64 372 66T406 75T423 92T433 120L460 227H507V0H35V36L365 564H220Q195 564 181 562T157 554T144 538T135 509L110 416H63V626ZM254 678L298 786Q309 812
320 822T351 833Q368 833 383 820T399 783Q399 767 392 755T367 732L288 678H254Z" />
<glyph unicode="&#x17a;" glyph-name="zacute" horiz-adv-x="432" d="M44 446H390V409L155 51H233Q261 51 280 53T312 64T331 87T340 126L343 146H389V0H31V36L271 395H213Q180 395 158 393T123 385T103 367T93 334L90 312H44V446ZM229 642Q238 666 249 676T279
686Q296 686 312 673T328 636Q328 614 304 591L215 507H181L229 642Z" />
<glyph unicode="&#x17b;" glyph-name="Zdotaccent" horiz-adv-x="546" d="M63 626H505V589L177 64H316Q351 64 372 66T406 75T423 92T433 120L460 227H507V0H35V36L365 564H220Q195 564 181 562T157 554T144 538T135 509L110 416H63V626ZM293 684Q268 684 251
701T233 743Q233 768 250 785T293 802Q319 802 336 785T354 743Q354 718 337 701T293 684Z" />
<glyph unicode="&#x17c;" glyph-name="zdotaccent" horiz-adv-x="432" d="M44 446H390V409L155 51H233Q261 51 280 53T312 64T331 87T340 126L343 146H389V0H31V36L271 395H213Q180 395 158 393T123 385T103 367T93 334L90 312H44V446ZM471 529Q446 529 429 546T411
588Q411 613 428 630T471 647Q497 647 514 630T532 588Q532 563 515 546T471 529Z" />
<glyph unicode="&#x17d;" glyph-name="Zcaron" horiz-adv-x="546" d="M63 626H505V589L177 64H316Q351 64 372 66T406 75T423 92T433 120L460 227H507V0H35V36L365 564H220Q195 564 181 562T157 554T144 538T135 509L110 416H63V626ZM200 809L293 750L386 809H424L332
678H254L162 809H200Z" />
<glyph unicode="&#x17e;" glyph-name="zcaron" horiz-adv-x="432" d="M44 446H390V409L155 51H233Q261 51 280 53T312 64T331 87T340 126L343 146H389V0H31V36L271 395H213Q180 395 158 393T123 385T103 367T93 334L90 312H44V446ZM384 666L471 588L558 666H594L508
515H434L348 666H384Z" />
<glyph unicode="&#x192;" glyph-name="florin" horiz-adv-x="442" d="M31 354H126L131 403Q143 520 199 579T345 638Q402 638 435 613T469 546Q469 513 452 496T408 478Q388 478 372 489T355 523Q355 533 358 539T365 550T372 558T376 566Q376 581 345 581Q327
581 310 575T280 553T256 508T241 434L232 354H368V293H225L188 -31Q177 -128 134 -179T19 -230Q-29 -230 -58 -205T-88 -140Q-88 -109 -72 -94T-32 -79Q-14 -79 1 -89T16 -121Q16 -138 7 -145T-3 -159Q-3 -173 20 -173Q36 -173 47 -166T65 -145T77 -115T83 -78L120
293H31V354Z" />
<glyph unicode="&#x1fa;" glyph-name="Aringacute" horiz-adv-x="613" d="M10 60L70 76L264 635H347L550 64L603 60V0H357V60L430 65L381 205H184L141 78L226 60V0H10V60ZM202 261H362L281 492H280L202 261ZM299 834L343 942Q354 968 365 978T396 989Q413 989
428 976T444 939Q444 923 437 911T412 888L333 834H299ZM318 897Q339 897 353 912T367 949Q367 970 353 985T318 1001Q296 1001 283 986T269 949Q269 927 282 912T318 897ZM318 863Q281 863 257 887T232 949Q232 985 256 1010T318 1035Q354 1035 379 1010T404 949Q404
912 379 888T318 863Z" />
<glyph unicode="&#x1fb;" glyph-name="aringacute" horiz-adv-x="462" d="M150 -10Q125 -10 102 -3T61 18T33 54T22 107Q22 140 35 165T72 209T128 236T197 245Q221 245 239 242T273 233V344Q273 377 256 392T200 408Q189 408 177 406T156 399Q142 393 142 383Q142
380 145 377T153 369T160 357T164 337Q164 315 148 303T111 291Q87 291 70 307T53 349Q53 378 68 399T108 434T162 454T220 461Q288 461 330 434T372 341V91Q372 71 380 64T402 57Q416 57 424 59T444 70L462 45Q457 39 450 30T430 12T401 -2T361 -8Q329 -8 308
8T277 54Q255 29 225 10T150 -10ZM197 56Q223 56 242 66T273 85V192Q258 196 245 198T208 200Q173 200 149 183T124 124Q124 92 144 74T197 56ZM474 786Q495 786 509 801T523 838Q523 860 509 875T474 891Q452 891 439 876T425 838Q425 816 438 801T474 786ZM474
753Q437 753 413 777T388 838Q388 875 412 900T474 925Q510 925 535 900T560 838Q560 802 535 778T474 753ZM190 709L234 817Q245 843 256 853T287 864Q304 864 319 851T335 814Q335 798 328 786T303 763L224 709H190Z" />
<glyph unicode="&#x1fc;" glyph-name="AEacute" horiz-adv-x="841" d="M521 678L565 786Q576 812 587 822T618 833Q635 833 650 820T666 783Q666 767 659 755T634 732L555 678H521ZM12 60L76 78L321 558L240 564V626H772V440H727L704 530Q699 553 688 558T650
564H497V334H547Q585 334 588 363L599 434H642V186H600L588 256Q585 273 575 278T547 283H497V64H654Q677 64 690 65T712 70T724 83T731 107L756 205H804V0H322V60L386 67V283H251L148 77L231 60V0H12V60ZM276 334H386V548H384L276 334Z" />
<glyph unicode="&#x1fd;" glyph-name="aeacute" horiz-adv-x="695" d="M396 642Q405 666 416 676T446 686Q463 686 479 673T495 636Q495 614 471 591L382 507H348L396 642ZM164 -10Q104 -10 63 23T22 121Q22 187 71 223T210 260H276V344Q276 377 258 392T201 408Q190
408 178 406T157 399Q143 393 143 383Q143 380 146 377T154 369T161 357T165 337Q165 315 149 303T112 291Q88 291 71 307T54 349Q54 378 69 399T108 434T160 454T215 461Q266 461 301 445T351 390Q377 423 413 441T494 460Q529 460 562 449T621 411T661 337T672
221L668 214H382Q384 137 416 94T507 51Q551 51 583 72T633 143L675 124Q630 -17 488 -17Q428 -17 384 6T314 72Q285 32 249 11T164 -10ZM198 56Q233 56 256 71T297 107Q277 153 276 212H218Q176 212 150 194T124 133Q124 101 144 79T198 56ZM487 402Q441 402 416
364T384 264H571Q572 304 567 331T551 373T524 395T487 402Z" />
<glyph unicode="&#x1fe;" glyph-name="Oslashacute" horiz-adv-x="641" d="M38 5L102 87Q68 129 48 184T28 308Q28 383 52 443T117 546T211 612T320 636Q365 636 407 621T487 578L546 653L590 618L529 540Q567 497 590 439T613 308Q613 233 589 173T523 70T429
5T320 -18Q271 -18 225 -1T141 48L81 -29L38 5ZM320 45Q405 45 449 110T494 308Q494 406 471 467L189 108Q211 75 243 60T320 45ZM147 308Q147 264 151 229T164 165L442 520Q400 572 320 572Q236 572 192 506T147 308ZM295 678L339 786Q350 812 361 822T392 833Q409
833 424 820T440 783Q440 767 433 755T408 732L329 678H295Z" />
<glyph unicode="&#x1ff;" glyph-name="oslashacute" horiz-adv-x="495" d="M27 -6L80 60Q54 90 39 130T24 221Q24 276 43 320T93 395T164 443T248 460Q281 460 313 450T373 419L422 479L460 446L411 386Q439 355 455 314T472 221Q472 166 453 122T403 47T331 0T248
-17Q175 -17 117 26L65 -38L27 -6ZM248 41Q279 41 301 54T338 92T360 149T367 221Q367 277 356 318L160 78Q190 41 248 41ZM128 221Q128 167 137 130L331 367Q301 402 248 402Q216 402 194 388T157 350T135 293T128 221ZM264 642Q273 666 284 676T314 686Q331 686
347 673T363 636Q363 614 339 591L250 507H216L264 642Z" />
<glyph unicode="&#x218;" glyph-name="Scommaaccent" horiz-adv-x="495" d="M182 -221Q220 -209 239 -191T258 -152Q258 -134 247 -134Q242 -134 236 -140T216 -146Q196 -146 185 -133T174 -100Q174 -79 192 -65T237 -51Q274 -51 296 -72T319 -131Q319 -158 309
-178T281 -214T241 -239T193 -256L182 -221ZM261 -12Q215 -12 172 5T99 59L84 8H35V206H91Q101 157 118 127T156 79T201 56T249 50Q274 50 296 56T335 74T362 105T372 151Q372 175 361 192T331 223T283 248T221 271Q183 283 151 298T94 334T56 386T42 458Q42 502
58 535T100 590T161 624T231 636Q272 636 309 621T367 579L381 619H429V453H376Q363 511 326 542T236 574Q190 574 162 552T133 490Q133 465 143 449T171 420T216 397T276 376Q315 362 350 348T411 311T452 258T468 182Q468 132 450 96T401 35T334 0T261 -12Z"
/>
<glyph unicode="&#x219;" glyph-name="scommaaccent" horiz-adv-x="374" d="M367 -221Q405 -209 424 -191T443 -152Q443 -134 432 -134Q427 -134 421 -140T401 -146Q381 -146 370 -133T359 -100Q359 -79 377 -65T422 -51Q459 -51 481 -72T504 -131Q504 -158 494
-178T466 -214T426 -239T378 -256L367 -221ZM173 -15Q138 -15 111 -7T63 14T33 45T22 81Q22 104 35 120T72 136Q86 136 95 133T112 124Q109 84 125 62T180 40Q194 40 208 43T234 54T253 73T260 99Q260 132 238 147T171 181Q106 202 74 232T41 322Q41 351 53 375T86
418T137 446T200 457Q263 457 299 432T335 371Q335 349 321 338T287 327Q275 327 267 329T253 337Q251 372 238 388T193 404Q164 404 144 390T124 347Q124 321 143 306T208 273Q280 247 315 215T349 128Q349 63 303 24T173 -15Z" />
<glyph unicode="&#x21a;" glyph-name="uni021A" horiz-adv-x="561" d="M224 -221Q262 -209 281 -191T300 -152Q300 -134 289 -134Q284 -134 278 -140T258 -146Q238 -146 227 -133T216 -100Q216 -79 234 -65T279 -51Q316 -51 338 -72T361 -131Q361 -158 351 -178T323
-214T283 -239T235 -256L224 -221ZM151 60L225 68V567H153Q123 567 112 554T92 500L70 413H27V626H534V413H489L467 498Q462 521 457 535T443 556T422 565T391 567H337V67L410 60V0H151V60Z" />
<glyph unicode="&#x21b;" glyph-name="uni021B" horiz-adv-x="323" d="M358 -221Q396 -209 415 -191T434 -152Q434 -134 423 -134Q418 -134 412 -140T392 -146Q372 -146 361 -133T350 -100Q350 -79 368 -65T413 -51Q450 -51 472 -72T495 -131Q495 -158 485 -178T457
-214T417 -239T369 -256L358 -221ZM185 -13Q126 -13 101 12T75 89V386L15 384V436Q62 445 87 469T129 545L174 542V446H297V384H174V117Q174 86 185 72T235 57Q254 57 269 60T308 70L316 31Q290 10 255 -1T185 -13Z" />
<glyph unicode="&#x237;" glyph-name="uni0237" horiz-adv-x="262" d="M0 -220Q-29 -220 -47 -204T-65 -165Q-65 -142 -54 -128T-22 -114Q-5 -114 13 -124T46 -146Q66 -135 77 -108T88 -38V364L16 355V417L177 454L186 450V15Q186 -30 173 -72T135 -147T76 -200T0 -220Z" />
<glyph unicode="&#x2c6;" glyph-name="circumflex" horiz-adv-x="456" d="M143 507L230 658H304L389 507H353L265 584L179 507H143Z" />
<glyph unicode="&#x2c7;" glyph-name="caron" horiz-adv-x="456" d="M141 666L228 588L315 666H351L265 515H191L105 666H141Z" />
<glyph unicode="&#x2d8;" glyph-name="breve" horiz-adv-x="456" d="M228 514Q199 514 177 527T139 561T116 611T105 669H147Q154 631 172 611T228 590Q266 590 284 610T309 669H351Q349 639 341 611T317 562T280 527T228 514Z" />
<glyph unicode="&#x2d9;" glyph-name="dotaccent" horiz-adv-x="456" d="M228 529Q203 529 186 546T168 588Q168 613 185 630T228 647Q254 647 271 630T289 588Q289 563 272 546T228 529Z" />
<glyph unicode="&#x2da;" glyph-name="ring" horiz-adv-x="456" d="M228 539Q249 539 263 554T277 591Q277 613 263 628T228 644Q206 644 193 629T179 591Q179 569 192 554T228 539ZM228 506Q191 506 167 530T142 591Q142 628 166 653T228 678Q264 678 289 653T314
591Q314 555 289 531T228 506Z" />
<glyph unicode="&#x2db;" glyph-name="ogonek" horiz-adv-x="456" d="M209 -275Q167 -275 138 -251T108 -184Q108 -160 120 -136T150 -88T189 -42T231 0H278Q248 -39 225 -82T202 -168Q202 -217 242 -217Q255 -217 265 -211T284 -196L306 -219Q301 -227 293 -236T273
-254T246 -269T209 -275Z" />
<glyph unicode="&#x2dc;" glyph-name="tilde" horiz-adv-x="456" d="M278 532Q263 532 249 536T220 545T192 554T168 558Q138 557 125 518H83Q88 540 96 561T116 599T144 625T180 635Q194 635 208 631T237 622T264 613T288 609Q319 610 330 649H373Q363 602 340
568T278 532Z" />
<glyph unicode="&#x2dd;" glyph-name="hungarumlaut" horiz-adv-x="456" d="M135 645Q140 668 152 677T181 686Q197 686 212 674T227 640Q227 630 221 619T206 596L140 507H106L135 645ZM279 645Q284 668 296 677T325 686Q341 686 355 674T370 640Q370 630 364
619T350 596L283 507H249L279 645Z" />
</font>
</defs>
</svg>
